
<svg width="200px" height="50px" viewBox="80 183 200 50" version="1.1" xmlns="http://www.w3.org/2000/svg" xmlns:xlink="http://www.w3.org/1999/xlink">
    <!-- Generator: Sketch 42 (36781) - http://www.bohemiancoding.com/sketch -->
    <desc>Created with Sketch.</desc>
    <defs>
        <polygon id="path-1" points="0 45.514851 200 45.514851 200 0.712648964 0 0.712648964"></polygon>
    </defs>
    <g id="Group-2" stroke="none" stroke-width="1" fill="none" fill-rule="evenodd" transform="translate(80.000000, 183.000000)">
        <g id="logo">
            <g id="Group" transform="translate(0.000000, 2.500000)">
                <path d="M13.7929286,44.8236464 C13.3607857,44.9967681 10.7336429,45.5147085 8.42435714,45.5147085 C3.08507143,45.5147085 0.112214286,42.7226749 0.112214286,37.1663925 C0.112214286,30.9475453 3.45935714,24.5854987 11.6286429,24.5854987 C13.0422143,24.5854987 15.6115,24.8156153 16.8522143,25.2758484 L16.3336429,27.8099806 C15.7557857,27.6083614 14.1100714,27.0897085 11.8593571,27.0897085 C5.68292857,27.0897085 2.96935714,31.5809003 2.96935714,36.7054469 C2.96935714,41.225136 5.1915,43.0104987 9.11721429,43.0104987 C10.9072143,43.0104987 12.9557857,42.6649676 14.1100714,42.2902267 L13.7929286,44.8236464 Z" id="Fill-1" fill="#353630"></path>
                <path d="M23.8668571,44.9677008 C23.174,45.2270272 22.2797143,45.514851 21.0382857,45.514851 C19.0754286,45.514851 17.7197143,44.6513795 17.7197143,42.7228174 C17.7197143,42.4919883 17.7482857,42.1756671 17.7768571,41.9455505 L20.5768571,24.1824028 L23.2897143,24.1824028 L20.5482857,41.4268977 C20.5482857,41.4268977 20.519,41.7154339 20.519,41.830136 C20.519,42.8667293 20.9518571,43.1830505 22.1061429,43.1830505 C22.799,43.1830505 23.5211429,42.9814313 24.0975714,42.7805246 L23.8668571,44.9677008 Z" id="Fill-3" fill="#353630"></path>
                <path d="M32.815,43.1831218 C36.2792857,43.1831218 38.6164286,40.3326684 38.6164286,36.2454275 C38.6164286,33.2225648 37.0578571,32.0698446 34.8642857,32.0698446 C31.545,32.0698446 29.0914286,34.6616839 29.005,39.0089637 C29.005,41.2545596 29.7842857,43.1831218 32.815,43.1831218 M26.3207143,39.2390803 C26.3207143,34.0276166 29.6978571,29.7672539 34.9507143,29.7672539 C39.05,29.7672539 41.33,31.9836399 41.33,35.9853886 C41.33,41.3692617 37.9528571,45.5142098 32.5842857,45.5142098 C28.6592857,45.457215 26.3207143,43.3847409 26.3207143,39.2390803" id="Fill-5" fill="#353630"></path>
                <path d="M55.9644286,45.2271697 L53.7422857,45.2271697 L54.2322857,40.6205635 C52.3565714,43.5280117 49.9322857,45.5142811 47.1037143,45.5142811 C44.6501429,45.5142811 43.4665714,43.8742552 43.4665714,41.4270402 C43.4665714,40.966807 43.4951429,40.5058614 43.5822857,39.9872085 L45.1694286,30.055149 L47.8537143,30.055149 L46.353,39.498478 C46.2665714,39.9587111 46.2372857,40.4196567 46.2372857,40.8506801 C46.2372857,42.1465997 46.6415714,43.1254858 47.9115714,43.1254858 C49.9894286,43.1254858 52.8187143,40.1318329 54.608,36.7627267 L55.6758571,30.055149 L58.3894286,30.055149 L55.9644286,45.2271697 Z" id="Fill-7" fill="#353630"></path>
                <path d="M71.5803571,36.792079 L72.2446429,32.5025065 C71.5510714,32.1854728 70.1953571,31.9838536 69.1553571,31.9838536 C64.3639286,31.9838536 63.0653571,36.2734262 63.0653571,39.2100842 C63.0653571,41.4556801 63.8160714,43.1256282 65.1725,43.1256282 C67.1060714,43.1256282 69.9639286,39.6995272 71.5803571,36.792079 M60.3232143,39.5271179 C60.3232143,35.2945402 62.4882143,29.7674676 69.2139286,29.7674676 C70.4832143,29.7674676 71.7825,29.9690868 72.6482143,30.1414961 L72.9082143,28.1552267 L73.5432143,24.1826878 L76.2560714,24.1826878 L72.9082143,45.2273122 L70.6567857,45.2273122 L71.2053571,40.620706 C69.6175,43.2410427 67.2217857,45.5144236 64.6239286,45.5144236 C61.7667857,45.5144236 60.3232143,42.9525065 60.3232143,39.5271179" id="Fill-9" fill="#353630"></path>
                <path d="M83.0982143,41.945408 C83.3867857,42.1755246 86.3303571,43.0104987 89.2746429,43.0104987 C92.7096429,43.0104987 95.0475,41.6575842 95.0475,39.4689832 C95.0475,34.9785039 84.5989286,37.1086852 84.5989286,30.7744236 C84.5989286,26.8310946 88.0910714,24.5854987 93.3160714,24.5854987 C96.3175,24.5854987 98.6846429,25.363478 99.2617857,25.5643847 L98.7132143,28.0978044 C97.5589286,27.5221567 95.0182143,27.0612111 92.9982143,27.0612111 C89.9960714,27.0612111 87.3989286,28.2417163 87.3989286,30.3718977 C87.3989286,34.5175583 97.8760714,32.3873769 97.8760714,39.1241645 C97.8760714,43.3553174 94.2975,45.5147085 88.9575,45.5147085 C85.5225,45.5147085 82.5496429,44.5935298 82.5496429,44.5935298 L83.0982143,41.945408 Z" id="Fill-11" fill="#353630"></path>
                <path d="M111.788929,36.792079 L112.453214,32.5025065 C111.759643,32.1854728 110.403929,31.9838536 109.363929,31.9838536 C104.5725,31.9838536 103.273929,36.2734262 103.273929,39.2100842 C103.273929,41.4556801 104.024643,43.1256282 105.381071,43.1256282 C107.314643,43.1256282 110.1725,39.6995272 111.788929,36.792079 M100.531786,39.5271179 C100.531786,35.2945402 102.8125,29.7674676 109.5375,29.7674676 C112.250357,29.7674676 114.328929,30.3139054 115.426071,30.6024417 L113.116071,45.2273122 L110.865357,45.2273122 L111.413929,40.620706 C109.826071,43.2410427 107.430357,45.5144236 104.8325,45.5144236 C101.975357,45.5144236 100.531786,42.9525065 100.531786,39.5271179" id="Fill-13" fill="#353630"></path>
                <path d="M119.640429,30.0552202 L121.862571,30.0552202 L121.372571,34.6618264 C123.249,31.7543782 125.672571,29.7673964 128.501857,29.7673964 C130.955429,29.7673964 132.138286,31.4081347 132.138286,33.8553497 C132.138286,34.3155829 132.109714,34.7765285 132.023286,35.2944689 L130.435429,45.2272409 L127.751143,45.2272409 L129.251857,35.7839119 C129.339,35.3236788 129.367571,34.8627332 129.367571,34.4317098 C129.367571,33.1357902 128.964,32.1569041 127.693286,32.1569041 C125.615429,32.1569041 122.786857,35.150557 120.996857,38.5189508 L119.929,45.2272409 L117.215429,45.2272409 L119.640429,30.0552202 Z" id="Fill-15" fill="#353630"></path>
                <path d="M146.022286,36.792079 L146.686571,32.5025065 C145.993714,32.1854728 144.637286,31.9838536 143.598,31.9838536 C138.806571,31.9838536 137.508,36.2734262 137.508,39.2100842 C137.508,41.4556801 138.258714,43.1256282 139.614429,43.1256282 C141.548714,43.1256282 144.405857,39.6995272 146.022286,36.792079 M134.765857,39.5271179 C134.765857,35.2945402 136.930143,29.7674676 143.655857,29.7674676 C144.925857,29.7674676 146.224429,29.9690868 147.090143,30.1414961 L147.350143,28.1552267 L147.985143,24.1826878 L150.698714,24.1826878 L147.350143,45.2273122 L145.098714,45.2273122 L145.648,40.620706 C144.060143,43.2410427 141.663714,45.5144236 139.066571,45.5144236 C136.209429,45.5144236 134.765857,42.9525065 134.765857,39.5271179" id="Fill-17" fill="#353630"></path>
                <path d="M155.202,38.4903821 L154.537714,42.7799547 C155.231286,43.0969883 156.587714,43.2978951 157.627,43.2978951 C162.418429,43.2978951 163.717,39.009035 163.717,36.0716645 C163.717,33.8267811 162.966286,32.1568329 161.609857,32.1568329 C159.676286,32.1568329 156.819143,35.5829339 155.202,38.4903821 M166.459143,35.7553433 C166.459143,39.987921 164.178429,45.5142811 157.453429,45.5142811 C154.740571,45.5142811 152.633429,44.9678433 151.536286,44.6800194 L154.798429,24.1825453 L157.482,24.1825453 L156.212,32.1283355 L155.750571,34.3162241 C157.367,31.8397992 159.704857,29.7673251 162.158429,29.7673251 C165.073429,29.7673251 166.459143,32.3299547 166.459143,35.7553433" id="Fill-19" fill="#353630"></path>
                <path d="M175.003214,43.1831218 C178.4675,43.1831218 180.804643,40.3326684 180.804643,36.2454275 C180.804643,33.2225648 179.246071,32.0698446 177.0525,32.0698446 C173.733929,32.0698446 171.279643,34.6616839 171.193214,39.0089637 C171.193214,41.2545596 171.9725,43.1831218 175.003214,43.1831218 M168.508929,39.2390803 C168.508929,34.0276166 171.886071,29.7672539 177.138929,29.7672539 C181.238214,29.7672539 183.518214,31.9836399 183.518214,35.9853886 C183.518214,41.3692617 180.141071,45.5142098 174.7725,45.5142098 C170.8475,45.457215 168.508929,43.3847409 168.508929,39.2390803" id="Fill-21" fill="#353630"></path>
                <polygon id="Fill-23" fill="#353630" points="194.4005 45.2271697 191.399071 39.6993847 186.549786 45.2271697 183.519071 45.2271697 190.157643 37.6269106 186.029786 30.055149 189.089071 30.055149 192.1205 35.697636 197.027643 30.055149 199.999786 30.055149 193.304071 37.655408 197.489071 45.2271697"></polygon>
                <g id="Group-27" transform="translate(97.142857, 0.631431)" fill="#F99B1C">
                    <path d="M35.9622857,8.68593912 C35.9622857,4.84377591 38.2872857,1.53522668 41.6065714,0.0811463731 L12.7494286,0.0811463731 L2.33228571,0.0811463731 C1.36514286,0.0811463731 0.574428571,0.869812176 0.574428571,1.83444948 L0.574428571,15.5160557 C0.574428571,16.4799806 1.36514286,17.2700712 2.33228571,17.2700712 L13.1108571,17.2700712 L40.5365714,17.2700712 L41.5644286,17.2700712 C38.268,15.8060168 35.9622857,12.5110039 35.9622857,8.68593912" id="Fill-25"></path>
                </g>
                <path d="M142.524786,4.86465026 C140.063357,4.86465026 138.0605,6.86231865 138.0605,9.31737047 C138.0605,10.8434067 138.834071,12.1913342 140.009786,12.9942487 C140.114071,12.4584974 140.277643,11.9441192 140.494071,11.4568135 C139.924786,10.9189249 139.568357,10.1594689 139.568357,9.31737047 C139.568357,7.6923057 140.894786,6.36931347 142.524786,6.36931347 C143.473357,6.36931347 144.318357,6.81743523 144.859786,7.51277202 C145.3655,7.34677461 145.8955,7.23563472 146.442643,7.18576425 C145.684786,5.8036399 144.212643,4.86465026 142.524786,4.86465026" id="Fill-28" fill="#F99B1C"></path>
                <path d="M144.618857,9.31737047 C144.618857,9.05804404 144.568857,8.81011658 144.481714,8.58071244 C143.270286,9.13 142.261,10.0461917 141.597429,11.1868005 C141.877429,11.3257254 142.191714,11.4062306 142.524571,11.4062306 C143.679571,11.4062306 144.618857,10.4686658 144.618857,9.31737047" id="Fill-30" fill="#F99B1C"></path>
                <path d="M147.140429,12.011943 C148.399714,12.011943 149.431857,12.9865544 149.524,14.2197798 C150.488286,12.8540415 151.061143,11.1954922 151.080429,9.40727979 C150.133286,8.65067358 148.968286,8.15838083 147.694714,8.04154145 C147.796143,8.45047927 147.851143,8.87794041 147.851143,9.31751295 C147.851143,10.301386 147.580429,11.2225648 147.111857,12.0133679 C147.121857,12.0126554 147.130429,12.011943 147.140429,12.011943" id="Fill-32" fill="#F99B1C"></path>
                <path d="M145.610071,14.3976749 C145.610071,15.2397733 146.2965,15.9244236 147.140786,15.9244236 C147.984357,15.9244236 148.670786,15.2397733 148.670786,14.3976749 C148.670786,13.5555764 147.984357,12.8709262 147.140786,12.8709262 C146.2965,12.8709262 145.610071,13.5555764 145.610071,14.3976749" id="Fill-34" fill="#F99B1C"></path>
                <path d="M145.290571,8.2786399 C145.412714,8.60137306 145.480571,8.95189119 145.480571,9.31737047 C145.480571,10.9431477 144.154143,12.2661399 142.524857,12.2661399 C142.054857,12.2661399 141.610571,12.155 141.215571,11.9597927 C141.023429,12.4243005 140.885571,12.9158808 140.809857,13.4281218 C141.337714,13.6482642 141.917,13.7700907 142.524857,13.7700907 C144.986286,13.7700907 146.989143,11.7724223 146.989143,9.31737047 C146.989143,8.86639896 146.920571,8.43181347 146.795571,8.02145078 C146.274857,8.04638601 145.771286,8.13544041 145.290571,8.2786399" id="Fill-36" fill="#F99B1C"></path>
                <path d="M133.967357,9.31737047 C133.967357,13.3903627 136.842357,16.8036399 140.675214,17.6493005 C140.166643,16.6640026 139.877357,15.5476166 139.877357,14.3642617 C139.877357,14.2196373 139.883071,14.0757254 139.891643,13.9332383 C138.2845,13.0163342 137.198071,11.2915285 137.198071,9.31737047 C137.198071,6.38854922 139.587357,4.00474093 142.5245,4.00474093 C144.692357,4.00474093 146.560214,5.30351036 147.390929,7.16154145 C148.7245,7.21283679 149.965214,7.62676166 151.020214,8.30642487 C150.516643,4.07527202 146.8995,0.782396373 142.5245,0.782396373 C137.805929,0.782396373 133.967357,4.61102332 133.967357,9.31737047" id="Fill-38" fill="#F99B1C"></path>
                <path d="M144.012,7.84939767 C143.632714,7.46681995 143.105571,7.22886658 142.524857,7.22886658 C141.370571,7.22886658 140.430571,8.16571891 140.430571,9.31772668 C140.430571,9.8235557 140.612,10.2880635 140.913429,10.6499806 C141.645571,9.43884067 142.724857,8.45995466 144.012,7.84939767" id="Fill-40" fill="#F99B1C"></path>
                <path d="M142.524786,17.8527008 C144.053357,17.8527008 145.487643,17.4494624 146.731214,16.7462889 C145.606214,16.551794 144.747643,15.5743329 144.747643,14.3973899 C144.747643,14.3090479 144.754071,14.2221308 144.763357,14.1359262 C144.082643,14.4522474 143.324071,14.6303562 142.524786,14.6303562 C141.899071,14.6303562 141.298357,14.5206412 140.7405,14.3225842 C140.7405,14.3361205 140.739786,14.3503692 140.739786,14.3646179 C140.739786,15.6377396 141.118357,16.8225194 141.766929,17.817079 C142.016929,17.8391645 142.269786,17.8527008 142.524786,17.8527008" id="Fill-42" fill="#F99B1C"></path>
                <path d="M104.865071,14.5270531 C104.512929,14.6773769 103.992929,14.8782837 103.1715,14.8782837 C101.729357,14.8782837 100.773643,14.1758225 100.773643,12.6711593 L100.773643,3.7614443 L102.802214,3.7614443 L102.802214,12.0349547 C102.802214,12.9710946 103.255071,13.1556153 103.775786,13.1556153 C104.127214,13.1556153 104.479357,13.0551619 104.7815,12.9547085 L104.865071,14.5270531 Z" id="Fill-44" fill="#FFFFFF"></path>
                <path d="M111.035571,11.165285 C110.666286,11.1318005 110.113429,11.0819301 109.577,11.0819301 C108.419857,11.0819301 107.380571,11.3661917 107.380571,12.3693005 C107.380571,13.3225389 108.319143,13.4229922 108.822,13.4229922 C109.946286,13.4229922 110.633429,12.9043394 111.035571,12.4868523 L111.035571,11.165285 Z M111.488429,14.6939767 L111.304143,13.607513 C110.549143,14.4766839 109.493429,14.8784974 108.352714,14.8784974 C106.726286,14.8784974 105.367714,14.0919689 105.367714,12.4362694 C105.367714,10.4799223 107.229143,9.8109456 109.342,9.8109456 C109.946286,9.8109456 110.515571,9.87791451 111.035571,9.94488342 L111.035571,8.90757772 C111.035571,7.90446891 110.280571,7.41930052 108.788429,7.41930052 C107.799857,7.41930052 106.793429,7.63659326 106.072714,7.93795337 L105.989143,6.26515544 C106.508429,6.06496114 107.631286,5.69663212 109.274857,5.69663212 C111.304143,5.69663212 113.064857,6.31502591 113.064857,8.75725389 L113.064857,14.6939767 L111.488429,14.6939767 Z" id="Fill-46" fill="#FFFFFF"></path>
                <path d="M116.233643,13.0882902 C116.6865,13.205842 117.155786,13.2557124 117.557929,13.2557124 C119.2015,13.2557124 120.3415,12.4535104 120.3415,10.1787047 C120.3415,8.4061658 119.654357,7.38524611 118.380071,7.38524611 C117.474357,7.38524611 116.720071,7.92099741 116.233643,8.43965026 L116.233643,13.0882902 Z M114.204357,3.76108808 L116.233643,3.76108808 L116.233643,5.71316062 L116.183643,6.81743523 C116.7365,6.21542746 117.625071,5.69677461 118.815786,5.69677461 C120.962214,5.69677461 122.353643,7.33608808 122.353643,10.1623187 C122.353643,13.3725518 120.475786,14.8786399 117.608643,14.8786399 C116.334357,14.8786399 114.758643,14.5772798 114.204357,14.3934715 L114.204357,3.76108808 Z" id="Fill-48" fill="#FFFFFF"></path>
                <path d="M123.158857,12.7821567 C123.276714,12.8833225 124.785286,13.2844236 126.110286,13.2844236 C127.149571,13.2844236 127.971,13.0336464 127.971,12.3311852 C127.971,10.5921308 123.008143,11.6451101 123.008143,8.35009715 C123.008143,6.66162565 124.299571,5.74187176 126.746714,5.74187176 C128.256,5.74187176 129.396714,6.0923899 129.597429,6.20922927 L129.513857,7.8820272 C129.010286,7.63196244 127.904571,7.41395725 126.897429,7.41395725 C125.808143,7.41395725 124.969571,7.66473446 124.969571,8.31661269 C124.969571,9.9060557 129.950286,8.88584845 129.950286,12.2806023 C129.950286,14.1208225 128.491,14.9230246 126.227429,14.9230246 C124.633857,14.9230246 123.125286,14.5212111 123.075286,14.5055376 L123.158857,12.7821567 Z" id="Fill-50" fill="#FFFFFF"></path>
                <mask id="mask-2" fill="white">
                    <use xlink:href="#path-1"></use>
                </mask>
                <g id="Clip-53"></g>
                <polygon id="Fill-52" fill="#F99B1C" mask="url(#mask-2)" points="82.8007143 14.6877785 85.8807143 14.6877785 85.8807143 3.76115933 82.8007143 3.76115933"></polygon>
                <polygon id="Fill-54" fill="#F99B1C" mask="url(#mask-2)" points="90.3094286 9.23736399 90.303 9.23736399 90.3094286 9.21242876 93.4715714 3.76087435 90.3915714 3.76087435 87.2294286 9.21242876 87.2465714 9.23736399 87.2294286 9.23736399 90.3915714 14.6874935 93.4715714 14.6874935"></polygon>
                <polygon id="Fill-55" fill="#F99B1C" mask="url(#mask-2)" points="56.3334286 3.7625842 55.1541429 3.7625842 54.352 3.7625842 53.8598571 3.7625842 47.5348571 14.6877785 50.6498571 14.6877785 55.1541429 6.90869819 55.1541429 14.6877785 58.2677143 14.6877785 58.2677143 3.7625842 56.5948571 3.7625842"></polygon>
                <polygon id="Fill-56" fill="#F99B1C" mask="url(#mask-2)" points="22.5938571 10.133465 27.4424286 10.133465 28.4924286 8.34097798 23.5738571 8.34097798"></polygon>
                <path d="M21.6026429,7.9057513 L21.6062143,7.90646373 C21.6062143,6.52576425 22.0197857,6.00639896 23.3662143,6.00639896 L27.7483571,6.00639896 L29.0590714,3.74156736 L22.9062143,3.74156736 C20.2862143,3.74156736 18.5547857,4.65775907 18.5547857,7.96915803 L18.5547857,14.7087953 L28.0219286,14.7087953 L29.3319286,12.4439637 L21.6026429,12.4439637 L21.6026429,7.9057513 Z" id="Fill-57" fill="#F99B1C" mask="url(#mask-2)"></path>
                <polygon id="Fill-58" fill="#F99B1C" mask="url(#mask-2)" points="74.8176429 10.133465 79.6669286 10.133465 80.7169286 8.34097798 75.7983571 8.34097798"></polygon>
                <path d="M73.9331429,7.9057513 L73.9367143,7.90646373 C73.9367143,6.52576425 74.351,6.00639896 75.6981429,6.00639896 L80.0788571,6.00639896 L81.391,3.74156736 L75.2381429,3.74156736 C72.6174286,3.74156736 70.886,4.65775907 70.886,7.96915803 L70.886,14.7087953 L80.3524286,14.7087953 L81.6638571,12.4439637 L73.9331429,12.4439637 L73.9331429,7.9057513 Z" id="Fill-59" fill="#F99B1C" mask="url(#mask-2)"></path>
                <polygon id="Fill-60" fill="#F99B1C" mask="url(#mask-2)" points="59.6272143 6.03489637 63.4586429 6.03489637 63.4586429 14.6881347 66.4729286 14.6881347 66.4729286 6.03489637 69.3086429 6.03489637 70.6236429 3.76294041 60.9436429 3.76294041"></polygon>
                <path d="M35.6790714,12.4481671 L34.0062143,12.4481671 L34.0062143,6.00134067 L35.6790714,6.00134067 C38.1133571,6.00134067 38.8776429,6.42951425 38.8776429,9.14175518 C38.8776429,11.8547085 38.1133571,12.4481671 35.6790714,12.4481671 M36.3347857,3.74149611 L31.0533571,3.74149611 L31.0533571,14.7087241 L36.4755,14.7087241 C40.2840714,14.7087241 41.9983571,13.2432448 41.9983571,9.13890544 C41.9983571,5.25755829 40.3019286,3.74149611 36.3347857,3.74149611" id="Fill-61" fill="#F99B1C" mask="url(#mask-2)"></path>
                <polygon id="Fill-62" fill="#F99B1C" mask="url(#mask-2)" points="43.7171429 14.6877785 46.7971429 14.6877785 46.7971429 3.7625842 43.7171429 3.7625842"></polygon>
                <polygon id="Fill-63" fill="#F99B1C" mask="url(#mask-2)" points="9.97878571 9.31459197 9.97878571 3.7625842 6.31664286 3.77327073 -0.0005 14.6756671 3.02092857 14.6756671 6.89878571 7.98376295 6.89878571 14.6314961 6.87235714 14.6756671 6.89878571 14.6756671 6.89878571 14.6877785 9.97878571 14.6877785 13.7723571 7.98376295 13.7723571 14.6877785 16.8523571 14.6877785 16.8523571 3.7625842 13.1895 3.77327073"></polygon>
            </g>
        </g>
    </g>
</svg>
