<?xml version="1.0" encoding="UTF-8"?>
<svg width="32px" height="32px" viewBox="0 0 32 32" version="1.1" xmlns="http://www.w3.org/2000/svg" xmlns:xlink="http://www.w3.org/1999/xlink">
    <!-- Generator: Sketch 43.2 (39069) - http://www.bohemiancoding.com/sketch -->
    <title>github</title>
    <desc>Created with Sketch.</desc>
    <defs></defs>
    <g id="landing-page" stroke="none" stroke-width="1" fill="none" fill-rule="evenodd">
        <g id="Lite_landing-page_mobile_375" transform="translate(-198.000000, -603.000000)" fill="#FFFFFF">
            <g id="footer_mobile" transform="translate(0.000000, 593.000000)">
                <g id="icons" transform="translate(146.000000, 10.000000)">
                    <g id="github" transform="translate(52.000000, 0.000000)">
                        <path d="M4.00425775,0 C1.79276729,0 4.6589237e-08,1.78902751 4.6589237e-08,4.0042577 L4.6589237e-08,27.9957423 C4.6589237e-08,30.2072328 1.79286611,32 3.99478895,32 L10.6666667,32 C11.5555556,32 12.0350734,30.7377081 12.0350734,30.3164446 C12.0350734,29.9361189 12.020236,28.6797237 12.0133471,27.3469992 C7.56209469,28.3118115 6.62282758,25.4651796 6.62282758,25.4651796 C5.89499469,23.6216566 4.84630091,23.1314591 4.84630091,23.1314591 C3.3946098,22.141556 4.95572758,22.1618928 4.95572758,22.1618928 C6.5624178,22.2744058 7.40842047,23.8054807 7.40842047,23.8054807 C8.83547113,26.2437908 11.1514471,25.5388677 12.0644836,25.1313382 C12.2080894,24.1004972 12.6227449,23.3968947 13.0803231,22.9986092 C9.52647469,22.5953056 5.79060224,21.2277179 5.79060224,15.1163601 C5.79060224,13.3750496 6.41563247,11.9522619 7.43915558,10.8353194 C7.27302847,10.4336004 6.72536535,8.81140591 7.59415424,6.61449698 C7.59415424,6.61449698 8.93774358,6.18583831 11.9953302,8.24936907 C13.2716209,7.89598316 14.6403809,7.718762 16.0001325,7.71268733 C17.359884,7.718762 18.729704,7.89598316 20.0083791,8.24936907 C23.0622565,6.18583831 24.4039911,6.61449698 24.4039911,6.61449698 C25.2748996,8.81140591 24.7269716,10.4336004 24.5608445,10.8353194 C25.5867525,11.9522619 26.2075431,13.3750496 26.2075431,15.1163601 C26.2075431,21.2422443 22.4645165,22.5910797 18.90166,22.9859317 C19.4755538,23.4808833 19.9869178,24.4515061 19.9869178,25.9395302 C19.9869178,28.0735797 19.9683711,29.7911198 19.9683711,30.3164446 C19.9683711,30.7408775 19.968372,32 21.3333334,32 L28.0028506,32 C30.2104153,32 32,30.2109725 32,27.9957423 L32,4.0042577 C32,1.79276724 30.2109725,0 27.9957423,0 L4.00425775,0 Z M6.06006224,22.8998303 C6.02482313,22.9790648 5.89976402,23.0028351 5.78583335,22.9484274 C5.66978269,22.8963968 5.60460358,22.7883737 5.64222713,22.7088751 C5.67667158,22.6272635 5.80199558,22.6045496 5.91778091,22.6592214 C6.03409647,22.7112521 6.10033558,22.8203316 6.06006224,22.8998303 L6.06006224,22.8998303 L6.06006224,22.8998303 Z M6.70814313,23.620336 C6.63183602,23.6908548 6.48266624,23.6581045 6.38145335,23.546648 C6.27679558,23.4354555 6.25718891,23.2867588 6.33455602,23.2151836 C6.41324758,23.1446649 6.55791335,23.1776792 6.66283602,23.2888717 C6.76749335,23.4013847 6.78789469,23.549025 6.70814313,23.620336 L6.70814313,23.620336 L6.70814313,23.620336 Z M7.33900224,24.5389282 C7.24096891,24.6068057 7.08067069,24.543154 6.98157735,24.4013242 C6.88354402,24.2594944 6.88354402,24.0894044 6.98369691,24.0212627 C7.08305513,23.953121 7.24096891,24.0143957 7.34138669,24.155169 C7.43915558,24.2993758 7.43915558,24.4694659 7.33900224,24.5389282 L7.33900224,24.5389282 L7.33900224,24.5389282 Z M8.20328713,25.4263547 C8.11558669,25.5227567 7.92879335,25.4968734 7.79207602,25.3653441 C7.65217958,25.2367201 7.61323113,25.0542166 7.70119647,24.9578146 C7.78995647,24.8611485 7.9778098,24.8883524 8.11558669,25.0188252 C8.25442358,25.1471851 8.29681647,25.3310092 8.20328713,25.4263547 L8.20328713,25.4263547 L8.20328713,25.4263547 Z M9.39558669,25.9416432 C9.35690313,26.0665696 9.17699869,26.1233543 8.99576891,26.0702672 C8.81480447,26.0155953 8.69636935,25.8692756 8.73293335,25.7430286 C8.77055691,25.6173099 8.95125647,25.5581481 9.13381069,25.6149328 C9.31451069,25.6693405 9.43321069,25.8146038 9.39558669,25.9416432 L9.39558669,25.9416432 L9.39558669,25.9416432 Z M10.7049969,26.0372528 C10.7095014,26.1687821 10.5558271,26.2778616 10.3655889,26.2802386 C10.1742911,26.2844644 10.0195569,26.1780261 10.0174374,26.0486097 C10.0174374,25.9157599 10.1676671,25.8077368 10.3589649,25.8045674 C10.5492031,25.8008698 10.7049969,25.9065158 10.7049969,26.0372528 L10.7049969,26.0372528 L10.7049969,26.0372528 Z M11.9235271,25.8304507 C11.9463134,25.9588106 11.8141005,26.090604 11.6251871,26.1257313 C11.4394534,26.159538 11.2674974,26.0803035 11.2439165,25.9530001 C11.2208654,25.8214708 11.3554627,25.6896774 11.5409316,25.6556065 C11.7301098,25.6228563 11.8994165,25.6999779 11.9235271,25.8304507 L11.9235271,25.8304507 L11.9235271,25.8304507 Z" id="Fill-4"></path>
                    </g>
                </g>
            </g>
        </g>
    </g>
</svg>