<?xml version="1.0" encoding="UTF-8"?>
<svg width="42px" height="32px" viewBox="0 0 42 32" version="1.1" xmlns="http://www.w3.org/2000/svg" xmlns:xlink="http://www.w3.org/1999/xlink">
    <!-- Generator: Sketch 43.2 (39069) - http://www.bohemiancoding.com/sketch -->
    <title>icon_data_collection</title>
    <desc>Created with Sketch.</desc>
    <defs></defs>
    <g id="landing-page" stroke="none" stroke-width="1" fill="none" fill-rule="evenodd">
        <g id="Lite_landing-page_web_1024" transform="translate(-128.000000, -1293.000000)">
            <g id="section_3" transform="translate(0.000000, 1087.000000)">
                <g id="data-collection" transform="translate(42.000000, 182.000000)">
                    <g id="icon" transform="translate(67.000000, 0.000000)">
                        <g id="icon_data_collection" transform="translate(10.000000, 10.000000)">
                            <rect id="bounds" x="0" y="0" width="60" height="60"></rect>
                            <path d="M45.9840163,24.7230905 L38.7230905,31.9840163 C38.8990353,32.281773 39,32.6290957 39,33 C39,34.1045695 38.1045695,35 37,35 C35.8954305,35 35,34.1045695 35,33 C35,32.8562885 35.0151576,32.7161172 35.0439612,32.5809976 L28.5084711,29.3132525 C28.1418165,29.7340568 27.6019654,30 27,30 C26.6290957,30 26.281773,29.8990353 25.9840163,29.7230905 L18.7230905,36.9840163 C18.8990353,37.281773 19,37.6290957 19,38 C19,39.1045695 18.1045695,40 17,40 C15.8954305,40 15,39.1045695 15,38 C15,36.8954305 15.8954305,36 17,36 C17.3709043,36 17.718227,36.1009647 18.0159837,36.2769095 L25.2769095,29.0159837 C25.1009647,28.718227 25,28.3709043 25,28 C25,26.8954305 25.8954305,26 27,26 C28.1045695,26 29,26.8954305 29,28 C29,28.1437115 28.9848424,28.2838828 28.9560388,28.4190024 L35.4915289,31.6867475 C35.8581835,31.2659432 36.3980346,31 37,31 C37.3709043,31 37.718227,31.1009647 38.0159837,31.2769095 L45.2769095,24.0159837 C45.1009647,23.718227 45,23.3709043 45,23 C45,21.8954305 45.8954305,21 47,21 C48.1045695,21 49,21.8954305 49,23 C49,24.1045695 48.1045695,25 47,25 C46.6290957,25 46.281773,24.8990353 45.9840163,24.7230905 Z M11,15 L11,44 L50,44 C50.5522847,44 51,44.4477153 51,45 C51,45.5522847 50.5522847,46 50,46 L9,46 L9,15 C9,14.4477153 9.44771525,14 10,14 C10.5522847,14 11,14.4477153 11,15 Z" id="Combined-Shape" fill="#FFFFFF" fill-rule="nonzero"></path>
                        </g>
                    </g>
                </g>
            </g>
        </g>
    </g>
</svg>