<?xml version="1.0" encoding="UTF-8"?>
<svg width="26px" height="42px" viewBox="0 0 26 42" version="1.1" xmlns="http://www.w3.org/2000/svg" xmlns:xlink="http://www.w3.org/1999/xlink">
    <!-- Generator: Sketch 43.2 (39069) - http://www.bohemiancoding.com/sketch -->
    <title>icon_mobile friendly</title>
    <desc>Created with Sketch.</desc>
    <defs></defs>
    <g id="landing-page" stroke="none" stroke-width="1" fill="none" fill-rule="evenodd">
        <g id="Lite_landing-page_web_1024" transform="translate(-862.000000, -1288.000000)">
            <g id="section_3" transform="translate(0.000000, 1087.000000)">
                <g id="mobile" transform="translate(768.000000, 182.000000)">
                    <g id="icon" transform="translate(67.000000, 0.000000)">
                        <g id="icon_mobile-friendly" transform="translate(10.000000, 10.000000)">
                            <rect id="bounds" x="0" y="0" width="60" height="60"></rect>
                            <g id="phone" transform="translate(17.000000, 9.000000)" fill="#FFFFFF">
                                <rect id="Rectangle-12" opacity="0.5" x="7" y="19" width="7" height="12"></rect>
                                <rect id="Rectangle-12" opacity="0.5" x="7" y="9" width="12" height="9"></rect>
                                <rect id="Rectangle-12" opacity="0.5" x="15" y="19" width="4" height="8"></rect>
                                <rect id="Rectangle-12" opacity="0.5" x="15" y="28" width="4" height="3"></rect>
                                <path d="M2,39.9912248 C2,39.9990821 23.9993054,40 23.9993054,40 C23.9981584,40 24,2.00877516 24,2.00877516 C24,2.00091787 2.00069463,2 2.00069463,2 C2.00184155,2 2,39.9912248 2,39.9912248 Z M0,2.00877516 C0,0.901042887 0.893481648,0 2.00069463,0 L23.9993054,0 C25.1065241,0 26,0.899194872 26,2.00877516 L26,39.9912248 C26,41.0989571 25.1065184,42 23.9993054,42 L2.00069463,42 C0.893475876,42 0,41.1008051 0,39.9912248 L0,2.00877516 Z M9,4.5 L17,4.5 C17.2761424,4.5 17.5,4.27614237 17.5,4 C17.5,3.72385763 17.2761424,3.5 17,3.5 L9,3.5 C8.72385763,3.5 8.5,3.72385763 8.5,4 C8.5,4.27614237 8.72385763,4.5 9,4.5 Z M5.5,8.00329963 L5.5,31.9967004 C5.5,32.2737303 5.72539836,32.5 6.00087166,32.5 L19.9991283,32.5 C20.2774854,32.5 20.5,32.2764094 20.5,31.9967004 L20.5,8.00329963 C20.5,7.72626965 20.2746016,7.5 19.9991283,7.5 L6.00087166,7.5 C5.72251464,7.5 5.5,7.7235906 5.5,8.00329963 Z M4.5,8.00329963 C4.5,7.1723828 5.16914717,6.5 6.00087166,6.5 L19.9991283,6.5 C20.8277519,6.5 21.5,7.17484673 21.5,8.00329963 L21.5,31.9967004 C21.5,32.8276172 20.8308528,33.5 19.9991283,33.5 L6.00087166,33.5 C5.17224809,33.5 4.5,32.8251533 4.5,31.9967004 L4.5,8.00329963 Z M13,39 C14.1045695,39 15,38.1045695 15,37 C15,35.8954305 14.1045695,35 13,35 C11.8954305,35 11,35.8954305 11,37 C11,38.1045695 11.8954305,39 13,39 Z" id="Combined-Shape" fill-rule="nonzero"></path>
                            </g>
                        </g>
                    </g>
                </g>
            </g>
        </g>
    </g>
</svg>