<?xml version="1.0" encoding="UTF-8"?>
<svg width="42px" height="32px" viewBox="0 0 42 32" version="1.1" xmlns="http://www.w3.org/2000/svg" xmlns:xlink="http://www.w3.org/1999/xlink">
    <!-- Generator: Sketch 43.2 (39069) - http://www.bohemiancoding.com/sketch -->
    <title>icon_management</title>
    <desc>Created with Sketch.</desc>
    <defs></defs>
    <g id="landing-page" stroke="none" stroke-width="1" fill="none" fill-rule="evenodd">
        <g id="Lite_landing-page_web_1024" transform="translate(-612.000000, -1293.000000)">
            <g id="section_3" transform="translate(0.000000, 1087.000000)">
                <g id="manage" transform="translate(526.000000, 182.000000)">
                    <g id="icon" transform="translate(67.000000, 0.000000)">
                        <g id="icon_management" transform="translate(10.000000, 10.000000)">
                            <rect id="bounds" x="0" y="0" width="60" height="60"></rect>
                            <path d="M11.5,39.990778 L11.5,44.009222 C11.5,44.2760078 11.7228443,44.5 11.990778,44.5 L16.009222,44.5 C16.2760078,44.5 16.5,44.2771557 16.5,44.009222 L16.5,39.990778 C16.5,39.7239922 16.2771557,39.5 16.009222,39.5 L11.990778,39.5 C11.7239922,39.5 11.5,39.7228443 11.5,39.990778 Z M10.5,39.990778 C10.5,39.1694061 11.1728544,38.5 11.990778,38.5 L16.009222,38.5 C16.8305939,38.5 17.5,39.1728544 17.5,39.990778 L17.5,44.009222 C17.5,44.8305939 16.8271456,45.5 16.009222,45.5 L11.990778,45.5 C11.1694061,45.5 10.5,44.8271456 10.5,44.009222 L10.5,39.990778 Z M24,42.5 C23.7238576,42.5 23.5,42.2761424 23.5,42 C23.5,41.7238576 23.7238576,41.5 24,41.5 L50,41.5 C50.2761424,41.5 50.5,41.7238576 50.5,42 C50.5,42.2761424 50.2761424,42.5 50,42.5 L24,42.5 Z M11.5,29.990778 L11.5,34.009222 C11.5,34.2760078 11.7228443,34.5 11.990778,34.5 L16.009222,34.5 C16.2760078,34.5 16.5,34.2771557 16.5,34.009222 L16.5,29.990778 C16.5,29.7239922 16.2771557,29.5 16.009222,29.5 L11.990778,29.5 C11.7239922,29.5 11.5,29.7228443 11.5,29.990778 Z M10.5,29.990778 C10.5,29.1694061 11.1728544,28.5 11.990778,28.5 L16.009222,28.5 C16.8305939,28.5 17.5,29.1728544 17.5,29.990778 L17.5,34.009222 C17.5,34.8305939 16.8271456,35.5 16.009222,35.5 L11.990778,35.5 C11.1694061,35.5 10.5,34.8271456 10.5,34.009222 L10.5,29.990778 Z M24,32.5 C23.7238576,32.5 23.5,32.2761424 23.5,32 C23.5,31.7238576 23.7238576,31.5 24,31.5 L50,31.5 C50.2761424,31.5 50.5,31.7238576 50.5,32 C50.5,32.2761424 50.2761424,32.5 50,32.5 L24,32.5 Z M10.7917147,17.989109 L14.0956397,22.2709958 L19.160847,14.4561045 C19.4612322,13.9926531 20.0804441,13.8604618 20.5438955,14.160847 C21.0073469,14.4612322 21.1395382,15.0804441 20.839153,15.5438955 L15.5546055,23.6971973 C14.8746998,24.7461947 13.5218237,24.8012368 12.7601459,23.8141024 L9.20828528,19.210891 C8.8708995,18.773639 8.95185704,18.1456711 9.38910901,17.8082853 C9.82636098,17.4708995 10.4543289,17.551857 10.7917147,17.989109 Z M24,22.5 C23.7238576,22.5 23.5,22.2761424 23.5,22 C23.5,21.7238576 23.7238576,21.5 24,21.5 L50,21.5 C50.2761424,21.5 50.5,21.7238576 50.5,22 C50.5,22.2761424 50.2761424,22.5 50,22.5 L24,22.5 Z" id="Combined-Shape" fill="#FFFFFF" fill-rule="nonzero"></path>
                        </g>
                    </g>
                </g>
            </g>
        </g>
    </g>
</svg>