<svg width="32" height="32" viewBox="0 0 32 32" xmlns="http://www.w3.org/2000/svg"><title>github</title><desc>Created with Sketch.</desc><path d="M4.004 0c-2.211 0-4.004 1.789-4.004 4.004v23.991c0 2.211 1.793 4.004 3.995 4.004h6.672c.889 0 1.368-1.262 1.368-1.684l-.022-2.969c-4.451.965-5.391-1.882-5.391-1.882-.728-1.844-1.777-2.334-1.777-2.334-1.452-.99.109-.97.109-.97 1.607.113 2.453 1.644 2.453 1.644 1.427 2.438 3.743 1.733 4.656 1.326.144-1.031.558-1.734 1.016-2.133-3.554-.403-7.29-1.771-7.29-7.882 0-1.741.625-3.164 1.649-4.281-.166-.402-.714-2.024.155-4.221 0 0 1.344-.429 4.401 1.635 1.276-.353 2.645-.531 4.005-.537 1.36.006 2.73.183 4.008.537 3.054-2.064 4.396-1.635 4.396-1.635.871 2.197.323 3.819.157 4.221 1.026 1.117 1.647 2.54 1.647 4.281 0 6.126-3.743 7.475-7.306 7.87.574.495 1.085 1.466 1.085 2.954 0 2.134-.019 3.852-.019 4.377 0 .424 0 1.684 1.365 1.684h6.67c2.208 0 3.997-1.789 3.997-4.004v-23.991c0-2.211-1.789-4.004-4.004-4.004h-23.991zm2.056 22.9c-.035.079-.16.103-.274.049-.116-.052-.181-.16-.144-.24.034-.082.16-.104.276-.05.116.052.183.161.142.241zm.648.721c-.076.071-.225.038-.327-.074-.105-.111-.124-.26-.047-.331.079-.071.223-.038.328.074.105.113.125.26.045.331zm.631.919c-.098.068-.258.004-.357-.138-.098-.142-.098-.312.002-.38.099-.068.257-.007.358.134.098.144.098.314-.002.384zm.864.887c-.088.096-.274.071-.411-.061-.14-.129-.179-.311-.091-.408.089-.097.277-.069.414.061.139.128.181.312.088.408zm1.192.515c-.039.125-.219.182-.4.129-.181-.055-.299-.201-.263-.327.038-.126.218-.185.401-.128.181.054.299.2.262.327zm1.309.096c.005.132-.149.241-.339.243-.191.004-.346-.102-.348-.232 0-.133.15-.241.342-.244.19-.004.346.102.346.233zm1.219-.207c.023.128-.109.26-.298.295-.186.034-.358-.045-.381-.173-.023-.132.112-.263.297-.297.189-.033.358.044.383.175z" fill="#fff"/></svg>