<?xml version="1.0" encoding="UTF-8"?>
<svg width="42px" height="46px" viewBox="0 0 42 46" version="1.1" xmlns="http://www.w3.org/2000/svg" xmlns:xlink="http://www.w3.org/1999/xlink">
    <!-- Generator: Sketch 43.2 (39069) - http://www.bohemiancoding.com/sketch -->
    <title>icon_remote_control</title>
    <desc>Created with Sketch.</desc>
    <defs></defs>
    <g id="landing-page" stroke="none" stroke-width="1" fill="none" fill-rule="evenodd">
        <g id="Lite_landing-page_web_1024" transform="translate(-370.000000, -1286.000000)">
            <g id="section_3" transform="translate(0.000000, 1087.000000)">
                <g id="remote-control" transform="translate(284.000000, 182.000000)">
                    <g id="icon" transform="translate(67.000000, 0.000000)">
                        <g id="icon_remote_control" transform="translate(10.000000, 10.000000)">
                            <rect id="bounds" x="0" y="0" width="60" height="60"></rect>
                            <g id="control" transform="translate(9.000000, 7.000000)" fill="#FFFFFF">
                                <path d="M27.5,23.0026042 L27.5,44.3307292 C27.5,44.6099146 27.7249221,44.8333333 28.0068455,44.8333333 L39.9931545,44.8333333 C40.2740296,44.8333333 40.5,44.6081864 40.5,44.3307292 L40.5,23.0026042 C40.5,22.7234188 40.2750779,22.5 39.9931545,22.5 L28.0068455,22.5 C27.7259704,22.5 27.5,22.7251469 27.5,23.0026042 Z M26.5,23.0026042 C26.5,22.1720433 27.1745013,21.5 28.0068455,21.5 L39.9931545,21.5 C40.825867,21.5 41.5,22.1696272 41.5,23.0026042 L41.5,44.3307292 C41.5,45.1612901 40.8254987,45.8333333 39.9931545,45.8333333 L28.0068455,45.8333333 C27.174133,45.8333333 26.5,45.1637061 26.5,44.3307292 L26.5,23.0026042 Z M31.6666667,24.25 L36.3333333,24.25 C36.6094757,24.25 36.8333333,24.0261424 36.8333333,23.75 C36.8333333,23.4738576 36.6094757,23.25 36.3333333,23.25 L31.6666667,23.25 C31.3905243,23.25 31.1666667,23.4738576 31.1666667,23.75 C31.1666667,24.0261424 31.3905243,24.25 31.6666667,24.25 Z M29.8333333,26.4951274 L29.8333333,39.6715393 C29.8333333,39.9397412 30.0597868,40.1666667 30.3321635,40.1666667 L37.6678365,40.1666667 C37.9420292,40.1666667 38.1666667,39.9433214 38.1666667,39.6715393 L38.1666667,26.4951274 C38.1666667,26.2269255 37.9402132,26 37.6678365,26 L30.3321635,26 C30.0579708,26 29.8333333,26.2233453 29.8333333,26.4951274 Z M28.8333333,26.4951274 C28.8333333,25.669765 29.5069733,25 30.3321635,25 L37.6678365,25 C38.4929646,25 39.1666667,25.6751063 39.1666667,26.4951274 L39.1666667,39.6715393 C39.1666667,40.4969017 38.4930267,41.1666667 37.6678365,41.1666667 L30.3321635,41.1666667 C29.5070354,41.1666667 28.8333333,40.4915604 28.8333333,39.6715393 L28.8333333,26.4951274 Z M34,44.1666667 C34.6443322,44.1666667 35.1666667,43.6443322 35.1666667,43 C35.1666667,42.3556678 34.6443322,41.8333333 34,41.8333333 C33.3556678,41.8333333 32.8333333,42.3556678 32.8333333,43 C32.8333333,43.6443322 33.3556678,44.1666667 34,44.1666667 Z" id="Combined-Shape" fill-rule="nonzero"></path>
                                <path d="M33,16.5 C33,17.0522847 33.4477153,17.5 34,17.5 C34.5522847,17.5 35,17.0522847 35,16.5 L35,9 L21,9 C20.4477153,9 20,9.44771525 20,10 C20,10.5522847 20.4477153,11 21,11 L33,11 L33,16.5 Z" id="Path-17" fill-rule="nonzero"></path>
                                <path d="M9,29.5 C9,28.9477153 8.55228475,28.5 8,28.5 C7.44771525,28.5 7,28.9477153 7,29.5 L7,37 L21,37 C21.5522847,37 22,36.5522847 22,36 C22,35.4477153 21.5522847,35 21,35 L9,35 L9,29.5 Z" id="Path-17" fill-rule="nonzero"></path>
                                <g id="light">
                                    <path d="M4.5,19.0635246 C2.4076952,17.8531917 1,15.5909882 1,13 C1,9.13400675 4.13400675,6 8,6 C11.8659932,6 15,9.13400675 15,13 C15,15.5909882 13.5923048,17.8531917 11.5,19.0635246 L11.5,19.8814025 C11.5,20.4301512 11.0621186,20.875 10.4970707,20.875 L5.50292933,20.875 C4.94902676,20.875 4.5,20.4174361 4.5,19.8814025 L4.5,19.0635246 Z" id="Combined-Shape" opacity="0.5"></path>
                                    <path d="M5,23.6239566 L5,24.6260434 C5,24.9038098 5.22277658,25.125 5.50292933,25.125 L10.4970707,25.125 C10.7817079,25.125 11,24.9058906 11,24.6260434 L11,23.6239566 C11,23.3461902 10.7772234,23.125 10.4970707,23.125 L5.50292933,23.125 C5.21829214,23.125 5,23.3441094 5,23.6239566 Z M4,23.6239566 C4,22.7926594 4.66516918,22.125 5.50292933,22.125 L10.4970707,22.125 C11.3279148,22.125 12,22.7922994 12,23.6239566 L12,24.6260434 C12,25.4573406 11.3348308,26.125 10.4970707,26.125 L5.50292933,26.125 C4.67208524,26.125 4,25.4577006 4,24.6260434 L4,23.6239566 Z M4.75036298,18.6307217 L5,18.7751289 L5,19.8814025 C5,20.1456239 5.22950172,20.375 5.50292933,20.375 L10.4970707,20.375 C10.7823106,20.375 11,20.1576679 11,19.8814025 L11,18.7751289 L11.249637,18.6307217 C13.2452855,17.4763014 14.5,15.3477234 14.5,13 C14.5,9.41014913 11.5898509,6.5 8,6.5 C4.41014913,6.5 1.5,9.41014913 1.5,13 C1.5,15.3477234 2.75471452,17.4763014 4.75036298,18.6307217 Z M0.5,13 C0.5,8.85786438 3.85786438,5.5 8,5.5 C12.1421356,5.5 15.5,8.85786438 15.5,13 C15.5,15.609072 14.1561548,17.9844979 12,19.3454202 L12,19.8814025 C12,20.7103206 11.3342281,21.375 10.4970707,21.375 L5.50292933,21.375 C4.67733949,21.375 4,20.6980312 4,19.8814025 L4,19.3454202 C1.8438452,17.9844979 0.5,15.609072 0.5,13 Z M10.5727959,12.1269607 C11.2717911,12.1269607 11.6899137,12.5985128 11.8369674,12.8009567 C12.0898997,13.1494739 12.2369534,13.5675965 12.2403846,13.9494459 C12.2148953,15.4096889 11.2423803,15.894966 11.1315999,15.9459446 L10.9806248,15.9856491 L8.28071934,15.9684929 L8.28071934,20.7088013 L7.5841751,20.7088013 L7.5841751,15.9640813 L4.73329453,15.9459446 C4.62300427,15.894966 3.65097948,15.4087086 3.625,13.9484656 C3.62990179,13.5641653 3.77695546,13.1489838 4.02890743,12.8014469 C4.17645128,12.5985128 4.59408372,12.1269607 5.29111813,12.1269607 L5.50924775,12.125 C5.99550523,12.125 6.37833497,12.2852885 6.65038427,12.6014539 C7.05037026,13.0681042 7.23712843,13.8269012 7.23908914,14.9896056 C7.23908914,15.0861708 7.23810878,15.1871477 7.23565789,15.2900853 L7.23467753,15.3283192 L8.63168744,15.3283192 L8.6302169,15.2895951 C8.62727583,15.1871477 8.62678565,15.086661 8.62678565,14.9900958 C8.62874637,13.8259208 8.81599471,13.0671239 9.21598071,12.6014539 C9.48803001,12.2847983 9.87085974,12.125 10.3546663,12.125 L10.5727959,12.1269607 Z M9.28803701,15.3283192 L10.8972944,15.3234174 C11.1423838,15.1910691 11.5575654,14.8351992 11.584035,13.9425834 C11.5879565,13.7587663 11.4859993,13.4269152 11.3080643,13.1916293 C11.1021892,12.9185997 10.860531,12.785271 10.5703451,12.7833103 L10.3904494,12.7823299 C10.162026,12.7857612 9.92575978,12.7911531 9.71106141,13.031831 C9.54930237,13.2122168 9.27921379,13.7048466 9.28264504,14.9900958 C9.28264504,15.086661 9.28460576,15.1871477 9.28705665,15.2915558 L9.28803701,15.3283192 Z M5.47346469,12.7823299 L5.29700028,12.7833103 C5.005834,12.785271 4.7641758,12.9185997 4.55781048,13.190649 C4.36173891,13.4504438 4.27840849,13.7867065 4.28232993,13.9430736 C4.30830941,14.834709 4.72349095,15.1910691 4.96858041,15.3239076 L4.97691345,15.3283192 L6.57832796,15.3283192 L6.57930832,15.2915558 C6.58126904,15.1871477 6.58322975,15.0871512 6.58322975,14.9900958 C6.58568065,13.7043565 6.31608225,13.2117267 6.15481338,13.031831 C5.93913466,12.7901728 5.70237824,12.7857612 5.47346469,12.7823299 Z M7.5,0.490478516 C7.5,0.219594711 7.73193359,0 8,0 C8.27614237,0 8.5,0.215057373 8.5,0.490478516 L8.5,3.50952148 C8.5,3.78040529 8.26806641,4 8,4 C7.72385763,4 7.5,3.78494263 7.5,3.50952148 L7.5,0.490478516 Z M0.812226556,1.94271605 C0.676784654,1.70812379 0.767847682,1.4019824 1,1.26794919 C1.23914631,1.129878 1.54054139,1.20419434 1.67825196,1.44271605 L3.18777344,4.05728395 C3.32321535,4.29187621 3.23215232,4.5980176 3,4.73205081 C2.76085369,4.870122 2.45945861,4.79580566 2.32174804,4.55728395 L0.812226556,1.94271605 Z M15.1877734,1.94271605 L13.678252,4.55728395 C13.5405414,4.79580566 13.2391463,4.870122 13,4.73205081 C12.7678477,4.5980176 12.6767847,4.29187621 12.8122266,4.05728395 L14.321748,1.44271605 C14.4594586,1.20419434 14.7608537,1.129878 15,1.26794919 C15.2321523,1.4019824 15.3232153,1.70812379 15.1877734,1.94271605 Z" id="Combined-Shape" fill-rule="nonzero"></path>
                                </g>
                            </g>
                        </g>
                    </g>
                </g>
            </g>
        </g>
    </g>
</svg>