<svg width="398" height="172" viewBox="0 0 398 172" xmlns="http://www.w3.org/2000/svg"><g fill="none"><g fill="#E6F5FB"><path d="M198.4 155.3c.3-.4 1-.4 1.2 0l5.3 8c.2.3 0 .7-.5.7h-11c-.5 0-.7-.4-.4-.8l5.4-8zM74.4 66.7c.3.4.8.4 1.2 0l5.3-8c.2-.3 0-.7-.6-.7H69.6c-.6 0-.8.4-.5.8l5.4 8z"/><path d="M90.7 128c.5 0 1 .4 1 1s-.5 1-1 1h-4c-.6 0-1-.4-1-1s.4-1 1-1h4zm-8 0h-4c-.6 0-1 .4-1 1s.4 1 1 1h4c.5 0 1-.4 1-1s-.5-1-1-1zm-8 0h-4c-.6 0-1 .4-1 1s.4 1 1 1h4c.5 0 1-.4 1-1s-.5-1-1-1zm-8 0h-4c-.6 0-1 .4-1 1s.4 1 1 1h4c.5 0 1-.4 1-1s-.5-1-1-1zm-8 0h-4c-.6 0-1 .4-1 1s.4 1 1 1h4c.5 0 1-.4 1-1s-.5-1-1-1zm-8 0h-4c-.6 0-1 .4-1 1s.4 1 1 1h4c.5 0 1-.4 1-1s-.5-1-1-1zm-8 0h-4c-.6 0-1 .4-1 1s.4 1 1 1h4c.5 0 1-.4 1-1s-.5-1-1-1zm-8 0h-4c-.6 0-1 .4-1 1s.4 1 1 1h4c.5 0 1-.4 1-1s-.5-1-1-1zm-8 0h-4c-.6 0-1 .4-1 1s.4 1 1 1h4c.5 0 1-.4 1-1s-.5-1-1-1zm-8 0h-4c-.6 0-1 .4-1 1s.4 1 1 1h4c.5 0 1-.4 1-1s-.5-1-1-1zm-8 0h-4c-.6 0-1 .4-1 1s.4 1 1 1h4c.5 0 1-.4 1-1s-.5-1-1-1zm-8 0c-.3 0-.7-.5-.7-1v-1.2c0-.6-.4-1-1-1s-1 .4-1 1v1.2c0 1.5 1 2.7 2.5 3 .6 0 1-.3 1.2-1 0-.4-.3-1-1-1zm-.7-6.2v-4c0-.6-.4-1-1-1s-1 .4-1 1v4c0 .5.4 1 1 1s1-.5 1-1zm0-8v-4c0-.6-.4-1-1-1s-1 .4-1 1v4c0 .5.4 1 1 1s1-.5 1-1zm0-8v-4c0-.6-.4-1-1-1s-1 .4-1 1v4c0 .5.4 1 1 1s1-.5 1-1zm0-8v-4c0-.6-.4-1-1-1s-1 .4-1 1v4c0 .5.4 1 1 1s1-.5 1-1zm0-8v-4c0-.6-.4-1-1-1s-1 .4-1 1v4c0 .5.4 1 1 1s1-.5 1-1zm0-8v-4c0-.6-.4-1-1-1s-1 .4-1 1v4c0 .5.4 1 1 1s1-.5 1-1zm0-8v-4c0-.6-.4-1-1-1s-1 .4-1 1v4c0 .5.4 1 1 1s1-.5 1-1zm0-8v-4c0-.6-.4-1-1-1s-1 .4-1 1v4c0 .5.4 1 1 1s1-.5 1-1zm0-8v-4c0-.6-.4-1-1-1s-1 .4-1 1v4c0 .5.4 1 1 1s1-.5 1-1zm0-8v-4c0-.6-.4-1-1-1s-1 .4-1 1v4c0 .5.4 1 1 1s1-.5 1-1zm0-8v-4c0-.6-.4-1-1-1s-1 .4-1 1v4c0 .5.4 1 1 1s1-.5 1-1zm0-8V33c0-.5.5-1 1-1h.2c.5 0 1-.4 1-1s-.5-1-1-1H3c-1.7 0-3 1.3-3 3v.8c0 .5.4 1 1 1s1-.5 1-1zM7.2 32h4c.5 0 1-.4 1-1s-.5-1-1-1h-4c-.6 0-1 .4-1 1s.4 1 1 1zm8 0h4c.5 0 1-.4 1-1s-.5-1-1-1h-4c-.6 0-1 .4-1 1s.4 1 1 1zm8 0h4c.5 0 1-.4 1-1s-.5-1-1-1h-4c-.6 0-1 .4-1 1s.4 1 1 1zm8 0h4c.5 0 1-.4 1-1s-.5-1-1-1h-4c-.6 0-1 .4-1 1s.4 1 1 1zm8 0h4c.5 0 1-.4 1-1s-.5-1-1-1h-4c-.6 0-1 .4-1 1s.4 1 1 1zm8 0h4c.5 0 1-.4 1-1s-.5-1-1-1h-4c-.6 0-1 .4-1 1s.4 1 1 1zm8 0h4c.5 0 1-.4 1-1s-.5-1-1-1h-4c-.6 0-1 .4-1 1s.4 1 1 1zm8 0h4c.5 0 1-.4 1-1s-.5-1-1-1h-4c-.6 0-1 .4-1 1s.4 1 1 1zm8 0h4c.5 0 1-.4 1-1s-.5-1-1-1h-4c-.6 0-1 .4-1 1s.4 1 1 1zm8 0h4c.5 0 1-.4 1-1s-.5-1-1-1h-4c-.6 0-1 .4-1 1s.4 1 1 1zm8 0h4c.5 0 1-.4 1-1s-.5-1-1-1h-4c-.6 0-1 .4-1 1s.4 1 1 1zm8 0h4c.5 0 1-.4 1-1s-.5-1-1-1h-4c-.6 0-1 .4-1 1s.4 1 1 1zm8 0h4c.5 0 1-.4 1-1s-.5-1-1-1h-4c-.6 0-1 .4-1 1s.4 1 1 1zm8 0h4c.5 0 1-.4 1-1s-.5-1-1-1h-4c-.6 0-1 .4-1 1s.4 1 1 1zm8 0h4c.5 0 1-.4 1-1s-.5-1-1-1h-4c-.6 0-1 .4-1 1s.4 1 1 1zm8 0h4c.5 0 1-.4 1-1s-.5-1-1-1h-4c-.6 0-1 .4-1 1s.4 1 1 1zm8 0h4c.5 0 1-.4 1-1s-.5-1-1-1h-4c-.6 0-1 .4-1 1s.4 1 1 1zm8 0h4c.5 0 1-.4 1-1s-.5-1-1-1h-4c-.6 0-1 .4-1 1s.4 1 1 1zm8 0h4c.5 0 1-.4 1-1s-.5-1-1-1h-4c-.6 0-1 .4-1 1s.4 1 1 1zm8 0h4c.5 0 1-.4 1-1s-.5-1-1-1h-4c-.6 0-1 .4-1 1s.4 1 1 1zm8 0h4c.5 0 1-.4 1-1s-.5-1-1-1h-4c-.6 0-1 .4-1 1s.4 1 1 1zm8 0h4c.5 0 1-.4 1-1s-.5-1-1-1h-4c-.6 0-1 .4-1 1s.4 1 1 1zm8 0h4c.5 0 1-.4 1-1s-.5-1-1-1h-4c-.6 0-1 .4-1 1s.4 1 1 1zm8 0h4c.5 0 1-.4 1-1s-.5-1-1-1h-4c-.6 0-1 .4-1 1s.4 1 1 1zm8 0h4c.5 0 1-.4 1-1s-.5-1-1-1h-4c-.6 0-1 .4-1 1s.4 1 1 1zm8 0h4c.5 0 1-.4 1-1s-.5-1-1-1h-4c-.6 0-1 .4-1 1s.4 1 1 1zm8 0h4c.5 0 1-.4 1-1s-.5-1-1-1h-4c-.6 0-1 .4-1 1s.4 1 1 1zm8 0h4c.5 0 1-.4 1-1s-.5-1-1-1h-4c-.6 0-1 .4-1 1s.4 1 1 1zm8 0h4c.5 0 1-.4 1-1s-.5-1-1-1h-4c-.6 0-1 .4-1 1s.4 1 1 1zm8 0h4c.5 0 1-.4 1-1s-.5-1-1-1h-4c-.6 0-1 .4-1 1s.4 1 1 1zm8 0h4c.5 0 1-.4 1-1s-.5-1-1-1h-4c-.6 0-1 .4-1 1s.4 1 1 1zm8 0h4c.5 0 1-.4 1-1s-.5-1-1-1h-4c-.6 0-1 .4-1 1s.4 1 1 1zm8 0h4c.5 0 1-.4 1-1s-.5-1-1-1h-4c-.6 0-1 .4-1 1s.4 1 1 1zm8 0h4c.5 0 1-.4 1-1s-.5-1-1-1h-4c-.6 0-1 .4-1 1s.4 1 1 1zm8 0h4c.5 0 1-.4 1-1s-.5-1-1-1h-4c-.6 0-1 .4-1 1s.4 1 1 1zm8 0h4c.5 0 1-.4 1-1s-.5-1-1-1h-4c-.6 0-1 .4-1 1s.4 1 1 1zm8 0h4c.5 0 1-.4 1-1s-.5-1-1-1h-4c-.6 0-1 .4-1 1s.4 1 1 1zm8 0h4c.5 0 1-.4 1-1s-.5-1-1-1h-4c-.6 0-1 .4-1 1s.4 1 1 1zm8 0h4c.5 0 1-.4 1-1s-.5-1-1-1h-4c-.6 0-1 .4-1 1s.4 1 1 1zm8 0h4c.5 0 1-.4 1-1s-.5-1-1-1h-4c-.6 0-1 .4-1 1s.4 1 1 1zm8 0h4c.5 0 1-.4 1-1s-.5-1-1-1h-4c-.6 0-1 .4-1 1s.4 1 1 1zm8 0h4c.5 0 1-.4 1-1s-.5-1-1-1h-4c-.6 0-1 .4-1 1s.4 1 1 1zm8 0h4c.5 0 1-.4 1-1s-.5-1-1-1h-4c-.6 0-1 .4-1 1s.4 1 1 1zm8 0h4c.5 0 1-.4 1-1s-.5-1-1-1h-4c-.6 0-1 .4-1 1s.4 1 1 1zm8 0h4c.5 0 1-.4 1-1s-.5-1-1-1h-4c-.6 0-1 .4-1 1s.4 1 1 1zm8 0h4c.5 0 1-.4 1-1s-.5-1-1-1h-4c-.6 0-1 .4-1 1s.4 1 1 1zm8 0h4c.5 0 1-.4 1-1s-.5-1-1-1h-4c-.6 0-1 .4-1 1s.4 1 1 1zm8 0h4c.5 0 1-.4 1-1s-.5-1-1-1h-4c-.6 0-1 .4-1 1s.4 1 1 1zm8 0h3.8c.6 0 1-.3 1.2-1 0-.4-.4-1-1-1h-4c-.6 0-1 .4-1 1s.4 1 1 1zm4.8 2v4c0 .7.4 1 1 1s1-.3 1-1v-4c0-.4-.4-1-1-1s-1 .6-1 1zm0 8v4c0 .7.4 1 1 1s1-.3 1-1v-4c0-.4-.4-1-1-1s-1 .6-1 1zm0 8v4c0 .7.4 1 1 1s1-.3 1-1v-4c0-.4-.4-1-1-1s-1 .6-1 1zm0 8v4c0 .7.4 1 1 1s1-.3 1-1v-4c0-.4-.4-1-1-1s-1 .6-1 1zm0 8v4c0 .7.4 1 1 1s1-.3 1-1v-4c0-.4-.4-1-1-1s-1 .6-1 1zm0 8v4c0 .7.4 1 1 1s1-.3 1-1v-4c0-.4-.4-1-1-1s-1 .6-1 1zm0 8v4c0 .7.4 1 1 1s1-.3 1-1v-4c0-.4-.4-1-1-1s-1 .6-1 1zm0 8v4c0 .7.4 1 1 1s1-.3 1-1v-4c0-.4-.4-1-1-1s-1 .6-1 1zm0 8v4c0 .7.4 1 1 1s1-.3 1-1v-4c0-.4-.4-1-1-1s-1 .6-1 1zm0 8v4c0 .7.4 1 1 1s1-.3 1-1v-4c0-.4-.4-1-1-1s-1 .6-1 1zm0 8v4c0 .7.4 1 1 1s1-.3 1-1v-4c0-.4-.4-1-1-1s-1 .6-1 1zm0 8v4c0 .7.4 1 1 1s1-.3 1-1v-4c0-.4-.4-1-1-1s-1 .6-1 1zm-1 6h-4c-.6 0-1 .4-1 1s.4 1 1 1h4c.5 0 1-.4 1-1s-.5-1-1-1zm-8 0h-4c-.6 0-1 .4-1 1s.4 1 1 1h4c.5 0 1-.4 1-1s-.5-1-1-1zm-8 0h-4c-.6 0-1 .4-1 1s.4 1 1 1h4c.5 0 1-.4 1-1s-.5-1-1-1zm-8 0h-4c-.6 0-1 .4-1 1s.4 1 1 1h4c.5 0 1-.4 1-1s-.5-1-1-1zm-8 0h-4c-.6 0-1 .4-1 1s.4 1 1 1h4c.5 0 1-.4 1-1s-.5-1-1-1zm-8 0h-4c-.6 0-1 .4-1 1s.4 1 1 1h4c.5 0 1-.4 1-1s-.5-1-1-1zm-8 0h-4c-.6 0-1 .4-1 1s.4 1 1 1h4c.5 0 1-.4 1-1s-.5-1-1-1zm-8 0h-4c-.6 0-1 .4-1 1s.4 1 1 1h4c.5 0 1-.4 1-1s-.5-1-1-1zm-8 0h-4c-.6 0-1 .4-1 1s.4 1 1 1h4c.5 0 1-.4 1-1s-.5-1-1-1zm-8 0h-4c-.6 0-1 .4-1 1s.4 1 1 1h4c.5 0 1-.4 1-1s-.5-1-1-1zm-8 0h-4c-.6 0-1 .4-1 1s.4 1 1 1h4c.5 0 1-.4 1-1s-.5-1-1-1zm-8 0h-4c-.6 0-1 .4-1 1s.4 1 1 1h4c.5 0 1-.4 1-1s-.5-1-1-1zm-8 0h-4c-.6 0-1 .4-1 1s.4 1 1 1h4c.5 0 1-.4 1-1s-.5-1-1-1zm-8 0h-4c-.6 0-1 .4-1 1s.4 1 1 1h4c.5 0 1-.4 1-1s-.5-1-1-1zm-8 0h-4c-.6 0-1 .4-1 1s.4 1 1 1h4c.5 0 1-.4 1-1s-.5-1-1-1zm-8 0h-4c-.6 0-1 .4-1 1s.4 1 1 1h4c.5 0 1-.4 1-1s-.5-1-1-1zm-8 0h-4c-.6 0-1 .4-1 1s.4 1 1 1h4c.5 0 1-.4 1-1s-.5-1-1-1zm-8 0h-4c-.6 0-1 .4-1 1s.4 1 1 1h4c.5 0 1-.4 1-1s-.5-1-1-1zm-8 0h-4c-.6 0-1 .4-1 1s.4 1 1 1h4c.5 0 1-.4 1-1s-.5-1-1-1zm-8 0h-4c-.6 0-1 .4-1 1s.4 1 1 1h4c.5 0 1-.4 1-1s-.5-1-1-1zm-8 0h-4c-.6 0-1 .4-1 1s.4 1 1 1h4c.5 0 1-.4 1-1s-.5-1-1-1zm-8 0h-4c-.6 0-1 .4-1 1s.4 1 1 1h4c.5 0 1-.4 1-1s-.5-1-1-1zm-8 0h-4c-.6 0-1 .4-1 1s.4 1 1 1h4c.5 0 1-.4 1-1s-.5-1-1-1zm-8 0h-4c-.6 0-1 .4-1 1s.4 1 1 1h4c.5 0 1-.4 1-1s-.5-1-1-1zm-8 0h-4c-.6 0-1 .4-1 1s.4 1 1 1h4c.5 0 1-.4 1-1s-.5-1-1-1zm-8 0h-4c-.6 0-1 .4-1 1s.4 1 1 1h4c.5 0 1-.4 1-1s-.5-1-1-1zm-8 0h-4c-.6 0-1 .4-1 1s.4 1 1 1h4c.5 0 1-.4 1-1s-.5-1-1-1zm-8 0h-4c-.6 0-1 .4-1 1s.4 1 1 1h4c.5 0 1-.4 1-1s-.5-1-1-1zm-8 0h-4c-.6 0-1 .4-1 1s.4 1 1 1h4c.5 0 1-.4 1-1s-.5-1-1-1zm-8 0h-4c-.6 0-1 .4-1 1s.4 1 1 1h4c.5 0 1-.4 1-1s-.5-1-1-1zm-8 0h-4c-.6 0-1 .4-1 1s.4 1 1 1h4c.5 0 1-.4 1-1s-.5-1-1-1zm-8 0h-4c-.6 0-1 .4-1 1s.4 1 1 1h4c.5 0 1-.4 1-1s-.5-1-1-1zm-8 0h-4c-.6 0-1 .4-1 1s.4 1 1 1h4c.5 0 1-.4 1-1s-.5-1-1-1zm-8 0h-4c-.6 0-1 .4-1 1s.4 1 1 1h4c.5 0 1-.4 1-1s-.5-1-1-1zm-8 0h-4c-.6 0-1 .4-1 1s.4 1 1 1h4c.5 0 1-.4 1-1s-.5-1-1-1zm-8 0h-4c-.6 0-1 .4-1 1s.4 1 1 1h4c.5 0 1-.4 1-1s-.5-1-1-1zm-8 0h-4c-.6 0-1 .4-1 1s.4 1 1 1h4c.5 0 1-.4 1-1s-.5-1-1-1zm-8 0h-4c-.6 0-1 .4-1 1s.4 1 1 1h4c.5 0 1-.4 1-1s-.5-1-1-1zm242 13c0-1.7 1.3-3 3-3h1c.5 0 1 .4 1 1s-.5 1-1 1h-1c-.6 0-1 .4-1 1v2.2c0 .6-.4 1-1 1s-1-.4-1-1V141zM91 128c.5 0 1 .4 1 1s-.5 1-1 1h-.3c-.6 0-1-.4-1-1s.4-1 1-1h.2zm240-38c0-.6.4-1 1-1s1 .4 1 1v4c0 .6-.4 1-1 1s-1-.4-1-1v-4zm0 8c0-.6.4-1 1-1s1 .4 1 1v4c0 .6-.4 1-1 1s-1-.4-1-1v-4zm0 8c0-.6.4-1 1-1s1 .4 1 1v4c0 .6-.4 1-1 1s-1-.4-1-1v-4zm0 8c0-.6.4-1 1-1s1 .4 1 1v4c0 .6-.4 1-1 1s-1-.4-1-1v-4zm0 8c0-.6.4-1 1-1s1 .4 1 1v4c0 .6-.4 1-1 1s-1-.4-1-1v-4zm0 8c0-.6.4-1 1-1s1 .4 1 1v4c0 .6-.4 1-1 1s-1-.4-1-1v-4zm0 8c0-.6.4-1 1-1s1 .4 1 1v4c0 .6-.4 1-1 1s-1-.4-1-1v-4zm0 8c0-.6.4-1 1-1s1 .4 1 1v4c0 .6-.4 1-1 1s-1-.4-1-1v-4zm0 8c0-.6.4-1 1-1s1 .4 1 1v4c0 .6-.4 1-1 1s-1-.4-1-1v-4zm0 8c0-.6.4-1 1-1s1 .4 1 1v4c0 .6-.4 1-1 1s-1-.4-1-1v-4zm0 7.5c0-.5.8-.7 1.2-.4.5.4.7 1 .4 1.5-.5 1-1.5 1.5-2.6 1.5h-2c-.5 0-1-.4-1-1s.5-1 1-1h2c.4 0 .7-.2 1-.5zm-7 .5c.6 0 1 .4 1 1s-.4 1-1 1h-4c-.5 0-1-.4-1-1s.5-1 1-1h4zm-8 0c.6 0 1 .4 1 1s-.4 1-1 1h-4c-.5 0-1-.4-1-1s.5-1 1-1h4zm-8 0c.6 0 1 .4 1 1s-.4 1-1 1h-4c-.5 0-1-.4-1-1s.5-1 1-1h4zm-8 0c.6 0 1 .4 1 1s-.4 1-1 1h-4c-.5 0-1-.4-1-1s.5-1 1-1h4zm-8 0c.6 0 1 .4 1 1s-.4 1-1 1h-4c-.5 0-1-.4-1-1s.5-1 1-1h4zm-8 0c.6 0 1 .4 1 1s-.4 1-1 1h-4c-.5 0-1-.4-1-1s.5-1 1-1h4zm-8 0c.6 0 1 .4 1 1s-.4 1-1 1h-4c-.5 0-1-.4-1-1s.5-1 1-1h4zm-8 0c.6 0 1 .4 1 1s-.4 1-1 1h-4c-.5 0-1-.4-1-1s.5-1 1-1h4zm-8 0c.6 0 1 .4 1 1s-.4 1-1 1h-4c-.5 0-1-.4-1-1s.5-1 1-1h4zm-8 0c.6 0 1 .4 1 1s-.4 1-1 1h-4c-.5 0-1-.4-1-1s.5-1 1-1h4zm-8 0c.6 0 1 .4 1 1s-.4 1-1 1h-4c-.5 0-1-.4-1-1s.5-1 1-1h4zm-8 0c.6 0 1 .4 1 1s-.4 1-1 1h-4c-.5 0-1-.4-1-1s.5-1 1-1h4zm-8 0c.6 0 1 .4 1 1s-.4 1-1 1h-4c-.5 0-1-.4-1-1s.5-1 1-1h4zm-8 0c.6 0 1 .4 1 1s-.4 1-1 1h-4c-.5 0-1-.4-1-1s.5-1 1-1h4zm-8 0c.6 0 1 .4 1 1s-.4 1-1 1h-4c-.5 0-1-.4-1-1s.5-1 1-1h4zm-8 0c.6 0 1 .4 1 1s-.4 1-1 1-1-.4-1-1 .4-1 1-1zm145-30c-.6 0-1-.4-1-1s.4-1 1-1h4c.5 0 1 .4 1 1s-.5 1-1 1h-4zm8 0c-.6 0-1-.4-1-1s.4-1 1-1h4c.5 0 1 .4 1 1s-.5 1-1 1h-4zm8 0c-.6 0-1-.4-1-1s.4-1 1-1h4c.5 0 1 .4 1 1s-.5 1-1 1h-4zm8 0c-.6 0-1-.4-1-1s.4-1 1-1h4c.5 0 1 .4 1 1s-.5 1-1 1h-4zm8 0c-.6 0-1-.4-1-1s.4-1 1-1h4c.5 0 1 .4 1 1s-.5 1-1 1h-4zm8 0c-.6 0-1-.4-1-1s.4-1 1-1h4c.5 0 1 .4 1 1s-.5 1-1 1h-4zm6.8.5c-.2-.5 0-1 .4-1.4.4-.2 1 0 1.3.4.3.5.5 1 .5 1.6v3c0 .4-.4 1-1 1s-1-.6-1-1v-3c0-.2 0-.4-.2-.5zm.2 7.4c0-.7.4-1 1-1s1 .3 1 1v4c0 .4-.4 1-1 1s-1-.6-1-1v-4zm0 8c0-.7.4-1 1-1s1 .3 1 1v4c0 .4-.4 1-1 1s-1-.6-1-1v-4zm0 8c0-.7.4-1 1-1s1 .3 1 1v4c0 .4-.4 1-1 1s-1-.6-1-1v-4zm-1 6c.6 0 1 .3 1.2 1 0 .4-.3 1-1 1h-4c-.6 0-1-.4-1-1s.4-1 1-1h3.8zm-7.8 0c.5 0 1 .4 1 1s-.5 1-1 1h-4c-.6 0-1-.4-1-1s.4-1 1-1h4zm-8 0c.5 0 1 .4 1 1s-.5 1-1 1h-4c-.6 0-1-.4-1-1s.4-1 1-1h4zm-8 0c.5 0 1 .4 1 1s-.5 1-1 1h-4c-.6 0-1-.4-1-1s.4-1 1-1h4zm-8 0c.5 0 1 .4 1 1s-.5 1-1 1h-4c-.6 0-1-.4-1-1s.4-1 1-1h4zm-8 0c.5 0 1 .4 1 1s-.5 1-1 1h-4c-.6 0-1-.4-1-1s.4-1 1-1h4zm-8 0c.5 0 1 .4 1 1s-.5 1-1 1H344c-.4 0-.8 0-1.2-.2-.5-.3-.7-1-.5-1.4.2-.5.8-.7 1.3-.5h3.6zm-4.2-2.8c0 .6-.4 1-1 1s-1-.4-1-1v-4c0-.5.4-1 1-1s1 .5 1 1v4zm0-8c0 .6-.4 1-1 1s-1-.4-1-1v-4c0-.5.4-1 1-1s1 .5 1 1v4zm0-8c0 .6-.4 1-1 1s-1-.4-1-1v-4c0-.5.4-1 1-1s1 .5 1 1v4zM51.8 100h-4c-.5 0-1 .4-1 1s.5 1 1 1h4c.6 0 1-.4 1-1s-.4-1-1-1zm-8 0h-4c-.5 0-1 .4-1 1s.5 1 1 1h4c.6 0 1-.4 1-1s-.4-1-1-1zm-8 0h-4c-.5 0-1 .4-1 1s.5 1 1 1h4c.6 0 1-.4 1-1s-.4-1-1-1zm-8 0h-4c-.5 0-1 .4-1 1s.5 1 1 1h4c.6 0 1-.4 1-1s-.4-1-1-1zm-8 0h-4c-.5 0-1 .4-1 1s.5 1 1 1h4c.6 0 1-.4 1-1s-.4-1-1-1zm-7.8 3v4c0 .7.4 1 1 1s1-.3 1-1v-4c0-.4-.4-1-1-1s-1 .6-1 1zm0 8v4c0 .7.4 1 1 1s1-.3 1-1v-4c0-.4-.4-1-1-1s-1 .6-1 1zm0 8v4c0 .7.4 1 1 1s1-.3 1-1v-4c0-.4-.4-1-1-1s-1 .6-1 1zm0 8v4c0 .7.4 1 1 1s1-.3 1-1v-4c0-.4-.4-1-1-1s-1 .6-1 1zm0 8v4c0 .7.4 1 1 1s1-.3 1-1v-4c0-.4-.4-1-1-1s-1 .6-1 1zm0 8v4c0 .7.4 1 1 1s1-.3 1-1v-4c0-.4-.4-1-1-1s-1 .6-1 1zm0 8v4c0 .7.4 1 1 1s1-.3 1-1v-4c0-.4-.4-1-1-1s-1 .6-1 1zm0 8v4c0 .7.4 1 1 1s1-.3 1-1v-4c0-.4-.4-1-1-1s-1 .6-1 1zm0 8v2c0 1.2.7 2.2 1.7 2.7.5.2 1 0 1.3-.5s0-1-.4-1.3c-.4-.3-.6-.6-.6-1v-2c0-.4-.4-1-1-1s-1 .6-1 1zm6 5h4c.6 0 1-.4 1-1s-.4-1-1-1h-4c-.5 0-1 .4-1 1s.5 1 1 1zm8 0h4c.6 0 1-.4 1-1s-.4-1-1-1h-4c-.5 0-1 .4-1 1s.5 1 1 1zm8 0h4c.6 0 1-.4 1-1s-.4-1-1-1h-4c-.5 0-1 .4-1 1s.5 1 1 1zm8 0h4c.6 0 1-.4 1-1s-.4-1-1-1h-4c-.5 0-1 .4-1 1s.5 1 1 1zm8 0h4c.6 0 1-.4 1-1s-.4-1-1-1h-4c-.5 0-1 .4-1 1s.5 1 1 1zm8 0h4c.6 0 1-.4 1-1s-.4-1-1-1h-4c-.5 0-1 .4-1 1s.5 1 1 1zm8 0h4c.6 0 1-.4 1-1s-.4-1-1-1h-4c-.5 0-1 .4-1 1s.5 1 1 1zm8 0h4c.6 0 1-.4 1-1s-.4-1-1-1h-4c-.5 0-1 .4-1 1s.5 1 1 1zm8 0h4c.6 0 1-.4 1-1s-.4-1-1-1h-4c-.5 0-1 .4-1 1s.5 1 1 1zm8 0h4c.6 0 1-.4 1-1s-.4-1-1-1h-4c-.5 0-1 .4-1 1s.5 1 1 1zm8 0h4c.6 0 1-.4 1-1s-.4-1-1-1h-4c-.5 0-1 .4-1 1s.5 1 1 1zm8 0h4c.6 0 1-.4 1-1s-.4-1-1-1h-4c-.5 0-1 .4-1 1s.5 1 1 1zm8 0h4c.6 0 1-.4 1-1s-.4-1-1-1h-4c-.5 0-1 .4-1 1s.5 1 1 1zm8 0h4c.6 0 1-.4 1-1s-.4-1-1-1h-4c-.5 0-1 .4-1 1s.5 1 1 1zm8 0h4c.6 0 1-.4 1-1s-.4-1-1-1h-4c-.5 0-1 .4-1 1s.5 1 1 1zm8 0h4c.6 0 1-.4 1-1s-.4-1-1-1h-4c-.5 0-1 .4-1 1s.5 1 1 1zm8 0h4c.6 0 1-.4 1-1s-.4-1-1-1h-4c-.5 0-1 .4-1 1s.5 1 1 1zm8 0h4c.6 0 1-.4 1-1s-.4-1-1-1h-4c-.5 0-1 .4-1 1s.5 1 1 1zm8 0h4c.6 0 1-.4 1-1s-.4-1-1-1h-4c-.5 0-1 .4-1 1s.5 1 1 1zm8 0h4c.6 0 1-.4 1-1s-.4-1-1-1h-4c-.5 0-1 .4-1 1s.5 1 1 1zm8 0h4c.6 0 1-.4 1-1s-.4-1-1-1h-4c-.5 0-1 .4-1 1s.5 1 1 1zm8 0h4c.6 0 1-.4 1-1s-.4-1-1-1h-4c-.5 0-1 .4-1 1s.5 1 1 1zm8 0h3c.6 0 1 0 1.5-.4.5-.3.7-1 .4-1.4-.4-.5-1-.6-1.5-.3H194c-.5 0-1 .4-1 1s.5 1 1 1zm6-5v-4c0-.6-.4-1-1-1s-1 .4-1 1v4c0 .5.4 1 1 1s1-.5 1-1zm0-8v-.2c0-.5-.4-1-1-1s-1 .5-1 1v.2c0 .5.4 1 1 1s1-.5 1-1zM76 57.7v-4c0-.6-.4-1-1-1s-1 .4-1 1v4c0 .5.4 1 1 1s1-.5 1-1zm0-8v-4c0-.6-.4-1-1-1s-1 .4-1 1v4c0 .5.4 1 1 1s1-.5 1-1zm0-8v-4c0-.6-.4-1-1-1s-1 .4-1 1v4c0 .5.4 1 1 1s1-.5 1-1zm0-8v-4c0-.6-.4-1-1-1s-1 .4-1 1v4c0 .5.4 1 1 1s1-.5 1-1zm0-8v-4c0-.6-.4-1-1-1s-1 .4-1 1v4c0 .5.4 1 1 1s1-.5 1-1zm0-8v-4c0-.6-.4-1-1-1s-1 .4-1 1v4c0 .5.4 1 1 1s1-.5 1-1zm0-8v-4c0-.6-.4-1-1-1s-1 .4-1 1v4c0 .5.4 1 1 1s1-.5 1-1zm.7-7C77 2 77.7 2 78 2H80c.6 0 1-.4 1-1s-.4-1-1-1H78c-1 0-2 .4-2.7 1-.4.5-.4 1.2 0 1.6s1 .4 1.4 0zm7-.7h4c.7 0 1-.4 1-1s-.3-1-1-1h-4c-.4 0-1 .4-1 1s.6 1 1 1zm8 0h4c.7 0 1-.4 1-1s-.3-1-1-1h-4c-.4 0-1 .4-1 1s.6 1 1 1zm8 0h4c.7 0 1-.4 1-1s-.3-1-1-1h-4c-.4 0-1 .4-1 1s.6 1 1 1zm8 0h4c.7 0 1-.4 1-1s-.3-1-1-1h-4c-.4 0-1 .4-1 1s.6 1 1 1zm8 0h4c.7 0 1-.4 1-1s-.3-1-1-1h-4c-.4 0-1 .4-1 1s.6 1 1 1zm8 0h4c.7 0 1-.4 1-1s-.3-1-1-1h-4c-.4 0-1 .4-1 1s.6 1 1 1zm8 0h4c.7 0 1-.4 1-1s-.3-1-1-1h-4c-.4 0-1 .4-1 1s.6 1 1 1zm8 0h4c.7 0 1-.4 1-1s-.3-1-1-1h-4c-.4 0-1 .4-1 1s.6 1 1 1zm8 0h4c.7 0 1-.4 1-1s-.3-1-1-1h-4c-.4 0-1 .4-1 1s.6 1 1 1zm8 0h4c.7 0 1-.4 1-1s-.3-1-1-1h-4c-.4 0-1 .4-1 1s.6 1 1 1zm8 0h4c.7 0 1-.4 1-1s-.3-1-1-1h-4c-.4 0-1 .4-1 1s.6 1 1 1zm8 0h4c.7 0 1-.4 1-1s-.3-1-1-1h-4c-.4 0-1 .4-1 1s.6 1 1 1zm8 0h4c.7 0 1-.4 1-1s-.3-1-1-1h-4c-.4 0-1 .4-1 1s.6 1 1 1zm8 0h4c.7 0 1-.4 1-1s-.3-1-1-1h-4c-.4 0-1 .4-1 1s.6 1 1 1zm8 0h.2c.8 0 1.6.6 2 1.5 0 .5.6.8 1.2.7.5-.2.8-.7.6-1.3-.5-1.8-2-3-4-3-.6 0-1 .4-1 1s.4 1 1 1zm2.3 5.3v4c0 .5.4 1 1 1s1-.5 1-1v-4c0-.6-.4-1-1-1s-1 .4-1 1zm0 8v4c0 .5.4 1 1 1s1-.5 1-1v-4c0-.6-.4-1-1-1s-1 .4-1 1zm0 8v4c0 .5.4 1 1 1s1-.5 1-1v-4c0-.6-.4-1-1-1s-1 .4-1 1zm0 8v4c0 .5.4 1 1 1s1-.5 1-1v-4c0-.6-.4-1-1-1s-1 .4-1 1zm0 8v4c0 .5.4 1 1 1s1-.5 1-1v-4c0-.6-.4-1-1-1s-1 .4-1 1zm0 8v4c0 .5.4 1 1 1s1-.5 1-1v-4c0-.6-.4-1-1-1s-1 .4-1 1zm0 8v4c0 .5.4 1 1 1s1-.5 1-1v-4c0-.6-.4-1-1-1s-1 .4-1 1zm0 8v4c0 .5.4 1 1 1s1-.5 1-1v-4c0-.6-.4-1-1-1s-1 .4-1 1zm0 8v4c0 .5.4 1 1 1s1-.5 1-1v-4c0-.6-.4-1-1-1s-1 .4-1 1zm0 8v4c0 .5.4 1 1 1s1-.5 1-1v-4c0-.6-.4-1-1-1s-1 .4-1 1zm0 8v4c0 .5.4 1 1 1s1-.5 1-1v-4c0-.6-.4-1-1-1s-1 .4-1 1zm0 8v4c0 .5.4 1 1 1s1-.5 1-1v-4c0-.6-.4-1-1-1s-1 .4-1 1z"/></g><path d="M48 117c-8.3 0-15-6.7-15-15s6.7-15 15-15c2.2 0 4.3.5 6.2 1.3C55.5 78.5 64 71 74 71c9 0 16.8 6 19.2 14.4 2.2-1.5 5-2.4 7.8-2.4 7.7 0 14 6.3 14 14 5.5 0 10 4.5 10 10s-4.5 10-10 10H48z" fill="#fff"/><path d="M115 116c5 0 9-4 9-9s-4-9-9-9h-1v-1c0-7.2-5.8-13-13-13-2.6 0-5 .8-7.2 2.2l-1.2.8-.4-1.3C90 77.7 82.5 72 74 72c-9.5 0-17.6 7-18.8 16.5l-.2 1.3-1.2-.6C52 88.4 50 88 48 88c-7.7 0-14 6.3-14 14s6.3 14 14 14h67zm11-9c0 6-5 11-11 11H48c-8.8 0-16-7.2-16-16s7.2-16 16-16c2 0 3.7.3 5.4 1C55.4 77 64 70 74 70c9 0 16.8 5.6 19.8 14 2.2-1.4 4.6-2 7.2-2 8 0 14.5 6.2 15 14 5.6.5 10 5.3 10 11z" fill="#CBECF9"/><path d="M329.7 73.4h-35.3c-3 0-5.4-2.5-5.4-5.4 0-3 2.4-5.5 5.4-5.5h.3c-.2-.6-.3-1.3-.3-2 0-4 3.4-7.4 7.5-7.4 2 0 4 1 5.5 2.6 1.7-4 5.5-6.6 10-6.6 5 0 9.4 3.5 10.6 8.3l1.7-.2c4.5 0 8.2 3.8 8.2 8.2 0 4.5-3.8 8.2-8.3 8.2z" fill="#E6F5FB"/><path d="M337 65.2c0-4-3.3-7-7.3-7h-1.4l-1 .3-.2-1c-1-4.4-5-7.5-9.5-7.5-4 0-7.5 2.4-9 6l-.7 1.4-1-1c-1.3-1.5-3-2.3-5-2.3-3.5 0-6.4 3-6.4 6.5 0 .6 0 1.2.3 1.8l.4 1.3h-1.6c-2.4 0-4.4 2-4.4 4.4 0 2.4 2 4.4 4.4 4.4h35.3c4 0 7.2-3.2 7.2-7.2zm-7.3-9c5 0 9.2 4 9.2 9s-4.2 9.2-9.3 9.2h-35.3c-3.5 0-6.4-3-6.4-6.4 0-3.3 2.4-6 5.5-6.4v-1c0-4.8 3.7-8.5 8.4-8.5 2 0 3.7.7 5.2 2 2-3.7 6-6 10.3-6 5.2 0 9.7 3.4 11.3 8.2h1z" fill="#CBECF9"/><g><path d="M351.5 88.4c4.5 0 8-3.7 8-8.2 0-4.5-3.5-8-8-8-1.6 0-3 .4-4.4 1.2-1-2.8-3.6-4.8-6.8-4.8-1.6 0-3 .5-4.2 1.3-.8-4-4.3-7-8.5-7-4.8 0-8.6 4-8.6 8.6v1c-1-.3-2-.5-2.8-.5-4.6 0-8.2 3.7-8.2 8.2 0 4.5 3.7 8.2 8.2 8.2h35.3z" fill="#fff"/><path d="M351.5 71c5 0 9 4.2 9 9.2s-4 9.2-9 9.2H316c-5 0-9-4-9-9.2s4-9 9-9h2c0-5 4.3-9.2 9.5-9.2 4.2 0 7.8 2.6 9 6.4 1.2-.5 2.4-.8 3.7-.8 3 0 6 1.7 7.4 4.4 1.2-.6 2.5-1 4-1zm7 9.2c0-4-3-7-7-7-1.4 0-2.7.3-4 1l-1 .7-.3-1.3c-1-2.4-3.3-4-6-4-1.3 0-2.6.3-3.6 1l-1.3 1-.3-1.6c-.7-3.4-3.8-6-7.5-6-4.2 0-7.6 3.4-7.6 7.6V74l-1.4-.5c-.8-.2-1.6-.4-2.4-.4-4 0-7.2 3.3-7.2 7.2 0 4 3.2 7.2 7.2 7.2h35.3c4 0 7-3.2 7-7.2z" fill="#CBECF9"/></g></g></svg>