<?xml version="1.0" encoding="UTF-8"?>
<svg width="398px" height="172px" viewBox="0 0 398 172" version="1.1" xmlns="http://www.w3.org/2000/svg" xmlns:xlink="http://www.w3.org/1999/xlink">
    <!-- Generator: Sketch 43.2 (39069) - http://www.bohemiancoding.com/sketch -->
    <title>img_open_source</title>
    <desc>Created with Sketch.</desc>
    <defs></defs>
    <g id="landing-page" stroke="none" stroke-width="1" fill="none" fill-rule="evenodd">
        <g id="Lite_landing-page_web_1024" transform="translate(-71.000000, -1678.000000)">
            <g id="section_4" transform="translate(0.000000, 1517.000000)">
                <g id="open-source" transform="translate(42.000000, 152.000000)">
                    <g id="img_open_source">
                        <g id="img" transform="translate(29.000000, 9.000000)">
                            <g id="bg">
                                <g id="lines" fill="#E6F5FB">
                                    <path d="M198.437757,155.312051 C198.747618,154.854861 199.251629,154.857265 199.559861,155.312051 L204.887065,163.172185 C205.196925,163.629374 205.004117,164 204.457401,164 L193.540217,164 C192.99306,164 192.802322,163.626971 193.110553,163.172185 L198.437757,155.312051 Z" id="Path"></path>
                                    <path d="M74.4393367,58.3231871 C74.7482707,57.8665833 75.2507758,57.868984 75.5580856,58.3231871 L80.869364,66.1732458 C81.1782979,66.6298495 80.9710422,67 80.4196315,67 L69.5777908,67 C69.0204765,67 68.8207486,66.6274489 69.1280583,66.1732458 L74.4393367,58.3231871 Z" id="Triangle-2" transform="translate(75.000000, 62.500000) scale(1, -1) translate(-75.000000, -62.500000) "></path>
                                    <path d="M90.6923077,128 C91.2445924,128 91.6923077,128.447715 91.6923077,129 C91.6923077,129.552285 91.2445924,130 90.6923077,130 L86.6923077,130 C86.1400229,130 85.6923077,129.552285 85.6923077,129 C85.6923077,128.447715 86.1400229,128 86.6923077,128 L90.6923077,128 Z M82.6923077,128 L78.6923077,128 C78.1400229,128 77.6923077,128.447715 77.6923077,129 C77.6923077,129.552285 78.1400229,130 78.6923077,130 L82.6923077,130 C83.2445924,130 83.6923077,129.552285 83.6923077,129 C83.6923077,128.447715 83.2445924,128 82.6923077,128 Z M74.6923077,128 L70.6923077,128 C70.1400229,128 69.6923077,128.447715 69.6923077,129 C69.6923077,129.552285 70.1400229,130 70.6923077,130 L74.6923077,130 C75.2445924,130 75.6923077,129.552285 75.6923077,129 C75.6923077,128.447715 75.2445924,128 74.6923077,128 Z M66.6923077,128 L62.6923077,128 C62.1400229,128 61.6923077,128.447715 61.6923077,129 C61.6923077,129.552285 62.1400229,130 62.6923077,130 L66.6923077,130 C67.2445924,130 67.6923077,129.552285 67.6923077,129 C67.6923077,128.447715 67.2445924,128 66.6923077,128 Z M58.6923077,128 L54.6923077,128 C54.1400229,128 53.6923077,128.447715 53.6923077,129 C53.6923077,129.552285 54.1400229,130 54.6923077,130 L58.6923077,130 C59.2445924,130 59.6923077,129.552285 59.6923077,129 C59.6923077,128.447715 59.2445924,128 58.6923077,128 Z M50.6923077,128 L46.6923077,128 C46.1400229,128 45.6923077,128.447715 45.6923077,129 C45.6923077,129.552285 46.1400229,130 46.6923077,130 L50.6923077,130 C51.2445924,130 51.6923077,129.552285 51.6923077,129 C51.6923077,128.447715 51.2445924,128 50.6923077,128 Z M42.6923077,128 L38.6923077,128 C38.1400229,128 37.6923077,128.447715 37.6923077,129 C37.6923077,129.552285 38.1400229,130 38.6923077,130 L42.6923077,130 C43.2445924,130 43.6923077,129.552285 43.6923077,129 C43.6923077,128.447715 43.2445924,128 42.6923077,128 Z M34.6923077,128 L30.6923077,128 C30.1400229,128 29.6923077,128.447715 29.6923077,129 C29.6923077,129.552285 30.1400229,130 30.6923077,130 L34.6923077,130 C35.2445924,130 35.6923077,129.552285 35.6923077,129 C35.6923077,128.447715 35.2445924,128 34.6923077,128 Z M26.6923077,128 L22.6923077,128 C22.1400229,128 21.6923077,128.447715 21.6923077,129 C21.6923077,129.552285 22.1400229,130 22.6923077,130 L26.6923077,130 C27.2445924,130 27.6923077,129.552285 27.6923077,129 C27.6923077,128.447715 27.2445924,128 26.6923077,128 Z M18.6923077,128 L14.6923077,128 C14.1400229,128 13.6923077,128.447715 13.6923077,129 C13.6923077,129.552285 14.1400229,130 14.6923077,130 L18.6923077,130 C19.2445924,130 19.6923077,129.552285 19.6923077,129 C19.6923077,128.447715 19.2445924,128 18.6923077,128 Z M10.6923077,128 L6.69230769,128 C6.14002294,128 5.69230769,128.447715 5.69230769,129 C5.69230769,129.552285 6.14002294,130 6.69230769,130 L10.6923077,130 C11.2445924,130 11.6923077,129.552285 11.6923077,129 C11.6923077,128.447715 11.2445924,128 10.6923077,128 Z M2.84460199,127.988333 C2.36535924,127.914933 2.0054125,127.503229 2.00006223,127.009501 L2,125.754237 C1.99994723,125.201953 1.55218922,124.75428 0.999904468,124.754333 C0.447619721,124.754386 -5.27562007e-05,125.202144 4.56316385e-09,125.754428 L0.000120948203,127.020432 C0.0161761727,128.507347 1.09741451,129.744057 2.54181491,129.96528 C3.08773379,130.048892 3.59806967,129.674119 3.68168202,129.1282 C3.76529436,128.582281 3.39052087,128.071945 2.84460199,127.988333 Z M2,121.754333 L2,117.754333 C2,117.202048 1.55228475,116.754333 1,116.754333 C0.44771525,116.754333 0,117.202048 0,117.754333 L0,121.754333 C0,122.306618 0.44771525,122.754333 1,122.754333 C1.55228475,122.754333 2,122.306618 2,121.754333 Z M2,113.754333 L2,109.754333 C2,109.202048 1.55228475,108.754333 1,108.754333 C0.44771525,108.754333 0,109.202048 0,109.754333 L0,113.754333 C0,114.306618 0.44771525,114.754333 1,114.754333 C1.55228475,114.754333 2,114.306618 2,113.754333 Z M2,105.754333 L2,101.754333 C2,101.202048 1.55228475,100.754333 1,100.754333 C0.44771525,100.754333 0,101.202048 0,101.754333 L0,105.754333 C0,106.306618 0.44771525,106.754333 1,106.754333 C1.55228475,106.754333 2,106.306618 2,105.754333 Z M2,97.754333 L2,93.754333 C2,93.2020482 1.55228475,92.754333 1,92.754333 C0.44771525,92.754333 0,93.2020482 0,93.754333 L0,97.754333 C0,98.3066177 0.44771525,98.754333 1,98.754333 C1.55228475,98.754333 2,98.3066177 2,97.754333 Z M2,89.754333 L2,85.754333 C2,85.2020482 1.55228475,84.754333 1,84.754333 C0.44771525,84.754333 0,85.2020482 0,85.754333 L0,89.754333 C0,90.3066177 0.44771525,90.754333 1,90.754333 C1.55228475,90.754333 2,90.3066177 2,89.754333 Z M2,81.754333 L2,77.754333 C2,77.2020482 1.55228475,76.754333 1,76.754333 C0.44771525,76.754333 0,77.2020482 0,77.754333 L0,81.754333 C0,82.3066177 0.44771525,82.754333 1,82.754333 C1.55228475,82.754333 2,82.3066177 2,81.754333 Z M2,73.754333 L2,69.754333 C2,69.2020482 1.55228475,68.754333 1,68.754333 C0.44771525,68.754333 0,69.2020482 0,69.754333 L0,73.754333 C0,74.3066177 0.44771525,74.754333 1,74.754333 C1.55228475,74.754333 2,74.3066177 2,73.754333 Z M2,65.754333 L2,61.754333 C2,61.2020482 1.55228475,60.754333 1,60.754333 C0.44771525,60.754333 0,61.2020482 0,61.754333 L0,65.754333 C0,66.3066177 0.44771525,66.754333 1,66.754333 C1.55228475,66.754333 2,66.3066177 2,65.754333 Z M2,57.754333 L2,53.754333 C2,53.2020482 1.55228475,52.754333 1,52.754333 C0.44771525,52.754333 0,53.2020482 0,53.754333 L0,57.754333 C0,58.3066177 0.44771525,58.754333 1,58.754333 C1.55228475,58.754333 2,58.3066177 2,57.754333 Z M2,49.754333 L2,45.754333 C2,45.2020482 1.55228475,44.754333 1,44.754333 C0.44771525,44.754333 0,45.2020482 0,45.754333 L0,49.754333 C0,50.3066177 0.44771525,50.754333 1,50.754333 C1.55228475,50.754333 2,50.3066177 2,49.754333 Z M2,41.754333 L2,37.754333 C2,37.2020482 1.55228475,36.754333 1,36.754333 C0.44771525,36.754333 0,37.2020482 0,37.754333 L0,41.754333 C0,42.3066177 0.44771525,42.754333 1,42.754333 C1.55228475,42.754333 2,42.3066177 2,41.754333 Z M2,33.754333 L2,33.0019955 C2,32.4515491 2.45251605,32 3.00134966,32 L3.18643155,32 C3.7387163,32 4.18643155,31.5522847 4.18643155,31 C4.18643155,30.4477153 3.7387163,30 3.18643155,30 L3.00134966,30 C1.34890309,30 0,31.3460208 0,33.0019955 L0,33.754333 C0,34.3066177 0.44771525,34.754333 1,34.754333 C1.55228475,34.754333 2,34.3066177 2,33.754333 Z M7.18643155,32 L11.1864316,32 C11.7387163,32 12.1864316,31.5522847 12.1864316,31 C12.1864316,30.4477153 11.7387163,30 11.1864316,30 L7.18643155,30 C6.6341468,30 6.18643155,30.4477153 6.18643155,31 C6.18643155,31.5522847 6.6341468,32 7.18643155,32 Z M15.1864316,32 L19.1864316,32 C19.7387163,32 20.1864316,31.5522847 20.1864316,31 C20.1864316,30.4477153 19.7387163,30 19.1864316,30 L15.1864316,30 C14.6341468,30 14.1864316,30.4477153 14.1864316,31 C14.1864316,31.5522847 14.6341468,32 15.1864316,32 Z M23.1864316,32 L27.1864316,32 C27.7387163,32 28.1864316,31.5522847 28.1864316,31 C28.1864316,30.4477153 27.7387163,30 27.1864316,30 L23.1864316,30 C22.6341468,30 22.1864316,30.4477153 22.1864316,31 C22.1864316,31.5522847 22.6341468,32 23.1864316,32 Z M31.1864316,32 L35.1864316,32 C35.7387163,32 36.1864316,31.5522847 36.1864316,31 C36.1864316,30.4477153 35.7387163,30 35.1864316,30 L31.1864316,30 C30.6341468,30 30.1864316,30.4477153 30.1864316,31 C30.1864316,31.5522847 30.6341468,32 31.1864316,32 Z M39.1864316,32 L43.1864316,32 C43.7387163,32 44.1864316,31.5522847 44.1864316,31 C44.1864316,30.4477153 43.7387163,30 43.1864316,30 L39.1864316,30 C38.6341468,30 38.1864316,30.4477153 38.1864316,31 C38.1864316,31.5522847 38.6341468,32 39.1864316,32 Z M47.1864316,32 L51.1864316,32 C51.7387163,32 52.1864316,31.5522847 52.1864316,31 C52.1864316,30.4477153 51.7387163,30 51.1864316,30 L47.1864316,30 C46.6341468,30 46.1864316,30.4477153 46.1864316,31 C46.1864316,31.5522847 46.6341468,32 47.1864316,32 Z M55.1864316,32 L59.1864316,32 C59.7387163,32 60.1864316,31.5522847 60.1864316,31 C60.1864316,30.4477153 59.7387163,30 59.1864316,30 L55.1864316,30 C54.6341468,30 54.1864316,30.4477153 54.1864316,31 C54.1864316,31.5522847 54.6341468,32 55.1864316,32 Z M63.1864316,32 L67.1864316,32 C67.7387163,32 68.1864316,31.5522847 68.1864316,31 C68.1864316,30.4477153 67.7387163,30 67.1864316,30 L63.1864316,30 C62.6341468,30 62.1864316,30.4477153 62.1864316,31 C62.1864316,31.5522847 62.6341468,32 63.1864316,32 Z M71.1864316,32 L75.1864316,32 C75.7387163,32 76.1864316,31.5522847 76.1864316,31 C76.1864316,30.4477153 75.7387163,30 75.1864316,30 L71.1864316,30 C70.6341468,30 70.1864316,30.4477153 70.1864316,31 C70.1864316,31.5522847 70.6341468,32 71.1864316,32 Z M79.1864316,32 L83.1864316,32 C83.7387163,32 84.1864316,31.5522847 84.1864316,31 C84.1864316,30.4477153 83.7387163,30 83.1864316,30 L79.1864316,30 C78.6341468,30 78.1864316,30.4477153 78.1864316,31 C78.1864316,31.5522847 78.6341468,32 79.1864316,32 Z M87.1864316,32 L91.1864316,32 C91.7387163,32 92.1864316,31.5522847 92.1864316,31 C92.1864316,30.4477153 91.7387163,30 91.1864316,30 L87.1864316,30 C86.6341468,30 86.1864316,30.4477153 86.1864316,31 C86.1864316,31.5522847 86.6341468,32 87.1864316,32 Z M95.1864316,32 L99.1864316,32 C99.7387163,32 100.186432,31.5522847 100.186432,31 C100.186432,30.4477153 99.7387163,30 99.1864316,30 L95.1864316,30 C94.6341468,30 94.1864316,30.4477153 94.1864316,31 C94.1864316,31.5522847 94.6341468,32 95.1864316,32 Z M103.186432,32 L107.186432,32 C107.738716,32 108.186432,31.5522847 108.186432,31 C108.186432,30.4477153 107.738716,30 107.186432,30 L103.186432,30 C102.634147,30 102.186432,30.4477153 102.186432,31 C102.186432,31.5522847 102.634147,32 103.186432,32 Z M111.186432,32 L115.186432,32 C115.738716,32 116.186432,31.5522847 116.186432,31 C116.186432,30.4477153 115.738716,30 115.186432,30 L111.186432,30 C110.634147,30 110.186432,30.4477153 110.186432,31 C110.186432,31.5522847 110.634147,32 111.186432,32 Z M119.186432,32 L123.186432,32 C123.738716,32 124.186432,31.5522847 124.186432,31 C124.186432,30.4477153 123.738716,30 123.186432,30 L119.186432,30 C118.634147,30 118.186432,30.4477153 118.186432,31 C118.186432,31.5522847 118.634147,32 119.186432,32 Z M127.186432,32 L131.186432,32 C131.738716,32 132.186432,31.5522847 132.186432,31 C132.186432,30.4477153 131.738716,30 131.186432,30 L127.186432,30 C126.634147,30 126.186432,30.4477153 126.186432,31 C126.186432,31.5522847 126.634147,32 127.186432,32 Z M135.186432,32 L139.186432,32 C139.738716,32 140.186432,31.5522847 140.186432,31 C140.186432,30.4477153 139.738716,30 139.186432,30 L135.186432,30 C134.634147,30 134.186432,30.4477153 134.186432,31 C134.186432,31.5522847 134.634147,32 135.186432,32 Z M143.186432,32 L147.186432,32 C147.738716,32 148.186432,31.5522847 148.186432,31 C148.186432,30.4477153 147.738716,30 147.186432,30 L143.186432,30 C142.634147,30 142.186432,30.4477153 142.186432,31 C142.186432,31.5522847 142.634147,32 143.186432,32 Z M151.186432,32 L155.186432,32 C155.738716,32 156.186432,31.5522847 156.186432,31 C156.186432,30.4477153 155.738716,30 155.186432,30 L151.186432,30 C150.634147,30 150.186432,30.4477153 150.186432,31 C150.186432,31.5522847 150.634147,32 151.186432,32 Z M159.186432,32 L163.186432,32 C163.738716,32 164.186432,31.5522847 164.186432,31 C164.186432,30.4477153 163.738716,30 163.186432,30 L159.186432,30 C158.634147,30 158.186432,30.4477153 158.186432,31 C158.186432,31.5522847 158.634147,32 159.186432,32 Z M167.186432,32 L171.186432,32 C171.738716,32 172.186432,31.5522847 172.186432,31 C172.186432,30.4477153 171.738716,30 171.186432,30 L167.186432,30 C166.634147,30 166.186432,30.4477153 166.186432,31 C166.186432,31.5522847 166.634147,32 167.186432,32 Z M175.186432,32 L179.186432,32 C179.738716,32 180.186432,31.5522847 180.186432,31 C180.186432,30.4477153 179.738716,30 179.186432,30 L175.186432,30 C174.634147,30 174.186432,30.4477153 174.186432,31 C174.186432,31.5522847 174.634147,32 175.186432,32 Z M183.186432,32 L187.186432,32 C187.738716,32 188.186432,31.5522847 188.186432,31 C188.186432,30.4477153 187.738716,30 187.186432,30 L183.186432,30 C182.634147,30 182.186432,30.4477153 182.186432,31 C182.186432,31.5522847 182.634147,32 183.186432,32 Z M191.186432,32 L195.186432,32 C195.738716,32 196.186432,31.5522847 196.186432,31 C196.186432,30.4477153 195.738716,30 195.186432,30 L191.186432,30 C190.634147,30 190.186432,30.4477153 190.186432,31 C190.186432,31.5522847 190.634147,32 191.186432,32 Z M199.186432,32 L203.186432,32 C203.738716,32 204.186432,31.5522847 204.186432,31 C204.186432,30.4477153 203.738716,30 203.186432,30 L199.186432,30 C198.634147,30 198.186432,30.4477153 198.186432,31 C198.186432,31.5522847 198.634147,32 199.186432,32 Z M207.186432,32 L211.186432,32 C211.738716,32 212.186432,31.5522847 212.186432,31 C212.186432,30.4477153 211.738716,30 211.186432,30 L207.186432,30 C206.634147,30 206.186432,30.4477153 206.186432,31 C206.186432,31.5522847 206.634147,32 207.186432,32 Z M215.186432,32 L219.186432,32 C219.738716,32 220.186432,31.5522847 220.186432,31 C220.186432,30.4477153 219.738716,30 219.186432,30 L215.186432,30 C214.634147,30 214.186432,30.4477153 214.186432,31 C214.186432,31.5522847 214.634147,32 215.186432,32 Z M223.186432,32 L227.186432,32 C227.738716,32 228.186432,31.5522847 228.186432,31 C228.186432,30.4477153 227.738716,30 227.186432,30 L223.186432,30 C222.634147,30 222.186432,30.4477153 222.186432,31 C222.186432,31.5522847 222.634147,32 223.186432,32 Z M231.186432,32 L235.186432,32 C235.738716,32 236.186432,31.5522847 236.186432,31 C236.186432,30.4477153 235.738716,30 235.186432,30 L231.186432,30 C230.634147,30 230.186432,30.4477153 230.186432,31 C230.186432,31.5522847 230.634147,32 231.186432,32 Z M239.186432,32 L243.186432,32 C243.738716,32 244.186432,31.5522847 244.186432,31 C244.186432,30.4477153 243.738716,30 243.186432,30 L239.186432,30 C238.634147,30 238.186432,30.4477153 238.186432,31 C238.186432,31.5522847 238.634147,32 239.186432,32 Z M247.186432,32 L251.186432,32 C251.738716,32 252.186432,31.5522847 252.186432,31 C252.186432,30.4477153 251.738716,30 251.186432,30 L247.186432,30 C246.634147,30 246.186432,30.4477153 246.186432,31 C246.186432,31.5522847 246.634147,32 247.186432,32 Z M255.186432,32 L259.186432,32 C259.738716,32 260.186432,31.5522847 260.186432,31 C260.186432,30.4477153 259.738716,30 259.186432,30 L255.186432,30 C254.634147,30 254.186432,30.4477153 254.186432,31 C254.186432,31.5522847 254.634147,32 255.186432,32 Z M263.186432,32 L267.186432,32 C267.738716,32 268.186432,31.5522847 268.186432,31 C268.186432,30.4477153 267.738716,30 267.186432,30 L263.186432,30 C262.634147,30 262.186432,30.4477153 262.186432,31 C262.186432,31.5522847 262.634147,32 263.186432,32 Z M271.186432,32 L275.186432,32 C275.738716,32 276.186432,31.5522847 276.186432,31 C276.186432,30.4477153 275.738716,30 275.186432,30 L271.186432,30 C270.634147,30 270.186432,30.4477153 270.186432,31 C270.186432,31.5522847 270.634147,32 271.186432,32 Z M279.186432,32 L283.186432,32 C283.738716,32 284.186432,31.5522847 284.186432,31 C284.186432,30.4477153 283.738716,30 283.186432,30 L279.186432,30 C278.634147,30 278.186432,30.4477153 278.186432,31 C278.186432,31.5522847 278.634147,32 279.186432,32 Z M287.186432,32 L291.186432,32 C291.738716,32 292.186432,31.5522847 292.186432,31 C292.186432,30.4477153 291.738716,30 291.186432,30 L287.186432,30 C286.634147,30 286.186432,30.4477153 286.186432,31 C286.186432,31.5522847 286.634147,32 287.186432,32 Z M295.186432,32 L299.186432,32 C299.738716,32 300.186432,31.5522847 300.186432,31 C300.186432,30.4477153 299.738716,30 299.186432,30 L295.186432,30 C294.634147,30 294.186432,30.4477153 294.186432,31 C294.186432,31.5522847 294.634147,32 295.186432,32 Z M303.186432,32 L307.186432,32 C307.738716,32 308.186432,31.5522847 308.186432,31 C308.186432,30.4477153 307.738716,30 307.186432,30 L303.186432,30 C302.634147,30 302.186432,30.4477153 302.186432,31 C302.186432,31.5522847 302.634147,32 303.186432,32 Z M311.186432,32 L315.186432,32 C315.738716,32 316.186432,31.5522847 316.186432,31 C316.186432,30.4477153 315.738716,30 315.186432,30 L311.186432,30 C310.634147,30 310.186432,30.4477153 310.186432,31 C310.186432,31.5522847 310.634147,32 311.186432,32 Z M319.186432,32 L323.186432,32 C323.738716,32 324.186432,31.5522847 324.186432,31 C324.186432,30.4477153 323.738716,30 323.186432,30 L319.186432,30 C318.634147,30 318.186432,30.4477153 318.186432,31 C318.186432,31.5522847 318.634147,32 319.186432,32 Z M327.186432,32 L331.186432,32 C331.738716,32 332.186432,31.5522847 332.186432,31 C332.186432,30.4477153 331.738716,30 331.186432,30 L327.186432,30 C326.634147,30 326.186432,30.4477153 326.186432,31 C326.186432,31.5522847 326.634147,32 327.186432,32 Z M335.186432,32 L339.186432,32 C339.738716,32 340.186432,31.5522847 340.186432,31 C340.186432,30.4477153 339.738716,30 339.186432,30 L335.186432,30 C334.634147,30 334.186432,30.4477153 334.186432,31 C334.186432,31.5522847 334.634147,32 335.186432,32 Z M343.186432,32 L347.186432,32 C347.738716,32 348.186432,31.5522847 348.186432,31 C348.186432,30.4477153 347.738716,30 347.186432,30 L343.186432,30 C342.634147,30 342.186432,30.4477153 342.186432,31 C342.186432,31.5522847 342.634147,32 343.186432,32 Z M351.186432,32 L355.186432,32 C355.738716,32 356.186432,31.5522847 356.186432,31 C356.186432,30.4477153 355.738716,30 355.186432,30 L351.186432,30 C350.634147,30 350.186432,30.4477153 350.186432,31 C350.186432,31.5522847 350.634147,32 351.186432,32 Z M359.186432,32 L363.186432,32 C363.738716,32 364.186432,31.5522847 364.186432,31 C364.186432,30.4477153 363.738716,30 363.186432,30 L359.186432,30 C358.634147,30 358.186432,30.4477153 358.186432,31 C358.186432,31.5522847 358.634147,32 359.186432,32 Z M367.186432,32 L371.186432,32 C371.738716,32 372.186432,31.5522847 372.186432,31 C372.186432,30.4477153 371.738716,30 371.186432,30 L367.186432,30 C366.634147,30 366.186432,30.4477153 366.186432,31 C366.186432,31.5522847 366.634147,32 367.186432,32 Z M375.186432,32 L379.186432,32 C379.738716,32 380.186432,31.5522847 380.186432,31 C380.186432,30.4477153 379.738716,30 379.186432,30 L375.186432,30 C374.634147,30 374.186432,30.4477153 374.186432,31 C374.186432,31.5522847 374.634147,32 375.186432,32 Z M383.186432,32 L387.186432,32 C387.738716,32 388.186432,31.5522847 388.186432,31 C388.186432,30.4477153 387.738716,30 387.186432,30 L383.186432,30 C382.634147,30 382.186432,30.4477153 382.186432,31 C382.186432,31.5522847 382.634147,32 383.186432,32 Z M391.186432,32 L394.99865,32 C395.030784,32 395.062585,32.0014697 395.094018,32.0043799 C395.643951,32.0552936 396.131034,31.6507586 396.181948,31.1008257 C396.232861,30.5508927 395.828326,30.0638103 395.278393,30.0128966 C395.185682,30.0043132 395.092358,30 394.99865,30 L391.186432,30 C390.634147,30 390.186432,30.4477153 390.186432,31 C390.186432,31.5522847 390.634147,32 391.186432,32 Z M396,34.1249326 L396,38.1249326 C396,38.6772174 396.447715,39.1249326 397,39.1249326 C397.552285,39.1249326 398,38.6772174 398,38.1249326 L398,34.1249326 C398,33.5726479 397.552285,33.1249326 397,33.1249326 C396.447715,33.1249326 396,33.5726479 396,34.1249326 Z M396,42.1249326 L396,46.1249326 C396,46.6772174 396.447715,47.1249326 397,47.1249326 C397.552285,47.1249326 398,46.6772174 398,46.1249326 L398,42.1249326 C398,41.5726479 397.552285,41.1249326 397,41.1249326 C396.447715,41.1249326 396,41.5726479 396,42.1249326 Z M396,50.1249326 L396,54.1249326 C396,54.6772174 396.447715,55.1249326 397,55.1249326 C397.552285,55.1249326 398,54.6772174 398,54.1249326 L398,50.1249326 C398,49.5726479 397.552285,49.1249326 397,49.1249326 C396.447715,49.1249326 396,49.5726479 396,50.1249326 Z M396,58.1249326 L396,62.1249326 C396,62.6772174 396.447715,63.1249326 397,63.1249326 C397.552285,63.1249326 398,62.6772174 398,62.1249326 L398,58.1249326 C398,57.5726479 397.552285,57.1249326 397,57.1249326 C396.447715,57.1249326 396,57.5726479 396,58.1249326 Z M396,66.1249326 L396,70.1249326 C396,70.6772174 396.447715,71.1249326 397,71.1249326 C397.552285,71.1249326 398,70.6772174 398,70.1249326 L398,66.1249326 C398,65.5726479 397.552285,65.1249326 397,65.1249326 C396.447715,65.1249326 396,65.5726479 396,66.1249326 Z M396,74.1249326 L396,78.1249326 C396,78.6772174 396.447715,79.1249326 397,79.1249326 C397.552285,79.1249326 398,78.6772174 398,78.1249326 L398,74.1249326 C398,73.5726479 397.552285,73.1249326 397,73.1249326 C396.447715,73.1249326 396,73.5726479 396,74.1249326 Z M396,82.1249326 L396,86.1249326 C396,86.6772174 396.447715,87.1249326 397,87.1249326 C397.552285,87.1249326 398,86.6772174 398,86.1249326 L398,82.1249326 C398,81.5726479 397.552285,81.1249326 397,81.1249326 C396.447715,81.1249326 396,81.5726479 396,82.1249326 Z M396,90.1249326 L396,94.1249326 C396,94.6772174 396.447715,95.1249326 397,95.1249326 C397.552285,95.1249326 398,94.6772174 398,94.1249326 L398,90.1249326 C398,89.5726479 397.552285,89.1249326 397,89.1249326 C396.447715,89.1249326 396,89.5726479 396,90.1249326 Z M396,98.1249326 L396,102.124933 C396,102.677217 396.447715,103.124933 397,103.124933 C397.552285,103.124933 398,102.677217 398,102.124933 L398,98.1249326 C398,97.5726479 397.552285,97.1249326 397,97.1249326 C396.447715,97.1249326 396,97.5726479 396,98.1249326 Z M396,106.124933 L396,110.124933 C396,110.677217 396.447715,111.124933 397,111.124933 C397.552285,111.124933 398,110.677217 398,110.124933 L398,106.124933 C398,105.572648 397.552285,105.124933 397,105.124933 C396.447715,105.124933 396,105.572648 396,106.124933 Z M396,114.124933 L396,118.124933 C396,118.677217 396.447715,119.124933 397,119.124933 C397.552285,119.124933 398,118.677217 398,118.124933 L398,114.124933 C398,113.572648 397.552285,113.124933 397,113.124933 C396.447715,113.124933 396,113.572648 396,114.124933 Z M396,122.124933 L396,126.124933 C396,126.677217 396.447715,127.124933 397,127.124933 C397.552285,127.124933 398,126.677217 398,126.124933 L398,122.124933 C398,121.572648 397.552285,121.124933 397,121.124933 C396.447715,121.124933 396,121.572648 396,122.124933 Z M394.934734,128 L390.934734,128 C390.382449,128 389.934734,128.447715 389.934734,129 C389.934734,129.552285 390.382449,130 390.934734,130 L394.934734,130 C395.487019,130 395.934734,129.552285 395.934734,129 C395.934734,128.447715 395.487019,128 394.934734,128 Z M386.934734,128 L382.934734,128 C382.382449,128 381.934734,128.447715 381.934734,129 C381.934734,129.552285 382.382449,130 382.934734,130 L386.934734,130 C387.487019,130 387.934734,129.552285 387.934734,129 C387.934734,128.447715 387.487019,128 386.934734,128 Z M378.934734,128 L374.934734,128 C374.382449,128 373.934734,128.447715 373.934734,129 C373.934734,129.552285 374.382449,130 374.934734,130 L378.934734,130 C379.487019,130 379.934734,129.552285 379.934734,129 C379.934734,128.447715 379.487019,128 378.934734,128 Z M370.934734,128 L366.934734,128 C366.382449,128 365.934734,128.447715 365.934734,129 C365.934734,129.552285 366.382449,130 366.934734,130 L370.934734,130 C371.487019,130 371.934734,129.552285 371.934734,129 C371.934734,128.447715 371.487019,128 370.934734,128 Z M362.934734,128 L358.934734,128 C358.382449,128 357.934734,128.447715 357.934734,129 C357.934734,129.552285 358.382449,130 358.934734,130 L362.934734,130 C363.487019,130 363.934734,129.552285 363.934734,129 C363.934734,128.447715 363.487019,128 362.934734,128 Z M354.934734,128 L350.934734,128 C350.382449,128 349.934734,128.447715 349.934734,129 C349.934734,129.552285 350.382449,130 350.934734,130 L354.934734,130 C355.487019,130 355.934734,129.552285 355.934734,129 C355.934734,128.447715 355.487019,128 354.934734,128 Z M346.934734,128 L342.934734,128 C342.382449,128 341.934734,128.447715 341.934734,129 C341.934734,129.552285 342.382449,130 342.934734,130 L346.934734,130 C347.487019,130 347.934734,129.552285 347.934734,129 C347.934734,128.447715 347.487019,128 346.934734,128 Z M338.934734,128 L334.934734,128 C334.382449,128 333.934734,128.447715 333.934734,129 C333.934734,129.552285 334.382449,130 334.934734,130 L338.934734,130 C339.487019,130 339.934734,129.552285 339.934734,129 C339.934734,128.447715 339.487019,128 338.934734,128 Z M330.934734,128 L326.934734,128 C326.382449,128 325.934734,128.447715 325.934734,129 C325.934734,129.552285 326.382449,130 326.934734,130 L330.934734,130 C331.487019,130 331.934734,129.552285 331.934734,129 C331.934734,128.447715 331.487019,128 330.934734,128 Z M322.934734,128 L318.934734,128 C318.382449,128 317.934734,128.447715 317.934734,129 C317.934734,129.552285 318.382449,130 318.934734,130 L322.934734,130 C323.487019,130 323.934734,129.552285 323.934734,129 C323.934734,128.447715 323.487019,128 322.934734,128 Z M314.934734,128 L310.934734,128 C310.382449,128 309.934734,128.447715 309.934734,129 C309.934734,129.552285 310.382449,130 310.934734,130 L314.934734,130 C315.487019,130 315.934734,129.552285 315.934734,129 C315.934734,128.447715 315.487019,128 314.934734,128 Z M306.934734,128 L302.934734,128 C302.382449,128 301.934734,128.447715 301.934734,129 C301.934734,129.552285 302.382449,130 302.934734,130 L306.934734,130 C307.487019,130 307.934734,129.552285 307.934734,129 C307.934734,128.447715 307.487019,128 306.934734,128 Z M298.934734,128 L294.934734,128 C294.382449,128 293.934734,128.447715 293.934734,129 C293.934734,129.552285 294.382449,130 294.934734,130 L298.934734,130 C299.487019,130 299.934734,129.552285 299.934734,129 C299.934734,128.447715 299.487019,128 298.934734,128 Z M290.934734,128 L286.934734,128 C286.382449,128 285.934734,128.447715 285.934734,129 C285.934734,129.552285 286.382449,130 286.934734,130 L290.934734,130 C291.487019,130 291.934734,129.552285 291.934734,129 C291.934734,128.447715 291.487019,128 290.934734,128 Z M282.934734,128 L278.934734,128 C278.382449,128 277.934734,128.447715 277.934734,129 C277.934734,129.552285 278.382449,130 278.934734,130 L282.934734,130 C283.487019,130 283.934734,129.552285 283.934734,129 C283.934734,128.447715 283.487019,128 282.934734,128 Z M274.934734,128 L270.934734,128 C270.382449,128 269.934734,128.447715 269.934734,129 C269.934734,129.552285 270.382449,130 270.934734,130 L274.934734,130 C275.487019,130 275.934734,129.552285 275.934734,129 C275.934734,128.447715 275.487019,128 274.934734,128 Z M266.934734,128 L262.934734,128 C262.382449,128 261.934734,128.447715 261.934734,129 C261.934734,129.552285 262.382449,130 262.934734,130 L266.934734,130 C267.487019,130 267.934734,129.552285 267.934734,129 C267.934734,128.447715 267.487019,128 266.934734,128 Z M258.934734,128 L254.934734,128 C254.382449,128 253.934734,128.447715 253.934734,129 C253.934734,129.552285 254.382449,130 254.934734,130 L258.934734,130 C259.487019,130 259.934734,129.552285 259.934734,129 C259.934734,128.447715 259.487019,128 258.934734,128 Z M250.934734,128 L246.934734,128 C246.382449,128 245.934734,128.447715 245.934734,129 C245.934734,129.552285 246.382449,130 246.934734,130 L250.934734,130 C251.487019,130 251.934734,129.552285 251.934734,129 C251.934734,128.447715 251.487019,128 250.934734,128 Z M242.934734,128 L238.934734,128 C238.382449,128 237.934734,128.447715 237.934734,129 C237.934734,129.552285 238.382449,130 238.934734,130 L242.934734,130 C243.487019,130 243.934734,129.552285 243.934734,129 C243.934734,128.447715 243.487019,128 242.934734,128 Z M234.934734,128 L230.934734,128 C230.382449,128 229.934734,128.447715 229.934734,129 C229.934734,129.552285 230.382449,130 230.934734,130 L234.934734,130 C235.487019,130 235.934734,129.552285 235.934734,129 C235.934734,128.447715 235.487019,128 234.934734,128 Z M226.934734,128 L222.934734,128 C222.382449,128 221.934734,128.447715 221.934734,129 C221.934734,129.552285 222.382449,130 222.934734,130 L226.934734,130 C227.487019,130 227.934734,129.552285 227.934734,129 C227.934734,128.447715 227.487019,128 226.934734,128 Z M218.934734,128 L214.934734,128 C214.382449,128 213.934734,128.447715 213.934734,129 C213.934734,129.552285 214.382449,130 214.934734,130 L218.934734,130 C219.487019,130 219.934734,129.552285 219.934734,129 C219.934734,128.447715 219.487019,128 218.934734,128 Z M210.934734,128 L206.934734,128 C206.382449,128 205.934734,128.447715 205.934734,129 C205.934734,129.552285 206.382449,130 206.934734,130 L210.934734,130 C211.487019,130 211.934734,129.552285 211.934734,129 C211.934734,128.447715 211.487019,128 210.934734,128 Z M202.934734,128 L198.934734,128 C198.382449,128 197.934734,128.447715 197.934734,129 C197.934734,129.552285 198.382449,130 198.934734,130 L202.934734,130 C203.487019,130 203.934734,129.552285 203.934734,129 C203.934734,128.447715 203.487019,128 202.934734,128 Z M194.934734,128 L190.934734,128 C190.382449,128 189.934734,128.447715 189.934734,129 C189.934734,129.552285 190.382449,130 190.934734,130 L194.934734,130 C195.487019,130 195.934734,129.552285 195.934734,129 C195.934734,128.447715 195.487019,128 194.934734,128 Z M186.934734,128 L182.934734,128 C182.382449,128 181.934734,128.447715 181.934734,129 C181.934734,129.552285 182.382449,130 182.934734,130 L186.934734,130 C187.487019,130 187.934734,129.552285 187.934734,129 C187.934734,128.447715 187.487019,128 186.934734,128 Z M178.934734,128 L174.934734,128 C174.382449,128 173.934734,128.447715 173.934734,129 C173.934734,129.552285 174.382449,130 174.934734,130 L178.934734,130 C179.487019,130 179.934734,129.552285 179.934734,129 C179.934734,128.447715 179.487019,128 178.934734,128 Z M170.934734,128 L166.934734,128 C166.382449,128 165.934734,128.447715 165.934734,129 C165.934734,129.552285 166.382449,130 166.934734,130 L170.934734,130 C171.487019,130 171.934734,129.552285 171.934734,129 C171.934734,128.447715 171.487019,128 170.934734,128 Z M162.934734,128 L158.934734,128 C158.382449,128 157.934734,128.447715 157.934734,129 C157.934734,129.552285 158.382449,130 158.934734,130 L162.934734,130 C163.487019,130 163.934734,129.552285 163.934734,129 C163.934734,128.447715 163.487019,128 162.934734,128 Z M154.934734,128 L150.934734,128 C150.382449,128 149.934734,128.447715 149.934734,129 C149.934734,129.552285 150.382449,130 150.934734,130 L154.934734,130 C155.487019,130 155.934734,129.552285 155.934734,129 C155.934734,128.447715 155.487019,128 154.934734,128 Z M146.934734,128 L142.934734,128 C142.382449,128 141.934734,128.447715 141.934734,129 C141.934734,129.552285 142.382449,130 142.934734,130 L146.934734,130 C147.487019,130 147.934734,129.552285 147.934734,129 C147.934734,128.447715 147.487019,128 146.934734,128 Z M138.934734,128 L134.934734,128 C134.382449,128 133.934734,128.447715 133.934734,129 C133.934734,129.552285 134.382449,130 134.934734,130 L138.934734,130 C139.487019,130 139.934734,129.552285 139.934734,129 C139.934734,128.447715 139.487019,128 138.934734,128 Z M130.934734,128 L126.934734,128 C126.382449,128 125.934734,128.447715 125.934734,129 C125.934734,129.552285 126.382449,130 126.934734,130 L130.934734,130 C131.487019,130 131.934734,129.552285 131.934734,129 C131.934734,128.447715 131.487019,128 130.934734,128 Z M122.934734,128 L118.934734,128 C118.382449,128 117.934734,128.447715 117.934734,129 C117.934734,129.552285 118.382449,130 118.934734,130 L122.934734,130 C123.487019,130 123.934734,129.552285 123.934734,129 C123.934734,128.447715 123.487019,128 122.934734,128 Z M114.934734,128 L110.934734,128 C110.382449,128 109.934734,128.447715 109.934734,129 C109.934734,129.552285 110.382449,130 110.934734,130 L114.934734,130 C115.487019,130 115.934734,129.552285 115.934734,129 C115.934734,128.447715 115.487019,128 114.934734,128 Z M106.934734,128 L102.934734,128 C102.382449,128 101.934734,128.447715 101.934734,129 C101.934734,129.552285 102.382449,130 102.934734,130 L106.934734,130 C107.487019,130 107.934734,129.552285 107.934734,129 C107.934734,128.447715 107.487019,128 106.934734,128 Z M98.9347338,128 L94.9347338,128 C94.3824491,128 93.9347338,128.447715 93.9347338,129 C93.9347338,129.552285 94.3824491,130 94.9347338,130 L98.9347338,130 C99.4870186,130 99.9347338,129.552285 99.9347338,129 C99.9347338,128.447715 99.4870186,128 98.9347338,128 Z M341,141.001743 C341,139.340174 342.337654,138 344.006309,138 L344.936225,138 C345.48851,138 345.936225,138.447715 345.936225,139 C345.936225,139.552285 345.48851,140 344.936225,140 L344.006309,140 C343.443067,140 343,140.443902 343,141.001743 L343,143.247791 C343,143.800076 342.552285,144.247791 342,144.247791 C341.447715,144.247791 341,143.800076 341,143.247791 L341,141.001743 Z M90.9347338,128 C91.4870186,128 91.9347338,128.447715 91.9347338,129 C91.9347338,129.552285 91.4870186,130 90.9347338,130 L90.6923077,130 C90.1400229,130 89.6923077,129.552285 89.6923077,129 C89.6923077,128.447715 90.1400229,128 90.6923077,128 L90.9347338,128 Z M331,90 C331,89.4477153 331.447715,89 332,89 C332.552285,89 333,89.4477153 333,90 L333,94 C333,94.5522847 332.552285,95 332,95 C331.447715,95 331,94.5522847 331,94 L331,90 Z M331,98 C331,97.4477153 331.447715,97 332,97 C332.552285,97 333,97.4477153 333,98 L333,102 C333,102.552285 332.552285,103 332,103 C331.447715,103 331,102.552285 331,102 L331,98 Z M331,106 C331,105.447715 331.447715,105 332,105 C332.552285,105 333,105.447715 333,106 L333,110 C333,110.552285 332.552285,111 332,111 C331.447715,111 331,110.552285 331,110 L331,106 Z M331,114 C331,113.447715 331.447715,113 332,113 C332.552285,113 333,113.447715 333,114 L333,118 C333,118.552285 332.552285,119 332,119 C331.447715,119 331,118.552285 331,118 L331,114 Z M331,122 C331,121.447715 331.447715,121 332,121 C332.552285,121 333,121.447715 333,122 L333,126 C333,126.552285 332.552285,127 332,127 C331.447715,127 331,126.552285 331,126 L331,122 Z M331,130 C331,129.447715 331.447715,129 332,129 C332.552285,129 333,129.447715 333,130 L333,134 C333,134.552285 332.552285,135 332,135 C331.447715,135 331,134.552285 331,134 L331,130 Z M331,138 C331,137.447715 331.447715,137 332,137 C332.552285,137 333,137.447715 333,138 L333,142 C333,142.552285 332.552285,143 332,143 C331.447715,143 331,142.552285 331,142 L331,138 Z M331,146 C331,145.447715 331.447715,145 332,145 C332.552285,145 333,145.447715 333,146 L333,150 C333,150.552285 332.552285,151 332,151 C331.447715,151 331,150.552285 331,150 L331,146 Z M331,154 C331,153.447715 331.447715,153 332,153 C332.552285,153 333,153.447715 333,154 L333,158 C333,158.552285 332.552285,159 332,159 C331.447715,159 331,158.552285 331,158 L331,154 Z M331,162 C331,161.447715 331.447715,161 332,161 C332.552285,161 333,161.447715 333,162 L333,166 C333,166.552285 332.552285,167 332,167 C331.447715,167 331,166.552285 331,166 L331,162 Z M330.875769,169.4861 C331.142354,169.002416 331.750568,168.826422 332.234252,169.093007 C332.717937,169.359592 332.893931,169.967806 332.627345,170.451491 C332.104641,171.399872 331.108746,172 330.002289,172 L328.063242,172 C327.510958,172 327.063242,171.552285 327.063242,171 C327.063242,170.447715 327.510958,170 328.063242,170 L330.002289,170 C330.373156,170 330.701623,169.802065 330.875769,169.4861 Z M324.063242,170 C324.615527,170 325.063242,170.447715 325.063242,171 C325.063242,171.552285 324.615527,172 324.063242,172 L320.063242,172 C319.510958,172 319.063242,171.552285 319.063242,171 C319.063242,170.447715 319.510958,170 320.063242,170 L324.063242,170 Z M316.063242,170 C316.615527,170 317.063242,170.447715 317.063242,171 C317.063242,171.552285 316.615527,172 316.063242,172 L312.063242,172 C311.510958,172 311.063242,171.552285 311.063242,171 C311.063242,170.447715 311.510958,170 312.063242,170 L316.063242,170 Z M308.063242,170 C308.615527,170 309.063242,170.447715 309.063242,171 C309.063242,171.552285 308.615527,172 308.063242,172 L304.063242,172 C303.510958,172 303.063242,171.552285 303.063242,171 C303.063242,170.447715 303.510958,170 304.063242,170 L308.063242,170 Z M300.063242,170 C300.615527,170 301.063242,170.447715 301.063242,171 C301.063242,171.552285 300.615527,172 300.063242,172 L296.063242,172 C295.510958,172 295.063242,171.552285 295.063242,171 C295.063242,170.447715 295.510958,170 296.063242,170 L300.063242,170 Z M292.063242,170 C292.615527,170 293.063242,170.447715 293.063242,171 C293.063242,171.552285 292.615527,172 292.063242,172 L288.063242,172 C287.510958,172 287.063242,171.552285 287.063242,171 C287.063242,170.447715 287.510958,170 288.063242,170 L292.063242,170 Z M284.063242,170 C284.615527,170 285.063242,170.447715 285.063242,171 C285.063242,171.552285 284.615527,172 284.063242,172 L280.063242,172 C279.510958,172 279.063242,171.552285 279.063242,171 C279.063242,170.447715 279.510958,170 280.063242,170 L284.063242,170 Z M276.063242,170 C276.615527,170 277.063242,170.447715 277.063242,171 C277.063242,171.552285 276.615527,172 276.063242,172 L272.063242,172 C271.510958,172 271.063242,171.552285 271.063242,171 C271.063242,170.447715 271.510958,170 272.063242,170 L276.063242,170 Z M268.063242,170 C268.615527,170 269.063242,170.447715 269.063242,171 C269.063242,171.552285 268.615527,172 268.063242,172 L264.063242,172 C263.510958,172 263.063242,171.552285 263.063242,171 C263.063242,170.447715 263.510958,170 264.063242,170 L268.063242,170 Z M260.063242,170 C260.615527,170 261.063242,170.447715 261.063242,171 C261.063242,171.552285 260.615527,172 260.063242,172 L256.063242,172 C255.510958,172 255.063242,171.552285 255.063242,171 C255.063242,170.447715 255.510958,170 256.063242,170 L260.063242,170 Z M252.063242,170 C252.615527,170 253.063242,170.447715 253.063242,171 C253.063242,171.552285 252.615527,172 252.063242,172 L248.063242,172 C247.510958,172 247.063242,171.552285 247.063242,171 C247.063242,170.447715 247.510958,170 248.063242,170 L252.063242,170 Z M244.063242,170 C244.615527,170 245.063242,170.447715 245.063242,171 C245.063242,171.552285 244.615527,172 244.063242,172 L240.063242,172 C239.510958,172 239.063242,171.552285 239.063242,171 C239.063242,170.447715 239.510958,170 240.063242,170 L244.063242,170 Z M236.063242,170 C236.615527,170 237.063242,170.447715 237.063242,171 C237.063242,171.552285 236.615527,172 236.063242,172 L232.063242,172 C231.510958,172 231.063242,171.552285 231.063242,171 C231.063242,170.447715 231.510958,170 232.063242,170 L236.063242,170 Z M228.063242,170 C228.615527,170 229.063242,170.447715 229.063242,171 C229.063242,171.552285 228.615527,172 228.063242,172 L224.063242,172 C223.510958,172 223.063242,171.552285 223.063242,171 C223.063242,170.447715 223.510958,170 224.063242,170 L228.063242,170 Z M220.063242,170 C220.615527,170 221.063242,170.447715 221.063242,171 C221.063242,171.552285 220.615527,172 220.063242,172 L216.063242,172 C215.510958,172 215.063242,171.552285 215.063242,171 C215.063242,170.447715 215.510958,170 216.063242,170 L220.063242,170 Z M212.063242,170 C212.615527,170 213.063242,170.447715 213.063242,171 C213.063242,171.552285 212.615527,172 212.063242,172 L208.063242,172 C207.510958,172 207.063242,171.552285 207.063242,171 C207.063242,170.447715 207.510958,170 208.063242,170 L212.063242,170 Z M204.063242,170 C204.615527,170 205.063242,170.447715 205.063242,171 C205.063242,171.552285 204.615527,172 204.063242,172 L204,172 C203.447715,172 203,171.552285 203,171 C203,170.447715 203.447715,170 204,170 L204.063242,170 Z M348.936225,140 C348.383941,140 347.936225,139.552285 347.936225,139 C347.936225,138.447715 348.383941,138 348.936225,138 L352.936225,138 C353.48851,138 353.936225,138.447715 353.936225,139 C353.936225,139.552285 353.48851,140 352.936225,140 L348.936225,140 Z M356.936225,140 C356.383941,140 355.936225,139.552285 355.936225,139 C355.936225,138.447715 356.383941,138 356.936225,138 L360.936225,138 C361.48851,138 361.936225,138.447715 361.936225,139 C361.936225,139.552285 361.48851,140 360.936225,140 L356.936225,140 Z M364.936225,140 C364.383941,140 363.936225,139.552285 363.936225,139 C363.936225,138.447715 364.383941,138 364.936225,138 L368.936225,138 C369.48851,138 369.936225,138.447715 369.936225,139 C369.936225,139.552285 369.48851,140 368.936225,140 L364.936225,140 Z M372.936225,140 C372.383941,140 371.936225,139.552285 371.936225,139 C371.936225,138.447715 372.383941,138 372.936225,138 L376.936225,138 C377.48851,138 377.936225,138.447715 377.936225,139 C377.936225,139.552285 377.48851,140 376.936225,140 L372.936225,140 Z M380.936225,140 C380.383941,140 379.936225,139.552285 379.936225,139 C379.936225,138.447715 380.383941,138 380.936225,138 L384.936225,138 C385.48851,138 385.936225,138.447715 385.936225,139 C385.936225,139.552285 385.48851,140 384.936225,140 L380.936225,140 Z M388.936225,140 C388.383941,140 387.936225,139.552285 387.936225,139 C387.936225,138.447715 388.383941,138 388.936225,138 L392.936225,138 C393.48851,138 393.936225,138.447715 393.936225,139 C393.936225,139.552285 393.48851,140 392.936225,140 L388.936225,140 Z M395.848303,140.469253 C395.554532,140.00158 395.695508,139.384309 396.16318,139.090539 C396.630853,138.796768 397.248124,138.937744 397.541894,139.405416 C397.839664,139.879456 398,140.429413 398,141.001743 L398,143.875233 C398,144.427517 397.552285,144.875233 397,144.875233 C396.447715,144.875233 396,144.427517 396,143.875233 L396,141.001743 C396,140.808069 395.947054,140.626461 395.848303,140.469253 Z M396,147.875233 C396,147.322948 396.447715,146.875233 397,146.875233 C397.552285,146.875233 398,147.322948 398,147.875233 L398,151.875233 C398,152.427517 397.552285,152.875233 397,152.875233 C396.447715,152.875233 396,152.427517 396,151.875233 L396,147.875233 Z M396,155.875233 C396,155.322948 396.447715,154.875233 397,154.875233 C397.552285,154.875233 398,155.322948 398,155.875233 L398,159.875233 C398,160.427517 397.552285,160.875233 397,160.875233 C396.447715,160.875233 396,160.427517 396,159.875233 L396,155.875233 Z M396,163.875233 C396,163.322948 396.447715,162.875233 397,162.875233 C397.552285,162.875233 398,163.322948 398,163.875233 L398,167.875233 C398,168.427517 397.552285,168.875233 397,168.875233 C396.447715,168.875233 396,168.427517 396,167.875233 L396,163.875233 Z M395.100999,169.994659 C395.650509,169.939369 396.140796,170.340013 396.196087,170.889523 C396.251377,171.439033 395.850733,171.929321 395.301222,171.984611 C395.20653,171.994139 395.111122,171.999258 395.008293,171.999949 L391.186812,172 C390.634527,172.000007 390.186806,171.552298 390.186799,171.000013 C390.186791,170.447729 390.634501,170.000007 391.186785,170 L395.001325,169.999973 C395.034995,169.999739 395.06823,169.997956 395.100999,169.994659 Z M387.186799,170 C387.739083,170 388.186799,170.447715 388.186799,171 C388.186799,171.552285 387.739083,172 387.186799,172 L383.186799,172 C382.634514,172 382.186799,171.552285 382.186799,171 C382.186799,170.447715 382.634514,170 383.186799,170 L387.186799,170 Z M379.186799,170 C379.739083,170 380.186799,170.447715 380.186799,171 C380.186799,171.552285 379.739083,172 379.186799,172 L375.186799,172 C374.634514,172 374.186799,171.552285 374.186799,171 C374.186799,170.447715 374.634514,170 375.186799,170 L379.186799,170 Z M371.186799,170 C371.739083,170 372.186799,170.447715 372.186799,171 C372.186799,171.552285 371.739083,172 371.186799,172 L367.186799,172 C366.634514,172 366.186799,171.552285 366.186799,171 C366.186799,170.447715 366.634514,170 367.186799,170 L371.186799,170 Z M363.186799,170 C363.739083,170 364.186799,170.447715 364.186799,171 C364.186799,171.552285 363.739083,172 363.186799,172 L359.186799,172 C358.634514,172 358.186799,171.552285 358.186799,171 C358.186799,170.447715 358.634514,170 359.186799,170 L363.186799,170 Z M355.186799,170 C355.739083,170 356.186799,170.447715 356.186799,171 C356.186799,171.552285 355.739083,172 355.186799,172 L351.186799,172 C350.634514,172 350.186799,171.552285 350.186799,171 C350.186799,170.447715 350.634514,170 351.186799,170 L355.186799,170 Z M347.186799,170 C347.739083,170 348.186799,170.447715 348.186799,171 C348.186799,171.552285 347.739083,172 347.186799,172 L344.006309,172 C343.588886,172 343.181699,171.914871 342.805851,171.751878 C342.299161,171.532143 342.066538,170.943259 342.286273,170.436569 C342.506008,169.929879 343.094892,169.697255 343.601582,169.91699 C343.727213,169.971472 343.863665,170 344.006309,170 L347.186799,170 Z M343,167.247791 C343,167.800076 342.552285,168.247791 342,168.247791 C341.447715,168.247791 341,167.800076 341,167.247791 L341,163.247791 C341,162.695507 341.447715,162.247791 342,162.247791 C342.552285,162.247791 343,162.695507 343,163.247791 L343,167.247791 Z M343,159.247791 C343,159.800076 342.552285,160.247791 342,160.247791 C341.447715,160.247791 341,159.800076 341,159.247791 L341,155.247791 C341,154.695507 341.447715,154.247791 342,154.247791 C342.552285,154.247791 343,154.695507 343,155.247791 L343,159.247791 Z M343,151.247791 C343,151.800076 342.552285,152.247791 342,152.247791 C341.447715,152.247791 341,151.800076 341,151.247791 L341,147.247791 C341,146.695507 341.447715,146.247791 342,146.247791 C342.552285,146.247791 343,146.695507 343,147.247791 L343,151.247791 Z M51.8113932,100 L47.8113932,100 C47.2591085,100 46.8113932,100.447715 46.8113932,101 C46.8113932,101.552285 47.2591085,102 47.8113932,102 L51.8113932,102 C52.363678,102 52.8113932,101.552285 52.8113932,101 C52.8113932,100.447715 52.363678,100 51.8113932,100 Z M43.8113932,100 L39.8113932,100 C39.2591085,100 38.8113932,100.447715 38.8113932,101 C38.8113932,101.552285 39.2591085,102 39.8113932,102 L43.8113932,102 C44.363678,102 44.8113932,101.552285 44.8113932,101 C44.8113932,100.447715 44.363678,100 43.8113932,100 Z M35.8113932,100 L31.8113932,100 C31.2591085,100 30.8113932,100.447715 30.8113932,101 C30.8113932,101.552285 31.2591085,102 31.8113932,102 L35.8113932,102 C36.363678,102 36.8113932,101.552285 36.8113932,101 C36.8113932,100.447715 36.363678,100 35.8113932,100 Z M27.8113932,100 L23.8113932,100 C23.2591085,100 22.8113932,100.447715 22.8113932,101 C22.8113932,101.552285 23.2591085,102 23.8113932,102 L27.8113932,102 C28.363678,102 28.8113932,101.552285 28.8113932,101 C28.8113932,100.447715 28.363678,100 27.8113932,100 Z M19.8113932,100 L15.8113932,100 C15.2591085,100 14.8113932,100.447715 14.8113932,101 C14.8113932,101.552285 15.2591085,102 15.8113932,102 L19.8113932,102 C20.363678,102 20.8113932,101.552285 20.8113932,101 C20.8113932,100.447715 20.363678,100 19.8113932,100 Z M12,103.128897 L12,107.128897 C12,107.681182 12.4477153,108.128897 13,108.128897 C13.5522847,108.128897 14,107.681182 14,107.128897 L14,103.128897 C14,102.576612 13.5522847,102.128897 13,102.128897 C12.4477153,102.128897 12,102.576612 12,103.128897 Z M12,111.128897 L12,115.128897 C12,115.681182 12.4477153,116.128897 13,116.128897 C13.5522847,116.128897 14,115.681182 14,115.128897 L14,111.128897 C14,110.576612 13.5522847,110.128897 13,110.128897 C12.4477153,110.128897 12,110.576612 12,111.128897 Z M12,119.128897 L12,123.128897 C12,123.681182 12.4477153,124.128897 13,124.128897 C13.5522847,124.128897 14,123.681182 14,123.128897 L14,119.128897 C14,118.576612 13.5522847,118.128897 13,118.128897 C12.4477153,118.128897 12,118.576612 12,119.128897 Z M12,127.128897 L12,131.128897 C12,131.681182 12.4477153,132.128897 13,132.128897 C13.5522847,132.128897 14,131.681182 14,131.128897 L14,127.128897 C14,126.576612 13.5522847,126.128897 13,126.128897 C12.4477153,126.128897 12,126.576612 12,127.128897 Z M12,135.128897 L12,139.128897 C12,139.681182 12.4477153,140.128897 13,140.128897 C13.5522847,140.128897 14,139.681182 14,139.128897 L14,135.128897 C14,134.576612 13.5522847,134.128897 13,134.128897 C12.4477153,134.128897 12,134.576612 12,135.128897 Z M12,143.128897 L12,147.128897 C12,147.681182 12.4477153,148.128897 13,148.128897 C13.5522847,148.128897 14,147.681182 14,147.128897 L14,143.128897 C14,142.576612 13.5522847,142.128897 13,142.128897 C12.4477153,142.128897 12,142.576612 12,143.128897 Z M12,151.128897 L12,155.128897 C12,155.681182 12.4477153,156.128897 13,156.128897 C13.5522847,156.128897 14,155.681182 14,155.128897 L14,151.128897 C14,150.576612 13.5522847,150.128897 13,150.128897 C12.4477153,150.128897 12,150.576612 12,151.128897 Z M12,159.128897 L12,163.128897 C12,163.681182 12.4477153,164.128897 13,164.128897 C13.5522847,164.128897 14,163.681182 14,163.128897 L14,159.128897 C14,158.576612 13.5522847,158.128897 13,158.128897 C12.4477153,158.128897 12,158.576612 12,159.128897 Z M12,167.128897 L12,168.999201 C12,170.163722 12.6679257,171.208457 13.6968572,171.704448 C14.194357,171.944266 14.7920707,171.735373 15.031888,171.237873 C15.2717054,170.740373 15.0628125,170.142659 14.5653127,169.902842 C14.2226324,169.737655 14,169.389424 14,168.999201 L14,167.128897 C14,166.576612 13.5522847,166.128897 13,166.128897 C12.4477153,166.128897 12,166.576612 12,167.128897 Z M18.0660205,172 L22.0660205,172 C22.6183052,172 23.0660205,171.552285 23.0660205,171 C23.0660205,170.447715 22.6183052,170 22.0660205,170 L18.0660205,170 C17.5137357,170 17.0660205,170.447715 17.0660205,171 C17.0660205,171.552285 17.5137357,172 18.0660205,172 Z M26.0660205,172 L30.0660205,172 C30.6183052,172 31.0660205,171.552285 31.0660205,171 C31.0660205,170.447715 30.6183052,170 30.0660205,170 L26.0660205,170 C25.5137357,170 25.0660205,170.447715 25.0660205,171 C25.0660205,171.552285 25.5137357,172 26.0660205,172 Z M34.0660205,172 L38.0660205,172 C38.6183052,172 39.0660205,171.552285 39.0660205,171 C39.0660205,170.447715 38.6183052,170 38.0660205,170 L34.0660205,170 C33.5137357,170 33.0660205,170.447715 33.0660205,171 C33.0660205,171.552285 33.5137357,172 34.0660205,172 Z M42.0660205,172 L46.0660205,172 C46.6183052,172 47.0660205,171.552285 47.0660205,171 C47.0660205,170.447715 46.6183052,170 46.0660205,170 L42.0660205,170 C41.5137357,170 41.0660205,170.447715 41.0660205,171 C41.0660205,171.552285 41.5137357,172 42.0660205,172 Z M50.0660205,172 L54.0660205,172 C54.6183052,172 55.0660205,171.552285 55.0660205,171 C55.0660205,170.447715 54.6183052,170 54.0660205,170 L50.0660205,170 C49.5137357,170 49.0660205,170.447715 49.0660205,171 C49.0660205,171.552285 49.5137357,172 50.0660205,172 Z M58.0660205,172 L62.0660205,172 C62.6183052,172 63.0660205,171.552285 63.0660205,171 C63.0660205,170.447715 62.6183052,170 62.0660205,170 L58.0660205,170 C57.5137357,170 57.0660205,170.447715 57.0660205,171 C57.0660205,171.552285 57.5137357,172 58.0660205,172 Z M66.0660205,172 L70.0660205,172 C70.6183052,172 71.0660205,171.552285 71.0660205,171 C71.0660205,170.447715 70.6183052,170 70.0660205,170 L66.0660205,170 C65.5137357,170 65.0660205,170.447715 65.0660205,171 C65.0660205,171.552285 65.5137357,172 66.0660205,172 Z M74.0660205,172 L78.0660205,172 C78.6183052,172 79.0660205,171.552285 79.0660205,171 C79.0660205,170.447715 78.6183052,170 78.0660205,170 L74.0660205,170 C73.5137357,170 73.0660205,170.447715 73.0660205,171 C73.0660205,171.552285 73.5137357,172 74.0660205,172 Z M82.0660205,172 L86.0660205,172 C86.6183052,172 87.0660205,171.552285 87.0660205,171 C87.0660205,170.447715 86.6183052,170 86.0660205,170 L82.0660205,170 C81.5137357,170 81.0660205,170.447715 81.0660205,171 C81.0660205,171.552285 81.5137357,172 82.0660205,172 Z M90.0660205,172 L94.0660205,172 C94.6183052,172 95.0660205,171.552285 95.0660205,171 C95.0660205,170.447715 94.6183052,170 94.0660205,170 L90.0660205,170 C89.5137357,170 89.0660205,170.447715 89.0660205,171 C89.0660205,171.552285 89.5137357,172 90.0660205,172 Z M98.0660205,172 L102.06602,172 C102.618305,172 103.06602,171.552285 103.06602,171 C103.06602,170.447715 102.618305,170 102.06602,170 L98.0660205,170 C97.5137357,170 97.0660205,170.447715 97.0660205,171 C97.0660205,171.552285 97.5137357,172 98.0660205,172 Z M106.06602,172 L110.06602,172 C110.618305,172 111.06602,171.552285 111.06602,171 C111.06602,170.447715 110.618305,170 110.06602,170 L106.06602,170 C105.513736,170 105.06602,170.447715 105.06602,171 C105.06602,171.552285 105.513736,172 106.06602,172 Z M114.06602,172 L118.06602,172 C118.618305,172 119.06602,171.552285 119.06602,171 C119.06602,170.447715 118.618305,170 118.06602,170 L114.06602,170 C113.513736,170 113.06602,170.447715 113.06602,171 C113.06602,171.552285 113.513736,172 114.06602,172 Z M122.06602,172 L126.06602,172 C126.618305,172 127.06602,171.552285 127.06602,171 C127.06602,170.447715 126.618305,170 126.06602,170 L122.06602,170 C121.513736,170 121.06602,170.447715 121.06602,171 C121.06602,171.552285 121.513736,172 122.06602,172 Z M130.06602,172 L134.06602,172 C134.618305,172 135.06602,171.552285 135.06602,171 C135.06602,170.447715 134.618305,170 134.06602,170 L130.06602,170 C129.513736,170 129.06602,170.447715 129.06602,171 C129.06602,171.552285 129.513736,172 130.06602,172 Z M138.06602,172 L142.06602,172 C142.618305,172 143.06602,171.552285 143.06602,171 C143.06602,170.447715 142.618305,170 142.06602,170 L138.06602,170 C137.513736,170 137.06602,170.447715 137.06602,171 C137.06602,171.552285 137.513736,172 138.06602,172 Z M146.06602,172 L150.06602,172 C150.618305,172 151.06602,171.552285 151.06602,171 C151.06602,170.447715 150.618305,170 150.06602,170 L146.06602,170 C145.513736,170 145.06602,170.447715 145.06602,171 C145.06602,171.552285 145.513736,172 146.06602,172 Z M154.06602,172 L158.06602,172 C158.618305,172 159.06602,171.552285 159.06602,171 C159.06602,170.447715 158.618305,170 158.06602,170 L154.06602,170 C153.513736,170 153.06602,170.447715 153.06602,171 C153.06602,171.552285 153.513736,172 154.06602,172 Z M162.06602,172 L166.06602,172 C166.618305,172 167.06602,171.552285 167.06602,171 C167.06602,170.447715 166.618305,170 166.06602,170 L162.06602,170 C161.513736,170 161.06602,170.447715 161.06602,171 C161.06602,171.552285 161.513736,172 162.06602,172 Z M170.06602,172 L174.06602,172 C174.618305,172 175.06602,171.552285 175.06602,171 C175.06602,170.447715 174.618305,170 174.06602,170 L170.06602,170 C169.513736,170 169.06602,170.447715 169.06602,171 C169.06602,171.552285 169.513736,172 170.06602,172 Z M178.06602,172 L182.06602,172 C182.618305,172 183.06602,171.552285 183.06602,171 C183.06602,170.447715 182.618305,170 182.06602,170 L178.06602,170 C177.513736,170 177.06602,170.447715 177.06602,171 C177.06602,171.552285 177.513736,172 178.06602,172 Z M186.06602,172 L190.06602,172 C190.618305,172 191.06602,171.552285 191.06602,171 C191.06602,170.447715 190.618305,170 190.06602,170 L186.06602,170 C185.513736,170 185.06602,170.447715 185.06602,171 C185.06602,171.552285 185.513736,172 186.06602,172 Z M194.06602,172 L197.005871,172 C197.5531,172 198.081058,171.851794 198.541697,171.575809 C199.015457,171.291961 199.169413,170.677799 198.885565,170.204038 C198.601718,169.730278 197.987555,169.576323 197.513795,169.86017 C197.361525,169.9514 197.188396,170 197.005871,170 L194.06602,170 C193.513736,170 193.06602,170.447715 193.06602,171 C193.06602,171.552285 193.513736,172 194.06602,172 Z M200,166.997359 L200,162.997359 C200,162.445075 199.552285,161.997359 199,161.997359 C198.447715,161.997359 198,162.445075 198,162.997359 L198,166.997359 C198,167.549644 198.447715,167.997359 199,167.997359 C199.552285,167.997359 200,167.549644 200,166.997359 Z M200,158.997359 L200,158.826087 C200,158.273802 199.552285,157.826087 199,157.826087 C198.447715,157.826087 198,158.273802 198,158.826087 L198,158.997359 C198,159.549644 198.447715,159.997359 199,159.997359 C199.552285,159.997359 200,159.549644 200,158.997359 Z M76,57.6666667 L76,53.6666667 C76,53.1143819 75.5522847,52.6666667 75,52.6666667 C74.4477153,52.6666667 74,53.1143819 74,53.6666667 L74,57.6666667 C74,58.2189514 74.4477153,58.6666667 75,58.6666667 C75.5522847,58.6666667 76,58.2189514 76,57.6666667 Z M76,49.6666667 L76,45.6666667 C76,45.1143819 75.5522847,44.6666667 75,44.6666667 C74.4477153,44.6666667 74,45.1143819 74,45.6666667 L74,49.6666667 C74,50.2189514 74.4477153,50.6666667 75,50.6666667 C75.5522847,50.6666667 76,50.2189514 76,49.6666667 Z M76,41.6666667 L76,37.6666667 C76,37.1143819 75.5522847,36.6666667 75,36.6666667 C74.4477153,36.6666667 74,37.1143819 74,37.6666667 L74,41.6666667 C74,42.2189514 74.4477153,42.6666667 75,42.6666667 C75.5522847,42.6666667 76,42.2189514 76,41.6666667 Z M76,33.6666667 L76,29.6666667 C76,29.1143819 75.5522847,28.6666667 75,28.6666667 C74.4477153,28.6666667 74,29.1143819 74,29.6666667 L74,33.6666667 C74,34.2189514 74.4477153,34.6666667 75,34.6666667 C75.5522847,34.6666667 76,34.2189514 76,33.6666667 Z M76,25.6666667 L76,21.6666667 C76,21.1143819 75.5522847,20.6666667 75,20.6666667 C74.4477153,20.6666667 74,21.1143819 74,21.6666667 L74,25.6666667 C74,26.2189514 74.4477153,26.6666667 75,26.6666667 C75.5522847,26.6666667 76,26.2189514 76,25.6666667 Z M76,17.6666667 L76,13.6666667 C76,13.1143819 75.5522847,12.6666667 75,12.6666667 C74.4477153,12.6666667 74,13.1143819 74,13.6666667 L74,17.6666667 C74,18.2189514 74.4477153,18.6666667 75,18.6666667 C75.5522847,18.6666667 76,18.2189514 76,17.6666667 Z M76,9.66666667 L76,5.66666667 C76,5.11438192 75.5522847,4.66666667 75,4.66666667 C74.4477153,4.66666667 74,5.11438192 74,5.66666667 L74,9.66666667 C74,10.2189514 74.4477153,10.6666667 75,10.6666667 C75.5522847,10.6666667 76,10.2189514 76,9.66666667 Z M76.6625311,2.58717694 C77.0547998,2.21170586 77.5717018,2 78.127203,2 L79.8038882,2 C80.3561729,2 80.8038882,1.55228475 80.8038882,1 C80.8038882,0.44771525 80.3561729,0 79.8038882,0 L78.127203,0 C77.0513377,0 76.0405651,0.413978767 75.2795905,1.14236713 C74.8806173,1.52425562 74.8667674,2.1572691 75.2486559,2.55624232 C75.6305444,2.95521553 76.2635579,2.96906544 76.6625311,2.58717694 Z M83.8038882,2 L87.8038882,2 C88.3561729,2 88.8038882,1.55228475 88.8038882,1 C88.8038882,0.44771525 88.3561729,0 87.8038882,0 L83.8038882,0 C83.2516034,0 82.8038882,0.44771525 82.8038882,1 C82.8038882,1.55228475 83.2516034,2 83.8038882,2 Z M91.8038882,2 L95.8038882,2 C96.3561729,2 96.8038882,1.55228475 96.8038882,1 C96.8038882,0.44771525 96.3561729,0 95.8038882,0 L91.8038882,0 C91.2516034,0 90.8038882,0.44771525 90.8038882,1 C90.8038882,1.55228475 91.2516034,2 91.8038882,2 Z M99.8038882,2 L103.803888,2 C104.356173,2 104.803888,1.55228475 104.803888,1 C104.803888,0.44771525 104.356173,0 103.803888,0 L99.8038882,0 C99.2516034,0 98.8038882,0.44771525 98.8038882,1 C98.8038882,1.55228475 99.2516034,2 99.8038882,2 Z M107.803888,2 L111.803888,2 C112.356173,2 112.803888,1.55228475 112.803888,1 C112.803888,0.44771525 112.356173,0 111.803888,0 L107.803888,0 C107.251603,0 106.803888,0.44771525 106.803888,1 C106.803888,1.55228475 107.251603,2 107.803888,2 Z M115.803888,2 L119.803888,2 C120.356173,2 120.803888,1.55228475 120.803888,1 C120.803888,0.44771525 120.356173,0 119.803888,0 L115.803888,0 C115.251603,0 114.803888,0.44771525 114.803888,1 C114.803888,1.55228475 115.251603,2 115.803888,2 Z M123.803888,2 L127.803888,2 C128.356173,2 128.803888,1.55228475 128.803888,1 C128.803888,0.44771525 128.356173,0 127.803888,0 L123.803888,0 C123.251603,0 122.803888,0.44771525 122.803888,1 C122.803888,1.55228475 123.251603,2 123.803888,2 Z M131.803888,2 L135.803888,2 C136.356173,2 136.803888,1.55228475 136.803888,1 C136.803888,0.44771525 136.356173,0 135.803888,0 L131.803888,0 C131.251603,0 130.803888,0.44771525 130.803888,1 C130.803888,1.55228475 131.251603,2 131.803888,2 Z M139.803888,2 L143.803888,2 C144.356173,2 144.803888,1.55228475 144.803888,1 C144.803888,0.44771525 144.356173,0 143.803888,0 L139.803888,0 C139.251603,0 138.803888,0.44771525 138.803888,1 C138.803888,1.55228475 139.251603,2 139.803888,2 Z M147.803888,2 L151.803888,2 C152.356173,2 152.803888,1.55228475 152.803888,1 C152.803888,0.44771525 152.356173,0 151.803888,0 L147.803888,0 C147.251603,0 146.803888,0.44771525 146.803888,1 C146.803888,1.55228475 147.251603,2 147.803888,2 Z M155.803888,2 L159.803888,2 C160.356173,2 160.803888,1.55228475 160.803888,1 C160.803888,0.44771525 160.356173,0 159.803888,0 L155.803888,0 C155.251603,0 154.803888,0.44771525 154.803888,1 C154.803888,1.55228475 155.251603,2 155.803888,2 Z M163.803888,2 L167.803888,2 C168.356173,2 168.803888,1.55228475 168.803888,1 C168.803888,0.44771525 168.356173,0 167.803888,0 L163.803888,0 C163.251603,0 162.803888,0.44771525 162.803888,1 C162.803888,1.55228475 163.251603,2 163.803888,2 Z M171.803888,2 L175.803888,2 C176.356173,2 176.803888,1.55228475 176.803888,1 C176.803888,0.44771525 176.356173,0 175.803888,0 L171.803888,0 C171.251603,0 170.803888,0.44771525 170.803888,1 C170.803888,1.55228475 171.251603,2 171.803888,2 Z M179.803888,2 L183.803888,2 C184.356173,2 184.803888,1.55228475 184.803888,1 C184.803888,0.44771525 184.356173,0 183.803888,0 L179.803888,0 C179.251603,0 178.803888,0.44771525 178.803888,1 C178.803888,1.55228475 179.251603,2 179.803888,2 Z M187.803888,2 L191.803888,2 C192.356173,2 192.803888,1.55228475 192.803888,1 C192.803888,0.44771525 192.356173,0 191.803888,0 L187.803888,0 C187.251603,0 186.803888,0.44771525 186.803888,1 C186.803888,1.55228475 187.251603,2 187.803888,2 Z M195.803888,2 L195.872797,2 C196.815001,2 197.637691,2.62285306 197.908088,3.51899856 C198.067626,4.04773855 198.625586,4.34703567 199.154326,4.18749738 C199.683066,4.02795909 199.982363,3.4699993 199.822825,2.94125931 C199.299753,1.20770087 197.704571,0 195.872797,0 L195.803888,0 C195.251603,0 194.803888,0.44771525 194.803888,1 C194.803888,1.55228475 195.251603,2 195.803888,2 Z M198,7.27556697 L198,11.275567 C198,11.8278517 198.447715,12.275567 199,12.275567 C199.552285,12.275567 200,11.8278517 200,11.275567 L200,7.27556697 C200,6.72328222 199.552285,6.27556697 199,6.27556697 C198.447715,6.27556697 198,6.72328222 198,7.27556697 Z M198,15.275567 L198,19.275567 C198,19.8278517 198.447715,20.275567 199,20.275567 C199.552285,20.275567 200,19.8278517 200,19.275567 L200,15.275567 C200,14.7232822 199.552285,14.275567 199,14.275567 C198.447715,14.275567 198,14.7232822 198,15.275567 Z M198,23.275567 L198,27.275567 C198,27.8278517 198.447715,28.275567 199,28.275567 C199.552285,28.275567 200,27.8278517 200,27.275567 L200,23.275567 C200,22.7232822 199.552285,22.275567 199,22.275567 C198.447715,22.275567 198,22.7232822 198,23.275567 Z M198,31.275567 L198,35.275567 C198,35.8278517 198.447715,36.275567 199,36.275567 C199.552285,36.275567 200,35.8278517 200,35.275567 L200,31.275567 C200,30.7232822 199.552285,30.275567 199,30.275567 C198.447715,30.275567 198,30.7232822 198,31.275567 Z M198,39.275567 L198,43.275567 C198,43.8278517 198.447715,44.275567 199,44.275567 C199.552285,44.275567 200,43.8278517 200,43.275567 L200,39.275567 C200,38.7232822 199.552285,38.275567 199,38.275567 C198.447715,38.275567 198,38.7232822 198,39.275567 Z M198,47.275567 L198,51.275567 C198,51.8278517 198.447715,52.275567 199,52.275567 C199.552285,52.275567 200,51.8278517 200,51.275567 L200,47.275567 C200,46.7232822 199.552285,46.275567 199,46.275567 C198.447715,46.275567 198,46.7232822 198,47.275567 Z M198,55.275567 L198,59.275567 C198,59.8278517 198.447715,60.275567 199,60.275567 C199.552285,60.275567 200,59.8278517 200,59.275567 L200,55.275567 C200,54.7232822 199.552285,54.275567 199,54.275567 C198.447715,54.275567 198,54.7232822 198,55.275567 Z M198,63.275567 L198,67.275567 C198,67.8278517 198.447715,68.275567 199,68.275567 C199.552285,68.275567 200,67.8278517 200,67.275567 L200,63.275567 C200,62.7232822 199.552285,62.275567 199,62.275567 C198.447715,62.275567 198,62.7232822 198,63.275567 Z M198,71.275567 L198,75.275567 C198,75.8278517 198.447715,76.275567 199,76.275567 C199.552285,76.275567 200,75.8278517 200,75.275567 L200,71.275567 C200,70.7232822 199.552285,70.275567 199,70.275567 C198.447715,70.275567 198,70.7232822 198,71.275567 Z M198,79.275567 L198,83.275567 C198,83.8278517 198.447715,84.275567 199,84.275567 C199.552285,84.275567 200,83.8278517 200,83.275567 L200,79.275567 C200,78.7232822 199.552285,78.275567 199,78.275567 C198.447715,78.275567 198,78.7232822 198,79.275567 Z M198,87.275567 L198,91.275567 C198,91.8278517 198.447715,92.275567 199,92.275567 C199.552285,92.275567 200,91.8278517 200,91.275567 L200,87.275567 C200,86.7232822 199.552285,86.275567 199,86.275567 C198.447715,86.275567 198,86.7232822 198,87.275567 Z M198,95.275567 L198,99.275567 C198,99.8278517 198.447715,100.275567 199,100.275567 C199.552285,100.275567 200,99.8278517 200,99.275567 L200,95.275567 C200,94.7232822 199.552285,94.275567 199,94.275567 C198.447715,94.275567 198,94.7232822 198,95.275567 Z" id="Combined-Shape" fill-rule="nonzero"></path>
                                </g>
                                <g id="clouds" transform="translate(32.000000, 48.000000)">
                                    <g id="cloud" transform="translate(0.000000, 22.000000)">
                                        <path d="M16,47 C7.71572875,47 1,40.2842712 1,32 C1,23.7157288 7.71572875,17 16,17 C18.2020839,17 20.2933383,17.4745175 22.1770895,18.3268788 C23.4836257,8.54505552 31.8606918,1 42,1 C51.0922671,1 58.7674576,7.06722577 61.1977999,15.3739056 C63.4272281,13.8747948 66.1114544,13 69,13 C76.7319865,13 83,19.2680135 83,27 C88.5228475,27 93,31.4771525 93,37 C93,42.5228475 88.5228475,47 83,47 L16,47 L16,47 Z" id="Combined-Shape" fill="#FFFFFF"></path>
                                        <path d="M83,46 C87.9705627,46 92,41.9705627 92,37 C92,32.0294373 87.9705627,28 83,28 L82,28 L82,27 C82,19.8202983 76.1797017,14 69,14 C66.3815541,14 63.8811318,14.7746321 61.7558007,16.203746 L60.6217725,16.9662886 L60.2380351,15.6547106 C57.8884953,7.62420621 50.4946169,2 42,2 C32.4522095,2 24.4205477,9.08379895 23.1682869,18.4592708 L22.9902223,19.7924118 L21.7648461,19.2379526 C19.9697076,18.4256868 18.0158206,18 16,18 C8.2680135,18 2,24.2680135 2,32 C2,39.7319865 8.2680135,46 16,46 L83,46 Z M94,37 C94,43.0751322 89.0751322,48 83,48 L16,48 C7.163444,48 0,40.836556 0,32 C0,23.163444 7.163444,16 16,16 C17.8618986,16 19.6801026,16.3186332 21.3936705,16.9321451 C23.3013986,7.19972714 31.879609,0 42,0 C50.9485427,0 58.7911849,5.64637144 61.7558515,13.8621545 C63.9498849,12.6496648 66.4274653,12 69,12 C76.9625292,12 83.4759871,18.2042115 83.9699122,26.0421731 C89.5907733,26.5332237 94,31.2516968 94,37 Z" id="Combined-Shape" fill="#CBECF9" fill-rule="nonzero"></path>
                                    </g>
                                    <g id="cloud" transform="translate(256.000000, 0.000000)">
                                        <path d="M41.7472764,25.3695896 L6.43297018,25.3695896 C3.4324236,25.3695896 1,22.9450036 1,19.9541252 C1,16.9632469 3.4324236,14.5386609 6.43297018,14.5386609 C6.52797845,14.5386609 6.62241713,14.5410917 6.71622703,14.5458945 C6.53172442,13.8981838 6.43297018,13.2145183 6.43297018,12.5078618 C6.43297018,8.39540399 9.77755264,5.06159827 13.9033042,5.06159827 C16.1414138,5.06159827 18.1496431,6.04266114 19.5187755,7.59688863 C21.1726217,3.71916989 25.029283,1 29.5230934,1 C34.6468169,1 38.9422493,4.53490874 40.0887287,9.29154183 C40.6242376,9.18118219 41.1789635,9.12319653 41.7472764,9.12319653 C46.2480962,9.12319653 49.8967316,12.7600755 49.8967316,17.2463931 C49.8967316,21.7327106 46.2480962,25.3695896 41.7472764,25.3695896 L41.7472764,25.3695896 Z" id="Combined-Shape" fill="#E6F5FB"></path>
                                        <path d="M48.8967316,17.2463931 C48.8967316,13.313084 45.6965326,10.1231965 41.7472764,10.1231965 C41.2530203,10.1231965 40.765828,10.1730172 40.2905707,10.2709599 L39.3432152,10.4661944 L39.1165685,9.52585917 C38.0604782,5.14424193 34.1094372,2 29.5230934,2 C25.5276468,2 21.9744704,4.38811406 20.438609,7.98919746 L19.8165406,9.44774082 L18.7684002,8.25790066 C17.5466072,6.87093154 15.7919158,6.06159827 13.9033042,6.06159827 C10.3291162,6.06159827 7.43297018,8.94841249 7.43297018,12.5078618 C7.43297018,13.1116711 7.51602844,13.7034328 7.67796937,14.2719388 L8.06084224,15.6160435 L6.66509765,15.5445865 C6.58803421,15.5406411 6.51064401,15.5386609 6.43297018,15.5386609 C3.98398718,15.5386609 2,17.5162554 2,19.9541252 C2,22.3919951 3.98398718,24.3695896 6.43297018,24.3695896 L41.7472764,24.3695896 C45.6965326,24.3695896 48.8967316,21.1797021 48.8967316,17.2463931 Z M41.7472764,8.12319653 C46.7996598,8.12319653 50.8967316,12.207067 50.8967316,17.2463931 C50.8967316,22.2857191 46.7996598,26.3695896 41.7472764,26.3695896 L6.43297018,26.3695896 C2.88086003,26.3695896 0,23.4980121 0,19.9541252 C0,16.7250103 2.3918253,14.0540783 5.50389825,13.6050831 C5.45679344,13.2434019 5.43297018,12.8771013 5.43297018,12.5078618 C5.43297018,7.84239548 9.22598906,4.06159827 13.9033042,4.06159827 C15.8780915,4.06159827 17.7443865,4.7401373 19.229955,5.93996901 C21.3139275,2.32206705 25.2043195,0 29.5230934,0 C34.7235281,0 39.2454048,3.36275471 40.8101864,8.17053754 C41.1200761,8.13906097 41.4327274,8.12319653 41.7472764,8.12319653 Z" id="Combined-Shape" fill="#CBECF9" fill-rule="nonzero"></path>
                                    </g>
                                    <g id="cloud" transform="translate(275.000000, 14.000000)">
                                        <path d="M44.4637614,26.3571154 C48.9645813,26.3571154 52.6132167,22.7202365 52.6132167,18.2339189 C52.6132167,13.7476014 48.9645813,10.1107224 44.4637614,10.1107224 C42.8647997,10.1107224 41.3733919,10.569732 40.1149234,11.3627699 C39.0655999,8.56969035 36.3631079,6.58142213 33.1947297,6.58142213 C31.6293224,6.58142213 30.1776413,7.06677286 28.9828804,7.89474161 C28.1823584,3.96096222 24.6934592,1 20.5107547,1 C15.7363556,1 11.8659404,4.85794416 11.8659404,9.61695946 C11.8659404,9.94678586 11.884531,10.2722842 11.9207248,10.5924701 C11.0556309,10.2806924 10.1224566,10.1107224 9.14945527,10.1107224 C4.64863541,10.1107224 1,13.7476014 1,18.2339189 C1,22.7202365 4.64863541,26.3571154 9.14945527,26.3571154 L44.4637614,26.3571154 L44.4637614,26.3571154 Z" id="Combined-Shape" fill="#FFFFFF"></path>
                                        <path d="M44.4637614,9.11072238 C49.5161449,9.11072238 53.6132167,13.1945928 53.6132167,18.2339189 C53.6132167,23.273245 49.5161449,27.3571154 44.4637614,27.3571154 L9.14945527,27.3571154 C4.09707183,27.3571154 0,23.273245 0,18.2339189 C0,13.1945928 4.09707183,9.11072238 9.14945527,9.11072238 C9.73261213,9.11072238 10.3087042,9.16526249 10.872017,9.27233832 C11.0539982,4.11998745 15.3004546,0 20.5107547,0 C24.6534279,0 28.2555739,2.62368112 29.5984646,6.38723713 C30.7083875,5.86119612 31.9312597,5.58142213 33.1947297,5.58142213 C36.3293171,5.58142213 39.1375741,7.31219791 40.5775465,9.97237329 C41.7797013,9.40916847 43.1003975,9.11072238 44.4637614,9.11072238 Z M51.6132167,18.2339189 C51.6132167,14.3006099 48.4130177,11.1107224 44.4637614,11.1107224 C43.0924813,11.1107224 41.7807278,11.4950358 40.6480586,12.2087999 L39.6102242,12.8628027 L39.1788058,11.714457 C38.2527576,9.24951039 35.8816498,7.58142213 33.1947297,7.58142213 C31.8727604,7.58142213 30.6135778,7.98132362 29.5524747,8.71666758 L28.3055005,9.58082015 L28.0029647,8.09415392 C27.2863673,4.57278136 24.1640026,2 20.5107547,2 C16.2879191,2 12.8659404,5.41095266 12.8659404,9.61695946 C12.8659404,9.9071703 12.8821835,10.1951768 12.9143963,10.4801456 L13.0950933,12.0786707 L11.5816743,11.5332383 C10.8092321,11.2548521 9.98998129,11.1107224 9.14945527,11.1107224 C5.20019898,11.1107224 2,14.3006099 2,18.2339189 C2,22.167228 5.20019898,25.3571154 9.14945527,25.3571154 L44.4637614,25.3571154 C48.4130177,25.3571154 51.6132167,22.167228 51.6132167,18.2339189 Z" id="Combined-Shape" fill="#CBECF9" fill-rule="nonzero"></path>
                                    </g>
                                </g>
                            </g>
                            <g id="MIT-cloud" transform="translate(112.000000, 20.000000)">
                                <g id="code" transform="translate(136.000516, 51.443039) rotate(15.000000) translate(-136.000516, -51.443039) translate(107.000516, 16.443039)">
                                    <path d="M37.8979592,1 L3.00999791,1 C1.89990672,1 1,1.89870751 1,2.99196224 L1,66.1753847 C1,67.2755151 1.89178564,68.1673469 3.00252455,68.1673469 L54.3444142,68.1673469 C55.450378,68.1673469 56.3469388,67.2777818 56.3469388,66.1613389 L56.3469388,19.3183673 L37.8979592,1 Z" id="Combined-Shape" fill="#E6F5FB"></path>
                                    <path d="M48.9136897,11.9377431 L56.3469388,19.3183673 L56.3469388,66.1613389 C56.3469388,67.2777818 55.450378,68.1673469 54.3444142,68.1673469 L3.00252455,68.1673469 C1.89178564,68.1673469 1,67.2755151 1,66.1753847 L1,62.0612245 L46.6573394,62.0612245 C47.7633032,62.0612245 48.664415,61.162517 48.6699513,60.0692623 L48.9136897,11.9377431 L48.9136897,11.9377431 Z" id="Combined-Shape" fill="#CBECF9"></path>
                                    <path d="M56.3469388,19.3183673 L39.9074434,19.3183673 C38.7976359,19.3183673 37.8979592,18.4224339 37.8979592,17.3231096 L37.8979592,1" id="Rectangle-21" fill="#97D9F2"></path>
                                    <path d="M21.3985239,33.2434869 L13.6401334,36.005106 L21.3985239,38.7473453 L21.3985239,41.1601283 L11.0832802,37.1388233 L11.0832802,34.8520089 L21.3985239,30.821014 L21.3985239,33.2434869 Z M26.5512662,39.4740872 L29.1569143,39.4740872 L29.1569143,42.2163265 L26.5512662,42.2163265 L26.5512662,39.4740872 Z M29.1569143,38.33068 L26.5512662,38.33068 L26.5512662,36.8384367 C26.5512662,36.1989007 26.652108,35.6530422 26.8537946,35.200845 C27.0554813,34.7486478 27.41656,34.270618 27.9370416,33.7667411 L28.81535,32.9043407 C29.2252292,32.5102832 29.5033574,32.1840601 29.6497429,31.9256617 C29.7961284,31.6672633 29.86932,31.399179 29.86932,31.1214007 C29.86932,30.6885833 29.7196838,30.3623603 29.4204068,30.1427216 C29.1211299,29.923083 28.6722212,29.8132653 28.0736674,29.8132653 C27.5271616,29.8132653 26.9562669,29.9279279 26.3609661,30.1572565 C25.7656652,30.386585 25.1557349,30.7273428 24.531157,31.17954 L24.531157,28.5826491 C25.168747,28.2208913 25.8144598,27.9479621 26.4683149,27.7638532 C27.1221699,27.5797444 27.7776416,27.4876913 28.4347497,27.4876913 C29.7489658,27.4876913 30.7801545,27.7913049 31.5283469,28.3985411 C32.2765392,29.0057774 32.6506298,29.8423297 32.6506298,30.9082231 C32.6506298,31.39918 32.5400291,31.8562153 32.3188244,32.2793427 C32.0976197,32.7024701 31.6812407,33.2111843 31.0696747,33.8055006 L30.2108844,34.6388313 C29.768475,35.0651887 29.4854673,35.4140213 29.3618529,35.6853396 C29.2382386,35.9566579 29.1764323,36.2893409 29.1764323,36.6833984 C29.1764323,36.7415381 29.1748058,36.8093666 29.1715528,36.8868862 C29.1682998,36.9644057 29.1634203,37.0483839 29.1569143,37.1388233 L29.1569143,38.33068 Z M35.1489291,33.2434869 L35.1489291,30.821014 L45.4641728,34.8520089 L45.4641728,37.1388233 L35.1489291,41.1601283 L35.1489291,38.7473453 L42.9073196,36.005106 L35.1489291,33.2434869 Z" id="&lt;?&gt;" fill="#97D9F2"></path>
                                    <path d="M38.3100933,0 L57.3469388,18.9020713 L57.3469388,66.1613389 C57.3469388,67.8273834 56.0053499,69.1673469 54.3444142,69.1673469 L3.00252455,69.1673469 C1.34196328,69.1673469 0,67.8302595 0,66.1753847 L0,2.99196224 C0,1.34255804 1.3514916,0 3.00999791,0 L38.3100933,0 Z M3.00999791,2 C2.45310274,2 2,2.45010767 2,2.99196224 L2,66.1753847 C2,66.7240571 2.44490639,67.1673469 3.00252455,67.1673469 L54.3444142,67.1673469 C54.9013228,67.1673469 55.3469388,66.7222708 55.3469388,66.1613389 L55.3469388,19.7346634 L37.485825,2 L3.00999791,2 Z M56.3469388,18.3183673 L56.3469388,20.3183673 L39.9074434,20.3183673 C38.247646,20.3183673 36.8979592,18.9770174 36.8979592,17.3231096 L36.8979592,1 L38.8979592,1 L38.8979592,17.3231096 C38.8979592,17.8696644 39.349451,18.3183673 39.9074434,18.3183673 L56.3469388,18.3183673 Z" id="Combined-Shape" fill="#00A1DE" fill-rule="nonzero"></path>
                                </g>
                                <g id="code" transform="translate(38.000516, 51.443039) rotate(-15.000000) translate(-38.000516, -51.443039) translate(9.000516, 16.443039)">
                                    <path d="M37.8979592,1 L3.00999791,1 C1.89990672,1 1,1.89870751 1,2.99196224 L1,66.1753847 C1,67.2755151 1.89178564,68.1673469 3.00252455,68.1673469 L54.3444142,68.1673469 C55.450378,68.1673469 56.3469388,67.2777818 56.3469388,66.1613389 L56.3469388,19.3183673 L37.8979592,1 Z" id="Combined-Shape" fill="#E6F5FB"></path>
                                    <path d="M48.9136897,11.9377431 L56.3469388,19.3183673 L56.3469388,66.1613389 C56.3469388,67.2777818 55.450378,68.1673469 54.3444142,68.1673469 L3.00252455,68.1673469 C1.89178564,68.1673469 1,67.2755151 1,66.1753847 L1,62.0612245 L46.6573394,62.0612245 C47.7633032,62.0612245 48.664415,61.162517 48.6699513,60.0692623 L48.9136897,11.9377431 L48.9136897,11.9377431 Z" id="Combined-Shape" fill="#CBECF9"></path>
                                    <path d="M56.3469388,19.3183673 L39.9074434,19.3183673 C38.7976359,19.3183673 37.8979592,18.4224339 37.8979592,17.3231096 L37.8979592,1" id="Rectangle-21" fill="#97D9F2"></path>
                                    <path d="M26.6503574,43.601981 L26.6503574,45.4527503 L25.1865102,45.4527503 C23.5665111,45.4527503 22.4816485,45.2137354 21.9318897,44.7356983 C21.382131,44.2576613 21.1072558,43.3048315 21.1072558,41.8771803 L21.1072558,39.7938536 C21.1072558,38.8183997 20.9332224,38.1449589 20.5851503,37.7735112 C20.2370782,37.4020635 19.6076302,37.2163425 18.6967873,37.2163425 L18.0917304,37.2163425 L18.0917304,35.3655732 L18.6967873,35.3655732 C19.6076302,35.3655732 20.2370782,35.1814671 20.5851503,34.8132494 C20.9332224,34.4450316 21.1072558,33.7699759 21.1072558,32.788062 L21.1072558,30.7047353 C21.1072558,29.2770842 21.382131,28.3258693 21.9318897,27.8510623 C22.4816485,27.3762552 23.5665111,27.1388552 25.1865102,27.1388552 L26.6503574,27.1388552 L26.6503574,28.9799346 L25.4500027,28.9799346 C24.7733765,28.9799346 24.3212149,29.1155918 24.0935042,29.3869101 C23.8657935,29.6582284 23.7519398,30.2557657 23.7519398,31.17954 L23.7519398,33.2047274 C23.7519398,34.2706208 23.5925447,35.0199649 23.2737497,35.4527822 C22.9549547,35.8855995 22.3856865,36.1633736 21.5659279,36.2861129 C22.3856865,36.421772 22.9549547,36.709236 23.2737497,37.1485132 C23.5925447,37.5877905 23.7519398,38.3371346 23.7519398,39.3965681 L23.7519398,41.3829959 C23.7519398,42.3132301 23.8657935,42.9156123 24.0935042,43.1901606 C24.3212149,43.4647089 24.7733765,43.601981 25.4500027,43.601981 L26.6503574,43.601981 Z M30.1635908,43.601981 L31.3444276,43.601981 C32.0210537,43.601981 32.4764683,43.463094 32.7106851,43.1853157 C32.9449018,42.9075374 33.0620084,42.3067701 33.0620084,41.3829959 L33.0620084,39.3965681 C33.0620084,38.3371346 33.2214035,37.5877905 33.5401985,37.1485132 C33.8589935,36.709236 34.4250088,36.421772 35.2382613,36.2861129 C34.4185028,36.1633736 33.850861,35.8855995 33.535319,35.4527822 C33.219777,35.0199649 33.0620084,34.2706208 33.0620084,33.2047274 L33.0620084,31.17954 C33.0620084,30.2686857 32.9465283,29.6743782 32.7155645,29.3966 C32.4846008,29.1188217 32.0275598,28.9799346 31.3444276,28.9799346 L30.1635908,28.9799346 L30.1635908,27.1388552 L31.6274381,27.1388552 C33.2409311,27.1388552 34.3192878,27.3762552 34.8625405,27.8510623 C35.4057932,28.3258693 35.6774155,29.2770842 35.6774155,30.7047353 L35.6774155,32.788062 C35.6774155,33.763516 35.8547019,34.4369567 36.20928,34.8084044 C36.5638581,35.1798521 37.1998121,35.3655732 38.1171609,35.3655732 L38.7222178,35.3655732 L38.7222178,37.2163425 L38.1171609,37.2163425 C37.1998121,37.2163425 36.5638581,37.4036785 36.20928,37.7783562 C35.8547019,38.1530339 35.6774155,38.8248596 35.6774155,39.7938536 L35.6774155,41.8771803 C35.6774155,43.3048315 35.4057932,44.2576613 34.8625405,44.7356983 C34.3192878,45.2137354 33.2409311,45.4527503 31.6274381,45.4527503 L30.1635908,45.4527503 L30.1635908,43.601981 Z" id="{}" fill="#97D9F2"></path>
                                    <path d="M38.3100933,0 L57.3469388,18.9020713 L57.3469388,66.1613389 C57.3469388,67.8273834 56.0053499,69.1673469 54.3444142,69.1673469 L3.00252455,69.1673469 C1.34196328,69.1673469 0,67.8302595 0,66.1753847 L0,2.99196224 C0,1.34255804 1.3514916,0 3.00999791,0 L38.3100933,0 Z M3.00999791,2 C2.45310274,2 2,2.45010767 2,2.99196224 L2,66.1753847 C2,66.7240571 2.44490639,67.1673469 3.00252455,67.1673469 L54.3444142,67.1673469 C54.9013228,67.1673469 55.3469388,66.7222708 55.3469388,66.1613389 L55.3469388,19.7346634 L37.485825,2 L3.00999791,2 Z M56.3469388,18.3183673 L56.3469388,20.3183673 L39.9074434,20.3183673 C38.247646,20.3183673 36.8979592,18.9770174 36.8979592,17.3231096 L36.8979592,1 L38.8979592,1 L38.8979592,17.3231096 C38.8979592,17.8696644 39.349451,18.3183673 39.9074434,18.3183673 L56.3469388,18.3183673 Z" id="Combined-Shape" fill="#00A1DE" fill-rule="nonzero"></path>
                                </g>
                                <g id="code" transform="translate(58.000000, 0.442105)">
                                    <path d="M37.8979592,1 L3.00999791,1 C1.89990672,1 1,1.89870751 1,2.99196224 L1,66.1753847 C1,67.2755151 1.89178564,68.1673469 3.00252455,68.1673469 L54.3444142,68.1673469 C55.450378,68.1673469 56.3469388,67.2777818 56.3469388,66.1613389 L56.3469388,19.3183673 L37.8979592,1 Z" id="Combined-Shape" fill="#E6F5FB"></path>
                                    <path d="M48.9136897,11.9377431 L56.3469388,19.3183673 L56.3469388,66.1613389 C56.3469388,67.2777818 55.450378,68.1673469 54.3444142,68.1673469 L3.00252455,68.1673469 C1.89178564,68.1673469 1,67.2755151 1,66.1753847 L1,62.0612245 L46.6573394,62.0612245 C47.7633032,62.0612245 48.664415,61.162517 48.6699513,60.0692623 L48.9136897,11.9377431 L48.9136897,11.9377431 Z" id="Combined-Shape" fill="#CBECF9"></path>
                                    <path d="M56.3469388,19.3183673 L39.9074434,19.3183673 C38.7976359,19.3183673 37.8979592,18.4224339 37.8979592,17.3231096 L37.8979592,1" id="Rectangle-21" fill="#97D9F2"></path>
                                    <path d="M21.3985239,33.2434869 L13.6401334,36.005106 L21.3985239,38.7473453 L21.3985239,41.1601283 L11.0832802,37.1388233 L11.0832802,34.8520089 L21.3985239,30.821014 L21.3985239,33.2434869 Z M31.0306388,27.7493184 L33.1873738,27.7493184 L25.5168141,44.0574059 L23.3600792,44.0574059 L31.0306388,27.7493184 Z M35.1489291,33.2434869 L35.1489291,30.821014 L45.4641728,34.8520089 L45.4641728,37.1388233 L35.1489291,41.1601283 L35.1489291,38.7473453 L42.9073196,36.005106 L35.1489291,33.2434869 Z" id="&lt;/&gt;" fill="#97D9F2"></path>
                                    <path d="M38.3100933,0 L57.3469388,18.9020713 L57.3469388,66.1613389 C57.3469388,67.8273834 56.0053499,69.1673469 54.3444142,69.1673469 L3.00252455,69.1673469 C1.34196328,69.1673469 0,67.8302595 0,66.1753847 L0,2.99196224 C0,1.34255804 1.3514916,0 3.00999791,0 L38.3100933,0 Z M3.00999791,2 C2.45310274,2 2,2.45010767 2,2.99196224 L2,66.1753847 C2,66.7240571 2.44490639,67.1673469 3.00252455,67.1673469 L54.3444142,67.1673469 C54.9013228,67.1673469 55.3469388,66.7222708 55.3469388,66.1613389 L55.3469388,19.7346634 L37.485825,2 L3.00999791,2 Z M56.3469388,18.3183673 L56.3469388,20.3183673 L39.9074434,20.3183673 C38.247646,20.3183673 36.8979592,18.9770174 36.8979592,17.3231096 L36.8979592,1 L38.8979592,1 L38.8979592,17.3231096 C38.8979592,17.8696644 39.349451,18.3183673 39.9074434,18.3183673 L56.3469388,18.3183673 Z" id="Combined-Shape" fill="#00A1DE" fill-rule="nonzero"></path>
                                </g>
                                <g id="cloud" transform="translate(1.000000, 43.442105)">
                                    <path d="M22.8006596,86.5029586 C10.7604878,86.5029586 1,76.8115716 1,64.85664 C1,57.1348698 5.07203092,50.3574401 11.2002457,46.5259266 C11.1826015,46.2579154 11.1736411,45.9875515 11.1736411,45.7151096 C11.1736411,38.952034 16.6952885,33.4694779 23.5065857,33.4694779 C24.8124175,33.4694779 26.0708484,33.6709886 27.2520578,34.0444002 C29.3079439,22.042908 39.8313118,12.9054752 52.5040583,12.9054752 C55.8744496,12.9054752 59.0928099,13.5517889 62.0402848,14.7264033 C69.9055474,6.28494748 81.1575919,1 93.6528032,1 C112.488131,1 128.498653,13.0088055 134.342012,29.7360404 C135.637854,29.3484988 137.011926,29.1402142 138.434991,29.1402142 C146.261103,29.1402142 152.60542,35.4396157 152.60542,43.2103213 C152.60542,43.3051758 152.604475,43.3998111 152.602593,43.4942184 C162.959309,45.1733022 170.863473,54.0984479 170.863473,64.85664 C170.863473,76.8115716 161.102985,86.5029586 149.062813,86.5029586 L22.8006596,86.5029586 L22.8006596,86.5029586 Z" id="Combined-Shape" fill="#FFFFFF"></path>
                                    <path d="M62.7719735,13.9637091 C70.5957595,5.96782561 81.5417149,1 93.6562413,1 C112.491569,1 128.502091,13.0088055 134.34545,29.7360404 C135.641292,29.3484988 137.015364,29.1402142 138.438429,29.1402142 C146.264541,29.1402142 152.608858,35.4396157 152.608858,43.2103213 C152.608858,43.3051758 152.607913,43.3998111 152.606031,43.4942184 C162.962747,45.1733022 170.866911,54.0984479 170.866911,64.85664 C170.866911,76.8115716 161.106423,86.5029586 149.066251,86.5029586 L22.8040976,86.5029586 C14.2790044,86.5029586 6.89680939,81.6442725 3.31302068,74.5636083 C7.20657075,78.1659195 12.4298077,80.369835 18.1714698,80.369835 L58.8375669,80.369835 L119.209635,80.369835 L147.522038,80.369835 C156.150827,80.369835 163.145844,73.424341 163.145844,64.85664 C163.145844,56.4397726 156.394953,49.5884974 147.976218,49.3434449 C147.976218,41.5727394 141.631901,35.2733378 133.805789,35.2733378 C132.382723,35.2733378 131.008652,35.4816224 129.712809,35.869164 C123.86945,19.1419291 107.858928,7.13312361 89.0236011,7.13312361 C79.1422131,7.13312361 70.0382851,10.4382599 62.7719735,15.9958818 L62.7719735,13.9637091 Z M53.5350163,20.1945417 C54.8161889,20.1945417 55.8547845,21.2257844 55.8547845,22.4978867 C55.8547845,23.769989 54.8161889,24.8012317 53.5350163,24.8012317 C48.9594043,24.8012317 44.7927781,27.1470915 42.4135193,30.9319182 C41.7351399,32.0110561 40.3041531,32.3398285 39.2173207,31.6662518 C38.1304884,30.992675 37.7993718,29.5718191 38.4777512,28.4926811 C41.6959461,23.3733095 47.3419516,20.1945417 53.5350163,20.1945417 Z M35.8252009,36.7985888 C35.8975847,35.5285184 36.9932,34.5571862 38.2723262,34.6290576 C39.5514524,34.700929 40.5297103,35.7887877 40.4573264,37.0588581 C40.4434175,37.3029087 40.4363119,37.5480673 40.4360651,37.7941691 C40.4347893,39.0662708 39.3951599,40.096486 38.113988,40.0952192 C36.8328161,40.0939524 35.7952553,39.0616833 35.7965311,37.7895816 C35.7968635,37.458188 35.8064402,37.1277692 35.8252009,36.7985888 Z" id="Combined-Shape" fill="#E6F5FB"></path>
                                    <path d="M149.062813,85.5029586 C160.552284,85.5029586 169.863473,76.2576902 169.863473,64.85664 C169.863473,54.7043446 162.430884,46.1006882 152.442558,44.4813297 L151.585488,44.3423772 L151.602792,43.4742896 C151.604543,43.3864144 151.60542,43.2984224 151.60542,43.2103213 C151.60542,35.9934972 145.710403,30.1402142 138.434991,30.1402142 C137.130227,30.1402142 135.851986,30.3282219 134.628538,30.6941128 L133.713077,30.9678952 L133.397957,30.065829 C127.576631,13.4016661 111.710295,2 93.6528032,2 C81.769598,2 70.6835185,6.91691345 62.7719204,15.4080992 L62.3055751,15.9086081 L61.6700833,15.6553548 C58.7820115,14.5044135 55.6857565,13.9054752 52.5040583,13.9054752 C40.4560306,13.9054752 30.2346638,22.5557218 28.2377007,34.2132433 L28.0440752,35.3435563 L26.9506341,34.9978905 C25.847259,34.6490843 24.6897437,34.4694779 23.5065857,34.4694779 C17.2459891,34.4694779 12.1736411,39.5059154 12.1736411,45.7151096 C12.1736411,45.9646152 12.181814,46.2130715 12.1980857,46.4602351 L12.2373638,47.0568613 L11.7303819,47.3738391 C5.72078178,51.1311918 2,57.6768834 2,64.85664 C2,76.2576902 11.3111883,85.5029586 22.8006596,85.5029586 L149.062813,85.5029586 Z M171.863473,64.85664 C171.863473,77.3654531 161.653685,87.5029586 149.062813,87.5029586 L22.8006596,87.5029586 C10.2097872,87.5029586 0,77.3654531 0,64.85664 C0,57.1776934 3.87941431,50.1592918 10.1765714,45.9953965 C10.1746187,45.9020831 10.1736411,45.8086508 10.1736411,45.7151096 C10.1736411,38.3981526 16.1445879,32.4694779 23.5065857,32.4694779 C24.5147334,32.4694779 25.5084005,32.58083 26.4739946,32.7989333 C29.0628142,20.7307196 39.8535451,11.9054752 52.5040583,11.9054752 C55.7078873,11.9054752 58.8344849,12.4683596 61.7737281,13.5531166 C70.0267712,4.96164767 81.4405034,5.68434189e-14 93.6528032,5.68434189e-14 C112.249063,5.68434189e-14 128.629408,11.547608 134.971304,28.5350157 C136.097488,28.2736609 137.257582,28.1402142 138.434991,28.1402142 C146.625701,28.1402142 153.302779,34.5893415 153.595418,42.6578893 C164.123823,44.7650947 171.863473,54.0012144 171.863473,64.85664 Z" id="Combined-Shape" fill="#00A1DE" fill-rule="nonzero"></path>
                                </g>
                                <path d="M32,96.402677 L34.8910625,96.402677 L36.3530202,101.744267 L37.8067647,96.402677 L40.7142537,96.402677 L40.7142537,108.57824 L38.6280893,108.57824 L38.6280893,98.8247414 L37.3303965,104.150021 L35.4002837,104.150021 L34.0861644,98.8247414 L34.0861644,108.57824 L32,108.57824 L32,96.402677 Z M42.8332711,98.5230027 L42.8332711,96.402677 L50.1348466,96.402677 L50.1348466,98.5230027 L47.6955126,98.5230027 L47.6955126,106.457914 L50.1348466,106.457914 L50.1348466,108.57824 L42.8332711,108.57824 L42.8332711,106.457914 L45.2726051,106.457914 L45.2726051,98.5230027 L42.8332711,98.5230027 Z M57.8224446,108.57824 L55.3995371,108.57824 L55.3995371,98.5066925 L52.2867169,98.5066925 L52.2867169,96.402677 L60.9352647,96.402677 L60.9352647,98.5066925 L57.8224446,98.5066925 L57.8224446,108.57824 Z M73.6493691,108.57824 L73.6493691,96.402677 L76.0722766,96.402677 L76.0722766,106.457914 L81.2548346,106.457914 L81.2548346,108.57824 L73.6493691,108.57824 Z M83.7434481,99.4445289 L88.5071306,99.4445289 L88.5071306,106.743342 L91.496752,106.743342 L91.496752,108.57824 L83.1028149,108.57824 L83.1028149,106.743342 L86.1006496,106.743342 L86.1006496,101.279426 L83.7434481,101.279426 L83.7434481,99.4445289 Z M86.1006496,95 L88.5071306,95 L88.5071306,97.7890438 L86.1006496,97.7890438 L86.1006496,95 Z M100.769506,108.113399 C100.364318,108.34718 99.92902,108.522512 99.4636004,108.639403 C98.9981808,108.756293 98.4971778,108.814737 97.9605764,108.814737 C96.5424156,108.814737 95.4336385,108.390677 94.6342119,107.542542 C93.8347853,106.694408 93.435078,105.520085 93.435078,104.019539 C93.435078,102.513557 93.837523,101.335157 94.6424251,100.484304 C95.4473273,99.6334511 96.5588421,99.208031 97.9770029,99.208031 C98.4698001,99.208031 98.9447947,99.2651161 99.402001,99.3792881 C99.8592073,99.49346 100.315038,99.6701521 100.769506,99.9093695 L100.769506,102.094936 C100.419073,101.795914 100.034423,101.566215 99.6155454,101.40583 C99.1966678,101.245446 98.762739,101.165255 98.313746,101.165255 C97.530746,101.165255 96.9284473,101.412624 96.5068319,101.907369 C96.0852165,102.402114 95.874412,103.106164 95.874412,104.019539 C95.874412,104.932915 96.0852165,105.634246 96.5068319,106.123555 C96.9284473,106.612863 97.530746,106.857514 98.313746,106.857514 C98.7791656,106.857514 99.2144632,106.780041 99.6196521,106.625093 C100.024841,106.470146 100.408122,106.235009 100.769506,105.919677 L100.769506,108.113399 Z M111.233182,108.129709 C110.674678,108.358053 110.105232,108.529308 109.524826,108.64348 C108.944421,108.757652 108.331171,108.814737 107.685059,108.814737 C106.146437,108.814737 104.970586,108.405627 104.15747,107.587395 C103.344355,106.769163 102.937803,105.590763 102.937803,104.05216 C102.937803,102.562488 103.329297,101.385447 104.112297,100.521002 C104.895297,99.6565571 105.963009,99.2243412 107.315463,99.2243412 C108.678869,99.2243412 109.736998,99.6252962 110.489883,100.427218 C111.242767,101.22914 111.619204,102.35861 111.619204,103.815662 L111.619204,104.786119 L105.385351,104.786119 C105.390826,105.503771 105.604368,106.039284 106.025984,106.392673 C106.447599,106.746062 107.077275,106.922755 107.91503,106.922755 C108.468058,106.922755 109.012865,106.843923 109.549466,106.686257 C110.086068,106.528591 110.6473,106.278503 111.233182,105.935988 L111.233182,108.129709 Z M109.196297,102.991997 C109.185346,102.361333 109.022451,101.884264 108.707608,101.560777 C108.392766,101.23729 107.928722,101.075549 107.315463,101.075549 C106.762435,101.075549 106.321662,101.242727 105.993131,101.577087 C105.664599,101.911448 105.470221,102.385798 105.40999,103.000152 L109.196297,102.991997 Z M121.105503,102.649483 L121.105503,108.57824 L118.715448,108.57824 L118.715448,103.016462 C118.715448,102.353177 118.620997,101.878827 118.432091,101.593397 C118.243186,101.307968 117.935192,101.165255 117.508101,101.165255 C117.075535,101.165255 116.734689,101.358257 116.485552,101.744267 C116.236416,102.130277 116.111849,102.665789 116.111849,103.350821 L116.111849,108.57824 L113.721795,108.57824 L113.721795,99.4445289 L116.111849,99.4445289 L116.111849,100.814585 C116.281591,100.308967 116.571789,99.917526 116.982454,99.6402512 C117.393118,99.3629765 117.888645,99.2243412 118.469051,99.2243412 C119.339659,99.2243412 119.996712,99.511126 120.44023,100.084704 C120.883747,100.658282 121.105503,101.5132 121.105503,102.649483 Z M130.575375,99.7299573 L130.575375,101.817663 C130.131858,101.534951 129.670552,101.321562 129.191443,101.177487 C128.712335,101.033413 128.231865,100.961377 127.750019,100.961377 C127.213417,100.961377 126.808235,101.03885 126.534458,101.193798 C126.260682,101.348745 126.123796,101.578445 126.123796,101.882903 C126.123796,102.317844 126.709668,102.671228 127.881431,102.943066 L127.971776,102.967532 L128.661689,103.130634 C129.537773,103.33723 130.179768,103.670227 130.587695,104.129633 C130.995622,104.589039 131.199582,105.21018 131.199582,105.993073 C131.199582,106.933633 130.888851,107.639042 130.267378,108.109321 C129.645906,108.579601 128.710975,108.814737 127.462555,108.814737 C126.909527,108.814737 126.342819,108.767167 125.762413,108.672023 C125.182008,108.57688 124.593398,108.434167 123.996565,108.243881 L123.996565,106.156175 C124.527691,106.455197 125.068391,106.683538 125.618681,106.841204 C126.168972,106.99887 126.701458,107.077701 127.216158,107.077701 C127.780137,107.077701 128.207221,106.996151 128.497424,106.833048 C128.787627,106.669946 128.932726,106.43345 128.932726,106.123555 C128.932726,105.819096 128.830062,105.585319 128.624729,105.422216 C128.419397,105.259114 127.930714,105.08514 127.158665,104.90029 L126.493392,104.753498 C125.573504,104.546901 124.902762,104.223419 124.481147,103.783041 C124.059531,103.342664 123.848727,102.752784 123.848727,102.013385 C123.848727,101.13263 124.16904,100.447608 124.809677,99.9583001 C125.450313,99.4689917 126.351023,99.2243412 127.511835,99.2243412 C128.032009,99.2243412 128.550808,99.2664755 129.068245,99.3507452 C129.585682,99.435015 130.088054,99.5614178 130.575375,99.7299573 Z M141.613977,108.129709 C141.055474,108.358053 140.486028,108.529308 139.905622,108.64348 C139.325217,108.757652 138.711967,108.814737 138.065855,108.814737 C136.527233,108.814737 135.351382,108.405627 134.538266,107.587395 C133.725151,106.769163 133.318599,105.590763 133.318599,104.05216 C133.318599,102.562488 133.710093,101.385447 134.493093,100.521002 C135.276093,99.6565571 136.343805,99.2243412 137.696259,99.2243412 C139.059665,99.2243412 140.117794,99.6252962 140.870679,100.427218 C141.623563,101.22914 142,102.35861 142,103.815662 L142,104.786119 L135.766146,104.786119 C135.771622,105.503771 135.985164,106.039284 136.40678,106.392673 C136.828395,106.746062 137.458071,106.922755 138.295826,106.922755 C138.848854,106.922755 139.393661,106.843923 139.930262,106.686257 C140.466863,106.528591 141.028096,106.278503 141.613977,105.935988 L141.613977,108.129709 Z M139.577093,102.991997 C139.566141,102.361333 139.403247,101.884264 139.088404,101.560777 C138.773562,101.23729 138.309518,101.075549 137.696259,101.075549 C137.143231,101.075549 136.702458,101.242727 136.373927,101.577087 C136.045395,101.911448 135.851017,102.385798 135.790786,103.000152 L139.577093,102.991997 Z" id="MIT-License" fill="#97D9F2"></path>
                            </g>
                        </g>
                    </g>
                </g>
            </g>
        </g>
    </g>
</svg>