<svg width="932" height="207" viewBox="0 0 932 207" xmlns="http://www.w3.org/2000/svg"><title>img_iot</title><desc>Created with Sketch.</desc><g fill="none"><path fill-opacity=".03" fill="#00A1DE" d="M198 133l506-47 142.875 101.306-325.301-26.655z"/><path d="M198.092 133.995c-.55.051-1.037-.353-1.088-.903-.051-.55.353-1.037.903-1.088l4.979-.462c.55-.051 1.037.353 1.088.903.051.55-.353 1.037-.903 1.088l-4.979.462zm9.957-.925c-.55.051-1.037-.353-1.088-.903-.051-.55.353-1.037.903-1.088l4.979-.462c.55-.051 1.037.353 1.088.903.051.55-.353 1.037-.903 1.088l-4.979.462zm9.957-.925l4.979-.462c.55-.051.954-.538.903-1.088-.051-.55-.538-.954-1.088-.903l-4.979.462c-.55.051-.954.538-.903 1.088.051.55.538.954 1.088.903zm9.957-.925l4.979-.462c.55-.051.954-.538.903-1.088-.051-.55-.538-.954-1.088-.903l-4.979.462c-.55.051-.954.538-.903 1.088.051.55.538.954 1.088.903zm9.957-.925l4.979-.462c.55-.051.954-.538.903-1.088-.051-.55-.538-.954-1.088-.903l-4.979.462c-.55.051-.954.538-.903 1.088.051.55.538.954 1.088.903zm9.957-.925l4.979-.462c.55-.051.954-.538.903-1.088-.051-.55-.538-.954-1.088-.903l-4.979.462c-.55.051-.954.538-.903 1.088.051.55.538.954 1.088.903zm9.957-.925l4.979-.462c.55-.051.954-.538.903-1.088-.051-.55-.538-.954-1.088-.903l-4.979.462c-.55.051-.954.538-.903 1.088.051.55.538.954 1.088.903zm9.957-.925l4.979-.462c.55-.051.954-.538.903-1.088-.051-.55-.538-.954-1.088-.903l-4.979.462c-.55.051-.954.538-.903 1.088.051.55.538.954 1.088.903zm9.957-.925l4.979-.462c.55-.051.954-.538.903-1.088-.051-.55-.538-.954-1.088-.903l-4.979.462c-.55.051-.954.538-.903 1.088.051.55.538.954 1.088.903zm9.957-.925l4.979-.462c.55-.051.954-.538.903-1.088-.051-.55-.538-.954-1.088-.903l-4.979.462c-.55.051-.954.538-.903 1.088.051.55.538.954 1.088.903zm9.957-.925l4.979-.462c.55-.051.954-.538.903-1.088-.051-.55-.538-.954-1.088-.903l-4.979.462c-.55.051-.954.538-.903 1.088.051.55.538.954 1.088.903zm9.957-.925l4.979-.462c.55-.051.954-.538.903-1.088-.051-.55-.538-.954-1.088-.903l-4.979.462c-.55.051-.954.538-.903 1.088.051.55.538.954 1.088.903zm9.957-.925l4.979-.462c.55-.051.954-.538.903-1.088-.051-.55-.538-.954-1.088-.903l-4.979.462c-.55.051-.954.538-.903 1.088.051.55.538.954 1.088.903zm9.957-.925l4.979-.462c.55-.051.954-.538.903-1.088-.051-.55-.538-.954-1.088-.903l-4.979.462c-.55.051-.954.538-.903 1.088.051.55.538.954 1.088.903zm9.957-.925l4.979-.462c.55-.051.954-.538.903-1.088-.051-.55-.538-.954-1.088-.903l-4.979.462c-.55.051-.954.538-.903 1.088.051.55.538.954 1.088.903zm9.957-.925l4.979-.462c.55-.051.954-.538.903-1.088-.051-.55-.538-.954-1.088-.903l-4.979.462c-.55.051-.954.538-.903 1.088.051.55.538.954 1.088.903zm9.957-.925l4.979-.462c.55-.051.954-.538.903-1.088-.051-.55-.538-.954-1.088-.903l-4.979.462c-.55.051-.954.538-.903 1.088.051.55.538.954 1.088.903zm9.957-.925l4.979-.462c.55-.051.954-.538.903-1.088-.051-.55-.538-.954-1.088-.903l-4.979.462c-.55.051-.954.538-.903 1.088.051.55.538.954 1.088.903zm9.957-.925l4.979-.462c.55-.051.954-.538.903-1.088-.051-.55-.538-.954-1.088-.903l-4.979.462c-.55.051-.954.538-.903 1.088.051.55.538.954 1.088.903zm9.957-.925l4.979-.462c.55-.051.954-.538.903-1.088-.051-.55-.538-.954-1.088-.903l-4.979.462c-.55.051-.954.538-.903 1.088.051.55.538.954 1.088.903zm9.957-.925l4.979-.462c.55-.051.954-.538.903-1.088-.051-.55-.538-.954-1.088-.903l-4.979.462c-.55.051-.954.538-.903 1.088.051.55.538.954 1.088.903zm9.957-.925l4.979-.462c.55-.051.954-.538.903-1.088-.051-.55-.538-.954-1.088-.903l-4.979.462c-.55.051-.954.538-.903 1.088.051.55.538.954 1.088.903zm9.957-.925l4.979-.462c.55-.051.954-.538.903-1.088-.051-.55-.538-.954-1.088-.903l-4.979.462c-.55.051-.954.538-.903 1.088.051.55.538.954 1.088.903zm9.957-.925l4.979-.462c.55-.051.954-.538.903-1.088-.051-.55-.538-.954-1.088-.903l-4.979.462c-.55.051-.954.538-.903 1.088.051.55.538.954 1.088.903zm9.957-.925l4.979-.462c.55-.051.954-.538.903-1.088-.051-.55-.538-.954-1.088-.903l-4.979.462c-.55.051-.954.538-.903 1.088.051.55.538.954 1.088.903zm9.957-.925l4.979-.462c.55-.051.954-.538.903-1.088-.051-.55-.538-.954-1.088-.903l-4.979.462c-.55.051-.954.538-.903 1.088.051.55.538.954 1.088.903zm9.957-.925l4.979-.462c.55-.051.954-.538.903-1.088-.051-.55-.538-.954-1.088-.903l-4.979.462c-.55.051-.954.538-.903 1.088.051.55.538.954 1.088.903zm9.957-.925l4.979-.462c.55-.051.954-.538.903-1.088-.051-.55-.538-.954-1.088-.903l-4.979.462c-.55.051-.954.538-.903 1.088.051.55.538.954 1.088.903zm9.957-.925l4.979-.462c.55-.051.954-.538.903-1.088-.051-.55-.538-.954-1.088-.903l-4.979.462c-.55.051-.954.538-.903 1.088.051.55.538.954 1.088.903zm9.957-.925l4.979-.462c.55-.051.954-.538.903-1.088-.051-.55-.538-.954-1.088-.903l-4.979.462c-.55.051-.954.538-.903 1.088.051.55.538.954 1.088.903zm9.957-.925l4.979-.462c.55-.051.954-.538.903-1.088-.051-.55-.538-.954-1.088-.903l-4.979.462c-.55.051-.954.538-.903 1.088.051.55.538.954 1.088.903zm9.957-.925l4.979-.462c.55-.051.954-.538.903-1.088-.051-.55-.538-.954-1.088-.903l-4.979.462c-.55.051-.954.538-.903 1.088.051.55.538.954 1.088.903zm9.957-.925l4.979-.462c.55-.051.954-.538.903-1.088-.051-.55-.538-.954-1.088-.903l-4.979.462c-.55.051-.954.538-.903 1.088.051.55.538.954 1.088.903zm9.957-.925l4.979-.462c.55-.051.954-.538.903-1.088-.051-.55-.538-.954-1.088-.903l-4.979.462c-.55.051-.954.538-.903 1.088.051.55.538.954 1.088.903zm9.957-.925l4.979-.462c.55-.051.954-.538.903-1.088-.051-.55-.538-.954-1.088-.903l-4.979.462c-.55.051-.954.538-.903 1.088.051.55.538.954 1.088.903zm9.957-.925l4.979-.462c.55-.051.954-.538.903-1.088-.051-.55-.538-.954-1.088-.903l-4.979.462c-.55.051-.954.538-.903 1.088.051.55.538.954 1.088.903zm9.957-.925l4.979-.462c.55-.051.954-.538.903-1.088-.051-.55-.538-.954-1.088-.903l-4.979.462c-.55.051-.954.538-.903 1.088.051.55.538.954 1.088.903zm9.957-.925l4.979-.462c.55-.051.954-.538.903-1.088-.051-.55-.538-.954-1.088-.903l-4.979.462c-.55.051-.954.538-.903 1.088.051.55.538.954 1.088.903zm9.957-.925l4.979-.462c.55-.051.954-.538.903-1.088-.051-.55-.538-.954-1.088-.903l-4.979.462c-.55.051-.954.538-.903 1.088.051.55.538.954 1.088.903zm9.957-.925l4.979-.462c.55-.051.954-.538.903-1.088-.051-.55-.538-.954-1.088-.903l-4.979.462c-.55.051-.954.538-.903 1.088.051.55.538.954 1.088.903zm9.957-.925l4.979-.462c.55-.051.954-.538.903-1.088-.051-.55-.538-.954-1.088-.903l-4.979.462c-.55.051-.954.538-.903 1.088.051.55.538.954 1.088.903zm9.957-.925l4.979-.462c.55-.051.954-.538.903-1.088-.051-.55-.538-.954-1.088-.903l-4.979.462c-.55.051-.954.538-.903 1.088.051.55.538.954 1.088.903zm9.957-.925l4.979-.462c.55-.051.954-.538.903-1.088-.051-.55-.538-.954-1.088-.903l-4.979.462c-.55.051-.954.538-.903 1.088.051.55.538.954 1.088.903zm9.957-.925l4.979-.462c.55-.051.954-.538.903-1.088-.051-.55-.538-.954-1.088-.903l-4.979.462c-.55.051-.954.538-.903 1.088.051.55.538.954 1.088.903zm9.957-.925l4.979-.462c.55-.051.954-.538.903-1.088-.051-.55-.538-.954-1.088-.903l-4.979.462c-.55.051-.954.538-.903 1.088.051.55.538.954 1.088.903zm9.957-.925l4.979-.462c.55-.051.954-.538.903-1.088-.051-.55-.538-.954-1.088-.903l-4.979.462c-.55.051-.954.538-.903 1.088.051.55.538.954 1.088.903zm9.957-.925l4.979-.462c.55-.051.954-.538.903-1.088-.051-.55-.538-.954-1.088-.903l-4.979.462c-.55.051-.954.538-.903 1.088.051.55.538.954 1.088.903zm9.957-.925l4.979-.462c.55-.051.954-.538.903-1.088-.051-.55-.538-.954-1.088-.903l-4.979.462c-.55.051-.954.538-.903 1.088.051.55.538.954 1.088.903zm9.957-.925l4.979-.462c.55-.051.954-.538.903-1.088-.051-.55-.538-.954-1.088-.903l-4.979.462c-.55.051-.954.538-.903 1.088.051.55.538.954 1.088.903zm9.957-.925l4.979-.462c.55-.051.954-.538.903-1.088-.051-.55-.538-.954-1.088-.903l-4.979.462c-.55.051-.954.538-.903 1.088.051.55.538.954 1.088.903zm9.957-.925l4.979-.462c.55-.051.954-.538.903-1.088-.051-.55-.538-.954-1.088-.903l-4.979.462c-.55.051-.954.538-.903 1.088.051.55.538.954 1.088.903zm8.958.117l4.079 2.892c.451.319 1.075.213 1.394-.237.319-.451.213-1.075-.237-1.394l-4.079-2.892c-.451-.319-1.075-.213-1.394.237-.319.451-.213 1.075.237 1.394zm8.157 5.784l4.079 2.892c.451.319 1.075.213 1.394-.237.319-.451.213-1.075-.237-1.394l-4.079-2.892c-.451-.319-1.075-.213-1.394.237-.319.451-.213 1.075.237 1.394zm8.157 5.784l4.079 2.892c.451.319 1.075.213 1.394-.237.319-.451.213-1.075-.237-1.394l-4.079-2.892c-.451-.319-1.075-.213-1.394.237-.319.451-.213 1.075.237 1.394zm8.157 5.784l4.079 2.892c.451.319 1.075.213 1.394-.237.319-.451.213-1.075-.237-1.394l-4.079-2.892c-.451-.319-1.075-.213-1.394.237-.319.451-.213 1.075.237 1.394zm8.157 5.784l4.079 2.892c.451.319 1.075.213 1.394-.237.319-.451.213-1.075-.237-1.394l-4.079-2.892c-.451-.319-1.075-.213-1.394.237-.319.451-.213 1.075.237 1.394zm8.157 5.784l4.079 2.892c.451.319 1.075.213 1.394-.237.319-.451.213-1.075-.237-1.394l-4.079-2.892c-.451-.319-1.075-.213-1.394.237-.319.451-.213 1.075.237 1.394zm8.157 5.784l4.079 2.892c.451.319 1.075.213 1.394-.237.319-.451.213-1.075-.237-1.394l-4.079-2.892c-.451-.319-1.075-.213-1.394.237-.319.451-.213 1.075.237 1.394zm8.157 5.784l4.079 2.892c.451.319 1.075.213 1.394-.237.319-.451.213-1.075-.237-1.394l-4.079-2.892c-.451-.319-1.075-.213-1.394.237-.319.451-.213 1.075.237 1.394zm8.157 5.784l4.079 2.892c.451.319 1.075.213 1.394-.237.319-.451.213-1.075-.237-1.394l-4.079-2.892c-.451-.319-1.075-.213-1.394.237-.319.451-.213 1.075.237 1.394zm8.157 5.784l4.079 2.892c.451.319 1.075.213 1.394-.237.319-.451.213-1.075-.237-1.394l-4.079-2.892c-.451-.319-1.075-.213-1.394.237-.319.451-.213 1.075.237 1.394zm8.157 5.784l4.079 2.892c.451.319 1.075.213 1.394-.237.319-.451.213-1.075-.237-1.394l-4.079-2.892c-.451-.319-1.075-.213-1.394.237-.319.451-.213 1.075.237 1.394zm8.157 5.784l4.079 2.892c.451.319 1.075.213 1.394-.237.319-.451.213-1.075-.237-1.394l-4.079-2.892c-.451-.319-1.075-.213-1.394.237-.319.451-.213 1.075.237 1.394zm8.157 5.784l4.079 2.892c.451.319 1.075.213 1.394-.237.319-.451.213-1.075-.237-1.394l-4.079-2.892c-.451-.319-1.075-.213-1.394.237-.319.451-.213 1.075.237 1.394zm8.157 5.784l4.079 2.892c.451.319 1.075.213 1.394-.237.319-.451.213-1.075-.237-1.394l-4.079-2.892c-.451-.319-1.075-.213-1.394.237-.319.451-.213 1.075.237 1.394zm8.157 5.784l4.079 2.892c.451.319 1.075.213 1.394-.237.319-.451.213-1.075-.237-1.394l-4.079-2.892c-.451-.319-1.075-.213-1.394.237-.319.451-.213 1.075.237 1.394zm8.157 5.784l4.079 2.892c.451.319 1.075.213 1.394-.237.319-.451.213-1.075-.237-1.394l-4.079-2.892c-.451-.319-1.075-.213-1.394.237-.319.451-.213 1.075.237 1.394zm8.157 5.784l4.079 2.892c.451.319 1.075.213 1.394-.237.319-.451.213-1.075-.237-1.394l-4.079-2.892c-.451-.319-1.075-.213-1.394.237-.319.451-.213 1.075.237 1.394zm8.78 6.672c-.045.55.365 1.033.915 1.078l5.307.435-5.688-4.033c-.451-.319-1.075-.213-1.394.237-.319.451-.213 1.075.237 1.394l.728.516c-.057.113-.094.238-.105.372zm-3.905-1.323l-4.983-.408c-.55-.045-1.033.365-1.078.915-.045.55.365 1.033.915 1.078l4.983.408c.55.045 1.033-.365 1.078-.915.045-.55-.365-1.033-.915-1.078zm-9.967-.817l-4.983-.408c-.55-.045-1.033.365-1.078.915-.045.55.365 1.033.915 1.078l4.983.408c.55.045 1.033-.365 1.078-.915.045-.55-.365-1.033-.915-1.078zm-9.967-.817l-4.983-.408c-.55-.045-1.033.365-1.078.915-.045.55.365 1.033.915 1.078l4.983.408c.55.045 1.033-.365 1.078-.915.045-.55-.365-1.033-.915-1.078zm-9.967-.817l-4.983-.408c-.55-.045-1.033.365-1.078.915-.045.55.365 1.033.915 1.078l4.983.408c.55.045 1.033-.365 1.078-.915.045-.55-.365-1.033-.915-1.078zm-9.967-.817l-4.983-.408c-.55-.045-1.033.365-1.078.915-.045.55.365 1.033.915 1.078l4.983.408c.55.045 1.033-.365 1.078-.915.045-.55-.365-1.033-.915-1.078zm-9.967-.817l-4.983-.408c-.55-.045-1.033.365-1.078.915-.045.55.365 1.033.915 1.078l4.983.408c.55.045 1.033-.365 1.078-.915.045-.55-.365-1.033-.915-1.078zm-9.967-.817l-4.983-.408c-.55-.045-1.033.365-1.078.915-.045.55.365 1.033.915 1.078l4.983.408c.55.045 1.033-.365 1.078-.915.045-.55-.365-1.033-.915-1.078zm-9.967-.817l-4.983-.408c-.55-.045-1.033.365-1.078.915-.045.55.365 1.033.915 1.078l4.983.408c.55.045 1.033-.365 1.078-.915.045-.55-.365-1.033-.915-1.078zm-9.967-.817l-4.983-.408c-.55-.045-1.033.365-1.078.915-.045.55.365 1.033.915 1.078l4.983.408c.55.045 1.033-.365 1.078-.915.045-.55-.365-1.033-.915-1.078zm-9.967-.817l-4.983-.408c-.55-.045-1.033.365-1.078.915-.045.55.365 1.033.915 1.078l4.983.408c.55.045 1.033-.365 1.078-.915.045-.55-.365-1.033-.915-1.078zm-9.967-.817l-4.983-.408c-.55-.045-1.033.365-1.078.915-.045.55.365 1.033.915 1.078l4.983.408c.55.045 1.033-.365 1.078-.915.045-.55-.365-1.033-.915-1.078zm-9.967-.817l-4.983-.408c-.55-.045-1.033.365-1.078.915-.045.55.365 1.033.915 1.078l4.983.408c.55.045 1.033-.365 1.078-.915.045-.55-.365-1.033-.915-1.078zm-9.967-.817l-4.983-.408c-.55-.045-1.033.365-1.078.915-.045.55.365 1.033.915 1.078l4.983.408c.55.045 1.033-.365 1.078-.915.045-.55-.365-1.033-.915-1.078zm-9.967-.817l-4.983-.408c-.55-.045-1.033.365-1.078.915-.045.55.365 1.033.915 1.078l4.983.408c.55.045 1.033-.365 1.078-.915.045-.55-.365-1.033-.915-1.078zm-9.967-.817l-4.983-.408c-.55-.045-1.033.365-1.078.915-.045.55.365 1.033.915 1.078l4.983.408c.55.045 1.033-.365 1.078-.915.045-.55-.365-1.033-.915-1.078zm-9.967-.817l-4.983-.408c-.55-.045-1.033.365-1.078.915-.045.55.365 1.033.915 1.078l4.983.408c.55.045 1.033-.365 1.078-.915.045-.55-.365-1.033-.915-1.078zm-9.967-.817l-4.983-.408c-.55-.045-1.033.365-1.078.915-.045.55.365 1.033.915 1.078l4.983.408c.55.045 1.033-.365 1.078-.915.045-.55-.365-1.033-.915-1.078zm-9.967-.817l-4.983-.408c-.55-.045-1.033.365-1.078.915-.045.55.365 1.033.915 1.078l4.983.408c.55.045 1.033-.365 1.078-.915.045-.55-.365-1.033-.915-1.078zm-9.967-.817l-4.983-.408c-.55-.045-1.033.365-1.078.915-.045.55.365 1.033.915 1.078l4.983.408c.55.045 1.033-.365 1.078-.915.045-.55-.365-1.033-.915-1.078zm-9.967-.817l-4.983-.408c-.55-.045-1.033.365-1.078.915-.045.55.365 1.033.915 1.078l4.983.408c.55.045 1.033-.365 1.078-.915.045-.55-.365-1.033-.915-1.078zm-9.967-.817l-4.983-.408c-.55-.045-1.033.365-1.078.915-.045.55.365 1.033.915 1.078l4.983.408c.55.045 1.033-.365 1.078-.915.045-.55-.365-1.033-.915-1.078zm-9.967-.817l-4.983-.408c-.55-.045-1.033.365-1.078.915-.045.55.365 1.033.915 1.078l4.983.408c.55.045 1.033-.365 1.078-.915.045-.55-.365-1.033-.915-1.078zm-9.967-.817l-4.983-.408c-.55-.045-1.033.365-1.078.915-.045.55.365 1.033.915 1.078l4.983.408c.55.045 1.033-.365 1.078-.915.045-.55-.365-1.033-.915-1.078zm-9.967-.817l-4.983-.408c-.55-.045-1.033.365-1.078.915-.045.55.365 1.033.915 1.078l4.983.408c.55.045 1.033-.365 1.078-.915.045-.55-.365-1.033-.915-1.078zm-9.967-.817l-4.983-.408c-.55-.045-1.033.365-1.078.915-.045.55.365 1.033.915 1.078l4.983.408c.55.045 1.033-.365 1.078-.915.045-.55-.365-1.033-.915-1.078zm-9.967-.817l-4.983-.408c-.55-.045-1.033.365-1.078.915-.045.55.365 1.033.915 1.078l4.983.408c.55.045 1.033-.365 1.078-.915.045-.55-.365-1.033-.915-1.078zm-9.967-.817l-4.983-.408c-.55-.045-1.033.365-1.078.915-.045.55.365 1.033.915 1.078l4.983.408c.55.045 1.033-.365 1.078-.915.045-.55-.365-1.033-.915-1.078zm-9.967-.817l-4.983-.408c-.55-.045-1.033.365-1.078.915-.045.55.365 1.033.915 1.078l4.983.408c.55.045 1.033-.365 1.078-.915.045-.55-.365-1.033-.915-1.078zm-9.967-.817l-4.983-.408c-.55-.045-1.033.365-1.078.915-.045.55.365 1.033.915 1.078l4.983.408c.55.045 1.033-.365 1.078-.915.045-.55-.365-1.033-.915-1.078zm-9.967-.817l-4.983-.408c-.55-.045-1.033.365-1.078.915-.045.55.365 1.033.915 1.078l4.983.408c.55.045 1.033-.365 1.078-.915.045-.55-.365-1.033-.915-1.078zm-9.967-.817l-4.983-.408c-.55-.045-1.033.365-1.078.915-.045.55.365 1.033.915 1.078l4.983.408c.55.045 1.033-.365 1.078-.915.045-.55-.365-1.033-.915-1.078zm-9.967-.817l-4.983-.408c-.55-.045-1.033.365-1.078.915-.045.55.365 1.033.915 1.078l4.983.408c.55.045 1.033-.365 1.078-.915.045-.55-.365-1.033-.915-1.078zm-9.963-.817l-4.982-.426c-.55-.047-1.034.361-1.082.911-.047.55.361 1.034.911 1.082l4.982.426c.55.047 1.034-.361 1.082-.911.047-.55-.361-1.034-.911-1.082zm-9.964-.851l-4.982-.426c-.55-.047-1.034.361-1.082.911-.047.55.361 1.034.911 1.082l4.982.426c.55.047 1.034-.361 1.082-.911.047-.55-.361-1.034-.911-1.082zm-9.964-.851l-4.982-.426c-.55-.047-1.034.361-1.082.911-.047.55.361 1.034.911 1.082l4.982.426c.55.047 1.034-.361 1.082-.911.047-.55-.361-1.034-.911-1.082zm-9.964-.851l-4.982-.426c-.55-.047-1.034.361-1.082.911-.047.55.361 1.034.911 1.082l4.982.426c.55.047 1.034-.361 1.082-.911.047-.55-.361-1.034-.911-1.082zm-9.964-.851l-4.982-.426c-.55-.047-1.034.361-1.082.911-.047.55.361 1.034.911 1.082l4.982.426c.55.047 1.034-.361 1.082-.911.047-.55-.361-1.034-.911-1.082zm-9.964-.851l-4.982-.426c-.55-.047-1.034.361-1.082.911-.047.55.361 1.034.911 1.082l4.982.426c.55.047 1.034-.361 1.082-.911.047-.55-.361-1.034-.911-1.082zm-9.964-.851l-4.982-.426c-.55-.047-1.034.361-1.082.911-.047.55.361 1.034.911 1.082l4.982.426c.55.047 1.034-.361 1.082-.911.047-.55-.361-1.034-.911-1.082zm-9.964-.851l-4.982-.426c-.55-.047-1.034.361-1.082.911-.047.55.361 1.034.911 1.082l4.982.426c.55.047 1.034-.361 1.082-.911.047-.55-.361-1.034-.911-1.082zm-9.964-.851l-4.982-.426c-.55-.047-1.034.361-1.082.911-.047.55.361 1.034.911 1.082l4.982.426c.55.047 1.034-.361 1.082-.911.047-.55-.361-1.034-.911-1.082zm-9.964-.851l-4.982-.426c-.55-.047-1.034.361-1.082.911-.047.55.361 1.034.911 1.082l4.982.426c.55.047 1.034-.361 1.082-.911.047-.55-.361-1.034-.911-1.082zm-9.964-.851l-4.982-.426c-.55-.047-1.034.361-1.082.911-.047.55.361 1.034.911 1.082l4.982.426c.55.047 1.034-.361 1.082-.911.047-.55-.361-1.034-.911-1.082zm-9.964-.851l-4.982-.426c-.55-.047-1.034.361-1.082.911-.047.55.361 1.034.911 1.082l4.982.426c.55.047 1.034-.361 1.082-.911.047-.55-.361-1.034-.911-1.082zm-9.964-.851l-4.982-.426c-.55-.047-1.034.361-1.082.911-.047.55.361 1.034.911 1.082l4.982.426c.55.047 1.034-.361 1.082-.911.047-.55-.361-1.034-.911-1.082zm-9.964-.851l-4.982-.426c-.55-.047-1.034.361-1.082.911-.047.55.361 1.034.911 1.082l4.982.426c.55.047 1.034-.361 1.082-.911.047-.55-.361-1.034-.911-1.082zm-9.964-.851l-4.982-.426c-.55-.047-1.034.361-1.082.911-.047.55.361 1.034.911 1.082l4.982.426c.55.047 1.034-.361 1.082-.911.047-.55-.361-1.034-.911-1.082zm-9.964-.851l-4.982-.426c-.55-.047-1.034.361-1.082.911-.047.55.361 1.034.911 1.082l4.982.426c.55.047 1.034-.361 1.082-.911.047-.55-.361-1.034-.911-1.082zm-9.964-.851l-4.982-.426c-.55-.047-1.034.361-1.082.911-.047.55.361 1.034.911 1.082l4.982.426c.55.047 1.034-.361 1.082-.911.047-.55-.361-1.034-.911-1.082zm-9.964-.851l-4.982-.426c-.55-.047-1.034.361-1.082.911-.047.55.361 1.034.911 1.082l4.982.426c.55.047 1.034-.361 1.082-.911.047-.55-.361-1.034-.911-1.082zm-9.964-.851l-4.982-.426c-.55-.047-1.034.361-1.082.911-.047.55.361 1.034.911 1.082l4.982.426c.55.047 1.034-.361 1.082-.911.047-.55-.361-1.034-.911-1.082zm-9.964-.851l-4.982-.426c-.55-.047-1.034.361-1.082.911-.047.55.361 1.034.911 1.082l4.982.426c.55.047 1.034-.361 1.082-.911.047-.55-.361-1.034-.911-1.082zm-9.964-.851l-4.982-.426c-.55-.047-1.034.361-1.082.911-.047.55.361 1.034.911 1.082l4.982.426c.55.047 1.034-.361 1.082-.911.047-.55-.361-1.034-.911-1.082zm-9.964-.851l-4.982-.426c-.55-.047-1.034.361-1.082.911-.047.55.361 1.034.911 1.082l4.982.426c.55.047 1.034-.361 1.082-.911.047-.55-.361-1.034-.911-1.082zm-9.964-.851l-4.982-.426c-.55-.047-1.034.361-1.082.911-.047.55.361 1.034.911 1.082l4.982.426c.55.047 1.034-.361 1.082-.911.047-.55-.361-1.034-.911-1.082zm-9.964-.851l-4.982-.426c-.55-.047-1.034.361-1.082.911-.047.55.361 1.034.911 1.082l4.982.426c.55.047 1.034-.361 1.082-.911.047-.55-.361-1.034-.911-1.082zm-9.964-.851l-4.982-.426c-.55-.047-1.034.361-1.082.911-.047.55.361 1.034.911 1.082l4.982.426c.55.047 1.034-.361 1.082-.911.047-.55-.361-1.034-.911-1.082zm-9.964-.851l-4.982-.426c-.55-.047-1.034.361-1.082.911-.047.55.361 1.034.911 1.082l4.982.426c.55.047 1.034-.361 1.082-.911.047-.55-.361-1.034-.911-1.082zm-9.964-.851l-4.982-.426c-.55-.047-1.034.361-1.082.911-.047.55.361 1.034.911 1.082l4.982.426c.55.047 1.034-.361 1.082-.911.047-.55-.361-1.034-.911-1.082zm-9.964-.851l-4.982-.426c-.55-.047-1.034.361-1.082.911-.047.55.361 1.034.911 1.082l4.982.426c.55.047 1.034-.361 1.082-.911.047-.55-.361-1.034-.911-1.082zm-9.964-.851l-4.982-.426c-.55-.047-1.034.361-1.082.911-.047.55.361 1.034.911 1.082l4.982.426c.55.047 1.034-.361 1.082-.911.047-.55-.361-1.034-.911-1.082zm-9.964-.851l-4.982-.426c-.55-.047-1.034.361-1.082.911-.047.55.361 1.034.911 1.082l4.982.426c.55.047 1.034-.361 1.082-.911.047-.55-.361-1.034-.911-1.082zm-9.964-.851l-4.982-.426c-.55-.047-1.034.361-1.082.911-.047.55.361 1.034.911 1.082l4.982.426c.55.047 1.034-.361 1.082-.911.047-.55-.361-1.034-.911-1.082zm-9.964-.851c.55.047.958.531.911 1.082-.047.55-.531.958-1.082.911l-4.982-.426c-.55-.047-.958-.531-.911-1.082.047-.55.531-.958 1.082-.911l4.982.426zm-9.964-.851c.55.047.958.531.911 1.082-.047.55-.531.958-1.082.911l-4.452-.38c-.55-.047-.958-.531-.911-1.082.047-.55.531-.958 1.082-.911l4.452.38z" fill="#E6F5FB"/><path fill-opacity=".03" fill="#00A1DE" d="M222.384 17.583l689.616 98.417-62.949 71.306z"/><path d="M222.243 18.573c-.547-.078-.927-.585-.849-1.131.078-.547.585-.927 1.131-.849l4.95.706c.547.078.927.585.849 1.131-.078.547-.585.927-1.131.849l-4.95-.706zm9.9 1.413c-.547-.078-.927-.585-.849-1.131.078-.547.585-.927 1.131-.849l4.95.706c.547.078.927.585.849 1.131-.078.547-.585.927-1.131.849l-4.95-.706zm9.9 1.413c-.547-.078-.927-.585-.849-1.131.078-.547.585-.927 1.131-.849l4.95.706c.547.078.927.585.849 1.131-.078.547-.585.927-1.131.849l-4.95-.706zm9.9 1.413c-.547-.078-.927-.585-.849-1.131.078-.547.585-.927 1.131-.849l4.95.706c.547.078.927.585.849 1.131-.078.547-.585.927-1.131.849l-4.95-.706zm9.9 1.413l4.95.706c.547.078 1.053-.302 1.131-.849.078-.547-.302-1.053-.849-1.131l-4.95-.706c-.547-.078-1.053.302-1.131.849-.078.547.302 1.053.849 1.131zm9.9 1.413l4.95.706c.547.078 1.053-.302 1.131-.849.078-.547-.302-1.053-.849-1.131l-4.95-.706c-.547-.078-1.053.302-1.131.849-.078.547.302 1.053.849 1.131zm9.9 1.413l4.95.706c.547.078 1.053-.302 1.131-.849.078-.547-.302-1.053-.849-1.131l-4.95-.706c-.547-.078-1.053.302-1.131.849-.078.547.302 1.053.849 1.131zm9.9 1.413l4.95.706c.547.078 1.053-.302 1.131-.849.078-.547-.302-1.053-.849-1.131l-4.95-.706c-.547-.078-1.053.302-1.131.849-.078.547.302 1.053.849 1.131zm9.9 1.413l4.95.706c.547.078 1.053-.302 1.131-.849.078-.547-.302-1.053-.849-1.131l-4.95-.706c-.547-.078-1.053.302-1.131.849-.078.547.302 1.053.849 1.131zm9.9 1.413l4.95.706c.547.078 1.053-.302 1.131-.849.078-.547-.302-1.053-.849-1.131l-4.95-.706c-.547-.078-1.053.302-1.131.849-.078.547.302 1.053.849 1.131zm9.9 1.413l4.95.706c.547.078 1.053-.302 1.131-.849.078-.547-.302-1.053-.849-1.131l-4.95-.706c-.547-.078-1.053.302-1.131.849-.078.547.302 1.053.849 1.131zm9.9 1.413l4.95.706c.547.078 1.053-.302 1.131-.849.078-.547-.302-1.053-.849-1.131l-4.95-.706c-.547-.078-1.053.302-1.131.849-.078.547.302 1.053.849 1.131zm9.9 1.413l4.95.706c.547.078 1.053-.302 1.131-.849.078-.547-.302-1.053-.849-1.131l-4.95-.706c-.547-.078-1.053.302-1.131.849-.078.547.302 1.053.849 1.131zm9.9 1.413l4.95.706c.547.078 1.053-.302 1.131-.849.078-.547-.302-1.053-.849-1.131l-4.95-.706c-.547-.078-1.053.302-1.131.849-.078.547.302 1.053.849 1.131zm9.9 1.413l4.95.706c.547.078 1.053-.302 1.131-.849.078-.547-.302-1.053-.849-1.131l-4.95-.706c-.547-.078-1.053.302-1.131.849-.078.547.302 1.053.849 1.131zm9.9 1.413l4.95.706c.547.078 1.053-.302 1.131-.849.078-.547-.302-1.053-.849-1.131l-4.95-.706c-.547-.078-1.053.302-1.131.849-.078.547.302 1.053.849 1.131zm9.9 1.413l4.95.706c.547.078 1.053-.302 1.131-.849.078-.547-.302-1.053-.849-1.131l-4.95-.706c-.547-.078-1.053.302-1.131.849-.078.547.302 1.053.849 1.131zm9.9 1.413l4.95.706c.547.078 1.053-.302 1.131-.849.078-.547-.302-1.053-.849-1.131l-4.95-.706c-.547-.078-1.053.302-1.131.849-.078.547.302 1.053.849 1.131zm9.9 1.413l4.95.706c.547.078 1.053-.302 1.131-.849.078-.547-.302-1.053-.849-1.131l-4.95-.706c-.547-.078-1.053.302-1.131.849-.078.547.302 1.053.849 1.131zm9.9 1.413l4.95.706c.547.078 1.053-.302 1.131-.849.078-.547-.302-1.053-.849-1.131l-4.95-.706c-.547-.078-1.053.302-1.131.849-.078.547.302 1.053.849 1.131zm9.9 1.413l4.95.706c.547.078 1.053-.302 1.131-.849.078-.547-.302-1.053-.849-1.131l-4.95-.706c-.547-.078-1.053.302-1.131.849-.078.547.302 1.053.849 1.131zm9.9 1.413l4.95.706c.547.078 1.053-.302 1.131-.849.078-.547-.302-1.053-.849-1.131l-4.95-.706c-.547-.078-1.053.302-1.131.849-.078.547.302 1.053.849 1.131zm9.9 1.413l4.95.706c.547.078 1.053-.302 1.131-.849.078-.547-.302-1.053-.849-1.131l-4.95-.706c-.547-.078-1.053.302-1.131.849-.078.547.302 1.053.849 1.131zm9.9 1.413l4.95.706c.547.078 1.053-.302 1.131-.849.078-.547-.302-1.053-.849-1.131l-4.95-.706c-.547-.078-1.053.302-1.131.849-.078.547.302 1.053.849 1.131zm9.9 1.413l4.95.706c.547.078 1.053-.302 1.131-.849.078-.547-.302-1.053-.849-1.131l-4.95-.706c-.547-.078-1.053.302-1.131.849-.078.547.302 1.053.849 1.131zm9.9 1.413l4.95.706c.547.078 1.053-.302 1.131-.849.078-.547-.302-1.053-.849-1.131l-4.95-.706c-.547-.078-1.053.302-1.131.849-.078.547.302 1.053.849 1.131zm9.9 1.413l4.95.706c.547.078 1.053-.302 1.131-.849.078-.547-.302-1.053-.849-1.131l-4.95-.706c-.547-.078-1.053.302-1.131.849-.078.547.302 1.053.849 1.131zm9.9 1.413l4.95.706c.547.078 1.053-.302 1.131-.849.078-.547-.302-1.053-.849-1.131l-4.95-.706c-.547-.078-1.053.302-1.131.849-.078.547.302 1.053.849 1.131zm9.9 1.413l4.95.706c.547.078 1.053-.302 1.131-.849.078-.547-.302-1.053-.849-1.131l-4.95-.706c-.547-.078-1.053.302-1.131.849-.078.547.302 1.053.849 1.131zm9.9 1.413l4.95.706c.547.078 1.053-.302 1.131-.849.078-.547-.302-1.053-.849-1.131l-4.95-.706c-.547-.078-1.053.302-1.131.849-.078.547.302 1.053.849 1.131zm9.9 1.413l4.95.706c.547.078 1.053-.302 1.131-.849.078-.547-.302-1.053-.849-1.131l-4.95-.706c-.547-.078-1.053.302-1.131.849-.078.547.302 1.053.849 1.131zm9.9 1.413l4.95.706c.547.078 1.053-.302 1.131-.849.078-.547-.302-1.053-.849-1.131l-4.95-.706c-.547-.078-1.053.302-1.131.849-.078.547.302 1.053.849 1.131zm9.9 1.413l4.95.706c.547.078 1.053-.302 1.131-.849.078-.547-.302-1.053-.849-1.131l-4.95-.706c-.547-.078-1.053.302-1.131.849-.078.547.302 1.053.849 1.131zm9.9 1.413l4.95.706c.547.078 1.053-.302 1.131-.849.078-.547-.302-1.053-.849-1.131l-4.95-.706c-.547-.078-1.053.302-1.131.849-.078.547.302 1.053.849 1.131zm9.9 1.413l4.95.706c.547.078 1.053-.302 1.131-.849.078-.547-.302-1.053-.849-1.131l-4.95-.706c-.547-.078-1.053.302-1.131.849-.078.547.302 1.053.849 1.131zm9.9 1.413l4.95.706c.547.078 1.053-.302 1.131-.849.078-.547-.302-1.053-.849-1.131l-4.95-.706c-.547-.078-1.053.302-1.131.849-.078.547.302 1.053.849 1.131zm9.9 1.413l4.95.706c.547.078 1.053-.302 1.131-.849.078-.547-.302-1.053-.849-1.131l-4.95-.706c-.547-.078-1.053.302-1.131.849-.078.547.302 1.053.849 1.131zm9.9 1.413l4.95.706c.547.078 1.053-.302 1.131-.849.078-.547-.302-1.053-.849-1.131l-4.95-.706c-.547-.078-1.053.302-1.131.849-.078.547.302 1.053.849 1.131zm9.9 1.413l4.95.706c.547.078 1.053-.302 1.131-.849.078-.547-.302-1.053-.849-1.131l-4.95-.706c-.547-.078-1.053.302-1.131.849-.078.547.302 1.053.849 1.131zm9.9 1.413l4.95.706c.547.078 1.053-.302 1.131-.849.078-.547-.302-1.053-.849-1.131l-4.95-.706c-.547-.078-1.053.302-1.131.849-.078.547.302 1.053.849 1.131zm9.9 1.413l4.95.706c.547.078 1.053-.302 1.131-.849.078-.547-.302-1.053-.849-1.131l-4.95-.706c-.547-.078-1.053.302-1.131.849-.078.547.302 1.053.849 1.131zm9.9 1.413l4.95.706c.547.078 1.053-.302 1.131-.849.078-.547-.302-1.053-.849-1.131l-4.95-.706c-.547-.078-1.053.302-1.131.849-.078.547.302 1.053.849 1.131zm9.9 1.413l4.95.706c.547.078 1.053-.302 1.131-.849.078-.547-.302-1.053-.849-1.131l-4.95-.706c-.547-.078-1.053.302-1.131.849-.078.547.302 1.053.849 1.131zm9.9 1.413l4.95.706c.547.078 1.053-.302 1.131-.849.078-.547-.302-1.053-.849-1.131l-4.95-.706c-.547-.078-1.053.302-1.131.849-.078.547.302 1.053.849 1.131zm9.9 1.413l4.95.706c.547.078 1.053-.302 1.131-.849.078-.547-.302-1.053-.849-1.131l-4.95-.706c-.547-.078-1.053.302-1.131.849-.078.547.302 1.053.849 1.131zm9.9 1.413l4.95.706c.547.078 1.053-.302 1.131-.849.078-.547-.302-1.053-.849-1.131l-4.95-.706c-.547-.078-1.053.302-1.131.849-.078.547.302 1.053.849 1.131zm9.9 1.413l4.95.706c.547.078 1.053-.302 1.131-.849.078-.547-.302-1.053-.849-1.131l-4.95-.706c-.547-.078-1.053.302-1.131.849-.078.547.302 1.053.849 1.131zm9.9 1.413l4.95.706c.547.078 1.053-.302 1.131-.849.078-.547-.302-1.053-.849-1.131l-4.95-.706c-.547-.078-1.053.302-1.131.849-.078.547.302 1.053.849 1.131zm9.9 1.413l4.95.706c.547.078 1.053-.302 1.131-.849.078-.547-.302-1.053-.849-1.131l-4.95-.706c-.547-.078-1.053.302-1.131.849-.078.547.302 1.053.849 1.131zm9.9 1.413l4.95.706c.547.078 1.053-.302 1.131-.849.078-.547-.302-1.053-.849-1.131l-4.95-.706c-.547-.078-1.053.302-1.131.849-.078.547.302 1.053.849 1.131zm9.9 1.413l4.95.706c.547.078 1.053-.302 1.131-.849.078-.547-.302-1.053-.849-1.131l-4.95-.706c-.547-.078-1.053.302-1.131.849-.078.547.302 1.053.849 1.131zm9.9 1.413l4.95.706c.547.078 1.053-.302 1.131-.849.078-.547-.302-1.053-.849-1.131l-4.95-.706c-.547-.078-1.053.302-1.131.849-.078.547.302 1.053.849 1.131zm9.9 1.413l4.95.706c.547.078 1.053-.302 1.131-.849.078-.547-.302-1.053-.849-1.131l-4.95-.706c-.547-.078-1.053.302-1.131.849-.078.547.302 1.053.849 1.131zm9.9 1.413l4.95.706c.547.078 1.053-.302 1.131-.849.078-.547-.302-1.053-.849-1.131l-4.95-.706c-.547-.078-1.053.302-1.131.849-.078.547.302 1.053.849 1.131zm9.9 1.413l4.95.706c.547.078 1.053-.302 1.131-.849.078-.547-.302-1.053-.849-1.131l-4.95-.706c-.547-.078-1.053.302-1.131.849-.078.547.302 1.053.849 1.131zm9.9 1.413l4.95.706c.547.078 1.053-.302 1.131-.849.078-.547-.302-1.053-.849-1.131l-4.95-.706c-.547-.078-1.053.302-1.131.849-.078.547.302 1.053.849 1.131zm9.9 1.413l4.95.706c.547.078 1.053-.302 1.131-.849.078-.547-.302-1.053-.849-1.131l-4.95-.706c-.547-.078-1.053.302-1.131.849-.078.547.302 1.053.849 1.131zm9.9 1.413l4.95.706c.547.078 1.053-.302 1.131-.849.078-.547-.302-1.053-.849-1.131l-4.95-.706c-.547-.078-1.053.302-1.131.849-.078.547.302 1.053.849 1.131zm9.9 1.413l4.95.706c.547.078 1.053-.302 1.131-.849.078-.547-.302-1.053-.849-1.131l-4.95-.706c-.547-.078-1.053.302-1.131.849-.078.547.302 1.053.849 1.131zm9.9 1.413l4.95.706c.547.078 1.053-.302 1.131-.849.078-.547-.302-1.053-.849-1.131l-4.95-.706c-.547-.078-1.053.302-1.131.849-.078.547.302 1.053.849 1.131zm9.9 1.413l4.95.706c.547.078 1.053-.302 1.131-.849.078-.547-.302-1.053-.849-1.131l-4.95-.706c-.547-.078-1.053.302-1.131.849-.078.547.302 1.053.849 1.131zm9.9 1.413l4.95.706c.547.078 1.053-.302 1.131-.849.078-.547-.302-1.053-.849-1.131l-4.95-.706c-.547-.078-1.053.302-1.131.849-.078.547.302 1.053.849 1.131zm9.9 1.413l4.95.706c.547.078 1.053-.302 1.131-.849.078-.547-.302-1.053-.849-1.131l-4.95-.706c-.547-.078-1.053.302-1.131.849-.078.547.302 1.053.849 1.131zm9.9 1.413l4.95.706c.547.078 1.053-.302 1.131-.849.078-.547-.302-1.053-.849-1.131l-4.95-.706c-.547-.078-1.053.302-1.131.849-.078.547.302 1.053.849 1.131zm9.9 1.413l4.95.706c.547.078 1.053-.302 1.131-.849.078-.547-.302-1.053-.849-1.131l-4.95-.706c-.547-.078-1.053.302-1.131.849-.078.547.302 1.053.849 1.131zm9.9 1.413l4.95.706c.547.078 1.053-.302 1.131-.849.078-.547-.302-1.053-.849-1.131l-4.95-.706c-.547-.078-1.053.302-1.131.849-.078.547.302 1.053.849 1.131zm9.9 1.413l4.95.706c.547.078 1.053-.302 1.131-.849.078-.547-.302-1.053-.849-1.131l-4.95-.706c-.547-.078-1.053.302-1.131.849-.078.547.302 1.053.849 1.131zm9.9 1.413l4.95.706c.547.078 1.053-.302 1.131-.849.078-.547-.302-1.053-.849-1.131l-4.95-.706c-.547-.078-1.053.302-1.131.849-.078.547.302 1.053.849 1.131zm9.9 1.413l4.95.706c.547.078 1.053-.302 1.131-.849.078-.547-.302-1.053-.849-1.131l-4.95-.706c-.547-.078-1.053.302-1.131.849-.078.547.302 1.053.849 1.131zm9.9 1.413l4.95.706c.547.078 1.053-.302 1.131-.849.078-.547-.302-1.053-.849-1.131l-4.95-.706c-.547-.078-1.053.302-1.131.849-.078.547.302 1.053.849 1.131zm3.68 1.828l-3.309 3.748c-.366.414-.326 1.046.088 1.411.414.366 1.046.326 1.411-.088l3.309-3.748c.366-.414.326-1.046-.088-1.411-.414-.366-1.046-.326-1.411.088zm-6.618 7.497l-3.309 3.748c-.366.414-.326 1.046.088 1.411.414.366 1.046.326 1.411-.088l3.309-3.748c.366-.414.326-1.046-.088-1.411-.414-.366-1.046-.326-1.411.088zm-6.618 7.497l-3.309 3.748c-.366.414-.326 1.046.088 1.411.414.366 1.046.326 1.411-.088l3.309-3.748c.366-.414.326-1.046-.088-1.411-.414-.366-1.046-.326-1.411.088zm-6.618 7.497l-3.309 3.748c-.366.414-.326 1.046.088 1.411.414.366 1.046.326 1.411-.088l3.309-3.748c.366-.414.326-1.046-.088-1.411-.414-.366-1.046-.326-1.411.088zm-6.618 7.497l-3.309 3.748c-.366.414-.326 1.046.088 1.411.414.366 1.046.326 1.411-.088l3.309-3.748c.366-.414.326-1.046-.088-1.411-.414-.366-1.046-.326-1.411.088zm-6.618 7.497l-3.309 3.748c-.366.414-.326 1.046.088 1.411.414.366 1.046.326 1.411-.088l3.309-3.748c.366-.414.326-1.046-.088-1.411-.414-.366-1.046-.326-1.411.088zm-6.618 7.497l-3.309 3.748c-.366.414-.326 1.046.088 1.411.414.366 1.046.326 1.411-.088l3.309-3.748c.366-.414.326-1.046-.088-1.411-.414-.366-1.046-.326-1.411.088zm-6.618 7.497l-3.309 3.748c-.366.414-.326 1.046.088 1.411.414.366 1.046.326 1.411-.088l3.309-3.748c.366-.414.326-1.046-.088-1.411-.414-.366-1.046-.326-1.411.088zm-6.618 7.497l-3.309 3.748c-.366.414-.326 1.046.088 1.411.414.366 1.046.326 1.411-.088l3.309-3.748c.366-.414.326-1.046-.088-1.411-.414-.366-1.046-.326-1.411.088zm-9.912 7.624c-.533-.144-1.082.171-1.227.704-.144.533.171 1.082.704 1.227l3.767 1.02 1.549-1.755c.366-.414.326-1.046-.088-1.411-.414-.366-1.046-.326-1.411.088l-.726.823-2.567-.695zm-4.826-1.307l-4.826-1.307c-.533-.144-1.082.171-1.227.704-.144.533.171 1.082.704 1.227l4.826 1.307c.533.144 1.082-.171 1.227-.704.144-.533-.171-1.082-.704-1.227zm-9.652-2.614l-4.826-1.307c-.533-.144-1.082.171-1.227.704-.144.533.171 1.082.704 1.227l4.826 1.307c.533.144 1.082-.171 1.227-.704.144-.533-.171-1.082-.704-1.227zm-9.652-2.614l-4.826-1.307c-.533-.144-1.082.171-1.227.704-.144.533.171 1.082.704 1.227l4.826 1.307c.533.144 1.082-.171 1.227-.704.144-.533-.171-1.082-.704-1.227zm-9.652-2.614l-4.826-1.307c-.533-.144-1.082.171-1.227.704-.144.533.171 1.082.704 1.227l4.826 1.307c.533.144 1.082-.171 1.227-.704.144-.533-.171-1.082-.704-1.227zm-9.652-2.614l-4.826-1.307c-.533-.144-1.082.171-1.227.704-.144.533.171 1.082.704 1.227l4.826 1.307c.533.144 1.082-.171 1.227-.704.144-.533-.171-1.082-.704-1.227zm-9.652-2.614l-4.826-1.307c-.533-.144-1.082.171-1.227.704-.144.533.171 1.082.704 1.227l4.826 1.307c.533.144 1.082-.171 1.227-.704.144-.533-.171-1.082-.704-1.227zm-9.652-2.614l-4.826-1.307c-.533-.144-1.082.171-1.227.704-.144.533.171 1.082.704 1.227l4.826 1.307c.533.144 1.082-.171 1.227-.704.144-.533-.171-1.082-.704-1.227zm-9.652-2.614l-4.826-1.307c-.533-.144-1.082.171-1.227.704-.144.533.171 1.082.704 1.227l4.826 1.307c.533.144 1.082-.171 1.227-.704.144-.533-.171-1.082-.704-1.227zm-9.652-2.614l-4.826-1.307c-.533-.144-1.082.171-1.227.704-.144.533.171 1.082.704 1.227l4.826 1.307c.533.144 1.082-.171 1.227-.704.144-.533-.171-1.082-.704-1.227zm-9.652-2.614l-4.826-1.307c-.533-.144-1.082.171-1.227.704-.144.533.171 1.082.704 1.227l4.826 1.307c.533.144 1.082-.171 1.227-.704.144-.533-.171-1.082-.704-1.227zm-9.652-2.614l-4.826-1.307c-.533-.144-1.082.171-1.227.704-.144.533.171 1.082.704 1.227l4.826 1.307c.533.144 1.082-.171 1.227-.704.144-.533-.171-1.082-.704-1.227zm-9.652-2.614l-4.826-1.307c-.533-.144-1.082.171-1.227.704-.144.533.171 1.082.704 1.227l4.826 1.307c.533.144 1.082-.171 1.227-.704.144-.533-.171-1.082-.704-1.227zm-9.652-2.614l-4.826-1.307c-.533-.144-1.082.171-1.227.704-.144.533.171 1.082.704 1.227l4.826 1.307c.533.144 1.082-.171 1.227-.704.144-.533-.171-1.082-.704-1.227zm-9.652-2.614l-4.826-1.307c-.533-.144-1.082.171-1.227.704-.144.533.171 1.082.704 1.227l4.826 1.307c.533.144 1.082-.171 1.227-.704.144-.533-.171-1.082-.704-1.227zm-9.652-2.614l-4.826-1.307c-.533-.144-1.082.171-1.227.704-.144.533.171 1.082.704 1.227l4.826 1.307c.533.144 1.082-.171 1.227-.704.144-.533-.171-1.082-.704-1.227zm-9.652-2.614l-4.826-1.307c-.533-.144-1.082.171-1.227.704-.144.533.171 1.082.704 1.227l4.826 1.307c.533.144 1.082-.171 1.227-.704.144-.533-.171-1.082-.704-1.227zm-9.652-2.614l-4.826-1.307c-.533-.144-1.082.171-1.227.704-.144.533.171 1.082.704 1.227l4.826 1.307c.533.144 1.082-.171 1.227-.704.144-.533-.171-1.082-.704-1.227zm-9.652-2.614l-4.826-1.307c-.533-.144-1.082.171-1.227.704-.144.533.171 1.082.704 1.227l4.826 1.307c.533.144 1.082-.171 1.227-.704.144-.533-.171-1.082-.704-1.227zm-9.652-2.614l-4.826-1.307c-.533-.144-1.082.171-1.227.704-.144.533.171 1.082.704 1.227l4.826 1.307c.533.144 1.082-.171 1.227-.704.144-.533-.171-1.082-.704-1.227zm-9.652-2.614l-4.826-1.307c-.533-.144-1.082.171-1.227.704-.144.533.171 1.082.704 1.227l4.826 1.307c.533.144 1.082-.171 1.227-.704.144-.533-.171-1.082-.704-1.227zm-9.652-2.614l-4.826-1.307c-.533-.144-1.082.171-1.227.704-.144.533.171 1.082.704 1.227l4.826 1.307c.533.144 1.082-.171 1.227-.704.144-.533-.171-1.082-.704-1.227zm-9.652-2.614l-4.826-1.307c-.533-.144-1.082.171-1.227.704-.144.533.171 1.082.704 1.227l4.826 1.307c.533.144 1.082-.171 1.227-.704.144-.533-.171-1.082-.704-1.227zm-9.652-2.614l-4.826-1.307c-.533-.144-1.082.171-1.227.704-.144.533.171 1.082.704 1.227l4.826 1.307c.533.144 1.082-.171 1.227-.704.144-.533-.171-1.082-.704-1.227zm-9.652-2.614l-4.826-1.307c-.533-.144-1.082.171-1.227.704-.144.533.171 1.082.704 1.227l4.826 1.307c.533.144 1.082-.171 1.227-.704.144-.533-.171-1.082-.704-1.227zm-9.652-2.614l-4.826-1.307c-.533-.144-1.082.171-1.227.704-.144.533.171 1.082.704 1.227l4.826 1.307c.533.144 1.082-.171 1.227-.704.144-.533-.171-1.082-.704-1.227zm-9.652-2.614l-4.826-1.307c-.533-.144-1.082.171-1.227.704-.144.533.171 1.082.704 1.227l4.826 1.307c.533.144 1.082-.171 1.227-.704.144-.533-.171-1.082-.704-1.227zm-9.652-2.614l-4.826-1.307c-.533-.144-1.082.171-1.227.704-.144.533.171 1.082.704 1.227l4.826 1.307c.533.144 1.082-.171 1.227-.704.144-.533-.171-1.082-.704-1.227zm-9.652-2.614l-4.826-1.307c-.533-.144-1.082.171-1.227.704-.144.533.171 1.082.704 1.227l4.826 1.307c.533.144 1.082-.171 1.227-.704.144-.533-.171-1.082-.704-1.227zm-9.652-2.614l-4.826-1.307c-.533-.144-1.082.171-1.227.704-.144.533.171 1.082.704 1.227l4.826 1.307c.533.144 1.082-.171 1.227-.704.144-.533-.171-1.082-.704-1.227zm-9.652-2.614l-4.826-1.307c-.533-.144-1.082.171-1.227.704-.144.533.171 1.082.704 1.227l4.826 1.307c.533.144 1.082-.171 1.227-.704.144-.533-.171-1.082-.704-1.227zm-9.652-2.614l-4.826-1.307c-.533-.144-1.082.171-1.227.704-.144.533.171 1.082.704 1.227l4.826 1.307c.533.144 1.082-.171 1.227-.704.144-.533-.171-1.082-.704-1.227zm-9.652-2.614l-4.826-1.307c-.533-.144-1.082.171-1.227.704-.144.533.171 1.082.704 1.227l4.826 1.307c.533.144 1.082-.171 1.227-.704.144-.533-.171-1.082-.704-1.227zm-9.652-2.614l-4.826-1.307c-.533-.144-1.082.171-1.227.704-.144.533.171 1.082.704 1.227l4.826 1.307c.533.144 1.082-.171 1.227-.704.144-.533-.171-1.082-.704-1.227zm-9.652-2.614l-4.826-1.307c-.533-.144-1.082.171-1.227.704-.144.533.171 1.082.704 1.227l4.826 1.307c.533.144 1.082-.171 1.227-.704.144-.533-.171-1.082-.704-1.227zm-9.652-2.614l-4.826-1.307c-.533-.144-1.082.171-1.227.704-.144.533.171 1.082.704 1.227l4.826 1.307c.533.144 1.082-.171 1.227-.704.144-.533-.171-1.082-.704-1.227zm-9.652-2.614l-4.826-1.307c-.533-.144-1.082.171-1.227.704-.144.533.171 1.082.704 1.227l4.826 1.307c.533.144 1.082-.171 1.227-.704.144-.533-.171-1.082-.704-1.227zm-9.652-2.614l-4.826-1.307c-.533-.144-1.082.171-1.227.704-.144.533.171 1.082.704 1.227l4.826 1.307c.533.144 1.082-.171 1.227-.704.144-.533-.171-1.082-.704-1.227zm-9.652-2.614l-4.826-1.307c-.533-.144-1.082.171-1.227.704-.144.533.171 1.082.704 1.227l4.826 1.307c.533.144 1.082-.171 1.227-.704.144-.533-.171-1.082-.704-1.227zm-9.652-2.614l-4.826-1.307c-.533-.144-1.082.171-1.227.704-.144.533.171 1.082.704 1.227l4.826 1.307c.533.144 1.082-.171 1.227-.704.144-.533-.171-1.082-.704-1.227zm-9.652-2.614l-4.826-1.307c-.533-.144-1.082.171-1.227.704-.144.533.171 1.082.704 1.227l4.826 1.307c.533.144 1.082-.171 1.227-.704.144-.533-.171-1.082-.704-1.227zm-9.652-2.614l-4.826-1.307c-.533-.144-1.082.171-1.227.704-.144.533.171 1.082.704 1.227l4.826 1.307c.533.144 1.082-.171 1.227-.704.144-.533-.171-1.082-.704-1.227zm-9.652-2.614l-4.826-1.307c-.533-.144-1.082.171-1.227.704-.144.533.171 1.082.704 1.227l4.826 1.307c.533.144 1.082-.171 1.227-.704.144-.533-.171-1.082-.704-1.227zm-9.652-2.614l-4.826-1.307c-.533-.144-1.082.171-1.227.704-.144.533.171 1.082.704 1.227l4.826 1.307c.533.144 1.082-.171 1.227-.704.144-.533-.171-1.082-.704-1.227zm-9.652-2.614l-4.826-1.307c-.533-.144-1.082.171-1.227.704-.144.533.171 1.082.704 1.227l4.826 1.307c.533.144 1.082-.171 1.227-.704.144-.533-.171-1.082-.704-1.227zm-9.652-2.614l-4.826-1.307c-.533-.144-1.082.171-1.227.704-.144.533.171 1.082.704 1.227l4.826 1.307c.533.144 1.082-.171 1.227-.704.144-.533-.171-1.082-.704-1.227zm-9.652-2.614l-4.826-1.307c-.533-.144-1.082.171-1.227.704-.144.533.171 1.082.704 1.227l4.826 1.307c.533.144 1.082-.171 1.227-.704.144-.533-.171-1.082-.704-1.227zm-9.652-2.614l-4.826-1.307c-.533-.144-1.082.171-1.227.704-.144.533.171 1.082.704 1.227l4.826 1.307c.533.144 1.082-.171 1.227-.704.144-.533-.171-1.082-.704-1.227zm-9.652-2.614l-4.826-1.307c-.533-.144-1.082.171-1.227.704-.144.533.171 1.082.704 1.227l4.826 1.307c.533.144 1.082-.171 1.227-.704.144-.533-.171-1.082-.704-1.227zm-9.652-2.614l-4.826-1.307c-.533-.144-1.082.171-1.227.704-.144.533.171 1.082.704 1.227l4.826 1.307c.533.144 1.082-.171 1.227-.704.144-.533-.171-1.082-.704-1.227zm-9.652-2.614l-4.826-1.307c-.533-.144-1.082.171-1.227.704-.144.533.171 1.082.704 1.227l4.826 1.307c.533.144 1.082-.171 1.227-.704.144-.533-.171-1.082-.704-1.227zm-9.652-2.614l-4.826-1.307c-.533-.144-1.082.171-1.227.704-.144.533.171 1.082.704 1.227l4.826 1.307c.533.144 1.082-.171 1.227-.704.144-.533-.171-1.082-.704-1.227zm-9.652-2.614l-4.826-1.307c-.533-.144-1.082.171-1.227.704-.144.533.171 1.082.704 1.227l4.826 1.307c.533.144 1.082-.171 1.227-.704.144-.533-.171-1.082-.704-1.227zm-9.652-2.614l-4.826-1.307c-.533-.144-1.082.171-1.227.704-.144.533.171 1.082.704 1.227l4.826 1.307c.533.144 1.082-.171 1.227-.704.144-.533-.171-1.082-.704-1.227zm-9.652-2.614l-4.826-1.307c-.533-.144-1.082.171-1.227.704-.144.533.171 1.082.704 1.227l4.826 1.307c.533.144 1.082-.171 1.227-.704.144-.533-.171-1.082-.704-1.227zm-9.652-2.614l-4.826-1.307c-.533-.144-1.082.171-1.227.704-.144.533.171 1.082.704 1.227l4.826 1.307c.533.144 1.082-.171 1.227-.704.144-.533-.171-1.082-.704-1.227zm-9.652-2.614l-4.826-1.307c-.533-.144-1.082.171-1.227.704-.144.533.171 1.082.704 1.227l4.826 1.307c.533.144 1.082-.171 1.227-.704.144-.533-.171-1.082-.704-1.227zm-9.652-2.614l-4.826-1.307c-.533-.144-1.082.171-1.227.704-.144.533.171 1.082.704 1.227l4.826 1.307c.533.144 1.082-.171 1.227-.704.144-.533-.171-1.082-.704-1.227zm-9.652-2.614l-4.826-1.307c-.533-.144-1.082.171-1.227.704-.144.533.171 1.082.704 1.227l4.826 1.307c.533.144 1.082-.171 1.227-.704.144-.533-.171-1.082-.704-1.227zm-9.652-2.614l-4.826-1.307c-.533-.144-1.082.171-1.227.704-.144.533.171 1.082.704 1.227l4.826 1.307c.533.144 1.082-.171 1.227-.704.144-.533-.171-1.082-.704-1.227zm-9.652-2.614l-4.826-1.307c-.533-.144-1.082.171-1.227.704-.144.533.171 1.082.704 1.227l4.826 1.307c.533.144 1.082-.171 1.227-.704.144-.533-.171-1.082-.704-1.227zm-9.652-2.614l-4.826-1.307c-.533-.144-1.082.171-1.227.704-.144.533.171 1.082.704 1.227l4.826 1.307c.533.144 1.082-.171 1.227-.704.144-.533-.171-1.082-.704-1.227zm-9.652-2.614c.533.144.848.694.704 1.227-.144.533-.694.848-1.227.704l-4.826-1.307c-.533-.144-.848-.694-.704-1.227.144-.533.694-.848 1.227-.704l4.826 1.307zm-9.652-2.614c.533.144.848.694.704 1.227-.144.533-.694.848-1.227.704l-4.826-1.307c-.533-.144-.848-.694-.704-1.227.144-.533.694-.848 1.227-.704l4.826 1.307zm-9.652-2.614c.533.144.848.694.704 1.227-.144.533-.694.848-1.227.704l-4.826-1.307c-.533-.144-.848-.694-.704-1.227.144-.533.694-.848 1.227-.704l4.826 1.307zm-9.652-2.614c.533.144.848.694.704 1.227-.144.533-.694.848-1.227.704l-.929-.252c-.533-.144-.848-.694-.704-1.227.144-.533.694-.848 1.227-.704l.929.252z" fill="#E6F5FB"/><path fill-opacity=".03" fill="#00A1DE" d="M111 48l-20 128 756.963 12.394-63.963-156.394z"/><path d="M110.012 47.845l-.772 4.94c-.085.546.288 1.057.834 1.142.546.085 1.057-.288 1.142-.834l.772-4.94c.085-.546-.288-1.057-.834-1.142-.546-.085-1.057.288-1.142.834zm-1.544 9.88l-.772 4.94c-.085.546.288 1.057.834 1.142.546.085 1.057-.288 1.142-.834l.772-4.94c.085-.546-.288-1.057-.834-1.142-.546-.085-1.057.288-1.142.834zm-1.544 9.88l-.772 4.94c-.085.546.288 1.057.834 1.142.546.085 1.057-.288 1.142-.834l.772-4.94c.085-.546-.288-1.057-.834-1.142-.546-.085-1.057.288-1.142.834zm-1.544 9.88l-.772 4.94c-.085.546.288 1.057.834 1.142.546.085 1.057-.288 1.142-.834l.772-4.94c.085-.546-.288-1.057-.834-1.142-.546-.085-1.057.288-1.142.834zm-1.544 9.88l-.772 4.94c-.085.546.288 1.057.834 1.142.546.085 1.057-.288 1.142-.834l.772-4.94c.085-.546-.288-1.057-.834-1.142-.546-.085-1.057.288-1.142.834zm-1.544 9.88l-.772 4.94c-.085.546.288 1.057.834 1.142.546.085 1.057-.288 1.142-.834l.772-4.94c.085-.546-.288-1.057-.834-1.142-.546-.085-1.057.288-1.142.834zm-1.544 9.88l-.772 4.94c-.085.546.288 1.057.834 1.142.546.085 1.057-.288 1.142-.834l.772-4.94c.085-.546-.288-1.057-.834-1.142-.546-.085-1.057.288-1.142.834zm-1.544 9.88l-.772 4.94c-.085.546.288 1.057.834 1.142.546.085 1.057-.288 1.142-.834l.772-4.94c.085-.546-.288-1.057-.834-1.142-.546-.085-1.057.288-1.142.834zm-1.544 9.88l-.772 4.94c-.085.546.288 1.057.834 1.142.546.085 1.057-.288 1.142-.834l.772-4.94c.085-.546-.288-1.057-.834-1.142-.546-.085-1.057.288-1.142.834zm-1.544 9.88l-.772 4.94c-.085.546.288 1.057.834 1.142.546.085 1.057-.288 1.142-.834l.772-4.94c.085-.546-.288-1.057-.834-1.142-.546-.085-1.057.288-1.142.834zm-1.544 9.88l-.772 4.94c-.085.546.288 1.057.834 1.142.546.085 1.057-.288 1.142-.834l.772-4.94c.085-.546-.288-1.057-.834-1.142-.546-.085-1.057.288-1.142.834zm-1.544 9.88l-.772 4.94c-.085.546.288 1.057.834 1.142.546.085 1.057-.288 1.142-.834l.772-4.94c.085-.546-.288-1.057-.834-1.142-.546-.085-1.057.288-1.142.834zm-1.544 9.88l-.772 4.94c-.085.546.288 1.057.834 1.142.546.085 1.057-.288 1.142-.834l.772-4.94c.085-.546-.288-1.057-.834-1.142-.546-.085-1.057.288-1.142.834zm-.056 10.6l4.999.082c.552.009 1.007-.431 1.016-.983.009-.552-.431-1.007-.983-1.016l-4.999-.082c-.552-.009-1.007.431-1.016.983-.009.552.431 1.007.983 1.016zm9.999.164l4.999.082c.552.009 1.007-.431 1.016-.983.009-.552-.431-1.007-.983-1.016l-4.999-.082c-.552-.009-1.007.431-1.016.983-.009.552.431 1.007.983 1.016zm9.999.164l4.999.082c.552.009 1.007-.431 1.016-.983.009-.552-.431-1.007-.983-1.016l-4.999-.082c-.552-.009-1.007.431-1.016.983-.009.552.431 1.007.983 1.016zm9.999.164l4.999.082c.552.009 1.007-.431 1.016-.983.009-.552-.431-1.007-.983-1.016l-4.999-.082c-.552-.009-1.007.431-1.016.983-.009.552.431 1.007.983 1.016zm9.999.164l4.999.082c.552.009 1.007-.431 1.016-.983.009-.552-.431-1.007-.983-1.016l-4.999-.082c-.552-.009-1.007.431-1.016.983-.009.552.431 1.007.983 1.016zm9.999.164l4.999.082c.552.009 1.007-.431 1.016-.983.009-.552-.431-1.007-.983-1.016l-4.999-.082c-.552-.009-1.007.431-1.016.983-.009.552.431 1.007.983 1.016zm9.999.164l4.999.082c.552.009 1.007-.431 1.016-.983.009-.552-.431-1.007-.983-1.016l-4.999-.082c-.552-.009-1.007.431-1.016.983-.009.552.431 1.007.983 1.016zm9.999.164l4.999.082c.552.009 1.007-.431 1.016-.983.009-.552-.431-1.007-.983-1.016l-4.999-.082c-.552-.009-1.007.431-1.016.983-.009.552.431 1.007.983 1.016zm9.999.164l4.999.082c.552.009 1.007-.431 1.016-.983.009-.552-.431-1.007-.983-1.016l-4.999-.082c-.552-.009-1.007.431-1.016.983-.009.552.431 1.007.983 1.016zm9.999.164l4.999.082c.552.009 1.007-.431 1.016-.983.009-.552-.431-1.007-.983-1.016l-4.999-.082c-.552-.009-1.007.431-1.016.983-.009.552.431 1.007.983 1.016zm9.999.164l4.999.082c.552.009 1.007-.431 1.016-.983.009-.552-.431-1.007-.983-1.016l-4.999-.082c-.552-.009-1.007.431-1.016.983-.009.552.431 1.007.983 1.016zm9.999.164l4.999.082c.552.009 1.007-.431 1.016-.983.009-.552-.431-1.007-.983-1.016l-4.999-.082c-.552-.009-1.007.431-1.016.983-.009.552.431 1.007.983 1.016zm9.999.164l4.999.082c.552.009 1.007-.431 1.016-.983.009-.552-.431-1.007-.983-1.016l-4.999-.082c-.552-.009-1.007.431-1.016.983-.009.552.431 1.007.983 1.016zm9.999.164l4.999.082c.552.009 1.007-.431 1.016-.983.009-.552-.431-1.007-.983-1.016l-4.999-.082c-.552-.009-1.007.431-1.016.983-.009.552.431 1.007.983 1.016zm9.999.164l4.999.082c.552.009 1.007-.431 1.016-.983.009-.552-.431-1.007-.983-1.016l-4.999-.082c-.552-.009-1.007.431-1.016.983-.009.552.431 1.007.983 1.016zm9.999.164l4.999.082c.552.009 1.007-.431 1.016-.983.009-.552-.431-1.007-.983-1.016l-4.999-.082c-.552-.009-1.007.431-1.016.983-.009.552.431 1.007.983 1.016zm9.999.164l4.999.082c.552.009 1.007-.431 1.016-.983.009-.552-.431-1.007-.983-1.016l-4.999-.082c-.552-.009-1.007.431-1.016.983-.009.552.431 1.007.983 1.016zm9.999.164l4.999.082c.552.009 1.007-.431 1.016-.983.009-.552-.431-1.007-.983-1.016l-4.999-.082c-.552-.009-1.007.431-1.016.983-.009.552.431 1.007.983 1.016zm9.999.164l4.999.082c.552.009 1.007-.431 1.016-.983.009-.552-.431-1.007-.983-1.016l-4.999-.082c-.552-.009-1.007.431-1.016.983-.009.552.431 1.007.983 1.016zm9.999.164l4.999.082c.552.009 1.007-.431 1.016-.983.009-.552-.431-1.007-.983-1.016l-4.999-.082c-.552-.009-1.007.431-1.016.983-.009.552.431 1.007.983 1.016zm9.999.164l4.999.082c.552.009 1.007-.431 1.016-.983.009-.552-.431-1.007-.983-1.016l-4.999-.082c-.552-.009-1.007.431-1.016.983-.009.552.431 1.007.983 1.016zm9.999.164l4.999.082c.552.009 1.007-.431 1.016-.983.009-.552-.431-1.007-.983-1.016l-4.999-.082c-.552-.009-1.007.431-1.016.983-.009.552.431 1.007.983 1.016zm9.999.164l4.999.082c.552.009 1.007-.431 1.016-.983.009-.552-.431-1.007-.983-1.016l-4.999-.082c-.552-.009-1.007.431-1.016.983-.009.552.431 1.007.983 1.016zm9.999.164l4.999.082c.552.009 1.007-.431 1.016-.983.009-.552-.431-1.007-.983-1.016l-4.999-.082c-.552-.009-1.007.431-1.016.983-.009.552.431 1.007.983 1.016zm9.999.164l4.999.082c.552.009 1.007-.431 1.016-.983.009-.552-.431-1.007-.983-1.016l-4.999-.082c-.552-.009-1.007.431-1.016.983-.009.552.431 1.007.983 1.016zm9.999.164l4.999.082c.552.009 1.007-.431 1.016-.983.009-.552-.431-1.007-.983-1.016l-4.999-.082c-.552-.009-1.007.431-1.016.983-.009.552.431 1.007.983 1.016zm9.999.164l4.999.082c.552.009 1.007-.431 1.016-.983.009-.552-.431-1.007-.983-1.016l-4.999-.082c-.552-.009-1.007.431-1.016.983-.009.552.431 1.007.983 1.016zm9.999.164l4.999.082c.552.009 1.007-.431 1.016-.983.009-.552-.431-1.007-.983-1.016l-4.999-.082c-.552-.009-1.007.431-1.016.983-.009.552.431 1.007.983 1.016zm9.999.164l4.999.082c.552.009 1.007-.431 1.016-.983.009-.552-.431-1.007-.983-1.016l-4.999-.082c-.552-.009-1.007.431-1.016.983-.009.552.431 1.007.983 1.016zm9.999.164l4.999.082c.552.009 1.007-.431 1.016-.983.009-.552-.431-1.007-.983-1.016l-4.999-.082c-.552-.009-1.007.431-1.016.983-.009.552.431 1.007.983 1.016zm9.999.164l4.999.082c.552.009 1.007-.431 1.016-.983.009-.552-.431-1.007-.983-1.016l-4.999-.082c-.552-.009-1.007.431-1.016.983-.009.552.431 1.007.983 1.016zm9.999.164l4.999.082c.552.009 1.007-.431 1.016-.983.009-.552-.431-1.007-.983-1.016l-4.999-.082c-.552-.009-1.007.431-1.016.983-.009.552.431 1.007.983 1.016zm9.999.164l4.999.082c.552.009 1.007-.431 1.016-.983.009-.552-.431-1.007-.983-1.016l-4.999-.082c-.552-.009-1.007.431-1.016.983-.009.552.431 1.007.983 1.016zm9.999.164l4.999.082c.552.009 1.007-.431 1.016-.983.009-.552-.431-1.007-.983-1.016l-4.999-.082c-.552-.009-1.007.431-1.016.983-.009.552.431 1.007.983 1.016zm9.999.164l4.999.082c.552.009 1.007-.431 1.016-.983.009-.552-.431-1.007-.983-1.016l-4.999-.082c-.552-.009-1.007.431-1.016.983-.009.552.431 1.007.983 1.016zm9.999.164l4.999.082c.552.009 1.007-.431 1.016-.983.009-.552-.431-1.007-.983-1.016l-4.999-.082c-.552-.009-1.007.431-1.016.983-.009.552.431 1.007.983 1.016zm9.999.164l4.999.082c.552.009 1.007-.431 1.016-.983.009-.552-.431-1.007-.983-1.016l-4.999-.082c-.552-.009-1.007.431-1.016.983-.009.552.431 1.007.983 1.016zm9.999.164l4.999.082c.552.009 1.007-.431 1.016-.983.009-.552-.431-1.007-.983-1.016l-4.999-.082c-.552-.009-1.007.431-1.016.983-.009.552.431 1.007.983 1.016zm9.999.164l4.999.082c.552.009 1.007-.431 1.016-.983.009-.552-.431-1.007-.983-1.016l-4.999-.082c-.552-.009-1.007.431-1.016.983-.009.552.431 1.007.983 1.016zm9.999.164l4.999.082c.552.009 1.007-.431 1.016-.983.009-.552-.431-1.007-.983-1.016l-4.999-.082c-.552-.009-1.007.431-1.016.983-.009.552.431 1.007.983 1.016zm9.999.164l4.999.082c.552.009 1.007-.431 1.016-.983.009-.552-.431-1.007-.983-1.016l-4.999-.082c-.552-.009-1.007.431-1.016.983-.009.552.431 1.007.983 1.016zm9.999.164l4.999.082c.552.009 1.007-.431 1.016-.983.009-.552-.431-1.007-.983-1.016l-4.999-.082c-.552-.009-1.007.431-1.016.983-.009.552.431 1.007.983 1.016zm9.999.164l4.999.082c.552.009 1.007-.431 1.016-.983.009-.552-.431-1.007-.983-1.016l-4.999-.082c-.552-.009-1.007.431-1.016.983-.009.552.431 1.007.983 1.016zm9.999.164l4.999.082c.552.009 1.007-.431 1.016-.983.009-.552-.431-1.007-.983-1.016l-4.999-.082c-.552-.009-1.007.431-1.016.983-.009.552.431 1.007.983 1.016zm9.999.164l4.999.082c.552.009 1.007-.431 1.016-.983.009-.552-.431-1.007-.983-1.016l-4.999-.082c-.552-.009-1.007.431-1.016.983-.009.552.431 1.007.983 1.016zm9.999.164l4.999.082c.552.009 1.007-.431 1.016-.983.009-.552-.431-1.007-.983-1.016l-4.999-.082c-.552-.009-1.007.431-1.016.983-.009.552.431 1.007.983 1.016zm9.999.164l4.999.082c.552.009 1.007-.431 1.016-.983.009-.552-.431-1.007-.983-1.016l-4.999-.082c-.552-.009-1.007.431-1.016.983-.009.552.431 1.007.983 1.016zm9.999.164l4.999.082c.552.009 1.007-.431 1.016-.983.009-.552-.431-1.007-.983-1.016l-4.999-.082c-.552-.009-1.007.431-1.016.983-.009.552.431 1.007.983 1.016zm9.999.164l4.999.082c.552.009 1.007-.431 1.016-.983.009-.552-.431-1.007-.983-1.016l-4.999-.082c-.552-.009-1.007.431-1.016.983-.009.552.431 1.007.983 1.016zm9.999.164l4.999.082c.552.009 1.007-.431 1.016-.983.009-.552-.431-1.007-.983-1.016l-4.999-.082c-.552-.009-1.007.431-1.016.983-.009.552.431 1.007.983 1.016zm9.999.164l4.999.082c.552.009 1.007-.431 1.016-.983.009-.552-.431-1.007-.983-1.016l-4.999-.082c-.552-.009-1.007.431-1.016.983-.009.552.431 1.007.983 1.016zm9.999.164l4.999.082c.552.009 1.007-.431 1.016-.983.009-.552-.431-1.007-.983-1.016l-4.999-.082c-.552-.009-1.007.431-1.016.983-.009.552.431 1.007.983 1.016zm9.999.164l4.999.082c.552.009 1.007-.431 1.016-.983.009-.552-.431-1.007-.983-1.016l-4.999-.082c-.552-.009-1.007.431-1.016.983-.009.552.431 1.007.983 1.016zm9.999.164l4.999.082c.552.009 1.007-.431 1.016-.983.009-.552-.431-1.007-.983-1.016l-4.999-.082c-.552-.009-1.007.431-1.016.983-.009.552.431 1.007.983 1.016zm9.999.164l4.999.082c.552.009 1.007-.431 1.016-.983.009-.552-.431-1.007-.983-1.016l-4.999-.082c-.552-.009-1.007.431-1.016.983-.009.552.431 1.007.983 1.016zm9.999.164l4.999.082c.552.009 1.007-.431 1.016-.983.009-.552-.431-1.007-.983-1.016l-4.999-.082c-.552-.009-1.007.431-1.016.983-.009.552.431 1.007.983 1.016zm9.999.164l4.999.082c.552.009 1.007-.431 1.016-.983.009-.552-.431-1.007-.983-1.016l-4.999-.082c-.552-.009-1.007.431-1.016.983-.009.552.431 1.007.983 1.016zm9.999.164l4.999.082c.552.009 1.007-.431 1.016-.983.009-.552-.431-1.007-.983-1.016l-4.999-.082c-.552-.009-1.007.431-1.016.983-.009.552.431 1.007.983 1.016zm9.999.164l4.999.082c.552.009 1.007-.431 1.016-.983.009-.552-.431-1.007-.983-1.016l-4.999-.082c-.552-.009-1.007.431-1.016.983-.009.552.431 1.007.983 1.016zm9.999.164l4.999.082c.552.009 1.007-.431 1.016-.983.009-.552-.431-1.007-.983-1.016l-4.999-.082c-.552-.009-1.007.431-1.016.983-.009.552.431 1.007.983 1.016zm9.999.164l4.999.082c.552.009 1.007-.431 1.016-.983.009-.552-.431-1.007-.983-1.016l-4.999-.082c-.552-.009-1.007.431-1.016.983-.009.552.431 1.007.983 1.016zm9.999.164l4.999.082c.552.009 1.007-.431 1.016-.983.009-.552-.431-1.007-.983-1.016l-4.999-.082c-.552-.009-1.007.431-1.016.983-.009.552.431 1.007.983 1.016zm9.999.164l4.999.082c.552.009 1.007-.431 1.016-.983.009-.552-.431-1.007-.983-1.016l-4.999-.082c-.552-.009-1.007.431-1.016.983-.009.552.431 1.007.983 1.016zm9.999.164l4.999.082c.552.009 1.007-.431 1.016-.983.009-.552-.431-1.007-.983-1.016l-4.999-.082c-.552-.009-1.007.431-1.016.983-.009.552.431 1.007.983 1.016zm9.999.164l4.999.082c.552.009 1.007-.431 1.016-.983.009-.552-.431-1.007-.983-1.016l-4.999-.082c-.552-.009-1.007.431-1.016.983-.009.552.431 1.007.983 1.016zm9.999.164l4.999.082c.552.009 1.007-.431 1.016-.983.009-.552-.431-1.007-.983-1.016l-4.999-.082c-.552-.009-1.007.431-1.016.983-.009.552.431 1.007.983 1.016zm9.999.164l4.999.082c.552.009 1.007-.431 1.016-.983.009-.552-.431-1.007-.983-1.016l-4.999-.082c-.552-.009-1.007.431-1.016.983-.009.552.431 1.007.983 1.016zm9.999.164l4.999.082c.552.009 1.007-.431 1.016-.983.009-.552-.431-1.007-.983-1.016l-4.999-.082c-.552-.009-1.007.431-1.016.983-.009.552.431 1.007.983 1.016zm9.999.164l4.999.082c.552.009 1.007-.431 1.016-.983.009-.552-.431-1.007-.983-1.016l-4.999-.082c-.552-.009-1.007.431-1.016.983-.009.552.431 1.007.983 1.016zm9.999.164l4.999.082c.552.009 1.007-.431 1.016-.983.009-.552-.431-1.007-.983-1.016l-4.999-.082c-.552-.009-1.007.431-1.016.983-.009.552.431 1.007.983 1.016zm9.999.164l4.999.082c.552.009 1.007-.431 1.016-.983.009-.552-.431-1.007-.983-1.016l-4.999-.082c-.552-.009-1.007.431-1.016.983-.009.552.431 1.007.983 1.016zm9.999.164l4.999.082c.552.009 1.007-.431 1.016-.983.009-.552-.431-1.007-.983-1.016l-4.999-.082c-.552-.009-1.007.431-1.016.983-.009.552.431 1.007.983 1.016zm9.999.164l4.999.082c.552.009 1.007-.431 1.016-.983.009-.552-.431-1.007-.983-1.016l-4.999-.082c-.552-.009-1.007.431-1.016.983-.009.552.431 1.007.983 1.016zm9.999.164l4.999.082c.552.009 1.007-.431 1.016-.983.009-.552-.431-1.007-.983-1.016l-4.999-.082c-.552-.009-1.007.431-1.016.983-.009.552.431 1.007.983 1.016zm9.999.164l4.999.082c.552.009 1.007-.431 1.016-.983.009-.552-.431-1.007-.983-1.016l-4.999-.082c-.552-.009-1.007.431-1.016.983-.009.552.431 1.007.983 1.016zm9.999.164l4.999.082c.552.009 1.007-.431 1.016-.983.009-.552-.431-1.007-.983-1.016l-4.999-.082c-.552-.009-1.007.431-1.016.983-.009.552.431 1.007.983 1.016zm6.278-4.401l-1.893-4.628c-.209-.511-.793-.756-1.304-.547-.511.209-.756.793-.547 1.304l1.893 4.628c.209.511.793.756 1.304.547.511-.209.756-.793.547-1.304zm-3.786-9.256l-1.893-4.628c-.209-.511-.793-.756-1.304-.547-.511.209-.756.793-.547 1.304l1.893 4.628c.209.511.793.756 1.304.547.511-.209.756-.793.547-1.304zm-3.786-9.256l-1.893-4.628c-.209-.511-.793-.756-1.304-.547-.511.209-.756.793-.547 1.304l1.893 4.628c.209.511.793.756 1.304.547.511-.209.756-.793.547-1.304zm-3.786-9.256l-1.893-4.628c-.209-.511-.793-.756-1.304-.547-.511.209-.756.793-.547 1.304l1.893 4.628c.209.511.793.756 1.304.547.511-.209.756-.793.547-1.304zm-3.786-9.256l-1.893-4.628c-.209-.511-.793-.756-1.304-.547-.511.209-.756.793-.547 1.304l1.893 4.628c.209.511.793.756 1.304.547.511-.209.756-.793.547-1.304zm-3.786-9.256l-1.893-4.628c-.209-.511-.793-.756-1.304-.547-.511.209-.756.793-.547 1.304l1.893 4.628c.209.511.793.756 1.304.547.511-.209.756-.793.547-1.304zm-3.786-9.256l-1.893-4.628c-.209-.511-.793-.756-1.304-.547-.511.209-.756.793-.547 1.304l1.893 4.628c.209.511.793.756 1.304.547.511-.209.756-.793.547-1.304zm-3.786-9.256l-1.893-4.628c-.209-.511-.793-.756-1.304-.547-.511.209-.756.793-.547 1.304l1.893 4.628c.209.511.793.756 1.304.547.511-.209.756-.793.547-1.304zm-3.786-9.256l-1.893-4.628c-.209-.511-.793-.756-1.304-.547-.511.209-.756.793-.547 1.304l1.893 4.628c.209.511.793.756 1.304.547.511-.209.756-.793.547-1.304zm-3.786-9.256l-1.893-4.628c-.209-.511-.793-.756-1.304-.547-.511.209-.756.793-.547 1.304l1.893 4.628c.209.511.793.756 1.304.547.511-.209.756-.793.547-1.304zm-3.786-9.256l-1.893-4.628c-.209-.511-.793-.756-1.304-.547-.511.209-.756.793-.547 1.304l1.893 4.628c.209.511.793.756 1.304.547.511-.209.756-.793.547-1.304zm-3.786-9.256l-1.893-4.628c-.209-.511-.793-.756-1.304-.547-.511.209-.756.793-.547 1.304l1.893 4.628c.209.511.793.756 1.304.547.511-.209.756-.793.547-1.304zm-3.786-9.256l-1.893-4.628c-.209-.511-.793-.756-1.304-.547-.511.209-.756.793-.547 1.304l1.893 4.628c.209.511.793.756 1.304.547.511-.209.756-.793.547-1.304zm-3.786-9.256l-1.893-4.628c-.209-.511-.793-.756-1.304-.547-.511.209-.756.793-.547 1.304l1.893 4.628c.209.511.793.756 1.304.547.511-.209.756-.793.547-1.304zm-3.786-9.256l-1.893-4.628c-.209-.511-.793-.756-1.304-.547-.511.209-.756.793-.547 1.304l1.893 4.628c.209.511.793.756 1.304.547.511-.209.756-.793.547-1.304zm-3.786-9.256l-1.893-4.628c-.209-.511-.793-.756-1.304-.547-.511.209-.756.793-.547 1.304l1.893 4.628c.209.511.793.756 1.304.547.511-.209.756-.793.547-1.304zm-3.786-9.256l-1.893-4.628c-.209-.511-.793-.756-1.304-.547-.511.209-.756.793-.547 1.304l1.893 4.628c.209.511.793.756 1.304.547.511-.209.756-.793.547-1.304zm-7.477-5.686l-4.999.119c-.552.013-.989.471-.976 1.023.013.552.471.989 1.023.976l4.999-.119c.552-.013.989-.471.976-1.023-.013-.552-.471-.989-1.023-.976zm-9.997.238l-4.999.119c-.552.013-.989.471-.976 1.023.013.552.471.989 1.023.976l4.999-.119c.552-.013.989-.471.976-1.023-.013-.552-.471-.989-1.023-.976zm-9.997.238l-4.999.119c-.552.013-.989.471-.976 1.023.013.552.471.989 1.023.976l4.999-.119c.552-.013.989-.471.976-1.023-.013-.552-.471-.989-1.023-.976zm-9.997.238l-4.999.119c-.552.013-.989.471-.976 1.023.013.552.471.989 1.023.976l4.999-.119c.552-.013.989-.471.976-1.023-.013-.552-.471-.989-1.023-.976zm-9.997.238l-4.999.119c-.552.013-.989.471-.976 1.023.013.552.471.989 1.023.976l4.999-.119c.552-.013.989-.471.976-1.023-.013-.552-.471-.989-1.023-.976zm-9.997.238l-4.999.119c-.552.013-.989.471-.976 1.023.013.552.471.989 1.023.976l4.999-.119c.552-.013.989-.471.976-1.023-.013-.552-.471-.989-1.023-.976zm-9.997.238l-4.999.119c-.552.013-.989.471-.976 1.023.013.552.471.989 1.023.976l4.999-.119c.552-.013.989-.471.976-1.023-.013-.552-.471-.989-1.023-.976zm-9.997.238l-4.999.119c-.552.013-.989.471-.976 1.023.013.552.471.989 1.023.976l4.999-.119c.552-.013.989-.471.976-1.023-.013-.552-.471-.989-1.023-.976zm-9.997.238l-4.999.119c-.552.013-.989.471-.976 1.023.013.552.471.989 1.023.976l4.999-.119c.552-.013.989-.471.976-1.023-.013-.552-.471-.989-1.023-.976zm-9.997.238l-4.999.119c-.552.013-.989.471-.976 1.023.013.552.471.989 1.023.976l4.999-.119c.552-.013.989-.471.976-1.023-.013-.552-.471-.989-1.023-.976zm-9.997.238l-4.999.119c-.552.013-.989.471-.976 1.023.013.552.471.989 1.023.976l4.999-.119c.552-.013.989-.471.976-1.023-.013-.552-.471-.989-1.023-.976zm-9.997.238l-4.999.119c-.552.013-.989.471-.976 1.023.013.552.471.989 1.023.976l4.999-.119c.552-.013.989-.471.976-1.023-.013-.552-.471-.989-1.023-.976zm-9.997.238l-4.999.119c-.552.013-.989.471-.976 1.023.013.552.471.989 1.023.976l4.999-.119c.552-.013.989-.471.976-1.023-.013-.552-.471-.989-1.023-.976zm-9.997.238l-4.999.119c-.552.013-.989.471-.976 1.023.013.552.471.989 1.023.976l4.999-.119c.552-.013.989-.471.976-1.023-.013-.552-.471-.989-1.023-.976zm-9.997.238l-4.999.119c-.552.013-.989.471-.976 1.023.013.552.471.989 1.023.976l4.999-.119c.552-.013.989-.471.976-1.023-.013-.552-.471-.989-1.023-.976zm-9.997.238l-4.999.119c-.552.013-.989.471-.976 1.023.013.552.471.989 1.023.976l4.999-.119c.552-.013.989-.471.976-1.023-.013-.552-.471-.989-1.023-.976zm-9.997.238l-4.999.119c-.552.013-.989.471-.976 1.023.013.552.471.989 1.023.976l4.999-.119c.552-.013.989-.471.976-1.023-.013-.552-.471-.989-1.023-.976zm-9.997.238l-4.999.119c-.552.013-.989.471-.976 1.023.013.552.471.989 1.023.976l4.999-.119c.552-.013.989-.471.976-1.023-.013-.552-.471-.989-1.023-.976zm-9.997.238l-4.999.119c-.552.013-.989.471-.976 1.023.013.552.471.989 1.023.976l4.999-.119c.552-.013.989-.471.976-1.023-.013-.552-.471-.989-1.023-.976zm-9.997.238l-4.999.119c-.552.013-.989.471-.976 1.023.013.552.471.989 1.023.976l4.999-.119c.552-.013.989-.471.976-1.023-.013-.552-.471-.989-1.023-.976zm-9.997.238l-4.999.119c-.552.013-.989.471-.976 1.023.013.552.471.989 1.023.976l4.999-.119c.552-.013.989-.471.976-1.023-.013-.552-.471-.989-1.023-.976zm-9.997.238l-4.999.119c-.552.013-.989.471-.976 1.023.013.552.471.989 1.023.976l4.999-.119c.552-.013.989-.471.976-1.023-.013-.552-.471-.989-1.023-.976zm-9.997.238l-4.999.119c-.552.013-.989.471-.976 1.023.013.552.471.989 1.023.976l4.999-.119c.552-.013.989-.471.976-1.023-.013-.552-.471-.989-1.023-.976zm-9.997.238l-4.999.119c-.552.013-.989.471-.976 1.023.013.552.471.989 1.023.976l4.999-.119c.552-.013.989-.471.976-1.023-.013-.552-.471-.989-1.023-.976zm-9.997.238l-4.999.119c-.552.013-.989.471-.976 1.023.013.552.471.989 1.023.976l4.999-.119c.552-.013.989-.471.976-1.023-.013-.552-.471-.989-1.023-.976zm-9.997.238l-4.999.119c-.552.013-.989.471-.976 1.023.013.552.471.989 1.023.976l4.999-.119c.552-.013.989-.471.976-1.023-.013-.552-.471-.989-1.023-.976zm-9.997.238l-4.999.119c-.552.013-.989.471-.976 1.023.013.552.471.989 1.023.976l4.999-.119c.552-.013.989-.471.976-1.023-.013-.552-.471-.989-1.023-.976zm-9.997.238l-4.999.119c-.552.013-.989.471-.976 1.023.013.552.471.989 1.023.976l4.999-.119c.552-.013.989-.471.976-1.023-.013-.552-.471-.989-1.023-.976zm-9.997.238l-4.999.119c-.552.013-.989.471-.976 1.023.013.552.471.989 1.023.976l4.999-.119c.552-.013.989-.471.976-1.023-.013-.552-.471-.989-1.023-.976zm-9.997.238l-4.999.119c-.552.013-.989.471-.976 1.023.013.552.471.989 1.023.976l4.999-.119c.552-.013.989-.471.976-1.023-.013-.552-.471-.989-1.023-.976zm-9.997.238l-4.999.119c-.552.013-.989.471-.976 1.023.013.552.471.989 1.023.976l4.999-.119c.552-.013.989-.471.976-1.023-.013-.552-.471-.989-1.023-.976zm-9.997.238l-4.999.119c-.552.013-.989.471-.976 1.023.013.552.471.989 1.023.976l4.999-.119c.552-.013.989-.471.976-1.023-.013-.552-.471-.989-1.023-.976zm-9.997.238l-4.999.119c-.552.013-.989.471-.976 1.023.013.552.471.989 1.023.976l4.999-.119c.552-.013.989-.471.976-1.023-.013-.552-.471-.989-1.023-.976zm-9.997.238l-4.999.119c-.552.013-.989.471-.976 1.023.013.552.471.989 1.023.976l4.999-.119c.552-.013.989-.471.976-1.023-.013-.552-.471-.989-1.023-.976zm-9.997.238l-4.999.119c-.552.013-.989.471-.976 1.023.013.552.471.989 1.023.976l4.999-.119c.552-.013.989-.471.976-1.023-.013-.552-.471-.989-1.023-.976zm-9.997.238l-4.999.119c-.552.013-.989.471-.976 1.023.013.552.471.989 1.023.976l4.999-.119c.552-.013.989-.471.976-1.023-.013-.552-.471-.989-1.023-.976zm-9.997.238l-4.999.119c-.552.013-.989.471-.976 1.023.013.552.471.989 1.023.976l4.999-.119c.552-.013.989-.471.976-1.023-.013-.552-.471-.989-1.023-.976zm-9.997.238l-4.999.119c-.552.013-.989.471-.976 1.023.013.552.471.989 1.023.976l4.999-.119c.552-.013.989-.471.976-1.023-.013-.552-.471-.989-1.023-.976zm-9.997.238l-4.999.119c-.552.013-.989.471-.976 1.023.013.552.471.989 1.023.976l4.999-.119c.552-.013.989-.471.976-1.023-.013-.552-.471-.989-1.023-.976zm-9.997.238l-4.999.119c-.552.013-.989.471-.976 1.023.013.552.471.989 1.023.976l4.999-.119c.552-.013.989-.471.976-1.023-.013-.552-.471-.989-1.023-.976zm-9.997.238l-4.999.119c-.552.013-.989.471-.976 1.023.013.552.471.989 1.023.976l4.999-.119c.552-.013.989-.471.976-1.023-.013-.552-.471-.989-1.023-.976zm-9.997.238l-4.999.119c-.552.013-.989.471-.976 1.023.013.552.471.989 1.023.976l4.999-.119c.552-.013.989-.471.976-1.023-.013-.552-.471-.989-1.023-.976zm-9.997.238l-4.999.119c-.552.013-.989.471-.976 1.023.013.552.471.989 1.023.976l4.999-.119c.552-.013.989-.471.976-1.023-.013-.552-.471-.989-1.023-.976zm-9.997.238l-4.999.119c-.552.013-.989.471-.976 1.023.013.552.471.989 1.023.976l4.999-.119c.552-.013.989-.471.976-1.023-.013-.552-.471-.989-1.023-.976zm-9.997.238l-4.999.119c-.552.013-.989.471-.976 1.023.013.552.471.989 1.023.976l4.999-.119c.552-.013.989-.471.976-1.023-.013-.552-.471-.989-1.023-.976zm-9.997.238l-4.999.119c-.552.013-.989.471-.976 1.023.013.552.471.989 1.023.976l4.999-.119c.552-.013.989-.471.976-1.023-.013-.552-.471-.989-1.023-.976zm-9.997.238l-4.999.119c-.552.013-.989.471-.976 1.023.013.552.471.989 1.023.976l4.999-.119c.552-.013.989-.471.976-1.023-.013-.552-.471-.989-1.023-.976zm-9.997.238l-4.999.119c-.552.013-.989.471-.976 1.023.013.552.471.989 1.023.976l4.999-.119c.552-.013.989-.471.976-1.023-.013-.552-.471-.989-1.023-.976zm-9.997.238l-4.999.119c-.552.013-.989.471-.976 1.023.013.552.471.989 1.023.976l4.999-.119c.552-.013.989-.471.976-1.023-.013-.552-.471-.989-1.023-.976zm-9.997.238l-4.999.119c-.552.013-.989.471-.976 1.023.013.552.471.989 1.023.976l4.999-.119c.552-.013.989-.471.976-1.023-.013-.552-.471-.989-1.023-.976zm-9.997.238l-4.999.119c-.552.013-.989.471-.976 1.023.013.552.471.989 1.023.976l4.999-.119c.552-.013.989-.471.976-1.023-.013-.552-.471-.989-1.023-.976zm-9.997.238l-4.999.119c-.552.013-.989.471-.976 1.023.013.552.471.989 1.023.976l4.999-.119c.552-.013.989-.471.976-1.023-.013-.552-.471-.989-1.023-.976zm-9.997.238l-4.999.119c-.552.013-.989.471-.976 1.023.013.552.471.989 1.023.976l4.999-.119c.552-.013.989-.471.976-1.023-.013-.552-.471-.989-1.023-.976zm-9.997.238l-4.999.119c-.552.013-.989.471-.976 1.023.013.552.471.989 1.023.976l4.999-.119c.552-.013.989-.471.976-1.023-.013-.552-.471-.989-1.023-.976zm-9.997.238l-4.999.119c-.552.013-.989.471-.976 1.023.013.552.471.989 1.023.976l4.999-.119c.552-.013.989-.471.976-1.023-.013-.552-.471-.989-1.023-.976zm-9.997.238l-4.999.119c-.552.013-.989.471-.976 1.023.013.552.471.989 1.023.976l4.999-.119c.552-.013.989-.471.976-1.023-.013-.552-.471-.989-1.023-.976zm-9.997.238l-4.999.119c-.552.013-.989.471-.976 1.023.013.552.471.989 1.023.976l4.999-.119c.552-.013.989-.471.976-1.023-.013-.552-.471-.989-1.023-.976zm-9.997.238l-4.999.119c-.552.013-.989.471-.976 1.023.013.552.471.989 1.023.976l4.999-.119c.552-.013.989-.471.976-1.023-.013-.552-.471-.989-1.023-.976zm-9.997.238l-4.999.119c-.552.013-.989.471-.976 1.023.013.552.471.989 1.023.976l4.999-.119c.552-.013.989-.471.976-1.023-.013-.552-.471-.989-1.023-.976zm-9.997.238l-4.999.119c-.552.013-.989.471-.976 1.023.013.552.471.989 1.023.976l4.999-.119c.552-.013.989-.471.976-1.023-.013-.552-.471-.989-1.023-.976zm-9.997.238l-4.999.119c-.552.013-.989.471-.976 1.023.013.552.471.989 1.023.976l4.999-.119c.552-.013.989-.471.976-1.023-.013-.552-.471-.989-1.023-.976zm-9.997.238l-4.999.119c-.552.013-.989.471-.976 1.023.013.552.471.989 1.023.976l4.999-.119c.552-.013.989-.471.976-1.023-.013-.552-.471-.989-1.023-.976zm-9.997.238l-4.999.119c-.552.013-.989.471-.976 1.023.013.552.471.989 1.023.976l4.999-.119c.552-.013.989-.471.976-1.023-.013-.552-.471-.989-1.023-.976zm-9.997.238l-4.999.119c-.552.013-.989.471-.976 1.023.013.552.471.989 1.023.976l4.999-.119c.552-.013.989-.471.976-1.023-.013-.552-.471-.989-1.023-.976zm-9.997.238l-4.999.119c-.552.013-.989.471-.976 1.023.013.552.471.989 1.023.976l4.999-.119c.552-.013.989-.471.976-1.023-.013-.552-.471-.989-1.023-.976zm-9.997.238l-4.999.119c-.552.013-.989.471-.976 1.023.013.552.471.989 1.023.976l4.999-.119c.552-.013.989-.471.976-1.023-.013-.552-.471-.989-1.023-.976zm-9.997.238l-4.999.119c-.552.013-.989.471-.976 1.023.013.552.471.989 1.023.976l4.999-.119c.552-.013.989-.471.976-1.023-.013-.552-.471-.989-1.023-.976z" fill="#E6F5FB"/><path fill-opacity=".03" fill="#00A1DE" d="M221.99 17.974l-110.779 29.141-94.211 65.885 74.165 63 106.835-43z"/><path d="M221.735 17.006l-4.835 1.272c-.534.141-.853.687-.713 1.221.141.534.687.853 1.221.713l4.835-1.272c.534-.141.853-.687.713-1.221-.141-.534-.687-.853-1.221-.713zm-9.671 2.544l-4.835 1.272c-.534.141-.853.687-.713 1.221.141.534.687.853 1.221.713l4.835-1.272c.534-.141.853-.687.713-1.221s-.687-.853-1.221-.713zm-9.671 2.544l-4.835 1.272c-.534.141-.853.687-.713 1.221.141.534.687.853 1.221.713l4.835-1.272c.534-.141.853-.687.713-1.221-.141-.534-.687-.853-1.221-.713zm-9.671 2.544l-4.835 1.272c-.534.141-.853.687-.713 1.221.141.534.687.853 1.221.713l4.835-1.272c.534-.141.853-.687.713-1.221-.141-.534-.687-.853-1.221-.713zm-9.671 2.544l-4.835 1.272c-.534.141-.853.687-.713 1.221.141.534.687.853 1.221.713l4.835-1.272c.534-.141.853-.687.713-1.221-.141-.534-.687-.853-1.221-.713zm-9.671 2.544l-4.835 1.272c-.534.141-.853.687-.713 1.221.141.534.687.853 1.221.713l4.835-1.272c.534-.141.853-.687.713-1.221-.141-.534-.687-.853-1.221-.713zm-9.671 2.544l-4.835 1.272c-.534.141-.853.687-.713 1.221.141.534.687.853 1.221.713l4.835-1.272c.534-.141.853-.687.713-1.221-.141-.534-.687-.853-1.221-.713zm-9.671 2.544l-4.835 1.272c-.534.141-.853.687-.713 1.221.141.534.687.853 1.221.713l4.835-1.272c.534-.141.853-.687.713-1.221-.141-.534-.687-.853-1.221-.713zm-9.671 2.544l-4.835 1.272c-.534.141-.853.687-.713 1.221.141.534.687.853 1.221.713l4.835-1.272c.534-.141.853-.687.713-1.221-.141-.534-.687-.853-1.221-.713zm-9.671 2.544l-4.835 1.272c-.534.141-.853.687-.713 1.221.141.534.687.853 1.221.713l4.835-1.272c.534-.141.853-.687.713-1.221-.141-.534-.687-.853-1.221-.713zm-9.671 2.544l-4.835 1.272c-.534.141-.853.687-.713 1.221.141.534.687.853 1.221.713l4.835-1.272c.534-.141.853-.687.713-1.221-.141-.534-.687-.853-1.221-.713zm-9.162 4.478c.534-.141.853-.687.713-1.221-.141-.534-.687-.853-1.221-.713l-4.571 1.202-.516.361c-.453.317-.563.94-.246 1.393.317.453.94.563 1.393.246l.224-.157 4.226-1.112zm-9.694 2.495l-4.097 2.865c-.453.317-.563.94-.246 1.393.317.453.94.563 1.393.246l4.097-2.865c.453-.317.563-.94.246-1.393-.317-.453-.94-.563-1.393-.246zm-8.195 5.731l-4.097 2.865c-.453.317-.563.94-.246 1.393.317.453.94.563 1.393.246l4.097-2.865c.453-.317.563-.94.246-1.393-.317-.453-.94-.563-1.393-.246zm-8.195 5.731l-4.097 2.865c-.453.317-.563.94-.246 1.393.317.453.94.563 1.393.246l4.097-2.865c.453-.317.563-.94.246-1.393-.317-.453-.94-.563-1.393-.246zm-8.195 5.731l-4.097 2.865c-.453.317-.563.94-.246 1.393.317.453.94.563 1.393.246l4.097-2.865c.453-.317.563-.94.246-1.393-.317-.453-.94-.563-1.393-.246zm-8.195 5.731l-4.097 2.865c-.453.317-.563.94-.246 1.393.317.453.94.563 1.393.246l4.097-2.865c.453-.317.563-.94.246-1.393-.317-.453-.94-.563-1.393-.246zm-8.195 5.731l-4.097 2.865c-.453.317-.563.94-.246 1.393.317.453.94.563 1.393.246l4.097-2.865c.453-.317.563-.94.246-1.393-.317-.453-.94-.563-1.393-.246zm-8.195 5.731l-4.097 2.865c-.453.317-.563.94-.246 1.393.317.453.94.563 1.393.246l4.097-2.865c.453-.317.563-.94.246-1.393-.317-.453-.94-.563-1.393-.246zm-8.195 5.731l-4.097 2.865c-.453.317-.563.94-.246 1.393.317.453.94.563 1.393.246l4.097-2.865c.453-.317.563-.94.246-1.393-.317-.453-.94-.563-1.393-.246zm-8.195 5.731l-4.097 2.865c-.453.317-.563.94-.246 1.393.317.453.94.563 1.393.246l4.097-2.865c.453-.317.563-.94.246-1.393-.317-.453-.94-.563-1.393-.246zm-8.195 5.731l-4.097 2.865c-.453.317-.563.94-.246 1.393.317.453.94.563 1.393.246l4.097-2.865c.453-.317.563-.94.246-1.393-.317-.453-.94-.563-1.393-.246zm-8.195 5.731l-4.097 2.865c-.453.317-.563.94-.246 1.393.317.453.94.563 1.393.246l4.097-2.865c.453-.317.563-.94.246-1.393-.317-.453-.94-.563-1.393-.246zm-7.496 7.349l3.811 3.237c.421.358 1.052.306 1.41-.115.358-.421.306-1.052-.115-1.41l-3.811-3.237c-.421-.358-1.052-.306-1.41.115-.358.421-.306 1.052.115 1.41zm7.621 6.474l3.811 3.237c.421.358 1.052.306 1.41-.115.358-.421.306-1.052-.115-1.41l-3.811-3.237c-.421-.358-1.052-.306-1.41.115-.358.421-.306 1.052.115 1.41zm7.621 6.474l3.811 3.237c.421.358 1.052.306 1.41-.115.358-.421.306-1.052-.115-1.41l-3.811-3.237c-.421-.358-1.052-.306-1.41.115-.358.421-.306 1.052.115 1.41zm7.621 6.474l3.811 3.237c.421.358 1.052.306 1.41-.115.358-.421.306-1.052-.115-1.41l-3.811-3.237c-.421-.358-1.052-.306-1.41.115-.358.421-.306 1.052.115 1.41zm7.621 6.474l3.811 3.237c.421.358 1.052.306 1.41-.115.358-.421.306-1.052-.115-1.41l-3.811-3.237c-.421-.358-1.052-.306-1.41.115-.358.421-.306 1.052.115 1.41zm7.621 6.474l3.811 3.237c.421.358 1.052.306 1.41-.115.358-.421.306-1.052-.115-1.41l-3.811-3.237c-.421-.358-1.052-.306-1.41.115-.358.421-.306 1.052.115 1.41zm7.621 6.474l3.811 3.237c.421.358 1.052.306 1.41-.115.358-.421.306-1.052-.115-1.41l-3.811-3.237c-.421-.358-1.052-.306-1.41.115-.358.421-.306 1.052.115 1.41zm7.621 6.474l3.811 3.237c.421.358 1.052.306 1.41-.115.358-.421.306-1.052-.115-1.41l-3.811-3.237c-.421-.358-1.052-.306-1.41.115-.358.421-.306 1.052.115 1.41zm7.621 6.474l3.811 3.237c.421.358 1.052.306 1.41-.115.358-.421.306-1.052-.115-1.41l-3.811-3.237c-.421-.358-1.052-.306-1.41.115-.358.421-.306 1.052.115 1.41zm7.621 6.474l3.811 3.237c.421.358 1.052.306 1.41-.115.358-.421.306-1.052-.115-1.41l-3.811-3.237c-.421-.358-1.052-.306-1.41.115-.358.421-.306 1.052.115 1.41zm9.168 3.396l4.638-1.867c.512-.206.761-.789.554-1.301-.206-.512-.789-.761-1.301-.554l-4.638 1.867c-.512.206-.761.789-.554 1.301.206.512.789.761 1.301.554zm9.277-3.734l4.638-1.867c.512-.206.761-.789.554-1.301-.206-.512-.789-.761-1.301-.554l-4.638 1.867c-.512.206-.761.789-.554 1.301.206.512.789.761 1.301.554zm9.277-3.734l4.638-1.867c.512-.206.761-.789.554-1.301-.206-.512-.789-.761-1.301-.554l-4.638 1.867c-.512.206-.761.789-.554 1.301.206.512.789.761 1.301.554zm9.277-3.734l4.638-1.867c.512-.206.761-.789.554-1.301-.206-.512-.789-.761-1.301-.554l-4.638 1.867c-.512.206-.761.789-.554 1.301.206.512.789.761 1.301.554zm9.277-3.734l4.638-1.867c.512-.206.761-.789.554-1.301-.206-.512-.789-.761-1.301-.554l-4.638 1.867c-.512.206-.761.789-.554 1.301.206.512.789.761 1.301.554zm9.277-3.734l4.638-1.867c.512-.206.761-.789.554-1.301-.206-.512-.789-.761-1.301-.554l-4.638 1.867c-.512.206-.761.789-.554 1.301.206.512.789.761 1.301.554zm9.277-3.734l4.638-1.867c.512-.206.761-.789.554-1.301-.206-.512-.789-.761-1.301-.554l-4.638 1.867c-.512.206-.761.789-.554 1.301.206.512.789.761 1.301.554zm9.277-3.734l4.638-1.867c.512-.206.761-.789.554-1.301-.206-.512-.789-.761-1.301-.554l-4.638 1.867c-.512.206-.761.789-.554 1.301.206.512.789.761 1.301.554zm9.277-3.734l4.638-1.867c.512-.206.761-.789.554-1.301-.206-.512-.789-.761-1.301-.554l-4.638 1.867c-.512.206-.761.789-.554 1.301.206.512.789.761 1.301.554zm9.277-3.734l4.638-1.867c.512-.206.761-.789.554-1.301-.206-.512-.789-.761-1.301-.554l-4.638 1.867c-.512.206-.761.789-.554 1.301.206.512.789.761 1.301.554zm9.277-3.734l4.638-1.867c.512-.206.761-.789.554-1.301-.206-.512-.789-.761-1.301-.554l-4.638 1.867c-.512.206-.761.789-.554 1.301.206.512.789.761 1.301.554zm8.53-5.589c-.512.206-.761.789-.554 1.301.206.512.789.761 1.301.554l2.339-.941.725-3.474c.113-.541-.234-1.07-.775-1.183-.541-.113-1.07.234-1.183.775l-.506 2.427-1.346.542zm4.831-7.455l1.021-4.895c.113-.541-.234-1.07-.775-1.183-.541-.113-1.07.234-1.183.775l-1.021 4.895c-.113.541.234 1.07.775 1.183.541.113 1.07-.234 1.183-.775zm2.042-9.789l1.021-4.895c.113-.541-.234-1.07-.775-1.183-.541-.113-1.07.234-1.183.775l-1.021 4.895c-.113.541.234 1.07.775 1.183.541.113 1.07-.234 1.183-.775zm2.042-9.789l1.021-4.895c.113-.541-.234-1.07-.775-1.183-.541-.113-1.07.234-1.183.775l-1.021 4.895c-.113.541.234 1.07.775 1.183.541.113 1.07-.234 1.183-.775zm2.042-9.789l1.021-4.895c.113-.541-.234-1.07-.775-1.183-.541-.113-1.07.234-1.183.775l-1.021 4.895c-.113.541.234 1.07.775 1.183.541.113 1.07-.234 1.183-.775zm2.042-9.789l1.021-4.895c.113-.541-.234-1.07-.775-1.183-.541-.113-1.07.234-1.183.775l-1.021 4.895c-.113.541.234 1.07.775 1.183.541.113 1.07-.234 1.183-.775zm2.042-9.789l1.021-4.895c.113-.541-.234-1.07-.775-1.183-.541-.113-1.07.234-1.183.775l-1.021 4.895c-.113.541.234 1.07.775 1.183.541.113 1.07-.234 1.183-.775zm2.042-9.789l1.021-4.895c.113-.541-.234-1.07-.775-1.183-.541-.113-1.07.234-1.183.775l-1.021 4.895c-.113.541.234 1.07.775 1.183.541.113 1.07-.234 1.183-.775zm2.042-9.789l1.021-4.895c.113-.541-.234-1.07-.775-1.183-.541-.113-1.07.234-1.183.775l-1.021 4.895c-.113.541.234 1.07.775 1.183.541.113 1.07-.234 1.183-.775zm2.042-9.789l1.021-4.895c.113-.541-.234-1.07-.775-1.183-.541-.113-1.07.234-1.183.775l-1.021 4.895c-.113.541.234 1.07.775 1.183.541.113 1.07-.234 1.183-.775zm2.042-9.789l1.021-4.895c.113-.541-.234-1.07-.775-1.183-.541-.113-1.07.234-1.183.775l-1.021 4.895c-.113.541.234 1.07.775 1.183.541.113 1.07-.234 1.183-.775zm2.042-9.789l1.021-4.895c.113-.541-.234-1.07-.775-1.183-.541-.113-1.07.234-1.183.775l-1.021 4.895c-.113.541.234 1.07.775 1.183.541.113 1.07-.234 1.183-.775zM784.451 32.836l4.18 2.743c.462.303 1.082.174 1.385-.287.303-.462.174-1.082-.287-1.385l-4.18-2.743c-.462-.303-1.082-.174-1.385.287-.303.462-.174 1.082.287 1.385zm8.36 5.487l4.18 2.743c.462.303 1.082.174 1.385-.287.303-.462.174-1.082-.287-1.385l-4.18-2.743c-.462-.303-1.082-.174-1.385.287-.303.462-.174 1.082.287 1.385zm8.36 5.487l4.18 2.743c.462.303 1.082.174 1.385-.287.303-.462.174-1.082-.287-1.385l-4.18-2.743c-.462-.303-1.082-.174-1.385.287-.303.462-.174 1.082.287 1.385zm8.36 5.487l4.18 2.743c.462.303 1.082.174 1.385-.287.303-.462.174-1.082-.287-1.385l-4.18-2.743c-.462-.303-1.082-.174-1.385.287-.303.462-.174 1.082.287 1.385zm8.36 5.487l4.18 2.743c.462.303 1.082.174 1.385-.287.303-.462.174-1.082-.287-1.385l-4.18-2.743c-.462-.303-1.082-.174-1.385.287-.303.462-.174 1.082.287 1.385zm8.36 5.487l4.18 2.743c.462.303 1.082.174 1.385-.287.303-.462.174-1.082-.287-1.385l-4.18-2.743c-.462-.303-1.082-.174-1.385.287-.303.462-.174 1.082.287 1.385zm8.36 5.487l4.18 2.743c.462.303 1.082.174 1.385-.287.303-.462.174-1.082-.287-1.385l-4.18-2.743c-.462-.303-1.082-.174-1.385.287-.303.462-.174 1.082.287 1.385zm8.36 5.487l4.18 2.743c.462.303 1.082.174 1.385-.287.303-.462.174-1.082-.287-1.385l-4.18-2.743c-.462-.303-1.082-.174-1.385.287-.303.462-.174 1.082.287 1.385zm8.36 5.487l4.18 2.743c.462.303 1.082.174 1.385-.287.303-.462.174-1.082-.287-1.385l-4.18-2.743c-.462-.303-1.082-.174-1.385.287-.303.462-.174 1.082.287 1.385zm8.36 5.487l4.18 2.743c.462.303 1.082.174 1.385-.287.303-.462.174-1.082-.287-1.385l-4.18-2.743c-.462-.303-1.082-.174-1.385.287-.303.462-.174 1.082.287 1.385zm8.36 5.487l4.18 2.743c.462.303 1.082.174 1.385-.287.303-.462.174-1.082-.287-1.385l-4.18-2.743c-.462-.303-1.082-.174-1.385.287-.303.462-.174 1.082.287 1.385zm8.36 5.487l4.18 2.743c.462.303 1.082.174 1.385-.287.303-.462.174-1.082-.287-1.385l-4.18-2.743c-.462-.303-1.082-.174-1.385.287-.303.462-.174 1.082.287 1.385zm8.36 5.487l4.18 2.743c.462.303 1.082.174 1.385-.287.303-.462.174-1.082-.287-1.385l-4.18-2.743c-.462-.303-1.082-.174-1.385.287-.303.462-.174 1.082.287 1.385zm8.36 5.487l4.18 2.743c.462.303 1.082.174 1.385-.287.303-.462.174-1.082-.287-1.385l-4.18-2.743c-.462-.303-1.082-.174-1.385.287-.303.462-.174 1.082.287 1.385zm8.36 5.487l4.18 2.743c.462.303 1.082.174 1.385-.287.303-.462.174-1.082-.287-1.385l-4.18-2.743c-.462-.303-1.082-.174-1.385.287-.303.462-.174 1.082.287 1.385zm8.36 5.487l2.593 1.702c.462.303 1.082.174 1.385-.287.303-.462.174-1.082-.287-1.385l-2.593-1.702c-.462-.303-1.082-.174-1.385.287-.303.462-.174 1.082.287 1.385z" fill="#E6F5FB"/><g id="img"><path d="M7.03 117.76l8.747-8.734-14.117-6.578c-.518-.241-.612-.765-.208-1.168l1.691-1.689c.394-.393 1.187-.629 1.749-.505l17.05 3.783 2.963-2.959c1.767-1.759 5.406-4.2 7.325-2.1 1.919 2.1-.151 5.592-1.919 7.35l-3.089 3.062 3.766 16.921c.125.561-.111 1.353-.506 1.747l-1.691 1.689c-.404.403-.929.309-1.17-.207l-6.562-14.041-8.773 8.695v4.189c0 .577-.419 1.209-.969 1.424l-.746.292c-.535.209-1.154-.074-1.371-.605l-2.172-5.315-5.324-1.772c-.532-.177-.837-.774-.653-1.325l.386-1.157c.187-.559.801-.997 1.379-.997h4.211z" fill="#fff"/><path d="M17.496 108.724l-10.052 10.036h-4.625c-.151 0-.382.166-.431.313l-.386 1.157c-.008.022 5.78 1.976 5.78 1.976l2.346 5.741.081.052.746-.292c.159-.062.333-.32.333-.493v-4.606l10.077-9.988 6.998 14.974 1.414-1.412c.156-.155.285-.6.236-.822l-3.886-17.46.392-.389 3.088-3.06c2.053-2.042 3.034-4.71 1.886-5.966-1.049-1.147-3.679-.058-5.88 2.133l-3.351 3.346-17.585-3.902c-.224-.05-.67.08-.826.236l-1.411 1.409 15.056 7.016zm-3.437.605l-12.821-5.974c-1.146-.534-1.388-1.888-.492-2.782l1.691-1.689c.639-.638 1.782-.971 2.673-.773l16.515 3.664 2.577-2.573c2.939-2.925 6.599-4.441 8.769-2.066 2.129 2.33.769 6.027-1.953 8.735l-2.697 2.673 3.646 16.383c.198.891-.136 2.033-.775 2.672l-1.691 1.689c-.895.894-2.248.653-2.783-.492l-5.961-12.754-7.468 7.402v3.772c0 .992-.675 1.992-1.604 2.355l-.746.292c-1.046.409-2.238-.123-2.661-1.158l-1.998-4.89-4.887-1.627c-1.061-.353-1.643-1.52-1.286-2.59l.386-1.157c.322-.964 1.317-1.68 2.328-1.68h3.797l7.443-7.431z" fill="#97D9F2"/></g><g id="img"><path d="M111 53.715c4.314.501 7.81 7.282 14.32 7.282 2.99 0 4.68-2.166 4.68-6.499 0-12.999-6.695-19.498-11.18-19.498-2.997 0-5.189 2.16-7.82 2.415-2.631-.255-4.823-2.415-7.82-2.415-4.485 0-11.18 6.499-11.18 19.498 0 4.333 1.69 6.499 4.68 6.499 6.51 0 10.006-6.781 14.32-7.282z" id="Combined-Shape" fill="#fff"/><path d="M108.843 55.614c-.47.294-.968.653-1.584 1.134-.364.284-1.677 1.343-1.717 1.375-3.358 2.679-5.713 3.874-8.862 3.874-3.669 0-5.68-2.735-5.68-7.499 0-11.87 5.933-20.498 12.18-20.498 1.522 0 2.637.361 4.7 1.311l.846.385c.939.415 1.615.635 2.274.713.659-.078 1.335-.298 2.274-.713l.846-.385c2.064-.95 3.178-1.311 4.7-1.311 6.247 0 12.18 8.628 12.18 20.498 0 4.764-2.011 7.499-5.68 7.499-3.149 0-5.504-1.195-8.862-3.874-.039-.031-1.353-1.091-1.717-1.375-.616-.481-1.114-.84-1.584-1.134-.801-.501-1.498-.792-2.157-.891-.659.099-1.356.39-2.157.891zm2.272-2.893c1.025.119 2.022.522 3.101 1.197.538.336 1.089.734 1.755 1.254.378.296 1.704 1.365 1.733 1.388 3.033 2.419 5.039 3.437 7.615 3.437 2.408 0 3.68-1.73 3.68-5.499 0-10.89-5.231-18.498-10.18-18.498-1.146 0-2.05.293-3.864 1.128l-.874.398c-1.163.514-2.039.793-2.986.884h-.193c-.947-.092-1.823-.371-2.986-.884l-.874-.398c-1.813-.835-2.718-1.128-3.864-1.128-4.949 0-10.18 7.608-10.18 18.498 0 3.769 1.272 5.499 3.68 5.499 2.576 0 4.583-1.018 7.615-3.437.029-.023 1.354-1.092 1.733-1.388.666-.52 1.217-.917 1.755-1.254 1.079-.674 2.076-1.078 3.101-1.197l.115-.013.115.013zm-2.616-9.221c.551 0 1 .437 1 .99v3.019c0 .548-.454.99-1 .99h-3v3c0 .551-.437 1-.99 1h-3.019c-.548 0-.99-.454-.99-1v-3h-3c-.551 0-1-.437-1-.99v-3.019c0-.548.454-.99 1-.99h3v-3c0-.551.437-1 .99-1h3.019c.548 0 .99.454.99 1v3h3zm-4 1v-4h-3v4h-4v3h4v4h3v-4h4v-3h-4zm14.5 7c.828 0 1.5-.672 1.5-1.5s-.672-1.5-1.5-1.5-1.5.672-1.5 1.5.672 1.5 1.5 1.5zm0 1c-1.381 0-2.5-1.119-2.5-2.5s1.119-2.5 2.5-2.5 2.5 1.119 2.5 2.5-1.119 2.5-2.5 2.5zm0-9c.828 0 1.5-.672 1.5-1.5s-.672-1.5-1.5-1.5-1.5.672-1.5 1.5.672 1.5 1.5 1.5zm0 1c-1.381 0-2.5-1.119-2.5-2.5s1.119-2.5 2.5-2.5 2.5 1.119 2.5 2.5-1.119 2.5-2.5 2.5zm4 3c.828 0 1.5-.672 1.5-1.5s-.672-1.5-1.5-1.5-1.5.672-1.5 1.5.672 1.5 1.5 1.5zm0 1c-1.381 0-2.5-1.119-2.5-2.5s1.119-2.5 2.5-2.5 2.5 1.119 2.5 2.5-1.119 2.5-2.5 2.5zm-8-1c.828 0 1.5-.672 1.5-1.5s-.672-1.5-1.5-1.5-1.5.672-1.5 1.5.672 1.5 1.5 1.5zm0 1c-1.381 0-2.5-1.119-2.5-2.5s1.119-2.5 2.5-2.5 2.5 1.119 2.5 2.5-1.119 2.5-2.5 2.5z" id="Combined-Shape" fill="#61C5ED"/></g><g id="img"><path d="M232.556 28.444v2.091c0 1.195.944 2.131 2.109 2.131h2.116c1.174 0 2.109-.954 2.109-2.131v-15.006c0-.528-.09-1.165-.24-1.863h.242c1.174 0 2.109-.945 2.109-2.111 0-1.174-.944-2.111-2.109-2.111h-1.534c-.905-2.461-1.876-4.57-1.876-4.57-.9-2.139-3.552-3.875-5.886-3.875h-15.19c-2.332 0-4.97 1.735-5.886 3.876 0 0-.97 2.108-1.876 4.569h-1.534c-1.174 0-2.109.945-2.109 2.111 0 1.174.944 2.111 2.109 2.111h.243c-.151.697-.24 1.335-.24 1.863v15.006c0 1.195.944 2.131 2.109 2.131h2.116c1.174 0 2.109-.954 2.109-2.131v-2.091h21.111z" id="Combined-Shape" fill="#fff"/><path d="M212.444 29.444v1.091c0 1.73-1.383 3.131-3.109 3.131h-2.116c-1.724 0-3.109-1.391-3.109-3.131v-15.006c0-.306.025-.64.073-1.002-1.266-.393-2.184-1.571-2.184-2.972 0-1.721 1.385-3.111 3.109-3.111h.841c.358-.939.738-1.87 1.117-2.755l.392-.897.14-.31c1.074-2.508 4.073-4.482 6.805-4.482h15.19c2.74 0 5.752 1.98 6.795 4.457l.151.335.392.896c.38.886.76 1.817 1.118 2.757h.84c1.719 0 3.109 1.387 3.109 3.111 0 1.399-.915 2.579-2.184 2.972.048.362.073.696.073 1.002v15.006c0 1.73-1.383 3.131-3.109 3.131h-2.116c-1.724 0-3.109-1.391-3.109-3.131v-1.091h-19.111zm21.111 1.091c0 .637.491 1.131 1.109 1.131h2.116c.616 0 1.109-.5 1.109-1.131v-15.006c0-.426-.074-.984-.218-1.652l-.261-1.211h1.481c.618 0 1.109-.493 1.109-1.111 0-.619-.493-1.111-1.109-1.111h-2.231l-.241-.655-.169-.454c-.367-.972-.761-1.941-1.155-2.859l-.38-.87-.155-.344c-.742-1.762-3.025-3.263-4.964-3.263h-15.19c-1.933 0-4.209 1.498-4.978 3.294l-.142.314-.38.87c-.394.918-.788 1.887-1.155 2.859l-.169.453-.241.655h-2.232c-.618 0-1.109.493-1.109 1.111 0 .619.493 1.111 1.109 1.111h1.482l-.261 1.211c-.144.668-.218 1.226-.218 1.652v15.006c0 .637.491 1.131 1.109 1.131h2.116c.616 0 1.109-.5 1.109-1.131v-3.091h23.111v3.091zm-1.621-20.246l-.017-.045-.79-2.09-.26-.686-.099-.26c-.241-.636-1.076-1.209-1.764-1.209h-14.01c-.68 0-1.527.584-1.764 1.209l-.099.26-.26.686-.79 2.09-.017.045-.641 1.71h21.151l-.641-1.71zm.703-3.791l.099.26.261.687.792 2.094.017.045c.705 1.873 1.098 2.933 1.157 3.149l.349 1.266h-26.626l.349-1.266c.06-.217.452-1.277 1.157-3.149l.017-.045.792-2.094.261-.687.099-.26c.531-1.401 2.122-2.499 3.633-2.499h14.01c1.517 0 3.097 1.086 3.633 2.499zm-4.638 11.511v1.981l.003.009h4.994l.003-.009v-1.981l-.003-.009h-4.994l-.003.009zm-2 0c0-1.106.904-2.009 2.003-2.009h4.994c1.112 0 2.003.882 2.003 2.009v1.981c0 1.106-.904 2.009-2.003 2.009h-4.994c-1.112 0-2.003-.882-2.003-2.009v-1.981zm-15 0v1.981l.003.009h4.994l.003-.009v-1.981l-.003-.009h-4.994l-.003.009zm-2 0c0-1.106.904-2.009 2.003-2.009h4.994c1.112 0 2.003.882 2.003 2.009v1.981c0 1.106-.904 2.009-2.003 2.009h-4.994c-1.112 0-2.003-.882-2.003-2.009v-1.981z" id="Combined-Shape" fill="#CBECF9"/></g><g id="img"><path d="M72 160.501c0-.277.223-.501.508-.501h36.983c.281 0 .508.222.508.501v22.997c0 .277-.223.501-.508.501h-36.983c-.281 0-.508-.222-.508-.501v-22.997zm9 27.989c0-.271.225-.49.494-.49h19.011c.273 0 .494.215.494.49v3.019c0 .271-.225.49-.494.49h-19.011c-.273 0-.494-.215-.494-.49v-3.019z" id="Combined-Shape" fill="#fff"/><path d="M73 161v22h36v-22h-36zm-2-.499c0-.832.674-1.501 1.508-1.501h36.983c.83 0 1.508.667 1.508 1.501v22.997c0 .832-.674 1.501-1.508 1.501h-36.983c-.83 0-1.508-.667-1.508-1.501v-22.997zm11 30.499h18v-2h-18v2zm-2-2.51c0-.825.674-1.49 1.494-1.49h19.011c.824 0 1.494.661 1.494 1.49v3.019c0 .825-.674 1.49-1.494 1.49h-19.011c-.824 0-1.494-.661-1.494-1.49v-3.019zm-3.504-24.99c.005 0 .004 17 .004 17h29.004c-.005 0-.004-17-.004-17h-29.004zm-.996 0c0-.551.447-1 .996-1h29.009c.55 0 .996.452.996 1v17c0 .551-.447 1-.996 1h-29.009c-.55 0-.996-.452-.996-1v-17z" id="Combined-Shape" fill="#61C5ED"/></g><g id="img"><path d="M199 116.5v-2.502c0-.551.443-.998 1.009-.998h1.981c.557 0 1.009.446 1.009.998v31.504c0 .551-.445.998-1.001.998h-13.998c-.553 0-1.001-.447-1.001-.998v-28.004c0-.551.445-.998 1.001-.998h10.999zm-15 27.5v4.118c0 1.103.891 1.993 1.991 1.993h18.018c1.101 0 1.991-.892 1.991-1.993v-4.118h9c.553 0 1 .446 1 .998v7.005c0 .551-.455.998-1 .998h-33.999c-.553 0-1-.446-1-.998v-7.005c0-.551.455-.998 1-.998h3z" id="Combined-Shape" fill="#fff"/><path d="M200 117.5h-11.999l-.001 28.002c0-.002 13.999-.002 13.999-.002l.001-31.502c0 .004-1.991.002-1.991.002-.006 0-.009 3.5-.009 3.5zm-2-2v-1.502c0-1.107.895-1.998 2.009-1.998h1.981c1.107 0 2.009.891 2.009 1.998v31.504c0 1.105-.894 1.998-2.001 1.998h-13.998c-1.104 0-2.001-.894-2.001-1.998v-28.004c0-1.105.894-1.998 2.001-1.998h9.999zm-17 29.5c.003 0 0 7 0 7h34c-.003 0 0-7 0-7h-8v3.118c0 1.653-1.338 2.993-2.991 2.993h-18.018c-1.653 0-2.991-1.339-2.991-2.993v-3.118h-2zm4 3.118c0 .55.443.993.991.993h18.018c.548 0 .991-.444.991-.993v-5.118h10c1.104 0 2 .893 2 1.998v7.005c0 1.102-.902 1.998-2 1.998h-33.999c-1.104 0-2-.893-2-1.998v-7.005c0-1.102.902-1.998 2-1.998h4v5.118zm24.5 1.382h3v-2h-3v2zm-1-2.005c0-.55.439-.995.99-.995h3.019c.549 0 .99.442.99.995v2.009c0 .55-.439.995-.99.995h-3.019c-.549 0-.99-.442-.99-.995v-2.009zm-18-17.005c0 .006 8.99.01 8.99.01.006 0 .01-8.99.01-8.99 0-.006-8.99-.01-8.99-.01-.006 0-.01 8.99-.01 8.99zm-1-8.981c0-.558.452-1.01 1.01-1.01h8.981c.558 0 1.01.452 1.01 1.01v8.981c0 .558-.452 1.01-1.01 1.01h-8.981c-.558 0-1.01-.452-1.01-1.01v-8.981z" id="Combined-Shape" fill="#97D9F2"/></g><g id="img"><path d="M717 98.014v4.986h2.998c.554 0 1.002.443 1.002.999v1.002c0 .552-.456.999-1.002.999h-9.995c-.554 0-1.002-.443-1.002-.999v-1.002c0-.552.456-.999 1.002-.999h2.998v-4.986c-2.891-.939-5-3.81-5-6.681 0-3.5 2.333-9.333 2.333-9.333h9.333s2.333 5.833 2.333 9.333c0 2.871-2.109 5.742-5 6.681zm-18.6-25.214v3.2h1.104c2.483 0 4.496 2.015 4.496 4.491v25.013c0 .274-.228.496-.5.496h-17c-.276 0-.5-.224-.5-.496v-25.013c0-2.48 2.012-4.491 4.496-4.491h1.504v-3.2h6.4zm0-2.8v-3.227c0-.427-.478-.773-1.067-.773h-4.267c-.589 0-1.067.346-1.067.773v3.227h6.4z" id="Combined-Shape" fill="#fff"/><path d="M716 104v-6.712l.691-.224c2.465-.801 4.309-3.278 4.309-5.73 0-.842-.153-1.915-.437-3.158-.183-.8-.415-1.65-.685-2.527-.25-.812-.518-1.603-.786-2.34l-.113-.308h-7.957l-.113.308c-.268.737-.536 1.528-.786 2.34-.27.877-.502 1.727-.685 2.527-.284 1.243-.437 2.317-.437 3.158 0 2.452 1.844 4.929 4.309 5.73l.691.224v6.712h-3.998l-.002 1h9.998l.002-1h-4zm2-2h1.998c1.106 0 2.002.89 2.002 1.999v1.002c0 1.103-.903 1.999-2.002 1.999h-9.995c-1.106 0-2.002-.89-2.002-1.999v-1.002c0-1.103.903-1.999 2.002-1.999h1.998v-3.296c-2.923-1.269-5-4.281-5-7.37 0-1.016.173-2.227.488-3.604.195-.852.44-1.748.723-2.669.26-.847.539-1.669.818-2.436l.27-.725.105-.271.251-.629h10.687l.251.629.105.271.27.725c.279.767.558 1.589.818 2.436.284.922.528 1.818.723 2.669.315 1.376.488 2.588.488 3.604 0 3.089-2.077 6.102-5 7.37v3.296zm-25-28.2v3.2h-2.504c-1.931 0-3.496 1.563-3.496 3.491v24.509h16v-24.509c0-1.925-1.566-3.491-3.496-3.491h-2.104v-3.2h-4.4zm-2-2h8.4v3.2h.104c3.034 0 5.496 2.461 5.496 5.491v25.013c0 .828-.677 1.496-1.5 1.496h-17c-.826 0-1.5-.67-1.5-1.496v-25.013c0-3.033 2.46-5.491 5.496-5.491h.504v-3.2zm8.4-.8h-8.4v-4.227c0-1.061.982-1.773 2.067-1.773h4.267c1.085 0 2.067.711 2.067 1.773v4.227zm-2-3.996l-.067-.004h-4.267l-.067.004v1.996h4.4v-1.996zm-5.4 32.996h6v-12h-6v12zm8-14v16h-10v-16h10z" id="Combined-Shape" fill="#97D9F2"/></g><g id="img"><path d="M834.991 167.282h26.25c1.036 0 1.875.851 1.875 1.9v34.2c0 1.049-.839 1.9-1.875 1.9h-26.25c-1.036 0-1.875-.851-1.875-1.9v-34.2c0-1.049.839-1.9 1.875-1.9z" id="Combined-Shape" fill="#fff"/><path d="M834.991 168.282c-.48 0-.875.4-.875.9v34.2c0 .5.395.9.875.9h26.25c.48 0 .875-.4.875-.9v-34.2c0-.5-.395-.9-.875-.9h-26.25zm0-2h26.25c1.591 0 2.875 1.301 2.875 2.9v34.2c0 1.599-1.284 2.9-2.875 2.9h-26.25c-1.591 0-2.875-1.301-2.875-2.9v-34.2c0-1.599 1.284-2.9 2.875-2.9zm22.894 10.435c-1.657 0-3-1.343-3-3s1.343-3 3-3 3 1.343 3 3-1.343 3-3 3zm0-2c.552 0 1-.448 1-1s-.448-1-1-1-1 .448-1 1 .448 1 1 1zm-7 2c-1.657 0-3-1.343-3-3s1.343-3 3-3 3 1.343 3 3-1.343 3-3 3zm0-2c.552 0 1-.448 1-1s-.448-1-1-1-1 .448-1 1 .448 1 1 1zm-12.769 15.565c0 5.523 4.477 10 10 10s10-4.477 10-10-4.477-10-10-10-10 4.477-10 10zm22 0c0 6.627-5.373 12-12 12s-12-5.373-12-12 5.373-12 12-12 12 5.373 12 12zm-11.384.254l-.799.319c-2.765 1.084-4.768 1.442-6.498.759.89 2.843 3.545 4.906 6.681 4.906 3.723 0 6.767-2.906 6.987-6.573-1.321-1.1-2.786-.856-6.371.589zm8.384-1.016c0 4.971-4.029 9-9 9s-9-4.029-9-9v-2.414l1.707 1.707c1.505 1.505 3.149 1.446 6.379.18l.782-.312c4.598-1.853 6.619-2.088 8.839.132l.293.293v.414z" id="Combined-Shape" fill="#CBECF9"/></g><g><path d="M771 24.496c0-.274.225-.496.496-.496h25.008c.274 0 .496.225.496.496v25.008c0 .274-.225.496-.496.496h-25.008c-.274 0-.496-.225-.496-.496v-25.008zm-3.716-.496c-.276 0-.365-.174-.195-.392l7.166-9.216c.168-.217.53-.392.81-.392h17.873c.279 0 .64.174.81.392l7.166 9.216c.168.217.085.392-.195.392h-33.434z" id="Combined-Shape" fill="#fff"/><path d="M772 49h24v-24h-24v24zm-2-24.504c0-.826.672-1.496 1.496-1.496h25.008c.826 0 1.496.672 1.496 1.496v25.008c0 .826-.672 1.496-1.496 1.496h-25.008c-.826 0-1.496-.672-1.496-1.496v-25.008zm29.173-1.496l-6.216-7.994c.021.027-17.894-.006-17.894-.006.028 0-6.236 8-6.236 8h30.346zm-31.89 2c-1.103 0-1.669-1.126-.985-2.006l7.166-9.216c.359-.462 1.013-.778 1.599-.778h17.873c.587 0 1.239.315 1.599.778l7.166 9.216c.68.875.125 2.006-.985 2.006h-33.434zm10.232 8.5h3v-3h-3v3zm-1-3.01c0-.548.44-.99.99-.99h3.019c.548 0 .99.44.99.99v3.019c0 .548-.44.99-.99.99h-3.019c-.548 0-.99-.44-.99-.99v-3.019zm11 3.01h3v-3h-3v3zm-1-3.01c0-.548.44-.99.99-.99h3.019c.548 0 .99.44.99.99v3.019c0 .548-.44.99-.99.99h-3.019c-.548 0-.99-.44-.99-.99v-3.019zm-9 13.01h3v-3h-3v3zm-1-3.01c0-.548.44-.99.99-.99h3.019c.548 0 .99.44.99.99v3.019c0 .548-.44.99-.99.99h-3.019c-.548 0-.99-.44-.99-.99v-3.019zm11 3.01h3v-3h-3v3zm-1-3.01c0-.548.44-.99.99-.99h3.019c.548 0 .99.44.99.99v3.019c0 .548-.44.99-.99.99h-3.019c-.548 0-.99-.44-.99-.99v-3.019z" id="Combined-Shape" fill="#CBECF9"/></g><path d="M903.6 103.45h25.784c1.196 0 1.872.931 1.524 2.033l-5.166 16.359c-.355 1.123-1.622 2.033-2.797 2.033h-21.49c-1.19 0-2.155-.958-2.155-2.147v-18.28c0-1.196-.963-2.148-2.15-2.148-1.196 0-2.15-.963-2.15-2.15 0-1.196.972-2.15 2.17-2.15h2.13c2.391 0 4.3 1.93 4.3 4.311v2.14zm.7 29.55c-1.657 0-3-1.343-3-3s1.343-3 3-3 3 1.343 3 3-1.343 3-3 3zm15.05 0c-1.657 0-3-1.343-3-3s1.343-3 3-3 3 1.343 3 3-1.343 3-3 3z" fill="#fff"/><path d="M902.6 104.45v-3.14c0-1.835-1.468-3.311-3.3-3.311h-2.13c-.652 0-1.17.512-1.17 1.15 0 .639.51 1.15 1.15 1.15 1.742 0 3.15 1.402 3.15 3.148v18.28c0 .635.515 1.147 1.155 1.147h21.49c.747 0 1.623-.634 1.844-1.334l5.166-16.359c.146-.462-.054-.732-.571-.732h-26.784zm26.784-2c1.862 0 3.032 1.577 2.478 3.334l-5.166 16.359c-.485 1.536-2.136 2.732-3.751 2.732h-21.49c-1.743 0-3.155-1.406-3.155-3.147v-18.28c0-.639-.511-1.148-1.15-1.148-1.746 0-3.15-1.408-3.15-3.15 0-1.748 1.419-3.15 3.17-3.15h2.13c2.939 0 5.3 2.373 5.3 5.311v1.14h24.784zm-25.084 31.55c-2.209 0-4-1.791-4-4s1.791-4 4-4 4 1.791 4 4-1.791 4-4 4zm0-2c1.105 0 2-.895 2-2s-.895-2-2-2-2 .895-2 2 .895 2 2 2zm15.05 2c-2.209 0-4-1.791-4-4s1.791-4 4-4 4 1.791 4 4-1.791 4-4 4zm0-2c1.105 0 2-.895 2-2s-.895-2-2-2-2 .895-2 2 .895 2 2 2z" fill="#61C5ED"/></g></svg>