<svg width="932" height="207" viewBox="0 0 932 207" xmlns="http://www.w3.org/2000/svg"><g fill="none"><path fill-opacity=".03" fill="#00A1DE" d="M198 133l506-47 142.88 101.3-325.3-26.65z"/><path d="M198.1 134c-.56.05-1.04-.36-1.1-.9-.05-.56.36-1.04.9-1.1l5-.46c.54-.05 1.02.36 1.07.9.06.56-.35 1.04-.9 1.1l-4.98.46zm9.95-.93c-.55.05-1.04-.35-1.1-.9-.04-.55.36-1.04.9-1.1l5-.45c.54-.05 1.03.35 1.08.9.05.55-.35 1.04-.9 1.1l-4.98.45zm9.96-.93l5-.46c.6-.05 1-.54.9-1.1 0-.54-.5-.94-1.1-.9l-4.9.47c-.5.05-.9.54-.9 1.1.1.54.6.95 1.1.9zm10-.92l5-.46c.6-.05 1-.54.9-1.1 0-.54-.5-.94-1.1-.9l-5 .47c-.5.05-.9.54-.9 1.1.1.54.6.94 1.1.9zm10-.93l5-.5c.6-.1 1-.6.9-1.1 0-.6-.5-1-1.1-.9l-4.9.4c-.5 0-.9.5-.9 1.1.1.5.6.9 1.1.9zm10-1l5-.5c.6-.1 1-.6.9-1.1 0-.6-.5-1-1.1-.9l-4.9.4c-.5 0-.9.5-.9 1.1.1.5.6.9 1.1.9zm10-1l5-.5c.6-.1 1-.6 1-1.1-.1-.6-.5-1-1.1-.9l-5 .4c-.5 0-.9.5-.9 1.1.1.5.6.9 1.1.9zm10-.9l5-.5c.6-.1 1-.6.9-1.1 0-.6-.5-1-1.1-.9l-4.9.4c-.5 0-.9.5-.9 1.1.1.5.6.9 1.1.9zm10-1l5-.5c.6-.1 1-.6.9-1.1 0-.6-.5-1-1.1-.9l-5 .5c-.5 0-.9.5-.9 1.1.1.5.6.9 1.1.9zm10-1l5-.5c.6-.1 1-.6.9-1.1 0-.6-.5-1-1.1-.9l-4.9.4c-.5.1-.9.6-.9 1.1.1.6.6 1 1.1.9zm10-1l5-.5c.6-.1 1-.5.9-1.1 0-.5-.5-.9-1.1-.9l-4.9.5c-.5 0-.9.5-.9 1.1.1.5.5.9 1.1.9zm10-.9l5-.5c.6-.1 1-.6.9-1.1 0-.6-.5-1-1.1-.9l-4.9.4c-.6.1-1 .6-.9 1.1 0 .6.5 1 1.1.9zm10-1l5-.5c.6 0 1-.5.9-1.1 0-.5-.5-.9-1.1-.9l-4.9.5c-.6 0-1 .5-.9 1.1 0 .5.5.9 1.1.9zm9.9-1l5-.5c.6 0 1-.5.9-1.1 0-.6-.5-1-1-.9l-4.9.4c-.5 0-.9.5-.9 1.1.1.5.5.9 1.1.9zm10-1l5-.4c.6-.1 1-.6.9-1.1 0-.6-.5-1-1.1-.9l-4.9.4c-.5.1-.9.5-.9 1.1.1.5.6 1 1.1.9zm10-.9l5-.4c.6-.1 1-.6.9-1.1 0-.6-.5-1-1.1-.9l-4.9.4c-.5.1-.9.5-.9 1.1.1.5.6.9 1.1.9zm10-.9l5-.5c.5 0 1-.5.9-1.1-.1-.5-.5-.9-1.1-.9l-5 .5c-.5 0-.9.5-.9 1.1.1.5.6.9 1.1.9zm10-.9l5-.5c.6-.1 1-.6.9-1.1 0-.6-.5-1-1.1-.9l-4.9.4c-.5 0-.9.5-.9 1.1.1.5.5.9 1.1.9zm10-1l5-.5c.5-.1.9-.6.9-1.1-.1-.6-.5-1-1.1-.9l-5 .4c-.5 0-.9.5-.9 1.1.1.5.6.9 1.1.9zm10-.9l5-.5c.6-.1 1-.6.9-1.1 0-.6-.5-1-1.1-.9l-5 .4c-.5 0-.9.5-.9 1.1.1.5.5.9 1.1.9zm10-.9l5-.5c.5-.1.9-.6.9-1.1-.1-.6-.5-1-1.1-.9l-5 .5c-.5 0-.9.5-.9 1.1.1.5.5.9 1.1.9zm10-1l5-.5c.6-.1 1-.6.9-1.1 0-.6-.5-1-1.1-.9l-5 .4c-.5 0-.9.5-.9 1.1.1.5.6.9 1.1.9zm10-.9l5-.5c.6-.1 1-.6.9-1.1 0-.6-.5-1-1.1-.9l-5 .4c-.5 0-.9.5-.9 1.1.1.5.6.9 1.1.9zm10-1l5-.5c.5-.1.9-.5.9-1.1-.1-.5-.6-.9-1.1-.9l-5 .5c-.6 0-1 .5-.9 1.1 0 .5.5.9 1 .9zm10-.9l5-.5c.6-.1 1-.6.9-1.1 0-.6-.5-1-1.1-.9l-5 .4c-.5 0-.9.5-.9 1.1.1.5.6.9 1.1.9zm10-1l5-.5c.6-.1 1-.6.9-1.1 0-.6-.5-1-1.1-.9l-4.9.4c-.6.1-1 .6-.9 1.1 0 .6.5 1 1.1.9zm10-.9l5-.5c.6-.1 1-.6.9-1.1 0-.6-.5-1-1.1-.9l-5 .4c-.5 0-.9.5-.9 1.1.1.5.6.9 1.1.9zm10-1l5-.5c.5 0 .9-.5.9-1.1-.1-.5-.6-.9-1.1-.9l-5 .5c-.5 0-.9.5-.9 1.1.1.5.5.9 1.1.9zm9.9-1l5-.5c.5 0 .9-.5.9-1.1-.1-.5-.6-.9-1.1-.9l-5 .5c-.6.1-1 .6-.9 1.1 0 .6.5 1 1.1.9zm9.9-.9l5-.5c.6-.1 1-.6.9-1.1 0-.6-.5-1-1.1-.9l-4.9.4c-.5 0-.9.5-.9 1.1.1.5.5.9 1.1.9zm10-1l5-.4c.6 0 1-.5.9-1.1 0-.5-.5-.9-1-.9l-5 .5c-.5.1-1 .5-.9 1.1 0 .5.5.9 1.1.9zm10-.9l5-.4c.5-.1.9-.6.9-1.1-.1-.6-.5-1-1.1-.9l-5 .4c-.5 0-.9.5-.9 1.1.1.5.5.9 1.1.9zm10-.9l5-.5c.6 0 1-.5.9-1 0-.6-.5-1-1.1-.9l-4.9.4c-.6.1-1 .5-.9 1.1 0 .5.5.9 1.1.9zm10-.9l5-.5c.6 0 1-.5.9-1.1 0-.5-.5-.9-1.1-.9l-5 .5c-.5 0-.9.5-.9 1.1.1.5.6.9 1.1.9zm10-.9l5-.5c.5-.1.9-.6.9-1.1-.1-.6-.5-1-1.1-.9l-5 .4c-.5 0-.9.5-.9 1.1.1.5.5.9 1.1.9zm10-1l5-.5c.6-.1 1-.6.9-1.1 0-.6-.5-1-1.1-.9l-5 .4c-.6 0-1 .5-.9 1.1 0 .5.5.9 1.1.9zm10-.9l5-.5c.5-.1.9-.5.9-1.1-.1-.6-.6-1-1.1-.9l-5 .4c-.5 0-1 .5-.9 1.1.1.5.5.9 1.1.9zm9.9-.9l5-.4c.5 0 .9-.5.9-1.1-.1-.6-.6-1-1.1-.9l-5 .4c-.5.1-.9.6-.9 1.1.1.6.6 1 1.1.9zm10-.9l5-.4c.5-.1.9-.6.9-1.1-.1-.6-.6-1-1.1-.9l-5 .4c-.5 0-.9.5-.9 1.1.1.5.6.9 1.1.9zm9.9-.9l5-.4c.6-.1 1-.6.9-1.1 0-.6-.5-1-1.1-.9l-5 .4c-.5.1-.9.5-.9 1.1.1.5.5.9 1.1.9zm10-.9l5-.5c.6-.1 1-.5.9-1.1 0-.5-.5-1-1.1-.9l-5 .5c-.6 0-1 .5-.9 1.1.1.5.6.9 1.1.9zm10-.9l5-.5c.5-.1.9-.5.9-1.1-.1-.6-.6-1-1.1-.9l-5 .5c-.6 0-1 .5-.9 1.1 0 .5.5.9 1.1.9zm9.9-.9l5-.5c.6-.1 1-.5.9-1.1 0-.6-.5-1-1.1-.9l-4.9.4c-.5 0-.9.5-.9 1.1.1.5.5.9 1.1.9zm10-1l5-.5c.6-.1 1-.6.9-1.1 0-.6-.5-1-1.1-.9l-4.9.4c-.5.1-1 .5-.9 1.1.1.5.5.9 1.1.9zm10-.9l5-.5c.5-.1.9-.5.9-1.1-.1-.6-.6-1-1.1-.9l-5 .4c-.6 0-1 .5-.9 1.1 0 .5.5.9 1.1.9zm10-.9l5-.5c.6 0 1-.5.9-1.1 0-.5-.5-.9-1.1-.9l-4.9.5c-.5 0-.9.5-.9 1.1.1.5.5.9 1.1.9zm10-.9l5-.5c.5-.1.9-.5.9-1.1-.1-.6-.6-1-1.1-.9l-5 .4c-.6 0-1 .5-.9 1.1 0 .5.5.9 1.1.9zm9.9-1l5-.4c.5-.1.9-.6.9-1.1-.1-.6-.6-1-1.1-.9l-5 .5c-.5 0-.9.5-.9 1.1.1.5.5.9 1.1.9zm10-.9l5-.4c.5-.1.9-.6.9-1.1-.1-.6-.6-1-1.1-.9l-5 .4c-.5 0-.9.5-.9 1.1.1.5.5.9 1.1.9zm9.9-.9l5-.4c.5-.1 1-.5.9-1.1 0-.5-.5-.9-1.1-.9l-5 .5c-.5 0-.9.5-.9 1.1.1.5.5.9 1.1.9zm10-.9l5-.5c.6 0 1-.5.9-1.1 0-.6-.5-1-1.1-.9l-4.9.4c-.5 0-.9.5-.9 1.1.1.5.5.9 1.1.9zm9 .1l4.1 2.9c.5.3 1.1.2 1.4-.2.3-.5.2-1.1-.2-1.4l-4-2.9c-.5-.3-1.1-.2-1.4.3-.3.4-.2 1.1.2 1.4zm8.2 5.8l4.1 2.9c.5.3 1.1.2 1.4-.2.3-.5.2-1.1-.2-1.4l-4.1-2.9c-.4-.4-1.1-.3-1.4.2-.3.4-.2 1 .3 1.4zm8 5.9l4.1 2.9c.5.3 1.1.2 1.4-.3.3-.5.2-1.1-.2-1.4l-4.1-2.9c-.4-.3-1-.2-1.4.2-.3.4-.2 1 .3 1.4zm8.2 5.8l4.1 2.9c.4.3 1.1.2 1.4-.2.3-.5.2-1.1-.2-1.4l-4-2.9c-.5-.3-1.1-.2-1.4.2-.3.5-.2 1.1.2 1.4zm8.2 5.8l4.1 2.9c.5.3 1.1.2 1.4-.3.3-.4.2-1-.2-1.4l-4.1-2.9c-.4-.3-1.1-.2-1.4.3-.3.4-.2 1.1.3 1.4zm8.2 5.8l4.1 2.9c.5.3 1.1.2 1.4-.3.3-.4.2-1.1-.2-1.4l-4.1-2.9c-.4-.3-1-.2-1.4.3-.3.4-.2 1 .3 1.4zm8.1 5.8l4.1 2.9c.5.3 1.1.2 1.4-.3.3-.5.2-1.1-.2-1.4l-4.1-3c-.4-.3-1-.2-1.4.2-.3.4-.2 1.1.3 1.4zm8.2 5.7l4.1 2.9c.5.3 1.1.2 1.4-.3.3-.5.2-1.1-.2-1.4l-4-2.9c-.5-.3-1.1-.2-1.4.2-.3.5-.2 1.1.2 1.4zm8.2 5.7l4.1 2.9c.4.4 1.1.2 1.4-.2.3-.4.2-1.1-.3-1.4l-4.1-2.9c-.4-.3-1.1-.2-1.4.3-.3.4-.2 1 .3 1.4zm8.2 5.8l4.1 2.9c.5.3 1.1.2 1.4-.2.3-.5.2-1.1-.2-1.4l-4.1-2.9c-.4-.4-1-.3-1.4.2-.3.5-.2 1.1.3 1.4zm8.2 5.8l4.1 2.9c.5.3 1.1.2 1.4-.2.3-.5.2-1.1-.2-1.4l-4.1-2.9c-.4-.3-1.1-.2-1.4.2-.3.5-.2 1.1.2 1.4zm8.1 5.8l4 2.9c.4.3 1.1.2 1.4-.2.3-.5.2-1.1-.3-1.4l-5-2.2c-.4-.4-1-.3-1.4.2-.3.4-.2 1.1.3 1.4zm8.1 5.8l4 2.9c.4.3 1.1.2 1.4-.2.3-.5.2-1.1-.3-1.4l-4.1-2.9c-.4-.3-1-.2-1.4.2-.3.5-.2 1.1.3 1.4zm8.1 5.8l4.1 2.9c.5.3 1.1.2 1.4-.3.3-.4.2-1.1-.2-1.4l-4.1-2.9c-.5-.3-1.1-.2-1.4.2-.3.5-.2 1.1.2 1.4zm8.2 5.8l4.1 2.9c.4.3 1 .2 1.4-.3.3-.4.2-1.1-.3-1.4l-4.1-2.9c-.5-.3-1.1-.2-1.4.3-.3.4-.2 1 .2 1.4zm8.2 5.7l4.1 2.9c.4.3 1.1.2 1.4-.2.3-.4.2-1-.3-1.4l-4.1-2.9c-.5-.3-1.1-.2-1.4.3-.3.5-.2 1.1.2 1.4zm8.1 5.8l4.1 2.9c.4.3 1.1.2 1.4-.2.3-.4.2-1.1-.3-1.4l-4.1-2.9c-.4-.3-1.1-.2-1.4.3-.3.5-.2 1.1.3 1.4zm8.8 6.7c-.1.6.3 1.1.9 1.1l5.3.5-5.7-4.1c-.5-.4-1.1-.2-1.4.2-.3.5-.2 1.1.2 1.4l.7.5c-.1.1-.1.2-.1.4zm-3.9-1.3l-5-.4c-.6 0-1 .4-1.1.9-.1.6.3 1.1.9 1.1l5 .4c.5.1 1-.3 1-.9.1-.5-.3-1-.9-1.1zm-10-.8l-5-.4c-.6 0-1.1.4-1.1.9-.1.6.3 1.1.9 1.1l5 .4c.5.1 1-.3 1-.9.1-.5-.3-1-.9-1.1zm-10-.8l-5-.4c-.5 0-1 .4-1.1.9-.1.6.4 1.1.9 1.1l5 .4c.5.1 1-.4 1.1-.9 0-.5-.4-1-.9-1.1zm-10-.8l-5-.4c-.6 0-1 .4-1.1.9 0 .6.4 1 .9 1.1l5 .4c.6 0 1.1-.4 1.1-.9 0-.6-.4-1-.9-1.1zm-10-.8l-5-.4c-.5-.1-1 .4-1.1.9 0 .6.4 1 .9 1.1l5 .4c.6 0 1.1-.4 1.1-.9.1-.5-.3-1-.9-1.1zm-10-.8l-5-.4c-.5 0-1 .4-1 .9 0 .6.4 1.1.9 1.1l5 .4c.6.1 1-.4 1.1-.9 0-.6-.4-1-.9-1.1zm-9.9-.8l-5-.4c-.5-.1-1 .4-1.1.9 0 .6.4 1 .9 1.1l5 .4c.6 0 1-.4 1.1-.9.1-.6-.3-1.1-.9-1.1zm-10-.8l-5-.4c-.5-.1-1 .3-1.1.9 0 .5.4 1 .9 1.1l5 .4c.6 0 1-.4 1.1-1 .1-.5-.3-1-.9-1.1zm-10-.8l-4.9-.4c-.5 0-1 .4-1.1.9 0 .6.4 1.1.9 1.1l5 .4c.6.1 1.1-.3 1.1-.9.1-.5-.3-1-.9-1zm-9.9-.8l-5-.4c-.6 0-1 .4-1.1.9-.1.6.3 1.1.9 1.1l5 .4c.5.1 1-.3 1.1-.9 0-.5-.4-1-.9-1.1zm-10-.8l-5-.4c-.6 0-1 .4-1.1.9 0 .6.4 1.1.9 1.1l5 .4c.6.1 1-.4 1.1-.9 0-.5-.4-1-.9-1zm-10-.8l-5-.4c-.6 0-1 .4-1.1.9-.1.6.4 1.1.9 1.1l5 .4c.5.1 1-.3 1.1-.9 0-.5-.4-1-.9-1.1zm-10-.8l-5-.4c-.6 0-1.1.4-1.1.9-.1.6.3 1.1.9 1.1l5 .4c.5.1 1-.3 1-.9s-.4-1-.9-1.1zm-10-.8l-5-.4c-.5 0-1 .4-1.1.9 0 .6.4 1.1.9 1.1l5 .4c.6.1 1-.3 1.1-.9 0-.6-.4-1-.9-1.1zm-10-.8l-5-.4c-.5-.1-1 .4-1 .9s.4 1 .9 1.1l5 .4c.6 0 1-.4 1.1-.9.1-.6-.3-1.1-.9-1.1zm-9.9-.8l-5-.4c-.5-.1-1 .3-1.1.9 0 .5.4 1 .9 1.1l5 .4c.6.1 1-.3 1.1-.9.1-.5-.3-1-.9-1.1zm-10-.8l-5-.4c-.5 0-1 .4-1.1.9 0 .6.4 1.1.9 1.1l5 .4c.6.1 1.1-.3 1.1-.9.1-.5-.3-1-.9-1zm-10-.8l-5-.4c-.5 0-1 .4-1 .9 0 .6.4 1.1.9 1.1l5 .4c.6.1 1-.3 1.1-.9 0-.5-.4-1-.9-1.1zm-9.9-.8l-5-.4c-.6 0-1 .4-1.1.9 0 .6.4 1.1.9 1.1l5 .4c.6.1 1-.3 1.1-.9 0-.5-.4-1-.9-1zm-9.9-.8l-5-.4c-.6 0-1 .4-1.1.9 0 .6.4 1.1.9 1.1l5 .4c.6.1 1.1-.3 1.1-.9.1-.5-.4-1-.9-1.1zm-9.9-.8l-5-.4c-.6 0-1 .4-1.1.9-.1.6.3 1.1.9 1.1l5 .4c.5.1 1-.3 1.1-.9 0-.5-.4-1-.9-1.1zm-10-.8l-5-.4c-.5 0-1 .4-1.1.9 0 .6.4 1.1.9 1.1l5 .4c.6.1 1.1-.3 1.1-.9.1-.5-.4-1-.9-1zm-10-.8l-5-.4c-.55 0-1 .4-1.1.9 0 .6.4 1.1.95 1.1l5 .4c.6.1 1.1-.3 1.1-.9.1-.5-.3-1-.9-1zm-10-.8l-5-.4c-.55 0-1 .4-1.1.9 0 .6.4 1.1.9 1.1l5 .4c.6.1 1.1-.3 1.1-.9.1-.5-.3-1-.9-1.1zm-10-.8l-5-.4c-.5 0-1 .4-1.05.9-.1.6.3 1.1.9 1.1l5 .4c.5.1 1-.4 1.1-.9 0-.5-.4-1-.9-1.1zm-10-.8l-5-.4c-.53 0-1 .4-1.1.9 0 .6.4 1 .9 1.1l5 .4c.6 0 1.1-.4 1.1-.9.1-.6-.3-1.1-.9-1.1zm-10-.8l-5-.4c-.53-.1-1 .3-1.1.9 0 .5.4 1 .9 1l5 .4c.6.1 1.1-.3 1.1-.9.1-.5-.3-1-.9-1.1zm-10-.8l-5-.4c-.5-.1-1 .3-1 .9-.1.5.36 1 .9 1l5 .4c.5.1 1-.3 1.07-.9 0-.5-.4-1-.96-1.1zm-9.9-.9l-5-.4c-.6 0-1 .4-1.1.9-.03.6.4 1.1.9 1.1l4.97.4c.5.1 1-.3 1-.9.1-.5-.3-1-.9-1.1zm-10-.8l-5-.4c-.5 0-1 .4-1.1.9 0 .6.4 1.1.9 1.1l5 .4c.6.1 1.1-.4 1.1-.9.1-.5-.32-1-.9-1.1zm-10-.8l-5-.4c-.5 0-1 .4-1 .9-.1.6.3 1 .9 1.1l5 .4c.5 0 1-.4 1-.9s-.4-1-.9-1.1zm-10-.8l-4.9-.4c-.5-.1-1 .3-1 .9-.03.5.38 1 .9 1.1l5 .4c.57 0 1-.4 1.1-.9 0-.6-.4-1.1-.9-1.1zm-9.9-.8l-4.93-.4c-.6-.1-1.1.3-1.1.9-.1.5.3 1 .9 1.1l4.9.4c.6 0 1.1-.4 1.1-.9.1-.6-.3-1.1-.9-1.1zm-9.92-.9l-5-.5c-.5-.1-1 .3-1.1.9 0 .5.4 1 .9 1.1l5 .4c.6.1 1.1-.3 1.1-.9 0-.5-.4-1-.9-1.1zm-9.9-.9l-5-.4c-.5-.1-1 .3-1.1.9 0 .5.4 1 .9 1.1l5 .4c.55 0 1-.4 1.1-.9.04-.6-.4-1.1-.9-1.1zm-10-.9l-5-.4c-.5-.1-1 .4-1.06.9 0 .6.4 1 .9 1.1l5 .4c.6 0 1.1-.4 1.1-.9 0-.6-.4-1.1-.9-1.1zm-9.96-.8l-5-.4c-.5-.1-1 .3-1 .9-.1.5.3 1 .9 1.1l5 .4c.5 0 1-.4 1-.9 0-.6-.4-1.1-.9-1.1zm-9.9-.9l-5-.4c-.6 0-1.1.4-1.1.9-.1.6.3 1.1.9 1.1l5 .4c.5.1 1-.3 1-.9 0-.5-.4-1-.9-1.1zm-10-.9l-5-.4c-.6 0-1 .4-1.1.9-.1.6.4 1 .9 1.1l5 .4c.5 0 1-.4 1.1-.9 0-.6-.4-1.1-.9-1.1zm-10-.8l-5-.4c-.5-.1-1 .3-1 .9-.1.5.3 1 .9 1.1l5 .4c.5 0 1-.4 1-.9 0-.6-.4-1.1-.9-1.1zm-9.9-.9l-5-.5c-.6-.1-1.1.3-1.1.9-.1.5.3 1 .9 1.1l5 .4c.5 0 1-.4 1-.9s-.4-1.1-.9-1.1zm-10-.9l-5-.4c-.6-.1-1.1.3-1.1.9-.1.5.3 1 .9 1.1l5 .4c.5 0 1-.4 1.1-.9 0-.6-.4-1.1-.9-1.1zm-10-.9l-5-.4c-.5-.1-1 .4-1.1.9 0 .5.4 1 .9 1l5 .4c.5 0 1-.4 1.1-1 0-.6-.4-1.1-.9-1.1zm-10-.8l-5-.4c-.6 0-1.1.4-1.1.9-.1.6.3 1.1.9 1.1l5 .4c.5.1 1-.3 1.1-.9 0-.5-.4-1-.9-1.1zm-10-.9l-5-.5c-.5 0-1 .4-1.1.9-.1.6.3 1 .9 1.1l5 .4c.5 0 1-.4 1-.9.03-.6-.4-1-.9-1.1zm-10-.9l-5-.4c-.6-.1-1.1.3-1.1.9 0 .5.4 1 .9 1.1l5 .4c.5 0 1-.4 1.1-.9 0-.6-.4-1.1-.9-1.1zm-10-.9l-5-.4c-.6 0-1 .4-1.1.9-.1.6.3 1.1.9 1.1l5 .4c.5 0 1-.4 1.1-.9 0-.6-.4-1-.9-1.1zm-10-.8l-5-.4c-.5-.1-1 .3-1.07.9-.1.5.3 1 .9 1.1l5 .4c.5 0 1-.4 1.1-.9.04-.6-.4-1.1-.9-1.1zm-9.97-.9l-5-.5c-.6 0-1 .4-1.1.9 0 .6.4 1 .9 1.1l5 .4c.5.1 1-.3 1.1-.9.1-.5-.3-1-.9-1.1zm-10-.9l-4.9-.5c-.6 0-1.1.4-1.1.9-.1.6.3 1 .9 1.1l5 .4c.5 0 1-.4 1.04-.9 0-.6-.4-1.1-.9-1.1zm-9.9-.9l-5-.4c-.5-.1-1 .3-1 .9-.1.5.3 1 .9 1.1l5 .4c.5 0 1-.4 1.04-.9 0-.6-.4-1-.9-1.1zm-9.9-.9l-5-.4c-.6-.1-1.05.3-1.1.9-.06.5.35 1 .9 1.1l5 .4c.5 0 1-.4 1.06-.9.1-.6-.3-1.1-.9-1.1zm-10-.9l-5-.5c-.55-.1-1.04.3-1.1.9 0 .5.4 1 .9 1.1l5 .4c.56 0 1.04-.4 1.1-.9.04-.6-.4-1.1-.9-1.1zm-10-.9l-5-.4c-.5 0-1 .4-1.05.9 0 .5.4 1 .9 1.1l5 .4c.6 0 1.06-.4 1.1-.9.1-.6-.34-1.1-.9-1.1zm-9.95-.8l-4.95-.4c-.5 0-1 .4-1.1.9 0 .6.4 1.1.9 1.1l5 .4c.6.1 1.1-.4 1.1-.9.1-.6-.3-1-.9-1.1zm-9.9-.8l-5-.4c-.5 0-1 .4-1.1 1 0 .5.4 1 .9 1.1l5 .4c.6.1 1.1-.3 1.1-.9.05-.5-.35-1-.9-1.1zm-10-.9l-4.95-.5c-.5 0-1 .4-1.1.9 0 .6.4 1.1.9 1.1l5 .4c.6 0 1-.4 1.1-.9.1-.6-.4-1.1-.9-1.1zm-9.9-.9l-5-.5c-.6 0-1.1.4-1.1.9 0 .6.4 1.1.9 1.1l5 .5c.5.1 1-.3 1.1-.9 0-.5-.4-1-.9-1.1zm-10-.9l-5-.4c-.55 0-1 .4-1.1.9-.04.6.37 1 .9 1.1l5 .4c.5.1 1-.3 1.1-.9.1-.5-.3-1-.9-1.1zm-10-.8l-5-.4c-.6-.1-1.1.4-1.1.9-.1.6.3 1 .9 1.1l5 .5c.5 0 1-.4 1-.9.1-.6-.3-1.1-.9-1.1zm-9.96-.9l-5-.4c-.5 0-1 .4-1 .9 0 .6.4 1 .9 1.1l5 .4c.6 0 1-.4 1.1-.9 0-.5-.4-1-.9-1.1zm-9.9-.9l-5-.4c-.5-.04-1 .4-1.1.9 0 .6.4 1.05.9 1.1l5 .45c.6.05 1-.36 1.1-.9.1-.56-.34-1-.9-1.1zm-10-.84l-5-.4c-.5-.1-1 .3-1.1.9 0 .5.4 1 .9 1.1l5 .4c.6 0 1-.4 1.1-.9.1-.6-.3-1.1-.9-1.1zm-9.9-.9c.6.1 1 .6.9 1.1 0 .6-.5 1-1 .97l-5-.43c-.5 0-.9-.5-.9-1.1.1-.5.6-.9 1.1-.9l5 .5zm-9.9-.8c.6.06 1 .5.9 1.1 0 .5-.5.9-1.1.9l-4.4-.4c-.5-.04-.94-.5-.9-1.1 0-.5.5-.9 1.1-.9l4.5.4z" fill="#E6F5FB"/><path fill-opacity=".03" fill="#00A1DE" d="M222.38 17.58L912 116l-62.95 71.3z"/><path d="M222.24 18.57c-.54-.07-.92-.58-.85-1.13 0-.55.5-.93 1.1-.85l4.9.7c.5 0 .9.5.8 1.1-.1.5-.6.9-1.2.8l-5-.7zm9.9 1.42c-.54-.1-.92-.6-.85-1.2 0-.6.5-1 1.1-.9l4.9.7c.5.1.9.6.8 1.1-.1.5-.6.9-1.2.8l-5-.7zm9.9 1.4c-.54-.1-.92-.6-.85-1.2 0-.6.5-1 1.1-.9l4.9.7c.5.1.9.6.8 1.1-.1.5-.6.9-1.2.8l-5-.7zm9.9 1.4c-.54-.1-.92-.6-.85-1.2 0-.6.5-1 1.1-.9l4.9.7c.5.1.9.6.8 1.1-.1.5-.6.9-1.2.8l-5-.7zm9.9 1.4l4.95.7c.5.1 1-.3 1.1-.9.1-.6-.3-1.1-.9-1.2l-5-.7c-.6-.1-1.1.3-1.2.8-.1.5.3 1 .8 1.1zm9.9 1.4l4.95.7c.5.1 1-.3 1.1-.9.1-.6-.3-1.1-.9-1.2l-5-.7c-.6-.1-1.1.3-1.2.8-.1.5.3 1 .8 1.1zm9.9 1.4l4.95.7c.5.1 1-.3 1.1-.9.1-.6-.3-1.1-.9-1.2l-5-.7c-.6-.1-1.1.3-1.2.8-.1.5.3 1 .8 1.1zm9.9 1.4l4.95.7c.5.1 1-.3 1.1-.9.1-.6-.3-1.1-.9-1.2l-5-.7c-.6-.1-1.1.3-1.2.8-.1.5.3 1.1.8 1.1zm9.9 1.4l4.95.7c.5.1 1-.3 1.1-.9.1-.6-.3-1.1-.9-1.2l-5-.7c-.6-.1-1.1.3-1.2.8-.1.5.3 1 .8 1.1zm9.9 1.4l4.95.7c.5 0 1-.3 1.1-.9.1-.6-.3-1.1-.9-1.2l-5-.7c-.6-.1-1.1.3-1.2.8-.1.5.3 1 .8 1.1zm9.9 1.4l4.95.7c.5.1 1-.3 1.1-.9.1-.6-.3-1.1-.9-1.2l-5-.7c-.6-.1-1.1.3-1.2.8-.1.5.3 1.1.8 1.1zm9.9 1.4l4.95.7c.5.1 1-.3 1.1-.9.1-.6-.3-1.1-.9-1.2l-5-.7c-.6-.1-1.1.3-1.2.8-.1.5.3 1 .8 1.1zm9.9 1.4l4.95.7c.5.1 1-.3 1.1-.8.1-.6-.3-1.1-.9-1.2l-5-.7c-.6-.1-1.1.3-1.2.8-.1.5.3 1 .8 1.1zm9.9 1.4l4.95.7c.5.1 1-.3 1.1-.9.1-.6-.3-1.1-.9-1.2l-5-.7c-.6-.1-1.1.3-1.2.8-.1.5.3 1 .8 1.1zm9.9 1.4l4.95.7c.5 0 1-.3 1.1-.9.1-.6-.3-1.1-.9-1.1l-5-.7c-.6-.1-1.1.3-1.2.8-.1.5.3 1 .8 1.1zm9.9 1.4l4.95.7c.5.1 1-.3 1.1-.9.1-.6-.3-1.1-.9-1.2l-5-.7c-.6-.1-1.1.3-1.2.8-.1.5.3 1.1.8 1.1zm9.9 1.4l4.95.7c.5 0 1-.4 1.1-.9.1-.6-.3-1.1-.9-1.2l-5-.7c-.6-.1-1.1.3-1.2.8-.1.5.3 1 .8 1.1zm9.9 1.4l4.95.7c.5 0 1-.3 1.1-.9.1-.6-.3-1.1-.9-1.1l-5-.7c-.6-.1-1.1.3-1.2.8-.1.5.3 1.1.8 1.1zm9.9 1.4l4.95.7c.5.1 1-.3 1.1-.9.1-.6-.3-1.1-.9-1.2l-5-.7c-.6-.1-1.1.3-1.2.8-.1.5.3 1.1.8 1.1zm9.9 1.4l4.95.7c.5.1 1-.3 1.1-.9.1-.6-.3-1.1-.9-1.1l-5-.7c-.6-.1-1.1.3-1.2.8-.1.5.3 1 .8 1.1zm9.9 1.4l4.95.7c.5 0 1-.3 1.1-.9.1-.6-.3-1.1-.9-1.1l-5-.7c-.6-.1-1.1.3-1.2.8-.1.5.3 1 .8 1.1zm9.9 1.4l4.95.7c.5.1 1-.3 1.1-.9.1-.6-.3-1.1-.9-1.2l-5-.7c-.6-.1-1.1.3-1.2.8-.1.5.3 1 .8 1.1zm9.9 1.4l4.95.7c.5.1 1-.3 1.1-.8.1-.6-.3-1.1-.9-1.2l-5-.7c-.6-.1-1.1.3-1.2.8-.1.5.3 1 .8 1.1zm9.9 1.4l4.95.7c.5.1 1-.3 1.1-.9.1-.6-.3-1.1-.9-1.1l-5-.7c-.6-.1-1.1.3-1.2.8-.1.5.3 1 .8 1.1zm9.9 1.4l4.95.7c.5 0 1-.3 1.1-.9.1-.6-.3-1.1-.9-1.1l-5-.7c-.6-.1-1.1.3-1.2.8-.1.5.3 1 .8 1.1zm9.9 1.4l4.95.7c.5.1 1-.3 1.1-.9.1-.6-.3-1.1-.9-1.2l-5-.7c-.6-.1-1.1.3-1.2.8-.1.5.3 1 .8 1.1zm9.9 1.4l4.95.7c.5 0 1-.3 1.1-.9.1-.6-.3-1.1-.9-1.2l-5-.7c-.6-.1-1.1.3-1.2.8-.1.5.3 1 .8 1.1zm9.9 1.4l4.95.7c.5.1 1-.3 1.1-.9.1-.6-.3-1.1-.9-1.1l-5-.7c-.6-.1-1.1.3-1.2.8-.1.5.3 1 .8 1.1zm9.9 1.4l4.95.7c.5.1 1-.3 1.1-.9.1-.6-.3-1.1-.9-1.2l-5-.7c-.6-.1-1.1.3-1.2.9-.1.5.3 1 .8 1.1zm9.9 1.4l4.95.7c.5 0 1-.3 1.1-.9.1-.6-.3-1.1-.9-1.1l-5-.7c-.6-.1-1.1.3-1.2.8-.1.5.3 1 .8 1.1zm9.9 1.4l4.95.7c.5.1 1-.3 1.1-.9.1-.6-.3-1.1-.9-1.1l-5-.7c-.6-.1-1.1.3-1.2.8-.1.5.3 1 .8 1.1zm9.9 1.4l4.95.7c.5.1 1-.3 1.1-.9.1-.6-.3-1.1-.9-1.2l-5-.7c-.6-.1-1.1.3-1.2.8-.1.5.3 1 .8 1.1zm9.9 1.4l4.95.7c.5.1 1-.3 1.1-.9.1-.5-.3-1.1-.9-1.1l-5-.7c-.6-.1-1.1.3-1.2.8-.1.5.3 1 .8 1.1zm9.9 1.4l4.95.7c.5.1 1-.3 1.1-.9.1-.6-.3-1.1-.9-1.2l-5-.7c-.6-.1-1.1.3-1.2.8-.1.5.3 1 .8 1.1zm9.9 1.4l4.95.7c.5 0 1-.3 1.1-.9.1-.6-.3-1.1-.9-1.2l-5-.7c-.6-.1-1.1.3-1.2.8-.1.5.3 1 .8 1.1zm9.9 1.4l4.95.7c.5.1 1-.3 1.1-.9.1-.6-.3-1.1-.9-1.2l-5-.7c-.6-.1-1.1.3-1.2.8-.1.5.3 1 .8 1.1zm9.9 1.4l4.95.7c.5 0 1-.3 1.1-.9.1-.5-.3-1-.9-1.1l-5-.7c-.6-.1-1.1.3-1.2.8-.1.5.3 1 .8 1.1zm9.9 1.4l4.95.7c.5.1 1-.3 1.1-.9.1-.6-.3-1.1-.9-1.2l-5-.7c-.6-.1-1.1.3-1.2.8-.1.5.3 1 .8 1.1zm9.9 1.4l4.95.7c.5.1 1-.3 1.1-.9.1-.6-.3-1.1-.9-1.2l-5-.7c-.6-.1-1.1.3-1.2.8-.1.5.3 1 .8 1.1zm9.9 1.4l4.95.7c.5.1 1-.3 1.1-.9.1-.6-.3-1.1-.9-1.2l-5-.7c-.6-.1-1.1.3-1.2.8-.1.5.3 1 .8 1.1zm9.9 1.4l4.95.7c.5.1 1-.3 1.1-.9.1-.5-.3-1-.9-1.1l-5-.7c-.6-.1-1.1.3-1.2.8-.1.5.3 1 .8 1.1zm9.9 1.4l4.95.7c.5.1 1-.3 1.1-.8.1-.6-.3-1.1-.9-1.2l-5-.7c-.6-.1-1.1.3-1.2.8-.1.5.3 1 .8 1.1zm9.9 1.4l4.95.7c.5.1 1-.3 1.1-.8.1-.6-.3-1.1-.9-1.2l-5-.7c-.6-.1-1.1.3-1.2.8-.1.5.3 1 .8 1.1zm9.9 1.4l4.95.7c.5.1 1-.3 1.1-.8.1-.6-.3-1.1-.9-1.2l-5-.7c-.6-.1-1.1.3-1.2.8-.1.5.3 1 .8 1.1zm9.9 1.4l4.95.7c.5.1 1-.3 1.1-.8.1-.6-.3-1.1-.9-1.1l-5-.7c-.6-.1-1.1.3-1.2.8-.1.5.3 1 .8 1.1zm9.9 1.4l4.95.7c.5.1 1-.3 1.1-.8.1-.6-.3-1.1-.9-1.1l-5-.7c-.6-.1-1.1.3-1.2.8-.1.5.3 1 .8 1.1zm9.9 1.4l4.95.7c.5.1 1-.3 1.1-.9.1-.6-.3-1.1-.9-1.2l-5-.7c-.6-.1-1.1.3-1.2.8-.1.5.3 1 .8 1.1zm9.9 1.4l4.95.7c.5.1 1-.3 1.1-.9.1-.6-.3-1.1-.9-1.2l-5-.7c-.6-.1-1.1.3-1.2.8-.1.5.3 1 .8 1.1zm9.9 1.4l4.95.7c.5 0 1-.3 1.1-.9.1-.5-.3-1-.9-1.1l-5-.7c-.6-.1-1.1.3-1.2.8-.1.5.3 1 .8 1.1zm9.9 1.4l4.95.7c.5 0 1-.3 1.1-.9.1-.6-.3-1.1-.9-1.1l-5-.7c-.6-.1-1.1.3-1.2.8-.1.5.3 1 .8 1.1zm9.9 1.4l4.95.7c.5.1 1-.3 1.1-.9.1-.6-.3-1.1-.9-1.2l-5-.7c-.6-.1-1.1.3-1.2.8-.1.5.3 1 .8 1.1zm9.9 1.4l4.95.7c.5.1 1-.3 1.1-.9.1-.6-.3-1.1-.9-1.2l-5-.7c-.6-.1-1.1.3-1.2.8-.1.5.3 1 .8 1.1zm9.9 1.4l4.95.7c.5.1 1-.3 1.1-.8.1-.6-.3-1.1-.9-1.2l-5-.7c-.6-.1-1.1.3-1.2.8-.1.5.3 1 .8 1.1zm9.9 1.4l4.95.7c.5.1 1-.3 1.1-.8.1-.6-.3-1.1-.9-1.2l-5-.7c-.6-.1-1.1.3-1.2.8-.1.5.3 1 .8 1.1zm9.9 1.4l4.95.7c.5.1 1-.3 1.1-.8.1-.6-.3-1.1-.9-1.2l-5-.7c-.6-.1-1.1.3-1.2.9-.1.5.3 1 .8 1.1zm9.9 1.4l4.95.7c.5.1 1-.3 1.1-.9.1-.6-.3-1.1-.9-1.2l-5-.7c-.6-.1-1.1.3-1.2.8-.1.5.3 1 .8 1.1zm9.9 1.4l4.95.7c.5.1 1-.3 1.1-.9.1-.6-.3-1.1-.9-1.1l-5-.7c-.6-.1-1.1.3-1.2.8-.1.5.3 1 .8 1.1zm9.9 1.4l4.95.7c.5.1 1-.3 1.1-.8.1-.6-.3-1.1-.9-1.2l-5-.7c-.6-.1-1.1.3-1.2.8-.1.5.3 1.1.8 1.1zm9.9 1.4l4.95.7c.5.1 1-.3 1.1-.9.1-.6-.3-1.1-.9-1.1l-5-.7c-.6-.1-1.1.3-1.2.8-.1.5.3 1 .8 1.1zm9.9 1.4l4.95.7c.5.1 1-.3 1.1-.9.1-.6-.3-1.1-.9-1.1l-5-.7c-.6-.1-1.1.3-1.2.8-.1.6.3 1.1.8 1.1zm9.9 1.4l4.95.7c.5.1 1-.3 1.1-.8.1-.6-.3-1.1-.9-1.1l-5-.7c-.6-.1-1.1.3-1.2.8-.1.5.3 1 .8 1.1zm9.9 1.4l4.95.7c.5.1 1-.3 1.1-.9.1-.5-.3-1.1-.9-1.1l-5-.7c-.6-.1-1.1.3-1.2.8-.1.5.3 1 .8 1.1zm9.9 1.4l4.95.7c.5.1 1-.3 1.1-.8.1-.5-.3-1-.9-1.1l-5-.7c-.6-.1-1.1.3-1.2.8-.1.5.3 1 .8 1.1zm9.9 1.4l4.95.7c.5.1 1-.3 1.1-.8.1-.5-.3-1-.9-1.1l-5-.7c-.6-.1-1.1.3-1.2.8-.1.5.3 1 .8 1.1zm9.9 1.4l4.95.7c.5.1 1-.3 1.1-.8.1-.6-.3-1.1-.9-1.2l-5-.7c-.6-.1-1.1.3-1.2.8-.1.5.3 1 .8 1.1zm9.9 1.4l4.95.7c.5.1 1-.3 1.1-.9.1-.6-.3-1.1-.9-1.2l-5-.7c-.6-.1-1.1.3-1.2.8-.1.5.3 1 .8 1.1zm9.9 1.4l4.95.7c.5.1 1-.3 1.1-.9.1-.6-.3-1.1-.9-1.2l-5-.7c-.6-.1-1.1.3-1.2.8-.1.5.3 1 .8 1.1zm9.9 1.4l4.95.7c.5.1 1-.3 1.1-.9.1-.6-.3-1.1-.9-1.1l-5-.7c-.6-.1-1.1.3-1.2.8-.1.6.3 1.1.8 1.1zm9.9 1.4l4.95.7c.5.1 1-.3 1.1-.8.1-.5-.3-1.1-.9-1.1l-5-.7c-.6-.1-1.1.3-1.2.8-.1.5.3 1 .8 1.1zm9.9 1.4l4.95.7c.5 0 1-.3 1.1-.9.1-.6-.3-1.1-.9-1.2l-5-.7c-.6-.1-1.1.3-1.2.8-.1.5.3 1 .8 1.1zm3.68 1.8l-3.3 3.7c-.37.4-.33 1.1.08 1.4.42.4 1.05.4 1.4 0l3.32-3.8c.37-.4.33-1.1-.1-1.4-.4-.4-1.03-.4-1.4 0zm-6.62 7.5l-3.3 3.7c-.37.4-.33 1 .08 1.4.42.4 1.05.3 1.4-.1l3.32-3.8c.37-.4.33-1-.08-1.4-.42-.4-1.05-.3-1.42.1zm-6.6 7.5l-3.32 3.7c-.37.4-.33 1 .1 1.4.4.4 1.03.3 1.4-.1l3.3-3.8c.37-.4.33-1-.08-1.4-.42-.4-1.05-.3-1.4.1zm-6.63 7.5l-3.3 3.7c-.38.4-.34 1 .08 1.4.4.3 1.04.3 1.4-.1l3.32-3.8c.36-.4.32-1-.1-1.4-.4-.4-1.04-.3-1.4.1zm-6.62 7.5l-3.3 3.7c-.37.4-.33 1 .08 1.4.4.4 1.05.3 1.4-.1l3.32-3.8c.37-.4.33-1.1-.1-1.4-.4-.4-1.03-.3-1.4.1zm-6.62 7.5l-3.3 3.7c-.37.4-.33 1 .08 1.4.5.4 1.1.3 1.5-.1l3.3-3.7c.4-.4.4-1-.1-1.4-.4-.4-1-.3-1.4.1zm-6.62 7.5l-3.3 4c-.3.4-.3 1 .1 1.4.4.3 1.1.3 1.4-.1l3.3-3.8c.4-.4.4-1.1 0-1.4-.4-.4-1-.3-1.4.1zm-6.6 7.5l-3.3 3.7c-.3.4-.3 1.1.1 1.4.4.4 1.1.3 1.4-.1l3.3-3.7c.4-.4.4-1.1-.1-1.4-.4-.4-1-.4-1.4 0zm-6.6 7.5l-3.3 3.7c-.4.4-.3 1.1.1 1.4.4.4 1.1.3 1.4-.1l3.3-3.7c.4-.5.3-1.1-.1-1.4-.4-.4-1-.4-1.4 0zm-9.9 7.6c-.5-.2-1.1.2-1.2.7-.1.5.2 1.1.7 1.2l3.8 1 1.6-1.8c.4-.5.4-1.1-.1-1.5-.4-.4-1-.3-1.4.1l-.7.8-2.5-.7zm-4.8-1.3l-4.8-1.3c-.5-.2-1 .1-1.2.7-.1.5.2 1.1.7 1.2l4.8 1.3c.6.2 1.1-.1 1.2-.7.2-.5-.1-1-.7-1.2zm-9.6-2.6l-4.8-1c-.5-.2-1.1.1-1.2.7-.1.5.2 1 .7 1.2l4.9 1.3c.6.1 1.1-.2 1.3-.7.2-.5-.2-1.1-.7-1.2zm-9.6-2.7l-4.8-1.3c-.5-.2-1 .2-1.2.7-.1.5.2 1.1.7 1.2l4.8 1.3c.6.1 1.1-.2 1.3-.7.2-.5-.1-1.1-.7-1.2zm-9.6-2.6l-4.8-1.3c-.5-.2-1 .1-1.2.7-.1.5.2 1.1.7 1.2l4.9 1.3c.5.1 1.1-.2 1.2-.7.2-.6-.2-1.1-.7-1.3zM803 173l-4.8-1.3c-.5-.1-1 .2-1.2.7-.1.56.2 1.1.7 1.26l4.9 1.3c.6.1 1.1-.2 1.3-.7.2-.56-.1-1.1-.7-1.26zm-9.6-2.6l-4.8-1.3c-.5-.1-1.1.2-1.2.7-.1.56.2 1.1.7 1.25l4.9 1.3c.5.17 1.1-.15 1.2-.7.1-.5-.2-1.06-.7-1.2zm-9.7-2.6l-4.8-1.3c-.5-.13-1.1.2-1.2.7-.1.55.2 1.1.7 1.24l4.8 1.3c.6.14 1.1-.17 1.3-.7.2-.54-.1-1.1-.7-1.23zm-9.6-2.6l-4.8-1.3c-.5-.15-1.1.17-1.2.7-.1.5.2 1.1.7 1.2l4.9 1.3c.5.2 1.1-.14 1.2-.7.2-.5-.2-1.05-.7-1.2zm-9.7-2.6l-4.8-1.3c-.5-.13-1.1.2-1.2.7-.1.55.2 1.1.7 1.24l4.8 1.3c.6.15 1.1-.16 1.3-.7.2-.5-.1-1.08-.7-1.2zm-9.6-2.6l-4.8-1.3c-.5-.15-1.1.17-1.2.7-.2.5.1 1.1.7 1.2l4.8 1.3c.5.17 1.1-.2 1.2-.7.2-.5-.2-1.1-.7-1.2zm-9.6-2.6l-4.9-1.3c-.5-.13-1.1.2-1.2.7-.2.55.2 1.1.7 1.24l4.8 1.3c.5.16 1.1-.16 1.2-.7.2-.5-.2-1.07-.7-1.2zm-9.7-2.6l-4.8-1.3c-.5-.2-1.1.14-1.2.7-.2.5.2 1.06.7 1.2l4.8 1.3c.5.1 1.1-.2 1.2-.7.2-.55-.1-1.1-.7-1.24zm-9.7-2.64L721 151c-.52-.15-1.1.17-1.22.7-.1.53.2 1.08.7 1.23l4.86 1.3c.5.17 1.05-.15 1.2-.7.1-.5-.2-1.06-.7-1.2zM716 150l-4.83-1.33c-.55-.14-1.1.17-1.25.7-.1.54.2 1.1.75 1.23l4.8 1.3c.5.14 1.06-.17 1.2-.7.15-.54-.16-1.1-.7-1.23zm-9.66-2.64l-4.8-1.3c-.53-.14-1.1.2-1.22.7-.12.54.2 1.1.7 1.24l4.85 1.3c.5.15 1.06-.17 1.2-.7.15-.53-.16-1.08-.7-1.23zm-9.62-2.6l-4.8-1.3c-.54-.15-1.1.16-1.23.7-.2.5.2 1.1.7 1.2l4.8 1.3c.5.2 1-.14 1.2-.7.1-.5-.2-1.05-.7-1.2zm-9.63-2.6l-4.9-1.3c-.5-.1-1 .2-1.2.7-.1.56.2 1.1.7 1.25l4.9 1.3c.5.2 1.1-.1 1.2-.7.2-.5-.2-1.1-.7-1.2zm-9.7-2.63l-4.8-1.3c-.5-.2-1.1.1-1.2.7-.2.5.2 1.02.7 1.2l4.8 1.3c.5.1 1.1-.2 1.2-.7.1-.57-.2-1.1-.7-1.27zm-9.6-2.6l-4.8-1.38c-.5-.1-1.1.2-1.2.7-.2.53.1 1.1.7 1.22l4.8 1.3c.5.13 1.1-.18 1.2-.7.2-.55-.2-1.1-.7-1.2zm-9.7-2.6l-4.8-1.3c-.6-.17-1.1.15-1.3.7-.1.5.2 1.1.7 1.2l4.8 1.3c.5.15 1.1-.17 1.2-.7.2-.53-.1-1.1-.7-1.23zm-9.7-2.6l-4.8-1.3c-.5-.17-1.1.14-1.2.7-.2.5.1 1.1.7 1.2l4.8 1.3c.5.14 1.1-.18 1.2-.7.1-.55-.2-1.1-.7-1.24zm-9.6-2.6l-4.9-1.3c-.6-.18-1.1.13-1.3.7-.2.5.2 1.1.7 1.2l4.8 1.3c.5.14 1.1-.17 1.2-.7.1-.54-.2-1.1-.7-1.2zm-9.7-2.6l-4.8-1.3c-.5-.2-1.1.12-1.2.7-.2.5.2 1.03.7 1.2l4.8 1.3c.5.14 1.1-.18 1.2-.7.1-.5-.2-1.1-.7-1.2zm-9.7-2.6l-4.8-1.37c-.5-.12-1.1.2-1.2.7-.2.56.1 1.1.7 1.25l4.8 1.3c.5.2 1.1-.1 1.2-.7.1-.5-.2-1.1-.7-1.2zm-9.6-2.68L605 120c-.58-.14-1.1.18-1.27.7-.13.54.18 1.1.7 1.24l4.84 1.3c.52.15 1.1-.17 1.22-.7.1-.53-.2-1.1-.7-1.23zm-9.7-2.6l-4.9-1.3c-.5-.18-1.1.13-1.2.7-.2.5.2 1.1.7 1.2l4.8 1.3c.5.16 1-.16 1.2-.7.1-.5-.2-1.07-.7-1.2zm-9.7-2.6l-4.8-1.3c-.5-.2-1.1.12-1.2.7-.2.5.1 1.1.7 1.2l4.8 1.3c.5.13 1-.18 1.2-.7.1-.55-.2-1.1-.7-1.2zm-9.6-2.6l-4.8-1.3c-.5-.2-1.1.12-1.2.7-.2.5.1 1.1.7 1.2l4.8 1.3c.5.13 1.1-.2 1.2-.7.1-.55-.2-1.1-.7-1.25zm-9.7-2.6l-4.8-1.3c-.6-.2-1.1.1-1.3.7-.2.5.2 1.02.7 1.2l4.8 1.3c.5.1 1.1-.2 1.2-.7.1-.57-.2-1.1-.7-1.2zm-9.7-2.68l-4.8-1.3c-.5-.16-1.1.16-1.2.7-.2.52.1 1.07.7 1.22l4.8 1.3c.5.1 1.1-.2 1.2-.7.1-.6-.2-1.1-.7-1.3zm-9.7-2.6l-4.8-1.33c-.5-.1-1.1.2-1.2.7-.2.56.1 1.1.7 1.25l4.8 1.3c.5.1 1.1-.2 1.2-.7.2-.6-.2-1.1-.7-1.3zm-9.7-2.63l-4.9-1.3c-.5-.13-1.1.2-1.2.7-.2.55.1 1.1.7 1.24l4.8 1.3c.5.12 1.1-.2 1.2-.7.1-.56-.2-1.1-.7-1.25zm-9.7-2.6l-4.8-1.3c-.5-.15-1 .17-1.2.7-.1.53.2 1.1.7 1.23l4.8 1.3c.5.14 1.1-.18 1.2-.7.1-.54-.2-1.1-.7-1.24zm-9.6-2.6l-5-1.26c-.6-.14-1.1.17-1.3.7-.1.54.2 1.1.7 1.23l4.8 1.3c.5.2 1.1-.1 1.2-.7.1-.5-.2-1-.7-1.2zM513 95.1l-4.9-1.3c-.56-.1-1.1.2-1.25.7-.1.6.2 1.1.7 1.3l4.87 1.3c.54.2 1.1-.1 1.24-.7.16-.5-.15-1-.7-1.2zm-9.7-2.6l-4.86-1.3c-.56-.1-1.1.2-1.25.7-.2.6.1 1.1.7 1.3l4.8 1.3c.5.2 1.1-.1 1.2-.7.2-.5-.2-1.1-.7-1.2zm-9.8-2.5l-4.8-1.3c-.57-.1-1.1.2-1.26.7-.15.6.2 1.1.7 1.3L493 92c.56.2 1.1-.1 1.2-.7.2-.5-.13-1.1-.7-1.2zm-9.6-2.6l-4.8-1.3c-.57-.2-1.1.2-1.27.7-.15.5.16 1.1.7 1.2l4.82 1.3c.5.2 1.1-.1 1.2-.7.13-.5-.18-1.1-.7-1.2zm-9.66-2.6l-4.9-1.3c-.6-.1-1.1.2-1.3.7-.2.6.2 1.1.7 1.3l4.8 1.3c.5.2 1.02-.1 1.2-.7.1-.5-.2-1-.7-1.2zm-9.7-2.6l-4.8-1.3c-.6-.1-1.1.2-1.3.7-.2.6.1 1.1.7 1.3l4.8 1.3c.5.2 1-.1 1.2-.7.1-.5-.2-1.1-.7-1.2zm-9.7-2.6l-4.9-1.3c-.5-.1-1.1.2-1.2.7-.2.6.2 1.1.7 1.2l4.8 1.3c.5.2 1.06-.1 1.2-.7.15-.5-.17-1-.7-1.2zm-9.7-2.6l-4.8-1.3c-.6-.1-1.1.2-1.2.7-.2.6.2 1.1.7 1.3l4.8 1.3c.5.2 1-.1 1.2-.7.1-.5-.2-1.1-.7-1.2zm-9.7-2.6l-4.8-1.3c-.6-.1-1.1.2-1.3.7-.15.5.16 1.1.7 1.2l4.82 1.3c.5.2 1.1-.1 1.2-.7.1-.5-.2-1-.7-1.2zm-9.7-2.6l-4.8-1.3c-.55-.2-1.1.1-1.25.7-.1.5.2 1.1.7 1.2l4.8 1.3c.5.1 1-.2 1.2-.7.1-.6-.2-1.1-.7-1.3zm-9.66-2.6l-4.8-1.3c-.5-.1-1.1.2-1.2.7-.2.6.1 1.1.7 1.3l4.8 1.3c.5.2 1-.2 1.2-.7.1-.5-.2-1.1-.7-1.2zm-9.3-2.7l-4.9-1.3c-.55-.1-1.1.2-1.2.7-.16.6.2 1.1.7 1.3l4.8 1.3c.54.2 1.1-.1 1.2-.7.18-.5-.14-1-.7-1.2zm-9.7-2.6l-4.8-1.3c-.6-.1-1.1.2-1.27.7-.1.6.2 1.1.7 1.2l4.9 1.3c.5.2 1.1-.1 1.2-.7.2-.5-.1-1-.7-1.2zm-9.66-2.6l-4.8-1.3c-.6-.1-1.1.2-1.3.7-.1.6.2 1.1.7 1.3l4.8 1.3c.5.2 1.1-.1 1.2-.7.1-.5-.2-1.1-.7-1.2zm-9.6-2.6l-4.8-1.3c-.55-.1-1.1.2-1.25.7-.2.6.1 1.1.7 1.3l4.8 1.3c.5.2 1.1-.1 1.2-.7.1-.5-.2-1.1-.7-1.2zm-9.65-2.6l-4.9-1.3c-.53-.1-1.1.2-1.2.7-.1.6.2 1.1.7 1.3l4.86 1.3c.5.2 1.1-.1 1.2-.7.1-.5-.2-1.02-.7-1.2zm-9.7-2.6l-4.86-1.3c-.5-.1-1.1.2-1.2.7-.2.6.2 1.1.7 1.3l4.8 1.3c.6.17 1.1-.15 1.2-.7.2-.52-.2-1.06-.7-1.2zm-9.6-2.6L344 49.6c-.5-.1-1.1.2-1.2.7-.13.6.2 1.1.7 1.2l4.85 1.3c.52.2 1.1-.1 1.2-.7.1-.5-.2-1.1-.7-1.2zm-9.7-2.6l-4.8-1.3c-.6-.1-1.1.2-1.3.7-.1.57.2 1.1.7 1.27l4.8 1.3c.5.15 1.1-.2 1.2-.7.1-.53-.2-1.1-.7-1.23zm-9.65-2.6l-4.8-1.3c-.54-.1-1.1.2-1.24.7-.12.6.2 1.1.7 1.3l4.85 1.3c.5.2 1.1-.2 1.2-.7.2-.5-.1-1.1-.7-1.2zm-9.5-2.7l-4.8-1.3c-.55-.1-1.1.2-1.24.7-.13.6.18 1.1.7 1.3l4.84 1.3c.53.14 1.1-.18 1.23-.7.13-.54-.18-1.1-.7-1.24zm-9.65-2.6l-4.82-1.3c-.54-.1-1.1.2-1.23.7-.1.6.2 1.1.7 1.28l4.9 1.3c.6.16 1.1-.16 1.2-.7.2-.53-.1-1.07-.7-1.22zm-9.64-2.6l-4.8-1.3c-.5-.1-1 .2-1.2.7-.1.6.2 1.1.7 1.28l4.9 1.3c.6.15 1.1-.16 1.3-.7.2-.53-.1-1.08-.7-1.22zm-9.6-2.6l-4.8-1.3c-.5-.12-1.1.2-1.2.7-.1.5.2 1.1.7 1.2l4.9 1.3c.6.2 1.1-.1 1.3-.7.2-.5-.1-1.02-.7-1.2zm-9.6-2.6l-4.8-1.3c-.5-.13-1.1.18-1.2.7-.1.55.2 1.1.7 1.2l4.9 1.3c.6.1 1.1-.2 1.3-.7.2-.6-.1-1.1-.7-1.3zm-9.6-2.6l-4.8-1.3c-.5-.15-1.1.17-1.2.7-.1.53.2 1.08.7 1.23l4.9 1.3c.6.14 1.1-.2 1.3-.7.2-.54-.1-1.1-.7-1.24zm-9.6-2.6l-4.8-1.32c-.5-.14-1.1.17-1.2.7-.1.54.2 1.1.7 1.23l4.9 1.3c.5.2 1.1-.1 1.2-.7.2-.5-.1-1-.7-1.2zm-9.6-2.62c.6.14.9.7.7 1.22-.1.53-.7.84-1.2.7l-4.8-1.3c-.5-.15-.8-.7-.7-1.24.2-.53.7-.84 1.3-.7l4.9 1.3zM243 22.1c.53.2.84.7.7 1.3s-.7.86-1.23.7l-4.83-1.3c-.57-.14-.88-.7-.7-1.22.1-.52.7-.84 1.2-.7l4.8 1.3zm-9.66-2.6c.5.2.82.7.7 1.3-.17.53-.7.84-1.25.7l-4.9-1.3c-.6-.15-.9-.7-.7-1.23.1-.52.7-.83 1.2-.7l4.8 1.3zm-9.68-2.6c.54.2.85.7.7 1.2-.14.6-.7.9-1.22.7l-.93-.2c-.5-.12-.8-.7-.7-1.2.2-.54.7-.85 1.3-.7l.9.24z" fill="#E6F5FB"/><path fill-opacity=".03" fill="#00A1DE" d="M111 48L91 176l756.96 12.4L784 32z"/><path d="M110 47.84l-.76 4.94c-.1.55.3 1.06.83 1.15.55.08 1.06-.3 1.15-.84l.77-5c0-.6-.3-1.1-.9-1.2-.6-.1-1.1.3-1.2.8zm-1.53 9.88l-.77 4.95c-.1.54.28 1.05.83 1.14.55.1 1.06-.2 1.14-.8l.77-4.9c.1-.5-.28-1-.83-1.1-.5-.1-1 .3-1.1.9zm-1.55 9.9l-.77 4.92c-.08.55.3 1.06.84 1.15.5 0 1-.3 1.1-.9l.7-5c.1-.6-.3-1.1-.9-1.2-.6-.1-1.1.3-1.2.8zm-1.54 9.87l-.77 4.9c0 .5.3 1 .9 1.1.6.1 1.1-.3 1.2-.9l.8-5c.1-.6-.3-1.1-.8-1.2-.5-.1-1 .3-1.1.8zm-1.54 9.8l-.78 4.9c-.08.5.3 1 .84 1.1.54.1 1.06-.3 1.14-.9l.77-5c.1-.6-.2-1.1-.8-1.2-.5-.1-1 .3-1.1.8zm-1.55 9.8l-.8 4.9c-.1.5.3 1 .8 1.1.5.1 1-.3 1.1-.9l.7-5c.1-.6-.3-1.1-.9-1.2-.6-.1-1.1.3-1.2.8zm-1.6 9.9l-.8 4.9c-.1.5.2 1 .8 1.1.5.1 1-.3 1.1-.9l.7-4.9c.1-.6-.3-1.1-.9-1.2-.6-.1-1.1.2-1.2.8zm-1.5 9.9l-.8 4.9c-.1.5.3 1 .8 1.1.5 0 1-.3 1.1-.9l.8-5c.1-.6-.3-1.1-.8-1.2-.6-.1-1.1.3-1.2.8zm-1.6 9.8l-.8 4.9c-.1.5.2 1 .8 1.1.5.1 1-.3 1.1-.9l.7-5c.1-.6-.3-1.1-.9-1.2-.6-.1-1.1.3-1.2.8zm-1.6 9.9l-.8 4.9c-.1.5.3 1 .8 1.1.5.1 1-.3 1.1-.9l.8-4.9c0-.6-.3-1.1-.9-1.2-.6-.1-1.1.3-1.2.8zm-1.6 9.9l-.8 4.9c-.1.5.3 1 .8 1.1.5 0 1-.3 1.1-.9l.7-5c.1-.6-.3-1.1-.9-1.2-.5-.1-1 .3-1.1.8zm-1.5 9.9l-.8 4.9c-.1.5.3 1 .8 1.1.5.1 1-.3 1.1-.8l.7-5c.1-.6-.3-1.1-.9-1.2-.6-.1-1.1.3-1.2.8zm-1.6 9.9l-.8 4.9c-.1.5.3 1 .9 1.1.5 0 1-.3 1.1-.9l.7-5c.1-.6-.3-1.1-.9-1.2-.6-.1-1.1.3-1.2.8zm0 10.6l5 .1c.5 0 1-.5 1-1 0-.6-.4-1-1-1l-5-.1c-.6 0-1 .4-1 1 0 .5.4 1 .9 1zm10 .1l5 .1c.5 0 1-.5 1-1s-.4-1-1-1l-5-.1c-.6 0-1 .4-1 1 0 .5.4 1 1 1zm10 .1l5 .1c.5.1 1-.4 1-.9s-.4-1-1-1l-5-.1c-.6 0-1 .5-1 1 0 .6.4 1 1 1zm10 .2l5 .1c.5 0 1-.4 1-1 0-.5-.4-1-1-1l-5-.1c-.6 0-1 .4-1 1 0 .5.4 1 1 1zm10 .2l5 .1c.5 0 1-.4 1-1s-.4-1-1-1l-5-.1c-.6 0-1 .4-1 .9 0 .6.4 1 1 1zm10 .2l5 .1c.5 0 1-.5 1-1 0-.6-.4-1-1-1l-5-.1c-.6 0-1 .4-1 1s.4 1 1 1zm10 .2h5c.5 0 1-.4 1-1s-.4-1-1-1l-5-.1c-.6 0-1 .4-1 1-.1.5.4 1 .9 1zm10 .1l5 .1c.5 0 1-.5 1-1 0-.6-.4-1-1-1l-5-.1c-.6 0-1 .4-1 1-.1.5.4 1 .9 1zm10 .2l5 .1c.5 0 1-.5 1-1 0-.6-.5-1-1-1l-5-.1c-.6 0-1 .4-1 1-.1.5.4 1 .9 1zm10 .1l5 .1c.5 0 1-.5 1-1s-.5-1-1-1l-5-.1c-.6 0-1 .4-1 1-.1.5.4 1 .9 1zm10 .2l5 .1c.5 0 1-.5 1-1 0-.6-.5-1-1-1l-5-.1c-.6 0-1 .4-1 1-.1.5.4 1 .9 1zm10 .1l5 .1c.5 0 1-.5 1-1s-.5-1-1-1l-5-.1c-.6 0-1 .4-1.1 1 0 .5.5 1 1 1zm10 .1l5 .1c.6 0 1-.4 1-1 0-.5-.5-1-1-1l-5-.1c-.6 0-1 .5-1.1 1 0 .6.4 1 1 1zm10 .2l5 .1c.6 0 1-.4 1-1s-.5-1-1-1l-5-.1c-.6 0-1 .4-1.1 1 0 .5.4 1 .9 1zm10 .1h5c.6 0 1-.4 1-1s-.5-1-1-1l-5-.1c-.6 0-1 .4-1.1.9 0 .5.4 1 .9 1zm10 .1l5 .1c.6 0 1-.5 1-1 0-.6-.5-1-1-1l-5-.1c-.6 0-1 .4-1.1 1 0 .5.4 1 .9 1zm10 .1l5 .1c.6 0 1-.4 1-1s-.5-1-1-1l-5-.1c-.6 0-1 .4-1.1 1 0 .5.4 1 .9 1zm10 .1l5 .1c.6 0 1-.5 1-1 0-.6-.5-1-1-1l-5-.1c-.6 0-1 .4-1 1 0 .5.4 1 1 1zm10 .2h5c.6 0 1-.4 1-.9 0-.6-.5-1-1-1.1l-5-.1c-.6 0-1 .4-1 .9s.4 1 1 1zm10 .1l5 .1c.6 0 1-.4 1-1s-.5-1-1-1l-5-.1c-.6 0-1 .4-1 1-.1.5.4 1 .9 1zm10 .2l5 .1c.6 0 1-.5 1-1 0-.6-.5-1-1-1l-5-.1c-.6 0-1 .4-1 1-.1.5.4 1 .9 1zm10 .1h5c.6 0 1-.4 1-1s-.5-1-1-1.1l-5-.1c-.6 0-1 .4-1.1 1 0 .5.4 1 1 1zm10 .1l5 .1c.6 0 1-.4 1-1 0-.5-.5-1-1-1l-5-.1c-.6 0-1 .5-1.1 1 0 .6.4 1 1 1zm10 .2l5 .1c.6 0 1-.4 1-1 0-.5-.5-1-1-1l-5-.1c-.6 0-1 .5-1.1 1 0 .6.4 1 1 1zm10 .2l5 .1c.6 0 1-.5 1-1 0-.6-.5-1-1-1l-5-.1c-.6 0-1 .4-1.1.9 0 .6.4 1 1 1zm10 .1l5 .1c.6 0 1-.4 1-1s-.5-1-1-1l-5-.1c-.6 0-1 .4-1.1 1 0 .5.4 1 1 1zm10 .2l5 .1c.6 0 1-.4 1-1 0-.5-.5-1-1-1l-5-.1c-.6 0-1 .4-1.1 1 0 .5.4 1 1 1zm10 .2l5 .1c.6 0 1-.4 1-1 0-.5-.5-1-1-1l-5-.1c-.6 0-1 .4-1 1 0 .5.4 1 1 1zm10 .1l5 .1c.6 0 1-.4 1-.9 0-.6-.5-1-1-1.1l-5-.1c-.6 0-1 .4-1 1s.4 1 1 1zm10 .2l5 .1c.6 0 1-.4 1-1 0-.5-.4-1-1-1l-5-.1c-.6 0-1 .5-1 1 0 .6.4 1 .9 1zm10 .2l5 .1c.6 0 1-.5 1-1 0-.6-.4-1-1-1l-5-.1c-.6 0-1 .4-1 1 0 .5.4 1 .9 1zm10 .1l5 .1c.6 0 1-.5 1-1 0-.6-.4-1-1-1l-5-.1c-.6 0-1 .4-1 1 0 .5.4 1 1 1zm10 .1h5c.6 0 1-.4 1-1s-.4-1-1-1l-5-.1c-.6 0-1 .4-1 1 0 .5.4 1 1 1zm10 .1l5 .1c.6 0 1-.4 1-1s-.4-1-1-1l-5-.1c-.6 0-1 .4-1 1s.4 1 1 1zm10 .2l5 .1c.6 0 1-.4 1-1 0-.5-.4-1-1-1l-5-.1c-.6 0-1 .5-1 1 0 .6.4 1 1 1zm10 .2l5 .1c.5 0 1-.4 1-1s-.4-1-1-1l-5-.1c-.6 0-1 .4-1 1s.4 1 1 1zm10 .2l5 .1c.5 0 1-.5 1-1 0-.6-.4-1-1-1l-5-.1c-.6 0-1 .4-1 1 0 .5.4 1 .9 1zm10 .1l5 .1c.5 0 1-.4 1-1s-.4-1-1-1l-5-.1c-.6 0-1 .4-1 1s.4 1 .9 1zm10 .2l5 .1c.5 0 1-.5 1-1 0-.6-.4-1-1-1l-5-.1c-.6 0-1 .4-1 1 0 .5.4 1 .9 1zm10 .1h5c.5 0 1-.5 1-1s-.4-1-1-1l-5-.1c-.6 0-1 .4-1 .9s.4 1 .9 1zm10 .1l5 .1c.5 0 1-.4 1-1s-.4-1-1-1l-5-.1c-.6 0-1 .4-1 1s.4 1 .9 1zm10 .2l5 .1c.5 0 1-.4 1-1s-.4-1-1-1l-5-.1c-.6 0-1 .4-1 1s.4 1 1 1zm10 .1h5c.5 0 1-.4 1-1s-.4-1-1-1l-5-.1c-.6 0-1 .4-1 1s.4 1 1 1zm10 .1h5c.5 0 1-.5 1-1 0-.6-.4-1-1-1.1l-5-.1c-.6 0-1 .4-1 1 0 .5.4 1 1 1zm10 .1l5 .1c.5 0 1-.5 1-1s-.4-1-1-1l-5-.1c-.6 0-1 .4-1 1 0 .5.4 1 1 1zm10 .2l5 .1c.5 0 1-.5 1-1 0-.6-.4-1-1-1l-5-.1c-.6 0-1 .4-1 1s.4 1 1 1zm10 .2h5c.5 0 1-.4 1-1s-.4-1-1-1.1l-5-.1c-.6 0-1 .4-1 1s.4 1 1 1zm10 .1l5 .1c.5 0 1-.5 1-1s-.4-1-1-1l-5-.1c-.5 0-1 .4-1 1 0 .5.4 1 1 1zm10 .1l5 .1c.5 0 1-.4 1-.9 0-.6-.4-1-1-1l-5-.1c-.5 0-1 .4-1 1s.4 1 1 1zm10 .2h5c.5 0 1-.4 1-1s-.4-1-1-1l-5-.1c-.6 0-1 .4-1 .9s.4 1 1 1zm10 .1l5 .1c.5 0 1-.5 1-1 0-.6-.4-1-1-1l-5-.1c-.6 0-1 .4-1 1s.4 1 1 1zm10 .2l5 .1c.5 0 1-.5 1-1s-.4-1-1-1.1h-5c-.6 0-1 .4-1 .9s.4 1 1 1zm10 .1l5 .1c.5.1 1-.4 1-.9s-.4-1-1-1l-5-.1c-.6 0-1 .5-1 1 0 .6.4 1 1 1zm10 .2l5 .1c.5 0 1-.4 1-.9s-.4-1-1-1l-5-.1c-.6 0-1 .4-1 1s.4 1 1 1zm10 .2h5c.5 0 1-.4 1-.9s-.4-1-1-1l-5-.1c-.6 0-1 .4-1 .9 0 .6.4 1 .9 1zm10 .1l5 .1c.5 0 1-.5 1-1 0-.6-.4-1-1-1l-5-.1c-.6 0-1 .4-1 1 0 .5.4 1 .9 1zm10 .1h5c.5 0 1-.4 1-1s-.4-1-1-1l-5-.1c-.5 0-1 .4-1 1s.4 1 1 1zm10 .1l5 .1c.5 0 1-.4 1-1s-.4-1-1-1l-5-.1c-.5 0-1 .4-1 1 0 .5.4 1 1 1zm10 .2l5 .1c.5 0 1-.5 1-1 0-.6-.4-1-1-1l-5-.1c-.5 0-1 .4-1 1 0 .5.4 1 1 1zm10 .1l5 .1c.5 0 1-.5 1-1s-.4-1-1-1.1l-5-.1c-.5 0-1 .4-1 .9s.4 1 1 1zm10 .1l5 .1c.5 0 1-.4 1-1s-.4-1-1-1l-5-.1c-.5 0-1 .4-1 1s.4 1 1 1zm10 .2l5 .1c.5 0 1-.5 1-1s-.4-1-1-1l-5-.1c-.5 0-1 .4-1 1 0 .5.4 1 1 1zm10 .1l5 .1c.5 0 1-.4 1-1s-.4-1-1-1l-5-.1c-.5 0-1 .4-1 1 0 .5.4 1 1 1zm10 .2l5 .1c.5 0 1-.4 1-1s-.5-1-1-1l-5-.1c-.6 0-1 .4-1 1s.4 1 1 1zm10 .1l5 .1c.5 0 1-.5 1-1s-.5-1-1-1l-5-.1c-.6 0-1 .4-1 1 0 .5.4 1 1 1zm10 .1l5 .1c.5 0 1-.5 1-1 0-.6-.5-1-1-1l-5-.1c-.6 0-1 .4-1 1s.4 1 1 1zm10 .1l5 .1c.5 0 1-.4 1-1s-.5-1-1-1l-5-.1c-.6 0-1 .4-1 1 0 .5.4 1 1 1zm10 .2l5 .1c.5 0 1-.4 1-1 0-.5-.5-1-1-1l-5-.1c-.6 0-1 .4-1 1s.4 1 1 1zm10 .1l5 .1c.5 0 1-.5 1-1 0-.6-.5-1-1-1l-5-.1c-.6 0-1 .4-1 1s.4 1 1 1zm10 .2l5 .1c.5 0 1-.5 1-1s-.5-1-1-1l-5-.1c-.6 0-1 .4-1 1 0 .5.4 1 1 1zm10 .2l5 .1c.5 0 1-.5 1-1 0-.6-.5-1-1-1l-5-.1c-.6 0-1 .4-1 1s.4 1 1 1zm10 .2l5 .1c.5 0 1-.5 1-1s-.5-1-1-1l-5-.1c-.6 0-1 .4-1 1 0 .5.4 1 1 1zm10 .1l5 .1c.5 0 1-.5 1-1s-.5-1-1-1l-5-.1c-.6 0-1 .4-1 1 0 .5.4 1 1 1zm10 .1l5 .1c.5 0 1-.4 1-1s-.5-1-1-1l-5-.08c-.6 0-1 .4-1 1 0 .5.4 1 1 1zm10 .2l5 .1c.5 0 1-.4 1-1s-.5-1-1-1h-5c-.6 0-1 .4-1 1s.4 1 1 1zm10 .2l5 .1c.5 0 1-.48 1-1 0-.6-.5-1-1-1l-5-.1c-.6 0-1 .4-1 1s.4 1 1 1zm6.2-4.4l-1.9-4.6c-.2-.5-.8-.8-1.3-.6-.5.2-.8.8-.6 1.3l1.9 4.6c.2.5.8.8 1.3.6.5-.2.7-.8.5-1.3zm-3.8-9.3l-1.7-4c-.2-.5-.8-.76-1.3-.5-.5.2-.8.8-.6 1.3l1.9 4.7c.2.5.8.7 1.3.5.5-.2.7-.8.5-1.3zm-3.8-9.3l-1.9-4c-.2-.5-.8-.7-1.3-.5-.6.2-.8.8-.6 1.3l1.9 4.6c.2.5.8.7 1.3.5.5-.2.8-.8.6-1.3zm-3.8-9.3l-1.9-4.6c-.2-.5-.8-.8-1.3-.6-.5.2-.8.8-.6 1.3l1.9 4.7c.2.5.8.7 1.3.5.5-.2.7-.8.5-1.3zm-3.8-9.26l-1.9-4.6c-.2-.5-.8-.8-1.3-.6-.5.2-.8.8-.6 1.3l1.9 4.6c.2.5.8.8 1.3.5.5-.2.7-.8.5-1.3zm-3.8-9.3l-1.9-4.6c-.2-.6-.8-.8-1.3-.6-.5.2-.8.8-.6 1.3l1.9 4.6c.2.5.8.8 1.3.6.5-.2.7-.8.5-1.3zm-3.8-9.3l-1.9-4.7c-.2-.5-.8-.7-1.3-.5-.5.2-.8.8-.6 1.3l1.9 4.6c.2.5.8.8 1.3.6.5-.2.7-.8.5-1.3zm-3.8-9.3l-1.9-4c-.2-.5-.8-.8-1.3-.6-.5.2-.8.8-.6 1.3l1.9 4.6c.2.5.8.7 1.3.5.5-.2.7-.8.5-1.3zm-3.8-9.2l-1.9-4.7c-.2-.5-.8-.7-1.3-.5-.5.2-.8.8-.5 1.3l1.9 4.7c.2.5.8.8 1.3.57.5-.2.8-.8.5-1.3zm-3.8-9.3l-1.9-4.6c-.2-.5-.8-.8-1.3-.6-.5.2-.8.8-.6 1.3l1.9 4.7c.2.5.8.7 1.3.5.5-.2.8-.8.5-1.3zm-3.8-9.2l-1.9-4.6c-.2-.6-.8-.8-1.3-.6-.6.2-.8.8-.6 1.3l1.9 4.6c.2.5.8.8 1.3.6.5-.2.7-.8.5-1.3zm-3.7-9.2l-1.8-4.5c-.3-.5-.8-.8-1.3-.6-.6.3-.8.8-.6 1.4l1.9 5c.2.5.8.8 1.3.6.5-.2.7-.8.5-1.3zm-3.8-9l-1.8-4.5c-.2-.5-.8-.8-1.3-.56-.5.2-.8.8-.6 1.3l1.9 4.6c.2.5.7.7 1.3.5.5-.2.7-.8.5-1.3zm-3.8-9.1l-1.9-4.6c-.2-.5-.8-.74-1.3-.53-.5.2-.8.8-.6 1.3l1.9 4.6c.2.5.8.7 1.3.5.5-.2.7-.8.5-1.3zm-3.8-9.1l-1.9-4.6c-.2-.6-.8-.8-1.3-.6-.5.2-.8.8-.6 1.3l1.9 4.6c.2.5.8.7 1.3.5.5-.2.7-.8.5-1.3zm-3.8-9.23l-1.9-4.6c-.2-.55-.8-.8-1.3-.6-.5.2-.8.7-.6 1.3l1.9 4.6c.2.5.7.7 1.3.5.5-.2.7-.8.5-1.3zm-3.8-9.2l-1.8-4c-.2-.5-.8-.7-1.3-.5-.5.2-.8.8-.6 1.3l1.9 4.7c.2.5.8.8 1.3.6.6-.2.8-.8.6-1.3zm-7.5-5.6l-5 .1c-.6 0-1 .5-1 1 0 .6.4 1 1 1l5-.1c.5 0 .9-.4.9-1 0-.5-.4-1-1-.9zm-10 .3l-5 .1c-.6 0-1 .5-1 1 .1.6.5 1 1.1 1l5-.1c.6 0 1-.5 1-1 0-.6-.4-1-1-1zm-10 .3l-5 .1c-.6 0-1 .5-1 1 .1.6.5 1 1.1 1l5-.1c.6 0 1-.5 1-1.06 0-.5-.4-1-1-.9zm-10 .2l-5 .1c-.6 0-1 .5-1 1.1.1.55.5 1 1.1.97l5-.16c.6 0 1-.4 1-1 0-.5-.4-1-1-.9zm-10 .2l-5 .2c-.6 0-1 .5-1 1 0 .6.5 1 1 1l5-.1c.6 0 1-.4 1-1 0-.5-.4-1-1-1zm-10 .3l-5 .1c-.6 0-1 .5-1 1 0 .6.5 1 1 1l5-.1c.6 0 1-.5 1-1 0-.6-.5-1-1-1zm-10 .3l-5 .1c-.6 0-1 .5-1 1 0 .6.4 1 1 1l5-.1c.5 0 1-.45.9-1 0-.56-.5-1-1-1zm-10 .25l-5 .1c-.6.1-1 .5-1 1.1 0 .6.5 1 1 1l5-.1c.6 0 1-.5 1-1s-.5-1-1-1zm-10 .3l-5 .1c-.6.1-1 .5-1 1.1 0 .6.4 1 1 1l5-.1c.5 0 1-.4 1-1-.1-.5-.5-1-1.1-.9zm-10 .3l-5 .1c-.6 0-1 .4-1 1 0 .5.4 1 1 1l5-.2c.5 0 1-.5 1-1s-.5-1-1.1-1zm-10 .2l-5 .1c-.6 0-1 .5-1 1 0 .6.4 1 1 1l5-.1c.5 0 1-.4 1-1s-.5-1-1.1-1zm-10 .3l-5 .1c-.6 0-1 .5-1 1s.4 1 1 .9l5-.1c.5 0 1-.5 1-1 0-.6-.5-1-1.1-1zm-10 .2l-5 .1c-.6 0-1 .5-1 1s.4 1 1 1l5-.1c.5-.1 1-.5 1-1.1-.1-.6-.5-1-1.1-1zm-10 .2l-5 .1c-.6 0-1 .5-1 1s.4 1 1 1l5-.1c.5 0 .9-.5.9-1 0-.6-.5-1-1.1-1zm-10 .2l-5 .1c-.6 0-1 .5-1 1 0 .6.5 1 1 1l5-.1c.5 0 1-.4 1-1s-.5-1-1-1zm-10 .2l-5 .1c-.6.1-1 .5-1 1.1 0 .6.5 1 1 1l5-.1c.5 0 1-.4 1-1 0-.5-.5-1-1.1-1zm-10 .3l-5 .1c-.6 0-1 .5-1 1.1 0 .5.5 1 1 1l5-.1c.5 0 1-.5 1-1s-.5-.9-1-.9zm-10 .3l-5 .1c-.6 0-1 .4-1 1 0 .5.5 1 1 1l5-.1c.5 0 1-.4.9-1 0-.6-.5-1-1-1zm-10 .2l-5 .1c-.6 0-1 .5-1 1s.4 1 1 1l5-.1c.5 0 1-.4 1-1s-.5-1-1-1zm-10 .2l-5 .1c-.6 0-1 .5-1 1s.5 1 1 1l5-.1c.5 0 1-.4.9-1 0-.5-.4-1-1-1zm-10 .2l-5 .1c-.6 0-1 .5-1 1.1 0 .6.5 1 1 1l5-.1c.5 0 .9-.5.9-1s-.5-1-1-1zm-10 .3l-5 .1c-.6 0-1 .5-1 1.1 0 .5.4 1 1 1l5-.1c.5 0 .9-.4.9-1 0-.5-.5-1-1-.9zm-10 .3l-5 .1c-.6 0-1 .4-1 1 0 .5.4 1 1 1l5-.1c.5 0 .9-.4.9-1 0-.5-.5-1-1.1-1zm-10 .2l-5 .1c-.6.1-1 .5-1 1.1 0 .5.4 1 1 .9l5-.1c.5-.1.9-.5.9-1.1 0-.5-.5-1-1-1zm-10 .3l-5 .2c-.6 0-1 .5-1 1.05 0 .5.4.98 1 .97l5-.1c.5 0 1-.5.9-1 0-.6-.4-1-1-1zm-10 .3l-5 .1c-.6 0-1 .5-1 1 0 .6.4 1 1 1l5-.1c.5 0 1-.5.9-1 0-.6-.5-1-1.1-1zm-10 .2l-5 .1c-.6 0-1 .5-1 1s.4 1 1 1l5-.1c.5 0 1-.5.9-1 0-.6-.5-1-1-1zm-10 .3l-5 .1c-.6 0-1 .5-1 1 0 .6.4 1 1 1l5-.1c.6 0 1-.5 1-1s-.4-1-1-1zm-10 .24l-5 .1c-.6 0-1 .5-1 1 0 .6.4 1 1 1l5-.1c.5 0 1-.5 1-1.1-.1-.6-.5-1-1.1-1zm-10 .2l-5 .1c-.6 0-1 .5-1 1 0 .6.4 1 1 1l5-.1c.5 0 1-.5 1-1-.1-.6-.5-1-1.1-1zm-10 .2l-5 .1c-.6 0-1 .5-1 1 0 .6.4 1 1 1l5-.1c.5 0 1-.5.9-1 0-.6-.5-1-1.1-1zm-10 .2l-5 .1c-.6 0-1 .5-1 1 0 .6.4 1 1 1l5-.1c.5 0 1-.5 1-1-.1-.6-.5-1-1.1-1zm-10 .2l-5 .1c-.6 0-1 .5-1 1s.4 1 1 .94l5-.1c.5 0 1-.5 1-1-.1-.5-.5-1-1.1-.9zm-10 .2l-5 .1c-.6 0-1 .5-1 1s.4 1 1 .94l5-.1c.5 0 .9-.5.9-1 0-.6-.4-1-1-1zm-10 .2l-5 .1c-.6 0-1 .44-1 1 .1.6.5 1 1.1 1l5-.1c.6 0 1-.5 1-1 0-.6-.4-1-1-1zm-10 .2l-5 .1c-.6 0-1 .5-1 1 .1.6.5 1 1.1 1l5-.1c.6 0 1-.5 1-1s-.4-1-1-1zm-10 .3l-5 .1c-.6 0-1 .5-1 1 .1.54.5 1 1.1 1l5-.1c.6-.06 1-.5 1-1.07 0-.6-.4-1-1-1zm-10 .2l-5 .1c-.6 0-1 .5-1 1.03.1.5.5 1 1.1.9l5-.1c.6 0 1-.5 1-1s-.4-1-1-1zm-10 .23l-5 .1c-.6 0-1 .5-1 1 0 .6.4 1 1 1l5-.1c.5 0 1-.5 1-1.1s-.5-1-1.1-.9zm-10 .2l-5 .1c-.6 0-1 .4-1 1 0 .53.5 1 1 1l5-.1c.5 0 1-.5.9-1 0-.6-.5-1-1-1zm-10 .2l-5 .13c-.6 0-1 .4-1 1 0 .5.5 1 1 .9l5-.1c.5 0 1-.4.9-1 0-.5-.5-1-1-1zm-10 .3l-5 .1c-.6 0-1 .5-1 1s.4 1 1 1l5-.1c.5 0 1-.4.9-1 0-.5-.5-1-1-1zm-10 .2l-5 .1c-.6 0-1 .5-1 1 0 .6.4 1 1 1l5-.1c.5 0 1-.5.9-1 0-.5-.5-1-1.1-1zm-10 .2l-5 .1c-.6.1-1 .5-1 1.1 0 .6.4 1 1 1l5-.1c.5 0 1-.5 1-1 0-.6-.5-1-1.1-1zm-10 .3l-5 .1c-.6 0-1 .5-1 1s.4 1 1 1l5-.1c.5 0 1-.5.9-1 0-.6-.5-1-1-1zm-10 .2l-5 .1c-.6 0-1 .44-1 1 0 .5.4 1 1 1l5-.1c.5 0 1-.5 1-1.1-.1-.5-.5-1-1.1-1zm-10 .2l-5 .1c-.6 0-1 .4-1 1s.4 1 1 1l5-.16c.5 0 1-.4 1-1 0-.5-.5-1-1.1-1zm-10 .2l-5 .14c-.6 0-1 .5-1 1.1 0 .6.4 1 1 1l5-.1c.5 0 1-.5.9-1 0-.5-.5-1-1.1-.9zm-10 .3l-5 .1c-.6 0-1 .5-1 1s.4 1 1 .93l5-.2c.5 0 1-.5 1-1s-.5-1-1.1-1zm-10 .2l-5 .1c-.6 0-1 .5-1 1.02 0 .6.4 1 1 1l5-.1c.5 0 1-.5 1-1s-.5-1-1-1zm-10 .2l-5 .1c-.6 0-1 .5-1 1.04 0 .6.4 1 1 1l5-.1c.5 0 1-.5.9-1 0-.5-.5-1-1.1-1zm-10 .24l-5 .1c-.6 0-1 .5-1 1 0 .6.5 1 1 1l5-.1c.6 0 1-.5 1-1s-.4-1-1-.9zm-10 .3l-5 .1c-.6 0-1 .4-1 1 0 .5.4 1 1 .9l5-.1c.5 0 1-.5 1-1 0-.6-.5-1-1.1-1zm-10 .3l-5 .1c-.6 0-1 .5-1 1.1 0 .5.4 1 1 .9l4.9-.1c.5 0 1-.46 1-1 0-.55-.5-1-1-1zm-10 .2l-5 .1c-.6 0-1 .5-1 1.1s.4 1 1 1l5-.1c.5 0 .9-.45.9-1s-.5-1-1-.94zm-10 .3l-5 .2c-.6 0-1 .46-1 1s.4 1 1 1l5-.1c.5 0 .9-.4.9-1s-.5-1-1.1-1zm-10 .3l-5 .1c-.6 0-1 .5-1 1 0 .6.4 1 1 1l5-.1c.5 0 .9-.43.9-1s-.5-1-1-.94zm-10 .3l-5 .1c-.6 0-1 .5-1 1s.5 1 1 1l5-.1c.5 0 1-.46.9-1 0-.6-.5-1-1-1zm-10 .2l-5 .1c-.6 0-1 .5-1 1 0 .57.4 1 1 1l5-.1c.5 0 1-.5.9-1 0-.6-.5-1-1-1zm-10 .2l-5 .16c-.6 0-1 .4-1 1s.4 1 1 1l5-.1c.5 0 1-.5.9-1 0-.6-.5-1-1-1zm-10 .3l-5 .1c-.6 0-1 .5-1 1s.4 1 1 1l5-.1c.6 0 1-.5 1-1s-.4-1-1-1zm-10 .3l-5 .1c-.6 0-1 .43-1 1s.4 1 1 1l5-.1c.5 0 1-.5.9-1 0-.6-.5-1-1-1zm-10 .2l-5 .1c-.6 0-1 .5-1 1s.4 1 1 1l5-.1c.5 0 1-.5 1-1.1-.1-.5-.5-1-1.1-1zm-10 .2l-5 .1c-.6 0-1 .5-1 1s.4 1 1 1l5-.1c.5 0 1-.4.9-1 0-.5-.5-1-1.1-.9zm-10 .2l-5 .1c-.6.1-1 .5-1 1.1 0 .6.4 1 1 1l5-.1c.5 0 1-.5.9-1-.1-.6-.5-1-1.1-1zm-10 .3l-5 .1c-.6 0-1 .5-1 1 0 .53.4 1 1 1l5-.1c.5 0 1-.5 1-1.07-.1-.6-.5-1-1.1-1zm-10 .2l-5 .1c-.6 0-1 .4-1 1 0 .5.4 1 1 1l5-.2c.5 0 1-.5 1-1 0-.6-.5-1-1.1-1z" fill="#E6F5FB"/><path fill-opacity=".03" fill="#00A1DE" d="M222 17.97L111.2 47.1 17 113.02l74.17 63L198 133z"/><path d="M221.74 17l-4.84 1.28c-.53.14-.85.68-.7 1.22.13.53.67.85 1.2.7l4.84-1.26c.54-.14.86-.7.72-1.22-.14-.53-.7-.85-1.22-.7zm-9.68 2.55l-4.83 1.27c-.53.14-.85.7-.7 1.22.13.54.67.86 1.2.72l4.84-1.28c.54-.14.86-.68.72-1.22s-.7-.85-1.3-.7zm-9.67 2.54l-4.9 1.2c-.6.1-.9.7-.7 1.2.1.5.6.8 1.2.7l4.9-1.3c.5-.2.8-.7.7-1.2-.2-.6-.7-.9-1.2-.7zm-9.7 2.5l-4.9 1.2c-.6.1-.9.7-.8 1.2.1.5.7.8 1.2.7l4.8-1.3c.5-.2.8-.7.7-1.2-.2-.6-.7-.9-1.2-.7zm-9.7 2.5l-4.9 1.2c-.6.1-.9.7-.7 1.2s.7.8 1.2.7l4.8-1.3c.5-.2.8-.7.7-1.2-.2-.6-.7-.9-1.2-.8zm-9.7 2.5l-4.8 1.3c-.6.1-.9.7-.8 1.2s.7.8 1.2.7l4.8-1.3c.5-.2.8-.7.7-1.3s-.7-.9-1.3-.7zm-9.7 2.5l-4.9 1.2c-.6.1-.9.7-.7 1.2.1.5.7.8 1.2.7l4.8-1.3c.5-.2.8-.7.7-1.3-.2-.5-.7-.9-1.2-.7zm-9.6 2.6l-4.9 1.3c-.6.1-.9.6-.7 1.2.1.5.6.8 1.2.7l4.8-1.3c.6-.2.9-.7.7-1.2-.1-.5-.6-.8-1.2-.7zm-9.7 2.5l-4.9 1.2c-.6.2-.9.7-.7 1.3.1.5.6.8 1.2.7l4.8-1.3c.5-.2.8-.7.7-1.2-.2-.6-.7-.9-1.2-.7zm-9.7 2.5l-4.9 1.3c-.6.1-.9.7-.7 1.2s.7.8 1.2.7l4.8-1.3c.5-.2.8-.7.7-1.3-.2-.5-.7-.9-1.2-.7zm-9.6 2.6l-4.9 1.2c-.6.1-.9.7-.8 1.2s.7.8 1.2.7l4.8-1.3c.5-.2.8-.7.7-1.2-.1-.6-.7-.9-1.2-.7zm-9.2 4.4c.5-.2.8-.7.7-1.2-.2-.6-.7-.9-1.2-.7l-4.6 1.2-.5.3c-.5.3-.6.9-.3 1.4.3.4.9.6 1.4.2l.2-.2 4.2-1.1zm-9.7 2.5l-4.1 2.9c-.5.3-.6.9-.3 1.4.3.4.9.5 1.4.2l4.1-2.8c.4-.3.5-.9.2-1.4-.3-.4-1-.5-1.4-.2zM97.9 55l-4 2.9c-.5.35-.6.97-.3 1.4.3.48.92.6 1.4.27l4.1-2.84c.42-.4.53-1 .22-1.4-.4-.5-1-.6-1.4-.3zm-8.2 5.76l-4.1 2.87c-.5.3-.6.94-.3 1.4.3.44 1 .55 1.4.23l4.1-2.83c.5-.3.6-.9.3-1.4-.3-.4-.9-.5-1.4-.2zm-8.2 5.73l-4.1 2.9c-.5.3-.6.9-.3 1.4.4.4 1 .5 1.4.2l4.1-2.9c.5-.3.6-1 .3-1.4-.3-.5-.9-.6-1.4-.3zm-8.2 5.7L69.2 75c-.5.3-.6.93-.28 1.4.3.43.94.54 1.4.23l4.1-2.87c.44-.3.55-.94.23-1.4-.3-.44-.94-.55-1.4-.24zM65.1 78L61 80.9c-.47.34-.58.96-.26 1.4.4.46 1 .57 1.4.26l4.1-2.9c.5-.3.6-1 .3-1.4-.3-.5-.9-.6-1.4-.3zM57 83.8l-4.1 2.87c-.45.32-.56.94-.24 1.4.3.45.94.56 1.4.24l4.1-2.8c.44-.3.55-.9.23-1.4-.4-.4-1-.5-1.4-.2zm-8.2 5.74l-4.1 2.86c-.45.32-.56.94-.24 1.4.32.45.94.56 1.4.24l4.1-2.87c.44-.3.55-.94.24-1.4-.32-.44-.94-.55-1.4-.23zm-8.2 5.73l-4.1 2.86c-.44.32-.55.94-.23 1.4.3.45.94.56 1.4.24l4.1-2.86c.44-.3.55-.9.23-1.4-.3-.4-.94-.5-1.4-.2zM32.4 101l-4.08 2.86c-.46.32-.57.94-.25 1.4.32.45.94.56 1.4.24l4.1-2.86c.44-.32.55-.94.24-1.4-.3-.45-.9-.56-1.4-.24zm-8.18 5.73l-4.1 2.86c-.45.3-.56.9-.24 1.4.3.4.94.5 1.4.2l4.1-2.9c.44-.3.55-1 .23-1.4-.3-.5-.9-.6-1.3-.3zm-7.5 7.35l3.8 3.23c.44.4 1.07.4 1.42-.1.36-.4.3-1-.1-1.4L18 112.6c-.42-.36-1.05-.3-1.4.12-.37.4-.32 1.04.1 1.4zm7.62 6.47l3.82 3.24c.42.3 1.05.3 1.4-.2.36-.4.3-1.1-.1-1.4l-3.82-3.2c-.42-.4-1.05-.3-1.4.1-.37.4-.32 1 .1 1.4zm7.63 6.48l3.8 3.23c.43.36 1.06.3 1.42-.1.3-.43.3-1.06-.2-1.42l-3.8-3.24c-.5-.36-1.1-.3-1.4.12-.4.42-.3 1.05.1 1.4zm7.62 6.47l3.8 3.24c.4.35 1 .3 1.4-.12.3-.42.3-1.05-.1-1.4l-3.9-3.25c-.4-.35-1.1-.3-1.4.12-.4.4-.3 1 .1 1.4zm7.6 6.47l3.8 3.24c.4.4 1 .4 1.4-.1.3-.4.3-1-.1-1.4l-3.8-3.2c-.5-.3-1.1-.3-1.4.1-.4.5-.3 1.1.1 1.4zm7.6 6.48l3.8 3.23c.4.36 1 .3 1.4-.1.3-.43.3-1.06-.1-1.42l-3.8-3.24c-.5-.36-1.1-.3-1.4.12-.4.42-.3 1.05.1 1.4zm7.6 6.47l3.8 3.24c.4.36 1 .3 1.4-.12.3-.42.3-1.05-.1-1.4l-3.9-3.24c-.4-.36-1.1-.3-1.4.1-.4.43-.3 1.06.1 1.42zm7.6 6.48l3.8 3.23c.4.36 1 .3 1.4-.1.3-.43.3-1.06-.1-1.42l-3.8-3.2c-.5-.3-1.1-.3-1.5.1-.4.4-.3 1.1.1 1.4zm7.6 6.47l3.8 3.24c.4.4 1 .3 1.4-.1.3-.4.3-1-.1-1.4l-3.8-3.2c-.5-.3-1.1-.3-1.4.1-.4.4-.3 1.1.1 1.4zm7.6 6.47l3.8 3.24c.4.36 1 .3 1.4-.1.3-.44.3-1.07-.1-1.42l-3.8-3.24c-.5-.36-1.1-.3-1.5.1-.4.43-.3 1.07.1 1.42zm9.2 3.4l4.6-1.87c.5-.2.7-.8.5-1.3-.2-.5-.8-.76-1.3-.55l-4.7 1.86c-.5.2-.8.8-.6 1.3.2.52.8.77 1.3.56zm9.2-3.73l4.6-1.8c.5-.2.7-.8.5-1.3-.2-.5-.8-.7-1.3-.5l-4.7 1.9c-.5.2-.8.8-.6 1.3.2.5.8.8 1.3.6zm9.3-3.7l4.6-1.8c.5-.2.7-.7.5-1.3-.2-.5-.8-.7-1.3-.5l-4.6 1.9c-.5.2-.8.8-.6 1.3.2.5.8.8 1.3.6zm9.3-3.7l4.6-1.8c.5-.2.7-.8.5-1.3-.2-.5-.8-.7-1.3-.5l-4.7 1.9c-.5.2-.8.8-.6 1.3.2.5.8.8 1.3.6zm9.3-3.7l4.6-1.8c.5-.2.7-.8.5-1.3-.2-.5-.8-.7-1.3-.5l-4.6 1.9c-.5.2-.8.8-.6 1.3.2.5.8.8 1.3.6zm9.2-3.7l4.6-1.8c.5-.2.7-.8.5-1.3-.2-.5-.8-.7-1.3-.5l-4.7 1.8c-.5.2-.8.8-.6 1.3.2.5.8.8 1.3.6zm9.2-3.7l4.6-1.8c.5-.2.7-.8.5-1.3-.2-.5-.8-.7-1.3-.5l-4.7 1.9c-.6.2-.8.8-.6 1.3.2.5.8.8 1.3.6zm9.3-3.7l4.6-1.8c.5-.2.7-.7.5-1.3-.2-.5-.8-.7-1.3-.5l-4.6 1.9c-.5.2-.8.8-.6 1.3.2.5.8.8 1.3.6zm9.3-3.7l4.6-1.8c.5-.2.8-.8.5-1.3s-.8-.7-1.3-.5l-4.7 1.9c-.5.3-.8.8-.6 1.3.2.6.8.8 1.3.6zm9.3-3.7l4.6-1.8c.5-.2.8-.8.6-1.3-.2-.5-.8-.7-1.3-.5l-4.7 1.9c-.6.2-.8.8-.6 1.3.2.5.8.8 1.3.6zm9.2-3.7l4.6-1.8c.5-.2.7-.8.5-1.3-.2-.5-.8-.7-1.3-.5l-4.7 1.9c-.5.2-.8.8-.6 1.3.2.6.8.8 1.3.6zm8.5-5.6c-.5.3-.8.8-.6 1.3.2.6.8.8 1.3.6l2.3-.9.7-3.5c.1-.5-.3-1-.8-1.1-.6-.1-1.1.3-1.2.8l-.5 2.5-1.4.6zm4.8-7.4l1-4.9c.1-.5-.2-1-.8-1.2-.5-.1-1.1.2-1.2.8l-1 4.9c-.1.6.2 1.1.8 1.2.5.1 1.1-.2 1.2-.8zm2-9.8l1-4.9c.1-.5-.2-1-.8-1.1-.6-.1-1.1.2-1.2.8l-1.1 4.9c-.1.6.2 1.1.8 1.2.5.1 1.1-.2 1.2-.7zm2-9.8l1-4.9c.1-.5-.3-1.1-.8-1.2-.6-.1-1.1.3-1.2.8l-1.1 4.9c-.1.6.2 1.1.8 1.2.5.1 1.1-.2 1.2-.7zm2-9.8l1-4.9c.1-.5-.3-1-.8-1.2-.5-.1-1.1.3-1.2.8l-1 4.9c-.1.6.2 1.1.8 1.2.5.2 1.1-.2 1.2-.7zm2.1-9.8l1-4.9c.1-.5-.2-1-.8-1.1-.6-.1-1.1.3-1.2.8l-1 4.9c-.1.5.3 1.1.8 1.2.6.1 1.1-.2 1.2-.7zm2-9.8l1-4.8c.2-.5-.2-1.1-.7-1.2-.6-.1-1.1.3-1.2.8l-1 4.9c-.2.5.2 1.1.7 1.2.5.1 1.1-.3 1.2-.8zm2-9.7l1-4.9c.1-.5-.3-1-.8-1.2-.6-.1-1.1.3-1.2.8l-1.1 4.9c-.1.5.3 1.1.8 1.2.6.1 1.1-.2 1.2-.8zm2-9.8l1-4.9c.1-.5-.3-1-.8-1.2-.6-.1-1.1.3-1.2.8l-1 4.9c-.2.6.2 1.1.7 1.2.5.1 1-.2 1.2-.8zm2-9.8l1-4.9c.1-.5-.2-1-.8-1.1-.5-.1-1.1.3-1.2.8l-1 4.9c-.1.6.2 1.1.8 1.2.5.1 1.1-.2 1.2-.8zm2-9.8l1-4.8c.1-.5-.2-1-.7-1.2-.6-.1-1.1.3-1.2.8l-1 4.9c-.1.6.2 1.1.8 1.2.5.1 1.1-.2 1.2-.8zm2.1-9.8l1-4.9c.1-.5-.2-1-.8-1.1-.6-.1-1.1.2-1.2.8l-1 4.9c-.1.5.2 1.1.7 1.2.6.1 1.1-.2 1.2-.7zM784.4 33l4.18 2.74c.46.3 1.08.15 1.4-.3.3-.47.16-1.1-.3-1.4l-4.18-2.73c-.46-.3-1.08-.1-1.4.3-.3.5-.16 1.1.3 1.4zm8.36 5.48l4.2 2.75c.46.3 1.08.2 1.4-.3.3-.43.16-1.05-.3-1.36l-4.18-2.74c-.45-.3-1.07-.17-1.38.3-.3.45-.17 1.07.3 1.37zm8.38 5.5l4.2 2.73c.46.3 1.08.2 1.4-.3.3-.4.16-1.1-.3-1.4l-4.2-2.7c-.44-.3-1.06-.1-1.4.3-.3.5-.14 1.1.3 1.4zm8.38 5.48l4.17 2.76c.5.3 1.1.16 1.4-.3.3-.46.2-1.08-.3-1.38l-4.2-2.74c-.5-.3-1.1-.16-1.4.3-.3.47-.2 1.1.3 1.4zm8.35 5.5L822 57.7c.47.3 1.1.2 1.4-.3.3-.4.17-1.03-.3-1.33l-4.2-2.8c-.46-.3-1.1-.16-1.4.3-.3.46-.16 1.08.3 1.38zm8.32 5.5l4.1 2.73c.4.3 1.1.2 1.4-.3.3-.5.1-1.1-.3-1.4l-4.2-2.8c-.5-.3-1.1-.2-1.4.3-.3.4-.2 1 .3 1.3zm8.3 5.48l4.2 2.75c.4.3 1.1.2 1.4-.3.3-.5.1-1.1-.3-1.4l-4.2-2.8c-.5-.4-1.1-.2-1.4.2-.3.4-.2 1.1.3 1.4zm8.4 5.5l4.1 2.74c.4.3 1 .16 1.4-.3.3-.46.1-1.1-.3-1.4l-4.2-2.73c-.5-.3-1.1-.17-1.4.3-.3.45-.2 1.07.3 1.37zm8.3 5.48l4.1 2.74c.5.3 1.1.16 1.4-.3.3-.5.2-1.1-.3-1.4l-4.2-2.76c-.5-.3-1.1-.17-1.4.3-.3.45-.2 1.07.3 1.37zm8.3 5.5l4.2 2.65c.5.3 1.1.2 1.4-.3.3-.43.2-1.05-.3-1.35l-4.2-2.75c-.5-.3-1.1-.2-1.4.23-.3.47-.2 1.1.3 1.4zm8.4 5.48l4.1 2.77c.5.3 1.1.2 1.4-.3.3-.43.2-1.05-.3-1.35l-4.1-2.74c-.5-.3-1.1-.17-1.4.3-.3.45-.2 1.07.3 1.38zm8.3 5.5l4.2 2.76c.4.3 1.1.15 1.4-.3.3-.47.1-1.1-.3-1.4l-4.2-2.74c-.5-.3-1.1-.17-1.4.3-.3.45-.2 1.07.3 1.37zm8.4 5.5l4.1 2.74c.5.3 1.1.18 1.4-.28.3-.5.2-1.1-.3-1.4l-4.2-2.75c-.5-.3-1.1-.1-1.4.3-.3.5-.2 1.1.3 1.4zm8.3 5.5l4.1 2.73c.4.3 1.1.2 1.4-.27.3-.48.1-1.1-.3-1.4l-4.2-2.75c-.5-.3-1.1-.1-1.4.3-.3.5-.2 1.1.3 1.4zm8.3 5.47l4.2 2.77c.4.3 1.1.17 1.4-.3.3-.45.1-1.07-.3-1.38l-4.2-2.86c-.5-.3-1.1-.17-1.4.3-.3.45-.2 1.07.3 1.37zm8.4 5.5l2.6 1.7c.4.3 1.1.2 1.4-.3.3-.44.1-1.06-.3-1.36l-2.6-1.7c-.5-.3-1.1-.2-1.4.3-.3.5-.2 1.1.3 1.4z" fill="#E6F5FB"/><path d="M7.03 117.76l8.75-8.73-14.12-6.58c-.52-.24-.6-.77-.2-1.17l1.68-1.7c.4-.38 1.2-.62 1.75-.5l17 3.8 2.9-2.97c1.7-1.7 5.4-4.2 7.3-2.1s-.2 5.6-2 7.4l-3.1 3.1 3.7 16.9c.1.6-.1 1.4-.5 1.8l-1.7 1.7c-.4.4-.9.3-1.2-.2l-6.5-14.1-8.8 8.7v4.2c0 .6-.5 1.2-1 1.4l-.8.3c-.5.2-1.2-.1-1.4-.6l-2-5.3-5.4-1.7c-.6-.2-.9-.7-.7-1.3l.4-1.1c.1-.5.8-1 1.3-1H7z" fill="#fff"/><path d="M17.5 108.72L7.44 118.76H2.82c-.15 0-.38.17-.43.3l-.4 1.17c0 .02 5.7 1.98 5.7 1.98L10 128l.1.1.74-.3c.15 0 .33-.3.33-.5v-4.6l10.05-9.94 7 14.97 1.4-1.42c.15-.1.3-.6.23-.8l-3.8-17.5.4-.4 3.1-3c2.08-2 3.06-4.7 1.9-5.9-1.04-1.1-3.7 0-5.9 2.1L22.3 104l-17.6-3.9c-.25-.04-.7.1-.85.25l-1.4 1.4 15.05 7zm-3.44.6l-12.82-5.96c-1.15-.54-1.4-1.9-.5-2.8l1.7-1.68c.64-.63 1.78-.97 2.67-.77l16.6 3.7 2.6-2.6c3-2.9 6.6-4.4 8.8-2 2.2 2.4.8 6-1.9 8.8l-2.7 2.7 3.7 16.4c.2.9-.1 2-.7 2.7l-1.7 1.7c-.9.9-2.2.7-2.7-.5l-6-12.7-7.5 7.4v3.8c0 1-.7 2-1.6 2.4l-.7.3c-1 .4-2.2-.1-2.6-1.1l-2-4.9-4.9-1.6C.7 122.2.1 121 .5 120l.4-1.13C1 117.7 2 117 3 117h3.8l7.44-7.46z" fill="#97D9F2"/><path d="M111 53.72c4.3.5 7.8 7.28 14.32 7.28 3 0 4.68-2.17 4.68-6.5 0-13-6.7-19.5-11.18-19.5-3 0-5.2 2.16-7.82 2.42-2.63-.26-4.82-2.42-7.82-2.42C98.68 35 92 41.5 92 54.5c0 4.33 1.7 6.5 4.68 6.5 6.5 0 10-6.78 14.32-7.28z" fill="#fff"/><path d="M108.84 55.6c-.47.3-.96.67-1.58 1.15-.37.28-1.68 1.34-1.72 1.37-3.36 2.68-5.7 3.88-8.86 3.88C93 62 91 59.26 91 54.5 91 42.63 96.93 34 103.18 34c1.52 0 2.64.36 4.7 1.3l.85.4c.94.4 1.6.63 2.27.7.66-.07 1.34-.3 2.27-.7l.85-.4c2.06-.94 3.18-1.3 4.7-1.3 6.25 0 12.18 8.63 12.18 20.5 0 4.76-2 7.5-5.68 7.5-3.15 0-5.5-1.2-8.86-3.88-.04-.03-1.35-1.1-1.72-1.37-.6-.48-1.1-.84-1.58-1.14-.8-.5-1.5-.7-2.16-.8-.66.1-1.36.4-2.16.9zm2.27-2.88c1.1.12 2.1.52 3.2 1.2.6.33 1.1.73 1.8 1.25l1.8 1.4c3.1 2.4 5.1 3.43 7.7 3.43 2.4 0 3.7-1.73 3.7-5.5 0-10.9-5.2-18.5-10.1-18.5-1.1 0-2 .3-3.8 1.13l-.9.4c-1.1.5-2 .8-3 .88h-.2c-.9 0-1.8-.3-2.9-.8l-.9-.4c-1.8-.8-2.7-1.1-3.8-1.1C98.3 36 93 43.6 93 54.5c0 3.77 1.27 5.5 3.68 5.5 2.57 0 4.58-1.02 7.6-3.44l1.75-1.4c.66-.5 1.2-.9 1.75-1.24 1.08-.68 2.08-1.08 3.1-1.2h.22zm-2.6-9.22c.6 0 1 .44 1 1v3c0 .56-.4 1-1 1h-3v3c0 .55-.4 1-1 1h-3c-.5 0-1-.45-1-1v-3h-3c-.5 0-1-.44-1-1v-3c0-.56.5-1 1-1h3v-3c0-.55.5-1 1-1h3c.6 0 1 .45 1 1v3h3zm-4 1v-4h-3v4h-4v3h4v4h3v-4h4v-3h-4zm14.5 7c.9 0 1.5-.67 1.5-1.5s-.6-1.5-1.5-1.5-1.5.67-1.5 1.5.7 1.5 1.5 1.5zm0 1c-1.3 0-2.5-1.12-2.5-2.5s1.2-2.5 2.5-2.5 2.5 1.12 2.5 2.5-1.1 2.5-2.5 2.5zm0-9c.9 0 1.5-.67 1.5-1.5s-.6-1.5-1.5-1.5-1.5.67-1.5 1.5.7 1.5 1.5 1.5zm0 1c-1.3 0-2.5-1.12-2.5-2.5s1.2-2.5 2.5-2.5 2.5 1.12 2.5 2.5-1.1 2.5-2.5 2.5zm4 3c.9 0 1.5-.67 1.5-1.5s-.6-1.5-1.5-1.5-1.5.67-1.5 1.5.7 1.5 1.5 1.5zm0 1c-1.3 0-2.5-1.12-2.5-2.5s1.2-2.5 2.5-2.5 2.5 1.12 2.5 2.5-1.1 2.5-2.5 2.5zm-8-1c.9 0 1.5-.67 1.5-1.5s-.6-1.5-1.5-1.5-1.5.67-1.5 1.5.7 1.5 1.5 1.5zm0 1c-1.3 0-2.5-1.12-2.5-2.5s1.2-2.5 2.5-2.5 2.5 1.12 2.5 2.5-1.1 2.5-2.5 2.5z" fill="#61C5ED"/><path d="M232.56 28.44v2.1c0 1.2.94 2.13 2.1 2.13h2.12c1.18 0 2.1-.96 2.1-2.14v-15c0-.53-.08-1.17-.23-1.86h.24c1.1 0 2.1-.95 2.1-2.12 0-1.17-1-2.1-2.1-2.1h-1.6c-.9-2.47-1.9-4.58-1.9-4.58-.9-2.14-3.6-3.87-5.9-3.87h-15.2c-2.4 0-5 1.73-5.9 3.87 0 0-1 2.1-1.9 4.57H205c-1.15 0-2.1.95-2.1 2.1 0 1.2.96 2.13 2.1 2.13h.26c-.16.7-.25 1.33-.25 1.86v15c0 1.2 1 2.14 2.1 2.14h2.2c1.2 0 2.1-.96 2.1-2.14v-2.1h21.1z" fill="#fff"/><path d="M212.44 29.44v1.1c0 1.73-1.38 3.13-3.1 3.13h-2.12c-1.73 0-3.1-1.4-3.1-3.14v-15c0-.3 0-.64.06-1-1.26-.4-2.18-1.57-2.18-2.98 0-1.72 1.38-3.1 3.1-3.1h.85c.36-.95.74-1.88 1.12-2.76l.4-.9.13-.4c1.07-2.5 4.07-4.5 6.8-4.5h15.2c2.73 0 5.74 1.9 6.8 4.4l.14.3.4.9c.37.8.75 1.8 1.1 2.7h.85c1.7 0 3.1 1.4 3.1 3.1 0 1.4-1 2.6-2.2 3 0 .3.1.7.1 1v15c0 1.7-1.4 3.1-3.2 3.1h-2.1c-1.7 0-3.1-1.4-3.1-3.2v-1.1h-19.1zm21.1 1.1c0 .63.5 1.13 1.12 1.13h2.12c.62 0 1.1-.5 1.1-1.14v-15c0-.43-.06-.98-.2-1.65l-.27-1.2h1.5c.6 0 1.1-.5 1.1-1.12 0-.62-.5-1.12-1.1-1.12h-2.2l-.2-.65-.1-.5c-.3-1-.7-2-1.1-2.9l-.3-.9-.1-.4c-.7-1.8-3-3.3-5-3.3h-15.2c-1.9 0-4.2 1.5-4.9 3.3l-.1.3-.4.8c-.4.9-.8 1.9-1.2 2.8l-.1.4-.2.6h-2.2c-.6 0-1.1.5-1.1 1.1 0 .6.5 1.1 1.1 1.1h1.5l-.3 1.2c-.1.7-.2 1.2-.2 1.6v15c0 .7.5 1.2 1.1 1.2h2.2c.6 0 1.1-.5 1.1-1.2v-3h23v3.1zm-1.6-20.25l-.02-.1-.8-2.1-.25-.7-.1-.3C230.53 6.5 229.7 6 229 6h-14c-.7 0-1.53.58-1.77 1.2l-.1.27-.26.68-.8 2.1v.04l-.65 1.7h21.15l-.64-1.7zm.7-3.8l.1.2.26.7.8 2.1c.7 1.9 1.1 2.9 1.16 3.1l.35 1.2h-26.6l.4-1.3 1.2-3.2.8-2.1.3-.7.1-.3c.4-1.3 2-2.4 3.5-2.4h14c1.6 0 3.1 1.1 3.7 2.5zM228 18v2h5v-2h-5zm-2 0c0-1.1.9-2 2-2h5c1.1 0 2 .88 2 2v2c0 1.1-.9 2-2 2h-5c-1.1 0-2-.88-2-2v-2zm-15 0v2h5v-2h-5zm-2 0c0-1.1.9-2 2-2h5c1.1 0 2 .88 2 2v2c0 1.1-.9 2-2 2h-5c-1.1 0-2-.88-2-2v-2z" fill="#CBECF9"/><path d="M72 160.5c0-.28.22-.5.5-.5h37c.27 0 .5.22.5.5v23c0 .27-.22.5-.5.5h-37c-.27 0-.5-.22-.5-.5v-23zm9 28c0-.28.23-.5.5-.5h19c.28 0 .5.2.5.5v3c0 .28-.23.5-.5.5h-19c-.28 0-.5-.22-.5-.5v-3z" fill="#fff"/><path d="M73 161v22h36v-22H73zm-2-.5c0-.83.67-1.5 1.5-1.5h37c.82 0 1.5.67 1.5 1.5v23c0 .83-.68 1.5-1.5 1.5h-37c-.82 0-1.5-.67-1.5-1.5v-23zM82 191h18v-2H82v2zm-2-2.5c0-.83.67-1.5 1.5-1.5h19c.83 0 1.5.66 1.5 1.5v3c0 .83-.68 1.5-1.5 1.5h-19c-.83 0-1.5-.66-1.5-1.5v-3zm-3.5-25v17h29v-17h-29zm-1 0c0-.55.45-1 1-1h29c.55 0 1 .45 1 1v17c0 .55-.45 1-1 1h-29c-.55 0-1-.45-1-1v-17z" fill="#61C5ED"/><path d="M199 116.5V114c0-.55.44-1 1-1h2c.55 0 1 .45 1 1v31.5c0 .55-.45 1-1 1h-14c-.55 0-1-.45-1-1v-28c0-.55.44-1 1-1h11zM184 144v4.12c0 1.1.9 2 2 2h18c1.1 0 2-.9 2-2V144h9c.55 0 1 .45 1 1v7c0 .55-.45 1-1 1h-34c-.55 0-1-.45-1-1v-7c0-.55.46-1 1-1h3z" fill="#fff"/><path d="M200 117.5h-12v28h14V114h-2v3.5zm-2-2V114c0-1.1.9-2 2-2h2c1.1 0 2 .9 2 2v31.5c0 1.1-.9 2-2 2h-14c-1.1 0-2-.9-2-2v-28c0-1.1.9-2 2-2h10zM181 145v7h34v-7h-8v3.12c0 1.65-1.34 3-3 3h-18c-1.66 0-3-1.35-3-3V145h-2zm4 3.12c0 .55.44 1 1 1h18c.56 0 1-.45 1-1V143h10c1.1 0 2 .9 2 2v7c0 1.1-.9 2-2 2h-34c-1.1 0-2-.9-2-2v-7c0-1.1.9-2 2-2h4v5.12zm24.5 1.38h3v-2h-3v2zm-1-2c0-.55.44-1 1-1h3c.56 0 1 .44 1 1v2c0 .55-.44 1-1 1h-3c-.56 0-1-.44-1-1v-2zm-18-17h9v-9h-9v9zm-1-9c0-.55.45-1 1-1h9c.55 0 1 .45 1 1v9c0 .55-.45 1-1 1h-9c-.55 0-1-.45-1-1v-9z" fill="#97D9F2"/><path d="M717 98v5h3c.55 0 1 .44 1 1v1c0 .55-.46 1-1 1h-10c-.55 0-1-.44-1-1v-1c0-.55.46-1 1-1h3v-5c-2.9-.93-5-3.8-5-6.67 0-3.5 2.33-9.33 2.33-9.33h9.34s2.33 5.83 2.33 9.33c0 2.87-2.1 5.75-5 6.68zm-18.6-25.2V76h1.1c2.5 0 4.5 2.02 4.5 4.5v25c0 .28-.23.5-.5.5h-17c-.28 0-.5-.22-.5-.5v-25c0-2.5 2-4.5 4.5-4.5h1.5v-3.2h6.4zm0-2.8v-3.23c0-.42-.48-.77-1.07-.77h-4.26c-.6 0-1.07.35-1.07.77V70h6.4z" fill="#fff"/><path d="M716 104v-6.7l.7-.24c2.46-.8 4.3-3.27 4.3-5.73 0-.84-.15-1.9-.44-3.15-.18-.8-.4-1.65-.68-2.53-.25-.8-.52-1.6-.8-2.34l-.1-.3h-7.96l-.1.3c-.28.8-.55 1.6-.8 2.4-.27.9-.5 1.8-.68 2.6-.3 1.3-.44 2.3-.44 3.2 0 2.5 1.85 5 4.3 5.8l.7.3v6.7h-4v1h10v-1h-4zm2-2h2c1.1 0 2 .9 2 2v1c0 1.1-.9 2-2 2h-10c-1.1 0-2-.9-2-2v-1c0-1.1.9-2 2-2h2v-3.3c-2.92-1.27-5-4.28-5-7.37 0-1 .17-2.22.5-3.6.18-.85.43-1.75.7-2.67.27-.85.55-1.67.83-2.44l.27-.72.1-.27.26-.63h10.68l.25.63.1.27.2.72c.3.77.5 1.6.8 2.44.2.92.5 1.82.7 2.67.3 1.38.5 2.6.5 3.6 0 3.1-2.1 6.1-5 7.37v3.3zm-25-28.2V77h-2.5c-1.94 0-3.5 1.56-3.5 3.5V105h16V80.5c0-1.93-1.57-3.5-3.5-3.5h-2.1v-3.2H693zm-2-2h8.4V75h.1c3.04 0 5.5 2.46 5.5 5.5v25c0 .83-.68 1.5-1.5 1.5h-17c-.83 0-1.5-.67-1.5-1.5v-25c0-3.04 2.46-5.5 5.5-5.5h.5v-3.2zm8.4-.8H691v-4.23c0-1.06.98-1.77 2.07-1.77h4.26c1.1 0 2.07.7 2.07 1.77V71zm-2-4H693v2h4.4v-2zm-5.4 33h6V88h-6v12zm8-14v16h-10V86h10z" fill="#97D9F2"/><path d="M835 167.28h26.24c1.04 0 1.88.85 1.88 1.9v34.2c0 1.05-.84 1.9-1.88 1.9H835c-1.05 0-1.88-.85-1.88-1.9v-34.2c0-1.05.83-1.9 1.87-1.9z" fill="#fff"/><path d="M835 168.28c-.5 0-.88.4-.88.9v34.2c0 .5.4.9.87.9h26.2c.5 0 .9-.4.9-.9v-34.2c0-.5-.4-.9-.9-.9H835zm0-2h26.24c1.6 0 2.88 1.3 2.88 2.9v34.2c0 1.6-1.3 2.9-2.88 2.9H835c-1.6 0-2.88-1.3-2.88-2.9v-34.2c0-1.6 1.28-2.9 2.87-2.9zm22.88 10.44c-1.65 0-3-1.35-3-3s1.35-3 3-3 3 1.34 3 3-1.34 3-3 3zm0-2c.56 0 1-.45 1-1s-.44-1-1-1-1 .45-1 1 .45 1 1 1zm-7 2c-1.65 0-3-1.35-3-3s1.35-3 3-3 3 1.34 3 3-1.34 3-3 3zm0-2c.56 0 1-.45 1-1s-.44-1-1-1-1 .45-1 1 .45 1 1 1zm-12.76 15.56c0 5.53 4.47 10 10 10s10-4.47 10-10-4.48-10-10-10-10 4.48-10 10zm22 0c0 6.63-5.38 12-12 12s-12-5.37-12-12 5.37-12 12-12 12 5.38 12 12zm-11.4.26l-.8.32c-2.75 1.08-4.75 1.44-6.48.75.88 2.9 3.54 5 6.68 5 3.72 0 6.76-2.9 6.98-6.5-1.32-1.1-2.78-.8-6.37.6zm8.4-1.02c0 4.97-4.03 9-9 9s-9-4.03-9-9v-2.4l1.7 1.7c1.5 1.5 3.15 1.44 6.38.17l.78-.4c4.6-1.9 6.62-2.1 8.84.1l.3.3v.4z" fill="#CBECF9"/><path d="M771 24.5c0-.28.23-.5.5-.5h25c.28 0 .5.23.5.5v25c0 .28-.23.5-.5.5h-25c-.28 0-.5-.23-.5-.5v-25zm-3.72-.5c-.27 0-.36-.17-.2-.4l7.17-9.2c.17-.22.53-.4.8-.4h17.9c.27 0 .63.17.8.4l7.16 9.2c.2.22.1.4-.1.4h-33.5z" fill="#fff"/><path d="M772 49h24V25h-24v24zm-2-24.5c0-.83.67-1.5 1.5-1.5h25c.83 0 1.5.67 1.5 1.5v25c0 .83-.67 1.5-1.5 1.5h-25c-.83 0-1.5-.67-1.5-1.5v-25zm29.17-1.5l-6.2-8c0 .03-17.9 0-17.9 0 .02 0-6.24 8-6.24 8h30.34zm-31.9 2c-1.1 0-1.66-1.13-.97-2l7.16-9.22c.36-.46 1.02-.78 1.6-.78h17.88c.58 0 1.24.32 1.6.78l7.16 9.2c.68.9.13 2.02-.98 2.02h-33.44zm10.25 8.5h3v-3h-3v3zm-1-3c0-.56.44-1 1-1h3c.55 0 1 .44 1 1v3c0 .56-.45 1-1 1h-3c-.56 0-1-.44-1-1v-3zm11 3h3v-3h-3v3zm-1-3c0-.56.44-1 1-1h3c.55 0 1 .44 1 1v3c0 .56-.45 1-1 1h-3c-.56 0-1-.44-1-1v-3zm-9 13h3v-3h-3v3zm-1-3c0-.56.44-1 1-1h3c.55 0 1 .44 1 1v3c0 .56-.45 1-1 1h-3c-.56 0-1-.44-1-1v-3zm11 3h3v-3h-3v3zm-1-3c0-.56.44-1 1-1h3c.55 0 1 .44 1 1v3c0 .56-.45 1-1 1h-3c-.56 0-1-.44-1-1v-3z" fill="#CBECF9"/><path d="M903.6 103.45h25.78c1.2 0 1.88.93 1.53 2.03l-5.1 16.36c-.3 1.13-1.6 2.04-2.8 2.04h-21.5c-1.2 0-2.1-.96-2.1-2.15v-18.28c0-1.2-.9-2.15-2.1-2.15-1.2 0-2.1-.96-2.1-2.15 0-1.2 1-2.15 2.2-2.15h2.2c2.4 0 4.3 1.93 4.3 4.3v2.15zm.7 29.55c-1.66 0-3-1.34-3-3s1.34-3 3-3 3 1.34 3 3-1.34 3-3 3zm15.05 0c-1.66 0-3-1.34-3-3s1.34-3 3-3 3 1.34 3 3-1.34 3-3 3z" fill="#fff"/><path d="M902.6 104.45v-3.14c0-1.8-1.47-3.3-3.3-3.3h-2.13c-.65 0-1.17.5-1.17 1.2s.5 1.2 1.15 1.2c1.74 0 3.15 1.4 3.15 3.2v18.3c0 .7.52 1.2 1.16 1.2h21.5c.73 0 1.6-.6 1.83-1.3l5.1-16.3c.1-.4-.1-.7-.6-.7h-26.7zm26.78-2c1.87 0 3.04 1.58 2.48 3.33l-5.16 16.36c-.5 1.54-2.14 2.74-3.76 2.74h-21.5c-1.73 0-3.14-1.4-3.14-3.15v-18.28c0-.64-.5-1.15-1.15-1.15-1.75 0-3.15-1.4-3.15-3.15s1.42-3.15 3.17-3.15h2.13c2.94 0 5.3 2.37 5.3 5.3v1.15h24.78zM904.3 134c-2.2 0-4-1.8-4-4s1.8-4 4-4 4 1.8 4 4-1.8 4-4 4zm0-2c1.1 0 2-.9 2-2s-.9-2-2-2-2 .9-2 2 .9 2 2 2zm15.05 2c-2.2 0-4-1.8-4-4s1.8-4 4-4 4 1.8 4 4-1.8 4-4 4zm0-2c1.1 0 2-.9 2-2s-.9-2-2-2-2 .9-2 2 .9 2 2 2z" fill="#61C5ED"/></g></svg>