<svg width="404" height="234" viewBox="0 0 404 234" xmlns="http://www.w3.org/2000/svg" xmlns:xlink="http://www.w3.org/1999/xlink"><defs><path d="M0 .4C0 .2.18 0 .4 0h297.2c.2 0 .4.18.4.4v185.2c0 .22-.18.4-.4.4H.4c-.2 0-.4-.18-.4-.4V.4z" id="a"/><filter x="-6%" y="-6.3%" width="112.1%" height="119.2%" filterUnits="objectBoundingBox" id="b"><feOffset dy="5" in="SourceAlpha" result="shadowOffsetOuter1"/><feGaussianBlur stdDeviation="4" in="shadowOffsetOuter1" result="shadowBlurOuter1"/><feColorMatrix values="0 0 0 0 0 0 0 0 0 0 0 0 0 0 0 0 0 0 0.1 0" in="shadowBlurOuter1" result="shadowMatrixOuter1"/><feMerge><feMergeNode in="shadowMatrixOuter1"/><feMergeNode in="SourceGraphic"/></feMerge></filter><linearGradient x1="50%" y1="0%" x2="50%" y2="100%" id="c"><stop stop-color="#F5F5F5" offset="0%"/><stop stop-color="#EBEBEB" offset="100%"/></linearGradient><path d="M1 0h45.95c.56 0 1 .45 1 1v4.03c0 .54-.44 1-1 1H1c-.55 0-1-.45-1-1V1c0-.55.45-1 1-1z" id="e"/><filter x="-2.1%" y="-8.3%" width="104.2%" height="133.2%" filterUnits="objectBoundingBox" id="d"><feOffset dy=".5" in="SourceAlpha" result="shadowOffsetOuter1"/><feGaussianBlur stdDeviation=".25" in="shadowOffsetOuter1" result="shadowBlurOuter1"/><feColorMatrix values="0 0 0 0 0.88 0 0 0 0 0.88 0 0 0 0 0.88 0 0 0 1 0" in="shadowBlurOuter1"/></filter><linearGradient x1="50%" y1="0%" x2="50%" y2="100%" id="f"><stop stop-color="#F39A1E" offset="0%"/><stop stop-color="#fff" offset="100%"/></linearGradient></defs><g fill="none"><path d="M42.5 225c-2.5 0-4.5-2.02-4.5-4.5V14.06C38 6.85 43.83 1 51 1h302c7.17 0 13 5.85 13 13.07V220.5c0 2.48-2 4.5-4.5 4.5h-319z" fill="#FAFAFA"/><path d="M42.5 224.25h319c2.07 0 3.75-1.68 3.75-3.76V14.06c0-6.8-5.5-12.32-12.26-12.32H51c-6.76 0-12.25 5.5-12.25 12.32V220.5c0 2.07 1.67 3.75 3.74 3.75zm0 1.5c-2.9 0-5.25-2.36-5.25-5.26V14.06C37.25 6.44 43.4.25 51 .25h302c7.6 0 13.75 6.2 13.75 13.82V220.5c0 2.9-2.35 5.25-5.24 5.25h-319z" fill="#D1D2D3"/><path d="M202 9c-1.1 0-2 .9-2 2s.9 2 2 2 2-.9 2-2-.9-2-2-2" fill="#D1D2D3"/><path d="M202 9c-1.1 0-2 .9-2 2s.9 2 2 2 2-.9 2-2-.9-2-2-2m0 1.14c.47 0 .86.4.86.86s-.4.86-.86.86-.86-.4-.86-.86.4-.86.86-.86" fill="#F2F2F2"/><g transform="translate(53 20)"><use fill="#75868C" xlink:href="#a"/></g><g><path d="M2.63 224.6l398.65.18c.23 0 .42.2.42.42v1.96c-16.03 5-64.04 4.72-64.04 4.72s-246.02-.06-285.27 0c-39.16-.53-50.2-4.56-50.2-4.56v-2.3c0-.24.2-.43.43-.43z" fill="#FAFAFA"/><path d="M402 227.1s-4.12 5-89.63 4.8c-28.2-.05-68.58-.05-110.06-.03-41.96-.02-82.43-.02-110.67.04-85.5.2-89.63-4.8-89.63-4.8h400z" fill="#D1D2D3"/><path d="M2.83 226.07l.2-.06c.4-.15.68-.54.68-1v2.32l-.98-1.4.3.1.24.06.45.13c.44.12.95.25 1.53.38 2.34.53 5.4 1.06 9.26 1.56 9.38 1.2 21.88 2.02 37.9 2.24 15.87-.03 66.13-.03 140-.03h80.02c16.58.02 32.37.02 46.83.02h18.42c3.3.02 7.46 0 12.38-.1 7.6-.13 15.1-.4 22.12-.8 11.85-.68 21.2-1.73 27.08-3.2l.95-.24.3-.08.76-.23-1.06 1.43v-1.95c0 .3.12.55.3.75.1.1.25.2.4.26.12.06.25.08.38.08l-398.65-.2h.2zm398.46-2.8c1.04 0 1.9.87 1.9 1.93v3.06l-1.05.33c-5.92 1.83-16.25 3.1-29.8 3.87-7.07.4-14.62.67-22.24.8-4.94.1-9.12.12-12.12.1h-65.55c-27.64 0-54.66 0-80.02-.02-73.87 0-124.13 0-140.03.03-16.14-.22-28.75-1.04-38.26-2.26-3.95-.5-7.1-1.06-9.53-1.6-1.5-.35-2.42-.62-2.88-.8l-1-.35V225c0-1.05.87-1.9 1.93-1.9l398.66.18z" fill="#D1D2D3"/><path d="M2 225.2c0-.34.27-.6.6-.6h398.8c.33 0 .6.26.6.6v1.9H2v-1.9z" fill="#FAFAFA"/><path d="M164 224.6h76v2.5s-9.57.82-37.85.82-38.15-.83-38.15-.83v-2.5z" fill="#DEDEDE"/></g><g filter="url(#b)"><path fill="#fff" d="M127 52.6h195v128.8H127z"/><path fill="#F8F8F8" d="M82 52.36h45v129.27H82z"/><path d="M82 181.4h240v4.48c0 1.1-.9 2-2 2H84c-1.1 0-2-.9-2-2v-4.48zM84 38h236c1.1 0 2 .9 2 2v12.6H82V40c0-1.1.9-2 2-2z" fill-opacity=".9" fill="url(#c)"/><g transform="translate(85.012 40.78)"><circle fill="#FF5858" cx="1.62" cy="1.62" r="1.62"/><circle fill="#FFCE55" cx="6.72" cy="1.62" r="1.62"/><circle fill="#58D65B" cx="11.81" cy="1.62" r="1.62"/></g><g transform="translate(271.035 44.718)"><use fill="#000" filter="url(#d)" xlink:href="#e"/><use fill="#fff" xlink:href="#e"/></g></g><g><path d="M242 114c0 22.1-17.9 40-40 40s-40-17.9-40-40 17.9-40 40-40 40 17.9 40 40" fill="#00A1DE"/><g fill="#fff"><path d="M177.3 134.37c-.1.04-.73.17-1.3.17-1.26 0-1.97-.67-1.97-2 0-1.5.8-3.02 2.75-3.02.34 0 .95.06 1.25.17l-.12.6c-.13-.05-.53-.18-1.06-.18-1.48 0-2.13 1.08-2.13 2.3 0 1.1.54 1.52 1.48 1.52.43 0 .92-.08 1.2-.17l-.08.6zM179.7 134.4c-.16.07-.37.14-.67.14-.47 0-.8-.2-.8-.67l.02-.2.67-4.24h.65l-.66 4.13v.1c0 .24.1.32.4.32.15 0 .32-.05.46-.1l-.05.53zM181.84 133.98c.83 0 1.4-.68 1.4-1.66 0-.73-.38-1-.9-1-.8 0-1.4.62-1.4 1.66 0 .54.18 1 .9 1m-1.55-.94c0-1.25.8-2.27 2.05-2.27.98 0 1.53.53 1.53 1.5 0 1.28-.8 2.27-2.1 2.27-.93 0-1.5-.5-1.5-1.5M187.38 134.47h-.53l.1-1.1c-.44.7-1.02 1.17-1.7 1.17-.58 0-.86-.4-.86-.98l.02-.35.38-2.37h.64l-.36 2.27-.03.32c0 .3.1.55.4.55.5 0 1.17-.72 1.6-1.53l.26-1.6h.66l-.58 3.63zM191.1 132.45l.17-1.03c-.17-.08-.5-.12-.74-.12-1.15 0-1.46 1.02-1.46 1.73 0 .54.18.94.5.94.47 0 1.15-.83 1.54-1.52m-2.68.65c0-1 .52-2.34 2.12-2.34.3 0 .62.05.83.1l.06-.48.15-.95h.65l-.8 5.04h-.54l.12-1.1c-.38.62-.95 1.17-1.57 1.17-.7 0-1.03-.62-1.03-1.44M193.86 133.68c.07.06.77.26 1.48.26.82 0 1.38-.33 1.38-.85 0-1.1-2.5-.58-2.5-2.1 0-.94.83-1.48 2.08-1.48.72 0 1.3.2 1.42.24l-.13.6c-.28-.14-.9-.25-1.37-.25-.72.02-1.34.3-1.34.8 0 1 2.5.5 2.5 2.1 0 1.02-.86 1.54-2.14 1.54-.82 0-1.53-.22-1.53-.22l.13-.64zM200.72 132.45l.16-1.03c-.17-.08-.5-.12-.74-.12-1.15 0-1.46 1.02-1.46 1.73 0 .54.18.94.5.94.47 0 1.15-.83 1.54-1.52m-2.7.65c0-1 .55-2.34 2.16-2.34.65 0 1.15.13 1.4.2l-.54 3.5h-.54l.13-1.1c-.38.63-.95 1.18-1.57 1.18-.7 0-1.03-.62-1.03-1.44M202.6 130.83h.53l-.12 1.1c.46-.7 1.04-1.17 1.7-1.17.6 0 .88.4.88.98l-.03.35-.37 2.37h-.65l.36-2.26.02-.32c0-.3-.1-.54-.4-.54-.5 0-1.17.7-1.6 1.52l-.26 1.6H202l.6-3.63zM208.9 132.45l.16-1.03c-.17-.08-.5-.12-.74-.12-1.14 0-1.45 1.02-1.45 1.73 0 .54.18.94.5.94.46 0 1.15-.83 1.53-1.52m-2.7.65c0-1 .53-2.34 2.14-2.34.3 0 .6.05.82.1l.06-.48.15-.95h.65l-.8 5.04h-.54l.13-1.1c-.37.62-.94 1.17-1.56 1.17-.68 0-1.03-.62-1.03-1.44M211.1 132.85l-.16 1.03c.16.08.5.13.73.13 1.15 0 1.46-1.02 1.46-1.73 0-.53-.18-.93-.5-.93-.47 0-1.15.82-1.54 1.5m2.68-.64c0 1-.54 2.34-2.15 2.34-.65 0-1.15-.13-1.4-.2l.77-4.9h.64l-.3 1.9-.1.5c.37-.58.93-1.08 1.52-1.08.7 0 1.03.62 1.03 1.44M215.83 133.98c.83 0 1.38-.68 1.38-1.66.02-.73-.36-1-.88-1-.8 0-1.38.62-1.4 1.66 0 .54.18 1 .9 1m-1.54-.94c0-1.25.8-2.27 2.06-2.27.98 0 1.52.53 1.52 1.5 0 1.28-.8 2.27-2.1 2.27-.92 0-1.48-.5-1.48-1.5M220.46 134.47l-.7-1.33-1.17 1.33h-.74l1.6-1.82-1-1.82h.73l.72 1.35 1.17-1.35h.7l-1.6 1.82 1 1.82z"/></g><g fill="#F39A1E"><path d="M223.12 129.6v3.2l.08.06h6.1c.04 0 .08-.03.08-.07v-3.2l-.08-.08h-6.1c-.04 0-.08.03-.08.08zm-.32 0c0-.22.18-.4.4-.4h6.1c.22 0 .4.18.4.4v3.2c0 .2-.18.38-.4.38h-6.1c-.22 0-.4-.18-.4-.4v-3.18z"/><path d="M225.06 132.35v-.37H224v-1.9h-.4v2.27h1.46zm.68 0v-1.7h-.4v1.7h.4zm.03-2.14c0-.1-.06-.2-.22-.2-.17 0-.23.1-.23.2 0 .13.06.22.23.22.16 0 .22-.1.22-.2zm1.36 1.77c-.07.04-.16.07-.25.07-.13 0-.25-.03-.25-.2v-.87h.47l.02-.3h-.5v-.4h-.32l-.05.4h-.22v.3h.22v.9c0 .4.23.5.5.5.14 0 .27-.02.4-.06l-.02-.33zm1.73 0v.3c-.15.06-.4.1-.64.1-.58 0-.85-.3-.85-.85 0-.56.28-.9.8-.9.53 0 .73.33.73.72l-.03.26h-1.1c0 .33.18.46.5.46.26 0 .5-.07.6-.1zm-.35-.62v-.04c0-.23-.1-.37-.33-.37s-.4.14-.4.42h.74z"/></g><g><path d="M185.2 125.2c-6.2 0-11.2-5-11.2-11.2 0-4.8 3-8.88 7.24-10.48-.03-.24-.04-.48-.04-.72 0-3.54 2.87-6.4 6.4-6.4 2.6 0 4.84 1.55 5.84 3.77 1.23-6.7 7.1-11.77 14.16-11.77 7.95 0 14.4 6.45 14.4 14.4v.46c4.62 1.38 8 5.66 8 10.74 0 6.2-5 11.2-11.2 11.2h-33.6z" fill="#fff"/><g fill="#F39A1E"><path d="M217.4 113.8h1.32v-4.68h-1.3zM220.6 111.46l1.36-2.34h-1.32l-1.34 2.33 1.34 2.34h1.32zM206.13 109.12h-1.05l-2.7 4.67h1.33l1.93-3.34v3.33h1.33v-4.68h-.72zM191.75 111.84h2.07l.45-.76h-2.1z"/><path d="M191.33 110.9c0-.6.18-.82.75-.82h1.87l.56-.97h-2.6c-1.13 0-1.87.4-1.87 1.82v2.88h4.04l.56-.97h-3.3v-1.94zM214 111.84h2.08l.44-.76h-2.1z"/><path d="M213.63 110.9c0-.6.18-.82.75-.82h1.87l.56-.97h-2.6c-1.13 0-1.87.4-1.87 1.82v2.88h4.03l.56-.97h-3.3v-1.94zM207.53 110.1h1.64v3.7h1.28v-3.7h1.2l.57-.98h-4.13zM197.33 112.83h-.7v-2.75h.7c1.04 0 1.36.18 1.36 1.34s-.33 1.4-1.37 1.4m.28-3.7h-2.24v4.68h2.3c1.63 0 2.36-.63 2.36-2.38 0-1.66-.72-2.3-2.4-2.3M200.76 113.8h1.3v-4.68h-1.3zM186.38 111.5v-2.38h-1.56l-2.7 4.66h1.3l1.65-2.86v2.86h1.3l1.63-2.86v2.87h1.3v-4.68h-1.55z"/></g><g fill="url(#f)" opacity=".1"><path d="M217.4 119.08h1.32v-4.67h-1.3zM220.6 116.74l1.36 2.34h-1.32l-1.34-2.33 1.34-2.34h1.32zM206.13 119.08h-1.05l-2.7-4.67h1.33l1.93 3.34v-3.33h1.33v4.68h-.72zM191.75 116.36h2.07l.45.77h-2.1z"/><path d="M191.33 117.3c0 .6.18.82.75.82h1.87l.56.97h-2.6c-1.13 0-1.87-.4-1.87-1.82v-2.87h4.04l.56.97h-3.3v1.94zM214 116.36h2.08l.44.77h-2.1z"/><path d="M213.63 117.3c0 .6.18.82.75.82h1.87l.56.97h-2.6c-1.13 0-1.87-.4-1.87-1.82v-2.87h4.04l.56.97h-3.3v1.94zM207.53 118.1h1.64v-3.7h1.28v3.7h1.2l.57.98h-4.13zM198.7 116.78c0 1.16-.33 1.35-1.37 1.35h-.7v-2.76h.7c1.04 0 1.36.25 1.36 1.4m1.32 0c0-1.74-.73-2.36-2.35-2.36h-2.3v4.7h2.24c1.7 0 2.42-.66 2.42-2.32M200.76 119.08h1.3v-4.67h-1.3zM186.38 116.7v2.38h-1.56l-2.7-4.66h1.3l1.65 2.86v-2.86h1.3l1.63 2.86v-2.87h1.3v4.68h-1.55z"/></g></g><g><path d="M263.28 146.77l-8.25-8.25c-.25-.25-.6-.4-.95-.4l-.17.02c-.4.06-.77.3-.97.66l-2.78 4.8-7.92-19.87 19.87 7.92-4.8 2.78c-.36.2-.6.57-.66.98-.05.42.1.84.38 1.13l8.25 8.25-2 2z" fill="#fff"/><path d="M268.1 143.83l-7.95-7.96 5.68-3.28c.44-.26.7-.75.66-1.26-.05-.5-.37-.96-.85-1.15l-25.32-10.1c-.5-.2-1.07-.1-1.44.3-.4.36-.5.93-.3 1.43l10.1 25.32c.18.48.62.8 1.14.84.5.03 1-.23 1.25-.67l3.27-5.68 7.96 7.96c.25.26.6.4.95.4s.7-.14.94-.4l3.9-3.88c.5-.52.5-1.36 0-1.9zm-4.82 2.94l-8.25-8.25c-.25-.25-.6-.4-.95-.4l-.17.02c-.4.06-.77.3-.97.66l-2.78 4.8-7.92-19.87 19.87 7.92-4.8 2.78c-.36.2-.6.57-.66.98-.05.42.1.84.38 1.13l8.25 8.25-2 2zm-28.9-32.8c-.53-.5-1.38-.5-1.9 0-.52.53-.52 1.38 0 1.9l2.97 2.97c.27.26.6.4.95.4.34 0 .68-.14.95-.4.52-.52.52-1.37 0-1.9l-2.98-2.96zm1 9.26c0-.74-.6-1.34-1.34-1.34h-4.2c-.74 0-1.34.6-1.34 1.33 0 .74.6 1.34 1.34 1.34h4.2c.74 0 1.34-.6 1.34-1.34zm-.54 4.13l-2.98 2.97c-.52.52-.52 1.37 0 1.9.27.25.6.38.95.38s.7-.12.96-.38l2.97-2.97c.52-.52.52-1.37 0-1.9-.52-.5-1.37-.5-1.9 0zm6.9-10.48c.73 0 1.33-.6 1.33-1.34v-4.2c0-.74-.6-1.34-1.34-1.34-.74 0-1.34.6-1.34 1.34v4.2c0 .74.6 1.34 1.33 1.34zm5.06 1.74c.34 0 .7-.13.95-.4l2.97-2.96c.52-.53.52-1.37 0-1.9-.52-.52-1.37-.52-1.9 0l-2.96 2.98c-.53.52-.53 1.37 0 1.9.26.25.6.38.94.38z" fill="#40494D"/></g></g></g></svg>