<?xml version="1.0" encoding="UTF-8"?>
<svg width="83px" height="110px" viewBox="0 0 83 110" version="1.1" xmlns="http://www.w3.org/2000/svg" xmlns:xlink="http://www.w3.org/1999/xlink">
  <!-- Generator: Sketch 43.2 (39069) - http://www.bohemiancoding.com/sketch -->
  <title>img_setup</title>
  <desc>Created with Sketch.</desc>
  <defs></defs>
  <g>
      <g id="Group-26" transform="translate(0.000000, 14.000000)">
        <path
          d="M42.4856498,30.6712929 C41.6979586,30.3562164 40.3018406,30.3562967 39.5143502,30.6712929 L11.1925824,42 L70.8074176,42 L42.4856498,30.6712929 Z M38.7715689,28.8143395 C40.0358431,28.3086298 41.9638796,28.3085189 43.2284311,28.8143395 L81.1925824,44 L0.807417596,44 L38.7715689,28.8143395 Z"
          id="Triangle-4"
          fill="#00A1DE"
          fill-rule="nonzero"></path>
        <g id="Group-40" transform="translate(33.000000, 0.000000)">
          <path
            d="M10,22 C10,23.1045695 9.1045695,24 8,24 C6.34314575,24 5,25.3431458 5,27 C5,28.6568542 6.34314575,30 8,30 C9.42771368,30 10.6505753,28.9939186 10.9371105,27.6159815 C11.1619897,26.5345458 12.2209672,25.8401696 13.3024029,26.0650488 C14.3838386,26.289928 15.0782147,27.3489055 14.8533355,28.4303412 C14.1828206,31.6548218 11.3323272,34 8,34 C4.13400675,34 1,30.8659932 1,27 C1,23.8289794 3.10851105,21.1504279 6,20.2898787 L6,1 L10,1 L10,21.9999999 L10,22 Z"
            id="Combined-Shape"
            fill="#E6F5FB"
            fill-rule="nonzero"></path>
          <path
            d="M7,21.0356118 L6.28524964,21.2483319 C3.76304051,21.9989781 2,24.3275403 2,27 C2,30.3137085 4.6862915,33 8,33 C10.8455773,33 13.2975873,31.000041 13.8742793,28.2267513 C13.9867189,27.6860334 13.6395308,27.1565447 13.098813,27.0441051 C12.5580951,26.9316655 12.0286064,27.2788536 11.9161668,27.8195714 C11.5320503,29.6667732 9.89605527,31 8,31 C5.790861,31 4,29.209139 4,27 C4,24.790861 5.790861,23 8,23 C8.55228475,23 9,22.5522847 9,22 L9,2 L7,2 L7,21.0356118 Z M5,0 L11,0 L11,21.9999999 C11,23.6568542 9.65685425,25 8,25 C6.8954305,25 6,25.8954305 6,27 C6,28.1045695 6.8954305,29 8,29 C8.94767702,29 9.76671404,28.3325394 9.95805427,27.4123915 C10.2953731,25.790238 11.8838393,24.7486737 13.5059928,25.0859926 C15.1281463,25.4233114 16.1697106,27.0117776 15.8323918,28.6339311 C15.0629955,32.3339284 11.7943113,35 8,35 C3.581722,35 0,31.418278 0,27 C0,23.6948472 2.02193162,20.7849177 5,19.5815275 L5,0 Z"
            id="Combined-Shape"
            fill="#00A1DE"
            fill-rule="nonzero"></path>
          <g id="Group-4" transform="translate(2.000000, 13.000000)">
            <rect id="Rectangle-31" fill="#97D9F2" x="1" y="1" width="10" height="4" rx="1"></rect>
            <path
              d="M1.99539757,2 C2.00606877,2 2,2.0061115 2,2.0093689 L2,3.9906311 C2,3.9968369 1.99922566,3.99919906 1.99827015,4 L10.0046024,4 C9.99393123,4 10,3.9938885 10,3.9906311 L10,2.0093689 C10,2.0031631 10.0007743,2.00080094 10.0017298,2 L1.99539757,2 Z M0,2.0093689 C0,0.904671031 0.898345869,0 1.99539757,0 L10.0046024,0 C11.1113751,0 12,0.895821093 12,2.0093689 L12,3.9906311 C12,5.09532897 11.1016541,6 10.0046024,6 L1.99539757,6 C0.88862489,6 0,5.10417891 0,3.9906311 L0,2.0093689 Z"
              id="Rectangle-31"
              fill="#00A1DE"
              fill-rule="nonzero"></path>
          </g>
          <g id="Group-4" transform="translate(2.000000, 0.000000)">
            <rect id="Rectangle-31" fill="#97D9F2" x="1" y="1" width="10" height="4" rx="1"></rect>
            <path
              d="M1.99539757,2 C2.00606877,2 2,2.0061115 2,2.0093689 L2,3.9906311 C2,3.9968369 1.99922566,3.99919906 1.99827015,4 L10.0046024,4 C9.99393123,4 10,3.9938885 10,3.9906311 L10,2.0093689 C10,2.0031631 10.0007743,2.00080094 10.0017298,2 L1.99539757,2 Z M0,2.0093689 C0,0.904671031 0.898345869,0 1.99539757,0 L10.0046024,0 C11.1113751,0 12,0.895821093 12,2.0093689 L12,3.9906311 C12,5.09532897 11.1016541,6 10.0046024,6 L1.99539757,6 C0.88862489,6 0,5.10417891 0,3.9906311 L0,2.0093689 Z"
              id="Rectangle-31"
              fill="#00A1DE"
              fill-rule="nonzero"></path>
          </g>
        </g>
        <path
          d="M41.0000136,30.4350156 C41.5728494,30.4350078 42.1147659,30.5229393 42.4856498,30.6712929 L75.6286093,43.9284767 C76.1413928,44.1335901 76.7233633,43.8841742 76.9284767,43.3713907 C77.1335901,42.8586072 76.8841742,42.2766367 76.3713907,42.0715233 L43.2284311,28.8143395 C42.6003175,28.5630941 41.8109097,28.4350046 40.9999864,28.4350156 C40.4477016,28.4350232 39.9999925,28.8827445 40,29.4350293 C40.0000075,29.987314 40.4477289,30.4350232 41.0000136,30.4350156 Z"
          id="Combined-Shape"
          fill="#00A1DE"
          fill-rule="nonzero"></path>
      </g>
      <g id="screen" transform="translate(0.000000, 53.000000)">
        <rect id="Rectangle-25" fill="#FFFFFF" x="1" y="1" width="80" height="53.3333333" rx="2"></rect>
        <path
          d="M74,1 L79.0025017,1 C80.1056896,1 81,1.903322 81,2.99339161 L81,52.3399417 C81,53.4408615 80.1015625,54.3333333 79.0025017,54.3333333 L2.99749826,54.3333333 C1.89431043,54.3333333 1,53.4300113 1,52.3399417 L1,47.3333333 L72.0025017,47.3333333 C73.1015625,47.3333333 74,46.4408615 74,45.3399417 L74,1 Z"
          id="Combined-Shape"
          fill="#E6F5FB"></path>
        <path d="M1,3.00021982 C1,1.89552892 1.8984375,1 2.99749826,1 L79.0025017,1 C80.1056896,1 81,1.89909633 81,3.00021982 L81,7.66666667 L1,7.66666667 L1,3.00021982 Z" id="Rectangle-25" fill="#97D9F2"></path>
        <path
          d="M5,5.66666667 C4.26362033,5.66666667 3.66666667,5.069713 3.66666667,4.33333333 C3.66666667,3.59695367 4.26362033,3 5,3 C5.73637967,3 6.33333333,3.59695367 6.33333333,4.33333333 C6.33333333,5.069713 5.73637967,5.66666667 5,5.66666667 Z M10.3333333,5.66666667 C9.59695367,5.66666667 9,5.069713 9,4.33333333 C9,3.59695367 9.59695367,3 10.3333333,3 C11.069713,3 11.6666667,3.59695367 11.6666667,4.33333333 C11.6666667,5.069713 11.069713,5.66666667 10.3333333,5.66666667 Z M15.6666667,5.66666667 C14.930287,5.66666667 14.3333333,5.069713 14.3333333,4.33333333 C14.3333333,3.59695367 14.930287,3 15.6666667,3 C16.4030463,3 17,3.59695367 17,4.33333333 C17,5.069713 16.4030463,5.66666667 15.6666667,5.66666667 Z"
          id="Combined-Shape"
          fill="#CBECF9"></path>
        <path
          d="M50.195019,18.8070442 C50.5856607,19.197451 50.5858512,19.830616 50.1954444,20.2212577 C49.8050376,20.6118994 49.1718726,20.6120899 48.7812309,20.2216831 C47.6755449,19.116662 46.3713601,18.2699673 44.939299,17.7221663 C44.4234663,17.5248467 44.1652603,16.9467225 44.3625799,16.4308898 C44.5598995,15.915057 45.1380237,15.6568511 45.6538564,15.8541707 C47.3486227,16.5024633 48.8909613,17.5037708 50.195019,18.8070442 Z M40.3181602,15.0174786 C38.4803661,15.1119119 36.7030715,15.5879315 35.083396,16.416558 C34.59172,16.6680996 34.3970526,17.2705965 34.6485942,17.7622725 C34.9001358,18.2539485 35.5026327,18.4486158 35.9943087,18.1970743 C37.3626087,17.4970515 38.8644174,17.0948164 40.4207929,17.0148434 C40.97235,16.9865022 41.3965002,16.5164017 41.368159,15.9648446 C41.3398177,15.4132875 40.8697173,14.9891373 40.3181602,15.0174786 Z M30.8901569,19.8211683 C29.7316368,21.2501282 28.9014809,22.8944209 28.4354652,24.6529691 C28.2939928,25.1868267 28.6120839,25.7342899 29.1459416,25.8757623 C29.6797992,26.0172347 30.2272624,25.6991436 30.3687348,25.165286 C30.7628304,23.6781342 31.464261,22.2888081 32.4437195,21.0807092 C32.7915321,20.6517047 32.7257131,20.0219701 32.2967086,19.6741574 C31.8677042,19.3263448 31.2379695,19.3921638 30.8901569,19.8211683 Z M28.168339,30.0935601 C28.4598368,31.8928863 29.1247415,33.6131472 30.132546,35.1437772 C30.4362614,35.605053 31.0564093,35.732781 31.5176852,35.4290656 C31.978961,35.1253502 32.106689,34.5052023 31.8029736,34.0439265 C30.9513264,32.7504645 30.3892564,31.2962607 30.1425993,29.7737224 C30.0542786,29.2285454 29.5407272,28.8581903 28.9955503,28.9465111 C28.4503734,29.0348319 28.0800183,29.5483832 28.168339,30.0935601 Z M33.9337265,38.9182447 C35.4668373,39.9136598 37.1872881,40.5691524 38.9991347,40.8475915 C39.5450111,40.9314801 40.0555367,40.556965 40.1394253,40.0110885 C40.2233139,39.465212 39.8487988,38.9546865 39.3029223,38.8707979 C37.7709986,38.6353765 36.3182524,38.0818794 35.0228517,37.2408043 C34.5596394,36.9400507 33.9403226,37.0717495 33.6395689,37.5349619 C33.3388153,37.9981743 33.4705142,38.6174911 33.9337265,38.9182447 Z M44.3949287,40.554946 C46.1564245,40.0819786 47.7942544,39.241784 49.2164474,38.0795361 C49.6440932,37.7300543 49.7074577,37.100068 49.3579759,36.6724221 C49.0084942,36.2447763 48.3785078,36.1814118 47.950862,36.5308935 C46.7476279,37.5142034 45.3643539,38.2238127 43.8762922,38.6233621 C43.3429,38.7665796 43.026601,39.3150801 43.1698185,39.8484723 C43.313036,40.3818644 43.8615365,40.6981635 44.3949287,40.554946 Z M52.6080475,33.8665422 C53.431422,32.2358203 53.8979612,30.4497659 53.9850571,28.6277543 C54.0114273,28.0760994 53.5856,27.6075176 53.0339451,27.5811473 C52.4822903,27.5547771 52.0137084,27.9806044 51.9873382,28.5322592 C51.913585,30.0751475 51.5188108,31.5864637 50.8227162,32.9651031 C50.5737907,33.4581088 50.7716567,34.0595628 51.2646623,34.3084883 C51.757668,34.5574138 52.359122,34.3595478 52.6080475,33.8665422 Z M53.1073408,23.2548722 C53.308388,23.7692636 53.0543723,24.3492411 52.5399809,24.5502883 C52.0255895,24.7513354 51.445612,24.4973197 51.2445649,23.9829283 C50.6975495,22.5833562 49.8666336,21.3067065 48.7811418,20.221594 C48.3905492,19.831138 48.3904385,19.197973 48.7808946,18.8073805 C49.1713506,18.4167879 49.8045156,18.4166772 50.1951081,18.8071333 C51.4770347,20.0886118 52.4602589,21.5992737 53.1073408,23.2548722 Z M39.255527,31.5272472 C39.2683796,31.5175946 39.2744967,31.5129846 39.2857133,31.5055107 C39.2718005,31.5137893 39.2657285,31.5188107 39.255527,31.5272472 Z M40.0305576,31.5047312 C40.0406365,31.5114829 40.046539,31.5158992 40.0571109,31.5238092 C40.0493758,31.5172387 40.0437081,31.5125455 40.0305576,31.5047312 Z M40.2276062,31.761001 L40.2295522,31.7644009 C40.2191793,31.7443036 40.2130781,31.7324825 40.2001373,31.714172 C40.2092321,31.7279733 40.216777,31.7415354 40.2276062,31.761001 Z M40.2001373,31.714172 C40.1902281,31.7001508 40.1763085,31.6823245 40.1533897,31.6540632 C40.176465,31.6812022 40.1893844,31.6978543 40.2001373,31.714172 Z M38.9218354,30.626023 L45.1284664,23.862523 L46.6020413,25.2147719 L39.6586198,32.7811684 L38.9218326,31.9782689 L36.2094391,29.0224872 C36.4245829,29.2558515 36.7953008,29.2684663 37.0274768,29.0467555 C37.2472443,28.8365834 37.2585149,28.4925361 37.0529625,28.2685036 L40.0820991,31.5693782 C40.0300503,31.5233435 39.9990277,31.4959272 39.9745723,31.4745619 C39.9257123,31.4323026 39.9091033,31.4187088 39.8959614,31.409146 C39.9115754,31.4197484 39.9300607,31.4342931 39.9618021,31.4608049 C39.998546,31.4917458 40.0153678,31.5060428 40.0350589,31.5228113 C40.0598445,31.5439282 40.0650597,31.5483731 40.0704497,31.552967 C40.106989,31.597342 40.1335583,31.629609 40.1533897,31.6540632 C40.1342365,31.6315371 40.1080864,31.6017861 40.0703706,31.5590046 C40.0476149,31.5344164 40.0412087,31.5284361 40.0350589,31.5228113 C40.015964,31.5053469 39.9993404,31.4913109 39.9842156,31.4795753 C39.94103,31.4487054 39.924226,31.4389404 39.9067521,31.429422 C39.9211318,31.437227 39.9215723,31.437466 39.951355,31.4543997 C39.9843307,31.47504 39.9998249,31.4848389 40.0112087,31.4921284 C39.9810164,31.4779074 39.9778755,31.4762747 39.9745723,31.4745619 C39.9519794,31.4628467 39.9217944,31.4473832 39.8806525,31.4263067 C39.8154956,31.3992303 39.7403628,31.3833747 39.6586228,31.3833747 C39.5771075,31.3833747 39.5021788,31.3991522 39.4359962,31.4266552 C39.3919782,31.4492643 39.3604393,31.4654638 39.3372673,31.4775456 C39.3229609,31.4850049 39.311844,31.4908947 39.3029486,31.4957542 C39.3202302,31.4832893 39.3401342,31.4707795 39.3704283,31.4517394 C39.3941168,31.4383783 39.3941168,31.4383783 39.4075914,31.4310551 C39.3885661,31.4413933 39.3673516,31.453945 39.3372673,31.4775456 C39.3135658,31.4961391 39.2843589,31.5215905 39.2448735,31.5590393 C39.1131747,31.7162715 39.1131747,31.7162715 39.0877703,31.7643736 C39.1139697,31.712042 39.1139697,31.712042 39.2470366,31.552967 C39.4172047,31.4086636 39.4186019,31.4079439 39.4635614,31.384785 C39.4234767,31.4050049 39.4234767,31.4050049 39.2363572,31.5683196 L45.7568291,24.4628873 C45.5515797,24.6868406 45.5627391,25.0309532 45.7837536,25.2420048 C46.0152057,25.4626966 46.3846837,25.4502373 46.6000404,25.2169459 L45.1304673,23.8603491 C45.6717953,23.2739397 46.5856138,23.2431246 47.1644556,23.7950558 C47.7318375,24.3368623 47.7610022,25.2361864 47.2308349,25.8146663 L40.6872144,32.9445189 C40.6778982,32.9524199 40.6690922,32.9598882 40.6607608,32.9669514 C40.6537892,32.9750802 40.6464635,32.9836193 40.6387621,32.9925963 C40.5527963,33.0736637 40.4909333,33.116402 40.4057926,33.1644669 C40.3759574,33.1852564 40.3408945,33.2032191 40.2043156,33.2731882 C40.0326996,33.3445042 39.8480996,33.3833747 39.6586228,33.3833747 C39.4690352,33.3833747 39.2847265,33.3444792 39.1123331,33.2728398 C38.9750603,33.2025631 38.9415435,33.1854042 38.9119303,33.1646577 C38.8250734,33.1156158 38.7622951,33.0721709 38.6736792,32.9878056 C38.6636353,32.9763994 38.6543085,32.9658075 38.6456334,32.9559463 C38.6681329,32.9751151 38.687427,32.9915508 38.7041128,33.0057166 C38.6857984,32.9896683 38.664314,32.970719 38.6388167,32.9481954 C38.6275654,32.9382558 38.6178416,32.9296619 38.6075616,32.9205767 L35.5793871,29.6207519 C35.0489024,29.042783 35.0783002,28.1434587 35.6457045,27.6008286 C36.2242679,27.0483446 37.1383597,27.0794492 37.6814558,27.6685442 L40.395413,30.626026 L38.9218354,30.626023 Z"
          id="Combined-Shape"
          fill="#97D9F2"
          fill-rule="nonzero"></path>
        <path
          d="M2,2.99339161 L2,52.3399417 C2,52.8818529 2.45071591,53.3333333 2.99749826,53.3333333 L79.0025017,53.3333333 C79.5514816,53.3333333 80,52.8863749 80,52.3399417 L80,2.99339161 C80,2.45148039 79.5492841,2 79.0025017,2 L2.99749826,2 C2.44851843,2 2,2.44695844 2,2.99339161 Z M0,2.99339161 C0,1.34082604 1.34550582,0 2.99749826,0 L79.0025017,0 C80.654613,0 82,1.34766892 82,2.99339161 L82,52.3399417 C82,53.9925073 80.6544942,55.3333333 79.0025017,55.3333333 L2.99749826,55.3333333 C1.34538695,55.3333333 0,53.9856644 0,52.3399417 L0,2.99339161 Z M80,3.00021982 C80,2.44956942 79.5515947,2 79.0025017,2 L2.99749826,2 C2.44928242,2 2,2.44925341 2,3.00021982 L2,6.66666667 L80,6.66666667 L80,3.00021982 Z M0,3.00021982 C0,1.34465499 1.34474183,0 2.99749826,0 L79.0025017,0 C80.6573267,0 82,1.34615907 82,3.00021982 L82,8.66666667 L0,8.66666667 L0,3.00021982 Z"
          id="Combined-Shape"
          fill="#00A1DE"
          fill-rule="nonzero"></path>
      </g>
  </g>

</svg>