<?xml version="1.0" encoding="UTF-8"?>
<svg width="58px" height="70px" viewBox="0 0 58 70" version="1.1" xmlns="http://www.w3.org/2000/svg" xmlns:xlink="http://www.w3.org/1999/xlink">
  <g id="code2">
    <path
      d="M37.8979592,1 L3.00999791,1 C1.89990672,1 1,1.89870751 1,2.99196224 L1,66.1753847 C1,67.2755151 1.89178564,68.1673469 3.00252455,68.1673469 L54.3444142,68.1673469 C55.450378,68.1673469 56.3469388,67.2777818 56.3469388,66.1613389 L56.3469388,19.3183673 L37.8979592,1 Z"
      id="Combined-Shape"
      fill="#E6F5FB"></path>
    <path
      d="M48.9136897,11.9377431 L56.3469388,19.3183673 L56.3469388,66.1613389 C56.3469388,67.2777818 55.450378,68.1673469 54.3444142,68.1673469 L3.00252455,68.1673469 C1.89178564,68.1673469 1,67.2755151 1,66.1753847 L1,62.0612245 L46.6573394,62.0612245 C47.7633032,62.0612245 48.664415,61.162517 48.6699513,60.0692623 L48.9136897,11.9377431 L48.9136897,11.9377431 Z"
      id="Combined-Shape"
      fill="#CBECF9"></path>
    <path d="M56.3469388,19.3183673 L39.9074434,19.3183673 C38.7976359,19.3183673 37.8979592,18.4224339 37.8979592,17.3231096 L37.8979592,1" id="Rectangle-21" fill="#97D9F2"></path>
    <path
      d="M21.3985239,33.2434869 L13.6401334,36.005106 L21.3985239,38.7473453 L21.3985239,41.1601283 L11.0832802,37.1388233 L11.0832802,34.8520089 L21.3985239,30.821014 L21.3985239,33.2434869 Z M31.0306388,27.7493184 L33.1873738,27.7493184 L25.5168141,44.0574059 L23.3600792,44.0574059 L31.0306388,27.7493184 Z M35.1489291,33.2434869 L35.1489291,30.821014 L45.4641728,34.8520089 L45.4641728,37.1388233 L35.1489291,41.1601283 L35.1489291,38.7473453 L42.9073196,36.005106 L35.1489291,33.2434869 Z"
      id="&lt;/&gt;"
      fill="#97D9F2"></path>
    <path
      d="M38.3100933,0 L57.3469388,18.9020713 L57.3469388,66.1613389 C57.3469388,67.8273834 56.0053499,69.1673469 54.3444142,69.1673469 L3.00252455,69.1673469 C1.34196328,69.1673469 0,67.8302595 0,66.1753847 L0,2.99196224 C0,1.34255804 1.3514916,0 3.00999791,0 L38.3100933,0 Z M3.00999791,2 C2.45310274,2 2,2.45010767 2,2.99196224 L2,66.1753847 C2,66.7240571 2.44490639,67.1673469 3.00252455,67.1673469 L54.3444142,67.1673469 C54.9013228,67.1673469 55.3469388,66.7222708 55.3469388,66.1613389 L55.3469388,19.7346634 L37.485825,2 L3.00999791,2 Z M56.3469388,18.3183673 L56.3469388,20.3183673 L39.9074434,20.3183673 C38.247646,20.3183673 36.8979592,18.9770174 36.8979592,17.3231096 L36.8979592,1 L38.8979592,1 L38.8979592,17.3231096 C38.8979592,17.8696644 39.349451,18.3183673 39.9074434,18.3183673 L56.3469388,18.3183673 Z"
      id="Combined-Shape"
      fill="#00A1DE"
      fill-rule="nonzero"></path>
  </g>
</svg>
