<?xml version="1.0" encoding="UTF-8"?>
<svg width="167px" height="20px" viewBox="0 0 167 20" version="1.1" xmlns="http://www.w3.org/2000/svg" xmlns:xlink="http://www.w3.org/1999/xlink">
  <!-- Generator: Sketch 43.2 (39069) - http://www.bohemiancoding.com/sketch -->
  <title>img_setup</title>
  <desc>Created with Sketch.</desc>
  <defs></defs>
  <g>
    <path
      d="M7.13310526,8.45802106 C7.88802038,7.65277826 9.38575447,7 10.4913819,7 L164.008618,7 C165.108428,7 166,7.88670635 166,8.99810135 L166,13.0018986 C166,14.1054196 165.112255,15 164.002775,15 L2.9972248,15 C1.894188,15 1.61375648,14.3453264 2.36689474,13.5419789 L7.13310526,8.45802106 Z"
      id="Rectangle-29"
      fill="#CBECF9"></path>
    <path
      d="M164.002775,14 C164.557147,14 165,13.5559627 165,13.0018986 L165,8.99810135 C165,8.44156675 164.558717,8 164.008618,8 L10.4913819,8 C9.66461425,8 8.43019241,8.53657558 7.86264246,9.14196219 L3.30823201,14 L164.002775,14 Z M6.40356805,7.77407993 C7.34861222,6.76603282 9.11091316,6 10.4913819,6 L164.008618,6 C165.663574,6 167,7.33728493 167,8.99810135 L167,13.0018986 C167,14.6593387 165.662913,16 164.002775,16 L2.9972248,16 C1.01852217,16 0.285621517,14.2998896 1.63735754,12.8580378 L6.40356805,7.77407993 Z"
      id="Rectangle-29"
      fill="#00A1DE"
      fill-rule="nonzero"></path>
  </g>
</svg>
