<svg width="398" height="172" viewBox="0 0 398 172" xmlns="http://www.w3.org/2000/svg"><title>img_customize</title><desc>Created with Sketch.</desc><g fill="none"><g fill-rule="nonzero" fill="#E6F5FB"><path d="M124 161h4c.552 0 1-.448 1-1s-.448-1-1-1h-4c-.552 0-1 .448-1 1s.448 1 1 1zm8 0h4c.552 0 1-.448 1-1s-.448-1-1-1h-4c-.552 0-1 .448-1 1s.448 1 1 1zm8 0h4c.552 0 1-.448 1-1s-.448-1-1-1h-4c-.552 0-1 .448-1 1s.448 1 1 1zm8 0h4c.552 0 1-.448 1-1s-.448-1-1-1h-4c-.552 0-1 .448-1 1s.448 1 1 1zm8 0h4c.552 0 1-.448 1-1s-.448-1-1-1h-4c-.552 0-1 .448-1 1s.448 1 1 1zm8 0h4c.552 0 1-.448 1-1s-.448-1-1-1h-4c-.552 0-1 .448-1 1s.448 1 1 1zm8 0c-.552 0-1-.448-1-1s.448-1 1-1h4c.552 0 1 .448 1 1s-.448 1-1 1h-4zm-23 10c-.552 0-1-.448-1-1s.448-1 1-1h4c.552 0 1 .448 1 1s-.448 1-1 1h-4zm8 0c-.552 0-1-.448-1-1s.448-1 1-1h4c.552 0 1 .448 1 1s-.448 1-1 1h-4zm8 0c-.552 0-1-.448-1-1s.448-1 1-1h4c.552 0 1 .448 1 1s-.448 1-1 1h-4zm8 0c-.552 0-1-.448-1-1s.448-1 1-1h4c.552 0 1 .448 1 1s-.448 1-1 1h-4zm8 0c-.552 0-1-.448-1-1s.448-1 1-1h4c.552 0 1 .448 1 1s-.448 1-1 1h-4zm8 0c-.552 0-1-.448-1-1s.448-1 1-1h4c.552 0 1 .448 1 1s-.448 1-1 1h-4zm8 0c-.552 0-1-.448-1-1s.448-1 1-1h4c.552 0 1 .448 1 1s-.448 1-1 1h-4zm8 0c-.552 0-1-.448-1-1s.448-1 1-1h4c.552 0 1 .448 1 1s-.448 1-1 1h-4zm8 0c-.552 0-1-.448-1-1s.448-1 1-1h4c.552 0 1 .448 1 1s-.448 1-1 1h-4zm8 0c-.552 0-1-.448-1-1s.448-1 1-1h4c.552 0 1 .448 1 1s-.448 1-1 1h-4zm8 0c-.552 0-1-.448-1-1s.448-1 1-1h4c.552 0 1 .448 1 1s-.448 1-1 1h-4zm8 0c-.552 0-1-.448-1-1s.448-1 1-1h4c.552 0 1 .448 1 1s-.448 1-1 1h-4zm8 0c-.552 0-1-.448-1-1s.448-1 1-1h4c.552 0 1 .448 1 1s-.448 1-1 1h-4zM82.5 107c4.827 0 9.571-.64 14.141-1.889.533-.146.847-.696.701-1.228-.146-.533-.696-.847-1.228-.701-4.399 1.203-8.965 1.818-13.614 1.818-.552 0-1 .448-1 1s.448 1 1 1zm28.093-7.961c2.025-1.252 3.964-2.637 5.805-4.147.427-.35.489-.98.139-1.407-.35-.427-.98-.489-1.407-.139-1.772 1.453-3.64 2.787-5.589 3.992-.47.29-.615.907-.325 1.376.29.47.907.615 1.376.325zm15.57-14.615c2.954-4.163 5.3-8.729 6.959-13.568.179-.522-.099-1.091-.622-1.27-.522-.179-1.091.099-1.27.622-1.596 4.657-3.855 9.051-6.698 13.059-.32.45-.214 1.075.237 1.394.45.32 1.075.214 1.394-.237zm8.804-20.406c.684-3.43 1.032-6.938 1.034-10.491 0-1.269-.042-2.51-.127-3.747-.038-.551-.515-.967-1.066-.929-.551.038-.967.515-.929 1.066.082 1.191.123 2.386.123 3.609-.002 3.421-.337 6.799-.995 10.1-.108.542.244 1.068.785 1.176.542.108 1.068-.244 1.176-.785zm-2.302-29.155c-.83-2.234-1.809-4.407-2.929-6.506-.26-.487-.866-.672-1.353-.412-.487.26-.672.866-.412 1.353 1.078 2.021 2.02 4.112 2.819 6.262.192.518.768.781 1.286.589.518-.192.781-.768.589-1.286zm-11.249-18.076c-3.505-3.714-7.524-6.913-11.93-9.492-.477-.279-1.089-.119-1.368.358-.279.477-.119 1.089.358 1.368 4.242 2.483 8.111 5.563 11.486 9.139.379.402 1.012.42 1.414.041.402-.379.42-1.012.041-1.414zm-18.294-12.667c-4.389-1.835-9.017-3.078-13.784-3.686-.548-.07-1.049.318-1.119.865-.07.548.318 1.049.865 1.119 4.589.585 9.042 1.781 13.266 3.547.51.213 1.095-.027 1.308-.537.213-.51-.027-1.095-.537-1.308zm-29.06-3.457c-2.36.374-4.683.905-6.958 1.587-.529.159-.829.716-.67 1.245.159.529.716.829 1.245.67 2.189-.657 4.425-1.167 6.696-1.527.545-.086.918-.599.831-1.144-.086-.545-.599-.918-1.144-.831zm-19.923 7.466c-4.327 2.71-8.248 6.029-11.64 9.845-.367.413-.33 1.045.083 1.412.413.367 1.045.33 1.412-.083 3.266-3.675 7.042-6.87 11.207-9.479.468-.293.61-.91.317-1.378-.293-.468-.91-.61-1.378-.317zm-16.063 15.552c-2.663 3.96-4.788 8.261-6.309 12.796-.176.524.106 1.09.63 1.266.524.176 1.09-.106 1.266-.63 1.464-4.364 3.509-8.504 6.072-12.316.308-.458.187-1.08-.272-1.388-.458-.308-1.08-.187-1.388.272zm-9.034 27.733c-.026.69-.04 1.382-.04 2.075 0 1.704.079 3.388.235 5.061.051.55.539.954 1.089.902.55-.051.954-.539.902-1.089-.151-1.611-.227-3.233-.227-4.874 0-.668.013-1.334.038-1.999.021-.552-.409-1.016-.961-1.038-.552-.021-1.016.409-1.038.961zm287.956 85.586h.004c1.369 0 2.731-.06 4.082-.179.55-.048.957-.534.909-1.084-.048-.55-.534-.957-1.084-.909-1.294.114-2.597.171-3.907.171h-.008c-.761 0-1.52-.02-2.276-.058-.552-.028-1.022.396-1.05.948-.028.552.396 1.022.948 1.05.79.04 1.583.061 2.378.061h.004zm-.245 14.969l.25.031c4.806 0 9.54-.556 14.135-1.646.537-.128.87-.666.742-1.204-.128-.537-.666-.87-1.204-.742-4.444 1.054-9.023 1.592-13.673 1.592l-.242.029-.241-.031c-6.657-.053-13.156-1.21-19.302-3.397-.52-.185-1.092.087-1.277.607-.185.52.087 1.092.607 1.277 6.355 2.262 13.076 3.457 19.956 3.513l.25-.029zm.233 20.031h.016c3.398 0 6.771-.209 10.105-.624.548-.068.937-.568.869-1.116-.068-.548-.568-.937-1.116-.869-3.252.405-6.542.609-9.858.609h-.032c-2.621-.001-5.226-.13-7.81-.384-.55-.054-1.039.348-1.093.897-.054.55.348 1.039.897 1.093 2.648.261 5.319.393 8.005.394h.016zm-276.478-34.13c.146.083.314.13.494.13 1.415 0 2.812-.14 4.178-.416.541-.109.892-.637.782-1.178-.109-.541-.637-.892-1.178-.782-1.235.249-2.5.376-3.782.376-.163 0-.317.039-.453.108-.133-.075-.284-.121-.447-.129-1.278-.06-2.536-.246-3.759-.554-.536-.135-1.079.19-1.214.725-.135.536.19 1.079.725 1.214 1.353.341 2.743.547 4.155.613.179.008.35-.031.499-.107zm.484 20.13h.01c4.86 0 9.606-.846 14.077-2.481.519-.19.786-.764.596-1.283-.19-.519-.764-.786-1.283-.596-4.252 1.554-8.765 2.359-13.39 2.359h-.018c-1.953-.001-3.889-.145-5.795-.43-.546-.082-1.055.295-1.137.841-.082.546.295 1.055.841 1.137 2.004.299 4.037.451 6.089.452h.01zm28.957-52.481c-.537-.129-.868-.669-.738-1.206.129-.537.669-.868 1.206-.738 2.219.534 4.479.92 6.769 1.155.549.056.949.547.893 1.097-.056.549-.547.949-1.097.893-2.378-.244-4.726-.645-7.032-1.2zm-1.729 42.145c-.413.367-1.045.329-1.412-.084-.367-.413-.329-1.045.084-1.412 1.704-1.514 3.274-3.174 4.69-4.96.343-.433.972-.506 1.405-.162.433.343.506.972.162 1.405-1.488 1.877-3.138 3.622-4.929 5.213zm11.727-17.81c-.173.524-.738.809-1.263.636-.524-.173-.809-.738-.636-1.263 1.29-3.91 1.955-8.023 1.955-12.226 0-.738-.02-1.473-.061-2.205-.031-.551.391-1.023.943-1.054.551-.031 1.023.391 1.054.943.043.769.064 1.541.064 2.316 0 4.417-.699 8.741-2.055 12.853zm.966-22.28c.127.538-.207 1.076-.744 1.202-.538.127-1.076-.207-1.202-.744-1.049-4.46-2.878-8.678-5.388-12.483-.304-.461-.177-1.081.284-1.385.461-.304 1.081-.177 1.385.284 2.64 4.001 4.562 8.437 5.666 13.127zm-16.35-24.132c.452.318.56.941.243 1.393-.318.452-.941.56-1.393.243-1.864-1.311-3.84-2.457-5.905-3.423-.5-.234-.716-.829-.482-1.33.234-.5.829-.716 1.33-.482 2.171 1.016 4.248 2.22 6.208 3.599zm-19.983-7.287c.55.048.958.532.91 1.082-.048.55-.532.958-1.082.91-1.123-.097-2.253-.146-3.39-.147-3.821 0-7.555.545-11.135 1.608-.529.157-1.086-.145-1.243-.674-.157-.529.145-1.086.674-1.243 3.764-1.118 7.689-1.69 11.704-1.69 1.194 0 2.382.052 3.562.154zm-21.93 4.173c.494-.248 1.095-.048 1.342.446.248.494.048 1.095-.446 1.342-4.081 2.046-7.775 4.798-10.909 8.119-.379.402-1.012.42-1.414.041-.402-.379-.42-1.012-.041-1.414 3.294-3.49 7.177-6.383 11.467-8.534zm-19.755 21.517c.204-.513.786-.764 1.299-.559.513.204.764.786.559 1.299-.841 2.112-1.495 4.298-1.955 6.537-.111.541-.64.89-1.181.779-.541-.111-.89-.64-.779-1.181.483-2.355 1.172-4.654 2.056-6.875zm-2.47 21.066c-.079-.547.3-1.054.847-1.133.547-.079 1.054.3 1.133.847.704 4.876 2.321 9.531 4.75 13.762.275.479.11 1.09-.369 1.365-.479.275-1.09.11-1.365-.369-2.554-4.449-4.254-9.345-4.994-14.472zm9.093 20.355c-.354-.424-.297-1.055.127-1.409.424-.354 1.055-.297 1.409.127 2.927 3.504 6.447 6.476 10.395 8.768.478.277.64.889.363 1.367s-.889.64-1.367.363c-4.149-2.409-7.85-5.533-10.925-9.216zm39.716-6.94c-.508.217-1.095-.019-1.312-.527-.217-.508.019-1.095.527-1.312 1.168-.498 2.283-1.113 3.328-1.834.455-.314 1.077-.199 1.391.255.314.455.199 1.077-.255 1.391-1.155.797-2.387 1.476-3.679 2.027zm6.91-4.774c-.383.398-1.016.411-1.414.028-.398-.383-.411-1.016-.028-1.414.88-.916 1.667-1.917 2.348-2.989.296-.466.914-.604 1.38-.308.466.296.604.914.308 1.38-.752 1.184-1.622 2.29-2.594 3.302zm4.469-7.025c-.198.516-.776.773-1.292.575-.516-.198-.773-.776-.575-1.292.454-1.181.788-2.408.997-3.665.091-.545.606-.913 1.151-.822.545.091.913.606.822 1.151-.231 1.391-.602 2.747-1.103 4.054zm1.373-8.346c.021.552-.409 1.016-.961 1.038-.552.021-1.016-.409-1.038-.961-.049-1.279-.225-2.538-.523-3.764-.131-.537.199-1.077.735-1.208.537-.131 1.077.199 1.208.735.33 1.356.524 2.747.579 4.16zm-1.98-8.125c.236.5.022 1.095-.478 1.331s-1.095.022-1.331-.478c-.542-1.148-1.197-2.24-1.957-3.257-.33-.443-.239-1.069.204-1.399.443-.33 1.069-.239 1.399.204.839 1.125 1.564 2.33 2.163 3.6zm-5.07-6.765c.413.367.451.999.084 1.412-.367.413-.999.451-1.412.084-.95-.843-1.982-1.59-3.079-2.227-.478-.277-.64-.889-.362-1.367.277-.478.889-.64 1.367-.362 1.213.705 2.353 1.529 3.403 2.461zm-7.191-4.183c.523.177.803.745.626 1.268-.177.523-.745.803-1.268.626-1.197-.406-2.436-.691-3.702-.851-.548-.069-.936-.569-.867-1.117.069-.548.569-.936 1.117-.867 1.4.176 2.77.492 4.094.941zm-8.382-1.043c.551-.043 1.032.369 1.074.92.043.551-.369 1.032-.92 1.074-1.274.098-2.525.323-3.74.67-.531.152-1.084-.156-1.236-.687-.152-.531.156-1.084.687-1.236 1.343-.383 2.726-.632 4.134-.741zm-8.047 2.299c.49-.255 1.094-.065 1.349.425.255.49.065 1.094-.425 1.349-1.126.586-2.191 1.285-3.178 2.083-.429.347-1.059.281-1.406-.149-.347-.429-.281-1.059.149-1.406 1.091-.882 2.268-1.654 3.512-2.302zm-6.532 5.295c.351-.426.981-.487 1.408-.136.426.351.487.981.136 1.408-.807.98-1.515 2.039-2.112 3.16-.259.488-.865.673-1.353.413-.488-.259-.673-.865-.413-1.353.659-1.239 1.441-2.409 2.333-3.492zm-3.927 7.391c.156-.53.712-.832 1.242-.676.53.156.832.712.676 1.242-.357 1.212-.593 2.461-.703 3.734-.047.55-.532.958-1.082.911-.55-.047-.958-.532-.911-1.082.121-1.407.382-2.788.777-4.128zm-.713 8.408c-.064-.549.329-1.045.877-1.109.549-.064 1.045.329 1.109.877.148 1.268.422 2.509.816 3.71.172.525-.113 1.09-.638 1.262-.525.172-1.09-.113-1.262-.638-.436-1.328-.739-2.701-.903-4.103zm2.616 7.955c-.274-.479-.108-1.09.372-1.365.479-.274 1.09-.108 1.365.372.63 1.102 1.37 2.139 2.207 3.095.364.415.322 1.047-.093 1.411-.415.364-1.047.322-1.411-.093-.925-1.056-1.742-2.201-2.439-3.419zm5.504 6.286c-.439-.335-.523-.963-.188-1.402.335-.439.963-.523 1.402-.188 1.009.771 2.093 1.439 3.235 1.994.497.241.704.84.463 1.336-.241.497-.84.704-1.336.463-1.263-.613-2.46-1.352-3.575-2.204zm327.593 28.392c-.484.265-1.092.088-1.357-.397-.265-.484-.088-1.092.397-1.357 1.155-.633 2.294-1.294 3.416-1.984.471-.289 1.086-.142 1.376.328.289.471.142 1.086-.328 1.376-1.15.707-2.318 1.385-3.502 2.034zm11.805-7.884c-.431.346-1.06.277-1.406-.154-.346-.431-.277-1.06.154-1.406 7.732-6.205 14.247-13.815 19.177-22.414.275-.479.886-.645 1.365-.37s.645.886.37 1.365c-5.054 8.816-11.734 16.618-19.66 22.979zm21.57-26.511c-.251.492-.853.688-1.345.438-.492-.251-.688-.853-.438-1.345 1.493-2.934 2.802-5.96 3.917-9.063.187-.52.76-.79 1.279-.603.52.187.79.76.603 1.279-1.144 3.182-2.486 6.285-4.017 9.294zm8.73-39.245c.017.552-.417 1.013-.969 1.03-.552.017-1.013-.417-1.03-.969-.041-1.32-.114-2.636-.22-3.946-.044-.551.366-1.033.916-1.077.551-.044 1.033.366 1.077.916.108 1.343.183 2.692.225 4.045zm-1.671-14.086c.113.541-.234 1.07-.775 1.183-.541.113-1.07-.234-1.183-.775-2.035-9.746-5.893-18.962-11.343-27.222-.304-.461-.177-1.081.284-1.385.461-.304 1.081-.177 1.385.284 5.588 8.469 9.545 17.92 11.631 27.915zm-13.936-31.226c.327.445.23 1.071-.215 1.398-.445.327-1.071.23-1.398-.215-1.949-2.657-4.062-5.19-6.326-7.585-.379-.401-.362-1.034.04-1.414.401-.379 1.034-.362 1.414.04 2.321 2.455 4.487 5.052 6.486 7.776zm-30.954-25.491c.5.235.715.83.48 1.33-.235.5-.83.715-1.33.48-1.191-.56-2.397-1.089-3.615-1.589-.511-.209-.756-.793-.546-1.304.209-.511.793-.756 1.304-.546 1.25.512 2.486 1.055 3.707 1.629zm-13.336-4.88c.533.143.85.692.706 1.225-.143.533-.692.85-1.225.706-6.622-1.779-13.489-2.692-20.476-2.698-3.055 0-6.03.166-8.983.497-.549.062-1.044-.333-1.105-.882-.062-.549.333-1.044.882-1.105 3.027-.34 6.076-.51 9.207-.51 7.163.006 14.203.942 20.993 2.766zm-34.225-1.702c.545-.089 1.059.281 1.148.826.089.545-.281 1.059-.826 1.148-3.261.533-6.474 1.269-9.625 2.201-.53.157-1.086-.145-1.243-.675-.157-.53.145-1.086.675-1.243 3.231-.957 6.526-1.711 9.87-2.258zm-36.737 16.126c.435-.341 1.063-.264 1.404.171.341.435.264 1.063-.171 1.404-1.037.812-2.054 1.65-3.049 2.513-.417.362-1.049.317-1.411-.101-.362-.417-.317-1.049.101-1.411 1.021-.884 2.063-1.743 3.126-2.576zm-10.388 9.711c.369-.411 1.001-.445 1.412-.076.411.369.445 1.001.076 1.412-6.623 7.375-11.815 15.931-15.273 25.232-.192.518-.768.781-1.286.589-.518-.192-.781-.768-.589-1.286 3.546-9.537 8.87-18.31 15.66-25.871zm-16.957 29.645c.167-.527.728-.818 1.255-.652.527.167.818.728.652 1.255-.991 3.134-1.786 6.333-2.379 9.584-.099.543-.62.903-1.163.804-.543-.099-.903-.62-.804-1.163.608-3.333 1.423-6.614 2.44-9.828zm-2.239 40.139c-.106-.542.247-1.067.789-1.174.542-.106 1.067.247 1.174.789.254 1.294.54 2.58.858 3.857.133.536-.193 1.079-.729 1.212s-1.079-.193-1.212-.729c-.326-1.309-.62-2.628-.88-3.956zm3.945 13.616c-.2-.515.056-1.094.57-1.294.515-.2 1.094.056 1.294.57 3.59 9.249 8.903 17.732 15.63 25.014.375.406.35 1.038-.056 1.413-.406.375-1.038.35-1.413-.056-6.897-7.466-12.344-16.163-16.025-25.647zm18.858 28.564c-.395-.386-.401-1.02-.015-1.414.386-.395 1.02-.401 1.414-.015 2.354 2.306 4.85 4.464 7.472 6.46.439.335.524.962.19 1.401-.335.439-.962.524-1.401.19-2.688-2.046-5.246-4.259-7.66-6.623zm34.674 20.109c-.532-.15-.841-.702-.691-1.234.15-.532.702-.841 1.234-.691 1.266.357 2.543.682 3.828.975.538.123.875.659.753 1.197-.123.538-.659.875-1.197.753-1.318-.301-2.627-.634-3.926-1zm54.775-26.516c-.466.297-1.084.161-1.381-.305-.297-.466-.161-1.084.305-1.381 1.105-.705 2.187-1.448 3.243-2.225.445-.327 1.071-.232 1.398.213.327.445.232 1.071-.213 1.398-1.092.804-2.21 1.571-3.353 2.3zm13.784-12.04c-.357.421-.988.473-1.409.116-.421-.357-.473-.988-.116-1.409 4.251-5.016 7.642-10.707 10.017-16.845.199-.515.778-.771 1.293-.572.515.199.771.778.572 1.293-2.455 6.347-5.961 12.231-10.356 17.416zm11.683-21.215c-.165.527-.725.821-1.253.656-.527-.165-.821-.725-.656-1.253 1.364-4.37 2.217-8.903 2.533-13.531.038-.551.515-.967 1.066-.93.551.038.967.515.93 1.066-.326 4.785-1.208 9.473-2.619 13.991zm.647-34.185c.144.533-.171 1.082-.704 1.227-.533.144-1.082-.171-1.227-.704-.343-1.266-.728-2.519-1.154-3.757-.18-.522.098-1.091.62-1.271.522-.18 1.091.098 1.271.62.441 1.28.839 2.576 1.194 3.886zm-7.367-16.696c.296.466.159 1.084-.308 1.38-.466.296-1.084.159-1.38-.308-3.527-5.549-7.962-10.479-13.107-14.576-.432-.344-.503-.973-.159-1.405.344-.432.973-.503 1.405-.159 5.318 4.235 9.903 9.331 13.549 15.068zm-16.883-17.543c.454.314.568.937.254 1.391-.314.454-.937.568-1.391.254-3.786-2.616-7.867-4.782-12.162-6.449-.515-.2-.77-.779-.571-1.294.2-.515.779-.77 1.294-.571 4.442 1.723 8.661 3.963 12.575 6.668zm-32.372-10.738c.552.02.983.484.963 1.036-.02.552-.484.983-1.036.963-.726-.026-1.453-.04-2.182-.04-.592 0-1.176.008-1.759.025-.552.016-1.013-.418-1.029-.97-.016-.552.418-1.013.97-1.029.603-.018 1.206-.026 1.818-.026.753 0 1.505.014 2.255.041zm-18.136 2.045c.533-.143 1.082.173 1.225.706.143.533-.173 1.082-.706 1.225-6.367 1.711-12.378 4.481-17.807 8.177-.457.311-1.079.193-1.389-.264-.311-.457-.193-1.079.264-1.389 5.614-3.822 11.829-6.685 18.414-8.455zm-21.704 10.859c.435-.341 1.063-.264 1.404.171.341.435.264 1.063-.171 1.404-3.624 2.838-6.908 6.091-9.781 9.688-.345.432-.974.502-1.405.157-.432-.345-.502-.974-.157-1.405 2.97-3.718 6.365-7.081 10.111-10.014zm-19.945 27.704c.184-.521.756-.793 1.276-.609.521.184.793.756.609 1.276-.437 1.235-.833 2.486-1.187 3.75-.149.532-.701.842-1.232.694-.532-.149-.842-.701-.694-1.232.366-1.307.775-2.601 1.227-3.878zm-3.432 17.972c.021-.552.486-.982 1.038-.961.552.021.982.486.961 1.038-.029.761-.044 1.525-.044 2.29 0 5.887.858 11.647 2.53 17.159.16.529-.138 1.087-.667 1.247-.529.16-1.087-.138-1.247-.667-1.729-5.7-2.616-11.656-2.616-17.74 0-.79.015-1.579.046-2.366zm3.885 23.967c-.195-.517.065-1.094.581-1.289.517-.195 1.094.065 1.289.581 1.631 4.31 3.764 8.409 6.349 12.217.31.457.191 1.079-.266 1.389-.457.31-1.079.191-1.389-.266-2.673-3.937-4.878-8.175-6.565-12.632zm20.592 27.308c-.442-.331-.533-.957-.203-1.4.331-.442.957-.533 1.4-.203 1.051.785 2.127 1.535 3.228 2.249.463.3.596.92.295 1.383-.3.463-.92.596-1.383.295-1.138-.738-2.251-1.513-3.337-2.325zm44.621-3.615c-.544.097-1.063-.265-1.16-.809-.097-.544.265-1.063.809-1.16 1.287-.23 2.559-.517 3.815-.859.533-.145 1.083.169 1.228.702.145.533-.169 1.083-.702 1.228-1.313.358-2.644.658-3.989.898zm7.893-2.154c-.518.193-1.093-.071-1.286-.589-.193-.518.071-1.093.589-1.286 1.223-.455 2.425-.964 3.601-1.526.498-.238 1.095-.027 1.333.471s.027 1.095-.471 1.333c-1.23.588-2.487 1.12-3.766 1.596zm7.413-3.545c-.475.282-1.088.126-1.37-.349-.282-.475-.126-1.088.349-1.37 1.122-.666 2.213-1.381 3.271-2.144.448-.323 1.073-.222 1.396.226.323.448.222 1.073-.226 1.396-1.106.797-2.247 1.545-3.42 2.242zm6.603-4.756c-.418.361-1.049.315-1.41-.103s-.315-1.049.103-1.41c.987-.853 1.936-1.749 2.844-2.685.384-.396 1.018-.406 1.414-.022.396.384.406 1.018.022 1.414-.949.979-1.941 1.915-2.973 2.806zm5.711-5.895c-.348.429-.977.495-1.406.148-.429-.348-.495-.977-.148-1.406.821-1.014 1.597-2.064 2.325-3.146.308-.458.93-.58 1.388-.272.458.308.58.93.272 1.388-.761 1.132-1.572 2.229-2.431 3.289zm4.588-6.831c-.266.484-.874.661-1.358.396-.484-.266-.661-.874-.396-1.358.627-1.143 1.204-2.314 1.727-3.509.221-.506.811-.737 1.317-.515.506.221.737.811.515 1.317-.547 1.25-1.15 2.474-1.806 3.67zm3.246-7.395c-.176.523-.744.805-1.267.628-.523-.176-.805-.744-.628-1.267.416-1.234.777-2.488 1.082-3.758.129-.537.669-.868 1.206-.739.537.129.868.669.739 1.206-.319 1.328-.697 2.639-1.132 3.93zm1.911-7.971c-.08.546-.588.924-1.135.844-.546-.08-.924-.588-.844-1.135.189-1.286.321-2.584.396-3.891.032-.551.504-.973 1.055-.941.551.032.973.504.941 1.055-.078 1.366-.216 2.723-.413 4.067zm.467-8.182c.017.552-.417 1.013-.969 1.03-.552.017-1.013-.417-1.03-.969-.04-1.309-.138-2.609-.293-3.899-.066-.548.326-1.046.874-1.112.548-.066 1.046.326 1.112.874.161 1.348.264 2.707.306 4.075zm-.976-8.126c.114.54-.231 1.071-.771 1.185-.54.114-1.071-.231-1.185-.771-.271-1.278-.598-2.541-.98-3.785-.162-.528.134-1.087.662-1.25.528-.162 1.087.134 1.25.662.4 1.301.742 2.622 1.025 3.959zm-2.403-7.816c.209.511-.036 1.095-.547 1.304-.511.209-1.095-.036-1.304-.547-.494-1.208-1.041-2.392-1.64-3.551-.254-.491-.062-1.094.429-1.348s1.094-.062 1.348.429c.626 1.211 1.198 2.45 1.715 3.713zm-3.785-7.308c.297.466.16 1.084-.306 1.381-.466.297-1.084.16-1.381-.306-.701-1.099-1.451-2.167-2.246-3.201-.337-.438-.255-1.065.182-1.402.438-.337 1.065-.255 1.402.182.832 1.08 1.615 2.196 2.348 3.346zm-4.955-6.44c.374.406.348 1.039-.059 1.413-.406.374-1.039.348-1.413-.059-.883-.96-1.809-1.881-2.773-2.759-.408-.372-.438-1.004-.066-1.413.372-.408 1.004-.438 1.413-.066 1.008.918 1.975 1.88 2.899 2.884zm-6.076-5.527c.44.334.526.961.192 1.401-.334.44-.961.526-1.401.192-1.039-.788-2.112-1.531-3.217-2.224-.468-.294-.609-.911-.315-1.379.294-.468.911-.609 1.379-.315 1.155.725 2.277 1.5 3.363 2.325zm-6.975-4.371c.492.25.689.852.439 1.344-.25.492-.852.689-1.344.439-1.162-.59-2.35-1.129-3.562-1.614-.513-.205-.762-.787-.557-1.3.205-.513.787-.762 1.3-.557 1.267.507 2.509 1.07 3.725 1.688zm-7.491-3.007c.529.16.828.718.668 1.246-.16.529-.718.828-1.246.668-1.246-.376-2.511-.697-3.79-.962-.541-.112-.889-.641-.777-1.182.112-.541.641-.889 1.182-.777 1.338.276 2.66.612 3.964 1.006zm-8.03-1.657c.549.063.943.559.88 1.107-.063.549-.559.943-1.107.88-1.291-.148-2.593-.239-3.902-.273-.552-.014-.988-.473-.974-1.025.014-.552.473-.988 1.025-.974 1.368.035 2.729.131 4.078.285zm-8.184-.211c.551-.034 1.026.385 1.06.936.034.551-.385 1.026-.936 1.06-1.306.081-2.603.22-3.888.415-.546.083-1.056-.293-1.139-.839-.083-.546.293-1.056.839-1.139 1.343-.204 2.699-.349 4.064-.434zm-8.101 1.233c.536-.132 1.078.197 1.209.733.132.536-.197 1.078-.733 1.209-1.268.311-2.52.678-3.752 1.101-.522.179-1.091-.099-1.27-.622-.179-.522.099-1.091.622-1.27 1.288-.442 2.597-.826 3.924-1.151zm-7.733 2.651c.504-.225 1.096.001 1.321.506.225.504-.001 1.096-.506 1.321-1.191.532-2.358 1.116-3.497 1.752-.482.269-1.091.096-1.361-.386-.269-.482-.096-1.091.386-1.361 1.191-.664 2.411-1.276 3.656-1.832zm-7.124 3.974c.457-.311 1.079-.193 1.389.264.311.457.193 1.079-.264 1.389-1.078.734-2.123 1.515-3.133 2.342-.427.35-1.057.287-1.407-.14-.35-.427-.287-1.057.14-1.407 1.055-.864 2.147-1.681 3.274-2.448zm-6.341 5.196c.394-.387 1.028-.38 1.414.014.387.394.38 1.028-.014 1.414-.932.913-1.823 1.867-2.67 2.859-.359.42-.99.469-1.41.111-.42-.359-.469-.99-.111-1.41.886-1.037 1.817-2.034 2.791-2.988zm-5.334 6.249c.32-.45.944-.556 1.394-.236.45.32.556.944.236 1.394-.755 1.063-1.463 2.16-2.121 3.286-.279.477-.891.638-1.368.359-.477-.279-.638-.891-.359-1.368.688-1.177 1.428-2.323 2.217-3.435zm-4.134 7.083c.235-.5.83-.715 1.33-.48.5.235.715.83.48 1.33-.554 1.18-1.055 2.384-1.502 3.611-.189.519-.763.786-1.282.597-.519-.189-.786-.763-.597-1.282.467-1.282.991-2.542 1.57-3.776zm-2.778 7.605c.143-.534.691-.85 1.224-.708.534.143.85.691.708 1.224-.336 1.257-.617 2.531-.841 3.819-.095.544-.612.909-1.156.814-.544-.095-.909-.612-.814-1.156.234-1.347.527-2.679.879-3.994zm-1.401 8.077c.046-.55.529-.96 1.079-.914.55.046.96.529.914 1.079-.1 1.213-.151 2.434-.151 3.661l.001.263c.003.552-.442 1.002-.994 1.005-.552.003-1.002-.442-1.005-.994l-.001-.274c0-1.282.053-2.558.158-3.825zm.044 8.183c-.051-.55.353-1.037.902-1.089.55-.051 1.037.353 1.089.902.122 1.303.301 2.595.537 3.875.1.543-.259 1.065-.802 1.165-.543.1-1.065-.259-1.165-.802-.247-1.337-.434-2.689-.562-4.051zm1.492 8.07c-.149-.532.162-1.084.694-1.232.532-.149 1.084.162 1.232.694.351 1.257.758 2.496 1.22 3.713.196.516-.064 1.094-.581 1.289-.516.196-1.094-.064-1.289-.581-.482-1.273-.908-2.569-1.276-3.884zm2.897 7.644c-.241-.497-.034-1.095.463-1.336.497-.241 1.095-.034 1.336.463.57 1.174 1.191 2.321 1.863 3.439.284.473.131 1.088-.342 1.372-.473.284-1.088.131-1.372-.342-.702-1.169-1.352-2.369-1.947-3.596zm4.196 6.99c-.325-.447-.227-1.072.22-1.397.447-.325 1.072-.227 1.397.22.768 1.054 1.582 2.074 2.44 3.057.363.416.32 1.048-.096 1.411-.416.363-1.048.32-1.411-.096-.897-1.027-1.748-2.093-2.55-3.195zm5.394 6.174c-.399-.382-.412-1.015-.03-1.414s1.015-.412 1.414-.03c.942.903 1.924 1.763 2.942 2.579.431.345.5.975.155 1.406-.345.431-.975.5-1.406.155-1.064-.853-2.09-1.752-3.075-2.696zm6.415 5.135c-.46-.305-.586-.926-.28-1.386.305-.46.926-.586 1.386-.28 1.087.721 2.205 1.394 3.351 2.016.485.263.666.87.402 1.356-.263.485-.87.666-1.356.402-1.199-.65-2.368-1.353-3.504-2.107zm7.212 3.908c-.507-.219-.741-.807-.522-1.314.219-.507.807-.741 1.314-.522 1.197.516 2.417.978 3.657 1.386.525.172.81.737.638 1.262-.172.525-.737.81-1.262.638-1.297-.426-2.573-.91-3.824-1.449zm7.686 2.532c-.538-.126-.872-.664-.746-1.201.126-.538.664-.872 1.201-.746 1.267.296 2.549.536 3.844.719.547.077.928.583.85 1.13-.077.547-.583.928-1.13.85-1.354-.191-2.695-.442-4.02-.752z" id="Combined-Shape"/></g><g><path d="M74.844 61.81c-4.577-2.648-7.656-7.596-7.656-13.264 0-8.457 6.856-15.313 15.313-15.313s15.313 6.856 15.313 15.313c0 5.668-3.079 10.616-7.656 13.264v2.962c0 .553-.442 1.001-1.005 1.001h-13.303c-.555 0-1.005-.456-1.005-1.001v-2.962zm0 8.587c0-.55.442-.997 1.005-.997h13.303c.555 0 1.005.451 1.005.997v4.569c0 .55-.442.997-1.005.997h-13.303c-.555 0-1.005-.451-1.005-.997v-4.569z" id="Combined-Shape" fill="#E6F5FB"/><path d="M85.318 51.131l-.002-.08-.01-.659c-.008-2.811.583-3.889.937-4.284.47-.526.986-.538 1.486-.546l.394.002c.635.004 1.163.296 1.614.893.389.515.612 1.241.604 1.643-.058 1.953-.966 2.731-1.502 3.021l-3.52.011zm-8.344-5.569c.501.008 1.019.017 1.49.546.353.394.943 1.471.937 4.284l-.009.659-.002.08h-3.503l-.018-.01c-.536-.291-1.444-1.07-1.501-3.021-.009-.342.174-1.078.603-1.646.451-.595.98-.887 1.617-.891l.386-.002zm11.155-1.434l-.477-.004c-1.058 0-1.896.35-2.491 1.042-.875 1.019-1.285 2.679-1.289 5.225l.008.655.003.085h-3.056l.002-.084.008-.657c-.004-2.543-.413-4.203-1.288-5.224-.595-.692-1.433-1.042-2.496-1.042l-.477.004c-1.525 0-2.438 1.032-2.761 1.475-.551.76-.873 1.668-.884 2.509.057 3.194 2.183 4.258 2.424 4.369l6.236.04v10.379h1.524v-10.369l5.906.038.33-.087c.242-.112 2.37-1.173 2.425-4.367-.008-.835-.329-1.75-.882-2.512-.322-.443-1.236-1.474-2.765-1.474z" fill="#fff"/><path d="M75.344 60.944l.499.289v3.539c0-.004 13.308.001 13.308.001.007 0 .005-3.539.005-3.539l.499-.289c4.394-2.542 7.157-7.229 7.157-12.398 0-7.905-6.408-14.313-14.313-14.313s-14.313 6.408-14.313 14.313c0 5.169 2.763 9.856 7.157 12.398zm-9.157-12.398c0-9.009 7.303-16.313 16.313-16.313 9.009 0 16.313 7.303 16.313 16.313 0 5.692-2.941 10.873-7.656 13.829v2.397c0 1.107-.892 2.001-2.005 2.001h-13.303c-1.105 0-2.005-.901-2.005-2.001v-2.397c-4.715-2.955-7.656-8.136-7.656-13.829zm9.656 26.42c0-.006 13.308-.003 13.308-.003.002 0 .005-4.566.005-4.566 0 .006-13.308.003-13.308.003-.002 0-.005 4.566-.005 4.566zm-2-4.569c0-1.106.893-1.997 2.005-1.997h13.303c1.104 0 2.005.896 2.005 1.997v4.569c0 1.106-.893 1.997-2.005 1.997h-13.303c-1.104 0-2.005-.896-2.005-1.997v-4.569z" id="Combined-Shape" fill="#CBECF9" fill-rule="nonzero"/><path d="M81.406 20.091c0-.602.485-1.091 1.094-1.091.604 0 1.094.496 1.094 1.091v6.569c0 .602-.485 1.091-1.094 1.091-.604 0-1.094-.496-1.094-1.091v-6.569zm-14.621 3.174c-.301-.522-.125-1.187.402-1.491.523-.302 1.195-.118 1.492.398l3.284 5.689c.301.522.125 1.187-.402 1.491-.523.302-1.195.118-1.492-.398l-3.284-5.689zm31.429 0l-3.284 5.689c-.297.515-.969.7-1.492.398-.527-.304-.703-.97-.402-1.491l3.284-5.689c.297-.515.969-.7 1.492-.398.527.304.703.97.402 1.491z" id="Combined-Shape" fill="#E6F5FB"/></g><g><g id="set"><path d="M48.485 118.222c0-.306.102-.612.102-1.02 0-.408 0-.714-.102-1.02l2.142-1.632c.204-.102.204-.408.102-.612l-2.04-3.571c-.102-.204-.408-.306-.612-.204l-2.55 1.02c-.51-.408-1.122-.714-1.734-1.02l-.408-2.754c.102-.204-.204-.408-.408-.408h-4.081c-.204 0-.51.204-.51.408l-.408 2.754c-.612.204-1.122.612-1.734 1.02l-2.55-1.02c-.204-.102-.408 0-.612.204l-2.04 3.571c-.102.102 0 .408.204.612l2.142 1.632c0 .306-.102.612-.102 1.02 0 .408 0 .714.102 1.02l-2.142 1.632c-.204.102-.204.408-.102.612l2.04 3.571c.102.204.306.306.612.204l2.55-1.02c.51.408 1.122.714 1.734 1.02l.408 2.652c0 .204.204.408.51.408h4.081c.204 0 .51-.204.51-.408l.408-2.652c.612-.204 1.224-.612 1.734-1.02l2.55 1.02c.204.102.51 0 .612-.204l2.04-3.571c.102-.204.102-.51-.102-.612l-2.346-1.632zm-7.549 2.55c-1.938 0-3.571-1.632-3.571-3.571 0-1.938 1.632-3.571 3.571-3.571 1.938 0 3.571 1.632 3.571 3.571 0 1.938-1.632 3.571-3.571 3.571z" id="Shape" fill="#fff"/><path d="M51.199 119.257c.553.317.618 1.004.341 1.556l-2.022 3.536c-.275.55-1.001.792-1.498.541l-2.18-.872c-.409.301-.813.547-1.214.726l-.342 2.22c-.046.593-.658 1.037-1.207 1.037h-4.081c-.63 0-1.17-.443-1.208-1.041l-.347-2.257c-.544-.277-.89-.471-1.202-.687l-2.225.889c-.609.203-1.189-.014-1.441-.521l-2.059-3.605c-.257-.513-.194-1.191.343-1.512l1.75-1.333c-.02-.187-.025-.41-.025-.732 0-.216.018-.387.059-.655.003-.017-1.894-1.503-1.894-1.503-.414-.414-.643-1.047-.285-1.51l2.008-3.514.113-.148c.413-.413.899-.596 1.367-.359l2.204.882.578-.389c.214-.136.413-.249.609-.341l.344-2.325c.044-.595.658-1.039 1.208-1.039h4.081c.6 0 1.257.506 1.124 1.165l.331 2.236c.542.276.888.47 1.2.686l2.133-.851c.55-.275 1.276-.033 1.533.483l2.059 3.605c.257.513.194 1.191-.343 1.512l-1.75 1.333c.02.187.025.41.025.732 0 .216-.018.387-.059.655-.001.009 1.972 1.401 1.972 1.401zm-2.914 4.432l.015-.027-.015.027zm.309-.075l-.061-.024.061.024zm-14.785.109l-.01-.017.01.017zm-2.251-3.243l.11-.069-.11.069zm2.018-9.619l-.022-.022.022.022zm-.196-.073l.078.031-.078-.031zm14.405 7.799v-.366c0-.176.011-.265.059-.578.031-.202.043-.314.043-.442 0-.484-.012-.635-.066-.799l-.158-.475 2.367-1.804-1.854-3.247-2.768 1.107-.319-.255c-.373-.298-.737-.504-1.61-.941l-.326-.163-.433-2.926h-3.67l-.443 2.991-.408.136c-.217.072-.438.185-.713.36l-.855.578-.306.204-.342-.137-2.387-.957-1.826 3.195 2.316 1.765v.347c0 .176-.011.265-.059.578-.031.202-.043.314-.043.442 0 .484.012.635.066.799l.158.475-2.367 1.804 1.854 3.247 2.768-1.107.319.255c.373.298.737.504 1.685.984l-.075-.044.324.162.435 2.825h3.774l.445-2.889.406-.135c.456-.152.974-.468 1.518-.903l.319-.255.379.151 2.387.957 1.852-3.239-2.445-1.701zm-6.849 1.485c1.552 0 2.871-1.319 2.871-2.871s-1.319-2.871-2.871-2.871-2.871 1.319-2.871 2.871 1.319 2.871 2.871 2.871zm0 1.4c-2.325 0-4.271-1.946-4.271-4.271s1.946-4.271 4.271-4.271 4.271 1.946 4.271 4.271-1.946 4.271-4.271 4.271z" id="Shape" fill="#CBECF9" fill-rule="nonzero"/></g><g id="set"><path d="M22.856 154.027l2.933 2.04c.255.128.255.51.128.765l-2.55 4.463c-.128.255-.51.383-.765.255l-3.188-1.275c-.638.51-1.403 1.02-2.168 1.275l-.51 3.315c0 .255-.383.51-.638.51h-5.101c-.383 0-.638-.255-.638-.51l-.51-3.315c-.765-.383-1.53-.765-2.168-1.275l-3.188 1.275c-.383.128-.638 0-.765-.255l-2.55-4.463c-.128-.255-.128-.638.128-.765l2.678-2.04c-.128-.383-.128-.765-.128-1.275 0-.51.128-.893.128-1.275l-2.678-2.04c-.255-.255-.383-.638-.255-.765l2.55-4.463c.255-.255.51-.383.765-.255l3.188 1.275c.765-.51 1.403-1.02 2.168-1.275l.51-3.443c0-.255.383-.51.638-.51h5.101c.255 0 .638.255.51.51l.51 3.443c.765.383 1.53.765 2.168 1.275l3.188-1.275c.255-.128.638 0 .765.255l2.55 4.463c.128.255.128.638-.128.765l-2.678 2.04c.128.383.128.765.128 1.275 0 .51-.128.893-.128 1.275zm-9.436 3.188c2.423 0 4.463-2.04 4.463-4.463s-2.04-4.463-4.463-4.463-4.463 2.04-4.463 4.463 2.04 4.463 4.463 4.463z" fill="#E6F5FB"/><path d="M26.262 155.301c.704.404.787 1.277.435 1.978l-2.527 4.419c-.35.7-1.273 1.007-1.904.688l-2.713-1.085c-.505.37-1.004.674-1.498.896l-.425 2.761c-.059.756-.836 1.318-1.534 1.318h-5.101c-.8 0-1.486-.563-1.535-1.323l-.432-2.807c-.668-.34-1.097-.581-1.483-.847l-2.77 1.106c-.773.258-1.511-.019-1.831-.662l-2.574-4.507c-.326-.652-.247-1.513.438-1.922l2.175-1.657c-.024-.232-.03-.508-.03-.904 0-.272.023-.487.074-.822.002-.015-2.27-1.777-2.27-1.777l-.091-.079c-.526-.526-.816-1.328-.359-1.92l2.569-4.496.085-.085c.523-.523 1.141-.755 1.736-.454l2.742 1.097.712-.479c.264-.168.509-.307.752-.422l.428-2.892c.057-.757.835-1.321 1.534-1.321h5.101c.763 0 1.599.642 1.431 1.482l.411 2.777c.666.34 1.095.58 1.48.846l2.651-1.058c.7-.35 1.623-.042 1.949.613l2.574 4.507c.326.652.247 1.513-.438 1.922l-2.175 1.657c.024.232.03.508.03.904 0 .272-.023.487-.074.822-.001.006 2.453 1.726 2.453 1.726zm-3.678 5.549l.02-.036-.02.036zm.419-.103l-.079-.032.079.032zm-11.744 4.12l-.007-.091.007.091zm-6.726-3.973l-.014-.024.014.024zm-.296-16.049l.062-.065-.105.022.043.043zm18.443-.056l-.045.018.045-.018zm-17.797 6.242v.446c0 .221-.014.333-.074.727-.039.252-.053.39-.053.549 0 .603.014.79.081.991l.203.61-2.956 2.252 2.296 4.021 3.453-1.381.41.328c.465.372.918.628 2.008 1.173l.416.208.542 3.522h4.675l.555-3.606.521-.174c.567-.189 1.212-.582 1.89-1.124l.41-.328.487.195 2.964 1.189 2.293-4.011-3.048-2.12v-.47c0-.221.014-.333.074-.727.039-.252.053-.39.053-.549 0-.603-.014-.79-.081-.991l-.203-.61 2.956-2.252-2.296-4.021-3.453 1.381-.41-.328c-.465-.372-.918-.628-2.008-1.173l-.419-.21-.541-3.649h-4.544l-.553 3.732-.525.175c-.269.09-.544.23-.885.447-.206.131-.976.662-1.068.723l-.394.263-.44-.176-2.964-1.188-2.26 3.955 2.888 2.2zm8.536 5.284c1.926 0 3.563-1.637 3.563-3.563 0-1.926-1.637-3.563-3.563-3.563-1.926 0-3.563 1.637-3.563 3.563 0 1.926 1.637 3.563 3.563 3.563zm0 1.8c-2.92 0-5.363-2.443-5.363-5.363 0-2.92 2.443-5.363 5.363-5.363 2.92 0 5.363 2.443 5.363 5.363 0 2.92-2.443 5.363-5.363 5.363z" id="Shape" fill="#CBECF9" fill-rule="nonzero"/></g><g><path d="M334.215 93.81c0-.704.235-1.408.235-2.346 0-.939 0-1.642-.235-2.346l4.927-3.754c.469-.235.469-.939.235-1.408l-4.693-8.212c-.235-.469-.939-.704-1.408-.469l-5.866 2.346c-1.173-.939-2.581-1.642-3.989-2.346l-.939-6.335c.235-.469-.469-.939-.939-.939h-9.385c-.469 0-1.173.469-1.173.939l-.939 6.335c-1.408.469-2.581 1.408-3.989 2.346l-5.866-2.346c-.469-.235-.939 0-1.408.469l-4.693 8.212c-.235.235 0 .939.469 1.408l4.927 3.754c0 .704-.235 1.408-.235 2.346 0 .939 0 1.642.235 2.346l-4.927 3.754c-.469.235-.469.939-.235 1.408l4.693 8.212c.235.469.704.704 1.408.469l5.866-2.346c1.173.939 2.581 1.642 3.989 2.346l.939 6.101c0 .469.469.939 1.173.939h9.385c.469 0 1.173-.469 1.173-.939l.939-6.101c1.408-.469 2.816-1.408 3.989-2.346l5.866 2.346c.469.235 1.173 0 1.408-.469l4.693-8.212c.235-.469.235-1.173-.235-1.408l-5.397-3.754zm-17.363 5.866c-4.458 0-8.212-3.754-8.212-8.212s3.754-8.212 8.212-8.212 8.212 3.754 8.212 8.212-3.754 8.212-8.212 8.212z" id="Shape" fill="#E6F5FB"/><path d="M340.135 96.71c.954.536 1.076 1.768.579 2.758l-4.667 8.163c-.482.963-1.786 1.398-2.674.951l-5.333-2.133c-1.106.84-2.191 1.501-3.252 1.936l-.841 5.467c-.068 1.02-1.193 1.841-2.17 1.841h-9.385c-1.152 0-2.117-.799-2.171-1.847l-.851-5.53c-1.554-.785-2.422-1.272-3.236-1.869l-5.393 2.155c-1.121.374-2.136-.007-2.592-.922l-4.719-8.261c-.467-.935-.351-2.153.583-2.696l4.341-3.307c-.084-.477-.102-1.021-.102-1.952 0-.459.039-.827.129-1.413l.069-.466-4.497-3.426c-.866-.854-1.282-2.015-.685-2.781l4.713-8.247c.881-.881 1.748-1.206 2.581-.785l5.371 2.148c.5-.342 1.285-.878 1.581-1.066.581-.37 1.104-.657 1.628-.88l.845-5.703c.066-1.022 1.192-1.844 2.17-1.844h9.385c1.063 0 2.227.912 1.963 2.031l.827 5.582c1.552.784 2.419 1.271 3.233 1.867l5.262-2.101c.963-.482 2.268-.047 2.723.868l4.719 8.261c.467.935.351 2.153-.583 2.696l-4.341 3.307c.084.477.102 1.021.102 1.952 0 .459-.039.827-.129 1.413l-.065.439 4.88 3.395zm-.971 1.748l-.054-.032.054.032zm-44.155 0l.069-.043-.069.043zm43.686-13.99l-.069.043.069-.043zm-17.236-15.62l.018.12-.018-.12zm12.331 7.342l-.142.012-6.407 2.563-.455-.364c-.903-.723-1.764-1.209-3.774-2.215l-.503-.25-1.03-6.954c.021.013-9.319.019-9.319.019l-.163.093-.011-.155-.011.147-1.029 6.943-.583.194c-.553.184-1.103.466-1.774.892-.391.249-1.816 1.231-1.977 1.338l-.438.292-.488-.195-5.942-2.38c.032.016.004.031-.161.19l-4.549 7.96c.043.098.112.206.194.297l5.259 4.007v.495c0 .36-.023.551-.129 1.237-.076.494-.106.776-.106 1.109 0 1.181.03 1.57.235 2.346l-.051-.316.226.678-5.49 4.183c.004.052 4.74 8.382 4.74 8.382l.142-.012 6.407-2.563.455.364c.903.723 1.764 1.209 3.811 2.233l.463.231 1.017 6.612.012.152c0-.087.029-.061.173-.061h9.385l.163-.093.011.155.012-.152 1.031-6.704.579-.193c1.129-.376 2.378-1.137 3.68-2.179l.455-.364.541.216 5.942 2.38c-.025-.012 4.759-8.234 4.759-8.234l.047-.169-5.784-4.023v-.523c0-.36.023-.551.129-1.237.076-.494.106-.776.106-1.109 0-1.181-.03-1.57-.235-2.346l.051.316-.226-.678 5.496-4.187c-.01-.048-4.746-8.377-4.746-8.377zm-16.938 22.486c3.906 0 7.212-3.306 7.212-7.212 0-3.906-3.306-7.212-7.212-7.212-3.906 0-7.212 3.306-7.212 7.212 0 3.906 3.306 7.212 7.212 7.212zm0 2c-5.01 0-9.212-4.202-9.212-9.212s4.202-9.212 9.212-9.212 9.212 4.202 9.212 9.212-4.202 9.212-9.212 9.212z" fill="#CBECF9" fill-rule="nonzero"/></g></g></g></svg>