<?xml version="1.0" encoding="UTF-8"?>
<svg width="58px" height="70px" viewBox="0 0 58 70" version="1.1" xmlns="http://www.w3.org/2000/svg" xmlns:xlink="http://www.w3.org/1999/xlink">
  <g id="code1">
      <path
          d="M37.8979592,1 L3.00999791,1 C1.89990672,1 1,1.89870751 1,2.99196224 L1,66.1753847 C1,67.2755151 1.89178564,68.1673469 3.00252455,68.1673469 L54.3444142,68.1673469 C55.450378,68.1673469 56.3469388,67.2777818 56.3469388,66.1613389 L56.3469388,19.3183673 L37.8979592,1 Z"
          id="Combined-Shape"
          fill="#E6F5FB"></path>
      <path
          d="M48.9136897,11.9377431 L56.3469388,19.3183673 L56.3469388,66.1613389 C56.3469388,67.2777818 55.450378,68.1673469 54.3444142,68.1673469 L3.00252455,68.1673469 C1.89178564,68.1673469 1,67.2755151 1,66.1753847 L1,62.0612245 L46.6573394,62.0612245 C47.7633032,62.0612245 48.664415,61.162517 48.6699513,60.0692623 L48.9136897,11.9377431 L48.9136897,11.9377431 Z"
          id="Combined-Shape"
          fill="#CBECF9"></path>
      <path d="M56.3469388,19.3183673 L39.9074434,19.3183673 C38.7976359,19.3183673 37.8979592,18.4224339 37.8979592,17.3231096 L37.8979592,1" id="Rectangle-21" fill="#97D9F2"></path>
      <path
          d="M26.6503574,43.601981 L26.6503574,45.4527503 L25.1865102,45.4527503 C23.5665111,45.4527503 22.4816485,45.2137354 21.9318897,44.7356983 C21.382131,44.2576613 21.1072558,43.3048315 21.1072558,41.8771803 L21.1072558,39.7938536 C21.1072558,38.8183997 20.9332224,38.1449589 20.5851503,37.7735112 C20.2370782,37.4020635 19.6076302,37.2163425 18.6967873,37.2163425 L18.0917304,37.2163425 L18.0917304,35.3655732 L18.6967873,35.3655732 C19.6076302,35.3655732 20.2370782,35.1814671 20.5851503,34.8132494 C20.9332224,34.4450316 21.1072558,33.7699759 21.1072558,32.788062 L21.1072558,30.7047353 C21.1072558,29.2770842 21.382131,28.3258693 21.9318897,27.8510623 C22.4816485,27.3762552 23.5665111,27.1388552 25.1865102,27.1388552 L26.6503574,27.1388552 L26.6503574,28.9799346 L25.4500027,28.9799346 C24.7733765,28.9799346 24.3212149,29.1155918 24.0935042,29.3869101 C23.8657935,29.6582284 23.7519398,30.2557657 23.7519398,31.17954 L23.7519398,33.2047274 C23.7519398,34.2706208 23.5925447,35.0199649 23.2737497,35.4527822 C22.9549547,35.8855995 22.3856865,36.1633736 21.5659279,36.2861129 C22.3856865,36.421772 22.9549547,36.709236 23.2737497,37.1485132 C23.5925447,37.5877905 23.7519398,38.3371346 23.7519398,39.3965681 L23.7519398,41.3829959 C23.7519398,42.3132301 23.8657935,42.9156123 24.0935042,43.1901606 C24.3212149,43.4647089 24.7733765,43.601981 25.4500027,43.601981 L26.6503574,43.601981 Z M30.1635908,43.601981 L31.3444276,43.601981 C32.0210537,43.601981 32.4764683,43.463094 32.7106851,43.1853157 C32.9449018,42.9075374 33.0620084,42.3067701 33.0620084,41.3829959 L33.0620084,39.3965681 C33.0620084,38.3371346 33.2214035,37.5877905 33.5401985,37.1485132 C33.8589935,36.709236 34.4250088,36.421772 35.2382613,36.2861129 C34.4185028,36.1633736 33.850861,35.8855995 33.535319,35.4527822 C33.219777,35.0199649 33.0620084,34.2706208 33.0620084,33.2047274 L33.0620084,31.17954 C33.0620084,30.2686857 32.9465283,29.6743782 32.7155645,29.3966 C32.4846008,29.1188217 32.0275598,28.9799346 31.3444276,28.9799346 L30.1635908,28.9799346 L30.1635908,27.1388552 L31.6274381,27.1388552 C33.2409311,27.1388552 34.3192878,27.3762552 34.8625405,27.8510623 C35.4057932,28.3258693 35.6774155,29.2770842 35.6774155,30.7047353 L35.6774155,32.788062 C35.6774155,33.763516 35.8547019,34.4369567 36.20928,34.8084044 C36.5638581,35.1798521 37.1998121,35.3655732 38.1171609,35.3655732 L38.7222178,35.3655732 L38.7222178,37.2163425 L38.1171609,37.2163425 C37.1998121,37.2163425 36.5638581,37.4036785 36.20928,37.7783562 C35.8547019,38.1530339 35.6774155,38.8248596 35.6774155,39.7938536 L35.6774155,41.8771803 C35.6774155,43.3048315 35.4057932,44.2576613 34.8625405,44.7356983 C34.3192878,45.2137354 33.2409311,45.4527503 31.6274381,45.4527503 L30.1635908,45.4527503 L30.1635908,43.601981 Z"
          id="{}"
          fill="#97D9F2"></path>
      <path
          d="M38.3100933,0 L57.3469388,18.9020713 L57.3469388,66.1613389 C57.3469388,67.8273834 56.0053499,69.1673469 54.3444142,69.1673469 L3.00252455,69.1673469 C1.34196328,69.1673469 0,67.8302595 0,66.1753847 L0,2.99196224 C0,1.34255804 1.3514916,0 3.00999791,0 L38.3100933,0 Z M3.00999791,2 C2.45310274,2 2,2.45010767 2,2.99196224 L2,66.1753847 C2,66.7240571 2.44490639,67.1673469 3.00252455,67.1673469 L54.3444142,67.1673469 C54.9013228,67.1673469 55.3469388,66.7222708 55.3469388,66.1613389 L55.3469388,19.7346634 L37.485825,2 L3.00999791,2 Z M56.3469388,18.3183673 L56.3469388,20.3183673 L39.9074434,20.3183673 C38.247646,20.3183673 36.8979592,18.9770174 36.8979592,17.3231096 L36.8979592,1 L38.8979592,1 L38.8979592,17.3231096 C38.8979592,17.8696644 39.349451,18.3183673 39.9074434,18.3183673 L56.3469388,18.3183673 Z"
          id="Combined-Shape"
          fill="#00A1DE"
          fill-rule="nonzero"></path>
  </g>
</svg>
