<?xml version="1.0" encoding="UTF-8"?>
<svg width="404px" height="233px" viewBox="0 0 404 233" version="1.1" xmlns="http://www.w3.org/2000/svg" xmlns:xlink="http://www.w3.org/1999/xlink">
    <!-- Generator: Sketch 43.2 (39069) - http://www.bohemiancoding.com/sketch -->
    <title>img_mac</title>
    <desc>Created with Sketch.</desc>
    <defs>
        <path d="M0,0.416347216 C0,0.186404998 0.184845923,0 0.416211497,0 L299.42762,0 C299.657487,0 299.843831,0.186193687 299.843831,0.416347216 L299.843831,186.986047 C299.843831,187.21599 299.658985,187.402395 299.42762,187.402395 L0.416211497,187.402395 C0.186344234,187.402395 0,187.216201 0,186.986047 L0,0.416347216 Z" id="path-1"></path>
        <filter x="-6.0%" y="-6.3%" width="112.1%" height="119.2%" filterUnits="objectBoundingBox" id="filter-3">
            <feOffset dx="0" dy="5" in="SourceAlpha" result="shadowOffsetOuter1"></feOffset>
            <feGaussianBlur stdDeviation="4" in="shadowOffsetOuter1" result="shadowBlurOuter1"></feGaussianBlur>
            <feColorMatrix values="0 0 0 0 0   0 0 0 0 0   0 0 0 0 0  0 0 0 0.1 0" type="matrix" in="shadowBlurOuter1" result="shadowMatrixOuter1"></feColorMatrix>
            <feMerge>
                <feMergeNode in="shadowMatrixOuter1"></feMergeNode>
                <feMergeNode in="SourceGraphic"></feMergeNode>
            </feMerge>
        </filter>
        <linearGradient x1="50%" y1="0%" x2="50%" y2="100%" id="linearGradient-4">
            <stop stop-color="#F5F5F5" offset="0%"></stop>
            <stop stop-color="#EBEBEB" offset="100%"></stop>
        </linearGradient>
        <rect id="path-5" x="0" y="0" width="47.953668" height="6.02316602" rx="1"></rect>
        <filter x="-2.1%" y="-8.3%" width="104.2%" height="133.2%" filterUnits="objectBoundingBox" id="filter-6">
            <feOffset dx="0" dy="0.5" in="SourceAlpha" result="shadowOffsetOuter1"></feOffset>
            <feGaussianBlur stdDeviation="0.25" in="shadowOffsetOuter1" result="shadowBlurOuter1"></feGaussianBlur>
            <feColorMatrix values="0 0 0 0 0.88   0 0 0 0 0.88   0 0 0 0 0.88  0 0 0 1 0" type="matrix" in="shadowBlurOuter1"></feColorMatrix>
        </filter>
        <linearGradient x1="50%" y1="0%" x2="50%" y2="100%" id="linearGradient-7">
            <stop stop-color="#F39A1E" offset="0%"></stop>
            <stop stop-color="#FFFFFF" offset="100%"></stop>
        </linearGradient>
    </defs>
    <g id="landing-page" stroke="none" stroke-width="1" fill="none" fill-rule="evenodd">
        <g id="Lite_landing-page_web_1024" transform="translate(-310.000000, -775.000000)">
            <g id="section_2" transform="translate(0.000000, 493.000000)">
                <g id="img" transform="translate(42.000000, 283.000000)">
                    <g id="img_mac" transform="translate(270.000000, 0.000000)">
                        <g id="mac">
                            <g id="Body">
                                <path d="M40.0830222,222.071838 C38.0131804,222.071838 36.3352421,220.393137 36.3352421,218.323873 L36.3352421,12.3890383 C36.3352421,5.60426108 41.8374715,0.104112441 48.6202636,0.104112441 L351.171511,0.104112441 C357.956342,0.104112441 363.456533,5.60480603 363.456533,12.3890383 L363.456533,218.323873 C363.456533,220.393817 361.779312,222.071838 359.708753,222.071838 L40.0830222,222.071838 Z" id="Combined-Shape" stroke="#D1D2D3" stroke-width="1.5" fill="#FAFAFA"></path>
                                <g id="Group" transform="translate(198.230088, 8.120770)">
                                    <path d="M1.87402395,2.70692348 C1.29994794,2.70692348 0.832899531,2.23987507 0.832899531,1.66579906 C0.832899531,1.09172306 1.29994794,0.624674649 1.87402395,0.624674649 C2.44809995,0.624674649 2.91514836,1.09172306 2.91514836,1.66579906 C2.91514836,2.23987507 2.44809995,2.70692348 1.87402395,2.70692348" id="Fill-9" fill="#D1D2D3"></path>
                                    <path d="M1.66579906,0 C0.747229865,0 0,0.747229865 0,1.66579906 C0,2.58436826 0.747229865,3.33159813 1.66579906,3.33159813 C2.58436826,3.33159813 3.33159813,2.58436826 3.33159813,1.66579906 C3.33159813,0.747229865 2.58436826,0 1.66579906,0 M1.66579906,0.951885179 C2.0601175,0.951885179 2.37971295,1.27148063 2.37971295,1.66579906 C2.37971295,2.0601175 2.0601175,2.37971295 1.66579906,2.37971295 C1.27148063,2.37971295 0.951885179,2.0601175 0.951885179,1.66579906 C0.951885179,1.27148063 1.27148063,0.951885179 1.66579906,0.951885179" id="Fill-11" fill="#F2F2F2"></path>
                                </g>
                                <path d="M49.765747,18.113638 C49.765747,17.8847033 49.9511064,17.699115 50.1807837,17.699115 L350.027441,17.699115 C350.25666,17.699115 350.442478,17.8861363 350.442478,18.113638 L350.442478,205.519886 C350.442478,205.748821 350.257118,205.934409 350.027441,205.934409 L50.1807837,205.934409 C49.9515653,205.934409 49.765747,205.747388 49.765747,205.519886 L49.765747,18.113638 Z" id="Combined-Shape" fill="#DEDEDE"></path>
                                <g id="Group-2" transform="translate(0.000000, 222.592400)">
                                    <path d="M0.626456894,4.85913483e-08 L399.285292,0.19036292 C399.515647,0.190472917 399.703524,0.37693556 399.703524,0.60683822 L399.703524,2.56478928 C383.672648,7.55486606 335.658511,7.28767124 335.658511,7.28767124 C335.658511,7.28767124 89.6424388,7.22422772 50.3904217,7.28767124 C11.243737,6.76100869 0.208224883,2.73153186 0.208224883,2.73153186 L0.208224883,0.41469156 C0.208224883,0.18756331 0.395473732,-0.000110247768 0.626456894,4.85913483e-08 Z" id="Combined-Shape" stroke="#D1D2D3" stroke-width="3"></path>
                                    <path d="M400,2.49869859 C400,2.49869859 395.880425,7.49609578 310.370033,7.31761731 C282.181099,7.25878098 241.793089,7.25765813 200.312337,7.28259157 C158.342083,7.25765453 117.866027,7.25868249 89.6299185,7.31761731 C4.11957279,7.49609578 0,2.49869859 0,2.49869859 L400,2.49869859 Z" id="Combined-Shape" fill="#D1D2D3"></path>
                                    <path d="M0,0.418225966 C0,0.187246143 0.184493756,0 0.416062718,0 L399.583937,0 C399.813722,0 400,0.187808508 400,0.418225966 L400,2.49869859 L0,2.49869859 L0,0.418225966 Z" id="Combined-Shape" fill="#FAFAFA"></path>
                                    <path d="M162.207184,0 L238.001041,0 L238.001041,2.49869859 C238.001041,2.49869859 228.454418,3.33159813 200.253774,3.33159813 C172.05313,3.33159813 162.207184,2.49869859 162.207184,2.49869859 L162.207184,0 Z" id="Combined-Shape" fill="#DEDEDE"></path>
                                </g>
                            </g>
                            <g id="Screen" transform="translate(50.182197, 18.115565)">
                                <mask id="mask-2" fill="white">
                                    <use xlink:href="#path-1"></use>
                                </mask>
                                <use id="Combined-Shape" fill="#75868C" xlink:href="#path-1"></use>
                            </g>
                        </g>
                        <g id="window" filter="url(#filter-3)" transform="translate(80.000000, 36.000000)">
                            <rect id="Rectangle-60" fill="#FFFFFF" x="45" y="14.5945946" width="195" height="128.803089"></rect>
                            <rect id="Rectangle-64" fill="#F8F8F8" x="0" y="14.3629344" width="45" height="129.266409"></rect>
                            <g id="Bottom-bar" transform="translate(0.000000, 143.397683)" fill-opacity="0.899999976" fill="url(#linearGradient-4)">
                                <path d="M0,0 L0,4.48739899 C0,5.59146453 0.893045459,6.48648649 2.00272724,6.48648649 L237.997273,6.48648649 C239.103348,6.48648649 240,5.58456833 240,4.48739899 L240,0 L0,0 Z" id="Rectangle-61"></path>
                            </g>
                            <g id="Header-Bar">
                                <path d="M2.00272724,0 C0.896651527,0 0,0.890987572 0,1.99871452 L0,14.5945946 L240,14.5945946 L240,1.99871452 C240,0.894854973 239.106955,0 237.997273,0 L2.00272724,0 Z" id="Rectangle-46" fill-opacity="0.899999976" fill="url(#linearGradient-4)"></path>
                                <g id="ooo" transform="translate(3.011583, 2.779923)">
                                    <circle id="Red" fill="#FF5858" cx="1.62162162" cy="1.62162162" r="1.62162162"></circle>
                                    <circle id="Yellow" fill="#FFCE55" cx="6.71814672" cy="1.62162162" r="1.62162162"></circle>
                                    <circle id="Green" fill="#58D65B" cx="11.8146718" cy="1.62162162" r="1.62162162"></circle>
                                </g>
                                <g id="Search-field" transform="translate(189.034749, 6.718147)">
                                    <g id="Rectangle-47">
                                        <use fill="black" fill-opacity="1" filter="url(#filter-6)" xlink:href="#path-5"></use>
                                        <use fill="#FFFFFF" fill-rule="evenodd" xlink:href="#path-5"></use>
                                    </g>
                                </g>
                            </g>
                        </g>
                        <g id="icon" transform="translate(135.000000, 47.000000)">
                            <g id="icon_mcs_lite" transform="translate(25.000000, 25.000000)">
                                <path d="M80,40 C80,62.0911111 62.0915556,80 40,80 C17.9084444,80 0,62.0911111 0,40 C0,17.9084444 17.9084444,0 40,0 C62.0915556,0 80,17.9084444 80,40" id="bg" fill="#00A1DE"></path>
                                <g id="mcs-lite" transform="translate(12.000000, 14.400000)">
                                    <g id="logo" transform="translate(0.000000, 40.800000)">
                                        <g id="mcs" fill="#FFFFFF">
                                            <path d="M3.29689412,5.17247059 C3.19343193,5.21381513 2.5656,5.33784874 2.0136,5.33784874 C0.737163025,5.33784874 0.0266420168,4.66867227 0.0266420168,3.33697479 C0.0266420168,1.84695798 0.826910924,0.321848739 2.77958319,0.321848739 C3.1176,0.321848739 3.73151597,0.377310924 4.02818824,0.487630252 L3.90415462,1.09468908 C3.76620504,1.04648739 3.37272605,0.922252101 2.83464202,0.922252101 C1.35813782,0.922252101 0.709532773,1.99862185 0.709532773,3.22685714 C0.709532773,4.31008403 1.24096134,4.73784874 2.17917983,4.73784874 C2.60694454,4.73784874 3.09682689,4.65495798 3.37272605,4.56521008 L3.29689412,5.17247059 Z" id="Fill-1"></path>
                                            <path d="M5.70455798,5.20693782 C5.53897815,5.26905546 5.32499496,5.33782857 5.02832269,5.33782857 C4.55921345,5.33782857 4.23491092,5.1309042 4.23491092,4.6686521 C4.23491092,4.61359328 4.24196975,4.53776134 4.24882689,4.48229916 L4.91800336,0.225223529 L5.5666084,0.225223529 L4.91114622,4.35826555 C4.91114622,4.35826555 4.90428908,4.42724034 4.90428908,4.45487059 C4.90428908,4.7031395 5.00775126,4.77917311 5.28365042,4.77917311 C5.44923025,4.77917311 5.62166723,4.73097143 5.75961681,4.68236639 L5.70455798,5.20693782 Z" id="Fill-4"></path>
                                            <path d="M7.84317983,4.77915294 C8.67107899,4.77915294 9.22993613,4.0960605 9.22993613,3.1162958 C9.22993613,2.39185882 8.85743193,2.11595966 8.33306218,2.11595966 C7.53965042,2.11595966 6.95316303,2.73693445 6.93238992,3.77861513 C6.93238992,4.31690084 7.11874286,4.77915294 7.84317983,4.77915294 M6.2908437,3.83387563 C6.2908437,2.58506891 7.09796975,1.56395966 8.35383529,1.56395966 C9.33339832,1.56395966 9.87854118,2.09518655 9.87854118,3.05417815 C9.87854118,4.34453109 9.07121345,5.33801008 7.78791933,5.33801008 C6.84970084,5.32409412 6.2908437,4.82735462 6.2908437,3.83387563" id="Fill-6"></path>
                                            <path d="M13.3763092,5.26899496 L12.8450824,5.26899496 L12.9622588,4.16499496 C12.5139227,4.86180168 11.9342924,5.33796975 11.2582588,5.33796975 C10.6717714,5.33796975 10.3888134,4.94489412 10.3888134,4.35820504 C10.3888134,4.24788571 10.3956706,4.13756639 10.4164437,4.01312941 L10.7960067,1.6330958 L11.4375529,1.6330958 L11.078763,3.89595294 C11.0579899,4.00627227 11.0511328,4.11679328 11.0511328,4.22025546 C11.0511328,4.5308437 11.1477378,4.76539832 11.4514689,4.76539832 C11.9480067,4.76539832 12.624242,4.04761681 13.0520067,3.24049076 L13.3073345,1.6330958 L13.9559395,1.6330958 L13.3763092,5.26899496 Z" id="Fill-9"></path>
                                            <path d="M17.1085714,3.24744874 L17.2672941,2.21928067 C17.1017143,2.14344874 16.7774118,2.09524706 16.5289412,2.09524706 C15.3837983,2.09524706 15.0732101,3.12321345 15.0732101,3.82687731 C15.0732101,4.36516303 15.2527059,4.76529748 15.5768067,4.76529748 C16.0392605,4.76529748 16.7221513,3.94425546 17.1085714,3.24744874 M14.4177479,3.90291092 C14.4177479,2.88865882 14.9352605,1.56381849 16.5428571,1.56381849 C16.8463866,1.56381849 17.1569748,1.61222185 17.3638992,1.65376807 L17.4260168,1.17739832 L17.5778824,0.225263866 L18.2262857,0.225263866 L17.4260168,5.26889412 L16.8877311,5.26889412 L17.0190252,4.1650958 C16.6394622,4.79292773 16.0666891,5.33786891 15.4457143,5.33786891 C14.7628235,5.33786891 14.4177479,4.72395294 14.4177479,3.90291092" id="Fill-12"></path>
                                            <path d="M19.8612101,4.48235966 C19.9301849,4.53762017 20.6338487,4.73788908 21.3377143,4.73788908 C22.1587563,4.73788908 22.7176134,4.41338487 22.7176134,3.88921681 C22.7176134,2.81284706 20.22,3.32330084 20.22,1.8054521 C20.22,0.86017479 21.0547563,0.321889076 22.303563,0.321889076 C23.0211429,0.321889076 23.5868571,0.508242017 23.7248067,0.556443697 L23.5937143,1.1637042 C23.3178151,1.02575462 22.7105546,0.915233613 22.2277311,0.915233613 C21.5101513,0.915233613 20.8891765,1.19839328 20.8891765,1.70884706 C20.8891765,2.70232605 23.3938487,2.19187227 23.3938487,3.80612437 C23.3938487,4.82057815 22.5381176,5.33788908 21.2616807,5.33788908 C20.4408403,5.33788908 19.7301176,5.11704874 19.7301176,5.11704874 L19.8612101,4.48235966 Z" id="Fill-15"></path>
                                            <path d="M26.718837,3.24744874 L26.877358,2.21928067 C26.7119798,2.14344874 26.3874756,2.09524706 26.1392067,2.09524706 C24.9938622,2.09524706 24.6832739,3.12321345 24.6832739,3.82687731 C24.6832739,4.36516303 24.8627697,4.76529748 25.1870723,4.76529748 C25.6493244,4.76529748 26.3324168,3.94425546 26.718837,3.24744874 M24.0280134,3.90291092 C24.0280134,2.88865882 24.5729546,1.56381849 26.1805513,1.56381849 C26.8291563,1.56381849 27.3258958,1.69511261 27.5882824,1.76408739 L27.0360807,5.26889412 L26.4979966,5.26889412 L26.6290891,4.1650958 C26.2497277,4.79292773 25.6769546,5.33786891 25.0559798,5.33786891 C24.3728874,5.33786891 24.0280134,4.72395294 24.0280134,3.90291092" id="Fill-18"></path>
                                            <path d="M28.5952134,1.63301513 L29.1264403,1.63301513 L29.0092639,2.73701513 C29.4576,2.04000672 30.0370286,1.56383866 30.7132639,1.56383866 C31.2997513,1.56383866 31.5827092,1.95711597 31.5827092,2.54380504 C31.5827092,2.65392269 31.5756504,2.7644437 31.555079,2.88867899 L31.1757176,5.26891429 L30.5339697,5.26891429 L30.8927597,3.00605714 C30.9133311,2.89553613 30.9201882,2.78521681 30.9201882,2.68155294 C30.9201882,2.37116639 30.8237849,2.13661176 30.5202555,2.13661176 C30.0233143,2.13661176 29.3472807,2.8541916 28.9193143,3.66151933 L28.6641882,5.26891429 L28.0155832,5.26891429 L28.5952134,1.63301513 Z" id="Fill-21"></path>
                                            <path d="M34.9010824,3.24744874 L35.0596034,2.21928067 C34.8942252,2.14344874 34.569721,2.09524706 34.3214521,2.09524706 C33.1761076,2.09524706 32.8655193,3.12321345 32.8655193,3.82687731 C32.8655193,4.36516303 33.0450151,4.76529748 33.3693176,4.76529748 C33.8315697,4.76529748 34.5146622,3.94425546 34.9010824,3.24744874 M32.2100571,3.90291092 C32.2100571,2.88865882 32.7277714,1.56381849 34.3351664,1.56381849 C34.6386958,1.56381849 34.949284,1.61222185 35.1564101,1.65376807 L35.2183261,1.17739832 L35.3701916,0.225263866 L36.0187966,0.225263866 L35.2183261,5.26889412 L34.680242,5.26889412 L34.8113345,4.1650958 C34.4319731,4.79292773 33.8592,5.33786891 33.2382252,5.33786891 C32.5551328,5.33786891 32.2100571,4.72395294 32.2100571,3.90291092" id="Fill-23"></path>
                                            <path d="M37.094763,3.65456134 L36.936242,4.68252773 C37.1016202,4.75856134 37.4261244,4.80676303 37.6743933,4.80676303 C38.8197378,4.80676303 39.1301244,3.77859496 39.1301244,3.07493109 C39.1301244,2.53684706 38.9508303,2.13671261 38.6265277,2.13671261 C38.1642756,2.13671261 37.4811832,2.95775462 37.094763,3.65456134 M39.7855866,2.99909916 C39.7855866,4.01314958 39.2406454,5.33798992 37.6330487,5.33798992 C36.9844437,5.33798992 36.4806454,5.20689748 36.2184605,5.13772101 L36.998158,0.225183193 L37.6399059,0.225183193 L37.3361748,2.12965378 L37.2258555,2.65402353 C37.6122756,2.06067899 38.1711328,1.5639395 38.7576202,1.5639395 C39.4544269,1.5639395 39.7855866,2.17805714 39.7855866,2.99909916" id="Fill-26"></path>
                                            <path d="M41.827563,4.77915294 C42.6554622,4.77915294 43.214521,4.0960605 43.214521,3.1162958 C43.214521,2.39185882 42.8418151,2.11595966 42.3176471,2.11595966 C41.5240336,2.11595966 40.9375462,2.73693445 40.9167731,3.77861513 C40.9167731,4.31690084 41.1031261,4.77915294 41.827563,4.77915294 M40.2752269,3.83387563 C40.2752269,2.58506891 41.0825546,1.56395966 42.3382185,1.56395966 C43.3179832,1.56395966 43.8631261,2.09518655 43.8631261,3.05417815 C43.8631261,4.34453109 43.0557983,5.33801008 41.7725042,5.33801008 C40.834084,5.32409412 40.2752269,4.82735462 40.2752269,3.83387563" id="Fill-29"></path>
                                            <polygon id="Fill-32" points="46.4636571 5.26899496 45.7460773 3.9443563 44.5870185 5.26899496 43.8627832 5.26899496 45.4496067 3.44761681 44.4627832 1.6330958 45.194279 1.6330958 45.918716 2.98536471 47.0914891 1.6330958 47.8024134 1.6330958 46.2014723 3.45447395 47.2020101 5.26899496"></polygon>
                                        </g>
                                        <g id="lite" transform="translate(48.800000, 0.000000)" fill="#F39A1E">
                                            <path d="M0.32,0.396566393 L0.32,3.58743362 C0.32,3.62688628 0.357229367,3.66400002 0.400565112,3.66400002 L6.4954348,3.66400002 C6.54167936,3.66400002 6.57599991,3.62990772 6.57599991,3.58743362 L6.57599991,0.396566393 C6.57599991,0.357113736 6.53877054,0.32 6.4954348,0.32 L0.400565112,0.32 C0.354320546,0.32 0.32,0.354092299 0.32,0.396566393 Z M0,0.396566393 C0,0.177548822 0.177393789,0 0.400565112,0 L6.4954348,0 C6.7166608,0 6.89599991,0.181536696 6.89599991,0.396566393 L6.89599991,3.58743362 C6.89599991,3.80645119 6.71860612,3.98400002 6.4954348,3.98400002 L0.400565112,3.98400002 C0.179339109,3.98400002 0,3.80246332 0,3.58743362 L0,0.396566393 Z" id="Rectangle-2" fill-rule="nonzero"></path>
                                            <path d="M2.2624,3.1488 L2.2624,2.784 L1.2032,2.784 L1.2032,0.8864 L0.8,0.8864 L0.8,3.1488 L2.2624,3.1488 Z M2.9408,3.1488 L2.9408,1.4624 L2.5536,1.4624 L2.5536,3.1488 L2.9408,3.1488 Z M2.9728,1.0112 C2.9728,0.8896 2.9088,0.8 2.7488,0.8 C2.5824,0.8 2.5216,0.8896 2.5216,1.0112 C2.5216,1.1328 2.5824,1.2224 2.7488,1.2224 C2.9088,1.2224 2.9728,1.1296 2.9728,1.0112 Z M4.3328,2.7744 C4.2592,2.8128 4.1664,2.8384 4.08,2.8384 C3.9488,2.8384 3.8336,2.8064 3.8336,2.6304 L3.8336,1.7728 L4.3008,1.7728 L4.3168,1.4624 L3.8336,1.4624 L3.8336,1.056 L3.4976,1.056 L3.4528,1.4624 L3.2256,1.4624 L3.2256,1.7728 L3.4464,1.7728 L3.4464,2.6688 C3.4464,3.0624 3.6832,3.184 3.9488,3.184 C4.0896,3.184 4.224,3.152 4.3456,3.1072 L4.3328,2.7744 Z M6.0608,2.7648 L6.0576,3.0752 C5.9104,3.1328 5.6544,3.184 5.424,3.184 C4.8416,3.184 4.5664,2.8672 4.5664,2.3232 C4.5664,1.76 4.848,1.4272 5.3632,1.4272 C5.8976,1.4272 6.096,1.7504 6.096,2.1408 C6.096,2.224 6.0864,2.32 6.0704,2.4032 L4.96,2.4032 C4.9792,2.7328 5.1456,2.864 5.4752,2.864 C5.728,2.864 5.9776,2.7904 6.0608,2.7648 Z M5.712,2.1472 L5.712,2.112 C5.712,1.8752 5.6,1.728 5.3664,1.728 C5.136,1.728 4.9856,1.8656 4.9632,2.1472 L5.712,2.1472 Z" id="Lite"></path>
                                        </g>
                                    </g>
                                    <g id="mtk-cloud">
                                        <g id="bg_cloud" fill="#FFFFFF">
                                            <path d="M11.2,36.8 C5.0144108,36.8 0,31.7855892 0,25.6 C0,20.8085492 3.0087896,16.719839 7.24006834,15.1201696 C7.21359536,14.8837669 7.2,14.6434712 7.2,14.4 C7.2,10.8653776 10.0653776,8 13.6,8 C16.1992163,8 18.4365366,9.54946104 19.4386743,11.7750965 C20.672581,5.07556849 26.5435592,0 33.6,0 C41.5529004,0 48,6.4470996 48,14.4 C48,14.5544627 47.997568,14.7083575 47.9927402,14.861648 C52.6228526,16.236202 56,20.5237135 56,25.6 C56,31.7855892 50.9855892,36.8 44.8,36.8 L11.2,36.8 Z" id="Combined-Shape"></path>
                                        </g>
                                        <g id="mtk" transform="translate(8.000000, 20.000000)">
                                            <g fill="#F39A1E">
                                                <polygon id="Fill-30" points="35.4099462 5.38776327 36.722036 5.38776327 36.722036 0.720179649 35.4099462 0.720179649"></polygon>
                                                <polygon id="Fill-32" points="38.6093343 3.0594051 38.606662 3.0594051 38.6093343 3.04871598 39.9561637 0.720268725 38.6440739 0.720268725 37.2967991 3.04871598 37.3039251 3.0594051 37.2967991 3.0594051 38.6440739 5.38785235 39.9561637 5.38785235"></polygon>
                                                <polygon id="Fill-33" points="24.1314073 0.720491415 23.6290186 0.720491415 23.287412 0.720491415 23.077638 0.720491415 20.3826429 5.38762966 21.7098756 5.38762966 23.6290186 2.06464861 23.6290186 5.38762966 24.9562513 5.38762966 24.9562513 0.720491415 24.2431978 0.720491415"></polygon>
                                                <polygon id="Fill-34" points="9.75507163 3.44216477 11.82119 3.44216477 12.2683516 2.67700173 10.1728382 2.67700173"></polygon>
                                                <path d="M9.3327622,2.49052108 L9.33409834,2.49052108 C9.33409834,1.9008378 9.51046887,1.6790385 10.0841185,1.6790385 L11.9515973,1.6790385 L12.510104,0.711672889 L9.88859658,0.711672889 C8.77202863,0.711672889 8.03403378,1.10316201 8.03403378,2.51768926 L8.03403378,5.39707172 L12.0682869,5.39707172 L12.6267935,4.42970611 L9.3327622,4.42970611 L9.3327622,2.49052108 Z" id="Fill-35"></path>
                                                <polygon id="Fill-36" points="32.0082219 3.44216477 34.0747857 3.44216477 34.5219473 2.67700173 32.4255431 2.67700173"></polygon>
                                                <path d="M31.6311186,2.49052108 L31.6324547,2.49052108 C31.6324547,1.9008378 31.8088253,1.6790385 32.3829202,1.6790385 L34.2499537,1.6790385 L34.8093511,0.711672889 L32.1873984,0.711672889 C31.070385,0.711672889 30.3328356,1.10316201 30.3328356,2.51768926 L30.3328356,5.39707172 L34.3666433,5.39707172 L34.9251499,4.42970611 L31.6311186,4.42970611 L31.6311186,2.49052108 Z" id="Fill-37"></path>
                                                <polygon id="Fill-38" points="25.5354236 1.69150915 27.1677418 1.69150915 27.1677418 5.38771874 28.452218 5.38771874 28.452218 1.69150915 29.6605343 1.69150915 30.2208225 0.720580491 26.0966026 0.720580491"></polygon>
                                                <path d="M15.3308298,4.4312204 L14.6182217,4.4312204 L14.6182217,1.67698975 L15.3308298,1.67698975 C16.3681201,1.67698975 16.693693,1.86004098 16.693693,3.01892005 C16.693693,4.17779911 16.3681201,4.4312204 15.3308298,4.4312204 M15.6100832,0.711405661 L13.3600228,0.711405661 L13.3600228,5.39680449 L15.6706549,5.39680449 C17.2931746,5.39680449 18.0231527,4.77104543 18.0231527,3.01758391 C18.0231527,1.35943373 17.3003007,0.711405661 15.6100832,0.711405661" id="Fill-39"></path>
                                                <polygon id="Fill-40" points="18.7558475 5.38776327 20.0679373 5.38776327 20.0679373 0.720625029 18.7558475 0.720625029"></polygon>
                                                <polygon id="Fill-41" points="4.37986807 3.0924523 4.37986807 0.720357801 2.81970152 0.725256982 0.127824094 5.38304225 1.41497263 5.38304225 3.06777825 2.52414727 3.06777825 5.3638909 3.05664374 5.38304225 3.06777825 5.38304225 3.06777825 5.38794143 4.37986807 5.38794143 5.99615251 2.52414727 5.99615251 5.38794143 7.30868772 5.38794143 7.30868772 0.720357801 5.74807579 0.725256982"></polygon>
                                            </g>
                                            <g id="shadows" transform="translate(0.000000, 5.726316)" fill="url(#linearGradient-7)" opacity="0.1">
                                                <polygon id="Fill-42" points="35.4099462 4.95529918 36.722036 4.95529918 36.722036 0.287715556 35.4099462 0.287715556"></polygon>
                                                <polygon id="Fill-44" points="38.6091116 2.61571743 38.6068847 2.61571743 38.6091116 2.62729731 39.9563864 4.95529918 38.6442966 4.95529918 37.2965764 2.62729731 37.3041478 2.61571743 37.2965764 2.61571743 38.6442966 0.287715556 39.9563864 0.287715556"></polygon>
                                                <polygon id="Fill-46" points="24.1315855 4.9548538 23.6291967 4.9548538 23.2875902 4.9548538 23.0773708 4.9548538 20.3823757 0.287715556 21.7100538 0.287715556 23.6291967 3.61114199 23.6291967 0.287715556 24.9559841 0.287715556 24.9559841 4.9548538 24.2433759 4.9548538"></polygon>
                                                <polygon id="Fill-48" points="9.7551607 2.23358129 11.8212791 2.23358129 12.2684407 2.99918971 10.1729273 2.99918971"></polygon>
                                                <path d="M9.33294035,3.1853586 L9.33427649,3.18491322 C9.33427649,3.77504187 9.51064702,3.99639579 10.0842966,3.99639579 L11.9513301,3.99639579 L12.5098367,4.96420678 L9.88832936,4.96420678 C8.7717614,4.96420678 8.03421193,4.57271766 8.03421193,3.15774503 L8.03421193,0.278807953 L12.0680196,0.278807953 L12.6265263,1.24617357 L9.33294035,1.24617357 L9.33294035,3.1853586 Z" id="Fill-50"></path>
                                                <polygon id="Fill-52" points="32.0081329 2.23358129 34.0746966 2.23358129 34.5218582 2.99918971 32.4258994 2.99918971"></polygon>
                                                <path d="M31.6313413,3.1853586 L31.632232,3.18491322 C31.632232,3.77504187 31.809048,3.99639579 32.3831429,3.99639579 L34.249731,3.99639579 L34.8091284,4.96420678 L32.1876211,4.96420678 C31.0706077,4.96420678 30.3326129,4.57271766 30.3326129,3.15774503 L30.3326129,0.278807953 L34.3664206,0.278807953 L34.9253726,1.24617357 L31.6313413,1.24617357 L31.6313413,3.1853586 Z" id="Fill-54"></path>
                                                <polygon id="Fill-56" points="25.5354236 3.98392515 27.1677418 3.98392515 27.1677418 0.287715556 28.452218 0.287715556 28.452218 3.98392515 29.6605343 3.98392515 30.2208225 4.9548538 26.0966026 4.9548538"></polygon>
                                                <path d="M16.6932922,2.6566924 C16.6932922,3.81557146 16.3681647,3.99862269 15.3308744,3.99862269 L14.6182662,3.99862269 L14.6182662,1.24394667 L15.3308744,1.24394667 C16.3681647,1.24394667 16.6932922,1.49781333 16.6932922,2.6566924 M18.0231972,2.65802854 C18.0231972,0.904121637 17.2932192,0.278807953 15.6706994,0.278807953 L13.3600674,0.278807953 L13.3600674,4.96420678 L15.6101277,4.96420678 C17.3003453,4.96420678 18.0231972,4.31662409 18.0231972,2.65802854" id="Fill-58"></path>
                                                <polygon id="Fill-60" points="18.7558475 4.9548538 20.0679373 4.9548538 20.0679373 0.287715556 18.7558475 0.287715556"></polygon>
                                                <polygon id="Fill-62" points="4.37986807 2.5827593 4.37986807 4.9548538 2.81970152 4.9504 0.127824094 0.292614737 1.41497263 0.292614737 3.06777825 3.15150971 3.06777825 0.311766082 3.05664374 0.292614737 3.06777825 0.292614737 3.06777825 0.287715556 4.37986807 0.287715556 5.99615251 3.15150971 5.99615251 0.287715556 7.30868772 0.287715556 7.30868772 4.9548538 5.74807579 4.9504"></polygon>
                                            </g>
                                        </g>
                                    </g>
                                </g>
                            </g>
                            <g id="cursor" transform="translate(91.500000, 61.000000)">
                                <path d="M34.7762963,36.7706397 L26.5299663,28.5235017 C26.2773064,28.2708418 25.936431,28.1315825 25.5841077,28.1315825 C25.5261953,28.1315825 25.4677441,28.1353535 25.409697,28.1430303 C24.9971717,28.1971717 24.6335354,28.4401347 24.4257239,28.800404 L21.653468,33.6006734 L13.7276768,13.726734 L33.599596,21.6536027 L28.7989226,24.4263973 C28.4387879,24.6342088 28.1958249,24.9978451 28.1416835,25.4103704 C28.0874074,25.8224916 28.2278788,26.2364983 28.5220202,26.5306397 L36.7687542,34.7777778 L34.7762963,36.7706397 Z" id="Path" fill="#FFFFFF"></path>
                                <path d="M39.60633,33.8315152 L31.6461953,25.8711111 L37.3251178,22.5907071 C37.7688889,22.3342761 38.0272054,21.847138 37.9901684,21.3360269 C37.9534007,20.8247811 37.6278788,20.3796633 37.1517845,20.189899 L11.8276094,10.0882155 C11.3310438,9.88996633 10.7643098,10.006734 10.3862626,10.3846465 C10.0082155,10.7628283 9.89144781,11.3295623 10.0895623,11.8259933 L20.1897643,37.1529966 C20.3796633,37.6289562 20.8247811,37.9546128 21.3360269,37.9915152 C21.8472727,38.0286869 22.3344108,37.7702357 22.5907071,37.32633 L25.8705724,31.6474074 L33.8304377,39.6079461 C34.0812121,39.8589899 34.4215488,39.9998653 34.7762963,39.9998653 C35.1310438,39.9998653 35.4712458,39.8589899 35.7220202,39.6079461 L39.60633,35.7232323 C40.1287542,35.2008081 40.1287542,34.3539394 39.60633,33.8315152 Z M34.7762963,36.7706397 L26.5299663,28.5235017 C26.2773064,28.2708418 25.936431,28.1315825 25.5841077,28.1315825 C25.5261953,28.1315825 25.4677441,28.1353535 25.409697,28.1430303 C24.9971717,28.1971717 24.6335354,28.4401347 24.4257239,28.800404 L21.653468,33.6006734 L13.7276768,13.726734 L33.599596,21.6536027 L28.7989226,24.4263973 C28.4387879,24.6342088 28.1958249,24.9978451 28.1416835,25.4103704 C28.0874074,25.8224916 28.2278788,26.2364983 28.5220202,26.5306397 L36.7687542,34.7777778 L34.7762963,36.7706397 Z" id="Shape" fill="#40494D" fill-rule="nonzero"></path>
                                <path d="M5.87353535,3.98006734 C5.35097643,3.45804714 4.5043771,3.45804714 3.98154882,3.98006734 C3.45912458,4.50262626 3.45912458,5.34949495 3.98154882,5.87205387 L6.95380471,8.84430976 C7.21494949,9.10531987 7.55744108,9.23609428 7.89979798,9.23609428 C8.2420202,9.23609428 8.58424242,9.10531987 8.84565657,8.84430976 C9.36794613,8.32188552 9.36794613,7.47488215 8.84565657,6.95245791 L5.87353535,3.98006734 Z" id="Shape" fill="#40494D" fill-rule="nonzero"></path>
                                <path d="M6.8806734,13.2276094 C6.8806734,12.4888889 6.28161616,11.890101 5.54289562,11.890101 L1.33952862,11.890101 C0.600942761,11.890101 0.00175084175,12.4887542 0.00175084175,13.2276094 C0.00175084175,13.9661953 0.600808081,14.5652525 1.33952862,14.5652525 L5.54289562,14.5652525 C6.28161616,14.5651178 6.8806734,13.9661953 6.8806734,13.2276094 Z" id="Shape" fill="#40494D" fill-rule="nonzero"></path>
                                <path d="M6.33845118,17.356229 L3.36592593,20.3287542 C2.843367,20.8509091 2.843367,21.6979125 3.36592593,22.2203367 C3.62707071,22.4814815 3.96915825,22.6121212 4.31178451,22.6121212 C4.65400673,22.6121212 4.99622896,22.4814815 5.25737374,22.2203367 L8.23003367,19.2479461 C8.75245791,18.7256566 8.75245791,17.8785185 8.23003367,17.356229 C7.70787879,16.8339394 6.8610101,16.8339394 6.33845118,17.356229 Z" id="Shape" fill="#40494D" fill-rule="nonzero"></path>
                                <path d="M13.2285522,6.87919192 C13.967138,6.87919192 14.5661953,6.28013468 14.5661953,5.54141414 L14.5661953,1.3376431 C14.5661953,0.599057239 13.9672727,0 13.2285522,0 C12.4898316,0 11.8910438,0.598922559 11.8910438,1.3376431 L11.8910438,5.54154882 C11.8910438,6.28013468 12.489697,6.87919192 13.2285522,6.87919192 Z" id="Shape" fill="#40494D" fill-rule="nonzero"></path>
                                <path d="M18.3020875,8.62020202 C18.6447138,8.62020202 18.986936,8.48983165 19.2480808,8.22855219 L22.220202,5.2562963 C22.7427609,4.73387205 22.7427609,3.88686869 22.220202,3.36457912 C21.6979125,2.84215488 20.8506397,2.84215488 20.3286195,3.36457912 L17.3563636,6.33683502 C16.8339394,6.85912458 16.8339394,7.70626263 17.3563636,8.22855219 C17.6175084,8.48983165 17.9598653,8.62020202 18.3020875,8.62020202 Z" id="Shape" fill="#40494D" fill-rule="nonzero"></path>
                            </g>
                        </g>
                    </g>
                </g>
            </g>
        </g>
    </g>
</svg>