<?xml version="1.0" encoding="UTF-8"?>
<svg width="398px" height="172px" viewBox="0 0 398 172" version="1.1" xmlns="http://www.w3.org/2000/svg" xmlns:xlink="http://www.w3.org/1999/xlink">
    <!-- Generator: Sketch 43.2 (39069) - http://www.bohemiancoding.com/sketch -->
    <title>img_customize</title>
    <desc>Created with Sketch.</desc>
    <defs></defs>
    <g id="landing-page" stroke="none" stroke-width="1" fill="none" fill-rule="evenodd">
        <g id="Lite_landing-page_web_1024" transform="translate(-555.000000, -1678.000000)">
            <g id="section_4" transform="translate(0.000000, 1517.000000)">
                <g id="customization" transform="translate(526.000000, 152.000000)">
                    <g id="img_customize">
                        <g id="img" transform="translate(29.000000, 9.000000)">
                            <g id="bg">
                                <g id="lines" fill-rule="nonzero" fill="#E6F5FB">
                                    <path d="M124,161 L128,161 C128.552285,161 129,160.552285 129,160 C129,159.447715 128.552285,159 128,159 L124,159 C123.447715,159 123,159.447715 123,160 C123,160.552285 123.447715,161 124,161 Z M132,161 L136,161 C136.552285,161 137,160.552285 137,160 C137,159.447715 136.552285,159 136,159 L132,159 C131.447715,159 131,159.447715 131,160 C131,160.552285 131.447715,161 132,161 Z M140,161 L144,161 C144.552285,161 145,160.552285 145,160 C145,159.447715 144.552285,159 144,159 L140,159 C139.447715,159 139,159.447715 139,160 C139,160.552285 139.447715,161 140,161 Z M148,161 L152,161 C152.552285,161 153,160.552285 153,160 C153,159.447715 152.552285,159 152,159 L148,159 C147.447715,159 147,159.447715 147,160 C147,160.552285 147.447715,161 148,161 Z M156,161 L160,161 C160.552285,161 161,160.552285 161,160 C161,159.447715 160.552285,159 160,159 L156,159 C155.447715,159 155,159.447715 155,160 C155,160.552285 155.447715,161 156,161 Z M164,161 L168,161 C168.552285,161 169,160.552285 169,160 C169,159.447715 168.552285,159 168,159 L164,159 C163.447715,159 163,159.447715 163,160 C163,160.552285 163.447715,161 164,161 Z M172,161 C171.447715,161 171,160.552285 171,160 C171,159.447715 171.447715,159 172,159 L176,159 C176.552285,159 177,159.447715 177,160 C177,160.552285 176.552285,161 176,161 L172,161 Z M149,171 C148.447715,171 148,170.552285 148,170 C148,169.447715 148.447715,169 149,169 L153,169 C153.552285,169 154,169.447715 154,170 C154,170.552285 153.552285,171 153,171 L149,171 Z M157,171 C156.447715,171 156,170.552285 156,170 C156,169.447715 156.447715,169 157,169 L161,169 C161.552285,169 162,169.447715 162,170 C162,170.552285 161.552285,171 161,171 L157,171 Z M165,171 C164.447715,171 164,170.552285 164,170 C164,169.447715 164.447715,169 165,169 L169,169 C169.552285,169 170,169.447715 170,170 C170,170.552285 169.552285,171 169,171 L165,171 Z M173,171 C172.447715,171 172,170.552285 172,170 C172,169.447715 172.447715,169 173,169 L177,169 C177.552285,169 178,169.447715 178,170 C178,170.552285 177.552285,171 177,171 L173,171 Z M181,171 C180.447715,171 180,170.552285 180,170 C180,169.447715 180.447715,169 181,169 L185,169 C185.552285,169 186,169.447715 186,170 C186,170.552285 185.552285,171 185,171 L181,171 Z M189,171 C188.447715,171 188,170.552285 188,170 C188,169.447715 188.447715,169 189,169 L193,169 C193.552285,169 194,169.447715 194,170 C194,170.552285 193.552285,171 193,171 L189,171 Z M197,171 C196.447715,171 196,170.552285 196,170 C196,169.447715 196.447715,169 197,169 L201,169 C201.552285,169 202,169.447715 202,170 C202,170.552285 201.552285,171 201,171 L197,171 Z M205,171 C204.447715,171 204,170.552285 204,170 C204,169.447715 204.447715,169 205,169 L209,169 C209.552285,169 210,169.447715 210,170 C210,170.552285 209.552285,171 209,171 L205,171 Z M213,171 C212.447715,171 212,170.552285 212,170 C212,169.447715 212.447715,169 213,169 L217,169 C217.552285,169 218,169.447715 218,170 C218,170.552285 217.552285,171 217,171 L213,171 Z M221,171 C220.447715,171 220,170.552285 220,170 C220,169.447715 220.447715,169 221,169 L225,169 C225.552285,169 226,169.447715 226,170 C226,170.552285 225.552285,171 225,171 L221,171 Z M229,171 C228.447715,171 228,170.552285 228,170 C228,169.447715 228.447715,169 229,169 L233,169 C233.552285,169 234,169.447715 234,170 C234,170.552285 233.552285,171 233,171 L229,171 Z M237,171 C236.447715,171 236,170.552285 236,170 C236,169.447715 236.447715,169 237,169 L241,169 C241.552285,169 242,169.447715 242,170 C242,170.552285 241.552285,171 241,171 L237,171 Z M245,171 C244.447715,171 244,170.552285 244,170 C244,169.447715 244.447715,169 245,169 L249,169 C249.552285,169 250,169.447715 250,170 C250,170.552285 249.552285,171 249,171 L245,171 Z" id="Combined-Shape"></path>
                                    <path d="M82.5,107 C87.3274696,107 92.0710742,106.360317 96.6413251,105.110905 C97.1740611,104.965266 97.4878653,104.415335 97.3422263,103.882598 C97.1965872,103.349862 96.6466555,103.036058 96.1139195,103.181697 C91.7151362,104.384234 87.1488847,105 82.5,105 C81.9477153,105 81.5,105.447715 81.5,106 C81.5,106.552285 81.9477153,107 82.5,107 Z M110.592712,99.0393264 C112.617562,97.7876099 114.557053,96.4019169 116.398096,94.8924618 C116.825182,94.5422971 116.88754,93.9122102 116.537375,93.4851235 C116.18721,93.0580368 115.557124,92.9956792 115.130037,93.3458439 C113.357547,94.7990932 111.490348,96.1331366 109.541073,97.338134 C109.071302,97.6285361 108.925895,98.2447783 109.216297,98.7145496 C109.506699,99.184321 110.122941,99.3297285 110.592712,99.0393264 Z M126.162454,84.4239974 C129.116186,80.2609558 131.462852,75.6950372 133.121454,70.8564902 C133.300541,70.3340478 133.022197,69.7653453 132.499755,69.5862577 C131.977312,69.4071701 131.40861,69.6855141 131.229522,70.2079565 C129.633276,74.8645971 127.374619,79.2592767 124.531313,83.2666817 C124.211729,83.7171088 124.317799,84.3413261 124.768226,84.66091 C125.218653,84.9804939 125.84287,84.8744245 126.162454,84.4239974 Z M134.966211,64.0180626 C135.650023,60.5884165 135.998215,57.0799011 135.999993,53.5273474 C136,52.2581146 135.957664,51.0176966 135.872677,49.78046 C135.834829,49.2294736 135.357484,48.8134928 134.806498,48.8513408 C134.255512,48.8891888 133.839531,49.3665334 133.877379,49.9175197 C133.959224,51.1090182 134,52.3037201 133.999993,53.5268416 C133.998281,56.9477482 133.663055,60.3256183 133.004817,63.6269946 C132.896827,64.1686186 133.248356,64.6952351 133.78998,64.8032255 C134.331604,64.911216 134.858221,64.5596865 134.966211,64.0180626 Z M132.66399,34.8626911 C131.833815,32.6290677 130.85505,30.4559584 129.735218,28.3565128 C129.475296,27.8692151 128.869555,27.6848905 128.382257,27.9448124 C127.89496,28.2047342 127.710635,28.8104754 127.970557,29.2977731 C129.048363,31.3184276 129.990344,33.4098686 130.789288,35.5594648 C130.981697,36.0771494 131.557341,36.3408375 132.075026,36.1484288 C132.59271,35.95602 132.856398,35.3803756 132.66399,34.8626911 Z M121.414924,16.7863305 C117.909947,13.072524 113.891055,9.87287967 109.484482,7.29397025 C109.007826,7.01501165 108.39528,7.17527672 108.116321,7.6519323 C107.837363,8.12858789 107.997628,8.74113421 108.474283,9.02009281 C112.716419,11.5027666 116.585757,14.5833434 119.960407,18.1590584 C120.339475,18.560712 120.972376,18.579021 121.374029,18.1999527 C121.775683,17.8208843 121.793992,17.1879841 121.414924,16.7863305 Z M103.120755,4.11885169 C98.7316375,2.28392667 94.104035,1.04103455 89.3366613,0.432836674 C88.7888167,0.362945386 88.2880429,0.750403061 88.2181516,1.29824761 C88.1482603,1.84609216 88.535718,2.34686601 89.0835625,2.41675729 C93.6720742,3.00213684 98.1253861,4.19821758 102.349331,5.96408988 C102.858879,6.17711292 103.444639,5.93673157 103.657662,5.42718311 C103.870685,4.91763466 103.630304,4.33187472 103.120755,4.11885169 Z M74.0608158,0.661978828 C71.7010059,1.03596985 69.3777705,1.566585 67.1031017,2.24899855 C66.5741096,2.40769916 66.2739291,2.96518418 66.4326297,3.49417621 C66.5913303,4.02316823 67.1488154,4.32334874 67.6778074,4.16464814 C69.866839,3.50792626 72.1026678,2.99727432 74.3738757,2.63732525 C74.9193525,2.55087615 75.291468,2.03859895 75.2050189,1.49312209 C75.1185698,0.947645241 74.6062926,0.575529725 74.0608158,0.661978828 Z M54.1377405,8.12840862 C49.8111392,10.8386195 45.8895682,14.1570563 42.4975053,17.9737967 C42.1306232,18.3866114 42.167859,19.0186805 42.5806737,19.3855626 C42.9934885,19.7524447 43.6255576,19.7152089 43.9924396,19.3023941 C47.2583962,15.6275484 51.0341373,12.4325129 55.199452,9.823333 C55.6674924,9.53014946 55.809242,8.91305549 55.5160584,8.44501505 C55.2228749,7.97697461 54.6057809,7.83522508 54.1377405,8.12840862 Z M38.0742755,23.6808196 C35.4109209,27.6411095 33.2864981,31.9419433 31.7654809,36.4769496 C31.589862,37.0005682 31.8719714,37.5674122 32.3955901,37.7430311 C32.9192087,37.91865 33.4860527,37.6365405 33.6616716,37.1129219 C35.1254865,32.7484677 37.170182,28.6090396 39.7338828,24.7969305 C40.0420883,24.3386426 39.9204225,23.7172769 39.4621346,23.4090714 C39.0038467,23.1008659 38.382481,23.2225317 38.0742755,23.6808196 Z M29.0399409,51.4138346 C29.0134771,52.1037968 29.0001431,52.7955359 29.0000011,53.4888084 C29,55.1924169 29.0786173,56.8768389 29.2352441,58.5495227 C29.2867338,59.099402 29.7742396,59.5034267 30.3241189,59.4519371 C30.8739983,59.4004475 31.2780229,58.9129416 31.2265333,58.3630623 C31.0757132,56.7523917 31,55.1301915 31.0000011,53.4890138 C31.0001379,52.8213694 31.0129819,52.1550499 31.0384714,51.4904889 C31.0596389,50.9386099 30.6294122,50.474064 30.0775333,50.4528965 C29.5256543,50.431729 29.0611084,50.8619556 29.0399409,51.4138346 Z M316.995637,136.999991 C316.997091,136.999997 316.998545,137 317,137 C318.368828,137 319.73052,136.940185 321.082485,136.821257 C321.632646,136.772861 322.039406,136.287636 321.99101,135.737476 C321.942615,135.187315 321.457389,134.780555 320.907229,134.828951 C319.613523,134.942753 318.310306,135 317,135 C316.998607,135 316.997215,135.000003 316.995823,135.000009 C316.994435,135.000003 316.993043,134.999999 316.99165,134.999999 C316.230313,134.999858 315.471325,134.980389 314.715153,134.941722 C314.163589,134.913517 313.693594,135.337783 313.665389,135.889347 C313.637184,136.440911 314.06145,136.910907 314.613014,136.939112 C315.403077,136.979513 316.195998,136.999852 316.991279,136.999999 C316.992734,136.999999 316.994188,136.999997 316.995641,136.999991 Z M316.750487,151.968621 C316.830246,151.989106 316.913851,152 317,152 C321.805918,152 326.539966,151.444018 331.135063,150.353719 C331.672428,150.226217 332.004687,149.687234 331.877184,149.149869 C331.749681,148.612504 331.210699,148.280245 330.673334,148.407748 C326.229247,149.462215 321.650145,150 317,150 C316.916645,150 316.835672,150.010199 316.758261,150.029416 C316.681007,150.009579 316.600119,149.998731 316.516767,149.998063 C309.860114,149.94468 303.360921,148.788188 297.215164,146.601168 C296.694843,146.416007 296.122938,146.687708 295.937777,147.208029 C295.752616,147.72835 296.024317,148.300256 296.544638,148.485417 C302.899851,150.746974 309.620206,151.942821 316.500729,151.997999 C316.586876,151.99869 316.670567,151.988466 316.750487,151.968621 Z M316.983986,171.999874 C316.989314,171.999958 316.994652,172 317,172 C320.398409,172 323.771131,171.790662 327.105268,171.375678 C327.653324,171.307465 328.042313,170.807879 327.974099,170.259823 C327.905886,169.711767 327.4063,169.322778 326.858244,169.390992 C323.606004,169.795783 320.315781,170 317,170 C316.994782,170 316.989573,170.00004 316.984373,170.00012 C316.979174,170.000038 316.973965,169.999996 316.968747,169.999994 C314.347658,169.998979 311.742358,169.870349 309.158921,169.615837 C308.609297,169.56169 308.119844,169.963353 308.065697,170.512977 C308.011549,171.062601 308.413213,171.552054 308.962837,171.606201 C311.611155,171.867106 314.281636,171.998954 316.967973,171.999994 C316.97332,171.999996 316.978658,171.999956 316.983986,171.999874 Z M40.5062865,137.869824 C40.6519437,137.952677 40.8204455,138 41,138 C42.4149467,138 43.812466,137.859919 45.1780685,137.584165 C45.7194265,137.474849 46.069666,136.947374 45.9603503,136.406016 C45.8510345,135.864658 45.3235592,135.514418 44.7822012,135.623734 C43.5467301,135.873211 42.2818177,136 41,136 C40.8370355,136 40.6831757,136.038982 40.5472365,136.108129 C40.4146777,136.032752 40.2628214,135.986666 40.1000597,135.979083 C38.8219008,135.919536 37.5644044,135.733203 36.3407302,135.424775 C35.8051947,135.289793 35.2616327,135.614505 35.1266505,136.150041 C34.9916684,136.685576 35.316381,137.229138 35.8519164,137.36412 C37.2049739,137.70516 38.5950368,137.911136 40.0069843,137.976916 C40.1863705,137.985273 40.3569156,137.945831 40.5062865,137.869824 Z M40.9900248,157.999951 C40.993346,157.999984 40.9966711,158 41,158 C45.8602654,158 50.6058752,157.153636 55.0769245,155.51925 C55.5956387,155.329635 55.8624262,154.75542 55.6728109,154.236706 C55.4831956,153.717992 54.9089811,153.451204 54.3902668,153.640819 C50.1384219,155.195075 45.6251663,156 41,156 C40.9968303,156 40.993664,156.000015 40.9905012,156.000044 C40.9873385,156.000013 40.9841722,155.999997 40.9810025,155.999995 C39.0275154,155.999065 37.0924305,155.854583 35.1862091,155.56974 C34.6399889,155.488119 34.1310232,155.864751 34.0494024,156.410971 C33.9677815,156.957191 34.3444137,157.466157 34.8906339,157.547778 C36.8943063,157.847184 38.9278661,157.999018 40.9800496,157.999995 C40.9833785,157.999997 40.9867036,157.999982 40.9900248,157.999951 Z M69.9466601,105.518792 C69.4096828,105.389664 69.0790552,104.84968 69.2081826,104.312703 C69.33731,103.775725 69.8772945,103.445098 70.4142717,103.574225 C72.6337635,104.107948 74.8936311,104.494183 77.1829688,104.728938 C77.7323726,104.785275 78.1320819,105.276326 78.0757445,105.825729 C78.0194071,106.375133 77.5283568,106.774843 76.978953,106.718505 C74.6007199,106.474634 72.2527938,106.07335 69.9466601,105.518792 Z M68.2175078,147.663383 C67.804595,148.030154 67.1725358,147.992749 66.8057642,147.579837 C66.4389925,147.166924 66.4763973,146.534865 66.8893101,146.168093 C68.5935725,144.654274 70.1634172,142.994135 71.5793663,141.207992 C71.9224569,140.775202 72.5514325,140.702486 72.9842227,141.045577 C73.4170128,141.388668 73.4897286,142.017643 73.146638,142.450433 C71.6584756,144.327669 70.008633,146.072408 68.2175078,147.663383 Z M79.9445805,129.853331 C79.7715722,130.377818 79.2061406,130.662748 78.6816536,130.489739 C78.1571667,130.316731 77.8722368,129.7513 78.0452451,129.226813 C79.335019,125.316769 79.9999588,121.204268 80,117.000401 C80,116.262577 79.9795448,115.5276 79.938776,114.795613 C79.9080634,114.244183 80.3301884,113.772263 80.8816186,113.741551 C81.4330487,113.710838 81.9049686,114.132963 81.9356811,114.684393 C81.9785126,115.453415 82,116.225479 82,117.000411 C81.9999567,121.417815 81.3008277,125.741769 79.9445805,129.853331 Z M80.9108391,107.573155 C81.0373456,108.110756 80.7040879,108.649121 80.1664871,108.775628 C79.6288864,108.902134 79.0905211,108.568876 78.9640147,108.031276 C77.9145626,103.571534 76.0864387,99.3531947 73.5755191,95.5481448 C73.2713322,95.0871797 73.398426,94.4669015 73.8593911,94.1627146 C74.3203562,93.8585278 74.9406344,93.9856216 75.2448212,94.4465867 C77.8847517,98.4471398 79.8071944,102.883117 80.9108391,107.573155 Z M64.5604536,83.4413722 C65.0121946,83.759096 65.1208371,84.3828706 64.8031132,84.8346117 C64.4853894,85.2863528 63.8616148,85.3949952 63.4098737,85.0772714 C61.5456857,83.7661288 59.5701097,82.6201912 57.5050866,81.6542084 C57.0048297,81.4201967 56.7889953,80.8249544 57.023007,80.3246975 C57.2570187,79.8244406 57.852261,79.6086062 58.3525179,79.8426179 C60.5237622,80.8582891 62.6007531,82.0630527 64.5604536,83.4413722 Z M44.5778043,76.1540063 C45.1280356,76.2015874 45.5355141,76.6862101 45.4879331,77.2364414 C45.440352,77.7866727 44.9557293,78.1941512 44.405498,78.1465701 C43.2827896,78.0494843 42.1520323,78.0004372 41.0156159,78.000003 C37.1943279,78.0000001 33.4606071,78.5448914 29.881058,79.6076558 C29.3516154,79.7648468 28.7949889,79.4630772 28.637798,78.9336346 C28.480607,78.404192 28.7823766,77.8475656 29.3118192,77.6903746 C33.0757454,76.5728688 37.0011751,76 41.0159987,76.0000031 C42.2100753,76.0004593 43.398066,76.0519889 44.5778043,76.1540063 Z M22.6473562,80.3271603 C23.1410588,80.0796202 23.7419548,80.2791743 23.989495,80.772877 C24.2370351,81.2665797 24.0374809,81.8674757 23.5437783,82.1150158 C19.4627908,84.1612032 15.7691913,86.9134828 12.6347892,90.2339211 C12.2556777,90.635534 11.6227755,90.653775 11.2211626,90.2746635 C10.8195497,89.895552 10.8013087,89.2626499 11.1804202,88.861037 C14.474731,85.371199 18.3570346,82.4783068 22.6473562,80.3271603 Z M2.89248329,101.84442 C3.09673064,101.331291 3.67827915,101.080893 4.19140824,101.28514 C4.70453733,101.489387 4.95493545,102.070936 4.7506881,102.584065 C3.90995136,104.696241 3.25525953,106.882211 2.79594727,109.121553 C2.68497818,109.662575 2.15643535,110.011201 1.61541381,109.900232 C1.07439227,109.789263 0.725765874,109.26072 0.83673496,108.719699 C1.31976553,106.364719 2.0083061,104.065732 2.89248329,101.84442 Z M0.422958198,122.910178 C0.344023926,122.363563 0.723153967,121.856455 1.26976885,121.777521 C1.81638372,121.698587 2.32349151,122.077717 2.40242578,122.624331 C3.10648693,127.499911 4.72333245,132.15569 7.15196044,136.38659 C7.42690618,136.865572 7.26150251,137.476751 6.782521,137.751696 C6.30353949,138.026642 5.6923607,137.861238 5.41741496,137.382257 C2.86372927,132.933495 1.16330829,128.037056 0.422958198,122.910178 Z M9.51629301,143.26513 C9.16228094,142.841227 9.21893888,142.210602 9.64284205,141.85659 C10.0667452,141.502578 10.6973701,141.559235 11.0513822,141.983139 C13.977969,145.487509 17.4986852,148.459427 21.4459789,150.751377 C21.92359,151.028697 22.0859585,151.640689 21.8086391,152.1183 C21.5313198,152.595911 20.9193276,152.75828 20.4417165,152.48096 C16.2924198,150.071719 12.5921381,146.948226 9.51629301,143.26513 Z M49.2323917,136.324697 C48.7243859,136.541373 48.1369151,136.305204 47.9202388,135.797198 C47.7035625,135.289193 47.9397317,134.701722 48.4477374,134.485045 C49.616103,133.98671 50.7307606,133.371906 51.7757439,132.65099 C52.2303434,132.33737 52.8531086,132.451656 53.166729,132.906255 C53.4803494,133.360855 53.3660633,133.98362 52.9114638,134.29724 C51.7565102,135.094023 50.5242764,135.773678 49.2323917,136.324697 Z M56.1419483,131.550685 C55.7592293,131.948862 55.1261884,131.961393 54.7280118,131.578674 C54.3298352,131.195955 54.3173043,130.562914 54.7000234,130.164737 C55.5801606,129.249052 56.3671978,128.247658 57.0481587,127.176113 C57.3443786,126.709989 57.9623809,126.572254 58.4285056,126.868473 C58.8946304,127.164693 59.0323655,127.782696 58.7361456,128.24882 C57.9837015,129.432849 57.1142091,130.539156 56.1419483,131.550685 Z M60.6109639,124.525731 C60.4129904,125.041313 59.8345392,125.298786 59.3189571,125.100812 C58.803375,124.902838 58.5459024,124.324387 58.7438759,123.808805 C59.1974516,122.627559 59.5320726,121.400898 59.7413505,120.143365 C59.8320145,119.598573 60.3471535,119.230429 60.8919456,119.321093 C61.4367378,119.411757 61.8048814,119.926896 61.7142174,120.471688 C61.4827847,121.862348 61.1126543,123.21918 60.6109639,124.525731 Z M61.9842488,116.179441 C62.0054709,116.731318 61.5752902,117.195907 61.0234134,117.217129 C60.4715365,117.238351 60.006948,116.80817 59.9857259,116.256293 C59.9365422,114.977278 59.7605418,113.718259 59.4623095,112.492293 C59.3317661,111.955658 59.6609683,111.414803 60.197603,111.28426 C60.7342378,111.153716 61.2750925,111.482918 61.4056359,112.019553 C61.735384,113.375074 61.9299231,114.766709 61.9842488,116.179441 Z M60.0044893,108.054181 C60.2400254,108.553722 60.0260072,109.14962 59.5264662,109.385156 C59.0269253,109.620692 58.4310275,109.406674 58.1954914,108.907133 C57.6539779,107.758654 56.9981242,106.667628 56.2389147,105.650025 C55.9086565,105.207365 55.9997761,104.580791 56.4424362,104.250533 C56.8850963,103.920275 57.5116703,104.011394 57.8419286,104.454054 C58.6809077,105.578576 59.4058198,106.784482 60.0044893,108.054181 Z M54.9349161,101.289259 C55.3479657,101.655877 55.3856061,102.287922 55.0189884,102.700971 C54.6523707,103.114021 54.0203256,103.151661 53.607276,102.785044 C52.6574544,101.941994 51.6257541,101.195477 50.5279412,100.557866 C50.0503638,100.280489 49.8880697,99.6684769 50.1654472,99.1908995 C50.4428247,98.7133221 51.0548365,98.551028 51.5324139,98.8284055 C52.7456555,99.5330575 53.8855896,100.35789 54.9349161,101.289259 Z M47.7437046,97.1065116 C48.2667704,97.2837703 48.5471025,97.8514954 48.3698438,98.3745612 C48.1925852,98.897627 47.6248601,99.177959 47.1017943,99.0007004 C45.9044356,98.5949346 44.6656086,98.3094221 43.399429,98.1499526 C42.8514731,98.0809401 42.4632127,97.5807884 42.5322252,97.0328324 C42.6012377,96.4848765 43.1013895,96.0966161 43.6493454,96.1656286 C45.0492226,96.3419367 46.4193598,96.6577123 47.7437046,97.1065116 Z M39.3613794,96.0630358 C39.9120244,96.0205089 40.3928852,96.43242 40.4354121,96.983065 C40.477939,97.53371 40.0660279,98.0145708 39.5153829,98.0570977 C38.2411085,98.1555113 36.990038,98.3805125 35.775715,98.7270004 C35.2446268,98.8785381 34.6912491,98.5708516 34.5397114,98.0397633 C34.3881737,97.508675 34.6958602,96.9552973 35.2269485,96.8037596 C36.5698769,96.4205761 37.9531873,96.171792 39.3613794,96.0630358 Z M31.3146246,98.3622242 C31.8044855,98.107166 32.4083618,98.2975112 32.66342,98.7873722 C32.9184782,99.2772331 32.728133,99.8811094 32.238272,100.136168 C31.1120695,100.722553 30.0473191,101.420906 29.0599435,102.219586 C28.6305504,102.566919 28.0008897,102.500396 27.653557,102.071003 C27.3062243,101.64161 27.3727473,101.011949 27.8021404,100.664616 C28.8931031,99.7821453 30.0697654,99.0103909 31.3146246,98.3622242 Z M24.7826038,103.657589 C25.1337201,103.231285 25.7639444,103.170332 26.1902492,103.521449 C26.616554,103.872565 26.6775064,104.502789 26.3263901,104.929094 C25.5189771,105.909407 24.8111811,106.967978 24.2147876,108.088904 C23.9553746,108.576473 23.3498262,108.76143 22.8622574,108.502017 C22.3746886,108.242604 22.1897318,107.637055 22.4491448,107.149487 C23.1083489,105.910507 23.8905099,104.740717 24.7826038,103.657589 Z M20.8555409,111.048491 C21.0118073,110.518775 21.567906,110.216034 22.0976223,110.372301 C22.6273385,110.528567 22.9300794,111.084666 22.773813,111.614382 C22.4164136,112.825905 22.1803195,114.075032 22.0707546,115.34811 C22.0233984,115.898361 21.5389423,116.306037 20.9886916,116.258681 C20.4384409,116.211325 20.0307644,115.726869 20.0781206,115.176618 C20.1992116,113.769614 20.4602768,112.388369 20.8555409,111.048491 Z M20.1422421,119.456473 C20.0782957,118.907903 20.4711608,118.41136 21.0197311,118.347414 C21.5683013,118.283467 22.0648442,118.676332 22.1287906,119.224903 C22.2765841,120.492761 22.5505354,121.734078 22.9449914,122.934844 C23.1173568,123.459543 22.8317343,124.024625 22.3070356,124.19699 C21.782337,124.369355 21.217255,124.083733 21.0448897,123.559034 C20.6086064,122.230941 20.3056293,120.858105 20.1422421,119.456473 Z M22.7587165,127.411502 C22.4845223,126.93209 22.6508843,126.321171 23.1302964,126.046977 C23.6097086,125.772783 24.2206272,125.939145 24.4948214,126.418557 C25.1252436,127.520812 25.86507,128.557602 26.7020244,129.513122 C27.0659218,129.92857 27.0241317,130.560354 26.6086836,130.924252 C26.1932354,131.288149 25.5614511,131.246359 25.1975537,130.830911 C24.2729027,129.775271 23.455443,128.629686 22.7587165,127.411502 Z M28.2625806,133.697371 C27.8237082,133.362096 27.739726,132.734525 28.0750012,132.295653 C28.4102764,131.85678 29.037847,131.772798 29.4767194,132.108073 C30.4857266,132.878901 31.569315,133.547231 32.7115189,134.101884 C33.2083261,134.343133 33.4154968,134.941445 33.1742478,135.438253 C32.9329987,135.93506 32.334686,136.14223 31.8378788,135.900981 C30.5751792,135.287816 29.3775548,134.549152 28.2625806,133.697371 Z M355.855307,162.089392 C355.37092,162.354699 354.763173,162.177099 354.497866,161.692712 C354.232559,161.208325 354.410159,160.600578 354.894546,160.335272 C356.049508,159.70268 357.188396,159.04127 358.310178,158.351738 C358.780685,158.062529 359.396556,158.2095 359.685765,158.680007 C359.974974,159.150513 359.828003,159.766385 359.357496,160.055594 C358.207303,160.762589 357.039554,161.44076 355.855307,162.089392 Z M367.660566,154.205808 C367.229838,154.551483 366.600439,154.482535 366.254763,154.051807 C365.909087,153.621079 365.978035,152.991679 366.408763,152.646003 C374.140443,146.441033 380.656017,138.831274 385.585522,130.232365 C385.860198,129.753229 386.471283,129.58748 386.95042,129.862155 C387.429556,130.13683 387.595305,130.747916 387.32063,131.227052 C382.266573,140.043224 375.586957,147.844574 367.660566,154.205808 Z M389.230466,127.695087 C388.979929,128.187276 388.377831,128.383173 387.885642,128.132636 C387.393454,127.882099 387.197557,127.28 387.448094,126.787812 C388.941551,123.853866 390.250321,120.827527 391.365548,117.724686 C391.552351,117.204953 392.125113,116.935059 392.644846,117.121863 C393.16458,117.308666 393.434473,117.881427 393.24767,118.401161 C392.104015,121.583096 390.761912,124.686512 389.230466,127.695087 Z M397.960622,88.4502479 C397.977695,89.0022686 397.544034,89.4636105 396.992014,89.4806837 C396.439993,89.4977569 395.978651,89.0640962 395.961578,88.5120754 C395.920748,87.1919494 395.847426,85.8763718 395.741839,84.5661324 C395.697477,84.0156323 396.107782,83.5334008 396.658282,83.4890384 C397.208783,83.4446759 397.691014,83.8549816 397.735377,84.4054817 C397.843613,85.7486044 397.918772,87.097133 397.960622,88.4502479 Z M396.289765,74.3641109 C396.402628,74.9047406 396.055855,75.4345009 395.515225,75.5473637 C394.974595,75.6602264 394.444835,75.3134529 394.331972,74.7728232 C392.297348,65.0266677 388.438662,55.8104182 382.989248,47.5509041 C382.685099,47.0899142 382.812243,46.4696464 383.273233,46.1654972 C383.734223,45.8613479 384.354491,45.9884924 384.65864,46.4494824 C390.246291,54.9185176 394.203291,64.3695848 396.289765,74.3641109 Z M382.353621,43.1379135 C382.680294,43.5832262 382.584117,44.209044 382.138804,44.5357166 C381.693491,44.8623893 381.067674,44.7662125 380.741001,44.3208998 C378.792081,41.6641766 376.678836,39.1307376 374.414803,36.7360917 C374.035376,36.3347762 374.053121,35.7018599 374.454437,35.3224336 C374.855752,34.9430073 375.488668,34.9607521 375.868095,35.3620676 C378.189115,37.8169884 380.355577,40.4142259 382.353621,43.1379135 Z M351.399576,17.6464662 C351.899454,17.881288 352.114323,18.4768792 351.879501,18.9767563 C351.64468,19.4766335 351.049088,19.6915032 350.549211,19.4566814 C349.357907,18.8970555 348.152445,18.3672967 346.933843,17.8679773 C346.422795,17.6585767 346.178262,17.0745379 346.387662,16.5634901 C346.597063,16.0524423 347.181102,15.807909 347.69215,16.0173095 C348.941795,16.5293487 350.177952,17.0725971 351.399576,17.6464662 Z M338.063484,12.7660313 C338.596866,12.9092859 338.913127,13.4578084 338.769872,13.9911906 C338.626618,14.5245728 338.078095,14.8408337 337.544713,14.697579 C330.922499,12.9189993 324.056142,12.0059417 317.069161,12.0000293 C314.013737,12.0000006 311.039139,12.1656735 308.086357,12.4972003 C307.537521,12.5588215 307.042647,12.1638556 306.981026,11.6150193 C306.919405,11.066183 307.314371,10.5713094 307.863207,10.5096882 C310.890261,10.1698225 313.939365,9.99999991 317.070016,10.0000296 C324.232837,10.0060905 331.273015,10.942262 338.063484,12.7660313 Z M303.83833,11.0640705 C304.383384,10.9749969 304.897447,11.3446424 304.98652,11.8896969 C305.075594,12.4347513 304.705948,12.9488136 304.160894,13.0378872 C300.899583,13.5708553 297.686452,14.3066266 294.535947,15.2393418 C294.006383,15.3961208 293.449991,15.0939183 293.293212,14.5643536 C293.136433,14.0347889 293.438635,13.4783974 293.9682,13.3216183 C297.199049,12.3651171 300.494065,11.6105951 303.83833,11.0640705 Z M267.101788,27.1898299 C267.536619,26.8493285 268.165149,26.9257969 268.50565,27.360627 C268.846152,27.7954571 268.769683,28.4239875 268.334853,28.7644889 C267.297785,29.5765839 266.281022,30.4144324 265.285558,31.2771741 C264.868204,31.6388838 264.236648,31.593775 263.874938,31.1764208 C263.513228,30.7590666 263.558337,30.1275105 263.975691,29.7658008 C264.99622,28.8813358 266.038592,28.0223852 267.101788,27.1898299 Z M256.714239,36.9006107 C257.083237,36.4896866 257.715489,36.4556991 258.126414,36.8246974 C258.537338,37.1936958 258.571325,37.8259479 258.202327,38.2368721 C251.57944,45.6122543 246.387642,54.1681608 242.929278,63.4689335 C242.736794,63.9865902 242.161112,64.2501952 241.643455,64.0577117 C241.125798,63.8652281 240.862193,63.2895456 241.054677,62.7718889 C244.600966,53.2346566 249.924218,44.4621164 256.714239,36.9006107 Z M239.757029,66.545968 C239.923581,66.0193955 240.48547,65.7275419 241.012043,65.8940948 C241.538615,66.0606476 241.830469,66.6225367 241.663916,67.1491092 C240.672685,70.2829804 239.877593,73.4824243 239.284783,76.7327962 C239.185691,77.2761186 238.664911,77.6362382 238.121589,77.537146 C237.578266,77.4380537 237.218147,76.9172738 237.317239,76.3739515 C237.925142,73.0408187 238.74051,69.7597861 239.757029,66.545968 Z M237.517711,106.685091 C237.411365,106.143142 237.764491,105.617595 238.306441,105.511249 C238.84839,105.404903 239.373937,105.75803 239.480283,106.299979 C239.734266,107.594305 240.020463,108.880376 240.338506,110.157271 C240.471988,110.693183 240.145754,111.235833 239.609843,111.369315 C239.073931,111.502797 238.531281,111.176564 238.397799,110.640652 C238.07165,109.33121 237.778161,108.012372 237.517711,106.685091 Z M241.462556,120.301521 C241.262701,119.786665 241.51806,119.207277 242.032916,119.007423 C242.547771,118.807568 243.127159,119.062926 243.327014,119.577782 C246.917237,128.826732 252.230144,137.309779 258.957001,144.591721 C259.331757,144.997401 259.306688,145.63007 258.901008,146.004826 C258.495328,146.379582 257.86266,146.354513 257.487903,145.948833 C250.591354,138.483196 245.144011,129.785496 241.462556,120.301521 Z M260.320508,148.865703 C259.925986,148.479218 259.91947,147.846087 260.305954,147.451564 C260.692439,147.057042 261.32557,147.050525 261.720093,147.43701 C264.074315,149.743266 266.570036,151.901271 269.191884,153.897241 C269.63132,154.231776 269.716359,154.859205 269.381823,155.298641 C269.047288,155.738077 268.419859,155.823116 267.980423,155.488581 C265.292521,153.442325 262.733975,151.229996 260.320508,148.865703 Z M294.99483,168.97491 C294.463228,168.825185 294.153655,168.272861 294.303379,167.741258 C294.453104,167.209656 295.005428,166.900083 295.537031,167.049807 C296.803394,167.406475 298.079683,167.731525 299.364956,168.024556 C299.903424,168.147322 300.240416,168.683358 300.11765,169.221825 C299.994884,169.760292 299.458849,170.097284 298.920381,169.974518 C297.602341,169.674016 296.2935,169.340677 294.99483,168.97491 Z M349.770261,142.458993 C349.304692,142.756086 348.686433,142.619509 348.38934,142.153941 C348.092247,141.688372 348.228824,141.070113 348.694393,140.77302 C349.799839,140.067603 350.881566,139.325506 351.937761,138.548101 C352.38255,138.220716 353.008521,138.315892 353.335906,138.760682 C353.66329,139.205471 353.568114,139.831442 353.123325,140.158827 C352.031431,140.962507 350.91312,141.729702 349.770261,142.458993 Z M363.554535,130.418629 C363.197448,130.839945 362.566427,130.892012 362.145111,130.534925 C361.723795,130.177838 361.671728,129.546817 362.028815,129.125501 C366.28006,124.109589 369.671239,118.418504 372.045713,112.280859 C372.244983,111.765777 372.82408,111.50976 373.339163,111.70903 C373.854245,111.908301 374.110261,112.487398 373.910991,113.00248 C371.455692,119.349047 367.949502,125.233144 363.554535,130.418629 Z M375.237344,109.203509 C375.072729,109.730691 374.511917,110.02461 373.984736,109.859995 C373.457554,109.69538 373.163635,109.134569 373.32825,108.607387 C374.69273,104.237614 375.545706,99.7044359 375.861443,95.0760451 C375.899031,94.525041 376.376179,94.108835 376.927183,94.1464231 C377.478187,94.1840112 377.894393,94.6611595 377.856805,95.2121636 C377.530387,99.997142 376.648363,104.68469 375.237344,109.203509 Z M375.884725,75.018156 C376.029069,75.5512445 375.713929,76.1004118 375.18084,76.2447555 C374.647752,76.3890991 374.098585,76.0739592 373.954241,75.5408707 C373.611366,74.2745695 373.226406,73.0215651 372.800151,71.7835686 C372.620353,71.2613703 372.897924,70.6922898 373.420122,70.5124917 C373.94232,70.3326936 374.511401,70.6102638 374.691199,71.1324622 C375.132019,72.412762 375.530135,73.7085868 375.884725,75.018156 Z M368.517609,58.3217763 C368.81387,58.7878753 368.676188,59.4058896 368.210089,59.7021499 C367.74399,59.9984102 367.125976,59.8607287 366.829716,59.3946297 C363.302656,53.8455935 358.867478,48.9152695 353.722858,44.818789 C353.29081,44.4747643 353.219454,43.8456331 353.563478,43.4135851 C353.907503,42.9815371 354.536634,42.9101802 354.968682,43.2542049 C360.286757,47.4888016 364.871384,52.5852595 368.517609,58.3217763 Z M351.634417,40.7792084 C352.088794,41.0931517 352.202637,41.7159979 351.888694,42.1703745 C351.574751,42.6247511 350.951905,42.7385948 350.497528,42.4246515 C346.711206,39.8085609 342.631004,37.6422144 338.335624,35.9755056 C337.820742,35.7757191 337.565306,35.1963655 337.765093,34.6814832 C337.964879,34.1666009 338.544233,33.9111653 339.059115,34.1109518 C343.500843,35.8344472 347.719736,38.0744303 351.634417,40.7792084 Z M319.262597,30.0411973 C319.814515,30.0613278 320.245614,30.5250645 320.225483,31.0769822 C320.205353,31.6289 319.741616,32.0599988 319.189698,32.0398683 C318.464064,32.0134018 317.736616,32.0000922 317.00771,32.0000005 C316.416045,32 315.832137,32.0084808 315.248432,32.0254938 C314.696382,32.0415841 314.235813,31.6071027 314.219723,31.0550524 C314.203632,30.5030021 314.638114,30.0424331 315.190164,30.0263428 C315.793318,30.008763 316.39665,30 317.007836,30.0000005 C317.761092,30.0000952 318.512758,30.013848 319.262597,30.0411973 Z M301.126167,32.086136 C301.659521,31.9427776 302.208105,32.2589318 302.351463,32.7922861 C302.494822,33.3256404 302.178668,33.8742244 301.645313,34.0175828 C295.278376,35.7289287 289.267251,38.4982115 283.838013,42.194517 C283.381487,42.5053266 282.759439,42.3872002 282.448629,41.9306743 C282.137819,41.4741485 282.255946,40.8521002 282.712472,40.5412906 C288.325978,36.7195327 294.541923,33.855891 301.126167,32.086136 Z M279.422208,42.9455401 C279.857038,42.6050386 280.485569,42.681507 280.82607,43.1163371 C281.166572,43.5511672 281.090103,44.1796976 280.655273,44.5201991 C277.031125,47.3581534 273.746793,50.6111218 270.874043,54.2078564 C270.529373,54.6393896 269.900136,54.709806 269.468602,54.3651359 C269.037069,54.0204657 268.966653,53.3912285 269.311323,52.9596953 C272.280913,49.2417149 275.675873,45.8791752 279.422208,42.9455401 Z M259.477501,70.6491444 C259.661709,70.1284851 260.233116,69.8557369 260.753775,70.0399443 C261.274435,70.2241517 261.547183,70.795559 261.362975,71.3162183 C260.925955,72.5514493 260.530176,73.8019959 260.176448,75.0661353 C260.027625,75.5979908 259.475827,75.9085003 258.943971,75.7596777 C258.412116,75.6108551 258.101606,75.0590565 258.250429,74.527201 C258.616245,73.2198647 259.025549,71.9265818 259.477501,70.6491444 Z M256.045542,88.6212863 C256.066709,88.0694073 256.531255,87.6391807 257.083134,87.6603482 C257.635013,87.6815157 258.06524,88.1460616 258.044072,88.6979406 C258.014872,89.4592533 258.000158,90.222577 258.000001,90.9874438 C258,96.8743269 258.858322,102.634046 260.530009,108.146802 C260.690277,108.675322 260.391751,109.233694 259.863231,109.393962 C259.334712,109.55423 258.77634,109.255704 258.616072,108.727185 C256.887461,103.026712 256,97.0714535 256.000001,90.9872388 C256.000163,90.1967434 256.015367,89.4080002 256.045542,88.6212863 Z M259.930484,112.588216 C259.734991,112.071689 259.995241,111.494482 260.511769,111.298989 C261.028296,111.103496 261.605503,111.363746 261.800996,111.880274 C263.432269,116.190393 265.565072,120.288784 268.150184,124.096776 C268.460384,124.553716 268.341428,125.175606 267.884488,125.485807 C267.427548,125.796007 266.805658,125.677051 266.495458,125.220111 C263.822678,121.28298 261.617352,117.045229 259.930484,112.588216 Z M280.522787,139.896381 C280.080365,139.565804 279.989697,138.939164 280.320274,138.496742 C280.650851,138.05432 281.277491,137.963652 281.719913,138.294229 C282.770755,139.079417 283.847388,139.829471 284.948,140.543005 C285.411418,140.843442 285.543541,141.462668 285.243104,141.926086 C284.942667,142.389504 284.32344,142.521626 283.860023,142.22119 C282.722172,141.483514 281.609138,140.7081 280.522787,139.896381 Z M325.143801,136.281172 C324.600126,136.378313 324.080642,136.016327 323.983501,135.472652 C323.886359,134.928978 324.248346,134.409494 324.79202,134.312352 C326.078571,134.082477 327.351103,133.795721 328.60674,133.453246 C329.139561,133.307919 329.689309,133.622045 329.834636,134.154866 C329.979963,134.687687 329.665837,135.237435 329.133016,135.382762 C327.819892,135.740917 326.489139,136.040793 325.143801,136.281172 Z M333.036963,134.127018 C332.519334,134.319576 331.943614,134.056054 331.751056,133.538425 C331.558498,133.020796 331.822019,132.445075 332.339648,132.252517 C333.562962,131.797444 334.76442,131.288067 335.940846,130.726133 C336.439197,130.48809 337.036163,130.699111 337.274206,131.197462 C337.512249,131.695813 337.301228,132.292779 336.802877,132.530822 C335.572684,133.118438 334.31627,133.651115 333.036963,134.127018 Z M340.450099,130.582049 C339.975202,130.863992 339.361663,130.707572 339.07972,130.232676 C338.797777,129.757779 338.954197,129.144239 339.429094,128.862297 C340.550698,128.196408 341.642216,127.48089 342.700424,126.718102 C343.148446,126.395155 343.77344,126.496547 344.096387,126.944569 C344.419335,127.392591 344.317942,128.017585 343.86992,128.340532 C342.763724,129.137912 341.622663,129.885906 340.450099,130.582049 Z M347.053337,125.826216 C346.635369,126.187217 346.00389,126.141037 345.64289,125.723069 C345.281889,125.305102 345.32807,124.673623 345.746037,124.312622 C346.733163,123.460036 347.68226,122.564094 348.590332,121.627665 C348.974807,121.231184 349.607897,121.221451 350.004378,121.605926 C350.40086,121.990401 350.410593,122.623491 350.026118,123.019972 C349.077031,123.998697 348.085063,124.935109 347.053337,125.826216 Z M352.764465,119.931656 C352.416862,120.36083 351.78716,120.426957 351.357986,120.079354 C350.928811,119.731752 350.862684,119.102049 351.210287,118.672875 C352.031502,117.658945 352.807449,116.609155 353.535589,115.526685 C353.843842,115.068429 354.46522,114.946827 354.923476,115.25508 C355.381732,115.563332 355.503334,116.184711 355.195081,116.642967 C354.433936,117.774503 353.622847,118.871837 352.764465,119.931656 Z M357.352695,113.100569 C357.086976,113.58473 356.479078,113.761812 355.994917,113.496092 C355.510756,113.230373 355.333674,112.622475 355.599394,112.138314 C356.226817,110.995102 356.803141,109.824245 357.326425,108.628961 C357.547915,108.123035 358.137601,107.892454 358.643527,108.113943 C359.149453,108.335433 359.380034,108.925119 359.158544,109.431045 C358.611355,110.680934 358.008726,111.905231 357.352695,113.100569 Z M360.599067,105.705324 C360.422616,106.228663 359.855325,106.509872 359.331986,106.333422 C358.808647,106.156972 358.527438,105.58968 358.703888,105.066341 C359.11997,103.832272 359.481122,102.578692 359.785999,101.308597 C359.914908,100.771568 360.454759,100.440722 360.991789,100.569632 C361.528818,100.698542 361.859664,101.238392 361.730754,101.775422 C361.411914,103.103687 361.034214,104.414708 360.599067,105.705324 Z M362.510485,97.7339278 C362.430315,98.2803627 361.922351,98.6583448 361.375916,98.5781743 C360.829481,98.4980039 360.451499,97.9900398 360.531669,97.4436049 C360.720369,96.1574469 360.852501,94.8594813 360.927239,93.5522896 C360.958763,93.0009053 361.431304,92.5794759 361.982689,92.6110006 C362.534073,92.6425254 362.955502,93.1150665 362.923978,93.6664508 C362.845868,95.0326365 362.707751,96.3893798 362.510485,97.7339278 Z M362.977641,89.5522396 C362.994714,90.1042604 362.561053,90.5656023 362.009032,90.5826755 C361.457012,90.5997487 360.99567,90.166088 360.978597,89.6140672 C360.938118,88.3053035 360.840316,87.0047675 360.685953,85.7149661 C360.620324,85.1665946 361.011664,84.6688489 361.560036,84.60322 C362.108407,84.537591 362.606153,84.9289312 362.671782,85.4773027 C362.83313,86.825464 362.935344,88.1846687 362.977641,89.5522396 Z M362.002064,81.4259262 C362.11646,81.9662336 361.77119,82.4969754 361.230883,82.6113713 C360.690575,82.7257672 360.159834,82.3804977 360.045438,81.8401904 C359.774832,80.562081 359.447648,79.299331 359.065147,78.0548832 C358.902885,77.5269727 359.199302,76.9674774 359.727212,76.8052154 C360.255123,76.6429534 360.814618,76.9393701 360.97688,77.4672806 C361.376905,78.7687409 361.719074,80.0893264 362.002064,81.4259262 Z M359.599051,73.6099974 C359.807966,74.121244 359.562877,74.7050501 359.051631,74.9139648 C358.540384,75.1228794 357.956578,74.877791 357.747663,74.3665444 C357.254075,73.1586579 356.70688,71.9740655 356.107933,70.8159684 C355.854224,70.3254074 356.04623,69.7220572 356.536791,69.4683481 C357.027352,69.2146389 357.630703,69.4066453 357.884412,69.8972063 C358.510697,71.1081649 359.082893,72.3468798 359.599051,73.6099974 Z M355.814307,66.3024251 C356.111225,66.7681056 355.974416,67.3863136 355.508735,67.6832313 C355.043055,67.9801489 354.424847,67.8433396 354.127929,67.3776591 C353.426923,66.278213 352.677338,65.2102933 351.881634,64.1770982 C351.544651,63.7395361 351.626186,63.1116429 352.063748,62.7746593 C352.50131,62.4376757 353.129203,62.5192107 353.466187,62.9567727 C354.297932,64.036766 355.081495,65.1530946 355.814307,66.3024251 Z M350.859255,59.8620272 C351.233204,60.2684513 351.206878,60.9010688 350.800454,61.2750178 C350.39403,61.6489669 349.761412,61.6226407 349.387463,61.2162166 C348.504117,60.2561574 347.578655,59.3354919 346.614021,58.4571523 C346.205659,58.085321 346.176044,57.452849 346.547876,57.0444865 C346.919707,56.636124 347.552179,56.6065096 347.960541,56.9783408 C348.968748,57.8963558 349.936008,58.8586026 350.859255,59.8620272 Z M344.783547,54.3352835 C345.223483,54.6691617 345.30946,55.2964622 344.975582,55.7363983 C344.641704,56.1763343 344.014403,56.2623112 343.574467,55.9284329 C342.535546,55.1399706 341.462212,54.3978932 340.35767,53.7046378 C339.889889,53.4110398 339.748687,52.7938205 340.042285,52.3260399 C340.335883,51.8582593 340.953102,51.7170565 341.420882,52.0106544 C342.575555,52.7353738 343.697557,53.511099 344.783547,54.3352835 Z M337.808406,49.9646798 C338.300785,50.214843 338.497139,50.8167922 338.246976,51.3091709 C337.996813,51.8015497 337.394864,51.9979042 336.902485,51.747741 C335.740323,51.1572805 334.552009,50.6187412 333.340737,50.1339531 C332.827994,49.9287378 332.578694,49.3467178 332.783909,48.833975 C332.989125,48.3212323 333.571145,48.0719321 334.083888,48.2771474 C335.350559,48.7841081 336.593181,49.3472596 337.808406,49.9646798 Z M330.317124,46.9574354 C330.845829,47.1170886 331.145005,47.6751135 330.985351,48.2038188 C330.825698,48.732524 330.267673,49.0316998 329.738968,48.8720466 C328.492737,48.495722 327.228424,48.1747796 325.948962,47.9104629 C325.408098,47.798729 325.060219,47.2696937 325.171953,46.7288296 C325.283687,46.1879655 325.812722,45.8400868 326.353586,45.9518207 C327.69159,46.2282311 329.013802,46.5638712 330.317124,46.9574354 Z M322.287584,45.3006921 C322.836285,45.3635032 323.230177,45.859232 323.167366,46.4079333 C323.104555,46.9566347 322.608826,47.3505267 322.060125,47.2877156 C320.769039,47.1399221 319.467413,47.0487427 318.157742,47.014929 C317.605641,47.0006746 317.16963,46.541553 317.183885,45.9894522 C317.198139,45.4373515 317.657261,45.0013408 318.209361,45.0155952 C319.577826,45.0509269 320.938122,45.1462162 322.287584,45.3006921 Z M314.103997,45.0897168 C314.655218,45.0554626 315.12984,45.4745474 315.164094,46.0257688 C315.198348,46.5769903 314.779264,47.0516121 314.228042,47.0858663 C312.921677,47.1670469 311.624723,47.3055931 310.339773,47.5006641 C309.793745,47.5835579 309.283903,47.208113 309.201009,46.6620845 C309.118115,46.1160561 309.49356,45.6062139 310.039588,45.5233202 C311.382906,45.3193882 312.738631,45.1745639 314.103997,45.0897168 Z M306.003127,46.3229878 C306.539507,46.1914008 307.081001,46.5195502 307.212588,47.05593 C307.344175,47.5923098 307.016026,48.1338039 306.479646,48.265391 C305.211371,48.5765296 303.959821,48.9438601 302.727999,49.3660228 C302.205544,49.5450753 301.636861,49.2666929 301.457808,48.7442384 C301.278756,48.221784 301.557138,47.6531003 302.079593,47.4740478 C303.367858,47.0325412 304.67676,46.6483782 306.003127,46.3229878 Z M298.27015,48.9735432 C298.774481,48.7484463 299.365799,48.9748104 299.590896,49.4791415 C299.815993,49.9834725 299.589628,50.5747907 299.085297,50.7998876 C297.893863,51.3316575 296.727181,51.9162902 295.588472,52.5518192 C295.106213,52.8209746 294.497071,52.64822 294.227916,52.1659609 C293.95876,51.6837018 294.131515,51.0745601 294.613774,50.8054046 C295.804387,50.1409072 297.024302,49.5295991 298.27015,48.9735432 Z M291.146011,52.9477153 C291.602556,52.6369339 292.224597,52.7550987 292.535378,53.2116437 C292.846159,53.6681887 292.727995,54.2902297 292.27145,54.6010111 C291.193263,55.3349593 290.147993,56.1165045 289.138812,56.9430924 C288.711553,57.2930469 288.081497,57.2303792 287.731543,56.8031201 C287.381588,56.375861 287.444256,55.745805 287.871515,55.3958505 C288.926361,54.5318588 290.018962,53.7149249 291.146011,52.9477153 Z M284.805469,58.1440492 C285.19992,57.7574912 285.833052,57.7638895 286.21961,58.1583401 C286.606168,58.5527908 286.59977,59.1859235 286.205319,59.5724815 C285.273558,60.485599 284.382514,61.4395343 283.535045,62.4312787 C283.176257,62.8511475 282.545032,62.9006636 282.125163,62.5418759 C281.705294,62.1830882 281.655778,61.5518623 282.014566,61.1319935 C282.900328,60.0954363 283.831622,59.0984106 284.805469,58.1440492 Z M279.47104,64.3934277 C279.790834,63.9431504 280.415101,63.8373735 280.865379,64.1571684 C281.315656,64.4769633 281.421433,65.1012302 281.101638,65.5515075 C280.34639,66.6149107 279.638643,67.711295 278.980732,68.837436 C278.702137,69.3143042 278.089713,69.4750365 277.612845,69.1964416 C277.135976,68.9178467 276.975244,68.3054228 277.253839,67.8285546 C277.941652,66.6512319 278.681533,65.5050685 279.47104,64.3934277 Z M275.337088,71.4760702 C275.571767,70.9761259 276.167297,70.7610859 276.667241,70.9957648 C277.167186,71.2304437 277.382226,71.8259734 277.147547,72.3259177 C276.593697,73.5058022 276.092541,74.7103945 275.645803,75.9365298 C275.456737,76.4554449 274.882806,76.7228411 274.363891,76.5337759 C273.844976,76.3447108 273.57758,75.7707795 273.766645,75.2518645 C274.233835,73.9695978 274.75792,72.7098927 275.337088,71.4760702 Z M272.559368,79.0812069 C272.702103,78.5476856 273.250318,78.2308913 273.783839,78.3736271 C274.31736,78.5163628 274.634155,79.0645774 274.491419,79.5980987 C274.155045,80.8554042 273.874453,82.129394 273.650788,83.4172027 C273.556282,83.9613416 273.038559,84.3258417 272.49442,84.2313363 C271.950281,84.136831 271.585781,83.6191075 271.680286,83.0749686 C271.914168,81.7283319 272.207596,80.3960661 272.559368,79.0812069 Z M271.158162,87.1587004 C271.203679,86.6082945 271.68677,86.1990009 272.237176,86.2445175 C272.787582,86.2900342 273.196875,86.7731249 273.151359,87.3235308 C273.051066,88.5363086 273.000426,89.757283 273.000003,90.9841508 C273.000114,91.1236792 273.000114,91.1236792 273.000678,91.2469085 C273.003711,91.7991849 272.558461,92.2493523 272.006185,92.2523854 C271.453909,92.2554186 271.003741,91.8101689 271.000708,91.2578925 C271.000118,91.1288298 271.000118,91.1288298 271.000003,90.9837782 C271.000445,89.701793 271.053356,88.4260593 271.158162,87.1587004 Z M271.20226,95.3414809 C271.15077,94.7916016 271.554795,94.3040958 272.104674,94.2526061 C272.654554,94.2011165 273.14206,94.6051412 273.193549,95.1550205 C273.315564,96.4580664 273.494945,97.7504748 273.730767,99.0295678 C273.830903,99.5726988 273.471784,100.094169 272.928653,100.194305 C272.385522,100.29444 271.864051,99.9353216 271.763916,99.3921906 C271.517348,98.0548153 271.329809,96.7036287 271.20226,95.3414809 Z M272.694035,103.411117 C272.545344,102.879225 272.855989,102.327503 273.387882,102.178812 C273.919774,102.03012 274.471496,102.340766 274.620187,102.872658 C274.971568,104.129604 275.378665,105.368442 275.840015,106.586116 C276.03569,107.102574 275.775644,107.679873 275.259185,107.875548 C274.742726,108.071223 274.165428,107.811177 273.969753,107.294718 C273.487269,106.021265 273.061517,104.725658 272.694035,103.411117 Z M275.590707,111.055313 C275.34962,110.558427 275.556985,109.960182 276.053871,109.719095 C276.550757,109.478008 277.149002,109.685374 277.390089,110.182259 C277.959599,111.356032 278.581164,112.503584 279.252706,113.621681 C279.537067,114.095134 279.383779,114.709463 278.910326,114.993824 C278.436874,115.278185 277.822545,115.124896 277.538183,114.651444 C276.836075,113.482456 276.186191,112.282619 275.590707,111.055313 Z M279.786408,118.045155 C279.461363,117.598653 279.559824,116.973191 280.006327,116.648146 C280.452829,116.323101 281.078292,116.421562 281.403336,116.868065 C282.170913,117.922457 282.98497,118.942509 283.842861,119.925084 C284.206097,120.341111 284.1633,120.972828 283.747273,121.336064 C283.331246,121.699299 282.699529,121.656503 282.336294,121.240476 C281.439614,120.213474 280.588731,119.147279 279.786408,118.045155 Z M285.180051,124.218922 C284.781269,123.836834 284.767735,123.203814 285.149823,122.805032 C285.531911,122.40625 286.164932,122.392716 286.563714,122.774804 C287.505765,123.677419 288.48731,124.538017 289.505283,125.353821 C289.936251,125.699199 290.005635,126.328551 289.660257,126.759518 C289.31488,127.190485 288.685528,127.25987 288.254561,126.914492 C287.190563,126.061803 286.164662,125.162315 285.180051,124.218922 Z M291.594838,129.353974 C291.134677,129.048571 291.009221,128.42796 291.314624,127.967799 C291.620026,127.507639 292.240638,127.382183 292.700798,127.687586 C293.787449,128.408782 294.905628,129.081426 296.052102,129.703288 C296.53757,129.966612 296.717653,130.573627 296.454329,131.059095 C296.191005,131.544563 295.58399,131.724646 295.098522,131.461322 C293.899867,130.811156 292.730847,130.107929 291.594838,129.353974 Z M298.80668,133.261816 C298.299507,133.043198 298.065588,132.454827 298.284207,131.947654 C298.502825,131.440482 299.091196,131.206562 299.598369,131.425181 C300.795112,131.941042 302.015092,132.403489 303.255182,132.810906 C303.779875,132.983287 304.06548,133.548378 303.893098,134.073072 C303.720716,134.597765 303.155625,134.88337 302.630932,134.710988 C301.334035,134.284907 300.058189,133.801285 298.80668,133.261816 Z M306.492904,135.794308 C305.955106,135.668641 305.621008,135.130797 305.746675,134.592999 C305.872342,134.055202 306.410186,133.721104 306.947984,133.846771 C308.214999,134.142833 309.49732,134.382797 310.792157,134.565607 C311.339018,134.642815 311.719747,135.148723 311.642539,135.695585 C311.565331,136.242446 311.059423,136.623175 310.512562,136.545967 C309.158712,136.354825 307.817838,136.103905 306.492904,135.794308 Z" id="Combined-Shape"></path>
                                </g>
                                <g id="light" transform="translate(66.000000, 19.000000)">
                                    <path d="M8.84374574,42.809791 C4.26683135,40.162187 1.1875,35.2136184 1.1875,29.5458333 C1.1875,21.0889731 8.04313977,14.2333333 16.5,14.2333333 C24.9568602,14.2333333 31.8125,21.0889731 31.8125,29.5458333 C31.8125,35.2136184 28.7331687,40.162187 24.1562543,42.809791 L24.15625,45.7714749 C24.15625,46.3242682 23.7144905,46.7723958 23.1515541,46.7723958 L9.84844589,46.7723958 C9.29356767,46.7723958 8.84375,46.3163909 8.84375,45.7714749 L8.84375,42.8097935 Z M8.84375,51.3967025 C8.84375,50.8462389 9.28550953,50.4 9.84844589,50.4 L23.1515541,50.4 C23.7064323,50.4 24.15625,50.8510672 24.15625,51.3967025 L24.15625,55.9657975 C24.15625,56.5162611 23.7144905,56.9625 23.1515541,56.9625 L9.84844589,56.9625 C9.29356767,56.9625 8.84375,56.5114328 8.84375,55.9657975 L8.84375,51.3967025 Z" id="Combined-Shape" fill="#E6F5FB"></path>
                                    <path d="M19.317581,32.1306983 L19.3154364,32.0502783 C19.3100751,31.8218856 19.305786,31.602071 19.305786,31.3908345 C19.2982802,28.579352 19.8890989,27.5017243 20.2429468,27.1071303 C20.7125995,26.5806475 21.2294319,26.5688526 21.729108,26.5613467 L22.1226298,26.5634912 C22.7574115,26.5677803 23.2860388,26.8594368 23.7363907,27.4566891 C24.1256234,27.971377 24.3486548,28.6973013 24.3400767,29.0994012 C24.2821743,31.0519983 23.3739647,31.8304637 22.8378315,32.1199756 L19.317581,32.1306983 Z M10.973204,26.5613467 C11.4739524,26.5688526 11.9918571,26.578503 12.4636543,27.1071303 C12.8164299,27.5006521 13.4061764,28.5782798 13.4008151,31.3908345 C13.4008151,31.6031432 13.396526,31.8218856 13.392237,32.0502783 L13.3900924,32.1306983 L9.88699817,32.1306983 L9.86876964,32.1210479 C9.33263645,31.8304637 8.42442683,31.050926 8.36759671,29.1004735 C8.35901858,28.7584205 8.54130386,28.0228458 8.97021042,27.4545446 C9.42163456,26.8594368 9.95026188,26.5677803 10.5871881,26.5634912 L10.973204,26.5613467 Z M22.1279911,25.1277266 L21.6508326,25.1234375 C20.5925057,25.1234375 19.7550656,25.4729963 19.1599578,26.1656804 C18.2849884,27.1843335 17.8753827,28.8442018 17.8710936,31.3908345 C17.8710936,31.602071 17.8721659,31.8218856 17.8785995,32.0459892 L17.8818163,32.1306983 L14.8258571,32.1306983 L14.8280016,32.0470615 C14.833363,31.8218856 14.8355075,31.6009987 14.8355075,31.3897622 C14.8312184,28.8463464 14.4226849,27.186478 13.5477156,26.1656804 C12.9526077,25.4740686 12.1151677,25.1234375 11.0514795,25.1234375 L10.5743209,25.1277266 C9.04955813,25.1277266 8.13598717,26.1592468 7.81323499,26.6031651 C7.26209008,27.363402 6.94041016,28.2716116 6.9296875,29.1122684 C6.98651762,32.30655 9.11282184,33.3702382 9.35408178,33.4817539 L15.590383,33.5214278 L15.590383,43.9005028 L17.1140736,43.9005028 L17.1140736,33.5310782 L23.0201168,33.5686075 L23.3503748,33.4817539 C23.592707,33.3702382 25.7200835,32.3086945 25.7758413,29.114413 C25.7683355,28.2791174 25.4466556,27.3644742 24.8933661,26.6020928 C24.5716862,26.1592468 23.657043,25.1277266 22.1279911,25.1277266 Z" id="Fill-10" fill="#FFFFFF"></path>
                                    <path d="M9.34447197,41.9441853 L9.84374574,42.2329998 L9.84375,42.8097935 L9.84375,45.7714749 C9.84375,45.7671974 23.1515541,45.7723958 23.1515541,45.7723958 C23.1590213,45.7723958 23.1562551,42.2329993 23.1562551,42.2329993 L23.655528,41.9441853 C28.0496873,39.4022995 30.8125,34.7152857 30.8125,29.5458333 C30.8125,21.6412579 24.4045755,15.2333333 16.5,15.2333333 C8.59542452,15.2333333 2.1875,21.6412579 2.1875,29.5458333 C2.1875,34.7152857 4.95031265,39.4022995 9.34447197,41.9441853 Z M0.1875,29.5458333 C0.1875,20.5366884 7.49085502,13.2333333 16.5,13.2333333 C25.509145,13.2333333 32.8125,20.5366884 32.8125,29.5458333 C32.8125,35.2382113 29.8714996,40.4191686 25.1562535,43.3746522 L25.15625,45.7714749 C25.15625,46.8789405 24.2643935,47.7723958 23.1515541,47.7723958 L9.84844589,47.7723958 C8.74362772,47.7723958 7.84375,46.8710257 7.84375,45.7714749 L7.84374655,43.3746522 C3.12850041,40.4191686 0.1875,35.2382113 0.1875,29.5458333 Z M9.84375,55.9657975 C9.84375,55.9597726 23.1515541,55.9625 23.1515541,55.9625 C23.1540472,55.9625 23.15625,51.3967025 23.15625,51.3967025 C23.15625,51.4027274 9.84844589,51.4 9.84844589,51.4 C9.84595281,51.4 9.84375,55.9657975 9.84375,55.9657975 Z M7.84375,51.3967025 C7.84375,50.2906326 8.7365516,49.4 9.84844589,49.4 L23.1515541,49.4 C24.2560041,49.4 25.15625,50.2960719 25.15625,51.3967025 L25.15625,55.9657975 C25.15625,57.0718674 24.2634484,57.9625 23.1515541,57.9625 L9.84844589,57.9625 C8.7439959,57.9625 7.84375,57.0664281 7.84375,55.9657975 L7.84375,51.3967025 Z" id="Combined-Shape" fill="#CBECF9" fill-rule="nonzero"></path>
                                    <path d="M15.40625,1.09050171 C15.40625,0.488234248 15.8917271,0 16.5,0 C17.1040614,0 17.59375,0.495508462 17.59375,1.09050171 L17.59375,7.65949829 C17.59375,8.26176575 17.1082729,8.75 16.5,8.75 C15.8959386,8.75 15.40625,8.25449154 15.40625,7.65949829 L15.40625,1.09050171 Z M0.785535572,4.26491605 C0.484401839,3.74333712 0.660720259,3.07777528 1.1875,2.77363886 C1.71063256,2.47160814 2.38246952,2.65588677 2.67996614,3.17116605 L5.96446443,8.86008395 C6.26559816,9.38166288 6.08927974,10.0472247 5.5625,10.3513611 C5.03936744,10.6533919 4.36753048,10.4691132 4.07003386,9.95383395 L0.785535572,4.26491605 Z M32.2144644,4.26491605 L28.9299661,9.95383395 C28.6324695,10.4691132 27.9606326,10.6533919 27.4375,10.3513611 C26.9107203,10.0472247 26.7344018,9.38166288 27.0355356,8.86008395 L30.3200339,3.17116605 C30.6175305,2.65588677 31.2893674,2.47160814 31.8125,2.77363886 C32.3392797,3.07777528 32.5155982,3.74333712 32.2144644,4.26491605 Z" id="Combined-Shape" fill="#E6F5FB"></path>
                                </g>
                                <g id="settings" transform="translate(0.000000, 67.000000)">
                                    <g id="set" transform="translate(30.000000, 39.000000)">
                                        <path d="M18.4846253,12.2216753 C18.4846253,11.9156296 18.5866406,11.6095839 18.5866406,11.201523 C18.5866406,10.7934621 18.5866406,10.4874164 18.4846253,10.1813707 L20.6269452,8.549127 C20.8309756,8.44711177 20.8309756,8.14106608 20.7289604,7.93703562 L18.6886558,4.36650258 C18.5866406,4.16247212 18.2805949,4.06045689 18.0765644,4.16247212 L15.5261837,5.18262442 C15.0161075,4.7745635 14.4040162,4.46851781 13.7919248,4.16247212 L13.3838639,1.40806092 C13.4858791,1.20403046 13.1798334,1 12.9758029,1 L8.89519376,1 C8.6911633,1 8.38511761,1.20403046 8.38511761,1.40806092 L7.97705669,4.16247212 C7.36496531,4.36650258 6.85488916,4.7745635 6.24279778,5.18262442 L3.69241704,4.16247212 C3.48838658,4.06045689 3.28435612,4.16247212 3.08032566,4.36650258 L1.04002107,7.93703562 C0.938005839,8.03905085 1.04002107,8.34509654 1.24405153,8.549127 L3.38637135,10.1813707 C3.38637135,10.4874164 3.28435612,10.7934621 3.28435612,11.201523 C3.28435612,11.6095839 3.28435612,11.9156296 3.38637135,12.2216753 L1.24405153,13.8539189 C1.04002107,13.9559342 1.04002107,14.2619799 1.1420363,14.4660103 L3.18234089,18.0365434 C3.28435612,18.2405738 3.48838658,18.3425891 3.79443227,18.2405738 L6.34481301,17.2204215 C6.85488916,17.6284824 7.46698054,17.9345281 8.07907192,18.2405738 L8.48713284,20.8929698 C8.48713284,21.0970003 8.6911633,21.3010307 8.99720899,21.3010307 L13.0778182,21.3010307 C13.2818486,21.3010307 13.5878943,21.0970003 13.5878943,20.8929698 L13.9959552,18.2405738 C14.6080466,18.0365434 15.220138,17.6284824 15.7302141,17.2204215 L18.2805949,18.2405738 C18.4846253,18.3425891 18.790671,18.2405738 18.8926863,18.0365434 L20.9329909,14.4660103 C21.0350061,14.2619799 21.0350061,13.9559342 20.8309756,13.8539189 L18.4846253,12.2216753 L18.4846253,12.2216753 Z M10.9354984,14.772056 C8.99720899,14.772056 7.36496531,13.1398123 7.36496531,11.201523 C7.36496531,9.26323361 8.99720899,7.63098993 10.9354984,7.63098993 C12.8737877,7.63098993 14.5060314,9.26323361 14.5060314,11.201523 C14.5060314,13.1398123 12.8737877,14.772056 10.9354984,14.772056 L10.9354984,14.772056 Z" id="Shape" fill="#FFFFFF"></path>
                                        <path d="M21.1993362,13.2574525 C21.7520019,13.5742256 21.8177562,14.2616515 21.5407611,14.8133076 L19.5187853,18.3495929 C19.2438776,18.8994083 18.5173608,19.1415806 18.0206214,18.8905075 L15.8402992,18.0183786 C15.4313056,18.3191809 15.0269605,18.5650321 14.6266801,18.7443932 L14.2851246,20.9645041 C14.2390681,21.5577404 13.6269917,22.0010307 13.0778182,22.0010307 L8.99720899,22.0010307 C8.36693162,22.0010307 7.82720788,21.5578074 7.78926316,20.9603481 L7.44203237,18.703348 C6.89850228,18.426531 6.55218674,18.2324926 6.24031773,18.0159596 L4.01579171,18.9046521 C3.40645781,19.1077634 2.82660467,18.8903185 2.57457069,18.3838406 L0.515937265,14.7790598 C0.259280454,14.2657462 0.321717005,13.5878648 0.859300773,13.2670371 L2.60935674,11.9336612 C2.5892049,11.7463763 2.58435612,11.5238943 2.58435612,11.201523 C2.58435612,10.9852368 2.60236526,10.81415 2.64350355,10.5467511 C2.64604536,10.5302293 0.749076782,9.04410175 0.749076782,9.04410175 C0.334760793,8.62978576 0.106418747,7.99722724 0.464307818,7.5336387 L2.47255546,4.01920532 L2.58535092,3.87152783 C2.99857515,3.4583036 3.4847194,3.27599951 3.95239051,3.51253844 L6.15622044,4.39407041 C6.36523596,4.2513473 6.62375342,4.07570351 6.73411439,4.00547381 C6.94837619,3.86912539 7.14669578,3.75675034 7.34323488,3.6641989 L7.68768826,1.3391386 C7.73214773,0.744591953 8.34521454,0.3 8.89519376,0.3 L12.9758029,0.3 C13.5759494,0.3 14.2330291,0.80553665 14.0999014,1.46474354 L14.4311723,3.70082256 C14.9735373,3.97709394 15.3193658,4.17092142 15.6308591,4.38721145 L17.7635149,3.53637309 C18.3133303,3.26146538 19.0398471,3.50363766 19.296426,4.01920532 L21.3550594,7.6239861 C21.6117162,8.13729972 21.5492797,8.81518115 21.0116959,9.13600882 L19.26164,10.4693848 C19.2817918,10.6566696 19.2866406,10.8791516 19.2866406,11.201523 C19.2866406,11.4178092 19.2686314,11.588896 19.2274932,11.8562949 C19.2260881,11.8654279 21.1993362,13.2574525 21.1993362,13.2574525 Z M18.2849161,17.6892461 L18.3002348,17.6624547 C18.2946633,17.6708279 18.2895492,17.6797674 18.2849161,17.6892461 Z M18.5936444,17.6144748 C18.5728,17.6040526 18.5525466,17.5959877 18.5329939,17.5901539 L18.5936444,17.6144748 Z M3.80843993,17.7234938 C3.80547954,17.7175731 3.80217449,17.7118043 3.79856083,17.706195 L3.80843993,17.7234938 Z M1.55710105,14.480018 C1.60132333,14.4579068 1.63765848,14.4349122 1.6671276,14.4114405 L1.55710105,14.480018 Z M3.57530041,4.86147733 C3.59144703,4.8453307 3.58186211,4.84340505 3.55335957,4.83953648 L3.57530041,4.86147733 Z M3.37936752,4.78857115 C3.40777251,4.80277365 3.43408821,4.81278203 3.45772591,4.81999289 L3.37936752,4.78857115 Z M17.7846253,12.587436 L17.7846253,12.2216753 C17.7846253,12.0460121 17.7955088,11.9571308 17.8437728,11.6434148 C17.8748953,11.4411186 17.8866406,11.3295382 17.8866406,11.201523 C17.8866406,10.7172208 17.8750196,10.5661477 17.820547,10.4027301 L17.6622708,9.92790129 L20.0297068,8.12414047 L18.1752671,4.87691412 L15.4074218,5.98405226 L15.0888972,5.72923258 C14.715789,5.43074604 14.3521125,5.22518976 13.4788753,4.78857115 L13.1528933,4.62558018 L12.719474,1.7 L9.04950744,1.7 L8.60646536,4.69053402 L8.19841613,4.82655043 C7.98124481,4.89894087 7.76039361,5.01182037 7.48574008,5.18659989 C7.32059226,5.29169395 6.70426739,5.71627331 6.63108792,5.76505962 L6.32470924,5.96931208 L5.98282431,5.8325581 L3.59577999,4.87535262 L1.77025606,8.07001949 L4.08637135,9.83467876 L4.08637135,10.1813707 C4.08637135,10.3570338 4.07548793,10.4459151 4.02722393,10.7596311 C3.99610143,10.9619274 3.98435612,11.0735078 3.98435612,11.201523 C3.98435612,11.6858252 3.99597713,11.8368982 4.05044966,12.0003158 L4.20872593,12.4751446 L1.84128985,14.2789055 L3.69572959,17.5261318 L6.46357495,16.4189937 L6.78209955,16.6738134 C7.15520772,16.9722999 7.51888422,17.1778562 8.46736206,17.6581386 L8.39212144,17.6144748 L8.71588983,17.776359 L9.15045471,20.6010307 L12.9245725,20.6010307 L13.3690904,17.711664 L13.7745958,17.5764955 C14.230657,17.4244751 14.7489659,17.1089827 15.2929276,16.6738134 L15.6114522,16.4189937 L15.9901876,16.5704878 L18.3772781,17.5277118 L20.2295389,14.2882454 L17.7846253,12.587436 Z M10.9354984,14.072056 C12.4871884,14.072056 13.8060314,12.753213 13.8060314,11.201523 C13.8060314,9.64983293 12.4871884,8.33098993 10.9354984,8.33098993 C9.38380831,8.33098993 8.06496531,9.64983293 8.06496531,11.201523 C8.06496531,12.753213 9.38380831,14.072056 10.9354984,14.072056 Z M10.9354984,15.472056 C8.61060966,15.472056 6.66496531,13.5264117 6.66496531,11.201523 C6.66496531,8.87663428 8.61060966,6.93098993 10.9354984,6.93098993 C13.260387,6.93098993 15.2060314,8.87663428 15.2060314,11.201523 C15.2060314,13.5264117 13.260387,15.472056 10.9354984,15.472056 Z" id="Shape" fill="#CBECF9" fill-rule="nonzero"></path>
                                    </g>
                                    <g id="set" transform="translate(0.000000, 72.000000)">
                                        <path d="M22.8557817,15.0270941 L25.7887195,17.0673987 C26.0437576,17.1949177 26.0437576,17.5774748 25.9162386,17.8325129 L23.3658578,22.2956792 C23.2383388,22.5507173 22.8557817,22.6782363 22.6007436,22.5507173 L19.4127677,21.2755269 C18.7751725,21.7856031 18.0100583,22.2956792 17.2449441,22.5507173 L16.7348679,25.8662122 C16.7348679,26.1212503 16.3523108,26.3762884 16.0972727,26.3762884 L10.9965112,26.3762884 C10.6139541,26.3762884 10.358916,26.1212503 10.358916,25.8662122 L9.8488399,22.5507173 C9.08372568,22.1681602 8.31861145,21.7856031 7.68101627,21.2755269 L4.49304034,22.5507173 C4.11048323,22.6782363 3.85544515,22.5507173 3.72792612,22.2956792 L1.17754537,17.8325129 C1.05002634,17.5774748 1.05002634,17.1949177 1.30506441,17.0673987 L3.98296419,15.0270941 C3.85544515,14.644537 3.85544515,14.2619799 3.85544515,13.7519037 C3.85544515,13.2418276 3.98296419,12.8592705 3.98296419,12.4767133 L1.30506441,10.4364087 C1.05002634,10.1813707 0.922507299,9.79881356 1.05002634,9.67129453 L3.60040708,5.20812823 C3.85544515,4.95309015 4.11048323,4.82557111 4.3655213,4.95309015 L7.55349723,6.22828052 C8.31861145,5.71820437 8.95620664,5.20812823 9.72132086,4.95309015 L10.231397,1.51007615 C10.231397,1.25503807 10.6139541,1 10.8689922,1 L15.9697537,1 C16.2247918,1 16.6073489,1.25503807 16.4798298,1.51007615 L16.989906,4.95309015 C17.7550202,5.33564726 18.5201344,5.71820437 19.1577296,6.22828052 L22.3457055,4.95309015 C22.6007436,4.82557111 22.9833007,4.95309015 23.1108198,5.20812823 L25.6612005,9.67129453 C25.7887195,9.9263326 25.7887195,10.3088897 25.5336815,10.4364087 L22.8557817,12.4767133 C22.9833007,12.8592705 22.9833007,13.2418276 22.9833007,13.7519037 C22.9833007,14.2619799 22.8557817,14.644537 22.8557817,15.0270941 Z M13.4193729,18.21507 C15.8422346,18.21507 17.8825392,16.1747654 17.8825392,13.7519037 C17.8825392,11.329042 15.8422346,9.28873741 13.4193729,9.28873741 C10.9965112,9.28873741 8.95620664,11.329042 8.95620664,13.7519037 C8.95620664,16.1747654 10.9965112,18.21507 13.4193729,18.21507 Z" id="Combined-Shape" fill="#E6F5FB"></path>
                                        <path d="M26.2624598,16.3006064 C26.9662447,16.7044437 27.0496599,17.578033 26.6976574,18.2790379 L24.1708423,22.6981714 C23.8210329,23.3977902 22.8978701,23.7055111 22.266492,23.3863463 L19.5539858,22.3013438 C19.0494469,22.6714965 18.5504011,22.9748843 18.0559922,23.1977305 L17.6312733,25.9584034 C17.5721884,26.7140039 16.7954511,27.2762884 16.0972727,27.2762884 L10.9965112,27.2762884 C10.1964906,27.2762884 9.51052891,26.7132591 9.46169456,25.9530985 L9.02977896,23.1456471 C8.36222602,22.8054242 7.93297357,22.5649495 7.54717727,22.2981503 L4.77764533,23.4045322 C4.00450328,23.6622463 3.26662731,23.3855428 2.94650729,22.7422042 L0.372560901,18.2350051 C0.0466965418,17.5832764 0.125859982,16.7219755 0.810212653,16.3129676 L2.98532028,14.6557427 C2.96128351,14.4235576 2.95544515,14.1476634 2.95544515,13.7519037 C2.95544515,13.4799697 2.97806843,13.2650486 3.02967014,12.9296374 C3.03195058,12.9148146 0.759625517,11.1522973 0.759625517,11.1522973 L0.668668307,11.0728049 C0.143039442,10.547176 -0.146889918,9.74439693 0.309808889,9.15266707 L2.87878603,4.65695707 L2.96401098,4.57173212 C3.48728379,4.04845931 4.10524779,3.81672281 4.69977291,4.11746113 L7.44218412,5.21442561 C7.70155538,5.03734941 8.01791736,4.82248946 8.1542211,4.73575072 C8.41849329,4.56757751 8.66354561,4.42842061 8.90627387,4.31335249 L9.33473325,1.42125172 C9.39176996,0.663955298 10.1697772,0.1 10.8689922,0.1 L15.9697537,0.1 C16.7329751,0.1 17.5685654,0.742230025 17.4003677,1.58240228 L17.8118055,4.35960721 C18.4778749,4.6991355 18.9064966,4.93933554 19.2918075,5.20582233 L21.9432133,4.14810568 C22.642832,3.79829632 23.5659949,4.10601727 23.8922386,4.76160318 L26.466185,9.26880229 C26.7920493,9.92053101 26.7128859,10.7818319 26.0285332,11.1908399 L23.8534256,12.8480647 C23.8774624,13.0802498 23.8833007,13.356144 23.8833007,13.7519037 C23.8833007,14.0238377 23.8606775,14.2387588 23.8090757,14.57417 C23.8081469,14.5802071 26.2624598,16.3006064 26.2624598,16.3006064 Z M22.584439,21.8491542 L22.6047419,21.8136465 C22.5973532,21.8247701 22.5905738,21.8366176 22.584439,21.8491542 Z M23.0032358,21.7457328 C22.9761266,21.7321782 22.9496615,21.7216399 22.9240027,21.7139581 L23.0032358,21.7457328 Z M11.258916,25.8662122 C11.258916,25.8337434 11.2564498,25.8032588 11.2519235,25.774775 L11.258916,25.8662122 Z M4.53291059,21.893187 C4.5288008,21.8849674 4.52421822,21.8769681 4.51921205,21.8691997 L4.53291059,21.893187 Z M4.23680318,5.84452433 C4.28823187,5.79309564 4.31505464,5.77381677 4.29897529,5.77984653 C4.2673765,5.79169608 4.23170851,5.79918267 4.1942514,5.80197255 L4.23680318,5.84452433 Z M22.6799571,5.78871917 L22.6351092,5.80665834 C22.6504688,5.80236637 22.6654749,5.79637527 22.6799571,5.78871917 Z M4.88296419,12.0309666 L4.88296419,12.4767133 C4.88296419,12.6980876 4.86929001,12.8097601 4.8087392,13.2033404 C4.77001493,13.4550481 4.75544515,13.593461 4.75544515,13.7519037 C4.75544515,14.3545392 4.76983994,14.5416714 4.83677916,14.7424891 L5.04027722,15.3529833 L2.08417859,17.6052489 L4.38054681,21.626385 L7.83371018,20.2451197 L8.24324181,20.572745 C8.70777149,20.9443687 9.16138918,21.2007613 10.2513321,21.7457328 L10.6676058,21.9538696 L11.2095164,25.4762884 L15.8842676,25.4762884 L16.438975,21.8706903 L16.9603391,21.6969023 C17.5271441,21.5079673 18.172692,21.1150251 18.8505421,20.572745 L19.2600738,20.2451197 L19.7470193,20.4398979 L22.7106625,21.6284026 L25.0038933,17.6177833 L21.9557817,15.4973578 L21.9557817,15.0270941 C21.9557817,14.8057198 21.9694559,14.6940474 22.0300067,14.3004671 C22.0687309,14.0487593 22.0833007,13.9103464 22.0833007,13.7519037 C22.0833007,13.1492682 22.0689059,12.962136 22.0019667,12.7613183 L21.7984687,12.1508241 L24.7545673,9.89855852 L22.4581991,5.8774224 L19.0050357,7.25868775 L18.5955041,6.93106245 C18.1309744,6.55943871 17.6773567,6.3030461 16.5874137,5.75807462 L16.1682941,5.5485148 L15.6277734,1.9 L11.0834535,1.9 L10.5305606,5.63202688 L10.0059259,5.80690512 C9.73666801,5.89665773 9.46232998,6.03687495 9.12059699,6.2543414 C8.91462252,6.38541606 8.14453817,6.91591861 8.05272741,6.97712579 L7.65881197,7.23973608 L7.21924562,7.06390954 L4.2556673,5.87543083 L1.99539241,9.8309119 L4.88296419,12.0309666 Z M13.4193729,17.31507 C15.3451784,17.31507 16.9825392,15.6777091 16.9825392,13.7519037 C16.9825392,11.8260983 15.3451784,10.1887374 13.4193729,10.1887374 C11.4935675,10.1887374 9.85620664,11.8260983 9.85620664,13.7519037 C9.85620664,15.6777091 11.4935675,17.31507 13.4193729,17.31507 Z M13.4193729,19.11507 C10.499455,19.11507 8.05620664,16.6718217 8.05620664,13.7519037 C8.05620664,10.8319857 10.499455,8.38873741 13.4193729,8.38873741 C16.3392909,8.38873741 18.7825392,10.8319857 18.7825392,13.7519037 C18.7825392,16.6718217 16.3392909,19.11507 13.4193729,19.11507 Z" id="Shape" fill="#CBECF9" fill-rule="nonzero"></path>
                                    </g>
                                    <g id="set" transform="translate(292.000000, 0.000000)">
                                        <path d="M42.2146383,26.8098531 C42.2146383,26.105948 42.4492733,25.4020429 42.4492733,24.4635028 C42.4492733,23.5249627 42.4492733,22.8210576 42.2146383,22.1171526 L47.1419739,18.3629921 C47.611244,18.1283571 47.611244,17.424452 47.3766089,16.9551819 L42.6839084,8.74295594 C42.4492733,8.27368588 41.7453682,8.03905085 41.2760982,8.27368588 L35.4102225,10.6200362 C34.2370473,9.68149605 32.8292372,8.97759096 31.421427,8.27368588 L30.4828869,1.93854011 C30.7175219,1.46927006 30.0136168,1 29.5443468,1 L20.1589456,1 C19.6896756,1 18.9857705,1.46927006 18.9857705,1.93854011 L18.0472304,8.27368588 C16.6394202,8.74295594 15.4662451,9.68149605 14.0584349,10.6200362 L8.1925592,8.27368588 C7.72328914,8.03905085 7.25401908,8.27368588 6.78474903,8.74295594 L2.09204846,16.9551819 C1.85741343,17.189817 2.09204846,17.893722 2.56131852,18.3629921 L7.48865411,22.1171526 C7.48865411,22.8210576 7.25401908,23.5249627 7.25401908,24.4635028 C7.25401908,25.4020429 7.25401908,26.105948 7.48865411,26.8098531 L2.56131852,30.5640136 C2.09204846,30.7986486 2.09204846,31.5025537 2.32668349,31.9718237 L7.01938405,40.1840497 C7.25401908,40.6533198 7.72328914,40.8879548 8.42719422,40.6533198 L14.2930699,38.3069695 C15.4662451,39.2455096 16.8740552,39.9494147 18.2818654,40.6533198 L19.2204055,46.7538305 C19.2204055,47.2231006 19.6896756,47.6923706 20.3935807,47.6923706 L29.7789818,47.6923706 C30.2482519,47.6923706 30.9521569,47.2231006 30.9521569,46.7538305 L31.8906971,40.6533198 C33.2985072,40.1840497 34.7063174,39.2455096 35.8794925,38.3069695 L41.7453682,40.6533198 C42.2146383,40.8879548 42.9185434,40.6533198 43.1531784,40.1840497 L47.845879,31.9718237 C48.080514,31.5025537 48.080514,30.7986486 47.611244,30.5640136 L42.2146383,26.8098531 L42.2146383,26.8098531 Z M24.8516462,32.6757288 C20.3935807,32.6757288 16.6394202,28.9215684 16.6394202,24.4635028 C16.6394202,20.0054373 20.3935807,16.2512768 24.8516462,16.2512768 C29.3097117,16.2512768 33.0638722,20.0054373 33.0638722,24.4635028 C33.0638722,28.9215684 29.3097117,32.6757288 24.8516462,32.6757288 L24.8516462,32.6757288 Z" id="Shape" fill="#E6F5FB"></path>
                                        <path d="M48.1348281,29.7100785 C49.0892541,30.2460299 49.2107336,31.4780949 48.7141221,32.4679627 L44.0476056,40.6312633 C43.5659813,41.5945119 42.2614032,42.0293713 41.3739776,41.5817965 L36.0414619,39.4487902 C34.9356704,40.2889271 33.8501722,40.9499411 32.7898965,41.3849969 L31.9488885,46.8515484 C31.8806405,47.8716928 30.7563374,48.6923706 29.7789818,48.6923706 L20.3935807,48.6923706 C19.2411385,48.6923706 18.2761288,47.893015 18.2227333,46.8454341 L17.3719454,41.3153127 C15.8179026,40.5304427 14.9503951,40.0432812 14.1361226,39.4466156 L8.74342199,41.6020031 C7.62193609,41.9758317 6.60692682,41.5952032 6.15114091,40.6801887 L1.4322563,32.4190373 C0.964918787,31.4843623 1.08138204,30.2656039 2.01506693,29.7230263 L6.3560225,26.4156316 C6.27189925,25.9388211 6.25401908,25.3943704 6.25401908,24.4635028 C6.25401908,24.0045055 6.29271085,23.6369337 6.3829649,23.0502824 C6.41384223,22.8495797 6.43606545,22.701486 6.45190535,22.5844277 L1.9552753,19.1584238 C1.08902311,18.3049103 0.67367071,17.1429609 1.27042899,16.3774516 L5.98294786,8.13054354 C6.86354034,7.24995106 7.73075016,6.92474737 8.56394987,7.34520919 L13.9349132,9.49359452 C14.4352624,9.15136787 15.2201374,8.6154722 15.5159572,8.42722326 C16.0970354,8.05744623 16.6202277,7.77031467 17.143885,7.54759517 L17.9888048,1.84438645 C18.0546686,0.822590033 19.180452,0 20.1589456,0 L29.5443468,0 C30.6069772,0 31.7712923,0.912251335 31.5075122,2.03108872 L32.3345046,7.61328773 C33.8866628,8.39727241 34.7535579,8.88418986 35.5673232,9.4805025 L40.8288846,7.37925869 C41.7921331,6.89763441 43.0967113,7.33249379 43.5521515,8.246817 L48.2710361,16.5079683 C48.7383736,17.4426433 48.6219104,18.6614018 47.6882255,19.2039793 L43.3472699,22.5113741 C43.4313932,22.9881846 43.4492733,23.5326352 43.4492733,24.4635028 C43.4492733,24.9225002 43.4105816,25.290072 43.3203275,25.8767233 C43.2917852,26.062248 43.2706377,26.2028199 43.2550912,26.315479 L48.1348281,29.7100785 Z M47.1640304,31.4584408 L47.1099541,31.4263393 C47.1260518,31.4375923 47.1440451,31.4484481 47.1640304,31.4584408 Z M3.00853211,31.4584408 C3.0348042,31.4453047 3.05763386,31.4306771 3.07724025,31.4156163 L3.00853211,31.4584408 Z M46.6947603,17.4685649 C46.6684882,17.481701 46.6456586,17.4963286 46.6260522,17.5113894 L46.6947603,17.4685649 Z M29.4585885,1.84819782 C29.4510998,1.90752541 29.4598539,1.9450498 29.4763291,1.9679468 L29.4585885,1.84819782 Z M41.7894812,9.19016953 C41.8018354,9.21487797 41.6986033,9.18046729 41.6474889,9.20216257 L35.2405626,11.7649331 L34.7855274,11.400905 C33.8821033,10.6781657 33.021786,10.1918994 31.0110623,9.18560738 L30.5085249,8.93526882 L29.4782387,1.98083694 C29.4988231,1.99360235 20.1589456,2 20.1589456,2 C20.1643497,2 20.0738454,2.03519611 19.9963818,2.09329379 C19.9693505,2.11356723 19.9857705,2.08893729 19.9857705,1.93854011 L19.974974,2.08508877 L18.9463856,9.02806002 L18.3634582,9.22236918 C17.8101302,9.40681181 17.2600589,9.6879594 16.5897081,10.1145462 C16.1986369,10.3634098 14.7732391,11.3453505 14.6131351,11.4520865 L14.1754513,11.7438757 L13.6870442,11.5485129 L7.7453456,9.16811307 C7.7775547,9.18421762 7.74931183,9.19879866 7.58474312,9.35853071 L3.03614676,17.3185743 C3.07920212,17.4164899 3.14840612,17.5243652 3.2299927,17.6152792 L8.48865411,21.6218784 L8.48865411,22.1171526 C8.48865411,22.4773716 8.4653277,22.6678706 8.35970829,23.3543967 C8.28376253,23.8480442 8.25401908,24.130607 8.25401908,24.4635028 C8.25401908,25.6443075 8.28395537,26.0334792 8.48865411,26.8098531 L8.43733741,26.4936254 L8.66344637,27.1719522 L3.17367009,31.3546389 C3.17743772,31.4071335 7.91381124,39.7368361 7.91381124,39.7368361 C7.93720904,39.7836317 7.90745455,39.7724738 8.05580355,39.7248431 L14.4627298,37.1620726 L14.917765,37.5261007 C15.8211891,38.24884 16.6815064,38.7351063 18.729079,39.7588926 L19.1916053,39.9901557 L20.2087772,46.6017733 L20.2204055,46.7538305 C20.2204055,46.6671828 20.2497913,46.6923706 20.3935807,46.6923706 L29.7789818,46.6923706 C29.7735778,46.6923706 29.8640821,46.6571745 29.9415456,46.5990769 C29.9685769,46.5788034 29.9521569,46.6034333 29.9521569,46.7538305 L29.9637852,46.6017733 L30.9951759,39.8977343 L31.5744693,39.7046365 C32.7032324,39.3283821 33.9523971,38.568021 35.2547975,37.5261007 L35.7098326,37.1620726 L36.2508832,37.3784928 L42.1925818,39.7588926 C42.1678734,39.7465384 46.9514518,31.5246101 46.9514518,31.5246101 C46.9760939,31.475326 46.9927953,31.4113817 46.9981995,31.3557153 L41.2146383,27.3323684 L41.2146383,26.8098531 C41.2146383,26.4496341 41.2379647,26.2591351 41.3435841,25.5726089 C41.4195299,25.0789614 41.4492733,24.7963987 41.4492733,24.4635028 C41.4492733,23.2826982 41.419337,22.8935264 41.2146383,22.1171526 L41.265955,22.4333803 L41.039846,21.7550534 L46.5359307,17.5675604 C46.5258547,17.5198722 41.7894812,9.19016953 41.7894812,9.19016953 Z M24.8516462,31.6757288 C28.757427,31.6757288 32.0638722,28.3692836 32.0638722,24.4635028 C32.0638722,20.557722 28.757427,17.2512768 24.8516462,17.2512768 C20.9458654,17.2512768 17.6394202,20.557722 17.6394202,24.4635028 C17.6394202,28.3692836 20.9458654,31.6757288 24.8516462,31.6757288 Z M24.8516462,33.6757288 C19.8412959,33.6757288 15.6394202,29.4738531 15.6394202,24.4635028 C15.6394202,19.4531525 19.8412959,15.2512768 24.8516462,15.2512768 C29.8619965,15.2512768 34.0638722,19.4531525 34.0638722,24.4635028 C34.0638722,29.4738531 29.8619965,33.6757288 24.8516462,33.6757288 Z" id="Shape" fill="#CBECF9" fill-rule="nonzero"></path>
                                    </g>
                                </g>
                            </g>
                            <g id="tooltips" transform="translate(53.000000, 87.000000)">
                                <path d="M46.0755565,41 L41.5580856,47.6768129 C41.2507758,48.131016 40.7482707,48.1334167 40.4393367,47.6768129 L35.9218658,41 L2.99749826,41 C1.89431043,41 1,40.1084602 1,39.0027084 L1,2.99729162 C1,1.89421792 1.8984375,1 2.99749826,1 L79.0025017,1 C80.1056896,1 81,1.89153983 81,2.99729162 L81,39.0027084 C81,40.1057821 80.1015625,41 79.0025017,41 L46.0755565,41 L46.0755565,41 Z" id="Combined-Shape" fill="#E6F5FB"></path>
                                <path d="M11,13 L11,11 L71,11 L71,13 L11,13 Z M11,19 L11,17 L61,17 L61,19 L11,19 Z M11,25 L11,23 L51,23 L51,25 L11,25 Z M11,31 L11,29 L41,29 L41,31 L11,31 Z" id="Combined-Shape" fill="#97D9F2" fill-rule="nonzero"></path>
                                <path d="M42.3863227,48.2371906 C41.6822913,49.2777476 40.3164993,49.2797699 39.6110996,48.2371906 L35.391073,42 L2.99749826,42 C1.34133025,42 0,40.6600507 0,39.0027084 L0,2.99729162 C0,1.34301366 1.3450695,0 2.99749826,0 L79.0025017,0 C80.6586698,0 82,1.33994929 82,2.99729162 L82,39.0027084 C82,40.6569863 80.6549305,42 79.0025017,42 L46.6063493,42 L42.3863227,48.2371906 Z M45.5447638,40 L79.0025017,40 C79.5510452,40 80,39.5517314 80,39.0027084 L80,2.99729162 C80,2.44498023 79.5545612,2 79.0025017,2 L2.99749826,2 C2.44895476,2 2,2.44826856 2,2.99729162 L2,39.0027084 C2,39.5550198 2.44543883,40 2.99749826,40 L36.4526585,40 L40.9987112,46.7190566 L45.5447638,40 Z" id="Combined-Shape" fill="#00A1DE" fill-rule="nonzero"></path>
                            </g>
                            <g id="code" transform="translate(123.000000, 38.000000)">
                                <rect id="Rectangle-25" fill="#FFFFFF" x="1" y="1" width="150" height="100" rx="2"></rect>
                                <path d="M1,3.0085302 C1,1.8992496 1.89984519,1 3.00701877,1 L148.992981,1 C150.101427,1 151,1.90195036 151,3.0085302 L151,13 L1,13 L1,3.0085302 Z" id="Rectangle-25" fill="#97D9F2"></path>
                                <path d="M143,1 L148.992981,1 C150.101427,1 151,1.89505147 151,2.99753791 L151,99.0024621 C151,100.105672 150.100155,101 148.992981,101 L3.00701877,101 C1.89857291,101 1,100.104949 1,99.0024621 L1,93 L140.992981,93 C142.100155,93 143,92.1056718 143,91.0024621 L143,1 Z" id="Combined-Shape" fill="#E6F5FB"></path>
                                <path d="M7,9 C5.8954305,9 5,8.1045695 5,7 C5,5.8954305 5.8954305,5 7,5 C8.1045695,5 9,5.8954305 9,7 C9,8.1045695 8.1045695,9 7,9 Z M15,9 C13.8954305,9 13,8.1045695 13,7 C13,5.8954305 13.8954305,5 15,5 C16.1045695,5 17,5.8954305 17,7 C17,8.1045695 16.1045695,9 15,9 Z M23,9 C21.8954305,9 21,8.1045695 21,7 C21,5.8954305 21.8954305,5 23,5 C24.1045695,5 25,5.8954305 25,7 C25,8.1045695 24.1045695,9 23,9 Z" id="Combined-Shape" fill="#CBECF9"></path>
                                <path d="M11,23 L31,23 L31,27 L11,27 L11,23 Z M11,71 L31,71 L31,75 L11,75 L11,71 Z M31,35 L141,35 L141,39 L31,39 L31,35 Z M31,59 L71,59 L71,63 L31,63 L31,59 Z M41,47 L91,47 L91,51 L41,51 L41,47 Z" id="Combined-Shape" fill="#CBECF9"></path>
                                <path d="M2,2.99753791 L2,99.0024621 C2,99.5519071 2.45010709,100 3.00701877,100 L148.992981,100 C149.549464,100 150,99.5517886 150,99.0024621 L150,2.99753791 C150,2.4480929 149.549893,2 148.992981,2 L3.00701877,2 C2.45053588,2 2,2.44821135 2,2.99753791 Z M0,2.99753791 C0,1.3413193 1.34827568,0 3.00701877,0 L148.992981,0 C150.652459,0 152,1.34151044 152,2.99753791 L152,99.0024621 C152,100.658681 150.651724,102 148.992981,102 L3.00701877,102 C1.34754059,102 0,100.65849 0,99.0024621 L0,2.99753791 Z M150,12 L150,3.0085302 C150,2.45292635 149.547834,2 148.992981,2 L3.00701877,2 C2.45176106,2 2,2.45190339 2,3.0085302 L2,12 L150,12 Z M0,3.0085302 C0,1.3474749 1.3470505,0 3.00701877,0 L148.992981,0 C150.653157,0 152,1.34910883 152,3.0085302 L152,14 L0,14 L0,3.0085302 Z" id="Combined-Shape" fill="#00A1DE" fill-rule="nonzero"></path>
                            </g>
                            <g id="search" transform="translate(211.000000, 133.000000)">
                                <rect id="Rectangle-27" fill="#FFFFFF" x="1" y="1" width="115" height="18" rx="2"></rect>
                                <rect id="Rectangle-27" fill="#97D9F2" x="5" y="4" width="2" height="12" rx="1"></rect>
                                <path d="M86,1 L114.008383,1 C115.108323,1 116,1.8926228 116,2.99508929 L116,17.0049107 C116,18.1067681 115.10216,19 114.008383,19 L86,19 L86,1 Z" id="Rectangle-27" fill="#97D9F2"></path>
                                <path d="M99.9,12.4032544 C98.2383883,12.0181872 97,10.5287141 97,8.75 C97,6.67893219 98.6789322,5 100.75,5 C102.821068,5 104.5,6.67893219 104.5,8.75 C104.5,10.5287141 103.261612,12.0181872 101.6,12.4032544 L101.6,15.3482424 C101.6,15.8157946 101.212643,16.2 100.75,16.2 C100.282103,16.2 99.9,15.8140694 99.9,15.3482424 L99.9,12.4032544 Z M100.75,11 C101.992641,11 103,9.99264069 103,8.75 C103,7.50735931 101.992641,6.5 100.75,6.5 C99.5073593,6.5 98.5,7.50735931 98.5,8.75 C98.5,9.99264069 99.5073593,11 100.75,11 Z" id="Oval-8" fill="#FFFFFF" fill-rule="nonzero" transform="translate(100.750000, 10.600000) rotate(-45.000000) translate(-100.750000, -10.600000) "></path>
                                <path d="M2,2.99508929 L2,17.0049107 C2,17.5547281 2.4455781,18 2.99604034,18 L114.00396,18 C114.554936,18 115,17.5549421 115,17.0049107 L115,2.99508929 C115,2.44527187 114.554422,2 114.00396,2 L2.99604034,2 C2.44506399,2 2,2.44505789 2,2.99508929 Z M0,2.99508929 C0,1.34048225 1.34050063,0 2.99604034,0 L114.00396,0 C115.658684,0 117,1.34039446 117,2.99508929 L117,17.0049107 C117,18.6595178 115.659499,20 114.00396,20 L2.99604034,20 C1.34131628,20 0,18.6596055 0,17.0049107 L0,2.99508929 Z M87,2 L87,18 L114.008383,18 C114.552091,18 115,17.5522676 115,17.0049107 L115,2.99508929 C115,2.44477548 114.555905,2 114.008383,2 L87,2 Z M114.008383,0 C115.66116,0 117,1.34089085 117,2.99508929 L117,17.0049107 C117,18.6570132 115.656485,20 114.008383,20 L85,20 L85,0 L114.008383,0 Z" id="Combined-Shape" fill="#00A1DE" fill-rule="nonzero"></path>
                            </g>
                            <g id="card" transform="translate(253.000000, 23.000000)">
                                <rect id="Combined-Shape" fill="#E6F5FB" x="1" y="1" width="50" height="64" rx="2"></rect>
                                <path d="M1,2.99970728 C1,1.89529944 1.88906428,1 2.99091407,1 L49.0090859,1 C50.1086374,1 51,1.88989258 51,2.99970728 L51,37 L1,37 L1,2.99970728 Z" id="Combined-Shape" fill="#CBECF9"></path>
                                <rect id="Combined-Shape" fill="#97D9F2" x="5" y="49" width="42" height="10" rx="2"></rect>
                                <path d="M22.3169381,31 L7.38336999,31 C6.82815358,31 6.72480612,30.7094054 7.14438488,30.3577708 L16.0333116,22.9082653 C16.4565402,22.5535719 17.1463791,22.5566307 17.5659579,22.9082653 L22.1835893,26.7781443 L30.7643336,19.1849219 C31.1775033,18.8193021 31.8470724,18.8190264 32.2605537,19.1849219 L44.8641088,30.3379868 C45.2772786,30.7036066 45.1692713,31 44.6085819,31 L22.3169381,31 Z M16.5,19 C13.7385763,19 11.5,16.7614237 11.5,14 C11.5,11.2385763 13.7385763,9 16.5,9 C19.2614237,9 21.5,11.2385763 21.5,14 C21.5,16.7614237 19.2614237,19 16.5,19 Z" id="Combined-Shape" fill="#E6F5FB"></path>
                                <path d="M2,3.00329863 L2,62.9967014 C2,63.5476717 2.4483236,64 2.99091407,64 L49.0090859,64 C49.5562844,64 50,63.5531679 50,62.9967014 L50,3.00329863 C50,2.45232828 49.5516764,2 49.0090859,2 L2.99091407,2 C2.44371561,2 2,2.44683206 2,3.00329863 Z M0,3.00329863 C0,1.34538393 1.33600049,0 2.99091407,0 L49.0090859,0 C50.6602468,0 52,1.35172057 52,3.00329863 L52,62.9967014 C52,64.6546161 50.6639995,66 49.0090859,66 L2.99091407,66 C1.33975316,66 0,64.6482794 0,62.9967014 L0,3.00329863 Z M50,2.99970728 C50,2.44347746 49.5576465,2 49.0090859,2 L2.99091407,2 C2.44331124,2 2,2.44562454 2,2.99970728 L2,36 L50,36 L50,2.99970728 Z M0,2.99970728 C0,1.34337852 1.33640486,0 2.99091407,0 L49.0090859,0 C50.6633537,0 52,1.34004246 52,2.99970728 L52,38 L0,38 L0,2.99970728 Z M6,50.999615 L6,57.000385 C6,57.557211 6.44351774,58 6.99749218,58 L45.0025078,58 C45.5518117,58 46,57.5517001 46,57.000385 L46,50.999615 C46,50.442789 45.5564823,50 45.0025078,50 L6.99749218,50 C6.44818829,50 6,50.4482999 6,50.999615 Z M4,50.999615 C4,49.3438418 5.34350732,48 6.99749218,48 L45.0025078,48 C46.6603162,48 48,49.3374826 48,50.999615 L48,57.000385 C48,58.6561582 46.6564927,60 45.0025078,60 L6.99749218,60 C5.33968383,60 4,58.6625174 4,57.000385 L4,50.999615 Z" id="Combined-Shape" fill="#00A1DE" fill-rule="nonzero"></path>
                            </g>
                        </g>
                    </g>
                </g>
            </g>
        </g>
    </g>
</svg>