<?xml version="1.0" encoding="UTF-8"?>
<svg width="58px" height="70px" viewBox="0 0 58 70" version="1.1" xmlns="http://www.w3.org/2000/svg" xmlns:xlink="http://www.w3.org/1999/xlink">
  <g id="code3">
      <path
          d="M37.8979592,1 L3.00999791,1 C1.89990672,1 1,1.89870751 1,2.99196224 L1,66.1753847 C1,67.2755151 1.89178564,68.1673469 3.00252455,68.1673469 L54.3444142,68.1673469 C55.450378,68.1673469 56.3469388,67.2777818 56.3469388,66.1613389 L56.3469388,19.3183673 L37.8979592,1 Z"
          id="Combined-Shape"
          fill="#E6F5FB"></path>
      <path
          d="M48.9136897,11.9377431 L56.3469388,19.3183673 L56.3469388,66.1613389 C56.3469388,67.2777818 55.450378,68.1673469 54.3444142,68.1673469 L3.00252455,68.1673469 C1.89178564,68.1673469 1,67.2755151 1,66.1753847 L1,62.0612245 L46.6573394,62.0612245 C47.7633032,62.0612245 48.664415,61.162517 48.6699513,60.0692623 L48.9136897,11.9377431 L48.9136897,11.9377431 Z"
          id="Combined-Shape"
          fill="#CBECF9"></path>
      <path d="M56.3469388,19.3183673 L39.9074434,19.3183673 C38.7976359,19.3183673 37.8979592,18.4224339 37.8979592,17.3231096 L37.8979592,1" id="Rectangle-21" fill="#97D9F2"></path>
      <path
          d="M21.3985239,33.2434869 L13.6401334,36.005106 L21.3985239,38.7473453 L21.3985239,41.1601283 L11.0832802,37.1388233 L11.0832802,34.8520089 L21.3985239,30.821014 L21.3985239,33.2434869 Z M26.5512662,39.4740872 L29.1569143,39.4740872 L29.1569143,42.2163265 L26.5512662,42.2163265 L26.5512662,39.4740872 Z M29.1569143,38.33068 L26.5512662,38.33068 L26.5512662,36.8384367 C26.5512662,36.1989007 26.652108,35.6530422 26.8537946,35.200845 C27.0554813,34.7486478 27.41656,34.270618 27.9370416,33.7667411 L28.81535,32.9043407 C29.2252292,32.5102832 29.5033574,32.1840601 29.6497429,31.9256617 C29.7961284,31.6672633 29.86932,31.399179 29.86932,31.1214007 C29.86932,30.6885833 29.7196838,30.3623603 29.4204068,30.1427216 C29.1211299,29.923083 28.6722212,29.8132653 28.0736674,29.8132653 C27.5271616,29.8132653 26.9562669,29.9279279 26.3609661,30.1572565 C25.7656652,30.386585 25.1557349,30.7273428 24.531157,31.17954 L24.531157,28.5826491 C25.168747,28.2208913 25.8144598,27.9479621 26.4683149,27.7638532 C27.1221699,27.5797444 27.7776416,27.4876913 28.4347497,27.4876913 C29.7489658,27.4876913 30.7801545,27.7913049 31.5283469,28.3985411 C32.2765392,29.0057774 32.6506298,29.8423297 32.6506298,30.9082231 C32.6506298,31.39918 32.5400291,31.8562153 32.3188244,32.2793427 C32.0976197,32.7024701 31.6812407,33.2111843 31.0696747,33.8055006 L30.2108844,34.6388313 C29.768475,35.0651887 29.4854673,35.4140213 29.3618529,35.6853396 C29.2382386,35.9566579 29.1764323,36.2893409 29.1764323,36.6833984 C29.1764323,36.7415381 29.1748058,36.8093666 29.1715528,36.8868862 C29.1682998,36.9644057 29.1634203,37.0483839 29.1569143,37.1388233 L29.1569143,38.33068 Z M35.1489291,33.2434869 L35.1489291,30.821014 L45.4641728,34.8520089 L45.4641728,37.1388233 L35.1489291,41.1601283 L35.1489291,38.7473453 L42.9073196,36.005106 L35.1489291,33.2434869 Z"
          id="&lt;?&gt;"
          fill="#97D9F2"></path>
      <path
          d="M38.3100933,0 L57.3469388,18.9020713 L57.3469388,66.1613389 C57.3469388,67.8273834 56.0053499,69.1673469 54.3444142,69.1673469 L3.00252455,69.1673469 C1.34196328,69.1673469 0,67.8302595 0,66.1753847 L0,2.99196224 C0,1.34255804 1.3514916,0 3.00999791,0 L38.3100933,0 Z M3.00999791,2 C2.45310274,2 2,2.45010767 2,2.99196224 L2,66.1753847 C2,66.7240571 2.44490639,67.1673469 3.00252455,67.1673469 L54.3444142,67.1673469 C54.9013228,67.1673469 55.3469388,66.7222708 55.3469388,66.1613389 L55.3469388,19.7346634 L37.485825,2 L3.00999791,2 Z M56.3469388,18.3183673 L56.3469388,20.3183673 L39.9074434,20.3183673 C38.247646,20.3183673 36.8979592,18.9770174 36.8979592,17.3231096 L36.8979592,1 L38.8979592,1 L38.8979592,17.3231096 C38.8979592,17.8696644 39.349451,18.3183673 39.9074434,18.3183673 L56.3469388,18.3183673 Z"
          id="Combined-Shape"
          fill="#00A1DE"
          fill-rule="nonzero"></path>
  </g>
</svg>
