<svg width="398" height="172" viewBox="0 0 398 172" xmlns="http://www.w3.org/2000/svg"><title>img_open_source</title><desc>Created with Sketch.</desc><g fill="none"><g><g fill="#E6F5FB"><path d="M198.438 155.312c.31-.457.814-.455 1.122 0l5.327 7.86c.31.457.117.828-.43.828h-10.917c-.547 0-.738-.373-.43-.828l5.327-7.86z"/><path d="M74.439 66.677c.309.457.811.454 1.119 0l5.311-7.85c.309-.457.102-.827-.45-.827h-10.842c-.557 0-.757.373-.45.827l5.311 7.85z"/><path d="M90.692 128c.552 0 1 .448 1 1s-.448 1-1 1h-4c-.552 0-1-.448-1-1s.448-1 1-1h4zm-8 0h-4c-.552 0-1 .448-1 1s.448 1 1 1h4c.552 0 1-.448 1-1s-.448-1-1-1zm-8 0h-4c-.552 0-1 .448-1 1s.448 1 1 1h4c.552 0 1-.448 1-1s-.448-1-1-1zm-8 0h-4c-.552 0-1 .448-1 1s.448 1 1 1h4c.552 0 1-.448 1-1s-.448-1-1-1zm-8 0h-4c-.552 0-1 .448-1 1s.448 1 1 1h4c.552 0 1-.448 1-1s-.448-1-1-1zm-8 0h-4c-.552 0-1 .448-1 1s.448 1 1 1h4c.552 0 1-.448 1-1s-.448-1-1-1zm-8 0h-4c-.552 0-1 .448-1 1s.448 1 1 1h4c.552 0 1-.448 1-1s-.448-1-1-1zm-8 0h-4c-.552 0-1 .448-1 1s.448 1 1 1h4c.552 0 1-.448 1-1s-.448-1-1-1zm-8 0h-4c-.552 0-1 .448-1 1s.448 1 1 1h4c.552 0 1-.448 1-1s-.448-1-1-1zm-8 0h-4c-.552 0-1 .448-1 1s.448 1 1 1h4c.552 0 1-.448 1-1s-.448-1-1-1zm-8 0h-4c-.552 0-1 .448-1 1s.448 1 1 1h4c.552 0 1-.448 1-1s-.448-1-1-1zm-7.848-.012c-.479-.073-.839-.485-.845-.979v-1.255c0-.552-.448-1-1-1s-1 .448-1 1v1.266c.016 1.487 1.097 2.724 2.542 2.945.546.084 1.056-.291 1.14-.837.084-.546-.291-1.056-.837-1.14zm-.845-6.234v-4c0-.552-.448-1-1-1s-1 .448-1 1v4c0 .552.448 1 1 1s1-.448 1-1zm0-8v-4c0-.552-.448-1-1-1s-1 .448-1 1v4c0 .552.448 1 1 1s1-.448 1-1zm0-8v-4c0-.552-.448-1-1-1s-1 .448-1 1v4c0 .552.448 1 1 1s1-.448 1-1zm0-8v-4c0-.552-.448-1-1-1s-1 .448-1 1v4c0 .552.448 1 1 1s1-.448 1-1zm0-8v-4c0-.552-.448-1-1-1s-1 .448-1 1v4c0 .552.448 1 1 1s1-.448 1-1zm0-8v-4c0-.552-.448-1-1-1s-1 .448-1 1v4c0 .552.448 1 1 1s1-.448 1-1zm0-8v-4c0-.552-.448-1-1-1s-1 .448-1 1v4c0 .552.448 1 1 1s1-.448 1-1zm0-8v-4c0-.552-.448-1-1-1s-1 .448-1 1v4c0 .552.448 1 1 1s1-.448 1-1zm0-8v-4c0-.552-.448-1-1-1s-1 .448-1 1v4c0 .552.448 1 1 1s1-.448 1-1zm0-8v-4c0-.552-.448-1-1-1s-1 .448-1 1v4c0 .552.448 1 1 1s1-.448 1-1zm0-8v-4c0-.552-.448-1-1-1s-1 .448-1 1v4c0 .552.448 1 1 1s1-.448 1-1zm0-8v-.752c0-.55.453-1.002 1.001-1.002h.185c.552 0 1-.448 1-1s-.448-1-1-1h-.185c-1.652 0-3.001 1.346-3.001 3.002v.752c0 .552.448 1 1 1s1-.448 1-1zm5.186-1.754h4c.552 0 1-.448 1-1s-.448-1-1-1h-4c-.552 0-1 .448-1 1s.448 1 1 1zm8 0h4c.552 0 1-.448 1-1s-.448-1-1-1h-4c-.552 0-1 .448-1 1s.448 1 1 1zm8 0h4c.552 0 1-.448 1-1s-.448-1-1-1h-4c-.552 0-1 .448-1 1s.448 1 1 1zm8 0h4c.552 0 1-.448 1-1s-.448-1-1-1h-4c-.552 0-1 .448-1 1s.448 1 1 1zm8 0h4c.552 0 1-.448 1-1s-.448-1-1-1h-4c-.552 0-1 .448-1 1s.448 1 1 1zm8 0h4c.552 0 1-.448 1-1s-.448-1-1-1h-4c-.552 0-1 .448-1 1s.448 1 1 1zm8 0h4c.552 0 1-.448 1-1s-.448-1-1-1h-4c-.552 0-1 .448-1 1s.448 1 1 1zm8 0h4c.552 0 1-.448 1-1s-.448-1-1-1h-4c-.552 0-1 .448-1 1s.448 1 1 1zm8 0h4c.552 0 1-.448 1-1s-.448-1-1-1h-4c-.552 0-1 .448-1 1s.448 1 1 1zm8 0h4c.552 0 1-.448 1-1s-.448-1-1-1h-4c-.552 0-1 .448-1 1s.448 1 1 1zm8 0h4c.552 0 1-.448 1-1s-.448-1-1-1h-4c-.552 0-1 .448-1 1s.448 1 1 1zm8 0h4c.552 0 1-.448 1-1s-.448-1-1-1h-4c-.552 0-1 .448-1 1s.448 1 1 1zm8 0h4c.552 0 1-.448 1-1s-.448-1-1-1h-4c-.552 0-1 .448-1 1s.448 1 1 1zm8 0h4c.552 0 1-.448 1-1s-.448-1-1-1h-4c-.552 0-1 .448-1 1s.448 1 1 1zm8 0h4c.552 0 1-.448 1-1s-.448-1-1-1h-4c-.552 0-1 .448-1 1s.448 1 1 1zm8 0h4c.552 0 1-.448 1-1s-.448-1-1-1h-4c-.552 0-1 .448-1 1s.448 1 1 1zm8 0h4c.552 0 1-.448 1-1s-.448-1-1-1h-4c-.552 0-1 .448-1 1s.448 1 1 1zm8 0h4c.552 0 1-.448 1-1s-.448-1-1-1h-4c-.552 0-1 .448-1 1s.448 1 1 1zm8 0h4c.552 0 1-.448 1-1s-.448-1-1-1h-4c-.552 0-1 .448-1 1s.448 1 1 1zm8 0h4c.552 0 1-.448 1-1s-.448-1-1-1h-4c-.552 0-1 .448-1 1s.448 1 1 1zm8 0h4c.552 0 1-.448 1-1s-.448-1-1-1h-4c-.552 0-1 .448-1 1s.448 1 1 1zm8 0h4c.552 0 1-.448 1-1s-.448-1-1-1h-4c-.552 0-1 .448-1 1s.448 1 1 1zm8 0h4c.552 0 1-.448 1-1s-.448-1-1-1h-4c-.552 0-1 .448-1 1s.448 1 1 1zm8 0h4c.552 0 1-.448 1-1s-.448-1-1-1h-4c-.552 0-1 .448-1 1s.448 1 1 1zm8 0h4c.552 0 1-.448 1-1s-.448-1-1-1h-4c-.552 0-1 .448-1 1s.448 1 1 1zm8 0h4c.552 0 1-.448 1-1s-.448-1-1-1h-4c-.552 0-1 .448-1 1s.448 1 1 1zm8 0h4c.552 0 1-.448 1-1s-.448-1-1-1h-4c-.552 0-1 .448-1 1s.448 1 1 1zm8 0h4c.552 0 1-.448 1-1s-.448-1-1-1h-4c-.552 0-1 .448-1 1s.448 1 1 1zm8 0h4c.552 0 1-.448 1-1s-.448-1-1-1h-4c-.552 0-1 .448-1 1s.448 1 1 1zm8 0h4c.552 0 1-.448 1-1s-.448-1-1-1h-4c-.552 0-1 .448-1 1s.448 1 1 1zm8 0h4c.552 0 1-.448 1-1s-.448-1-1-1h-4c-.552 0-1 .448-1 1s.448 1 1 1zm8 0h4c.552 0 1-.448 1-1s-.448-1-1-1h-4c-.552 0-1 .448-1 1s.448 1 1 1zm8 0h4c.552 0 1-.448 1-1s-.448-1-1-1h-4c-.552 0-1 .448-1 1s.448 1 1 1zm8 0h4c.552 0 1-.448 1-1s-.448-1-1-1h-4c-.552 0-1 .448-1 1s.448 1 1 1zm8 0h4c.552 0 1-.448 1-1s-.448-1-1-1h-4c-.552 0-1 .448-1 1s.448 1 1 1zm8 0h4c.552 0 1-.448 1-1s-.448-1-1-1h-4c-.552 0-1 .448-1 1s.448 1 1 1zm8 0h4c.552 0 1-.448 1-1s-.448-1-1-1h-4c-.552 0-1 .448-1 1s.448 1 1 1zm8 0h4c.552 0 1-.448 1-1s-.448-1-1-1h-4c-.552 0-1 .448-1 1s.448 1 1 1zm8 0h4c.552 0 1-.448 1-1s-.448-1-1-1h-4c-.552 0-1 .448-1 1s.448 1 1 1zm8 0h4c.552 0 1-.448 1-1s-.448-1-1-1h-4c-.552 0-1 .448-1 1s.448 1 1 1zm8 0h4c.552 0 1-.448 1-1s-.448-1-1-1h-4c-.552 0-1 .448-1 1s.448 1 1 1zm8 0h4c.552 0 1-.448 1-1s-.448-1-1-1h-4c-.552 0-1 .448-1 1s.448 1 1 1zm8 0h4c.552 0 1-.448 1-1s-.448-1-1-1h-4c-.552 0-1 .448-1 1s.448 1 1 1zm8 0h4c.552 0 1-.448 1-1s-.448-1-1-1h-4c-.552 0-1 .448-1 1s.448 1 1 1zm8 0h4c.552 0 1-.448 1-1s-.448-1-1-1h-4c-.552 0-1 .448-1 1s.448 1 1 1zm8 0h4c.552 0 1-.448 1-1s-.448-1-1-1h-4c-.552 0-1 .448-1 1s.448 1 1 1zm8 0h4c.552 0 1-.448 1-1s-.448-1-1-1h-4c-.552 0-1 .448-1 1s.448 1 1 1zm8 0h4c.552 0 1-.448 1-1s-.448-1-1-1h-4c-.552 0-1 .448-1 1s.448 1 1 1zm8 0h3.812l.095.004c.55.051 1.037-.354 1.088-.904.051-.55-.354-1.037-.904-1.088l-.28-.013h-3.812c-.552 0-1 .448-1 1s.448 1 1 1zm4.814 2.125v4c0 .552.448 1 1 1s1-.448 1-1v-4c0-.552-.448-1-1-1s-1 .448-1 1zm0 8v4c0 .552.448 1 1 1s1-.448 1-1v-4c0-.552-.448-1-1-1s-1 .448-1 1zm0 8v4c0 .552.448 1 1 1s1-.448 1-1v-4c0-.552-.448-1-1-1s-1 .448-1 1zm0 8v4c0 .552.448 1 1 1s1-.448 1-1v-4c0-.552-.448-1-1-1s-1 .448-1 1zm0 8v4c0 .552.448 1 1 1s1-.448 1-1v-4c0-.552-.448-1-1-1s-1 .448-1 1zm0 8v4c0 .552.448 1 1 1s1-.448 1-1v-4c0-.552-.448-1-1-1s-1 .448-1 1zm0 8v4c0 .552.448 1 1 1s1-.448 1-1v-4c0-.552-.448-1-1-1s-1 .448-1 1zm0 8v4c0 .552.448 1 1 1s1-.448 1-1v-4c0-.552-.448-1-1-1s-1 .448-1 1zm0 8v4c0 .552.448 1 1 1s1-.448 1-1v-4c0-.552-.448-1-1-1s-1 .448-1 1zm0 8v4c0 .552.448 1 1 1s1-.448 1-1v-4c0-.552-.448-1-1-1s-1 .448-1 1zm0 8v4c0 .552.448 1 1 1s1-.448 1-1v-4c0-.552-.448-1-1-1s-1 .448-1 1zm0 8v4c0 .552.448 1 1 1s1-.448 1-1v-4c0-.552-.448-1-1-1s-1 .448-1 1zm-1.065 5.875h-4c-.552 0-1 .448-1 1s.448 1 1 1h4c.552 0 1-.448 1-1s-.448-1-1-1zm-8 0h-4c-.552 0-1 .448-1 1s.448 1 1 1h4c.552 0 1-.448 1-1s-.448-1-1-1zm-8 0h-4c-.552 0-1 .448-1 1s.448 1 1 1h4c.552 0 1-.448 1-1s-.448-1-1-1zm-8 0h-4c-.552 0-1 .448-1 1s.448 1 1 1h4c.552 0 1-.448 1-1s-.448-1-1-1zm-8 0h-4c-.552 0-1 .448-1 1s.448 1 1 1h4c.552 0 1-.448 1-1s-.448-1-1-1zm-8 0h-4c-.552 0-1 .448-1 1s.448 1 1 1h4c.552 0 1-.448 1-1s-.448-1-1-1zm-8 0h-4c-.552 0-1 .448-1 1s.448 1 1 1h4c.552 0 1-.448 1-1s-.448-1-1-1zm-8 0h-4c-.552 0-1 .448-1 1s.448 1 1 1h4c.552 0 1-.448 1-1s-.448-1-1-1zm-8 0h-4c-.552 0-1 .448-1 1s.448 1 1 1h4c.552 0 1-.448 1-1s-.448-1-1-1zm-8 0h-4c-.552 0-1 .448-1 1s.448 1 1 1h4c.552 0 1-.448 1-1s-.448-1-1-1zm-8 0h-4c-.552 0-1 .448-1 1s.448 1 1 1h4c.552 0 1-.448 1-1s-.448-1-1-1zm-8 0h-4c-.552 0-1 .448-1 1s.448 1 1 1h4c.552 0 1-.448 1-1s-.448-1-1-1zm-8 0h-4c-.552 0-1 .448-1 1s.448 1 1 1h4c.552 0 1-.448 1-1s-.448-1-1-1zm-8 0h-4c-.552 0-1 .448-1 1s.448 1 1 1h4c.552 0 1-.448 1-1s-.448-1-1-1zm-8 0h-4c-.552 0-1 .448-1 1s.448 1 1 1h4c.552 0 1-.448 1-1s-.448-1-1-1zm-8 0h-4c-.552 0-1 .448-1 1s.448 1 1 1h4c.552 0 1-.448 1-1s-.448-1-1-1zm-8 0h-4c-.552 0-1 .448-1 1s.448 1 1 1h4c.552 0 1-.448 1-1s-.448-1-1-1zm-8 0h-4c-.552 0-1 .448-1 1s.448 1 1 1h4c.552 0 1-.448 1-1s-.448-1-1-1zm-8 0h-4c-.552 0-1 .448-1 1s.448 1 1 1h4c.552 0 1-.448 1-1s-.448-1-1-1zm-8 0h-4c-.552 0-1 .448-1 1s.448 1 1 1h4c.552 0 1-.448 1-1s-.448-1-1-1zm-8 0h-4c-.552 0-1 .448-1 1s.448 1 1 1h4c.552 0 1-.448 1-1s-.448-1-1-1zm-8 0h-4c-.552 0-1 .448-1 1s.448 1 1 1h4c.552 0 1-.448 1-1s-.448-1-1-1zm-8 0h-4c-.552 0-1 .448-1 1s.448 1 1 1h4c.552 0 1-.448 1-1s-.448-1-1-1zm-8 0h-4c-.552 0-1 .448-1 1s.448 1 1 1h4c.552 0 1-.448 1-1s-.448-1-1-1zm-8 0h-4c-.552 0-1 .448-1 1s.448 1 1 1h4c.552 0 1-.448 1-1s-.448-1-1-1zm-8 0h-4c-.552 0-1 .448-1 1s.448 1 1 1h4c.552 0 1-.448 1-1s-.448-1-1-1zm-8 0h-4c-.552 0-1 .448-1 1s.448 1 1 1h4c.552 0 1-.448 1-1s-.448-1-1-1zm-8 0h-4c-.552 0-1 .448-1 1s.448 1 1 1h4c.552 0 1-.448 1-1s-.448-1-1-1zm-8 0h-4c-.552 0-1 .448-1 1s.448 1 1 1h4c.552 0 1-.448 1-1s-.448-1-1-1zm-8 0h-4c-.552 0-1 .448-1 1s.448 1 1 1h4c.552 0 1-.448 1-1s-.448-1-1-1zm-8 0h-4c-.552 0-1 .448-1 1s.448 1 1 1h4c.552 0 1-.448 1-1s-.448-1-1-1zm-8 0h-4c-.552 0-1 .448-1 1s.448 1 1 1h4c.552 0 1-.448 1-1s-.448-1-1-1zm-8 0h-4c-.552 0-1 .448-1 1s.448 1 1 1h4c.552 0 1-.448 1-1s-.448-1-1-1zm-8 0h-4c-.552 0-1 .448-1 1s.448 1 1 1h4c.552 0 1-.448 1-1s-.448-1-1-1zm-8 0h-4c-.552 0-1 .448-1 1s.448 1 1 1h4c.552 0 1-.448 1-1s-.448-1-1-1zm-8 0h-4c-.552 0-1 .448-1 1s.448 1 1 1h4c.552 0 1-.448 1-1s-.448-1-1-1zm-8 0h-4c-.552 0-1 .448-1 1s.448 1 1 1h4c.552 0 1-.448 1-1s-.448-1-1-1zm-8 0h-4c-.552 0-1 .448-1 1s.448 1 1 1h4c.552 0 1-.448 1-1s-.448-1-1-1zm242.065 13.002c0-1.662 1.338-3.002 3.006-3.002h.93c.552 0 1 .448 1 1s-.448 1-1 1h-.93c-.563 0-1.006.444-1.006 1.002v2.246c0 .552-.448 1-1 1s-1-.448-1-1v-2.246zm-250.065-13.002c.552 0 1 .448 1 1s-.448 1-1 1h-.242c-.552 0-1-.448-1-1s.448-1 1-1h.242zm240.065-38c0-.552.448-1 1-1s1 .448 1 1v4c0 .552-.448 1-1 1s-1-.448-1-1v-4zm0 8c0-.552.448-1 1-1s1 .448 1 1v4c0 .552-.448 1-1 1s-1-.448-1-1v-4zm0 8c0-.552.448-1 1-1s1 .448 1 1v4c0 .552-.448 1-1 1s-1-.448-1-1v-4zm0 8c0-.552.448-1 1-1s1 .448 1 1v4c0 .552-.448 1-1 1s-1-.448-1-1v-4zm0 8c0-.552.448-1 1-1s1 .448 1 1v4c0 .552-.448 1-1 1s-1-.448-1-1v-4zm0 8c0-.552.448-1 1-1s1 .448 1 1v4c0 .552-.448 1-1 1s-1-.448-1-1v-4zm0 8c0-.552.448-1 1-1s1 .448 1 1v4c0 .552-.448 1-1 1s-1-.448-1-1v-4zm0 8c0-.552.448-1 1-1s1 .448 1 1v4c0 .552-.448 1-1 1s-1-.448-1-1v-4zm0 8c0-.552.448-1 1-1s1 .448 1 1v4c0 .552-.448 1-1 1s-1-.448-1-1v-4zm0 8c0-.552.448-1 1-1s1 .448 1 1v4c0 .552-.448 1-1 1s-1-.448-1-1v-4zm-.124 7.486c.267-.484.875-.66 1.358-.393.484.267.66.875.393 1.358-.523.948-1.519 1.549-2.625 1.549h-1.939c-.552 0-1-.448-1-1s.448-1 1-1h1.939c.371 0 .699-.198.873-.514zm-6.813.514c.552 0 1 .448 1 1s-.448 1-1 1h-4c-.552 0-1-.448-1-1s.448-1 1-1h4zm-8 0c.552 0 1 .448 1 1s-.448 1-1 1h-4c-.552 0-1-.448-1-1s.448-1 1-1h4zm-8 0c.552 0 1 .448 1 1s-.448 1-1 1h-4c-.552 0-1-.448-1-1s.448-1 1-1h4zm-8 0c.552 0 1 .448 1 1s-.448 1-1 1h-4c-.552 0-1-.448-1-1s.448-1 1-1h4zm-8 0c.552 0 1 .448 1 1s-.448 1-1 1h-4c-.552 0-1-.448-1-1s.448-1 1-1h4zm-8 0c.552 0 1 .448 1 1s-.448 1-1 1h-4c-.552 0-1-.448-1-1s.448-1 1-1h4zm-8 0c.552 0 1 .448 1 1s-.448 1-1 1h-4c-.552 0-1-.448-1-1s.448-1 1-1h4zm-8 0c.552 0 1 .448 1 1s-.448 1-1 1h-4c-.552 0-1-.448-1-1s.448-1 1-1h4zm-8 0c.552 0 1 .448 1 1s-.448 1-1 1h-4c-.552 0-1-.448-1-1s.448-1 1-1h4zm-8 0c.552 0 1 .448 1 1s-.448 1-1 1h-4c-.552 0-1-.448-1-1s.448-1 1-1h4zm-8 0c.552 0 1 .448 1 1s-.448 1-1 1h-4c-.552 0-1-.448-1-1s.448-1 1-1h4zm-8 0c.552 0 1 .448 1 1s-.448 1-1 1h-4c-.552 0-1-.448-1-1s.448-1 1-1h4zm-8 0c.552 0 1 .448 1 1s-.448 1-1 1h-4c-.552 0-1-.448-1-1s.448-1 1-1h4zm-8 0c.552 0 1 .448 1 1s-.448 1-1 1h-4c-.552 0-1-.448-1-1s.448-1 1-1h4zm-8 0c.552 0 1 .448 1 1s-.448 1-1 1h-4c-.552 0-1-.448-1-1s.448-1 1-1h4zm-8 0c.552 0 1 .448 1 1s-.448 1-1 1h-.063c-.552 0-1-.448-1-1s.448-1 1-1h.063zm144.873-30c-.552 0-1-.448-1-1s.448-1 1-1h4c.552 0 1 .448 1 1s-.448 1-1 1h-4zm8 0c-.552 0-1-.448-1-1s.448-1 1-1h4c.552 0 1 .448 1 1s-.448 1-1 1h-4zm8 0c-.552 0-1-.448-1-1s.448-1 1-1h4c.552 0 1 .448 1 1s-.448 1-1 1h-4zm8 0c-.552 0-1-.448-1-1s.448-1 1-1h4c.552 0 1 .448 1 1s-.448 1-1 1h-4zm8 0c-.552 0-1-.448-1-1s.448-1 1-1h4c.552 0 1 .448 1 1s-.448 1-1 1h-4zm8 0c-.552 0-1-.448-1-1s.448-1 1-1h4c.552 0 1 .448 1 1s-.448 1-1 1h-4zm6.912.469c-.294-.468-.153-1.085.315-1.379.468-.294 1.085-.153 1.379.315.298.474.458 1.024.458 1.596v2.873c0 .552-.448 1-1 1s-1-.448-1-1v-2.873c0-.194-.053-.375-.152-.532zm.152 7.406c0-.552.448-1 1-1s1 .448 1 1v4c0 .552-.448 1-1 1s-1-.448-1-1v-4zm0 8c0-.552.448-1 1-1s1 .448 1 1v4c0 .552-.448 1-1 1s-1-.448-1-1v-4zm0 8c0-.552.448-1 1-1s1 .448 1 1v4c0 .552-.448 1-1 1s-1-.448-1-1v-4zm-.899 6.119c.55-.055 1.04.345 1.095.895.055.55-.345 1.04-.895 1.095l-.293.015h-3.821c-.552 0-1-.448-1-1s.448-1 1-1h3.815l.1-.005zm-7.914.005c.552 0 1 .448 1 1s-.448 1-1 1h-4c-.552 0-1-.448-1-1s.448-1 1-1h4zm-8 0c.552 0 1 .448 1 1s-.448 1-1 1h-4c-.552 0-1-.448-1-1s.448-1 1-1h4zm-8 0c.552 0 1 .448 1 1s-.448 1-1 1h-4c-.552 0-1-.448-1-1s.448-1 1-1h4zm-8 0c.552 0 1 .448 1 1s-.448 1-1 1h-4c-.552 0-1-.448-1-1s.448-1 1-1h4zm-8 0c.552 0 1 .448 1 1s-.448 1-1 1h-4c-.552 0-1-.448-1-1s.448-1 1-1h4zm-8 0c.552 0 1 .448 1 1s-.448 1-1 1h-3.18c-.417 0-.825-.085-1.2-.248-.507-.22-.739-.809-.52-1.315.22-.507.809-.739 1.315-.52.126.054.262.083.405.083h3.18zm-4.187-2.752c0 .552-.448 1-1 1s-1-.448-1-1v-4c0-.552.448-1 1-1s1 .448 1 1v4zm0-8c0 .552-.448 1-1 1s-1-.448-1-1v-4c0-.552.448-1 1-1s1 .448 1 1v4zm0-8c0 .552-.448 1-1 1s-1-.448-1-1v-4c0-.552.448-1 1-1s1 .448 1 1v4zm-291.189-51.248h-4c-.552 0-1 .448-1 1s.448 1 1 1h4c.552 0 1-.448 1-1s-.448-1-1-1zm-8 0h-4c-.552 0-1 .448-1 1s.448 1 1 1h4c.552 0 1-.448 1-1s-.448-1-1-1zm-8 0h-4c-.552 0-1 .448-1 1s.448 1 1 1h4c.552 0 1-.448 1-1s-.448-1-1-1zm-8 0h-4c-.552 0-1 .448-1 1s.448 1 1 1h4c.552 0 1-.448 1-1s-.448-1-1-1zm-8 0h-4c-.552 0-1 .448-1 1s.448 1 1 1h4c.552 0 1-.448 1-1s-.448-1-1-1zm-7.811 3.129v4c0 .552.448 1 1 1s1-.448 1-1v-4c0-.552-.448-1-1-1s-1 .448-1 1zm0 8v4c0 .552.448 1 1 1s1-.448 1-1v-4c0-.552-.448-1-1-1s-1 .448-1 1zm0 8v4c0 .552.448 1 1 1s1-.448 1-1v-4c0-.552-.448-1-1-1s-1 .448-1 1zm0 8v4c0 .552.448 1 1 1s1-.448 1-1v-4c0-.552-.448-1-1-1s-1 .448-1 1zm0 8v4c0 .552.448 1 1 1s1-.448 1-1v-4c0-.552-.448-1-1-1s-1 .448-1 1zm0 8v4c0 .552.448 1 1 1s1-.448 1-1v-4c0-.552-.448-1-1-1s-1 .448-1 1zm0 8v4c0 .552.448 1 1 1s1-.448 1-1v-4c0-.552-.448-1-1-1s-1 .448-1 1zm0 8v4c0 .552.448 1 1 1s1-.448 1-1v-4c0-.552-.448-1-1-1s-1 .448-1 1zm0 8v1.87c0 1.165.668 2.209 1.697 2.705.497.24 1.095.031 1.335-.467s.031-1.095-.467-1.335c-.343-.165-.565-.513-.565-.904v-1.87c0-.552-.448-1-1-1s-1 .448-1 1zm6.066 4.871h4c.552 0 1-.448 1-1s-.448-1-1-1h-4c-.552 0-1 .448-1 1s.448 1 1 1zm8 0h4c.552 0 1-.448 1-1s-.448-1-1-1h-4c-.552 0-1 .448-1 1s.448 1 1 1zm8 0h4c.552 0 1-.448 1-1s-.448-1-1-1h-4c-.552 0-1 .448-1 1s.448 1 1 1zm8 0h4c.552 0 1-.448 1-1s-.448-1-1-1h-4c-.552 0-1 .448-1 1s.448 1 1 1zm8 0h4c.552 0 1-.448 1-1s-.448-1-1-1h-4c-.552 0-1 .448-1 1s.448 1 1 1zm8 0h4c.552 0 1-.448 1-1s-.448-1-1-1h-4c-.552 0-1 .448-1 1s.448 1 1 1zm8 0h4c.552 0 1-.448 1-1s-.448-1-1-1h-4c-.552 0-1 .448-1 1s.448 1 1 1zm8 0h4c.552 0 1-.448 1-1s-.448-1-1-1h-4c-.552 0-1 .448-1 1s.448 1 1 1zm8 0h4c.552 0 1-.448 1-1s-.448-1-1-1h-4c-.552 0-1 .448-1 1s.448 1 1 1zm8 0h4c.552 0 1-.448 1-1s-.448-1-1-1h-4c-.552 0-1 .448-1 1s.448 1 1 1zm8 0h4c.552 0 1-.448 1-1s-.448-1-1-1h-4c-.552 0-1 .448-1 1s.448 1 1 1zm8 0h4c.552 0 1-.448 1-1s-.448-1-1-1h-4c-.552 0-1 .448-1 1s.448 1 1 1zm8 0h4c.552 0 1-.448 1-1s-.448-1-1-1h-4c-.552 0-1 .448-1 1s.448 1 1 1zm8 0h4c.552 0 1-.448 1-1s-.448-1-1-1h-4c-.552 0-1 .448-1 1s.448 1 1 1zm8 0h4c.552 0 1-.448 1-1s-.448-1-1-1h-4c-.552 0-1 .448-1 1s.448 1 1 1zm8 0h4c.552 0 1-.448 1-1s-.448-1-1-1h-4c-.552 0-1 .448-1 1s.448 1 1 1zm8 0h4c.552 0 1-.448 1-1s-.448-1-1-1h-4c-.552 0-1 .448-1 1s.448 1 1 1zm8 0h4c.552 0 1-.448 1-1s-.448-1-1-1h-4c-.552 0-1 .448-1 1s.448 1 1 1zm8 0h4c.552 0 1-.448 1-1s-.448-1-1-1h-4c-.552 0-1 .448-1 1s.448 1 1 1zm8 0h4c.552 0 1-.448 1-1s-.448-1-1-1h-4c-.552 0-1 .448-1 1s.448 1 1 1zm8 0h4c.552 0 1-.448 1-1s-.448-1-1-1h-4c-.552 0-1 .448-1 1s.448 1 1 1zm8 0h4c.552 0 1-.448 1-1s-.448-1-1-1h-4c-.552 0-1 .448-1 1s.448 1 1 1zm8 0h2.94c.547 0 1.075-.148 1.536-.424.474-.284.628-.898.344-1.372-.284-.474-.898-.628-1.372-.344-.152.091-.325.14-.508.14h-2.94c-.552 0-1 .448-1 1s.448 1 1 1zm5.934-5.003v-4c0-.552-.448-1-1-1s-1 .448-1 1v4c0 .552.448 1 1 1s1-.448 1-1zm0-8v-.171c0-.552-.448-1-1-1s-1 .448-1 1v.171c0 .552.448 1 1 1s1-.448 1-1zm-124-101.331v-4c0-.552-.448-1-1-1s-1 .448-1 1v4c0 .552.448 1 1 1s1-.448 1-1zm0-8v-4c0-.552-.448-1-1-1s-1 .448-1 1v4c0 .552.448 1 1 1s1-.448 1-1zm0-8v-4c0-.552-.448-1-1-1s-1 .448-1 1v4c0 .552.448 1 1 1s1-.448 1-1zm0-8v-4c0-.552-.448-1-1-1s-1 .448-1 1v4c0 .552.448 1 1 1s1-.448 1-1zm0-8v-4c0-.552-.448-1-1-1s-1 .448-1 1v4c0 .552.448 1 1 1s1-.448 1-1zm0-8v-4c0-.552-.448-1-1-1s-1 .448-1 1v4c0 .552.448 1 1 1s1-.448 1-1zm0-8v-4c0-.552-.448-1-1-1s-1 .448-1 1v4c0 .552.448 1 1 1s1-.448 1-1zm.663-7.079c.392-.375.909-.587 1.465-.587h1.677c.552 0 1-.448 1-1s-.448-1-1-1h-1.677c-1.076 0-2.087.414-2.848 1.142-.399.382-.413 1.015-.031 1.414s1.015.413 1.414.031zm7.141-.587h4c.552 0 1-.448 1-1s-.448-1-1-1h-4c-.552 0-1 .448-1 1s.448 1 1 1zm8 0h4c.552 0 1-.448 1-1s-.448-1-1-1h-4c-.552 0-1 .448-1 1s.448 1 1 1zm8 0h4c.552 0 1-.448 1-1s-.448-1-1-1h-4c-.552 0-1 .448-1 1s.448 1 1 1zm8 0h4c.552 0 1-.448 1-1s-.448-1-1-1h-4c-.552 0-1 .448-1 1s.448 1 1 1zm8 0h4c.552 0 1-.448 1-1s-.448-1-1-1h-4c-.552 0-1 .448-1 1s.448 1 1 1zm8 0h4c.552 0 1-.448 1-1s-.448-1-1-1h-4c-.552 0-1 .448-1 1s.448 1 1 1zm8 0h4c.552 0 1-.448 1-1s-.448-1-1-1h-4c-.552 0-1 .448-1 1s.448 1 1 1zm8 0h4c.552 0 1-.448 1-1s-.448-1-1-1h-4c-.552 0-1 .448-1 1s.448 1 1 1zm8 0h4c.552 0 1-.448 1-1s-.448-1-1-1h-4c-.552 0-1 .448-1 1s.448 1 1 1zm8 0h4c.552 0 1-.448 1-1s-.448-1-1-1h-4c-.552 0-1 .448-1 1s.448 1 1 1zm8 0h4c.552 0 1-.448 1-1s-.448-1-1-1h-4c-.552 0-1 .448-1 1s.448 1 1 1zm8 0h4c.552 0 1-.448 1-1s-.448-1-1-1h-4c-.552 0-1 .448-1 1s.448 1 1 1zm8 0h4c.552 0 1-.448 1-1s-.448-1-1-1h-4c-.552 0-1 .448-1 1s.448 1 1 1zm8 0h4c.552 0 1-.448 1-1s-.448-1-1-1h-4c-.552 0-1 .448-1 1s.448 1 1 1zm8 0h.069c.942 0 1.765.623 2.035 1.519.16.529.717.828 1.246.668.529-.16.828-.717.668-1.246-.523-1.734-2.118-2.941-3.95-2.941h-.069c-.552 0-1 .448-1 1s.448 1 1 1zm2.196 5.276v4c0 .552.448 1 1 1s1-.448 1-1v-4c0-.552-.448-1-1-1s-1 .448-1 1zm0 8v4c0 .552.448 1 1 1s1-.448 1-1v-4c0-.552-.448-1-1-1s-1 .448-1 1zm0 8v4c0 .552.448 1 1 1s1-.448 1-1v-4c0-.552-.448-1-1-1s-1 .448-1 1zm0 8v4c0 .552.448 1 1 1s1-.448 1-1v-4c0-.552-.448-1-1-1s-1 .448-1 1zm0 8v4c0 .552.448 1 1 1s1-.448 1-1v-4c0-.552-.448-1-1-1s-1 .448-1 1zm0 8v4c0 .552.448 1 1 1s1-.448 1-1v-4c0-.552-.448-1-1-1s-1 .448-1 1zm0 8v4c0 .552.448 1 1 1s1-.448 1-1v-4c0-.552-.448-1-1-1s-1 .448-1 1zm0 8v4c0 .552.448 1 1 1s1-.448 1-1v-4c0-.552-.448-1-1-1s-1 .448-1 1zm0 8v4c0 .552.448 1 1 1s1-.448 1-1v-4c0-.552-.448-1-1-1s-1 .448-1 1zm0 8v4c0 .552.448 1 1 1s1-.448 1-1v-4c0-.552-.448-1-1-1s-1 .448-1 1zm0 8v4c0 .552.448 1 1 1s1-.448 1-1v-4c0-.552-.448-1-1-1s-1 .448-1 1zm0 8v4c0 .552.448 1 1 1s1-.448 1-1v-4c0-.552-.448-1-1-1s-1 .448-1 1z" id="Combined-Shape" fill-rule="nonzero"/></g><g><g id="cloud"><path d="M48 117c-8.284 0-15-6.716-15-15 0-8.284 6.716-15 15-15 2.202 0 4.293.475 6.177 1.327 1.307-9.782 9.684-17.327 19.823-17.327 9.092 0 16.767 6.067 19.198 14.374 2.229-1.499 4.914-2.374 7.802-2.374 7.732 0 14 6.268 14 14 5.523 0 10 4.477 10 10s-4.477 10-10 10h-67z" id="Combined-Shape" fill="#fff"/><path d="M115 116c4.971 0 9-4.029 9-9s-4.029-9-9-9h-1v-1c0-7.18-5.82-13-13-13-2.618 0-5.119.775-7.244 2.204l-1.134.763-.384-1.312c-2.35-8.031-9.743-13.655-18.238-13.655-9.548 0-17.579 7.084-18.832 16.459l-.178 1.333-1.225-.554c-1.795-.812-3.749-1.238-5.765-1.238-7.732 0-14 6.268-14 14s6.268 14 14 14h67zm11-9c0 6.075-4.925 11-11 11h-67c-8.837 0-16-7.163-16-16s7.163-16 16-16c1.862 0 3.68.319 5.394.932 1.908-9.732 10.486-16.932 20.606-16.932 8.949 0 16.791 5.646 19.756 13.862 2.194-1.212 4.672-1.862 7.244-1.862 7.963 0 14.476 6.204 14.97 14.042 5.621.491 10.03 5.21 10.03 10.958z" id="Combined-Shape" fill="#CBECF9" fill-rule="nonzero"/></g><g id="cloud"><path d="M329.747 73.37h-35.314c-3.001 0-5.433-2.425-5.433-5.415 0-2.991 2.432-5.415 5.433-5.415l.283.007c-.185-.648-.283-1.331-.283-2.038 0-4.112 3.345-7.446 7.47-7.446 2.238 0 4.246.981 5.615 2.535 1.654-3.878 5.511-6.597 10.004-6.597 5.124 0 9.419 3.535 10.566 8.292.536-.11 1.09-.168 1.659-.168 4.501 0 8.149 3.637 8.149 8.123 0 4.486-3.649 8.123-8.149 8.123z" id="Combined-Shape" fill="#E6F5FB"/><path d="M336.897 65.246c0-3.933-3.2-7.123-7.149-7.123-.494 0-.981.05-1.457.148l-.947.195-.227-.94c-1.056-4.382-5.007-7.526-9.593-7.526-3.995 0-7.549 2.388-9.084 5.989l-.622 1.459-1.048-1.19c-1.222-1.387-2.976-2.196-4.865-2.196-3.574 0-6.47 2.887-6.47 6.446 0 .604.083 1.196.245 1.764l.383 1.344-1.396-.071-.232-.006c-2.449 0-4.433 1.978-4.433 4.415 0 2.438 1.984 4.415 4.433 4.415h35.314c3.949 0 7.149-3.19 7.149-7.123zm-7.149-9.123c5.052 0 9.149 4.084 9.149 9.123s-4.097 9.123-9.149 9.123h-35.314c-3.552 0-6.433-2.872-6.433-6.415 0-3.229 2.392-5.9 5.504-6.349-.047-.362-.071-.728-.071-1.097 0-4.665 3.793-8.446 8.47-8.446 1.975 0 3.841.679 5.327 1.878 2.084-3.618 5.974-5.94 10.293-5.94 5.2 0 9.722 3.363 11.287 8.171.31-.031.623-.047.937-.047z" id="Combined-Shape" fill="#CBECF9" fill-rule="nonzero"/></g><g id="cloud"><path d="M351.464 88.357c4.501 0 8.149-3.637 8.149-8.123 0-4.486-3.649-8.123-8.149-8.123-1.599 0-3.09.459-4.349 1.252-1.049-2.793-3.752-4.781-6.92-4.781-1.565 0-3.017.485-4.212 1.313-.801-3.934-4.289-6.895-8.472-6.895-4.774 0-8.645 3.858-8.645 8.617 0 .33.019.655.055.976-.865-.312-1.798-.482-2.771-.482-4.501 0-8.149 3.637-8.149 8.123 0 4.486 3.649 8.123 8.149 8.123h35.314z" id="Combined-Shape" fill="#fff"/><path d="M351.464 71.111c5.052 0 9.149 4.084 9.149 9.123s-4.097 9.123-9.149 9.123h-35.314c-5.052 0-9.149-4.084-9.149-9.123s4.097-9.123 9.149-9.123c.583 0 1.159.055 1.723.162.182-5.152 4.428-9.272 9.639-9.272 4.143 0 7.745 2.624 9.088 6.387 1.11-.526 2.333-.806 3.596-.806 3.135 0 5.943 1.731 7.383 4.391 1.202-.563 2.523-.862 3.886-.862zm7.149 9.123c0-3.933-3.2-7.123-7.149-7.123-1.371 0-2.683.384-3.816 1.098l-1.038.654-.431-1.148c-.926-2.465-3.297-4.133-5.984-4.133-1.322 0-2.581.4-3.642 1.135l-1.247.864-.303-1.487c-.717-3.521-3.839-6.094-7.492-6.094-4.223 0-7.645 3.411-7.645 7.617 0 .29.016.578.048.863l.181 1.599-1.513-.545c-.772-.278-1.592-.423-2.432-.423-3.949 0-7.149 3.19-7.149 7.123 0 3.933 3.2 7.123 7.149 7.123h35.314c3.949 0 7.149-3.19 7.149-7.123z" id="Combined-Shape" fill="#CBECF9" fill-rule="nonzero"/></g></g></g><g><g id="code"><path d="M265.402 40.904l-33.702-9.036c-1.072-.288-2.174.348-2.458 1.404l-16.365 61.035c-.285 1.063.346 2.155 1.419 2.443l49.596 13.298c1.068.286 2.165-.341 2.454-1.419l12.132-45.25-13.077-22.474z" id="Combined-Shape" fill="#E6F5FB"/><path d="M273.211 54.323l5.269 9.055-12.132 45.25c-.289 1.078-1.386 1.706-2.454 1.419l-49.596-13.298c-1.073-.288-1.703-1.38-1.419-2.443l1.066-3.974 44.105 11.825c1.068.286 2.172-.348 2.46-1.403l12.702-46.432z" id="Combined-Shape" fill="#CBECF9"/><path d="M278.48 63.377l-15.881-4.258c-1.072-.287-1.709-1.386-1.424-2.448l4.228-15.768" id="Rectangle-21" fill="#97D9F2"/><path d="M241.113 67.777l-8.21.658 6.784 4.658-.625 2.331-8.923-6.556.592-2.209 11.009-1.222-.627 2.34zm3.364 7.353l2.517.675-.71 2.649-2.517-.675.71-2.649zm2.813-.43l-2.517-.675.386-1.442c.166-.618.404-1.119.716-1.504.312-.385.785-.753 1.418-1.105l1.072-.606c.498-.275.851-.518 1.06-.729.208-.212.348-.452.42-.72.112-.418.052-.772-.18-1.062-.232-.29-.637-.512-1.216-.667-.528-.142-1.109-.179-1.744-.111-.634.067-1.312.239-2.032.514l.673-2.509c.71-.184 1.404-.281 2.083-.289.679-.009 1.336.072 1.971.243 1.27.34 2.187.901 2.753 1.681.565.78.71 1.685.434 2.715-.127.474-.352.887-.676 1.239-.323.351-.857.735-1.602 1.151l-1.045.583c-.538.297-.902.561-1.091.791-.19.23-.336.535-.438.916l-.057.195-.079.24-.309 1.151zm7.106-3.362l.627-2.34 8.92 6.566-.592 2.209-11.006 1.213.625-2.331 8.205-.64-6.779-4.677z" fill="#97D9F2"/><path d="M266.06 40.044l13.494 23.19-12.24 45.652c-.432 1.609-2.075 2.556-3.679 2.126l-49.596-13.298c-1.604-.43-2.554-2.069-2.126-3.668l16.365-61.035c.427-1.593 2.08-2.54 3.683-2.111l34.1 9.143zm-34.618-7.211c-.538-.144-1.092.173-1.233.697l-16.365 61.035c-.142.53.173 1.073.712 1.218l49.596 13.298c.538.144 1.084-.17 1.229-.712l12.025-44.848-12.661-21.758-33.304-8.929zm47.297 29.578l-.518 1.932-15.881-4.258c-1.603-.43-2.56-2.075-2.131-3.673l4.228-15.768 1.932.518-4.228 15.768c-.142.528.178 1.078.717 1.223l15.881 4.258z" id="Combined-Shape" fill="#00A1DE" fill-rule="nonzero"/></g><g id="code"><path d="M149.79 36.294l-33.702 9.036c-1.072.288-1.709 1.389-1.426 2.445l16.365 61.035c.285 1.063 1.377 1.693 2.45 1.406l49.596-13.298c1.068-.286 1.704-1.378 1.415-2.456l-12.132-45.25-22.566-12.917z" id="Combined-Shape" fill="#E6F5FB"/><path d="M163.264 44.007l9.092 5.204 12.132 45.25c.289 1.078-.347 2.17-1.415 2.456l-49.596 13.298c-1.073.288-2.165-.343-2.45-1.406l-1.066-3.974 44.105-11.825c1.068-.286 1.706-1.388 1.428-2.446l-12.231-46.558z" id="Combined-Shape" fill="#CBECF9"/><path d="M172.357 49.212l-15.881 4.258c-1.072.287-2.173-.345-2.458-1.407l-4.228-15.768" id="Rectangle-21" fill="#97D9F2"/><path d="M149.959 80.361l.479 1.788-1.414.379c-1.565.42-2.675.47-3.33.15-.655-.319-1.167-1.169-1.537-2.548l-.54-2.012c-.253-.942-.595-1.548-1.028-1.816-.432-.269-1.089-.285-1.968-.049l-.584.157-.479-1.788.584-.157c.88-.236 1.44-.577 1.681-1.023.241-.446.234-1.143-.02-2.092l-.54-2.012c-.37-1.379-.351-2.369.057-2.97s1.395-1.111 2.96-1.531l1.414-.379.477 1.778-1.16.311c-.654.175-1.055.423-1.205.744-.15.321-.105.928.134 1.82l.525 1.956c.276 1.03.316 1.795.12 2.295-.196.501-.674.916-1.434 1.247.827-.081 1.451.049 1.873.391.422.342.77 1.024 1.044 2.048l.514 1.919c.241.899.507 1.451.798 1.657.291.206.763.222 1.417.046l1.16-.311zm3.394-.91l1.141-.306c.654-.175 1.058-.427 1.212-.756.154-.329.112-.94-.127-1.832l-.514-1.919c-.274-1.023-.314-1.789-.12-2.295.194-.507.667-.931 1.417-1.273-.824.094-1.444-.028-1.861-.364-.417-.336-.763-1.019-1.039-2.049l-.525-1.956c-.236-.88-.501-1.424-.796-1.633-.295-.209-.773-.224-1.432-.047l-1.141.306-.477-1.778 1.414-.379c1.559-.418 2.662-.468 3.31-.15.648.318 1.157 1.166 1.526 2.546l.54 2.012c.253.942.598 1.547 1.037 1.814.439.267 1.101.282 1.987.044l.584-.157.479 1.788-.584.157c-.886.238-1.452.583-1.697 1.037-.245.454-.243 1.149.008 2.085l.54 2.012c.37 1.379.354 2.37-.047 2.972-.401.602-1.381 1.113-2.939 1.531l-1.414.379-.479-1.788z" fill="#97D9F2"/><path d="M149.93 35.222l23.285 13.329 12.24 45.652c.432 1.609-.517 3.251-2.122 3.681l-49.596 13.298c-1.604.43-3.247-.514-3.675-2.113l-16.365-61.035c-.427-1.593.531-3.24 2.133-3.67l34.1-9.143zm-33.582 11.075c-.538.144-.859.696-.719 1.22l16.365 61.035c.142.53.687.843 1.225.699l49.596-13.298c.538-.144.853-.69.708-1.231l-12.025-44.848-21.847-12.506-33.304 8.929zm55.75 1.949l.518 1.932-15.881 4.258c-1.603.43-3.255-.516-3.683-2.114l-4.228-15.768 1.932-.518 4.228 15.768c.142.528.694.844 1.233.7l15.881-4.258z" id="Combined-Shape" fill="#00A1DE" fill-rule="nonzero"/></g><g><path d="M207.898 21.442h-34.888c-1.11 0-2.01.899-2.01 1.992v63.183c0 1.1.892 1.992 2.003 1.992h51.342c1.106 0 2.003-.89 2.003-2.006v-46.843l-18.449-18.318z" id="Combined-Shape" fill="#E6F5FB"/><path d="M218.914 32.38l7.433 7.381v46.843c0 1.116-.897 2.006-2.003 2.006h-51.342c-1.111 0-2.003-.892-2.003-1.992v-4.114h45.657c1.106 0 2.007-.899 2.013-1.992l.244-48.132z" id="Combined-Shape" fill="#CBECF9"/><path d="M226.347 39.76h-16.439c-1.11 0-2.009-.896-2.009-1.995v-16.323" fill="#97D9F2"/><path d="M191.399 53.685l-7.758 2.762 7.758 2.742v2.413l-10.315-4.021v-2.287l10.315-4.031v2.422zm9.632-5.494h2.157l-7.671 16.308h-2.157l7.671-16.308zm4.118 5.494v-2.422l10.315 4.031v2.287l-10.315 4.021v-2.413l7.758-2.742-7.758-2.762z" fill="#97D9F2"/><path d="M208.31 20.442l19.037 18.902v47.259c0 1.666-1.342 3.006-3.003 3.006h-51.342c-1.661 0-3.003-1.337-3.003-2.992v-63.183c0-1.649 1.351-2.992 3.01-2.992h35.3zm-35.3 2c-.557 0-1.01.45-1.01.992v63.183c0 .549.445.992 1.003.992h51.342c.557 0 1.003-.445 1.003-1.006v-46.427l-17.861-17.735h-34.476zm53.337 16.318v2h-16.439c-1.66 0-3.009-1.341-3.009-2.995v-16.323h2v16.323c0 .547.451.995 1.009.995h16.439z" id="Combined-Shape" fill="#00A1DE" fill-rule="nonzero"/></g><g><path d="M135.801 149.945c-12.04 0-21.801-9.691-21.801-21.646 0-7.722 4.072-14.499 10.2-18.331-.018-.268-.027-.538-.027-.811 0-6.763 5.522-12.246 12.333-12.246 1.306 0 2.564.202 3.745.575 2.056-12.001 12.579-21.139 25.252-21.139 3.37 0 6.589.646 9.536 1.821 7.865-8.441 19.117-13.726 31.613-13.726 18.835 0 34.846 12.009 40.689 28.736 1.296-.388 2.67-.596 4.093-.596 7.826 0 14.17 6.299 14.17 14.07l-.003.284c10.357 1.679 18.261 10.604 18.261 21.362 0 11.955-9.76 21.646-21.801 21.646h-126.262z" id="Combined-Shape" fill="#fff"/><path d="M175.772 77.406c7.824-7.996 18.77-12.964 30.884-12.964 18.835 0 34.846 12.009 40.689 28.736 1.296-.388 2.67-.596 4.093-.596 7.826 0 14.17 6.299 14.17 14.07l-.003.284c10.357 1.679 18.261 10.604 18.261 21.362 0 11.955-9.76 21.646-21.801 21.646h-126.262c-8.525 0-15.907-4.859-19.491-11.939 3.894 3.602 9.117 5.806 14.858 5.806h129.35c8.629 0 15.624-6.945 15.624-15.513 0-8.417-6.751-15.268-15.17-15.513 0-7.771-6.344-14.07-14.17-14.07-1.423 0-2.797.208-4.093.596-5.843-16.727-21.854-28.736-40.689-28.736-9.881 0-18.985 3.305-26.252 8.863v-2.032zm-9.237 6.231c1.281 0 2.32 1.031 2.32 2.303s-1.039 2.303-2.32 2.303c-4.576 0-8.742 2.346-11.121 6.131-.678 1.079-2.109 1.408-3.196.734-1.087-.674-1.418-2.094-.74-3.174 3.218-5.119 8.864-8.298 15.057-8.298zm-17.71 16.604c.072-1.27 1.168-2.241 2.447-2.17 1.279.072 2.257 1.16 2.185 2.43-.014.244-.021.489-.021.735-.001 1.272-1.041 2.302-2.322 2.301-1.281-.001-2.319-1.034-2.317-2.306 0-.331.01-.662.029-.991z" id="Combined-Shape" fill="#E6F5FB"/><path d="M262.063 148.945c11.489 0 20.801-9.245 20.801-20.646 0-10.152-7.433-18.756-17.421-20.375l-.857-.139.017-.868.003-.264c0-7.217-5.895-13.07-13.17-13.07-1.305 0-2.583.188-3.806.554l-.915.274-.315-.902c-5.821-16.664-21.688-28.066-39.745-28.066-11.883 0-22.969 4.917-30.881 13.408l-.466.501-.635-.253c-2.888-1.151-5.984-1.75-9.166-1.75-12.048 0-22.269 8.65-24.266 20.308l-.194 1.13-1.093-.346c-1.103-.349-2.261-.528-3.444-.528-6.261 0-11.333 5.036-11.333 11.246 0 .25.008.498.024.745l.039.597-.507.317c-6.01 3.757-9.73 10.303-9.73 17.483 0 11.401 9.311 20.646 20.801 20.646h126.262zm22.801-20.646c0 12.509-10.21 22.646-22.801 22.646h-126.262c-12.591 0-22.801-10.138-22.801-22.646 0-7.679 3.879-14.697 10.177-18.861l-.003-.28c0-7.317 5.971-13.246 13.333-13.246 1.008 0 2.002.111 2.967.329 2.589-12.068 13.38-20.893 26.03-20.893 3.204 0 6.33.563 9.27 1.648 8.253-8.591 19.667-13.553 31.879-13.553 18.596 0 34.977 11.548 41.319 28.535 1.126-.261 2.286-.395 3.464-.395 8.191 0 14.868 6.449 15.16 14.518 10.528 2.107 18.268 11.343 18.268 22.199z" fill="#00A1DE" fill-rule="nonzero"/></g><path d="M144 116.403h2.891l1.462 5.342 1.454-5.342h2.907v12.176h-2.086v-9.753l-1.298 5.325h-1.93l-1.314-5.325v9.753h-2.086v-12.176zm10.833 2.12v-2.12h7.302v2.12h-2.439v7.935h2.439v2.12h-7.302v-2.12h2.439v-7.935h-2.439zm14.989 10.055h-2.423v-10.072h-3.113v-2.104h8.649v2.104h-3.113v10.072zm15.827 0v-12.176h2.423v10.055h5.183v2.12h-7.605zm10.094-9.134h4.764v7.299h2.99v1.835h-8.394v-1.835h2.998v-5.464h-2.357v-1.835zm2.357-4.445h2.406v2.789h-2.406v-2.789zm14.669 13.113c-.405.234-.84.409-1.306.526-.465.117-.966.175-1.503.175-1.418 0-2.527-.424-3.326-1.272-.799-.848-1.199-2.022-1.199-3.523 0-1.506.402-2.684 1.207-3.535s1.916-1.276 3.335-1.276c.493 0 .968.057 1.425.171.457.114.913.291 1.368.53v2.186c-.35-.299-.735-.529-1.154-.689-.419-.16-.853-.241-1.302-.241-.783 0-1.385.247-1.807.742-.422.495-.632 1.199-.632 2.112s.211 1.615.632 2.104c.422.489 1.024.734 1.807.734.465 0 .901-.077 1.306-.232.405-.155.788-.39 1.15-.705v2.194zm10.464.016c-.559.228-1.128.4-1.708.514-.58.114-1.194.171-1.84.171-1.539 0-2.714-.409-3.528-1.227-.813-.818-1.22-1.997-1.22-3.535 0-1.49.391-2.667 1.174-3.531.783-.864 1.851-1.297 3.203-1.297 1.363 0 2.422.401 3.174 1.203.753.802 1.129 1.931 1.129 3.388v.97h-6.234c.005.718.219 1.253.641 1.607.422.353 1.051.53 1.889.53.553 0 1.098-.079 1.634-.236.537-.158 1.098-.408 1.684-.75v2.194zm-2.037-5.138c-.011-.631-.174-1.108-.489-1.431-.315-.323-.779-.485-1.392-.485-.553 0-.994.167-1.322.502-.329.334-.523.809-.583 1.423l3.786-.008zm11.909-.343v5.929h-2.39v-5.562c0-.663-.094-1.138-.283-1.423-.189-.285-.497-.428-.924-.428-.433 0-.773.193-1.023.579-.249.386-.374.922-.374 1.607v5.227h-2.39v-9.134h2.39v1.37c.17-.506.46-.897.871-1.174.411-.277.906-.416 1.487-.416.871 0 1.528.287 1.971.86.444.574.665 1.428.665 2.565zm9.47-2.92v2.088c-.444-.283-.905-.496-1.384-.64-.479-.144-.96-.216-1.441-.216-.537 0-.942.077-1.216.232-.274.155-.411.385-.411.689 0 .435.586.788 1.758 1.06l.09.024.69.163c.876.207 1.518.54 1.926.999.408.459.612 1.081.612 1.863 0 .941-.311 1.646-.932 2.116-.621.47-1.556.705-2.805.705-.553 0-1.12-.048-1.7-.143-.58-.095-1.169-.238-1.766-.428v-2.088c.531.299 1.072.527 1.622.685.55.158 1.083.236 1.597.236.564 0 .991-.082 1.281-.245.29-.163.435-.4.435-.709 0-.304-.103-.538-.308-.701-.205-.163-.694-.337-1.466-.522l-.665-.147c-.92-.207-1.591-.53-2.012-.97-.422-.44-.632-1.03-.632-1.77 0-.881.32-1.566.961-2.055.641-.489 1.541-.734 2.702-.734.52 0 1.039.042 1.556.126.517.084 1.02.211 1.507.379zm11.039 8.4c-.559.228-1.128.4-1.708.514-.58.114-1.194.171-1.84.171-1.539 0-2.714-.409-3.528-1.227-.813-.818-1.22-1.997-1.22-3.535 0-1.49.391-2.667 1.174-3.531.783-.864 1.851-1.297 3.203-1.297 1.363 0 2.422.401 3.174 1.203.753.802 1.129 1.931 1.129 3.388v.97h-6.234c.005.718.219 1.253.641 1.607.422.353 1.051.53 1.889.53.553 0 1.098-.079 1.634-.236.537-.158 1.098-.408 1.684-.75v2.194zm-2.037-5.138c-.011-.631-.174-1.108-.489-1.431-.315-.323-.779-.485-1.392-.485-.553 0-.994.167-1.322.502-.329.334-.523.809-.583 1.423l3.786-.008z" fill="#97D9F2"/></g></g></svg>