<?xml version="1.0" encoding="UTF-8"?>
<svg width="174px" height="135px" viewBox="0 0 174 135" version="1.1" xmlns="http://www.w3.org/2000/svg" xmlns:xlink="http://www.w3.org/1999/xlink">
  <g>
    <g id="cloud" transform="translate(1.000000, 43.442105)">
      <path
        d="M22.8006596,86.5029586 C10.7604878,86.5029586 1,76.8115716 1,64.85664 C1,57.1348698 5.07203092,50.3574401 11.2002457,46.5259266 C11.1826015,46.2579154 11.1736411,45.9875515 11.1736411,45.7151096 C11.1736411,38.952034 16.6952885,33.4694779 23.5065857,33.4694779 C24.8124175,33.4694779 26.0708484,33.6709886 27.2520578,34.0444002 C29.3079439,22.042908 39.8313118,12.9054752 52.5040583,12.9054752 C55.8744496,12.9054752 59.0928099,13.5517889 62.0402848,14.7264033 C69.9055474,6.28494748 81.1575919,1 93.6528032,1 C112.488131,1 128.498653,13.0088055 134.342012,29.7360404 C135.637854,29.3484988 137.011926,29.1402142 138.434991,29.1402142 C146.261103,29.1402142 152.60542,35.4396157 152.60542,43.2103213 C152.60542,43.3051758 152.604475,43.3998111 152.602593,43.4942184 C162.959309,45.1733022 170.863473,54.0984479 170.863473,64.85664 C170.863473,76.8115716 161.102985,86.5029586 149.062813,86.5029586 L22.8006596,86.5029586 L22.8006596,86.5029586 Z"
        id="Combined-Shape"
        fill="#FFFFFF"></path>
      <path
        d="M62.7719735,13.9637091 C70.5957595,5.96782561 81.5417149,1 93.6562413,1 C112.491569,1 128.502091,13.0088055 134.34545,29.7360404 C135.641292,29.3484988 137.015364,29.1402142 138.438429,29.1402142 C146.264541,29.1402142 152.608858,35.4396157 152.608858,43.2103213 C152.608858,43.3051758 152.607913,43.3998111 152.606031,43.4942184 C162.962747,45.1733022 170.866911,54.0984479 170.866911,64.85664 C170.866911,76.8115716 161.106423,86.5029586 149.066251,86.5029586 L22.8040976,86.5029586 C14.2790044,86.5029586 6.89680939,81.6442725 3.31302068,74.5636083 C7.20657075,78.1659195 12.4298077,80.369835 18.1714698,80.369835 L58.8375669,80.369835 L119.209635,80.369835 L147.522038,80.369835 C156.150827,80.369835 163.145844,73.424341 163.145844,64.85664 C163.145844,56.4397726 156.394953,49.5884974 147.976218,49.3434449 C147.976218,41.5727394 141.631901,35.2733378 133.805789,35.2733378 C132.382723,35.2733378 131.008652,35.4816224 129.712809,35.869164 C123.86945,19.1419291 107.858928,7.13312361 89.0236011,7.13312361 C79.1422131,7.13312361 70.0382851,10.4382599 62.7719735,15.9958818 L62.7719735,13.9637091 Z M53.5350163,20.1945417 C54.8161889,20.1945417 55.8547845,21.2257844 55.8547845,22.4978867 C55.8547845,23.769989 54.8161889,24.8012317 53.5350163,24.8012317 C48.9594043,24.8012317 44.7927781,27.1470915 42.4135193,30.9319182 C41.7351399,32.0110561 40.3041531,32.3398285 39.2173207,31.6662518 C38.1304884,30.992675 37.7993718,29.5718191 38.4777512,28.4926811 C41.6959461,23.3733095 47.3419516,20.1945417 53.5350163,20.1945417 Z M35.8252009,36.7985888 C35.8975847,35.5285184 36.9932,34.5571862 38.2723262,34.6290576 C39.5514524,34.700929 40.5297103,35.7887877 40.4573264,37.0588581 C40.4434175,37.3029087 40.4363119,37.5480673 40.4360651,37.7941691 C40.4347893,39.0662708 39.3951599,40.096486 38.113988,40.0952192 C36.8328161,40.0939524 35.7952553,39.0616833 35.7965311,37.7895816 C35.7968635,37.458188 35.8064402,37.1277692 35.8252009,36.7985888 Z"
        id="Combined-Shape"
        fill="#E6F5FB"></path>
      <path
        d="M149.062813,85.5029586 C160.552284,85.5029586 169.863473,76.2576902 169.863473,64.85664 C169.863473,54.7043446 162.430884,46.1006882 152.442558,44.4813297 L151.585488,44.3423772 L151.602792,43.4742896 C151.604543,43.3864144 151.60542,43.2984224 151.60542,43.2103213 C151.60542,35.9934972 145.710403,30.1402142 138.434991,30.1402142 C137.130227,30.1402142 135.851986,30.3282219 134.628538,30.6941128 L133.713077,30.9678952 L133.397957,30.065829 C127.576631,13.4016661 111.710295,2 93.6528032,2 C81.769598,2 70.6835185,6.91691345 62.7719204,15.4080992 L62.3055751,15.9086081 L61.6700833,15.6553548 C58.7820115,14.5044135 55.6857565,13.9054752 52.5040583,13.9054752 C40.4560306,13.9054752 30.2346638,22.5557218 28.2377007,34.2132433 L28.0440752,35.3435563 L26.9506341,34.9978905 C25.847259,34.6490843 24.6897437,34.4694779 23.5065857,34.4694779 C17.2459891,34.4694779 12.1736411,39.5059154 12.1736411,45.7151096 C12.1736411,45.9646152 12.181814,46.2130715 12.1980857,46.4602351 L12.2373638,47.0568613 L11.7303819,47.3738391 C5.72078178,51.1311918 2,57.6768834 2,64.85664 C2,76.2576902 11.3111883,85.5029586 22.8006596,85.5029586 L149.062813,85.5029586 Z M171.863473,64.85664 C171.863473,77.3654531 161.653685,87.5029586 149.062813,87.5029586 L22.8006596,87.5029586 C10.2097872,87.5029586 0,77.3654531 0,64.85664 C0,57.1776934 3.87941431,50.1592918 10.1765714,45.9953965 C10.1746187,45.9020831 10.1736411,45.8086508 10.1736411,45.7151096 C10.1736411,38.3981526 16.1445879,32.4694779 23.5065857,32.4694779 C24.5147334,32.4694779 25.5084005,32.58083 26.4739946,32.7989333 C29.0628142,20.7307196 39.8535451,11.9054752 52.5040583,11.9054752 C55.7078873,11.9054752 58.8344849,12.4683596 61.7737281,13.5531166 C70.0267712,4.96164767 81.4405034,5.68434189e-14 93.6528032,5.68434189e-14 C112.249063,5.68434189e-14 128.629408,11.547608 134.971304,28.5350157 C136.097488,28.2736609 137.257582,28.1402142 138.434991,28.1402142 C146.625701,28.1402142 153.302779,34.5893415 153.595418,42.6578893 C164.123823,44.7650947 171.863473,54.0012144 171.863473,64.85664 Z"
        id="Combined-Shape"
        fill="#00A1DE"
        fill-rule="nonzero"></path>
    </g>
    <path
      d="M32,96.402677 L34.8910625,96.402677 L36.3530202,101.744267 L37.8067647,96.402677 L40.7142537,96.402677 L40.7142537,108.57824 L38.6280893,108.57824 L38.6280893,98.8247414 L37.3303965,104.150021 L35.4002837,104.150021 L34.0861644,98.8247414 L34.0861644,108.57824 L32,108.57824 L32,96.402677 Z M42.8332711,98.5230027 L42.8332711,96.402677 L50.1348466,96.402677 L50.1348466,98.5230027 L47.6955126,98.5230027 L47.6955126,106.457914 L50.1348466,106.457914 L50.1348466,108.57824 L42.8332711,108.57824 L42.8332711,106.457914 L45.2726051,106.457914 L45.2726051,98.5230027 L42.8332711,98.5230027 Z M57.8224446,108.57824 L55.3995371,108.57824 L55.3995371,98.5066925 L52.2867169,98.5066925 L52.2867169,96.402677 L60.9352647,96.402677 L60.9352647,98.5066925 L57.8224446,98.5066925 L57.8224446,108.57824 Z M73.6493691,108.57824 L73.6493691,96.402677 L76.0722766,96.402677 L76.0722766,106.457914 L81.2548346,106.457914 L81.2548346,108.57824 L73.6493691,108.57824 Z M83.7434481,99.4445289 L88.5071306,99.4445289 L88.5071306,106.743342 L91.496752,106.743342 L91.496752,108.57824 L83.1028149,108.57824 L83.1028149,106.743342 L86.1006496,106.743342 L86.1006496,101.279426 L83.7434481,101.279426 L83.7434481,99.4445289 Z M86.1006496,95 L88.5071306,95 L88.5071306,97.7890438 L86.1006496,97.7890438 L86.1006496,95 Z M100.769506,108.113399 C100.364318,108.34718 99.92902,108.522512 99.4636004,108.639403 C98.9981808,108.756293 98.4971778,108.814737 97.9605764,108.814737 C96.5424156,108.814737 95.4336385,108.390677 94.6342119,107.542542 C93.8347853,106.694408 93.435078,105.520085 93.435078,104.019539 C93.435078,102.513557 93.837523,101.335157 94.6424251,100.484304 C95.4473273,99.6334511 96.5588421,99.208031 97.9770029,99.208031 C98.4698001,99.208031 98.9447947,99.2651161 99.402001,99.3792881 C99.8592073,99.49346 100.315038,99.6701521 100.769506,99.9093695 L100.769506,102.094936 C100.419073,101.795914 100.034423,101.566215 99.6155454,101.40583 C99.1966678,101.245446 98.762739,101.165255 98.313746,101.165255 C97.530746,101.165255 96.9284473,101.412624 96.5068319,101.907369 C96.0852165,102.402114 95.874412,103.106164 95.874412,104.019539 C95.874412,104.932915 96.0852165,105.634246 96.5068319,106.123555 C96.9284473,106.612863 97.530746,106.857514 98.313746,106.857514 C98.7791656,106.857514 99.2144632,106.780041 99.6196521,106.625093 C100.024841,106.470146 100.408122,106.235009 100.769506,105.919677 L100.769506,108.113399 Z M111.233182,108.129709 C110.674678,108.358053 110.105232,108.529308 109.524826,108.64348 C108.944421,108.757652 108.331171,108.814737 107.685059,108.814737 C106.146437,108.814737 104.970586,108.405627 104.15747,107.587395 C103.344355,106.769163 102.937803,105.590763 102.937803,104.05216 C102.937803,102.562488 103.329297,101.385447 104.112297,100.521002 C104.895297,99.6565571 105.963009,99.2243412 107.315463,99.2243412 C108.678869,99.2243412 109.736998,99.6252962 110.489883,100.427218 C111.242767,101.22914 111.619204,102.35861 111.619204,103.815662 L111.619204,104.786119 L105.385351,104.786119 C105.390826,105.503771 105.604368,106.039284 106.025984,106.392673 C106.447599,106.746062 107.077275,106.922755 107.91503,106.922755 C108.468058,106.922755 109.012865,106.843923 109.549466,106.686257 C110.086068,106.528591 110.6473,106.278503 111.233182,105.935988 L111.233182,108.129709 Z M109.196297,102.991997 C109.185346,102.361333 109.022451,101.884264 108.707608,101.560777 C108.392766,101.23729 107.928722,101.075549 107.315463,101.075549 C106.762435,101.075549 106.321662,101.242727 105.993131,101.577087 C105.664599,101.911448 105.470221,102.385798 105.40999,103.000152 L109.196297,102.991997 Z M121.105503,102.649483 L121.105503,108.57824 L118.715448,108.57824 L118.715448,103.016462 C118.715448,102.353177 118.620997,101.878827 118.432091,101.593397 C118.243186,101.307968 117.935192,101.165255 117.508101,101.165255 C117.075535,101.165255 116.734689,101.358257 116.485552,101.744267 C116.236416,102.130277 116.111849,102.665789 116.111849,103.350821 L116.111849,108.57824 L113.721795,108.57824 L113.721795,99.4445289 L116.111849,99.4445289 L116.111849,100.814585 C116.281591,100.308967 116.571789,99.917526 116.982454,99.6402512 C117.393118,99.3629765 117.888645,99.2243412 118.469051,99.2243412 C119.339659,99.2243412 119.996712,99.511126 120.44023,100.084704 C120.883747,100.658282 121.105503,101.5132 121.105503,102.649483 Z M130.575375,99.7299573 L130.575375,101.817663 C130.131858,101.534951 129.670552,101.321562 129.191443,101.177487 C128.712335,101.033413 128.231865,100.961377 127.750019,100.961377 C127.213417,100.961377 126.808235,101.03885 126.534458,101.193798 C126.260682,101.348745 126.123796,101.578445 126.123796,101.882903 C126.123796,102.317844 126.709668,102.671228 127.881431,102.943066 L127.971776,102.967532 L128.661689,103.130634 C129.537773,103.33723 130.179768,103.670227 130.587695,104.129633 C130.995622,104.589039 131.199582,105.21018 131.199582,105.993073 C131.199582,106.933633 130.888851,107.639042 130.267378,108.109321 C129.645906,108.579601 128.710975,108.814737 127.462555,108.814737 C126.909527,108.814737 126.342819,108.767167 125.762413,108.672023 C125.182008,108.57688 124.593398,108.434167 123.996565,108.243881 L123.996565,106.156175 C124.527691,106.455197 125.068391,106.683538 125.618681,106.841204 C126.168972,106.99887 126.701458,107.077701 127.216158,107.077701 C127.780137,107.077701 128.207221,106.996151 128.497424,106.833048 C128.787627,106.669946 128.932726,106.43345 128.932726,106.123555 C128.932726,105.819096 128.830062,105.585319 128.624729,105.422216 C128.419397,105.259114 127.930714,105.08514 127.158665,104.90029 L126.493392,104.753498 C125.573504,104.546901 124.902762,104.223419 124.481147,103.783041 C124.059531,103.342664 123.848727,102.752784 123.848727,102.013385 C123.848727,101.13263 124.16904,100.447608 124.809677,99.9583001 C125.450313,99.4689917 126.351023,99.2243412 127.511835,99.2243412 C128.032009,99.2243412 128.550808,99.2664755 129.068245,99.3507452 C129.585682,99.435015 130.088054,99.5614178 130.575375,99.7299573 Z M141.613977,108.129709 C141.055474,108.358053 140.486028,108.529308 139.905622,108.64348 C139.325217,108.757652 138.711967,108.814737 138.065855,108.814737 C136.527233,108.814737 135.351382,108.405627 134.538266,107.587395 C133.725151,106.769163 133.318599,105.590763 133.318599,104.05216 C133.318599,102.562488 133.710093,101.385447 134.493093,100.521002 C135.276093,99.6565571 136.343805,99.2243412 137.696259,99.2243412 C139.059665,99.2243412 140.117794,99.6252962 140.870679,100.427218 C141.623563,101.22914 142,102.35861 142,103.815662 L142,104.786119 L135.766146,104.786119 C135.771622,105.503771 135.985164,106.039284 136.40678,106.392673 C136.828395,106.746062 137.458071,106.922755 138.295826,106.922755 C138.848854,106.922755 139.393661,106.843923 139.930262,106.686257 C140.466863,106.528591 141.028096,106.278503 141.613977,105.935988 L141.613977,108.129709 Z M139.577093,102.991997 C139.566141,102.361333 139.403247,101.884264 139.088404,101.560777 C138.773562,101.23729 138.309518,101.075549 137.696259,101.075549 C137.143231,101.075549 136.702458,101.242727 136.373927,101.577087 C136.045395,101.911448 135.851017,102.385798 135.790786,103.000152 L139.577093,102.991997 Z"
      id="MIT-License"
      fill="#97D9F2"></path>
  </g>
</svg>
