<?xml version="1.0" encoding="UTF-8"?>
<svg width="83px" height="50px" viewBox="0 0 83 50" version="1.1" xmlns="http://www.w3.org/2000/svg" xmlns:xlink="http://www.w3.org/1999/xlink">
  <g id="tooltips">
    <path
      d="M46.0755565,41 L41.5580856,47.6768129 C41.2507758,48.131016 40.7482707,48.1334167 40.4393367,47.6768129 L35.9218658,41 L2.99749826,41 C1.89431043,41 1,40.1084602 1,39.0027084 L1,2.99729162 C1,1.89421792 1.8984375,1 2.99749826,1 L79.0025017,1 C80.1056896,1 81,1.89153983 81,2.99729162 L81,39.0027084 C81,40.1057821 80.1015625,41 79.0025017,41 L46.0755565,41 L46.0755565,41 Z"
      id="Combined-Shape"
      fill="#E6F5FB"></path>
    <path d="M11,13 L11,11 L71,11 L71,13 L11,13 Z M11,19 L11,17 L61,17 L61,19 L11,19 Z M11,25 L11,23 L51,23 L51,25 L11,25 Z M11,31 L11,29 L41,29 L41,31 L11,31 Z" id="Combined-Shape" fill="#97D9F2" fill-rule="nonzero"></path>
    <path
      d="M42.3863227,48.2371906 C41.6822913,49.2777476 40.3164993,49.2797699 39.6110996,48.2371906 L35.391073,42 L2.99749826,42 C1.34133025,42 0,40.6600507 0,39.0027084 L0,2.99729162 C0,1.34301366 1.3450695,0 2.99749826,0 L79.0025017,0 C80.6586698,0 82,1.33994929 82,2.99729162 L82,39.0027084 C82,40.6569863 80.6549305,42 79.0025017,42 L46.6063493,42 L42.3863227,48.2371906 Z M45.5447638,40 L79.0025017,40 C79.5510452,40 80,39.5517314 80,39.0027084 L80,2.99729162 C80,2.44498023 79.5545612,2 79.0025017,2 L2.99749826,2 C2.44895476,2 2,2.44826856 2,2.99729162 L2,39.0027084 C2,39.5550198 2.44543883,40 2.99749826,40 L36.4526585,40 L40.9987112,46.7190566 L45.5447638,40 Z"
      id="Combined-Shape"
      fill="#00A1DE"
      fill-rule="nonzero"></path>
  </g>
</svg>
