<svg width="398" height="171" viewBox="0 0 398 171" xmlns="http://www.w3.org/2000/svg"><title>img_setup</title><desc>Created with Sketch.</desc><g fill="none"><g><path d="M215.501 171h4c.552 0 1-.448 1-1s-.448-1-1-1h-4c-.552 0-1 .448-1 1s.448 1 1 1zm8 0c-.552 0-1-.448-1-1s.448-1 1-1h4c.552 0 1 .448 1 1s-.448 1-1 1h-4zm17.499 0c-.552 0-1-.448-1-1s.448-1 1-1h4c.552 0 1 .448 1 1s-.448 1-1 1h-4zm8 0c-.552 0-1-.448-1-1s.448-1 1-1h4c.552 0 1 .448 1 1s-.448 1-1 1h-4zm8 0c-.552 0-1-.448-1-1s.448-1 1-1h4c.552 0 1 .448 1 1s-.448 1-1 1h-4zm8 0c-.552 0-1-.448-1-1s.448-1 1-1h4c.552 0 1 .448 1 1s-.448 1-1 1h-4zm8 0c-.552 0-1-.448-1-1s.448-1 1-1h4c.552 0 1 .448 1 1s-.448 1-1 1h-4zm8 0c-.552 0-1-.448-1-1s.448-1 1-1h4c.552 0 1 .448 1 1s-.448 1-1 1h-4zm8 0c-.552 0-1-.448-1-1s.448-1 1-1h4c.552 0 1 .448 1 1s-.448 1-1 1h-4zm8 0c-.552 0-1-.448-1-1s.448-1 1-1h4c.552 0 1 .448 1 1s-.448 1-1 1h-4zm8 0c-.552 0-1-.448-1-1s.448-1 1-1h4c.552 0 1 .448 1 1s-.448 1-1 1h-4zm8 0c-.552 0-1-.448-1-1s.448-1 1-1h4c.552 0 1 .448 1 1s-.448 1-1 1h-4zm8 0c-.552 0-1-.448-1-1s.448-1 1-1h3c.552 0 1 .448 1 1s-.448 1-1 1h-3zm13 0c-.552 0-1-.448-1-1s.448-1 1-1h4c.552 0 1 .448 1 1s-.448 1-1 1h-4zm8 0c-.552 0-1-.448-1-1s.448-1 1-1h4c.552 0 1 .448 1 1s-.448 1-1 1h-4zm8 0c-.552 0-1-.448-1-1s.448-1 1-1h4c.552 0 1 .448 1 1s-.448 1-1 1h-4zm8 0c-.552 0-1-.448-1-1s.448-1 1-1h4c.552 0 1 .448 1 1s-.448 1-1 1h-4zm8 0c-.552 0-1-.448-1-1s.448-1 1-1h4c.552 0 1 .448 1 1s-.448 1-1 1h-4zm8 0c-.552 0-1-.448-1-1s.448-1 1-1h4c.552 0 1 .448 1 1s-.448 1-1 1h-4zm8 0c-.552 0-1-.448-1-1s.448-1 1-1h4c.552 0 1 .448 1 1s-.448 1-1 1h-4zm8 0c-.552 0-1-.448-1-1s.448-1 1-1h4c.552 0 1 .448 1 1s-.448 1-1 1h-4zm-389 0c-.552 0-1-.448-1-1s.448-1 1-1h4c.552 0 1 .448 1 1s-.448 1-1 1h-4zm8 0c-.552 0-1-.448-1-1s.448-1 1-1h4c.552 0 1 .448 1 1s-.448 1-1 1h-4zm8 0c-.552 0-1-.448-1-1s.448-1 1-1h4c.552 0 1 .448 1 1s-.448 1-1 1h-4zm8 0c-.552 0-1-.448-1-1s.448-1 1-1h4c.552 0 1 .448 1 1s-.448 1-1 1h-4zm8 0c-.552 0-1-.448-1-1s.448-1 1-1h4c.552 0 1 .448 1 1s-.448 1-1 1h-4zm8 0c-.552 0-1-.448-1-1s.448-1 1-1h4c.552 0 1 .448 1 1s-.448 1-1 1h-4zm8 0c-.552 0-1-.448-1-1s.448-1 1-1h4c.552 0 1 .448 1 1s-.448 1-1 1h-4zm8 0c-.552 0-1-.448-1-1s.448-1 1-1h4c.552 0 1 .448 1 1s-.448 1-1 1h-4zm8 0c-.552 0-1-.448-1-1s.448-1 1-1h4c.552 0 1 .448 1 1s-.448 1-1 1h-4zm8 0c-.552 0-1-.448-1-1s.448-1 1-1h4c.552 0 1 .448 1 1s-.448 1-1 1h-4zm8 0c-.552 0-1-.448-1-1s.448-1 1-1h4c.552 0 1 .448 1 1s-.448 1-1 1h-4zm8 0c-.552 0-1-.448-1-1s.448-1 1-1h4c.552 0 1 .448 1 1s-.448 1-1 1h-4zm8 0c-.552 0-1-.448-1-1s.448-1 1-1h4c.552 0 1 .448 1 1s-.448 1-1 1h-4zm8 0c-.552 0-1-.448-1-1s.448-1 1-1h4c.552 0 1 .448 1 1s-.448 1-1 1h-4zm8 0c-.552 0-1-.448-1-1s.448-1 1-1h3c.552 0 1 .448 1 1s-.448 1-1 1h-3zm13.994 0c-.552 0-1-.448-1-1s.448-1 1-1h4c.552 0 1 .448 1 1s-.448 1-1 1h-4zm8 0c-.552 0-1-.448-1-1s.448-1 1-1h4c.552 0 1 .448 1 1s-.448 1-1 1h-4zm8 0c-.552 0-1-.448-1-1s.448-1 1-1h4c.552 0 1 .448 1 1s-.448 1-1 1h-4zm8 0c-.552 0-1-.448-1-1s.448-1 1-1h4c.552 0 1 .448 1 1s-.448 1-1 1h-4zm8 0c-.552 0-1-.448-1-1s.448-1 1-1h4c.552 0 1 .448 1 1s-.448 1-1 1h-4zm8 0c-.552 0-1-.448-1-1s.448-1 1-1h4c.552 0 1 .448 1 1s-.448 1-1 1h-4zm8 0c-.552 0-1-.448-1-1s.448-1 1-1h4c.552 0 1 .448 1 1s-.448 1-1 1h-4zm8 0c-.552 0-1-.448-1-1s.448-1 1-1h4c.552 0 1 .448 1 1s-.448 1-1 1h-4zm8 0c-.552 0-1-.448-1-1s.448-1 1-1h4c.552 0 1 .448 1 1s-.448 1-1 1h-4zm8 0c-.552 0-1-.448-1-1s.448-1 1-1h4c.552 0 1 .448 1 1s-.448 1-1 1h-4zm-167.994-12c-.552 0-1-.448-1-1s.448-1 1-1h4c.552 0 1 .448 1 1s-.448 1-1 1h-4zm8 0c-.552 0-1-.448-1-1s.448-1 1-1h4c.552 0 1 .448 1 1s-.448 1-1 1h-4zm8 0c-.552 0-1-.448-1-1s.448-1 1-1h4c.552 0 1 .448 1 1s-.448 1-1 1h-4zm8 0c-.552 0-1-.448-1-1s.448-1 1-1h4c.552 0 1 .448 1 1s-.448 1-1 1h-4zm8 0c-.552 0-1-.448-1-1s.448-1 1-1h4c.552 0 1 .448 1 1s-.448 1-1 1h-4zm8 0c-.552 0-1-.448-1-1s.448-1 1-1h4c.552 0 1 .448 1 1s-.448 1-1 1h-4zm8 0c-.552 0-1-.448-1-1s.448-1 1-1h4c.552 0 1 .448 1 1s-.448 1-1 1h-4zm8 0c-.552 0-1-.448-1-1s.448-1 1-1h4c.552 0 1 .448 1 1s-.448 1-1 1h-4zm8 0c-.552 0-1-.448-1-1s.448-1 1-1h4c.552 0 1 .448 1 1s-.448 1-1 1h-4zm8 0c-.552 0-1-.448-1-1s.448-1 1-1h4c.552 0 1 .448 1 1s-.448 1-1 1h-4zm8 0c-.552 0-1-.448-1-1s.448-1 1-1h4c.552 0 1 .448 1 1s-.448 1-1 1h-4zm8 0c-.552 0-1-.448-1-1s.448-1 1-1h4c.552 0 1 .448 1 1s-.448 1-1 1h-4zm8 0c-.552 0-1-.448-1-1s.448-1 1-1h4c.552 0 1 .448 1 1s-.448 1-1 1h-4zm8 0c-.552 0-1-.448-1-1s.448-1 1-1h4c.552 0 1 .448 1 1s-.448 1-1 1h-4zm8 0c-.552 0-1-.448-1-1s.448-1 1-1h4c.552 0 1 .448 1 1s-.448 1-1 1h-4zm8 0c-.552 0-1-.448-1-1s.448-1 1-1h4c.552 0 1 .448 1 1s-.448 1-1 1h-4zm8 0c-.552 0-1-.448-1-1s.448-1 1-1h4c.552 0 1 .448 1 1s-.448 1-1 1h-4zm8 0c-.552 0-1-.448-1-1s.448-1 1-1h4c.552 0 1 .448 1 1s-.448 1-1 1h-4zm8 0c-.552 0-1-.448-1-1s.448-1 1-1h3.996c.552 0 1 .448 1 1s-.448 1-1 1h-3.996zm-174-22c-.552 0-1-.448-1-1s.448-1 1-1h4c.552 0 1 .448 1 1s-.448 1-1 1h-4zm8 0c-.552 0-1-.448-1-1s.448-1 1-1h4c.552 0 1 .448 1 1s-.448 1-1 1h-4zm8 0c-.552 0-1-.448-1-1s.448-1 1-1h4c.552 0 1 .448 1 1s-.448 1-1 1h-4zm8 0c-.552 0-1-.448-1-1s.448-1 1-1h4c.552 0 1 .448 1 1s-.448 1-1 1h-4zm8 0c-.552 0-1-.448-1-1s.448-1 1-1h4c.552 0 1 .448 1 1s-.448 1-1 1h-4zm8 0c-.552 0-1-.448-1-1s.448-1 1-1h4c.552 0 1 .448 1 1s-.448 1-1 1h-4zm8 0c-.552 0-1-.448-1-1s.448-1 1-1h4c.552 0 1 .448 1 1s-.448 1-1 1h-4zm8 0c-.552 0-1-.448-1-1s.448-1 1-1h4c.552 0 1 .448 1 1s-.448 1-1 1h-4zm8 0c-.552 0-1-.448-1-1s.448-1 1-1h3c.552 0 1 .448 1 1s-.448 1-1 1h-3zm124 22c-.552 0-1-.448-1-1s.448-1 1-1h4c.552 0 1 .448 1 1s-.448 1-1 1h-4zm8 0c-.552 0-1-.448-1-1s.448-1 1-1h4c.552 0 1 .448 1 1s-.448 1-1 1h-4zm8 0c-.552 0-1-.448-1-1s.448-1 1-1h4c.552 0 1 .448 1 1s-.448 1-1 1h-4zm68.981 0c-.552 0-1-.448-1-1s.448-1 1-1h4c.552 0 1 .448 1 1s-.448 1-1 1h-4zm8 0c-.552 0-1-.448-1-1s.448-1 1-1h4c.552 0 1 .448 1 1s-.448 1-1 1h-4zm8 0c-.552 0-1-.448-1-1s.448-1 1-1h4c.552 0 1 .448 1 1s-.448 1-1 1h-4zm8 0c-.552 0-1-.448-1-1s.448-1 1-1h4c.552 0 1 .448 1 1s-.448 1-1 1h-4zm8 0c-.552 0-1-.448-1-1s.448-1 1-1h4c.552 0 1 .448 1 1s-.448 1-1 1h-4zm8 0c-.552 0-1-.448-1-1s.448-1 1-1h4c.552 0 1 .448 1 1s-.448 1-1 1h-4zm8 0c-.552 0-1-.448-1-1s.448-1 1-1h4c.552 0 1 .448 1 1s-.448 1-1 1h-4zm8 0c-.552 0-1-.448-1-1s.448-1 1-1h4c.552 0 1 .448 1 1s-.448 1-1 1h-4zm8 0c-.552 0-1-.448-1-1s.448-1 1-1h4c.552 0 1 .448 1 1s-.448 1-1 1h-4zm8 0c-.552 0-1-.448-1-1s.448-1 1-1h4c.552 0 1 .448 1 1s-.448 1-1 1h-4zm8 0c-.552 0-1-.448-1-1s.448-1 1-1h4c.552 0 1 .448 1 1s-.448 1-1 1h-4zm8 0c-.552 0-1-.448-1-1s.448-1 1-1h4c.552 0 1 .448 1 1s-.448 1-1 1h-4zm8 0c-.552 0-1-.448-1-1s.448-1 1-1h4c.552 0 1 .448 1 1s-.448 1-1 1h-4z" id="Combined-Shape" fill-rule="nonzero" fill="#E6F5FB"/><g><g id="cloud"><path d="M32.783 49c-5.403 0-9.783-4.38-9.783-9.783s4.38-9.783 9.783-9.783c1.436 0 2.8.309 4.029.865.852-6.379 6.315-11.3 12.928-11.3 5.93 0 10.935 3.957 12.52 9.374 1.454-.978 3.205-1.548 5.088-1.548 5.043 0 9.13 4.088 9.13 9.13 3.602 0 6.522 2.92 6.522 6.522 0 3.602-2.92 6.522-6.522 6.522h-43.696z" id="Combined-Shape" fill="#fff"/><path d="M76.478 48c3.05 0 5.522-2.472 5.522-5.522 0-3.05-2.472-5.522-5.522-5.522h-1v-1c0-4.49-3.64-8.13-8.13-8.13-1.638 0-3.201.484-4.53 1.378l-1.134.763-.384-1.312c-1.489-5.09-6.176-8.655-11.561-8.655-6.052 0-11.143 4.49-11.937 10.433l-.178 1.333-1.225-.554c-1.126-.509-2.351-.776-3.616-.776-4.851 0-8.783 3.932-8.783 8.783 0 4.851 3.932 8.783 8.783 8.783h43.696zm7.522-5.522c0 4.154-3.368 7.522-7.522 7.522h-43.696c-5.955 0-10.783-4.828-10.783-10.783 0-5.955 4.828-10.783 10.783-10.783 1.119 0 2.215.171 3.258.501 1.423-6.312 7.066-10.936 13.699-10.936 5.848 0 10.989 3.606 13.071 8.897 1.392-.699 2.938-1.071 4.538-1.071 5.278 0 9.613 4.036 10.087 9.191 3.702.47 6.565 3.631 6.565 7.461z" id="Combined-Shape" fill="#CBECF9" fill-rule="nonzero"/></g><g id="cloud"><path d="M34.684 52.357c3.488 0 6.316-2.819 6.316-6.295 0-3.477-2.828-6.295-6.316-6.295-1.239 0-2.395.356-3.37.97-.813-2.165-2.908-3.706-5.363-3.706-1.213 0-2.338.376-3.264 1.018-.62-3.049-3.324-5.343-6.566-5.343-3.7 0-6.7 2.99-6.7 6.678 0 .256.014.508.042.756-.67-.242-1.394-.373-2.148-.373-3.488 0-6.316 2.819-6.316 6.295 0 3.477 2.828 6.295 6.316 6.295h27.368z" id="Combined-Shape" fill="#E6F5FB"/><path d="M34.684 38.766c4.04 0 7.316 3.266 7.316 7.295 0 4.03-3.276 7.295-7.316 7.295h-27.368c-4.04 0-7.316-3.266-7.316-7.295 0-4.03 3.276-7.295 7.316-7.295.379 0 .754.029 1.123.086.274-3.993 3.609-7.146 7.682-7.146 3.223 0 6.036 1.989 7.169 4.871.83-.357 1.732-.546 2.661-.546 2.441 0 4.635 1.309 5.817 3.338.91-.395 1.898-.603 2.917-.603zm5.316 7.295c0-2.924-2.379-5.295-5.316-5.295-1.02 0-1.995.286-2.837.816l-1.038.654-.431-1.148c-.685-1.823-2.439-3.057-4.427-3.057-.978 0-1.91.296-2.695.84l-1.247.864-.303-1.487c-.534-2.625-2.862-4.543-5.586-4.543-3.149 0-5.7 2.543-5.7 5.678 0 .216.012.431.036.644l.181 1.599-1.513-.545c-.574-.207-1.183-.314-1.809-.314-2.937 0-5.316 2.372-5.316 5.295 0 2.924 2.379 5.295 5.316 5.295h27.368c2.937 0 5.316-2.372 5.316-5.295z" id="Combined-Shape" fill="#CBECF9" fill-rule="nonzero"/></g><g><path d="M389 78.923c4.418 0 8-3.57 8-7.974s-3.582-7.974-8-7.974c-.558 0-1.102.057-1.628.165-1.125-4.669-5.342-8.139-10.372-8.139-4.411 0-8.197 2.669-9.821 6.476-1.344-1.526-3.315-2.489-5.512-2.489-4.05 0-7.333 3.273-7.333 7.31 0 .694.097 1.365.278 2.001l-.278-.007c-2.946 0-5.333 2.38-5.333 5.316s2.388 5.316 5.333 5.316h34.667z" id="Combined-Shape" fill="#fff"/><path d="M389 61.974c4.97 0 9 4.017 9 8.974s-4.03 8.974-9 8.974h-34.667c-3.497 0-6.333-2.827-6.333-6.316 0-3.173 2.346-5.798 5.401-6.248-.045-.35-.067-.704-.067-1.062 0-4.59 3.732-8.31 8.333-8.31 1.935 0 3.765.663 5.224 1.835 2.052-3.547 5.871-5.822 10.11-5.822 5.108 0 9.55 3.3 11.093 8.019.3-.03.603-.045.907-.045zm7 8.974c0-3.851-3.133-6.974-7-6.974-.484 0-.961.049-1.426.145l-.947.195-.227-.94c-1.035-4.293-4.906-7.374-9.4-7.374-3.915 0-7.396 2.34-8.901 5.868l-.622 1.459-1.048-1.19c-1.196-1.358-2.913-2.15-4.762-2.15-3.499 0-6.333 2.826-6.333 6.31 0 .591.081 1.17.24 1.727l.383 1.344-1.396-.071-.227-.006c-2.394 0-4.333 1.933-4.333 4.316s1.939 4.316 4.333 4.316h34.667c3.867 0 7-3.123 7-6.974z" id="Combined-Shape" fill="#CBECF9" fill-rule="nonzero"/></g></g><g><path d="M14 73h-2.003c-.544 0-.997.448-.997 1 0 .556.446 1 .997 1h2.003v2.003c0 .544.448.997 1 .997.556 0 1-.446 1-.997v-2.003h2.003c.544 0 .997-.448.997-1 0-.556-.446-1-.997-1h-2.003v-2.003c0-.544-.448-.997-1-.997-.556 0-1 .446-1 .997v2.003z" id="Combined-Shape" fill="#E6F5FB"/><path d="M88.25 16.25h-1.49c-.42 0-.76.336-.76.75 0 .417.34.75.76.75h1.49v1.49c0 .42.336.76.75.76.417 0 .75-.34.75-.76v-1.49h1.49c.42 0 .76-.336.76-.75 0-.417-.34-.75-.76-.75h-1.49v-1.49c0-.42-.336-.76-.75-.76-.417 0-.75.34-.75.76v1.49z" id="Combined-Shape" fill="#CBECF9"/><path d="M81 10h-2.003c-.544 0-.997.448-.997 1 0 .556.446 1 .997 1h2.003v2.003c0 .544.448.997 1 .997.556 0 1-.446 1-.997v-2.003h2.003c.544 0 .997-.448.997-1 0-.556-.446-1-.997-1h-2.003v-2.003c0-.544-.448-.997-1-.997-.556 0-1 .446-1 .997v2.003z" id="Combined-Shape" fill="#E6F5FB"/><path d="M387.25 33.25h-1.49c-.42 0-.76.336-.76.75 0 .417.34.75.76.75h1.49v1.49c0 .42.336.76.75.76.417 0 .75-.34.75-.76v-1.49h1.49c.42 0 .76-.336.76-.75 0-.417-.34-.75-.76-.75h-1.49v-1.49c0-.42-.336-.76-.75-.76-.417 0-.75.34-.75.76v1.49z" id="Combined-Shape" fill="#CBECF9"/><path d="M380 27h-2.003c-.544 0-.997.448-.997 1 0 .556.446 1 .997 1h2.003v2.003c0 .544.448.997 1 .997.556 0 1-.446 1-.997v-2.003h2.003c.544 0 .997-.448.997-1 0-.556-.446-1-.997-1h-2.003v-2.003c0-.544-.448-.997-1-.997-.556 0-1 .446-1 .997v2.003z" id="Combined-Shape" fill="#E6F5FB"/><path d="M337.75 104.75h-2.504c-.68 0-1.246.56-1.246 1.25 0 .695.558 1.25 1.246 1.25h2.504v2.755c0 .54.449.995 1.002.995h.495c.555 0 1.002-.446 1.002-.995v-2.755h2.504c.68 0 1.246-.56 1.246-1.25 0-.695-.558-1.25-1.246-1.25h-2.504v-2.755c0-.54-.449-.995-1.002-.995h-.495c-.555 0-1.002.446-1.002.995v2.755z" id="Combined-Shape" fill="#CBECF9"/><path d="M352 96h-2.003c-.544 0-.997.448-.997 1 0 .556.446 1 .997 1h2.003v2.003c0 .544.448.997 1 .997.556 0 1-.446 1-.997v-2.003h2.003c.544 0 .997-.448.997-1 0-.556-.446-1-.997-1h-2.003v-2.003c0-.544-.448-.997-1-.997-.556 0-1 .446-1 .997v2.003zM345.875 111.875h-1.242c-.35 0-.633.28-.633.625 0 .348.284.625.633.625h1.242v1.242c0 .35.28.633.625.633.348 0 .625-.284.625-.633v-1.242h1.242c.35 0 .633-.28.633-.625 0-.348-.284-.625-.633-.625h-1.242v-1.242c0-.35-.28-.633-.625-.633-.348 0-.625.284-.625.633v1.242z" id="Combined-Shape" fill="#E6F5FB"/><path d="M117.75 58.75h-2.504c-.68 0-1.246.56-1.246 1.25 0 .695.558 1.25 1.246 1.25h2.504v2.755c0 .54.449.995 1.002.995h.495c.555 0 1.002-.446 1.002-.995v-2.755h2.504c.68 0 1.246-.56 1.246-1.25 0-.695-.558-1.25-1.246-1.25h-2.504v-2.755c0-.54-.449-.995-1.002-.995h-.495c-.555 0-1.002.446-1.002.995v2.755z" id="Combined-Shape" fill="#CBECF9"/><path d="M132 50h-2.003c-.544 0-.997.448-.997 1 0 .556.446 1 .997 1h2.003v2.003c0 .544.448.997 1 .997.556 0 1-.446 1-.997v-2.003h2.003c.544 0 .997-.448.997-1 0-.556-.446-1-.997-1h-2.003v-2.003c0-.544-.448-.997-1-.997-.556 0-1 .446-1 .997v2.003zM125.875 65.875h-1.242c-.35 0-.633.28-.633.625 0 .348.284.625.633.625h1.242v1.242c0 .35.28.633.625.633.348 0 .625-.284.625-.633v-1.242h1.242c.35 0 .633-.28.633-.625 0-.348-.284-.625-.633-.625h-1.242v-1.242c0-.35-.28-.633-.625-.633-.348 0-.625.284-.625.633v1.242z" id="Combined-Shape" fill="#E6F5FB"/></g></g><g transform="translate(178 0)"><g transform="translate(125)"><path d="M4.609 2.954c.216-1.079 1.285-1.954 2.385-1.954h12.012c1.101 0 1.994.898 1.994 1.991v16.018c0 1.099-.898 1.991-1.991 1.991h-16.018c-1.099 0-1.814-.885-1.6-1.954l3.218-16.092z" id="Rectangle-29" fill="#97D9F2"/><circle fill="#fff" cx="12" cy="11" r="4"/><path d="M5.59 3.15l-3.218 16.092c-.091.455.156.758.619.758h16.018c.543 0 .991-.447.991-.991v-16.018c0-.543-.448-.991-.994-.991h-12.012c-.624 0-1.282.539-1.404 1.15zm1.404-3.15h12.012c1.651 0 2.994 1.344 2.994 2.991v16.018c0 1.65-1.344 2.991-2.991 2.991h-16.018c-1.728 0-2.919-1.46-2.581-3.15l3.218-16.092c.309-1.546 1.789-2.758 3.365-2.758zm5.006 16c-2.761 0-5-2.239-5-5s2.239-5 5-5 5 2.239 5 5-2.239 5-5 5zm0-2c1.657 0 3-1.343 3-3s-1.343-3-3-3-3 1.343-3 3 1.343 3 3 3z" fill="#00A1DE" fill-rule="nonzero"/></g><g fill-rule="nonzero" fill="#00A1DE"><path d="M129.032 148h15.937l-3.938-126h-8.062l-3.938 126zm13.938-128l4.063 130h-20.063l4.063-130h11.938z"/><path d="M129 130.839l-.354-.354 7.566-7.566-7.566-7.566.354-.354v-.161l-.354-.354 7.566-7.566-6.42-6.42h-.793v-.793l-.354-.354.707-.707.576.576 6.293-6.293-5.293-5.293-.576.576-.707-.707.576-.576-.576-.576.707-.707.576.576 5.293-5.293-6.576-6.576.707-.707.586.586 5.293-5.293-5.586-5.586.354-.354v-.121l-.354-.354 5.586-5.586-4.793-4.793-.086.086-.707-.707.086-.086-.086-.086.354-.354v-.5h.672l4.56-4.56-4.44-4.44h-.793v-.793l-.354-.354.707-.707.596.596 4.293-4.293-4.45-4.45h-.793v-1h.692l4.55-4.55-4.596-4.596.707-.707 4.596 4.596 4.596-4.596.707.707-4.596 4.596 4.55 4.55h.793v1h-.893l-4.45 4.45 4.283 4.283.586-.586.707.707-.233.233v.913h-.913l-4.44 4.44 4.56 4.56h.793v.621l.233.233-.086.086.086.086-.707.707-.086-.086-4.793 4.793 5.586 5.586-.233.233v.362l.233.233-5.586 5.586 5.283 5.283.576-.576.707.707-6.576 6.576 5.293 5.293.576-.576.707.707-.576.576.576.576-.707.707-.576-.576-5.293 5.293 6.283 6.283.566-.566.707.707-.193.193v.954h-.954l-6.42 6.42 7.566 7.566-.193.193v.482l.193.193-7.566 7.566 7.566 7.566-.193.193v.822h-16v-.661zm1.046-.339h13.747l-6.873-6.873-6.873 6.873zm13.747-16l-6.873-6.873-6.873 6.873h13.747zm-13.586 1l6.712 6.712 6.712-6.712h-13.425zm12.586-16l-5.863-5.863-5.863 5.863h11.726zm-11.586 1l5.712 5.712 5.712-5.712h-11.425zm10.586-14l-4.863-4.863-4.863 4.863h9.726zm-9.586 1l4.723 4.723 4.723-4.723h-9.445zm9.586-13l-4.853-4.853-4.853 4.853h9.706zm-9.586 1l4.723 4.723 4.723-4.723h-9.445zm9.586-13l-4.853-4.853-4.853 4.853h9.706zm-9.586 1l4.733 4.733 4.733-4.733h-9.465zm8.586-13l-3.853-3.853-3.853 3.853h7.706zm-8.586 1l4.733 4.733 4.733-4.733h-9.465zm8.586-11l-3.843-3.843-3.843 3.843h7.686zm-7.586 1l3.733 3.733 3.733-3.733h-7.465zm7.586-11l-3.843-3.843-3.843 3.843h7.686zm-7.586 1l3.743 3.743 3.743-3.743h-7.485z" id="Combined-Shape"/></g><g transform="translate(125 133)"><rect id="Rectangle-31" fill="#CBECF9" x="1" y="1" width="22" height="14" rx="1"/><path id="Rectangle-31" fill="#E6F5FB" d="M1 6h22v4h-22z"/><path d="M2 13.993c0 .005 19.998.007 19.998.007.005 0 .002-11.993.002-11.993 0-.005-19.998-.007-19.998-.007-.005 0-.002 11.993-.002 11.993zm-2-11.986c0-1.109.888-2.007 2.002-2.007h19.995c1.107 0 2.002.899 2.002 2.007v11.986c0 1.109-.888 2.007-2.002 2.007h-19.995c-1.107 0-2.002-.899-2.002-2.007v-11.986z" id="Rectangle-31" fill="#00A1DE" fill-rule="nonzero"/></g><rect id="Rectangle-31" fill="#97D9F2" x="114" y="148" width="46" height="8" rx="1"/><path d="M115 155.003c0-.006 43.996-.003 43.996-.003l.004-6.003c0 .006-43.996.003-43.996.003l-.004 6.003zm-2-6.006c0-1.103.903-1.997 2.004-1.997h43.993c1.104 0 2.004.898 2.004 1.997v6.006c0 1.103-.903 1.997-2.004 1.997h-43.993c-1.104 0-2.004-.898-2.004-1.997v-6.006z" id="Rectangle-31" fill="#00A1DE" fill-rule="nonzero"/></g><g id="road-cones" transform="translate(348 131)"><rect id="Rectangle-31" fill="#97D9F2" x="1" y="21" width="22" height="4" rx="1"/><path d="M6.851 1.992c.082-.548.604-.992 1.144-.992h8.009c.55 0 1.061.436 1.144.992l2.702 18.016c.082.548-.296.992-.852.992h-13.998c-.553 0-.935-.436-.852-.992l2.702-18.016z" id="Rectangle-32" fill="#CBECF9"/><path d="M18.05 8l.9 6h-13.9l.9-6h12.1z" id="Combined-Shape" fill="#E6F5FB"/><path d="M2 22.009v1.981l.002.009h19.995l.002-.009v-1.981l-.002-.009h-19.995l-.002.009zm-2 0c0-1.11.887-2.009 2.002-2.009h19.995c1.109 0 2.002.894 2.002 2.009v1.981c0 1.11-.887 2.009-2.002 2.009h-19.995c-1.109 0-2.002-.894-2.002-2.009v-1.981zm16.16-19.869c-.01-.064-.098-.14-.155-.14h-8.009c-.048 0-.147.085-.155.14l-2.679 17.86h13.678l-2.679-17.86zm-8.164-2.14h8.009c1.048 0 1.977.802 2.133 1.843l2.702 18.016c.173 1.152-.673 2.14-1.841 2.14h-13.998c-1.166 0-2.015-.982-1.841-2.14l2.702-18.016c.155-1.034 1.095-1.843 2.133-1.843z" id="Combined-Shape" fill="#00A1DE" fill-rule="nonzero"/></g><g><path d="M57 134c-6.075 0-11-4.925-11-11s4.925-11 11-11 11 4.925 11 11-4.925 11-11 11zm0-5.5c3.038 0 5.5-2.462 5.5-5.5s-2.462-5.5-5.5-5.5-5.5 2.462-5.5 5.5 2.462 5.5 5.5 5.5zM101 134c-6.075 0-11-4.925-11-11s4.925-11 11-11 11 4.925 11 11-4.925 11-11 11zm0-5.5c3.038 0 5.5-2.462 5.5-5.5s-2.462-5.5-5.5-5.5-5.5 2.462-5.5 5.5 2.462 5.5 5.5 5.5z" id="Combined-Shape" fill="#97D9F2"/><path d="M90.414 120h-22.828c-1.306-4.617-5.551-8-10.586-8-2.923 0-5.58 1.14-7.55 3h-9.444c-1.108 0-2.007-.887-2.007-1.998v-6.002h44.833l3.839-23.032c.181-1.087 1.23-1.968 2.329-1.968h18.998c1.105 0 2.405.809 2.897 1.792l8.208 16.415c.495.99.896 2.68.896 3.792v14.002c0 1.104-.888 1.998-1.996 1.998h-6.418c-1.306-4.617-5.551-8-10.586-8s-9.28 3.383-10.586 8zm.586-32.006v12.012c0 1.1.898 1.994 2.005 1.994h19.99c1.108 0 1.617-.808 1.138-1.804l-5.951-12.391c-.475-.989-1.762-1.804-2.867-1.804h-12.315c-1.1 0-2.001.893-2.001 1.994z" id="Combined-Shape" fill="#CBECF9"/><path d="M106 82v-3c0-1.11-.895-2-1.998-2h-64.003c-1.101 0-1.998.895-1.998 2v31-3h44.833l3.839-23.032c.181-1.087 1.23-1.968 2.329-1.968h16.999z" id="Combined-Shape" fill="#97D9F2"/><path d="M101 111c5.144 0 9.646 3.265 11.317 8h5.686c.554 0 .996-.444.996-.998v-14.002c0-.954-.364-2.491-.791-3.345l-8.208-16.415c-.324-.647-1.279-1.24-2.003-1.24h-18.998c-.613 0-1.242.531-1.343 1.133l-3.978 23.867h-44.68v5.002c0 .555.446.998 1.007.998h9.056c2.173-1.918 4.971-3 7.938-3 5.144 0 9.646 3.265 11.317 8h21.366c1.671-4.735 6.173-8 11.317-8zm-15.314-27.196c.261-1.568 1.726-2.804 3.315-2.804h18.998c1.482 0 3.129 1.021 3.792 2.345l8.208 16.415c.566 1.131 1.002 2.974 1.002 4.239v14.002c0 1.657-1.337 2.998-2.996 2.998h-7.174l-.206-.728c-1.207-4.269-5.12-7.272-9.624-7.272-4.503 0-8.416 3.003-9.624 7.272l-.206.728h-24.341l-.206-.728c-1.207-4.269-5.12-7.272-9.624-7.272-2.588 0-5.019.986-6.863 2.727l-.289.273h-9.841c-1.662 0-3.007-1.336-3.007-2.998v-7.002h44.986l3.699-22.196zm4.314 4.19c0-1.653 1.348-2.994 3.001-2.994h12.315c1.487 0 3.126 1.034 3.769 2.371l5.951 12.391c.798 1.661-.196 3.237-2.04 3.237h-19.99c-1.658 0-3.005-1.341-3.005-2.994v-12.012zm2 0v12.012c0 .547.449.994 1.005.994h19.99c.372 0 .397-.039.237-.371l-5.951-12.391c-.31-.645-1.249-1.237-1.966-1.237h-12.315c-.551 0-1.001.448-1.001.994zm-53 22.006h-2v-31c0-1.656 1.344-3 2.998-3h64.003c1.658 0 2.998 1.339 2.998 3v4h-17.999c-.613 0-1.242.531-1.343 1.133l-3.978 23.867h-44.68v2zm66-31c0-.555-.445-1-.998-1h-64.003c-.55 0-.998.448-.998 1v27h42.986l3.699-22.196c.261-1.568 1.726-2.804 3.315-2.804h15.999v-2zm-48 56c-6.627 0-12-5.373-12-12s5.373-12 12-12 12 5.373 12 12-5.373 12-12 12zm0-2c5.523 0 10-4.477 10-10s-4.477-10-10-10-10 4.477-10 10 4.477 10 10 10zm0-3.5c-3.59 0-6.5-2.91-6.5-6.5s2.91-6.5 6.5-6.5 6.5 2.91 6.5 6.5-2.91 6.5-6.5 6.5zm0-2c2.485 0 4.5-2.015 4.5-4.5s-2.015-4.5-4.5-4.5-4.5 2.015-4.5 4.5 2.015 4.5 4.5 4.5zm44 7.5c-6.627 0-12-5.373-12-12s5.373-12 12-12 12 5.373 12 12-5.373 12-12 12zm0-2c5.523 0 10-4.477 10-10s-4.477-10-10-10-10 4.477-10 10 4.477 10 10 10zm0-3.5c-3.59 0-6.5-2.91-6.5-6.5s2.91-6.5 6.5-6.5 6.5 2.91 6.5 6.5-2.91 6.5-6.5 6.5zm0-2c2.485 0 4.5-2.015 4.5-4.5s-2.015-4.5-4.5-4.5-4.5 2.015-4.5 4.5 2.015 4.5 4.5 4.5z" id="Combined-Shape" fill="#00A1DE" fill-rule="nonzero"/></g><g><g><g id="Group-55" transform="translate(0 102)"><rect id="Rectangle-43" fill="#CBECF9" x="5" y="1" width="4" height="31" rx="2"/><rect id="Rectangle-43" fill="#97D9F2" x="1" y="28" width="12" height="4" rx="1"/><path d="M2 29.009v1.981l.002.009h9.995l.002-.009v-1.981l-.002-.009h-9.995l-.002.009zm2-2.009v-24.002c0-1.658 1.338-2.998 3-2.998 1.657 0 3 1.342 3 2.998v24.002h1.998c1.109 0 2.002.894 2.002 2.009v1.981c0 1.107-.901 2.009-2.002 2.009h-9.995c-1.109 0-2.002-.894-2.002-2.009v-1.981c0-1.107.901-2.009 2.002-2.009h1.998zm2 0h2v-24.002c0-.551-.447-.998-1-.998-.557 0-1 .444-1 .998v24.002z" id="Combined-Shape" fill="#00A1DE" fill-rule="nonzero"/></g><g transform="translate(30 102)"><rect id="Rectangle-43" fill="#CBECF9" x="5" y="1" width="4" height="31" rx="2"/><rect id="Rectangle-43" fill="#97D9F2" x="1" y="28" width="12" height="4" rx="1"/><path d="M2 29.009v1.981l.002.009h9.995l.002-.009v-1.981l-.002-.009h-9.995l-.002.009zm2-2.009v-24.002c0-1.658 1.338-2.998 3-2.998 1.657 0 3 1.342 3 2.998v24.002h1.998c1.109 0 2.002.894 2.002 2.009v1.981c0 1.107-.901 2.009-2.002 2.009h-9.995c-1.109 0-2.002-.894-2.002-2.009v-1.981c0-1.107.901-2.009 2.002-2.009h1.998zm2 0h2v-24.002c0-.551-.447-.998-1-.998-.557 0-1 .444-1 .998v24.002z" id="Combined-Shape" fill="#00A1DE" fill-rule="nonzero"/></g></g><g transform="translate(0 106)"><rect id="Rectangle-43" fill="#CBECF9" x="1" y="1" width="42" height="16" rx="2"/><path d="M34.029 1h-5.615l-5.824 16h5.615l5.824-16zm6.385 0h.589c1.103 0 1.997.895 1.997 1.994v12.012c0 1.101-.897 1.994-1.997 1.994h-6.412l5.824-16zm-18.385 0h-5.615l-5.824 16h5.615l5.824-16zm-12 0h-7.031c-1.101 0-1.997.893-1.997 1.994v12.012c0 1.1.894 1.994 1.997 1.994h1.208l5.824-16z" id="Combined-Shape" fill="#E6F5FB"/><path d="M2 2.994v12.012c0 .548.447.994.997.994h38.005c.55 0 .997-.446.997-.994v-12.012c0-.548-.447-.994-.997-.994h-38.005c-.55 0-.997.446-.997.994zm-2 0c0-1.653 1.344-2.994 2.997-2.994h38.005c1.655 0 2.997 1.341 2.997 2.994v12.012c0 1.653-1.344 2.994-2.997 2.994h-38.005c-1.655 0-2.997-1.341-2.997-2.994v-12.012z" fill="#00A1DE" fill-rule="nonzero"/></g></g><g><path d="M249.898 79.698c-.826-1.431-.329-3.264 1.102-4.09 1.435-.828 3.269-.338 4.094 1.09l10.504 18.194-5.196 3-10.504-18.194z" id="Rectangle-38" fill="#E6F5FB"/><path d="M254.228 77.198c-.549-.95-1.771-1.276-2.728-.724-.955.552-1.285 1.774-.737 2.724l10.004 17.328 3.464-2-10.004-17.328zm-3.728-2.456c1.912-1.104 4.358-.452 5.46 1.456l11.004 19.06-6.928 4-11.004-19.06c-1.102-1.909-.442-4.353 1.469-5.456z" id="Rectangle-38" fill="#00A1DE" fill-rule="nonzero"/><path d="M258 129h6.002c1.1 0 1.998-.893 1.998-1.995v-15.997c0-1.663-1.343-3.009-3-3.009-1.653 0-3 1.347-3 3.009v13.991h-2c-1.112 0-2 .895-2 2 0 1.112.895 2 2 2z" id="Combined-Shape" fill="#E6F5FB"/><path d="M259 111.009c0-2.212 1.793-4.009 4-4.009 2.21 0 4 1.794 4 4.009v15.997c0 1.653-1.345 2.995-2.998 2.995h-6.002c-1.659 0-3-1.338-3-3 0-1.659 1.337-3 3-3h1v-12.991zm5.002 16.991c.549 0 .998-.447.998-.995v-15.997c0-1.111-.895-2.009-2-2.009-1.102 0-2 .9-2 2.009v14.991h-3c-.557 0-1 .444-1 1 0 .557.444 1 1 1h6.002z" id="Combined-Shape" fill="#00A1DE" fill-rule="nonzero"/><path d="M262 129h6.002c1.1 0 1.998-.893 1.998-1.995v-15.055c.618-.63 1-1.491 1-2.442v-17.509h-7.844c-1.108 0-2.214.876-2.465 1.938l-3.585 15.161c-.509 2.154.873 3.901 3.078 3.901h3.817v12h-2c-1.112 0-2 .895-2 2 0 1.112.895 2 2 2z" id="Combined-Shape" fill="#fff"/><path d="M271 127.005c0 1.653-1.345 2.995-2.998 2.995h-6.002c-1.659 0-3-1.338-3-3 0-1.659 1.337-3 3-3h1v-10h-2.817c-2.852 0-4.708-2.35-4.051-5.131l3.585-15.161c.359-1.517 1.87-2.708 3.438-2.708h8.844v18.509c0 1.043-.36 2.032-1 2.822v14.675zm-7.844-34.005c-.643 0-1.347.555-1.492 1.168l-3.585 15.161c-.361 1.525.544 2.671 2.104 2.671h4.817v14h-3c-.557 0-1 .444-1 1 0 .557.444 1 1 1h6.002c.549 0 .998-.447.998-.995v-15.464l.286-.292c.455-.463.714-1.081.714-1.741v-16.509h-6.844z" id="Combined-Shape" fill="#00A1DE" fill-rule="nonzero"/><g id="Group-48" transform="matrix(-1 0 0 1 276 70)"><circle id="Oval-13" fill="#fff" cx="11" cy="12" r="9"/><path d="M11 22c-5.523 0-10-4.477-10-10s4.477-10 10-10 10 4.477 10 10-4.477 10-10 10zm0-2c4.418 0 8-3.582 8-8s-3.582-8-8-8-8 3.582-8 8 3.582 8 8 8z" id="Oval-13" fill="#00A1DE" fill-rule="nonzero"/><path d="M19 15.5v-1h-5.5v.5c0 1.933 1.567 3.5 3.5 3.5v-1c-1.209 0-2.218-.859-2.45-2h4.45z" id="Path" fill="#00A1DE"/><g id="Group-47"><path d="M21 11c0-5.523-4.477-10-10-10s-10 4.477-10 10h20z" id="Oval-13" fill="#97D9F2"/><path d="M1.458 8c-.297.947-.458 1.955-.458 3h20c0-1.045-.16-2.053-.458-3h-19.084z" id="Combined-Shape" fill="#CBECF9"/><path d="M22 11v1h-22v-1c0-6.075 4.925-11 11-11s11 4.925 11 11zm-11-9c-4.633 0-8.448 3.5-8.945 8h17.89c-.497-4.5-4.313-8-8.945-8z" id="Oval-13" fill="#00A1DE" fill-rule="nonzero"/></g></g><path d="M265.299 94.314l6.498-17.859c.567-1.558 2.292-2.361 3.846-1.795 1.557.567 2.361 2.288 1.794 3.847l-6.498 17.859" id="Rectangle-38" fill="#fff"/><path d="M266.24 94.653l6.498-17.853c.378-1.038 1.528-1.574 2.564-1.197 1.038.378 1.573 1.526 1.195 2.565l-6.498 17.853 1.879.684 6.498-17.853c.756-2.077-.314-4.372-2.39-5.128-2.074-.755-4.372.316-5.127 2.392l-6.498 17.853 1.879.684z" id="Rectangle-38" fill="#00A1DE" fill-rule="nonzero"/><path d="M267.898 84.698c-.826-1.431-.329-3.264 1.102-4.09 1.435-.828 3.269-.338 4.094 1.09l10.504 18.194-5.196 3-10.504-18.194z" id="Rectangle-38" fill="#E6F5FB"/><path d="M272.228 82.198c-.549-.95-1.771-1.276-2.728-.724-.955.552-1.285 1.774-.737 2.724l10.004 17.328 3.464-2-10.004-17.328zm-3.728-2.456c1.912-1.104 4.358-.452 5.46 1.456l11.004 19.06-6.928 4-11.004-19.06c-1.102-1.909-.442-4.353 1.469-5.456z" id="Rectangle-38" fill="#00A1DE" fill-rule="nonzero"/><path d="M276 134h6.002c1.1 0 1.998-.893 1.998-1.995v-15.997c0-1.663-1.343-3.009-3-3.009-1.653 0-3 1.347-3 3.009v13.991h-2c-1.112 0-2 .895-2 2 0 1.112.895 2 2 2z" id="Combined-Shape" fill="#E6F5FB"/><path d="M277 116.009c0-2.212 1.793-4.009 4-4.009 2.21 0 4 1.794 4 4.009v15.997c0 1.653-1.345 2.995-2.998 2.995h-6.002c-1.659 0-3-1.338-3-3 0-1.659 1.337-3 3-3h1v-12.991zm5.002 16.991c.549 0 .998-.447.998-.995v-15.997c0-1.111-.895-2.009-2-2.009-1.102 0-2 .9-2 2.009v14.991h-3c-.557 0-1 .444-1 1 0 .557.444 1 1 1h6.002z" id="Combined-Shape" fill="#00A1DE" fill-rule="nonzero"/><path d="M280 134h6.002c1.1 0 1.998-.893 1.998-1.995v-15.055c.618-.63 1-1.491 1-2.442v-17.509h-7.844c-1.108 0-2.214.876-2.465 1.938l-3.585 15.161c-.509 2.154.873 3.901 3.078 3.901h3.817v12h-2c-1.112 0-2 .895-2 2 0 1.112.895 2 2 2z" id="Combined-Shape" fill="#fff"/><path d="M289 132.005c0 1.653-1.345 2.995-2.998 2.995h-6.002c-1.659 0-3-1.338-3-3 0-1.659 1.337-3 3-3h1v-10h-2.817c-2.852 0-4.708-2.35-4.051-5.131l3.585-15.161c.359-1.517 1.87-2.708 3.438-2.708h8.844v18.509c0 1.043-.36 2.032-1 2.822v14.675zm-7.844-34.005c-.643 0-1.347.555-1.492 1.168l-3.585 15.161c-.361 1.525.544 2.671 2.104 2.671h4.817v14h-3c-.557 0-1 .444-1 1 0 .557.444 1 1 1h6.002c.549 0 .998-.447.998-.995v-15.464l.286-.292c.455-.463.714-1.081.714-1.741v-16.509h-6.844z" id="Combined-Shape" fill="#00A1DE" fill-rule="nonzero"/><g id="Group-48" transform="matrix(-1 0 0 1 294 75)"><circle id="Oval-13" fill="#fff" cx="11" cy="12" r="9"/><path d="M11 22c-5.523 0-10-4.477-10-10s4.477-10 10-10 10 4.477 10 10-4.477 10-10 10zm0-2c4.418 0 8-3.582 8-8s-3.582-8-8-8-8 3.582-8 8 3.582 8 8 8z" id="Oval-13" fill="#00A1DE" fill-rule="nonzero"/><path d="M19 15.5v-1h-5.5v.5c0 1.933 1.567 3.5 3.5 3.5v-1c-1.209 0-2.218-.859-2.45-2h4.45z" id="Path" fill="#00A1DE"/><g id="Group-47"><path d="M21 11c0-5.523-4.477-10-10-10s-10 4.477-10 10h20z" id="Oval-13" fill="#97D9F2"/><path d="M1.458 8c-.297.947-.458 1.955-.458 3h20c0-1.045-.16-2.053-.458-3h-19.084z" id="Combined-Shape" fill="#CBECF9"/><path d="M22 11v1h-22v-1c0-6.075 4.925-11 11-11s11 4.925 11 11zm-11-9c-4.633 0-8.448 3.5-8.945 8h17.89c-.497-4.5-4.313-8-8.945-8z" id="Oval-13" fill="#00A1DE" fill-rule="nonzero"/></g></g><path d="M283.299 99.314l6.498-17.859c.567-1.558 2.292-2.361 3.846-1.795 1.557.567 2.361 2.288 1.794 3.847l-6.498 17.859" id="Rectangle-38" fill="#fff"/><path d="M284.24 99.653l6.498-17.853c.378-1.038 1.528-1.574 2.564-1.197 1.038.378 1.573 1.526 1.195 2.565l-6.498 17.853 1.879.684 6.498-17.853c.756-2.077-.314-4.372-2.39-5.128-2.074-.755-4.372.316-5.127 2.392l-6.498 17.853 1.879.684z" id="Rectangle-38" fill="#00A1DE" fill-rule="nonzero"/><g transform="translate(61 125)"><rect id="Combined-Shape" fill="#E6F5FB" x="8" y="26" width="31" height="5" rx="2.5"/><path d="M9 28.5c0 .834.667 1.5 1.498 1.5h26.005c.825 0 1.498-.673 1.498-1.5 0-.834-.667-1.5-1.498-1.5h-26.005c-.825 0-1.498.673-1.498 1.5zm-2 0c0-1.932 1.568-3.5 3.498-3.5h26.005c1.935 0 3.498 1.56 3.498 3.5 0 1.932-1.568 3.5-3.498 3.5h-26.005c-1.935 0-3.498-1.56-3.498-3.5z" id="Combined-Shape" fill="#00A1DE" fill-rule="nonzero"/><path d="M20 10h-9.007c-1.64 0-2.993 1.343-2.993 3 0 1.653 1.34 3 2.993 3h12.015c.82 0 1.568-.336 2.111-.878.546-.545.882-1.294.882-2.121v-9.001c0-1.655-1.343-2.999-3-2.999-1.653 0-3 1.343-3 2.999v6.001z" id="Combined-Shape" fill="#E6F5FB"/><path d="M19 3.999c0-2.208 1.793-3.999 4-3.999 2.209 0 4 1.792 4 3.999v9.001c0 1.074-.428 2.082-1.175 2.828-.744.744-1.751 1.171-2.818 1.171h-12.015c-2.205 0-3.993-1.794-3.993-4 0-2.205 1.796-4 3.993-4h8.007v-5.001zm-8.007 7.001c-1.092 0-1.993.9-1.993 2 0 1.103.894 2 1.993 2h12.015c.53 0 1.03-.213 1.404-.586.376-.375.588-.876.588-1.413v-9.001c0-1.103-.896-1.999-2-1.999-1.103 0-2 .897-2 1.999v7.001h-10.007z" id="Combined-Shape" fill="#00A1DE" fill-rule="nonzero"/><path d="M28.014 23.309c-.834-.721-2.192-.723-3.028 0l-7.384 6.386c-.825.714-2.404 1.305-3.509 1.305h-6.093v-21h1.785c1.109 0 2.259.849 2.575 1.919l3.037 10.274c.313 1.06 1.247 1.331 2.087.604l5.992-5.182c1.67-1.444 4.384-1.439 6.048 0l10.851 9.385h1.625c1.104 0 2 .888 2 2 0 1.105-.887 2-2 2h-6.001c-1.104 0-2-.888-2-2 0-.161.019-.317.054-.467l-6.04-5.224z" id="Combined-Shape" fill="#fff"/><path d="M14.093 30c.861 0 2.209-.502 2.855-1.061l7.384-6.386c1.211-1.047 3.126-1.046 4.336 0l6.499 5.621-.14.59-.027.236c0 .557.444 1 1 1h6.001c.557 0 1-.444 1-1 0-.557-.444-1-1-1h-1.998l-11.133-9.628c-1.29-1.116-3.447-1.117-4.739 0l-5.992 5.182c-1.388 1.201-3.181.682-3.7-1.077l-3.037-10.274c-.189-.641-.946-1.203-1.616-1.203h-.785v19h5.093zm13.267-5.934c-.459-.397-1.26-.397-1.72 0l-7.384 6.386c-1.01.873-2.822 1.548-4.163 1.548h-7.093v-23h2.785c1.554 0 3.093 1.143 3.534 2.636l3.037 10.274c.107.361.183.383.474.131l5.992-5.182c2.044-1.767 5.315-1.765 7.356 0l10.569 9.141h1.253c1.659 0 3 1.338 3 3 0 1.659-1.337 3-3 3h-6.001c-1.659 0-3-1.338-3-3 0-.019-5.64-4.934-5.64-4.934z" id="Combined-Shape" fill="#00A1DE" fill-rule="nonzero"/><path d="M3 31h8v-17.991c0-1.663-1.343-3.009-3-3.009-1.653 0-3 1.347-3 3.009v13.991h-2c-1.112 0-2 .895-2 2 0 1.112.895 2 2 2z" id="Combined-Shape" fill="#fff"/><path d="M4 13.009c0-2.212 1.793-4.009 4-4.009 2.21 0 4 1.794 4 4.009v18.991h-9c-1.659 0-3-1.338-3-3 0-1.659 1.337-3 3-3h1v-12.991zm6 0c0-1.111-.895-2.009-2-2.009-1.102 0-2 .9-2 2.009v14.991h-3c-.557 0-1 .444-1 1 0 .557.444 1 1 1h7v-16.991z" id="Combined-Shape" fill="#00A1DE" fill-rule="nonzero"/></g><g id="Group-48" transform="translate(58 114)"><circle id="Oval-13" fill="#fff" cx="11" cy="12" r="9"/><path d="M11 22c-5.523 0-10-4.477-10-10s4.477-10 10-10 10 4.477 10 10-4.477 10-10 10zm0-2c4.418 0 8-3.582 8-8s-3.582-8-8-8-8 3.582-8 8 3.582 8 8 8z" id="Oval-13" fill="#00A1DE" fill-rule="nonzero"/><path d="M19 15.5v-1h-5.5v.5c0 1.933 1.567 3.5 3.5 3.5v-1c-1.209 0-2.218-.859-2.45-2h4.45z" id="Path" fill="#00A1DE"/><g id="Group-47"><path d="M21 11c0-5.523-4.477-10-10-10s-10 4.477-10 10h20z" id="Oval-13" fill="#97D9F2"/><path d="M1.458 8c-.297.947-.458 1.955-.458 3h20c0-1.045-.16-2.053-.458-3h-19.084z" id="Combined-Shape" fill="#CBECF9"/><path d="M22 11v1h-22v-1c0-6.075 4.925-11 11-11s11 4.925 11 11zm-11-9c-4.633 0-8.448 3.5-8.945 8h17.89c-.497-4.5-4.313-8-8.945-8z" id="Oval-13" fill="#00A1DE" fill-rule="nonzero"/></g></g><path d="M379.653 139.937l-9.892 9.892-1.414-1.414c-.786-.786-2.047-.781-2.828 0-.786.786-.781 2.047 0 2.828l2.828 2.828 1.415 1.415c.777.777 2.044.781 2.823.002l11.31-11.31" id="Combined-Shape" fill="#E6F5FB"/><path d="M369.053 147.708c-1.176-1.176-3.069-1.173-4.242 0-1.176 1.176-1.173 3.069 0 4.242l4.244 4.244c1.169 1.169 3.068 1.171 4.237.002l11.311-11.311-1.414-1.414-11.311 11.311c-.387.387-1.02.386-1.409-.002l-4.244-4.244c-.393-.393-.393-1.02 0-1.414.393-.393 1.02-.394 1.414 0l2.122 2.122 10.6-10.6-1.414-1.414-9.186 9.186-.707-.707z" id="Combined-Shape" fill="#00A1DE" fill-rule="nonzero"/><g transform="translate(372 143)"><rect fill="#97D9F2" x="1" y="21" width="22" height="4" rx="1"/><path d="M6.851 1.992c.082-.548.604-.992 1.144-.992h8.009c.55 0 1.061.436 1.144.992l2.702 18.016c.082.548-.296.992-.852.992h-13.998c-.553 0-.935-.436-.852-.992l2.702-18.016z" fill="#CBECF9"/><path d="M18.05 8l.9 6h-13.9l.9-6h12.1z" id="Combined-Shape" fill="#E6F5FB"/><path d="M2 22.009v1.981l.002.009h19.995l.002-.009v-1.981l-.002-.009h-19.995l-.002.009zm-2 0c0-1.11.887-2.009 2.002-2.009h19.995c1.109 0 2.002.894 2.002 2.009v1.981c0 1.11-.887 2.009-2.002 2.009h-19.995c-1.109 0-2.002-.894-2.002-2.009v-1.981zm16.16-19.869c-.01-.064-.098-.14-.155-.14h-8.009c-.048 0-.147.085-.155.14l-2.679 17.86h13.678l-2.679-17.86zm-8.164-2.14h8.009c1.048 0 1.977.802 2.133 1.843l2.702 18.016c.173 1.152-.673 2.14-1.841 2.14h-13.998c-1.166 0-2.015-.982-1.841-2.14l2.702-18.016c.155-1.034 1.095-1.843 2.133-1.843z" id="Combined-Shape" fill="#00A1DE" fill-rule="nonzero"/></g><path d="M390.772 124.665l-8.495 8.495c-.58.58-1.346.871-2.114.871-.771.001-1.538-.292-2.123-.876l-6.364-6.364c-1.17-1.17-1.171-3.07 0-4.242 1.169-1.169 3.07-1.172 4.242 0l4.242 4.242 6.368-6.368" id="Combined-Shape" fill="#E6F5FB"/><path d="M376.625 121.841c-1.561-1.561-4.096-1.56-5.656 0-1.562 1.562-1.562 4.095 0 5.656l6.365 6.365c.76.76 1.775 1.17 2.831 1.169 1.051 0 2.066-.41 2.82-1.164l8.496-8.496-1.414-1.414-8.496 8.496c-.375.375-.879.578-1.407.579-.531 0-1.036-.203-1.416-.583l-6.365-6.365c-.78-.78-.78-2.047 0-2.828.78-.78 2.048-.78 2.828 0l4.95 4.95 7.076-7.076-1.414-1.414-5.662 5.662-3.536-3.536z" id="Combined-Shape" fill="#00A1DE" fill-rule="nonzero"/><path d="M384.75 144h5.241c1.663 0 3.009-1.343 3.009-3v-14.509c0-1.93-1.567-3.491-3.5-3.491h-3.527c-1.108 0-2.214.876-2.465 1.938l-3.089 13.062h-5.41c-1.663 0-3.009 1.343-3.009 3v3h12.75z" id="Combined-Shape" fill="#fff"/><path d="M382.534 124.708c.359-1.517 1.87-2.708 3.438-2.708h3.527c2.485 0 4.5 2.009 4.5 4.491v14.509c0 2.21-1.794 4-4.009 4h-18.991v-4c0-2.21 1.794-4 4.009-4h4.619l2.907-12.292zm7.457 18.292c1.111 0 2.009-.895 2.009-2v-14.509c0-1.376-1.118-2.491-2.5-2.491h-3.527c-.643 0-1.347.555-1.492 1.168l-3.271 13.832h-6.201c-1.111 0-2.009.895-2.009 2v2h16.991z" id="Combined-Shape" fill="#00A1DE" fill-rule="nonzero"/><path d="M372 141.009v13.991h-2c-1.112 0-2 .895-2 2 0 1.112.895 2 2 2h6.003c1.1 0 1.998-.893 1.998-1.995v-15.997" id="Path" fill="#fff"/><path d="M370 154c-1.662 0-3 1.341-3 3 0 1.662 1.341 3 3 3h6.003c1.653 0 2.998-1.341 2.998-2.995v-15.997h-2v15.997c0 .547-.449.995-.998.995h-6.002c-.555 0-1-.443-1-1 0-.556.443-1 1-1h3v-14.991h-2v12.991h-1z" id="Path" fill="#00A1DE" fill-rule="nonzero"/><path d="M390.772 129.665l-8.495 8.495c-.58.58-1.346.871-2.114.871-.771.001-1.538-.292-2.123-.876l-6.364-6.364c-1.17-1.17-1.171-3.07 0-4.242 1.169-1.169 3.07-1.172 4.242 0l4.242 4.242 6.368-6.368" id="Combined-Shape" fill="#fff"/><path d="M376.625 126.841c-1.561-1.561-4.096-1.56-5.656 0-1.562 1.562-1.562 4.095 0 5.656l6.365 6.365c.76.76 1.775 1.17 2.831 1.169 1.051 0 2.066-.41 2.82-1.164l8.496-8.496-1.414-1.414-8.496 8.496c-.375.375-.879.578-1.407.579-.531 0-1.036-.203-1.416-.583l-6.365-6.365c-.78-.78-.78-2.047 0-2.828.78-.78 2.048-.78 2.828 0l4.95 4.95 7.076-7.076-1.414-1.414-5.662 5.662-3.536-3.536z" id="Combined-Shape" fill="#00A1DE" fill-rule="nonzero"/><g id="Group-48" transform="matrix(-1 0 0 1 398 101)"><circle id="Oval-13" fill="#fff" cx="11" cy="12" r="9"/><path d="M11 22c-5.523 0-10-4.477-10-10s4.477-10 10-10 10 4.477 10 10-4.477 10-10 10zm0-2c4.418 0 8-3.582 8-8s-3.582-8-8-8-8 3.582-8 8 3.582 8 8 8z" id="Oval-13" fill="#00A1DE" fill-rule="nonzero"/><path d="M19 15.5v-1h-5.5v.5c0 1.933 1.567 3.5 3.5 3.5v-1c-1.209 0-2.218-.859-2.45-2h4.45z" id="Path" fill="#00A1DE"/><g id="Group-47"><path d="M21 11c0-5.523-4.477-10-10-10s-10 4.477-10 10h20z" id="Oval-13" fill="#97D9F2"/><path d="M1.458 8c-.297.947-.458 1.955-.458 3h20c0-1.045-.16-2.053-.458-3h-19.084z" id="Combined-Shape" fill="#CBECF9"/><path d="M22 11v1h-22v-1c0-6.075 4.925-11 11-11s11 4.925 11 11zm-11-9c-4.633 0-8.448 3.5-8.945 8h17.89c-.497-4.5-4.313-8-8.945-8z" id="Oval-13" fill="#00A1DE" fill-rule="nonzero"/></g></g><path d="M154.102 118.698c.826-1.431.329-3.264-1.102-4.09-1.435-.828-3.269-.338-4.094 1.09l-10.504 18.194 5.196 3 10.504-18.194z" id="Rectangle-38" fill="#E6F5FB"/><path d="M149.772 116.198c.549-.95 1.771-1.276 2.728-.724.955.552 1.285 1.774.737 2.724l-10.004 17.328-3.464-2 10.004-17.328zm3.728-2.456c-1.912-1.104-4.358-.452-5.46 1.456l-11.004 19.06 6.928 4 11.004-19.06c1.102-1.909.442-4.353-1.469-5.456z" id="Rectangle-38" fill="#00A1DE" fill-rule="nonzero"/><path d="M146 168h-6.002c-1.1 0-1.998-.893-1.998-1.995v-15.997c0-1.663 1.343-3.009 3-3.009 1.653 0 3 1.347 3 3.009v13.991h2c1.112 0 2 .895 2 2 0 1.112-.895 2-2 2z" id="Combined-Shape" fill="#E6F5FB"/><path d="M145 150.009c0-2.212-1.793-4.009-4-4.009-2.21 0-4 1.794-4 4.009v15.997c0 1.653 1.345 2.995 2.998 2.995h6.002c1.659 0 3-1.338 3-3 0-1.659-1.337-3-3-3h-1v-12.991zm-5.002 16.991c-.549 0-.998-.447-.998-.995v-15.997c0-1.111.895-2.009 2-2.009 1.102 0 2 .9 2 2.009v14.991h3c.557 0 1 .444 1 1 0 .557-.444 1-1 1h-6.002z" id="Combined-Shape" fill="#00A1DE" fill-rule="nonzero"/><path d="M142 168h-6.002c-1.1 0-1.998-.893-1.998-1.995v-15.055c-.618-.63-1-1.491-1-2.442v-14.017c0-1.93 1.567-3.491 3.5-3.491h4.344c1.108 0 2.214.876 2.465 1.938l3.585 15.161c.509 2.154-.873 3.901-3.078 3.901h-3.817v12h2c1.112 0 2 .895 2 2 0 1.112-.895 2-2 2z" id="Combined-Shape" fill="#fff"/><path d="M133 166.005c0 1.653 1.345 2.995 2.998 2.995h6.002c1.659 0 3-1.338 3-3 0-1.659-1.337-3-3-3h-1v-10h2.817c2.852 0 4.708-2.35 4.051-5.131l-3.585-15.161c-.359-1.517-1.87-2.708-3.438-2.708h-4.344c-2.485 0-4.5 2.009-4.5 4.491v14.017c0 1.043.36 2.032 1 2.822v14.675zm2.998.995c-.549 0-.998-.447-.998-.995v-15.464l-.286-.292c-.455-.463-.714-1.081-.714-1.741v-14.017c0-1.376 1.118-2.491 2.5-2.491h4.344c.643 0 1.347.555 1.492 1.168l3.585 15.161c.361 1.525-.544 2.671-2.104 2.671h-4.817v14h3c.557 0 1 .444 1 1 0 .557-.444 1-1 1h-6.002z" id="Combined-Shape" fill="#00A1DE" fill-rule="nonzero"/><path d="M139 136v18.999c0 1.658-1.347 3.001-3 3.001-1.657 0-3-1.343-3-3.001v-18.999" id="Rectangle-38" fill="#fff"/><path d="M140 136v18.999c0 2.209-1.793 4.001-4 4.001-2.209 0-4-1.791-4-4.001v-18.999h2v18.999c0 1.106.895 2.001 2 2.001 1.102 0 2-.897 2-2.001v-18.999h2z" fill="#00A1DE" fill-rule="nonzero"/><g transform="translate(128 109)"><circle id="Oval-13" fill="#fff" cx="11" cy="12" r="9"/><path d="M11 22c-5.523 0-10-4.477-10-10s4.477-10 10-10 10 4.477 10 10-4.477 10-10 10zm0-2c4.418 0 8-3.582 8-8s-3.582-8-8-8-8 3.582-8 8 3.582 8 8 8z" id="Oval-13" fill="#00A1DE" fill-rule="nonzero"/><path d="M19 15.5v-1h-5.5v.5c0 1.933 1.567 3.5 3.5 3.5v-1c-1.209 0-2.218-.859-2.45-2h4.45z" fill="#00A1DE"/><g><path d="M21 11c0-5.523-4.477-10-10-10s-10 4.477-10 10h20z" id="Oval-13" fill="#97D9F2"/><path d="M1.458 8c-.297.947-.458 1.955-.458 3h20c0-1.045-.16-2.053-.458-3h-19.084z" fill="#CBECF9"/><path d="M22 11v1h-22v-1c0-6.075 4.925-11 11-11s11 4.925 11 11zm-11-9c-4.633 0-8.448 3.5-8.945 8h17.89c-.497-4.5-4.313-8-8.945-8z" fill="#00A1DE" fill-rule="nonzero"/></g></g></g></g></svg>
