<svg width="404" height="233" viewBox="0 0 404 233" xmlns="http://www.w3.org/2000/svg" xmlns:xlink="http://www.w3.org/1999/xlink"><title>img_mac</title><desc>Created with Sketch.</desc><defs><path d="M0 .416c0-.23.185-.416.416-.416h299.011c.23 0 .416.186.416.416v186.57c0 .23-.185.416-.416.416h-299.011c-.23 0-.416-.186-.416-.416v-186.57z" id="a"/><filter x="-6%" y="-6.3%" width="112.1%" height="119.2%" filterUnits="objectBoundingBox" id="b"><feOffset dy="5" in="SourceAlpha" result="shadowOffsetOuter1"/><feGaussianBlur stdDeviation="4" in="shadowOffsetOuter1" result="shadowBlurOuter1"/><feColorMatrix values="0 0 0 0 0 0 0 0 0 0 0 0 0 0 0 0 0 0 0.1 0" in="shadowBlurOuter1" result="shadowMatrixOuter1"/><feMerge><feMergeNode in="shadowMatrixOuter1"/><feMergeNode in="SourceGraphic"/></feMerge></filter><linearGradient x1="50%" y1="0%" x2="50%" y2="100%" id="c"><stop stop-color="#F5F5F5" offset="0%"/><stop stop-color="#EBEBEB" offset="100%"/></linearGradient><rect id="e" width="47.954" height="6.023" rx="1"/><filter x="-2.1%" y="-8.3%" width="104.2%" height="133.2%" filterUnits="objectBoundingBox" id="d"><feOffset dy=".5" in="SourceAlpha" result="shadowOffsetOuter1"/><feGaussianBlur stdDeviation=".25" in="shadowOffsetOuter1" result="shadowBlurOuter1"/><feColorMatrix values="0 0 0 0 0.88 0 0 0 0 0.88 0 0 0 0 0.88 0 0 0 1 0" in="shadowBlurOuter1"/></filter><linearGradient x1="50%" y1="0%" x2="50%" y2="100%" id="f"><stop stop-color="#F39A1E" offset="0%"/><stop stop-color="#fff" offset="100%"/></linearGradient></defs><g fill="none"><path d="M42.083 223.072c-2.07 0-3.748-1.679-3.748-3.748v-205.935c0-6.785 5.502-12.285 12.285-12.285h302.551c6.785 0 12.285 5.501 12.285 12.285v205.935c0 2.07-1.677 3.748-3.748 3.748h-319.626z" id="Combined-Shape" stroke="#D1D2D3" stroke-width="1.5" fill="#FAFAFA"/><path d="M202.104 11.828c-.574 0-1.041-.467-1.041-1.041 0-.574.467-1.041 1.041-1.041.574 0 1.041.467 1.041 1.041 0 .574-.467 1.041-1.041 1.041" fill="#D1D2D3"/><path d="M201.896 9.121c-.919 0-1.666.747-1.666 1.666 0 .919.747 1.666 1.666 1.666.919 0 1.666-.747 1.666-1.666 0-.919-.747-1.666-1.666-1.666m0 .952c.394 0 .714.32.714.714 0 .394-.32.714-.714.714-.394 0-.714-.32-.714-.714 0-.394.32-.714.714-.714" fill="#F2F2F2"/><path d="M51.766 19.114c0-.229.185-.415.415-.415h299.847c.229 0 .415.187.415.415v187.406c0 .229-.185.415-.415.415h-299.847c-.229 0-.415-.187-.415-.415v-187.406z" id="Combined-Shape" fill="#DEDEDE"/><path d="M2.626 223.592l398.659.19c.23 0 .418.187.418.416v1.958c-16.031 4.99-64.045 4.723-64.045 4.723s-246.016-.063-285.268 0c-39.147-.527-50.182-4.556-50.182-4.556v-2.317c0-.227.187-.415.418-.415z" id="Combined-Shape" stroke="#D1D2D3" stroke-width="3"/><path d="M402 226.091s-4.12 4.997-89.63 4.819c-28.189-.059-68.577-.06-110.058-.035-41.97-.025-82.446-.024-110.682.035-85.51.178-89.63-4.819-89.63-4.819h400z" id="Combined-Shape" fill="#D1D2D3"/><path d="M2 224.01c0-.231.184-.418.416-.418h399.168c.23 0 .416.188.416.418v2.08h-400v-2.08z" id="Combined-Shape" fill="#FAFAFA"/><path d="M164.207 223.592h75.794v2.499s-9.547.833-37.747.833c-28.201 0-38.047-.833-38.047-.833v-2.499z" id="Combined-Shape" fill="#DEDEDE"/><g transform="translate(52.182 19.116)"><mask><use xlink:href="#a"/></mask><use fill="#75868C" xlink:href="#a"/></g><g filter="url(#b)"><path fill="#fff" d="M127 51.595h195v128.803h-195z"/><path fill="#F8F8F8" d="M82 51.363h45v129.266h-45z"/><path d="M82 180.398v4.487c0 1.104.893 1.999 2.003 1.999h235.995c1.106 0 2.003-.902 2.003-1.999v-4.487h-240zM84.003 37c-1.106 0-2.003.891-2.003 1.999v12.596h240v-12.596c0-1.104-.893-1.999-2.003-1.999h-235.995z" fill-opacity=".9" fill="url(#c)"/><g transform="translate(85.012 39.78)"><circle fill="#FF5858" cx="1.622" cy="1.622" r="1.622"/><circle fill="#FFCE55" cx="6.718" cy="1.622" r="1.622"/><circle fill="#58D65B" cx="11.815" cy="1.622" r="1.622"/></g><g transform="translate(271.035 43.718)"><use fill="#000" filter="url(#d)" xlink:href="#e"/><use fill="#fff" xlink:href="#e"/></g></g><path d="M242 113c0 22.091-17.908 40-40 40s-40-17.909-40-40c0-22.092 17.908-40 40-40s40 17.908 40 40" fill="#00A1DE"/><g fill="#fff"><path d="M177.297 133.372c-.103.041-.731.165-1.283.165-1.276 0-1.987-.669-1.987-2.001 0-1.49.8-3.015 2.753-3.015.338 0 .952.055 1.249.166l-.124.607c-.138-.048-.531-.172-1.07-.172-1.477 0-2.125 1.076-2.125 2.305 0 1.083.531 1.511 1.47 1.511.428 0 .918-.083 1.194-.173l-.076.607zM179.705 133.407c-.166.062-.38.131-.676.131-.469 0-.793-.207-.793-.669l.014-.186.669-4.257h.649l-.655 4.133-.007.097c0 .248.103.324.379.324.166 0 .338-.048.476-.097l-.055.525zM181.843 132.979c.828 0 1.387-.683 1.387-1.663 0-.724-.373-1-.897-1-.793 0-1.38.621-1.401 1.663 0 .538.186 1.001.911 1.001m-1.552-.945c0-1.249.807-2.27 2.063-2.27.98 0 1.525.531 1.525 1.49 0 1.29-.807 2.284-2.091 2.284-.938-.014-1.497-.511-1.497-1.504"/><path d="M187.376 133.469h-.531l.117-1.104c-.448.697-1.028 1.173-1.704 1.173-.586 0-.869-.393-.869-.98l.028-.345.38-2.38h.642l-.359 2.263-.028.324c0 .311.097.545.4.545.497 0 1.173-.718 1.601-1.525l.255-1.607h.649l-.58 3.636zM191.109 131.447l.159-1.028c-.166-.076-.49-.124-.738-.124-1.145 0-1.456 1.028-1.456 1.732 0 .538.179.938.504.938.462 0 1.145-.821 1.532-1.518m-2.691.655c0-1.014.518-2.339 2.125-2.339.304 0 .614.048.821.09l.062-.476.152-.952h.648l-.8 5.044h-.538l.131-1.104c-.38.628-.952 1.173-1.573 1.173-.683 0-1.028-.614-1.028-1.435"/><path d="M193.861 132.682c.069.055.773.256 1.477.256.821 0 1.38-.325 1.38-.849 0-1.076-2.498-.566-2.498-2.084 0-.945.835-1.484 2.084-1.484.718 0 1.283.186 1.421.235l-.131.607c-.276-.138-.883-.248-1.366-.248-.718 0-1.339.283-1.339.794 0 .993 2.505.483 2.505 2.097 0 1.014-.856 1.532-2.132 1.532-.821 0-1.532-.221-1.532-.221l.131-.635zM200.719 131.447l.159-1.028c-.165-.076-.49-.124-.738-.124-1.145 0-1.456 1.028-1.456 1.732 0 .538.179.938.504.938.462 0 1.145-.821 1.532-1.518m-2.691.655c0-1.014.545-2.339 2.153-2.339.649 0 1.145.131 1.408.2l-.552 3.505h-.538l.131-1.104c-.379.628-.952 1.173-1.573 1.173-.683 0-1.028-.614-1.028-1.435"/><path d="M202.595 129.833h.531l-.117 1.104c.448-.697 1.028-1.173 1.704-1.173.586 0 .869.393.869.98l-.028.345-.379 2.38h-.642l.359-2.263.027-.325c0-.31-.096-.545-.4-.545-.497 0-1.173.718-1.601 1.525l-.255 1.607h-.649l.58-3.636zM208.901 131.447l.159-1.028c-.165-.076-.49-.124-.738-.124-1.145 0-1.456 1.028-1.456 1.732 0 .538.179.938.504.938.462 0 1.145-.821 1.532-1.518m-2.691.655c0-1.014.518-2.339 2.125-2.339.304 0 .614.048.821.09l.062-.476.152-.952h.649l-.8 5.044h-.538l.131-1.104c-.379.628-.952 1.173-1.573 1.173-.683 0-1.028-.614-1.028-1.435M211.095 131.855l-.159 1.028c.165.076.49.124.738.124 1.145 0 1.456-1.028 1.456-1.732 0-.538-.179-.938-.504-.938-.462 0-1.145.821-1.532 1.518m2.691-.655c0 1.014-.545 2.339-2.153 2.339-.649 0-1.152-.131-1.415-.2l.78-4.913h.642l-.304 1.904-.11.524c.386-.593.945-1.09 1.532-1.09.697 0 1.028.614 1.028 1.435M215.828 132.979c.828 0 1.387-.683 1.387-1.663 0-.724-.373-1-.897-1-.794 0-1.38.621-1.401 1.663 0 .538.186 1.001.911 1.001m-1.552-.945c0-1.249.807-2.27 2.063-2.27.98 0 1.525.531 1.525 1.49 0 1.29-.807 2.284-2.091 2.284-.938-.014-1.497-.511-1.497-1.504"/><path d="M220.464 133.469l-.718-1.325-1.159 1.325h-.724l1.587-1.821-.987-1.815h.731l.724 1.352 1.173-1.352h.711l-1.601 1.821 1.001 1.815z"/></g><g fill="#F39A1E"><path d="M223.12 128.597v3.191l.081.077h6.095c.046 0 .081-.034.081-.077v-3.191l-.081-.077h-6.095c-.046 0-.081.034-.081.077zm-.32 0c0-.219.177-.397.401-.397h6.095c.221 0 .401.182.401.397v3.191c0 .219-.177.397-.401.397h-6.095c-.221 0-.401-.182-.401-.397v-3.191zM225.062 131.349v-.365h-1.059v-1.898h-.403v2.262h1.462zm.678 0v-1.686h-.387v1.686h.387zm.032-2.138c0-.122-.064-.211-.224-.211-.166 0-.227.09-.227.211 0 .122.061.211.227.211.16 0 .224-.093.224-.211zm1.36 1.763c-.074.038-.166.064-.253.064-.131 0-.246-.032-.246-.208v-.858h.467l.016-.31h-.483v-.406h-.336l-.045.406h-.227v.31h.221v.896c0 .394.237.515.502.515.141 0 .275-.032.397-.077l-.013-.333zm1.728-.01l-.003.31c-.147.058-.403.109-.634.109-.582 0-.858-.317-.858-.861 0-.563.282-.896.797-.896.534 0 .733.323.733.714l-.026.262h-1.11c.019.33.186.461.515.461.253 0 .502-.074.586-.099zm-.349-.618v-.035c0-.237-.112-.384-.346-.384-.23 0-.381.138-.403.419h.749z"/></g><path d="M185.2 124.2c-6.186 0-11.2-5.014-11.2-11.2 0-4.791 3.009-8.88 7.24-10.48-.026-.236-.04-.477-.04-.72 0-3.535 2.865-6.4 6.4-6.4 2.599 0 4.837 1.549 5.839 3.775 1.234-6.7 7.105-11.775 14.161-11.775 7.953 0 14.4 6.447 14.4 14.4l-.007.462c4.63 1.375 8.007 5.662 8.007 10.738 0 6.186-5.014 11.2-11.2 11.2h-33.6z" fill="#fff"/><g fill="#F39A1E"><path d="M217.41 112.788h1.312v-4.668h-1.312zM220.609 110.459h-.003l.003-.011 1.347-2.328h-1.312l-1.347 2.328.007.011h-.007l1.347 2.328h1.312zM206.131 108.12h-1.054l-2.695 4.667h1.327l1.919-3.323v3.323h1.327v-4.667h-.713zM191.755 110.842h2.066l.447-.765h-2.096zM191.333 109.891h.001c0-.59.176-.811.75-.811h1.867l.559-.967h-2.622c-1.117 0-1.855.391-1.855 1.806v2.879h4.034l.559-.967h-3.294v-1.939zM214.008 110.842h2.067l.447-.765h-2.096zM213.631 109.891h.001c0-.59.176-.811.75-.811h1.867l.559-.967h-2.622c-1.117 0-1.855.391-1.855 1.806v2.879h4.034l.559-.967h-3.294v-1.939zM207.535 109.092h1.632v3.696h1.284v-3.696h1.208l.56-.971h-4.124zM197.331 111.831h-.713v-2.754h.713c1.037 0 1.363.183 1.363 1.342s-.326 1.412-1.363 1.412m.279-3.72h-2.25v4.685h2.311c1.623 0 2.352-.626 2.352-2.379 0-1.658-.723-2.306-2.413-2.306"/><path d="M200.756 112.788h1.312v-4.667h-1.312zM186.38 110.492v-2.372l-1.56.005-2.692 4.658h1.287l1.653-2.859v2.84l-.011.019h.011v.005h1.312l1.616-2.864v2.864h1.313v-4.668l-1.561.005z"/></g><g fill="url(#f)" opacity=".1"><path d="M217.41 118.081h1.312v-4.668h-1.312zM220.609 115.742h-.002l.002.012 1.347 2.328h-1.312l-1.348-2.328.008-.012h-.008l1.348-2.328h1.312zM206.132 118.081h-1.054l-2.695-4.667h1.328l1.919 3.323v-3.323h1.327v4.667h-.713zM191.755 115.36h2.066l.447.766h-2.096zM191.333 116.311h.001c0 .59.176.811.75.811h1.867l.559.968h-2.622c-1.117 0-1.854-.391-1.854-1.806v-2.879h4.034l.559.967h-3.294v1.939zM214.008 115.36h2.067l.447.766h-2.096zM213.631 116.311h.001c0 .59.177.811.751.811h1.867l.559.968h-2.622c-1.117 0-1.855-.391-1.855-1.806v-2.879h4.034l.559.967h-3.294v1.939zM207.535 117.11h1.632v-3.696h1.284v3.696h1.208l.56.971h-4.124zM198.693 115.783c0 1.159-.325 1.342-1.362 1.342h-.713v-2.755h.713c1.037 0 1.362.254 1.362 1.413m1.33.001c0-1.754-.73-2.379-2.352-2.379h-2.311v4.685h2.25c1.69 0 2.413-.648 2.413-2.306"/><path d="M200.756 118.081h1.312v-4.667h-1.312zM186.38 115.709v2.372l-1.56-.004-2.692-4.658h1.287l1.653 2.859v-2.84l-.011-.019h.011v-.005h1.312l1.616 2.864v-2.864h1.313v4.667l-1.561-.004z"/></g><path d="M263.276 145.771l-8.246-8.247c-.253-.253-.594-.392-.946-.392l-.174.011c-.413.054-.776.297-.984.657l-2.772 4.8-7.926-19.874 19.872 7.927-4.801 2.773c-.36.208-.603.571-.657.984-.054.412.086.826.38 1.12l8.247 8.247-1.992 1.993z" fill="#fff"/><path d="M268.106 142.832l-7.96-7.96 5.679-3.28c.444-.256.702-.744.665-1.255-.037-.511-.362-.956-.838-1.146l-25.324-10.102c-.497-.198-1.063-.081-1.441.296-.378.378-.495.945-.297 1.441l10.1 25.327c.19.476.635.802 1.146.839.511.037.998-.221 1.255-.665l3.28-5.679 7.96 7.961c.251.251.591.392.946.392s.695-.141.946-.392l3.884-3.885c.522-.522.522-1.369 0-1.892zm-4.83 2.939l-8.246-8.247c-.253-.253-.594-.392-.946-.392l-.174.011c-.413.054-.776.297-.984.657l-2.772 4.8-7.926-19.874 19.872 7.927-4.801 2.773c-.36.208-.603.571-.657.984-.054.412.086.826.38 1.12l8.247 8.247-1.992 1.993zm-28.902-32.791c-.523-.522-1.369-.522-1.892 0-.522.523-.522 1.369 0 1.892l2.972 2.972c.261.261.604.392.946.392.342 0 .684-.131.946-.392.522-.522.522-1.369 0-1.892l-2.972-2.972zm1.007 9.248c0-.739-.599-1.338-1.338-1.338h-4.203c-.739 0-1.338.599-1.338 1.338 0 .739.599 1.338 1.338 1.338h4.203c.739 0 1.338-.599 1.338-1.338zm-.543 4.128l-2.973 2.973c-.523.522-.523 1.369 0 1.892.261.261.603.392.946.392.342 0 .684-.131.946-.392l2.973-2.972c.522-.522.522-1.369 0-1.892-.522-.522-1.369-.522-1.892 0zm6.891-10.477c.739 0 1.338-.599 1.338-1.338v-4.204c0-.739-.599-1.338-1.338-1.338-.739 0-1.338.599-1.338 1.338v4.204c0 .739.599 1.338 1.338 1.338zm5.073 1.741c.343 0 .685-.13.946-.392l2.972-2.972c.523-.522.523-1.369 0-1.892-.522-.522-1.37-.522-1.892 0l-2.972 2.972c-.522.522-.522 1.369 0 1.892.261.261.604.392.946.392z" fill="#40494D"/></g></svg>