<svg width="398" height="172" viewBox="0 0 398 172" xmlns="http://www.w3.org/2000/svg"><g fill="none"><path d="M124 161h4c.6 0 1-.4 1-1s-.4-1-1-1h-4c-.6 0-1 .4-1 1s.4 1 1 1zm8 0h4c.6 0 1-.4 1-1s-.4-1-1-1h-4c-.6 0-1 .4-1 1s.4 1 1 1zm8 0h4c.6 0 1-.4 1-1s-.4-1-1-1h-4c-.6 0-1 .4-1 1s.4 1 1 1zm8 0h4c.6 0 1-.4 1-1s-.4-1-1-1h-4c-.6 0-1 .4-1 1s.4 1 1 1zm8 0h4c.6 0 1-.4 1-1s-.4-1-1-1h-4c-.6 0-1 .4-1 1s.4 1 1 1zm8 0h4c.6 0 1-.4 1-1s-.4-1-1-1h-4c-.6 0-1 .4-1 1s.4 1 1 1zm8 0c-.6 0-1-.4-1-1s.4-1 1-1h4c.6 0 1 .4 1 1s-.4 1-1 1h-4zm-23 10c-.6 0-1-.4-1-1s.4-1 1-1h4c.6 0 1 .4 1 1s-.4 1-1 1h-4zm8 0c-.6 0-1-.4-1-1s.4-1 1-1h4c.6 0 1 .4 1 1s-.4 1-1 1h-4zm8 0c-.6 0-1-.4-1-1s.4-1 1-1h4c.6 0 1 .4 1 1s-.4 1-1 1h-4zm8 0c-.6 0-1-.4-1-1s.4-1 1-1h4c.6 0 1 .4 1 1s-.4 1-1 1h-4zm8 0c-.6 0-1-.4-1-1s.4-1 1-1h4c.6 0 1 .4 1 1s-.4 1-1 1h-4zm8 0c-.6 0-1-.4-1-1s.4-1 1-1h4c.6 0 1 .4 1 1s-.4 1-1 1h-4zm8 0c-.6 0-1-.4-1-1s.4-1 1-1h4c.6 0 1 .4 1 1s-.4 1-1 1h-4zm8 0c-.6 0-1-.4-1-1s.4-1 1-1h4c.6 0 1 .4 1 1s-.4 1-1 1h-4zm8 0c-.6 0-1-.4-1-1s.4-1 1-1h4c.6 0 1 .4 1 1s-.4 1-1 1h-4zm8 0c-.6 0-1-.4-1-1s.4-1 1-1h4c.6 0 1 .4 1 1s-.4 1-1 1h-4zm8 0c-.6 0-1-.4-1-1s.4-1 1-1h4c.6 0 1 .4 1 1s-.4 1-1 1h-4zm8 0c-.6 0-1-.4-1-1s.4-1 1-1h4c.6 0 1 .4 1 1s-.4 1-1 1h-4zm8 0c-.6 0-1-.4-1-1s.4-1 1-1h4c.6 0 1 .4 1 1s-.4 1-1 1h-4zM82.5 107c4.8 0 9.6-.6 14-2 .7 0 1-.6.8-1 0-.6-.7-1-1.2-.8-4.3 1.2-9 1.8-13.5 1.8-.6 0-1 .4-1 1s.4 1 1 1zm28-8c2-1.2 4-2.6 6-4 .3-.5.4-1 0-1.5-.3-.4-1-.5-1.4-.2-1.6 1.5-3.5 2.8-5.5 4-.4.3-.6 1-.3 1.4.3.5 1 .6 1.4.3zm15.7-14.6c3-4 5.3-8.7 7-13.5 0-.7-.2-1.2-.7-1.4-.5-.2-1 0-1.3.6-1.6 4.7-3.8 9-6.7 13-.3.5-.2 1 .3 1.5.4.3 1 .2 1.4-.3zM135 64c.7-3.4 1-7 1-10.5v-3.7c-.2-.6-.6-1-1.2-1-.5 0-1 .6-1 1 .2 1.3.2 2.5.2 3.7 0 3.4-.3 6.8-1 10 0 .7.3 1.2.8 1.3.5 0 1-.2 1.2-.8zm-2.3-29c-1-2.4-1.8-4.5-3-6.6-.2-.5-.8-.7-1.3-.5-.5.2-.7.8-.4 1.3 1 2 2 4 2.8 6.3.2.5.8.7 1.3.5.6 0 1-.6.7-1zm-11.3-18.2c-3.5-3.7-7.5-7-12-9.5-.4-.3-1 0-1.3.4-.2.4 0 1 .5 1.3 4.2 2.5 8 5.6 11.5 9.2.3.4 1 .4 1.4 0 .4-.4.4-1 0-1.4zM103 4C98.8 2.4 94 1 89.4.5c-.5 0-1 .4-1 1-.2.4.2 1 .8 1 4.7.6 9 1.8 13.4 3.6.5.2 1 0 1.3-.6.2-.5 0-1-.6-1.3zM74 .8c-2.3.3-4.6 1-7 1.5-.4.2-.7.8-.6 1.3.2.5.8.8 1.3.7C70 3.5 72 3 74.4 2.6c.5 0 1-.6.8-1 0-.7-.6-1-1-1zM54 8C50 11 46 14.3 42.6 18c-.4.4-.3 1 0 1.4.5.4 1 .3 1.5 0 3.3-3.8 7-7 11.2-9.6.5-.3.6-1 .3-1.4-.3-.4-1-.6-1.4-.3zM38 23.8c-2.6 4-4.7 8.2-6.2 12.8-.2.5 0 1 .6 1.2.5.2 1 0 1.3-.6 1.4-4.3 3.5-8.4 6-12.2.3-.5.2-1-.2-1.4-.5-.3-1-.2-1.4.3zm-9 27.7v2c0 1.8 0 3.5.2 5.2 0 .5.6 1 1 1 .7-.2 1-.7 1-1.2l-.2-5v-2c0-.5-.4-1-1-1-.5 0-1 .5-1 1zM317 137c1.4 0 2.7 0 4-.2.6 0 1-.5 1-1 0-.6-.5-1-1-1l-4 .2h-2.3c-.5 0-1 .3-1 1 0 .4.4 1 1 1h2.3zm-.2 15h.2c4.8 0 9.5-.6 14-1.6.7-.2 1-.7 1-1.2-.2-.6-.8-1-1.3-.8-4.5 1-9 1.6-13.7 1.6h-.5c-6.6 0-13-1.2-19.3-3.4-.5-.2-1 0-1.3.6-.2.5 0 1 .5 1.3 6.4 2.2 13 3.4 20 3.5h.3zm.2 20c3.4 0 6.8-.2 10-.6.7 0 1-.6 1-1 0-.7-.6-1-1-1-3.4.4-6.7.6-10 .6-2.7 0-5.3 0-7.8-.4-.6 0-1 .4-1 1-.2.5.2 1 .8 1 2.6.3 5.3.4 8 .4zM40.5 138h.5c1.4 0 2.8 0 4.2-.4.5 0 1-.7.8-1.2 0-.5-.7-1-1.2-.8-1.3.3-2.5.4-3.8.4h-.5-.4c-1.2 0-2.4-.3-3.7-.6-.5 0-1 .2-1.2.8 0 .5.3 1 1 1.2 1.2.3 2.6.5 4 .6h.5zm.5 20c5 0 9.6-.8 14-2.5.6-.2 1-.7.7-1.3-.2-.5-.8-.7-1.3-.6-4.3 1.6-8.8 2.4-13.4 2.4-2 0-4 0-5.8-.4-.6 0-1 .3-1 .8-.2.6 0 1 .7 1 2 .4 4 .6 6 .6zm29-52.5c-.6 0-1-.6-.8-1.2 0-.5.7-1 1.2-.7 2.2.5 4.5 1 6.8 1 .5.2 1 .7 1 1.2-.2.6-.7 1-1.2 1-2.4-.3-4.7-.7-7-1.3zM68 147.7c-.4.3-1 .3-1.4 0-.4-.5-.3-1.2 0-1.5 1.8-1.5 3.4-3.2 4.8-5 .3-.4 1-.5 1.4-.2.4.4.5 1 0 1.5-1.3 1.8-3 3.6-4.8 5.2zM80 130c-.2.4-.8.7-1.3.5-.5-.2-.8-.7-.7-1.3 1.3-4 2-8 2-12.2v-2.2c0-.6.3-1 1-1 .4 0 1 .3 1 1v2.2c0 4.4-.7 8.7-2 13zm1-22.4c0 .5-.3 1-.8 1.2-.6 0-1-.2-1.2-.8-1-4.4-3-8.6-5.4-12.5-.3-.4-.2-1 .3-1.3.3-.3 1-.2 1.2.2 2.7 4 4.6 8.5 5.7 13.2zM64.5 83.4c.4.4.5 1 .2 1.4-.3.5-1 .6-1.4.3-2-1.2-3.8-2.4-6-3.3-.4-.3-.6-1-.4-1.4.3-.5 1-.7 1.4-.5 2 1 4.2 2.3 6.2 3.6zm-20-7.2c.5 0 1 .5 1 1-.2.6-.6 1-1.2 1-1-.2-2.2-.2-3.4-.2-3.8 0-7.5.5-11 1.6-.6.2-1.2 0-1.4-.7 0-.6.2-1.2.7-1.3C33 76.7 37 76 41 76c1.2 0 2.4 0 3.6.2zm-22 4c.5 0 1 0 1.4.6.2.5 0 1-.5 1.3-4 2.2-7.7 5-11 8.2-.2.4-1 .5-1.3 0-.4-.3-.4-1 0-1.3 3.3-3.6 7.2-6.5 11.4-8.7zM3 102c0-.5.7-.7 1.2-.5.5.2.8.8.6 1.3-1 2-1.5 4.3-2 6.5 0 .7-.6 1-1.2 1-.5-.2-1-.7-.8-1.3.5-2.3 1.2-4.6 2-7zm-2.6 21c0-.4.3-1 1-1 .4 0 1 .3 1 .8.7 5 2.3 9.6 4.8 13.8.2.5 0 1-.4 1.4-.5.2-1 0-1.4-.4C3 133 1.2 128 .4 123zm9 20.5c-.2-.5-.2-1 .2-1.4.5-.5 1-.4 1.5 0 3 3.5 6.5 6.5 10.4 8.8.5.2.7.8.4 1.3s-1 .8-1.4.5c-4-2.4-7.8-5.6-11-9.2zm39.8-7c-.5.2-1 0-1.3-.5-.3-.5 0-1 .4-1.3 1.2-.5 2.3-1 3.4-1.8.4-.4 1-.2 1.4.2.3.4.2 1-.3 1.3-1.2.8-2.5 1.5-3.8 2zm7-4.7c-.4.3-1 .4-1.5 0-.4-.4-.4-1 0-1.4 1-1 1.7-2 2.4-3 .3-.5 1-.6 1.4-.3.5.2.6.8.3 1.2-.7 1.2-1.6 2.3-2.6 3.4zm4.4-7c-.2.4-.8.7-1.3.5-.5 0-.8-.7-.6-1.2.5-1.2.8-2.4 1-3.7 0-.4.6-.8 1.2-.7.4 0 .8.6.7 1.2-.2 1.4-.6 2.7-1 4zM62 116c0 .5-.4 1-1 1-.5 0-1-.4-1-1 0-1.2-.2-2.5-.5-3.7-.2-.5.2-1 .7-1.2.5 0 1 .2 1.2.7l.6 4.2zm-2-8c.2.4 0 1-.5 1.2s-1 0-1.3-.5c-.5-1.2-1.2-2.3-2-3.3-.3-.5-.2-1 .2-1.4.5-.4 1-.3 1.4.2 1 1 1.6 2.3 2.2 3.6zm-5-7c.3.5.4 1 0 1.5-.3.4-1 .5-1.4 0-1-.8-2-1.5-3-2-.5-.4-.7-1-.4-1.5.2-.5 1-.6 1.3-.4 1.2.7 2.4 1.6 3.4 2.5zm-7.3-4c.6 0 .8.7.7 1.2-.2.5-.8.8-1.3.6-1-.4-2.3-.7-3.6-.8-.5 0-1-.6-1-1.2.2-.5.7-1 1.3-.8 1.4 0 2.7.5 4 1zm-8.3-1c.5-.2 1 .2 1 .8 0 .5-.3 1-1 1l-3.6.7c-.6.2-1 0-1.3-.7 0-.5.2-1 .7-1.2 1.4-.4 2.8-.6 4.2-.7zm-8 2.2c.4-.3 1 0 1.3.4.2.5 0 1-.5 1.3-1 .7-2.2 1.4-3 2.2-.6.4-1.2.3-1.5 0-.4-.6-.3-1.2 0-1.5 1.2-1 2.4-1.7 3.6-2.3zm-6.6 5.3c.3-.5 1-.5 1.4-.2.4.4.5 1 0 1.4l-2 3c-.2.6-.8.8-1.3.5-.6-.3-.8-1-.5-1.3.6-1.3 1.4-2.5 2.3-3.5zm-4 7.3c.2-.5.8-.8 1.3-.6.6 0 1 .7.8 1.2-.4 1.2-.6 2.5-.7 3.7 0 .6-.5 1-1 1-.6 0-1-.6-1-1 .2-1.5.5-3 1-4.2zm-.7 8.5c0-.6.5-1 1-1.2.6 0 1 .4 1 1l1 3.6c0 .5-.2 1-.7 1.2-.5.2-1 0-1.3-.6l-1-4zm2.8 8c-.3-.6 0-1.2.3-1.5.6-.2 1.2 0 1.5.4.6 1 1.4 2.2 2.2 3 .4.5.3 1.2 0 1.5-.5.3-1 .2-1.5-.2-1-1-1.7-2.2-2.4-3.4zm5.5 6.2c-.5-.3-.6-1-.2-1.4.4-.4 1-.5 1.5-.2 1 1 2 1.5 3.2 2 .5.3.7 1 .5 1.4-.3.5-1 .7-1.4.5-1.2-.7-2.4-1.4-3.5-2.3zM356 162c-.6.4-1.2.2-1.5-.3-.3-.5 0-1 .4-1.4l3.3-2c.5-.2 1 0 1.4.4.3.5 0 1-.3 1.4l-3.5 2zm11.7-7.8c-.5.4-1 .3-1.4 0-.4-.6-.3-1.2 0-1.6 7.8-6.2 14.4-13.8 19.3-22.4.3-.4 1-.6 1.4-.3s.6.7.3 1.2c-5 8.8-11.7 16.6-19.6 23zm21.5-26.5c-.2.5-.8.7-1.3.4-.6 0-.8-.7-.6-1.2 1.5-3 3-6 4-9 .2-.6.7-1 1.2-.7.6.3.8 1 .6 1.4-1 3.2-2.4 6.3-4 9.3zm8.8-39.2c0 .5-.5 1-1 1-.6 0-1-.4-1-1l-.3-4c0-.5.4-1 1-1 .5 0 1 .4 1 1l.3 4zm-1.7-14c0 .4-.2 1-.8 1-.5.2-1-.2-1.2-.7-2-9.8-6-19-11.3-27.2-.3-.5-.2-1 .3-1.4.4-.3 1-.2 1.4.2 5.5 8.5 9.5 18 11.6 28zm-14-31.4c.4.6.3 1.2-.2 1.5-.3.4-1 .3-1.3-.2-2-2.6-4-5.2-6.3-7.6-.4-.4-.3-1 0-1.4.5-.4 1-.3 1.5 0 2.2 2.5 4.4 5 6.4 7.8zm-31-25.4c.6.3.8 1 .6 1.4-.4.5-1 .7-1.4.5L347 18c-.6-.3-.8-1-.6-1.4.2-.5.8-.8 1.3-.6l3.7 1.6zm-13.2-4.8c.6 0 1 .7.8 1.2-.2.5-.7.8-1.3.7C331 13 324 12 317 12c-3 0-6 .2-9 .5-.5 0-1-.3-1-1 0-.4.3-1 1-1 3-.3 6-.5 9-.5 7.2 0 14.3 1 21 2.8zM304 11c.6 0 1 .3 1.2 1 0 .4-.3 1-.8 1-3.3.6-6.5 1.3-9.7 2.2-.5.2-1 0-1.2-.6-.2-.6 0-1 .7-1.3 3.2-1 6.5-1.7 9.8-2.2zM267 27.3c.5-.3 1.2-.3 1.5.2.3.4.3 1-.2 1.4l-3 2.5c-.4.3-1 .3-1.4 0-.5-.5-.4-1.2 0-1.5 1-1 2-1.8 3-2.6zM256.8 37c.4-.5 1-.5 1.4-.2.5.4.6 1 .2 1.4-6.6 7.4-11.8 16-15.3 25.3-.3.5-.8.8-1.4.6-.5 0-.7-.7-.5-1.2 3.6-9.6 9-18.3 15.7-26zm-17 29.5c.2-.5.8-.8 1.3-.6.5 0 .8.6.7 1.2-1 3-1.8 6.3-2.4 9.5 0 .6-.6 1-1.2.8-.4 0-.8-.6-.7-1 .6-3.5 1.4-6.7 2.5-10zm-2.2 40.2c0-.6.3-1 .8-1.2.6 0 1 .3 1.2.8l.8 4c.2.4-.2 1-.7 1s-1 0-1.2-.7l-1-4zm4 13.6c-.2-.5 0-1 .5-1.3.5-.2 1 0 1.3.6 3.6 9.2 9 17.7 15.7 25 .3.4.3 1 0 1.4-.5.4-1 .4-1.5 0-7-7.5-12.4-16.2-16-25.7zm18.8 28.6c-.4-.5-.4-1.2 0-1.5.4-.4 1-.4 1.4 0 2.4 2.2 5 4.4 7.5 6.4.4.2.5 1 .2 1.3-.4.4-1 .5-1.4.2-2.7-2-5.3-4.3-7.7-6.6zm34.7 20c-.5-.2-.8-.7-.7-1.3.2-.5.7-.8 1.2-.6l4 1c.4 0 .7.7.6 1.2 0 .6-.5 1-1 .8l-4-1zm54.8-26.5c-.5.3-1 0-1.4-.3-.3-.5-.2-1 .3-1.4l3.2-2.3c.4-.3 1-.2 1.3.3.4.4.3 1-.2 1.4l-3.2 2.3zm13.8-12c-.4.3-1 .4-1.5 0-.3-.3-.3-1 0-1.4 4.3-5 7.7-10.6 10-16.7.2-.5.8-.8 1.3-.6.6.2.8.8.6 1.3-2.5 6.4-6 12.2-10.4 17.4zm11.6-21.3c0 .5-.7.8-1.2.7-.5-.3-.8-1-.7-1.4 1.4-4.4 2.2-9 2.6-13.5 0-.5.4-1 1-1 .5.2 1 .7 1 1.2-.5 4.8-1.3 9.5-2.8 14zM376 75c0 .6-.3 1-.8 1.2-.6.2-1 0-1.2-.7l-1.2-3.7c-.2-.5 0-1 .6-1.3.5-.2 1 0 1.3.6l1.2 4zm-7.5-16.7c.3.5.2 1-.3 1.4-.5.3-1 .2-1.4-.3-3.5-5.6-8-10.5-13-14.6-.5-.3-.6-1-.2-1.4.3-.4 1-.5 1.4 0 5.3 4 10 9.2 13.5 15zm-17-17.5c.6.3.7 1 .4 1.4-.4.4-1 .5-1.5.2-3.8-2.6-8-4.8-12.2-6.4-.5-.2-.7-.8-.5-1.3.2-.5.7-.8 1.3-.6 4.5 1.8 8.7 4 12.6 6.8zM319.4 30c.5 0 1 .5 1 1 0 .6-.6 1-1 1H315c-.5 0-1-.4-1-1 0-.5.4-1 1-1h4.1zM301 32c.7 0 1.2.3 1.4.8 0 .5-.2 1-.8 1.2-6.3 1.7-12.3 4.5-17.8 8.2-.4.3-1 .2-1.4-.3-.3-.5 0-1 .3-1.5 5.6-3.8 11.8-6.6 18.4-8.4zm-21.6 11c.5-.4 1-.3 1.4 0 .4.6.3 1.2 0 1.5-3.8 3-7 6-10 9.7-.3.4-1 .5-1.3.2-.5-.4-.5-1-.2-1.4 3-3.8 6.4-7 10-10zm-20 27.7c.3-.6.8-.8 1.4-.7.5.2.7.8.6 1.3-.5 1.3-1 2.5-1.2 3.8-.2.6-.7 1-1.3.8-.6-.2-1-.7-.8-1.3l1.3-3.8zm-3.4 18c0-.6.5-1 1-1 .6 0 1 .4 1 1V91c0 6 1 11.6 2.5 17 .2.7 0 1.2-.6 1.4-.7.2-1.2 0-1.4-.7C257 103 256 97 256 91v-2.4zm4 24c-.3-.6 0-1.2.5-1.4.5-.2 1 0 1.3.6 1.6 4.2 3.8 8.3 6.3 12 .5.6.3 1.2 0 1.5-.6.3-1.2.2-1.5-.3-2.7-4-5-8.2-6.6-12.6zm20.5 27.2c-.4-.4-.5-1-.2-1.5.4-.4 1-.5 1.4-.2 1 .8 2 1.5 3.2 2.2.4.3.5 1 .2 1.4-.3.4-1 .5-1.3.2-1.3-.7-2.4-1.5-3.5-2.3zm44.6-3.7c-.4 0-1-.3-1-.8 0-.6.2-1 .8-1.2l3.8-.8c.5-.2 1 0 1.2.7.2.5 0 1-.7 1.2l-4 1zm8-2.2c-.5.3-1 0-1.2-.5-.2-.5 0-1 .5-1.2 1.3-.5 2.5-1 3.6-1.6.4-.2 1 0 1.3.5s0 1-.5 1.3c-1.2.6-2.5 1.2-3.8 1.6zm7.4-3.4c-.4.3-1 0-1.3-.4-.2-.4 0-1 .4-1.3l3.3-2.3c.4-.3 1-.2 1.4.2.4.4.3 1 0 1.3l-3.6 2.3zm6.7-4.8c-.4.4-1 .3-1.4 0s-.3-1 0-1.5l3-2.7c.4-.4 1-.4 1.4 0 .4.4.4 1 0 1.4l-3 2.8zm5.8-6c-.4.6-1 .6-1.4.3-.5-.3-.5-1-.2-1.3.8-1 1.6-2 2.3-3.2.3-.4 1-.6 1.4-.2.4.3.5 1 .2 1.3l-2.4 3.3zm4.6-6.7c-.3.6-1 .8-1.4.5-.5-.3-.7-1-.4-1.4l1.7-3.4c.2-.5.8-.7 1.3-.5.5.3.8 1 .6 1.4l-1.8 3.7zm3.2-7.3c-.2.5-.7.8-1.3.6-.5 0-.8-.7-.6-1.2.4-1.2.8-2.4 1-3.7.2-.5.8-1 1.3-.7.5 0 1 .6.7 1.2l-1 4zm2-8c-.2.6-.7 1-1.2 1-.6-.2-1-.7-1-1.3.3-1.2.5-2.5.5-3.8 0-.6.4-1 1-1 .5 0 1 .5 1 1l-.5 4zm.4-8c0 .4-.4 1-1 1-.5 0-1-.5-1-1 0-1.4-.2-2.7-.3-4 0-.5.3-1 1-1 .4-.2 1 .2 1 .8l.3 4zm-1-8.3c0 .6-.2 1-.8 1.2-.5 0-1-.2-1.2-.8-.2-1.2-.6-2.5-1-3.7 0-.5.2-1 .7-1.2.6-.2 1 0 1.3.7l1 4zm-2.4-7.8c.2.5 0 1-.6 1.3-.5 0-1 0-1.3-.6-.4-1.2-1-2.4-1.6-3.6 0-.5 0-1 .5-1.3s1 0 1.4.4l1.6 3.6zm-3.8-7.3c.3.5.2 1-.3 1.4-.5.3-1 0-1.4-.3l-2-3.2c-.5-.5-.4-1 0-1.4.5-.4 1-.3 1.5.2l2.3 3.3zm-5-6.4c.4.3.4 1 0 1.3-.4.4-1 .3-1.4 0-1-1-1.8-2-2.8-2.8-.4-.4-.4-1 0-1.5.3-.4 1-.4 1.4 0l3 3zm-6-5.7c.4.4.5 1 .2 1.4-.4.5-1 .6-1.4.2-1-1-2-1.6-3.2-2.3-.5-.3-.7-1-.4-1.4.3-.4 1-.6 1.4-.3l3.4 2.3zm-7-4.3c.5.2.7.8.4 1.3-.2.5-.8.7-1.3.4l-3.7-1.6c-.5 0-.7-.7-.5-1.2.2-.5.8-.7 1.3-.5 1.3.5 2.6 1 3.8 1.7zm-7.5-3c.5 0 .8.7.7 1.2-.2.5-.7.8-1.3.7-1.2-.5-2.5-.8-3.8-1-.6-.2-1-.7-.8-1.3 0-.5.6-1 1.2-.7 1.3.2 2.6.6 4 1zm-8-1.7c.5 0 1 .6 1 1-.2.7-.7 1-1.2 1-1.2-.2-2.5-.2-3.8-.3-.6 0-1-.5-1-1 0-.6.5-1 1-1 1.4 0 2.7 0 4 .3zM314 45c.7 0 1 .5 1.2 1 0 .6-.4 1-1 1l-4 .5c-.4 0-1-.3-1-.8 0-.6.3-1 .8-1.2l4-.4zm-8 1.3c.5 0 1 .2 1.2.8 0 .6-.2 1-.7 1.3l-3.8 1c-.5.2-1 0-1.2-.6-.2-.5 0-1 .6-1.2 1.4-.5 2.7-1 4-1.2zm-7.7 2.7c.5-.2 1 0 1.3.5.2.5 0 1-.5 1.3-1 .5-2.3 1-3.4 1.8-.5.2-1 0-1.4-.4-.2-.5 0-1 .4-1.4 1.2-.7 2.4-1.3 3.7-1.8zm-7.2 4c.6-.4 1.2-.2 1.5.2.3.5.2 1-.2 1.4L289 57c-.3.3-1 .2-1.3-.2-.3-.4-.3-1 .2-1.4 1-1 2-1.7 3-2.5zm-6.2 5c.4-.2 1-.2 1.4.2.4.4.4 1 0 1.4l-2.7 2.8c-.3.5-1 .5-1.4 0-.3-.2-.3-.8 0-1.3l2.8-3zm-5.3 6.4c.3-.5 1-.6 1.4-.2.3.3.4 1 0 1.4-.7 1-1.4 2-2 3.2-.3.5-1 .7-1.4.4-.5-.3-.6-1-.4-1.4l2.3-3.4zm-4.2 7c.3-.4 1-.6 1.4-.4.5.2.7.8.4 1.3l-1.4 3.6c0 .5-.7.7-1.2.5-.6-.2-.8-.7-.6-1.2.4-1.3 1-2.6 1.5-3.8zm-2.7 7.7c0-.5.6-.8 1.2-.6.5 0 .8.7.7 1.2l-1 3.8c0 .6-.5 1-1 .8-.6 0-1-.6-.8-1 .2-1.5.5-2.8 1-4zm-1.4 8.2c0-.6.5-1 1-1 .6 0 1 .6 1 1-.2 1.3-.2 2.6-.2 3.8v.2c0 .6-.4 1-1 1-.5 0-1-.4-1-1V91c0-1.3 0-2.6.2-3.8zm0 8c0-.4.4-1 1-1 .5 0 1 .4 1 1 0 1.3.3 2.6.5 3.8 0 .6-.2 1-.8 1.2-.6 0-1-.3-1.2-.8-.3-1.3-.5-2.7-.6-4zm1.5 8.2c-.2-.5.2-1 .7-1.2.5-.2 1 0 1.2.7l1.2 3.6c.2.5 0 1-.5 1.3-.6 0-1-.2-1.3-.7-.5-1.3-1-2.6-1.3-4zm3 7.7c-.4-.4 0-1 .4-1.3.5-.2 1 0 1.4.5l1.8 3.4c.3.5.2 1-.3 1.4-.6.3-1.2 0-1.5-.3l-2-3.6zm4 7c-.2-.4 0-1 .3-1.4.5-.3 1-.2 1.4.3l2.4 3c.4.3.4 1 0 1.3-.5.4-1 .4-1.5 0-1-1-1.7-2.2-2.5-3.3zm5.5 6.2c-.4-.4-.4-1 0-1.4s1-.4 1.4 0c1 1 2 1.7 3 2.6.3.3.4 1 0 1.4-.3.4-1 .5-1.3 0-1-.7-2-1.6-3-2.6zm6.4 5.2c-.5-.3-.6-1-.3-1.4.3-.5 1-.6 1.4-.3l3.3 2c.5.3.7 1 .5 1.4-.3.5-1 .7-1.4.5l-3.4-2zm7.2 4c-.5-.4-.7-1-.5-1.5.2-.6.8-.8 1.3-.6l3.7 1.4c.5.2.8.8.6 1.3-.3.6-.8 1-1.4.7l-3.8-1.4zm7.7 2.4c-.5 0-1-.7-.8-1.2.2-.5.7-1 1.2-.8l3.8.8c.5 0 1 .6.8 1 0 .6-.5 1-1 1l-4-.8zM74.8 61.8c-4.5-2.6-7.6-7.6-7.6-13.3 0-8.4 6.8-15.3 15.3-15.3s15.3 7 15.3 15.3c0 5.7-3 10.7-7.6 13.3v3c0 .5-.5 1-1 1H75.8c-.5 0-1-.5-1-1v-3zm0 8.6c0-.6.5-1 1-1h13.4c.5 0 1 .5 1 1V75c0 .5-.5 1-1 1H75.8c-.5 0-1-.5-1-1v-4.6z" fill="#E6F5FB"/><path d="M85.3 51v-.6c0-2.8.6-4 1-4.3.4-.4 1-.4 1.4-.4h.4c.8 0 1.3.3 1.7 1 .4.4.6 1 .6 1.5 0 2-1 2.8-1.5 3h-3.5zM77 45.7c.5 0 1 0 1.5.5.3.5 1 1.6 1 4.4v.7h-3.6c-.7-.2-1.6-1-1.6-3 0-.2 0-1 .6-1.5.4-.6 1-1 1.6-1h.4zM88 44h-.3c-1 0-2 .5-2.5 1.2-1 1-1.3 2.6-1.3 5.2v.6h-3.2v-.6c0-2.6-.4-4.2-1.3-5.2-.5-.7-1.4-1-2.4-1h-.4c-1.5 0-2.5 1-2.8 1.4-.5.8-1 1.7-1 2.5.2 3.3 2.3 4.4 2.6 4.5h6.2V63H83V52.4h6.4c.2 0 2.3-1.2 2.4-4.4 0-.7-.4-1.6-1-2.4-.2-.4-1-1.5-2.7-1.5z" fill="#fff"/><path d="M75.3 61l.5.2v3.6h13.4v-3.6l.5-.3c4.3-2.6 7-7.3 7-12.5 0-8-6.3-14.3-14.2-14.3s-14.3 6.4-14.3 14.3c0 5.2 2.7 10 7 12.4zm-9-12.5c0-9 7.2-16.3 16.2-16.3s16.3 7.3 16.3 16.3c0 5.7-3 11-7.6 14v2.3c0 1-1 2-2 2H75.8c-1 0-2-1-2-2v-2.4c-4.7-3-7.6-8.2-7.6-14zM75.7 75h13.4v-4.6H75.8V75zm-2-4.6c0-1 1-2 2-2h13.4c1 0 2 1 2 2V75c0 1-1 2-2 2H75.8c-1 0-2-1-2-2v-4.6z" fill="#CBECF9"/><path d="M81.4 20c0-.5.5-1 1-1 .7 0 1.2.5 1.2 1v6.7c0 .6-.5 1-1 1-.7 0-1.2-.4-1.2-1V20zm-14.6 3.3c-.3-.6 0-1.2.4-1.5.5-.3 1.2 0 1.5.4L72 28c.3.4 0 1-.4 1.4-.6.3-1.2 0-1.5-.4L67 23.3zm31.4 0L95 29c-.4.5-1 .7-1.6.4-.5-.4-.7-1-.4-1.5l3.3-5.8c.3-.5 1-.7 1.5-.4.5.3.7 1 .4 1.5z" fill="#E6F5FB"/><g><path d="M48.5 118.2v-1-1l2-1.7c.3 0 .3-.4.2-.6l-2-3.6c0-.2-.4-.3-.6-.2l-2.5 1-1.7-1-.4-2.8c0-.2-.2-.4-.4-.4h-4c-.3 0-.6.2-.6.4l-.4 2.8c-.6.2-1 .6-1.8 1l-2.5-1c-.2 0-.4 0-.6.2l-2 3.5.2.6 2.2 1.6v2l-2.2 1.7c-.2 0-.2.3 0 .5l2 3.5c0 .2.3.3.6.2l2.5-1 1.8 1 .5 2.7s.2.3.5.3h4c.3 0 .6-.2.6-.4l.4-2.8c.6-.2 1.2-.6 1.7-1l2.6 1c.2 0 .5 0 .6-.2l2-3.5c0-.2 0-.5-.2-.6l-2.3-1.8zm-7.6 2.6c-2 0-3.6-1.7-3.6-3.6 0-2 1.6-3.6 3.5-3.6 2 0 3.5 1.7 3.5 3.6 0 2-1.6 3.6-3.6 3.6z" fill="#fff"/><path d="M51.2 119.3c.6.3.6 1 .3 1.5l-2 3.5c-.3.6-1 .8-1.5.6l-2.2-1c-.4.3-.8.6-1.2.7l-.3 2.3c0 .6-.7 1-1.2 1h-4c-.6 0-1.2-.4-1.2-1l-.4-2.3-1.2-.7-2.2 1c-.6 0-1.2 0-1.4-.6l-2-3.6c-.3-.5-.3-1.2.3-1.5l1.6-1.4v-.8-.7l-2-1.5c-.3-.4-.5-1 0-1.5l2-3.5c.4-.5 1-.7 1.3-.5l2.2 1 .5-.5.6-.3.4-2.4c0-.6.6-1 1.2-1h4c.6 0 1.2.5 1 1.2l.4 2.2 1.2.7 2.2-1c.5 0 1.2 0 1.5.6l2 3.6c.3.5.2 1.2-.3 1.5l-1.7 1.5v1.4l2 1.3zm-3 4.4zm.4 0zm-14.8 0zm-2.2-3.2zm2-9.6v-.2zm-.2-.2zm14.4 7.8v-.4-.6-.4-1.3l2.2-2-1.8-3-2.8 1-.3-.3-1.5-1h-.3l-.5-3H39l-.4 3h-.4l-.7.5-1 .6-.2.2-.3-.2-2.4-1-1.8 3.3L34 116v2.2l.2.5-2.4 1.8 2 3.2 2.7-1 .3.2 1.7 1h.2l.5 3H43l.4-3h.4l1.5-1 .3-.3.4.2 2.4 1 1.8-3.3-2.4-1.7zm-7 1.5c1.7 0 3-1.2 3-2.8s-1.3-3-3-3-2.7 1.4-2.7 3 1.4 3 3 3zm0 1.5c-2.2 0-4-2-4-4.3s1.8-4.3 4-4.3 4.4 2 4.4 4.2-2 4.3-4.3 4.3z" fill="#CBECF9"/><path d="M23 154l2.8 2c.2.2.2.6 0 .8l-2.4 4.5c-.2.2-.5.4-.8.2l-3.2-1.2c-.6.5-1.4 1-2.2 1.2l-.5 3.4s-.3.4-.6.4h-5c-.4 0-.6-.3-.6-.5l-.6-3.5c-.7-.3-1.5-.7-2-1.2l-3.3 1.2c-.4.2-.6 0-.8-.2l-2.5-4.5v-.7l2.8-2v-1.2-1.3l-2.7-2c-.2-.3-.4-.7-.2-.8l2.6-4.5c.3-.2.5-.4.8-.2l3.2 1.2c.7-.5 1.4-1 2-1.2l.6-3.5c0-.2.4-.5.7-.5h5c.2 0 .6.3.5.5l.5 3.5c.8.3 1.5.7 2.2 1.2l3-1.2c.4-.2.8 0 1 .2l2.5 4.5c0 .2 0 .6-.2.7l-2.6 2V154zm-9.6 3.2c2.4 0 4.5-2 4.5-4.4s-2.2-4.5-4.6-4.5-4.4 2-4.4 4.5 2 4.4 4.4 4.4z" fill="#E6F5FB"/><path d="M26.3 155.3c.7.4.7 1.3.4 2l-2.5 4.4c-.4.7-1.3 1-2 .7l-2.6-1-1.5.8-.4 2.8c0 .7-.8 1.3-1.5 1.3h-5c-.8 0-1.5-.6-1.5-1.3l-.5-3-1.5-.7-2.7 1c-.8.4-1.5 0-2-.6l-2.4-4.5c-.4-.6-.3-1.5.4-2l2.2-1.5v-1-.8L.8 150c-.7-.7-1-1.5-.5-2l2.6-4.5c.5-.6 1-1 1.7-.6l2.7 1.2.8-.5.7-.4.3-3c0-.6 1-1.2 1.6-1.2h5c.7 0 1.6.7 1.4 1.6l.4 2.8 1.5.8 2.6-1c.6-.4 1.6 0 2 .6l2.5 4.5c.3.6.2 1.5-.5 2l-2.2 1.5v1.8l2.5 1.7zm-3.7 5.5zm.4 0zm-11.7 4zm-6.8-4zm-.3-16zm18.5 0zM5 151v.5l-.2.7v1.6l.2.6-3 2.2 2.4 4 3.4-1.4.4.4 2 1 .5.4.5 3.5H16l.4-3.6.6-.3 2-1 .3-.5.4.2 3 1.2 2.3-4-3-2v-.6-.7-.5-1l-.2-.6 3-2.3-2.3-4-3.5 1.3-.4-.4-2-1.2-.4-.3-.6-3.6H11l-.5 3.6-.5.2c-.3 0-.5.2-1 .5l-1 .7-.3.2h-.5l-3-1.3-2.2 3.8 3 2.2zm8.4 5.3c2 0 3.6-1.6 3.6-3.5 0-2-1.7-3.6-3.6-3.6-2 0-3.5 1.6-3.5 3.6s1.5 3.5 3.4 3.5zm0 1.8c-3 0-5.3-2.3-5.3-5.2 0-3 2.5-5.4 5.4-5.4 3 0 5.4 2.4 5.4 5.4 0 3-2.5 5.3-5.4 5.3z" fill="#CBECF9"/><g><path d="M334.2 93.8l.2-2.3c0-1 0-1.7-.2-2.4l5-3.6c.4-.3.4-1 .2-1.4l-4.7-8.3c-.3-.4-1-.7-1.4-.4l-6 2.3c-1-1-2.5-1.6-4-2.3l-.8-6.4c.2-.5-.5-1-1-1h-9.3c-.5 0-1.2.5-1.2 1l-1 6.3c-1.4.4-2.5 1.4-4 2.3l-5.8-2.3c-.5-.3-1 0-1.4.4L294 84c0 .2 0 1 .6 1.4l5 3.7c0 .8-.3 1.5-.3 2.5s0 1.6.2 2.3l-5 3.8c-.4.2-.4 1-.2 1.4l4.7 8.2c.3.5.7.7 1.4.5l6-2.4c1 1 2.5 1.6 4 2.4l.8 6c0 .5.5 1 1.2 1h9.4c.4 0 1-.5 1-1l1-6c1.5-.5 3-1.5 4-2.4l6 2.4c.4.2 1 0 1.4-.5l4.6-8.2c.3-.5.3-1.2-.2-1.4l-5.4-3.8zm-17.3 6c-4.6 0-8.4-4-8.4-8.3s3.8-8.2 8.3-8.2 8 3.7 8 8.2-3.7 8.2-8 8.2z" fill="#E6F5FB"/><path d="M340 96.7c1 .5 1.2 1.8.7 2.8l-4.7 8c-.4 1-1.7 1.5-2.6 1l-5.4-2c-1 .8-2.2 1.4-3.2 2l-1 5.4c0 1-1 1.7-2 1.7h-9.4c-1.2 0-2-.8-2.2-2l-.8-5.4c-1.6-.8-2.5-1.3-3.3-2l-5.3 2.3c-1 .4-2 0-2.6-1l-4.6-8.2c-.4-1-.3-2 .6-2.7l4.4-3.3v-2V89.8l-4.4-3.4c-1-1-1.3-2-.7-2.8L298 75c1-.7 1.7-1 2.6-.7l5.3 2.2c.4-.3 1.2-1 1.5-1l1.6-1 1-5.7c0-1 1.2-1.8 2.2-1.8h9.3c1 0 2.3 1 2 2l.8 5.6c1.6.8 2.5 1.3 3.3 2l5.2-2.2c1-.5 2.3 0 2.8.8l4.7 8.3c.4 1 .3 2.2-.6 2.7l-4.4 3.3V93.2l4.8 3.4zm-.8 1.8zm-44.2 0zm43.7-14zm-17.2-15.7v.2-.2zm12.3 7.4h-.2l-6.4 2.6-.4-.4c-1-.7-1.8-1.2-3.8-2.2l-.5-.3-1-7H312l-1 7-.6.2c-.6.2-1 .5-1.8 1-.4.2-1.8 1-2 1.3l-.4.2h-.5l-6-2.5v.2l-4.7 8 .2.2 5.3 4v1.9l-.2 1c0 1.2 0 1.6.2 2.4v-.3l.2.7-5.5 4.2 4.7 8.3 6.5-2.5.4.3c.8.8 1.7 1.2 3.7 2.3l.5.2 1 6.6v.2h9.6v-.2l.2.2v-.2l1-6.7.6-.3c1-.4 2.4-1 3.7-2.2l.4-.3.5.2 6 2.4 4.8-8.3-5.8-4.2v-.5-1.2l.2-1c0-1.3 0-1.7-.2-2.5v.4l-.2-.6 5.5-4.2-4.7-8.4zm-17 22.5c4 0 7.3-3.3 7.3-7.2 0-4-3.2-7.2-7-7.2-4 0-7.4 3.3-7.4 7.2 0 4 3.3 7.2 7.3 7.2zm0 2c-5 0-9.2-4.2-9.2-9.2s4.2-9.2 9.3-9.2 9 4.2 9 9.2-4 9.2-9 9.2z" fill="#CBECF9"/></g></g></g></svg>