<svg width="152" height="102" viewBox="0 0 152 102" xmlns="http://www.w3.org/2000/svg">
  <g xmlns="http://www.w3.org/2000/svg" id="code">
      <rect id="Rectangle-25" fill="#FFFFFF" x="1" y="1" width="150" height="100" rx="2"/>
      <path d="M143,1 L148.992981,1 C150.101427,1 151,1.89505147 151,2.99753791 L151,99.0024621 C151,100.105672 150.100155,101 148.992981,101 L3.00701877,101 C1.89857291,101 1,100.104949 1,99.0024621 L1,93 L140.992981,93 C142.100155,93 143,92.1056718 143,91.0024621 L143,1 Z" id="Combined-Shape" fill="#E6F5FB"/>
      <path d="M1,3.0085302 C1,1.8992496 1.89984519,1 3.00701877,1 L148.992981,1 C150.101427,1 151,1.90195036 151,3.0085302 L151,13 L1,13 L1,3.0085302 Z" id="Rectangle-25" fill="#97D9F2"/>
      <path d="M7,9 C5.8954305,9 5,8.1045695 5,7 C5,5.8954305 5.8954305,5 7,5 C8.1045695,5 9,5.8954305 9,7 C9,8.1045695 8.1045695,9 7,9 Z M15,9 C13.8954305,9 13,8.1045695 13,7 C13,5.8954305 13.8954305,5 15,5 C16.1045695,5 17,5.8954305 17,7 C17,8.1045695 16.1045695,9 15,9 Z M23,9 C21.8954305,9 21,8.1045695 21,7 C21,5.8954305 21.8954305,5 23,5 C24.1045695,5 25,5.8954305 25,7 C25,8.1045695 24.1045695,9 23,9 Z" id="Combined-Shape" fill="#CBECF9"/>
      <path d="M11,23 L31,23 L31,27 L11,27 L11,23 Z M11,71 L31,71 L31,75 L11,75 L11,71 Z M31,35 L141,35 L141,39 L31,39 L31,35 Z M31,59 L71,59 L71,63 L31,63 L31,59 Z M41,47 L91,47 L91,51 L41,51 L41,47 Z" id="Combined-Shape" fill="#CBECF9"/>
      <path d="M2,2.99753791 L2,99.0024621 C2,99.5519071 2.45010709,100 3.00701877,100 L148.992981,100 C149.549464,100 150,99.5517886 150,99.0024621 L150,2.99753791 C150,2.4480929 149.549893,2 148.992981,2 L3.00701877,2 C2.45053588,2 2,2.44821135 2,2.99753791 Z M0,2.99753791 C0,1.3413193 1.34827568,0 3.00701877,0 L148.992981,0 C150.652459,0 152,1.34151044 152,2.99753791 L152,99.0024621 C152,100.658681 150.651724,102 148.992981,102 L3.00701877,102 C1.34754059,102 0,100.65849 0,99.0024621 L0,2.99753791 Z M150,12 L150,3.0085302 C150,2.45292635 149.547834,2 148.992981,2 L3.00701877,2 C2.45176106,2 2,2.45190339 2,3.0085302 L2,12 L150,12 Z M0,3.0085302 C0,1.3474749 1.3470505,0 3.00701877,0 L148.992981,0 C150.653157,0 152,1.34910883 152,3.0085302 L152,14 L0,14 L0,3.0085302 Z" id="Combined-Shape" fill="#00A1DE" fill-rule="nonzero"/>
  </g>
</svg>
