<svg width="117" height="20" viewBox="0 0 117 20" xmlns="http://www.w3.org/2000/svg"><g><rect id="Rectangle-27" fill="#fff" x="1" y="1" width="115" height="18" rx="2"/><rect id="Rectangle-27" fill="#97D9F2" x="5" y="4" width="2" height="12" rx="1"/><path d="M86 1h28.008c1.1 0 1.992.893 1.992 1.995v14.01c0 1.102-.898 1.995-1.992 1.995h-28.008v-18z" fill="#97D9F2"/><path d="M101.424 12.476c-1.447.903-3.376.725-4.633-.533-1.464-1.464-1.464-3.838 0-5.302 1.464-1.464 3.838-1.464 5.302 0 1.258 1.258 1.435 3.186.533 4.633l2.082 2.082c.331.331.328.876.001 1.203-.331.331-.874.328-1.203-.001l-2.082-2.082zm-.391-1.593c.879-.879.879-2.303 0-3.181-.879-.879-2.303-.879-3.181 0-.879.879-.879 2.303 0 3.181.879.879 2.303.879 3.181 0z" fill="#fff"/><path d="M2 2.995v14.01c0 .55.446.995.996.995h111.008c.551 0 .996-.445.996-.995v-14.01c0-.55-.446-.995-.996-.995h-111.008c-.551 0-.996.445-.996.995zm-2 0c0-1.655 1.341-2.995 2.996-2.995h111.008c1.655 0 2.996 1.34 2.996 2.995v14.01c0 1.655-1.341 2.995-2.996 2.995h-111.008c-1.655 0-2.996-1.34-2.996-2.995v-14.01zm87-.995v16h27.008c.544 0 .992-.448.992-.995v-14.01c0-.55-.444-.995-.992-.995h-27.008zm27.008-2c1.653 0 2.992 1.341 2.992 2.995v14.01c0 1.652-1.344 2.995-2.992 2.995h-29.008v-20h29.008z" fill="#00A1DE"/></g></svg>