<svg width="398" height="172" viewBox="0 0 398 172" xmlns="http://www.w3.org/2000/svg"><title>img_open_source</title><desc>Created with Sketch.</desc><g fill="none"><g fill="#E6F5FB"><path d="M198.438 155.312c.31-.457.814-.455 1.122 0l5.327 7.86c.31.457.117.828-.43.828h-10.917c-.547 0-.738-.373-.43-.828l5.327-7.86z"/><path d="M74.439 66.677c.309.457.811.454 1.119 0l5.311-7.85c.309-.457.102-.827-.45-.827h-10.842c-.557 0-.757.373-.45.827l5.311 7.85z"/><path d="M90.692 128c.552 0 1 .448 1 1s-.448 1-1 1h-4c-.552 0-1-.448-1-1s.448-1 1-1h4zm-8 0h-4c-.552 0-1 .448-1 1s.448 1 1 1h4c.552 0 1-.448 1-1s-.448-1-1-1zm-8 0h-4c-.552 0-1 .448-1 1s.448 1 1 1h4c.552 0 1-.448 1-1s-.448-1-1-1zm-8 0h-4c-.552 0-1 .448-1 1s.448 1 1 1h4c.552 0 1-.448 1-1s-.448-1-1-1zm-8 0h-4c-.552 0-1 .448-1 1s.448 1 1 1h4c.552 0 1-.448 1-1s-.448-1-1-1zm-8 0h-4c-.552 0-1 .448-1 1s.448 1 1 1h4c.552 0 1-.448 1-1s-.448-1-1-1zm-8 0h-4c-.552 0-1 .448-1 1s.448 1 1 1h4c.552 0 1-.448 1-1s-.448-1-1-1zm-8 0h-4c-.552 0-1 .448-1 1s.448 1 1 1h4c.552 0 1-.448 1-1s-.448-1-1-1zm-8 0h-4c-.552 0-1 .448-1 1s.448 1 1 1h4c.552 0 1-.448 1-1s-.448-1-1-1zm-8 0h-4c-.552 0-1 .448-1 1s.448 1 1 1h4c.552 0 1-.448 1-1s-.448-1-1-1zm-8 0h-4c-.552 0-1 .448-1 1s.448 1 1 1h4c.552 0 1-.448 1-1s-.448-1-1-1zm-7.848-.012c-.479-.073-.839-.485-.845-.979v-1.255c0-.552-.448-1-1-1s-1 .448-1 1v1.266c.016 1.487 1.097 2.724 2.542 2.945.546.084 1.056-.291 1.14-.837.084-.546-.291-1.056-.837-1.14zm-.845-6.234v-4c0-.552-.448-1-1-1s-1 .448-1 1v4c0 .552.448 1 1 1s1-.448 1-1zm0-8v-4c0-.552-.448-1-1-1s-1 .448-1 1v4c0 .552.448 1 1 1s1-.448 1-1zm0-8v-4c0-.552-.448-1-1-1s-1 .448-1 1v4c0 .552.448 1 1 1s1-.448 1-1zm0-8v-4c0-.552-.448-1-1-1s-1 .448-1 1v4c0 .552.448 1 1 1s1-.448 1-1zm0-8v-4c0-.552-.448-1-1-1s-1 .448-1 1v4c0 .552.448 1 1 1s1-.448 1-1zm0-8v-4c0-.552-.448-1-1-1s-1 .448-1 1v4c0 .552.448 1 1 1s1-.448 1-1zm0-8v-4c0-.552-.448-1-1-1s-1 .448-1 1v4c0 .552.448 1 1 1s1-.448 1-1zm0-8v-4c0-.552-.448-1-1-1s-1 .448-1 1v4c0 .552.448 1 1 1s1-.448 1-1zm0-8v-4c0-.552-.448-1-1-1s-1 .448-1 1v4c0 .552.448 1 1 1s1-.448 1-1zm0-8v-4c0-.552-.448-1-1-1s-1 .448-1 1v4c0 .552.448 1 1 1s1-.448 1-1zm0-8v-4c0-.552-.448-1-1-1s-1 .448-1 1v4c0 .552.448 1 1 1s1-.448 1-1zm0-8v-.752c0-.55.453-1.002 1.001-1.002h.185c.552 0 1-.448 1-1s-.448-1-1-1h-.185c-1.652 0-3.001 1.346-3.001 3.002v.752c0 .552.448 1 1 1s1-.448 1-1zm5.186-1.754h4c.552 0 1-.448 1-1s-.448-1-1-1h-4c-.552 0-1 .448-1 1s.448 1 1 1zm8 0h4c.552 0 1-.448 1-1s-.448-1-1-1h-4c-.552 0-1 .448-1 1s.448 1 1 1zm8 0h4c.552 0 1-.448 1-1s-.448-1-1-1h-4c-.552 0-1 .448-1 1s.448 1 1 1zm8 0h4c.552 0 1-.448 1-1s-.448-1-1-1h-4c-.552 0-1 .448-1 1s.448 1 1 1zm8 0h4c.552 0 1-.448 1-1s-.448-1-1-1h-4c-.552 0-1 .448-1 1s.448 1 1 1zm8 0h4c.552 0 1-.448 1-1s-.448-1-1-1h-4c-.552 0-1 .448-1 1s.448 1 1 1zm8 0h4c.552 0 1-.448 1-1s-.448-1-1-1h-4c-.552 0-1 .448-1 1s.448 1 1 1zm8 0h4c.552 0 1-.448 1-1s-.448-1-1-1h-4c-.552 0-1 .448-1 1s.448 1 1 1zm8 0h4c.552 0 1-.448 1-1s-.448-1-1-1h-4c-.552 0-1 .448-1 1s.448 1 1 1zm8 0h4c.552 0 1-.448 1-1s-.448-1-1-1h-4c-.552 0-1 .448-1 1s.448 1 1 1zm8 0h4c.552 0 1-.448 1-1s-.448-1-1-1h-4c-.552 0-1 .448-1 1s.448 1 1 1zm8 0h4c.552 0 1-.448 1-1s-.448-1-1-1h-4c-.552 0-1 .448-1 1s.448 1 1 1zm8 0h4c.552 0 1-.448 1-1s-.448-1-1-1h-4c-.552 0-1 .448-1 1s.448 1 1 1zm8 0h4c.552 0 1-.448 1-1s-.448-1-1-1h-4c-.552 0-1 .448-1 1s.448 1 1 1zm8 0h4c.552 0 1-.448 1-1s-.448-1-1-1h-4c-.552 0-1 .448-1 1s.448 1 1 1zm8 0h4c.552 0 1-.448 1-1s-.448-1-1-1h-4c-.552 0-1 .448-1 1s.448 1 1 1zm8 0h4c.552 0 1-.448 1-1s-.448-1-1-1h-4c-.552 0-1 .448-1 1s.448 1 1 1zm8 0h4c.552 0 1-.448 1-1s-.448-1-1-1h-4c-.552 0-1 .448-1 1s.448 1 1 1zm8 0h4c.552 0 1-.448 1-1s-.448-1-1-1h-4c-.552 0-1 .448-1 1s.448 1 1 1zm8 0h4c.552 0 1-.448 1-1s-.448-1-1-1h-4c-.552 0-1 .448-1 1s.448 1 1 1zm8 0h4c.552 0 1-.448 1-1s-.448-1-1-1h-4c-.552 0-1 .448-1 1s.448 1 1 1zm8 0h4c.552 0 1-.448 1-1s-.448-1-1-1h-4c-.552 0-1 .448-1 1s.448 1 1 1zm8 0h4c.552 0 1-.448 1-1s-.448-1-1-1h-4c-.552 0-1 .448-1 1s.448 1 1 1zm8 0h4c.552 0 1-.448 1-1s-.448-1-1-1h-4c-.552 0-1 .448-1 1s.448 1 1 1zm8 0h4c.552 0 1-.448 1-1s-.448-1-1-1h-4c-.552 0-1 .448-1 1s.448 1 1 1zm8 0h4c.552 0 1-.448 1-1s-.448-1-1-1h-4c-.552 0-1 .448-1 1s.448 1 1 1zm8 0h4c.552 0 1-.448 1-1s-.448-1-1-1h-4c-.552 0-1 .448-1 1s.448 1 1 1zm8 0h4c.552 0 1-.448 1-1s-.448-1-1-1h-4c-.552 0-1 .448-1 1s.448 1 1 1zm8 0h4c.552 0 1-.448 1-1s-.448-1-1-1h-4c-.552 0-1 .448-1 1s.448 1 1 1zm8 0h4c.552 0 1-.448 1-1s-.448-1-1-1h-4c-.552 0-1 .448-1 1s.448 1 1 1zm8 0h4c.552 0 1-.448 1-1s-.448-1-1-1h-4c-.552 0-1 .448-1 1s.448 1 1 1zm8 0h4c.552 0 1-.448 1-1s-.448-1-1-1h-4c-.552 0-1 .448-1 1s.448 1 1 1zm8 0h4c.552 0 1-.448 1-1s-.448-1-1-1h-4c-.552 0-1 .448-1 1s.448 1 1 1zm8 0h4c.552 0 1-.448 1-1s-.448-1-1-1h-4c-.552 0-1 .448-1 1s.448 1 1 1zm8 0h4c.552 0 1-.448 1-1s-.448-1-1-1h-4c-.552 0-1 .448-1 1s.448 1 1 1zm8 0h4c.552 0 1-.448 1-1s-.448-1-1-1h-4c-.552 0-1 .448-1 1s.448 1 1 1zm8 0h4c.552 0 1-.448 1-1s-.448-1-1-1h-4c-.552 0-1 .448-1 1s.448 1 1 1zm8 0h4c.552 0 1-.448 1-1s-.448-1-1-1h-4c-.552 0-1 .448-1 1s.448 1 1 1zm8 0h4c.552 0 1-.448 1-1s-.448-1-1-1h-4c-.552 0-1 .448-1 1s.448 1 1 1zm8 0h4c.552 0 1-.448 1-1s-.448-1-1-1h-4c-.552 0-1 .448-1 1s.448 1 1 1zm8 0h4c.552 0 1-.448 1-1s-.448-1-1-1h-4c-.552 0-1 .448-1 1s.448 1 1 1zm8 0h4c.552 0 1-.448 1-1s-.448-1-1-1h-4c-.552 0-1 .448-1 1s.448 1 1 1zm8 0h4c.552 0 1-.448 1-1s-.448-1-1-1h-4c-.552 0-1 .448-1 1s.448 1 1 1zm8 0h4c.552 0 1-.448 1-1s-.448-1-1-1h-4c-.552 0-1 .448-1 1s.448 1 1 1zm8 0h4c.552 0 1-.448 1-1s-.448-1-1-1h-4c-.552 0-1 .448-1 1s.448 1 1 1zm8 0h4c.552 0 1-.448 1-1s-.448-1-1-1h-4c-.552 0-1 .448-1 1s.448 1 1 1zm8 0h4c.552 0 1-.448 1-1s-.448-1-1-1h-4c-.552 0-1 .448-1 1s.448 1 1 1zm8 0h4c.552 0 1-.448 1-1s-.448-1-1-1h-4c-.552 0-1 .448-1 1s.448 1 1 1zm8 0h3.812l.095.004c.55.051 1.037-.354 1.088-.904.051-.55-.354-1.037-.904-1.088l-.28-.013h-3.812c-.552 0-1 .448-1 1s.448 1 1 1zm4.814 2.125v4c0 .552.448 1 1 1s1-.448 1-1v-4c0-.552-.448-1-1-1s-1 .448-1 1zm0 8v4c0 .552.448 1 1 1s1-.448 1-1v-4c0-.552-.448-1-1-1s-1 .448-1 1zm0 8v4c0 .552.448 1 1 1s1-.448 1-1v-4c0-.552-.448-1-1-1s-1 .448-1 1zm0 8v4c0 .552.448 1 1 1s1-.448 1-1v-4c0-.552-.448-1-1-1s-1 .448-1 1zm0 8v4c0 .552.448 1 1 1s1-.448 1-1v-4c0-.552-.448-1-1-1s-1 .448-1 1zm0 8v4c0 .552.448 1 1 1s1-.448 1-1v-4c0-.552-.448-1-1-1s-1 .448-1 1zm0 8v4c0 .552.448 1 1 1s1-.448 1-1v-4c0-.552-.448-1-1-1s-1 .448-1 1zm0 8v4c0 .552.448 1 1 1s1-.448 1-1v-4c0-.552-.448-1-1-1s-1 .448-1 1zm0 8v4c0 .552.448 1 1 1s1-.448 1-1v-4c0-.552-.448-1-1-1s-1 .448-1 1zm0 8v4c0 .552.448 1 1 1s1-.448 1-1v-4c0-.552-.448-1-1-1s-1 .448-1 1zm0 8v4c0 .552.448 1 1 1s1-.448 1-1v-4c0-.552-.448-1-1-1s-1 .448-1 1zm0 8v4c0 .552.448 1 1 1s1-.448 1-1v-4c0-.552-.448-1-1-1s-1 .448-1 1zm-1.065 5.875h-4c-.552 0-1 .448-1 1s.448 1 1 1h4c.552 0 1-.448 1-1s-.448-1-1-1zm-8 0h-4c-.552 0-1 .448-1 1s.448 1 1 1h4c.552 0 1-.448 1-1s-.448-1-1-1zm-8 0h-4c-.552 0-1 .448-1 1s.448 1 1 1h4c.552 0 1-.448 1-1s-.448-1-1-1zm-8 0h-4c-.552 0-1 .448-1 1s.448 1 1 1h4c.552 0 1-.448 1-1s-.448-1-1-1zm-8 0h-4c-.552 0-1 .448-1 1s.448 1 1 1h4c.552 0 1-.448 1-1s-.448-1-1-1zm-8 0h-4c-.552 0-1 .448-1 1s.448 1 1 1h4c.552 0 1-.448 1-1s-.448-1-1-1zm-8 0h-4c-.552 0-1 .448-1 1s.448 1 1 1h4c.552 0 1-.448 1-1s-.448-1-1-1zm-8 0h-4c-.552 0-1 .448-1 1s.448 1 1 1h4c.552 0 1-.448 1-1s-.448-1-1-1zm-8 0h-4c-.552 0-1 .448-1 1s.448 1 1 1h4c.552 0 1-.448 1-1s-.448-1-1-1zm-8 0h-4c-.552 0-1 .448-1 1s.448 1 1 1h4c.552 0 1-.448 1-1s-.448-1-1-1zm-8 0h-4c-.552 0-1 .448-1 1s.448 1 1 1h4c.552 0 1-.448 1-1s-.448-1-1-1zm-8 0h-4c-.552 0-1 .448-1 1s.448 1 1 1h4c.552 0 1-.448 1-1s-.448-1-1-1zm-8 0h-4c-.552 0-1 .448-1 1s.448 1 1 1h4c.552 0 1-.448 1-1s-.448-1-1-1zm-8 0h-4c-.552 0-1 .448-1 1s.448 1 1 1h4c.552 0 1-.448 1-1s-.448-1-1-1zm-8 0h-4c-.552 0-1 .448-1 1s.448 1 1 1h4c.552 0 1-.448 1-1s-.448-1-1-1zm-8 0h-4c-.552 0-1 .448-1 1s.448 1 1 1h4c.552 0 1-.448 1-1s-.448-1-1-1zm-8 0h-4c-.552 0-1 .448-1 1s.448 1 1 1h4c.552 0 1-.448 1-1s-.448-1-1-1zm-8 0h-4c-.552 0-1 .448-1 1s.448 1 1 1h4c.552 0 1-.448 1-1s-.448-1-1-1zm-8 0h-4c-.552 0-1 .448-1 1s.448 1 1 1h4c.552 0 1-.448 1-1s-.448-1-1-1zm-8 0h-4c-.552 0-1 .448-1 1s.448 1 1 1h4c.552 0 1-.448 1-1s-.448-1-1-1zm-8 0h-4c-.552 0-1 .448-1 1s.448 1 1 1h4c.552 0 1-.448 1-1s-.448-1-1-1zm-8 0h-4c-.552 0-1 .448-1 1s.448 1 1 1h4c.552 0 1-.448 1-1s-.448-1-1-1zm-8 0h-4c-.552 0-1 .448-1 1s.448 1 1 1h4c.552 0 1-.448 1-1s-.448-1-1-1zm-8 0h-4c-.552 0-1 .448-1 1s.448 1 1 1h4c.552 0 1-.448 1-1s-.448-1-1-1zm-8 0h-4c-.552 0-1 .448-1 1s.448 1 1 1h4c.552 0 1-.448 1-1s-.448-1-1-1zm-8 0h-4c-.552 0-1 .448-1 1s.448 1 1 1h4c.552 0 1-.448 1-1s-.448-1-1-1zm-8 0h-4c-.552 0-1 .448-1 1s.448 1 1 1h4c.552 0 1-.448 1-1s-.448-1-1-1zm-8 0h-4c-.552 0-1 .448-1 1s.448 1 1 1h4c.552 0 1-.448 1-1s-.448-1-1-1zm-8 0h-4c-.552 0-1 .448-1 1s.448 1 1 1h4c.552 0 1-.448 1-1s-.448-1-1-1zm-8 0h-4c-.552 0-1 .448-1 1s.448 1 1 1h4c.552 0 1-.448 1-1s-.448-1-1-1zm-8 0h-4c-.552 0-1 .448-1 1s.448 1 1 1h4c.552 0 1-.448 1-1s-.448-1-1-1zm-8 0h-4c-.552 0-1 .448-1 1s.448 1 1 1h4c.552 0 1-.448 1-1s-.448-1-1-1zm-8 0h-4c-.552 0-1 .448-1 1s.448 1 1 1h4c.552 0 1-.448 1-1s-.448-1-1-1zm-8 0h-4c-.552 0-1 .448-1 1s.448 1 1 1h4c.552 0 1-.448 1-1s-.448-1-1-1zm-8 0h-4c-.552 0-1 .448-1 1s.448 1 1 1h4c.552 0 1-.448 1-1s-.448-1-1-1zm-8 0h-4c-.552 0-1 .448-1 1s.448 1 1 1h4c.552 0 1-.448 1-1s-.448-1-1-1zm-8 0h-4c-.552 0-1 .448-1 1s.448 1 1 1h4c.552 0 1-.448 1-1s-.448-1-1-1zm-8 0h-4c-.552 0-1 .448-1 1s.448 1 1 1h4c.552 0 1-.448 1-1s-.448-1-1-1zm242.065 13.002c0-1.662 1.338-3.002 3.006-3.002h.93c.552 0 1 .448 1 1s-.448 1-1 1h-.93c-.563 0-1.006.444-1.006 1.002v2.246c0 .552-.448 1-1 1s-1-.448-1-1v-2.246zm-250.065-13.002c.552 0 1 .448 1 1s-.448 1-1 1h-.242c-.552 0-1-.448-1-1s.448-1 1-1h.242zm240.065-38c0-.552.448-1 1-1s1 .448 1 1v4c0 .552-.448 1-1 1s-1-.448-1-1v-4zm0 8c0-.552.448-1 1-1s1 .448 1 1v4c0 .552-.448 1-1 1s-1-.448-1-1v-4zm0 8c0-.552.448-1 1-1s1 .448 1 1v4c0 .552-.448 1-1 1s-1-.448-1-1v-4zm0 8c0-.552.448-1 1-1s1 .448 1 1v4c0 .552-.448 1-1 1s-1-.448-1-1v-4zm0 8c0-.552.448-1 1-1s1 .448 1 1v4c0 .552-.448 1-1 1s-1-.448-1-1v-4zm0 8c0-.552.448-1 1-1s1 .448 1 1v4c0 .552-.448 1-1 1s-1-.448-1-1v-4zm0 8c0-.552.448-1 1-1s1 .448 1 1v4c0 .552-.448 1-1 1s-1-.448-1-1v-4zm0 8c0-.552.448-1 1-1s1 .448 1 1v4c0 .552-.448 1-1 1s-1-.448-1-1v-4zm0 8c0-.552.448-1 1-1s1 .448 1 1v4c0 .552-.448 1-1 1s-1-.448-1-1v-4zm0 8c0-.552.448-1 1-1s1 .448 1 1v4c0 .552-.448 1-1 1s-1-.448-1-1v-4zm-.124 7.486c.267-.484.875-.66 1.358-.393.484.267.66.875.393 1.358-.523.948-1.519 1.549-2.625 1.549h-1.939c-.552 0-1-.448-1-1s.448-1 1-1h1.939c.371 0 .699-.198.873-.514zm-6.813.514c.552 0 1 .448 1 1s-.448 1-1 1h-4c-.552 0-1-.448-1-1s.448-1 1-1h4zm-8 0c.552 0 1 .448 1 1s-.448 1-1 1h-4c-.552 0-1-.448-1-1s.448-1 1-1h4zm-8 0c.552 0 1 .448 1 1s-.448 1-1 1h-4c-.552 0-1-.448-1-1s.448-1 1-1h4zm-8 0c.552 0 1 .448 1 1s-.448 1-1 1h-4c-.552 0-1-.448-1-1s.448-1 1-1h4zm-8 0c.552 0 1 .448 1 1s-.448 1-1 1h-4c-.552 0-1-.448-1-1s.448-1 1-1h4zm-8 0c.552 0 1 .448 1 1s-.448 1-1 1h-4c-.552 0-1-.448-1-1s.448-1 1-1h4zm-8 0c.552 0 1 .448 1 1s-.448 1-1 1h-4c-.552 0-1-.448-1-1s.448-1 1-1h4zm-8 0c.552 0 1 .448 1 1s-.448 1-1 1h-4c-.552 0-1-.448-1-1s.448-1 1-1h4zm-8 0c.552 0 1 .448 1 1s-.448 1-1 1h-4c-.552 0-1-.448-1-1s.448-1 1-1h4zm-8 0c.552 0 1 .448 1 1s-.448 1-1 1h-4c-.552 0-1-.448-1-1s.448-1 1-1h4zm-8 0c.552 0 1 .448 1 1s-.448 1-1 1h-4c-.552 0-1-.448-1-1s.448-1 1-1h4zm-8 0c.552 0 1 .448 1 1s-.448 1-1 1h-4c-.552 0-1-.448-1-1s.448-1 1-1h4zm-8 0c.552 0 1 .448 1 1s-.448 1-1 1h-4c-.552 0-1-.448-1-1s.448-1 1-1h4zm-8 0c.552 0 1 .448 1 1s-.448 1-1 1h-4c-.552 0-1-.448-1-1s.448-1 1-1h4zm-8 0c.552 0 1 .448 1 1s-.448 1-1 1h-4c-.552 0-1-.448-1-1s.448-1 1-1h4zm-8 0c.552 0 1 .448 1 1s-.448 1-1 1h-.063c-.552 0-1-.448-1-1s.448-1 1-1h.063zm144.873-30c-.552 0-1-.448-1-1s.448-1 1-1h4c.552 0 1 .448 1 1s-.448 1-1 1h-4zm8 0c-.552 0-1-.448-1-1s.448-1 1-1h4c.552 0 1 .448 1 1s-.448 1-1 1h-4zm8 0c-.552 0-1-.448-1-1s.448-1 1-1h4c.552 0 1 .448 1 1s-.448 1-1 1h-4zm8 0c-.552 0-1-.448-1-1s.448-1 1-1h4c.552 0 1 .448 1 1s-.448 1-1 1h-4zm8 0c-.552 0-1-.448-1-1s.448-1 1-1h4c.552 0 1 .448 1 1s-.448 1-1 1h-4zm8 0c-.552 0-1-.448-1-1s.448-1 1-1h4c.552 0 1 .448 1 1s-.448 1-1 1h-4zm6.912.469c-.294-.468-.153-1.085.315-1.379.468-.294 1.085-.153 1.379.315.298.474.458 1.024.458 1.596v2.873c0 .552-.448 1-1 1s-1-.448-1-1v-2.873c0-.194-.053-.375-.152-.532zm.152 7.406c0-.552.448-1 1-1s1 .448 1 1v4c0 .552-.448 1-1 1s-1-.448-1-1v-4zm0 8c0-.552.448-1 1-1s1 .448 1 1v4c0 .552-.448 1-1 1s-1-.448-1-1v-4zm0 8c0-.552.448-1 1-1s1 .448 1 1v4c0 .552-.448 1-1 1s-1-.448-1-1v-4zm-.899 6.119c.55-.055 1.04.345 1.095.895.055.55-.345 1.04-.895 1.095l-.293.015h-3.821c-.552 0-1-.448-1-1s.448-1 1-1h3.815l.1-.005zm-7.914.005c.552 0 1 .448 1 1s-.448 1-1 1h-4c-.552 0-1-.448-1-1s.448-1 1-1h4zm-8 0c.552 0 1 .448 1 1s-.448 1-1 1h-4c-.552 0-1-.448-1-1s.448-1 1-1h4zm-8 0c.552 0 1 .448 1 1s-.448 1-1 1h-4c-.552 0-1-.448-1-1s.448-1 1-1h4zm-8 0c.552 0 1 .448 1 1s-.448 1-1 1h-4c-.552 0-1-.448-1-1s.448-1 1-1h4zm-8 0c.552 0 1 .448 1 1s-.448 1-1 1h-4c-.552 0-1-.448-1-1s.448-1 1-1h4zm-8 0c.552 0 1 .448 1 1s-.448 1-1 1h-3.18c-.417 0-.825-.085-1.2-.248-.507-.22-.739-.809-.52-1.315.22-.507.809-.739 1.315-.52.126.054.262.083.405.083h3.18zm-4.187-2.752c0 .552-.448 1-1 1s-1-.448-1-1v-4c0-.552.448-1 1-1s1 .448 1 1v4zm0-8c0 .552-.448 1-1 1s-1-.448-1-1v-4c0-.552.448-1 1-1s1 .448 1 1v4zm0-8c0 .552-.448 1-1 1s-1-.448-1-1v-4c0-.552.448-1 1-1s1 .448 1 1v4zm-291.189-51.248h-4c-.552 0-1 .448-1 1s.448 1 1 1h4c.552 0 1-.448 1-1s-.448-1-1-1zm-8 0h-4c-.552 0-1 .448-1 1s.448 1 1 1h4c.552 0 1-.448 1-1s-.448-1-1-1zm-8 0h-4c-.552 0-1 .448-1 1s.448 1 1 1h4c.552 0 1-.448 1-1s-.448-1-1-1zm-8 0h-4c-.552 0-1 .448-1 1s.448 1 1 1h4c.552 0 1-.448 1-1s-.448-1-1-1zm-8 0h-4c-.552 0-1 .448-1 1s.448 1 1 1h4c.552 0 1-.448 1-1s-.448-1-1-1zm-7.811 3.129v4c0 .552.448 1 1 1s1-.448 1-1v-4c0-.552-.448-1-1-1s-1 .448-1 1zm0 8v4c0 .552.448 1 1 1s1-.448 1-1v-4c0-.552-.448-1-1-1s-1 .448-1 1zm0 8v4c0 .552.448 1 1 1s1-.448 1-1v-4c0-.552-.448-1-1-1s-1 .448-1 1zm0 8v4c0 .552.448 1 1 1s1-.448 1-1v-4c0-.552-.448-1-1-1s-1 .448-1 1zm0 8v4c0 .552.448 1 1 1s1-.448 1-1v-4c0-.552-.448-1-1-1s-1 .448-1 1zm0 8v4c0 .552.448 1 1 1s1-.448 1-1v-4c0-.552-.448-1-1-1s-1 .448-1 1zm0 8v4c0 .552.448 1 1 1s1-.448 1-1v-4c0-.552-.448-1-1-1s-1 .448-1 1zm0 8v4c0 .552.448 1 1 1s1-.448 1-1v-4c0-.552-.448-1-1-1s-1 .448-1 1zm0 8v1.87c0 1.165.668 2.209 1.697 2.705.497.24 1.095.031 1.335-.467s.031-1.095-.467-1.335c-.343-.165-.565-.513-.565-.904v-1.87c0-.552-.448-1-1-1s-1 .448-1 1zm6.066 4.871h4c.552 0 1-.448 1-1s-.448-1-1-1h-4c-.552 0-1 .448-1 1s.448 1 1 1zm8 0h4c.552 0 1-.448 1-1s-.448-1-1-1h-4c-.552 0-1 .448-1 1s.448 1 1 1zm8 0h4c.552 0 1-.448 1-1s-.448-1-1-1h-4c-.552 0-1 .448-1 1s.448 1 1 1zm8 0h4c.552 0 1-.448 1-1s-.448-1-1-1h-4c-.552 0-1 .448-1 1s.448 1 1 1zm8 0h4c.552 0 1-.448 1-1s-.448-1-1-1h-4c-.552 0-1 .448-1 1s.448 1 1 1zm8 0h4c.552 0 1-.448 1-1s-.448-1-1-1h-4c-.552 0-1 .448-1 1s.448 1 1 1zm8 0h4c.552 0 1-.448 1-1s-.448-1-1-1h-4c-.552 0-1 .448-1 1s.448 1 1 1zm8 0h4c.552 0 1-.448 1-1s-.448-1-1-1h-4c-.552 0-1 .448-1 1s.448 1 1 1zm8 0h4c.552 0 1-.448 1-1s-.448-1-1-1h-4c-.552 0-1 .448-1 1s.448 1 1 1zm8 0h4c.552 0 1-.448 1-1s-.448-1-1-1h-4c-.552 0-1 .448-1 1s.448 1 1 1zm8 0h4c.552 0 1-.448 1-1s-.448-1-1-1h-4c-.552 0-1 .448-1 1s.448 1 1 1zm8 0h4c.552 0 1-.448 1-1s-.448-1-1-1h-4c-.552 0-1 .448-1 1s.448 1 1 1zm8 0h4c.552 0 1-.448 1-1s-.448-1-1-1h-4c-.552 0-1 .448-1 1s.448 1 1 1zm8 0h4c.552 0 1-.448 1-1s-.448-1-1-1h-4c-.552 0-1 .448-1 1s.448 1 1 1zm8 0h4c.552 0 1-.448 1-1s-.448-1-1-1h-4c-.552 0-1 .448-1 1s.448 1 1 1zm8 0h4c.552 0 1-.448 1-1s-.448-1-1-1h-4c-.552 0-1 .448-1 1s.448 1 1 1zm8 0h4c.552 0 1-.448 1-1s-.448-1-1-1h-4c-.552 0-1 .448-1 1s.448 1 1 1zm8 0h4c.552 0 1-.448 1-1s-.448-1-1-1h-4c-.552 0-1 .448-1 1s.448 1 1 1zm8 0h4c.552 0 1-.448 1-1s-.448-1-1-1h-4c-.552 0-1 .448-1 1s.448 1 1 1zm8 0h4c.552 0 1-.448 1-1s-.448-1-1-1h-4c-.552 0-1 .448-1 1s.448 1 1 1zm8 0h4c.552 0 1-.448 1-1s-.448-1-1-1h-4c-.552 0-1 .448-1 1s.448 1 1 1zm8 0h4c.552 0 1-.448 1-1s-.448-1-1-1h-4c-.552 0-1 .448-1 1s.448 1 1 1zm8 0h2.94c.547 0 1.075-.148 1.536-.424.474-.284.628-.898.344-1.372-.284-.474-.898-.628-1.372-.344-.152.091-.325.14-.508.14h-2.94c-.552 0-1 .448-1 1s.448 1 1 1zm5.934-5.003v-4c0-.552-.448-1-1-1s-1 .448-1 1v4c0 .552.448 1 1 1s1-.448 1-1zm0-8v-.171c0-.552-.448-1-1-1s-1 .448-1 1v.171c0 .552.448 1 1 1s1-.448 1-1zm-124-101.331v-4c0-.552-.448-1-1-1s-1 .448-1 1v4c0 .552.448 1 1 1s1-.448 1-1zm0-8v-4c0-.552-.448-1-1-1s-1 .448-1 1v4c0 .552.448 1 1 1s1-.448 1-1zm0-8v-4c0-.552-.448-1-1-1s-1 .448-1 1v4c0 .552.448 1 1 1s1-.448 1-1zm0-8v-4c0-.552-.448-1-1-1s-1 .448-1 1v4c0 .552.448 1 1 1s1-.448 1-1zm0-8v-4c0-.552-.448-1-1-1s-1 .448-1 1v4c0 .552.448 1 1 1s1-.448 1-1zm0-8v-4c0-.552-.448-1-1-1s-1 .448-1 1v4c0 .552.448 1 1 1s1-.448 1-1zm0-8v-4c0-.552-.448-1-1-1s-1 .448-1 1v4c0 .552.448 1 1 1s1-.448 1-1zm.663-7.079c.392-.375.909-.587 1.465-.587h1.677c.552 0 1-.448 1-1s-.448-1-1-1h-1.677c-1.076 0-2.087.414-2.848 1.142-.399.382-.413 1.015-.031 1.414s1.015.413 1.414.031zm7.141-.587h4c.552 0 1-.448 1-1s-.448-1-1-1h-4c-.552 0-1 .448-1 1s.448 1 1 1zm8 0h4c.552 0 1-.448 1-1s-.448-1-1-1h-4c-.552 0-1 .448-1 1s.448 1 1 1zm8 0h4c.552 0 1-.448 1-1s-.448-1-1-1h-4c-.552 0-1 .448-1 1s.448 1 1 1zm8 0h4c.552 0 1-.448 1-1s-.448-1-1-1h-4c-.552 0-1 .448-1 1s.448 1 1 1zm8 0h4c.552 0 1-.448 1-1s-.448-1-1-1h-4c-.552 0-1 .448-1 1s.448 1 1 1zm8 0h4c.552 0 1-.448 1-1s-.448-1-1-1h-4c-.552 0-1 .448-1 1s.448 1 1 1zm8 0h4c.552 0 1-.448 1-1s-.448-1-1-1h-4c-.552 0-1 .448-1 1s.448 1 1 1zm8 0h4c.552 0 1-.448 1-1s-.448-1-1-1h-4c-.552 0-1 .448-1 1s.448 1 1 1zm8 0h4c.552 0 1-.448 1-1s-.448-1-1-1h-4c-.552 0-1 .448-1 1s.448 1 1 1zm8 0h4c.552 0 1-.448 1-1s-.448-1-1-1h-4c-.552 0-1 .448-1 1s.448 1 1 1zm8 0h4c.552 0 1-.448 1-1s-.448-1-1-1h-4c-.552 0-1 .448-1 1s.448 1 1 1zm8 0h4c.552 0 1-.448 1-1s-.448-1-1-1h-4c-.552 0-1 .448-1 1s.448 1 1 1zm8 0h4c.552 0 1-.448 1-1s-.448-1-1-1h-4c-.552 0-1 .448-1 1s.448 1 1 1zm8 0h4c.552 0 1-.448 1-1s-.448-1-1-1h-4c-.552 0-1 .448-1 1s.448 1 1 1zm8 0h.069c.942 0 1.765.623 2.035 1.519.16.529.717.828 1.246.668.529-.16.828-.717.668-1.246-.523-1.734-2.118-2.941-3.95-2.941h-.069c-.552 0-1 .448-1 1s.448 1 1 1zm2.196 5.276v4c0 .552.448 1 1 1s1-.448 1-1v-4c0-.552-.448-1-1-1s-1 .448-1 1zm0 8v4c0 .552.448 1 1 1s1-.448 1-1v-4c0-.552-.448-1-1-1s-1 .448-1 1zm0 8v4c0 .552.448 1 1 1s1-.448 1-1v-4c0-.552-.448-1-1-1s-1 .448-1 1zm0 8v4c0 .552.448 1 1 1s1-.448 1-1v-4c0-.552-.448-1-1-1s-1 .448-1 1zm0 8v4c0 .552.448 1 1 1s1-.448 1-1v-4c0-.552-.448-1-1-1s-1 .448-1 1zm0 8v4c0 .552.448 1 1 1s1-.448 1-1v-4c0-.552-.448-1-1-1s-1 .448-1 1zm0 8v4c0 .552.448 1 1 1s1-.448 1-1v-4c0-.552-.448-1-1-1s-1 .448-1 1zm0 8v4c0 .552.448 1 1 1s1-.448 1-1v-4c0-.552-.448-1-1-1s-1 .448-1 1zm0 8v4c0 .552.448 1 1 1s1-.448 1-1v-4c0-.552-.448-1-1-1s-1 .448-1 1zm0 8v4c0 .552.448 1 1 1s1-.448 1-1v-4c0-.552-.448-1-1-1s-1 .448-1 1zm0 8v4c0 .552.448 1 1 1s1-.448 1-1v-4c0-.552-.448-1-1-1s-1 .448-1 1zm0 8v4c0 .552.448 1 1 1s1-.448 1-1v-4c0-.552-.448-1-1-1s-1 .448-1 1z" id="Combined-Shape" fill-rule="nonzero"/></g><g><g id="cloud"><path d="M48 117c-8.284 0-15-6.716-15-15 0-8.284 6.716-15 15-15 2.202 0 4.293.475 6.177 1.327 1.307-9.782 9.684-17.327 19.823-17.327 9.092 0 16.767 6.067 19.198 14.374 2.229-1.499 4.914-2.374 7.802-2.374 7.732 0 14 6.268 14 14 5.523 0 10 4.477 10 10s-4.477 10-10 10h-67z" id="Combined-Shape" fill="#fff"/><path d="M115 116c4.971 0 9-4.029 9-9s-4.029-9-9-9h-1v-1c0-7.18-5.82-13-13-13-2.618 0-5.119.775-7.244 2.204l-1.134.763-.384-1.312c-2.35-8.031-9.743-13.655-18.238-13.655-9.548 0-17.579 7.084-18.832 16.459l-.178 1.333-1.225-.554c-1.795-.812-3.749-1.238-5.765-1.238-7.732 0-14 6.268-14 14s6.268 14 14 14h67zm11-9c0 6.075-4.925 11-11 11h-67c-8.837 0-16-7.163-16-16s7.163-16 16-16c1.862 0 3.68.319 5.394.932 1.908-9.732 10.486-16.932 20.606-16.932 8.949 0 16.791 5.646 19.756 13.862 2.194-1.212 4.672-1.862 7.244-1.862 7.963 0 14.476 6.204 14.97 14.042 5.621.491 10.03 5.21 10.03 10.958z" id="Combined-Shape" fill="#CBECF9" fill-rule="nonzero"/></g><g id="cloud"><path d="M329.747 73.37h-35.314c-3.001 0-5.433-2.425-5.433-5.415 0-2.991 2.432-5.415 5.433-5.415l.283.007c-.185-.648-.283-1.331-.283-2.038 0-4.112 3.345-7.446 7.47-7.446 2.238 0 4.246.981 5.615 2.535 1.654-3.878 5.511-6.597 10.004-6.597 5.124 0 9.419 3.535 10.566 8.292.536-.11 1.09-.168 1.659-.168 4.501 0 8.149 3.637 8.149 8.123 0 4.486-3.649 8.123-8.149 8.123z" id="Combined-Shape" fill="#E6F5FB"/><path d="M336.897 65.246c0-3.933-3.2-7.123-7.149-7.123-.494 0-.981.05-1.457.148l-.947.195-.227-.94c-1.056-4.382-5.007-7.526-9.593-7.526-3.995 0-7.549 2.388-9.084 5.989l-.622 1.459-1.048-1.19c-1.222-1.387-2.976-2.196-4.865-2.196-3.574 0-6.47 2.887-6.47 6.446 0 .604.083 1.196.245 1.764l.383 1.344-1.396-.071-.232-.006c-2.449 0-4.433 1.978-4.433 4.415 0 2.438 1.984 4.415 4.433 4.415h35.314c3.949 0 7.149-3.19 7.149-7.123zm-7.149-9.123c5.052 0 9.149 4.084 9.149 9.123s-4.097 9.123-9.149 9.123h-35.314c-3.552 0-6.433-2.872-6.433-6.415 0-3.229 2.392-5.9 5.504-6.349-.047-.362-.071-.728-.071-1.097 0-4.665 3.793-8.446 8.47-8.446 1.975 0 3.841.679 5.327 1.878 2.084-3.618 5.974-5.94 10.293-5.94 5.2 0 9.722 3.363 11.287 8.171.31-.031.623-.047.937-.047z" id="Combined-Shape" fill="#CBECF9" fill-rule="nonzero"/></g><g><path d="M351.464 88.357c4.501 0 8.149-3.637 8.149-8.123 0-4.486-3.649-8.123-8.149-8.123-1.599 0-3.09.459-4.349 1.252-1.049-2.793-3.752-4.781-6.92-4.781-1.565 0-3.017.485-4.212 1.313-.801-3.934-4.289-6.895-8.472-6.895-4.774 0-8.645 3.858-8.645 8.617 0 .33.019.655.055.976-.865-.312-1.798-.482-2.771-.482-4.501 0-8.149 3.637-8.149 8.123 0 4.486 3.649 8.123 8.149 8.123h35.314z" id="Combined-Shape" fill="#fff"/><path d="M351.464 71.111c5.052 0 9.149 4.084 9.149 9.123s-4.097 9.123-9.149 9.123h-35.314c-5.052 0-9.149-4.084-9.149-9.123s4.097-9.123 9.149-9.123c.583 0 1.159.055 1.723.162.182-5.152 4.428-9.272 9.639-9.272 4.143 0 7.745 2.624 9.088 6.387 1.11-.526 2.333-.806 3.596-.806 3.135 0 5.943 1.731 7.383 4.391 1.202-.563 2.523-.862 3.886-.862zm7.149 9.123c0-3.933-3.2-7.123-7.149-7.123-1.371 0-2.683.384-3.816 1.098l-1.038.654-.431-1.148c-.926-2.465-3.297-4.133-5.984-4.133-1.322 0-2.581.4-3.642 1.135l-1.247.864-.303-1.487c-.717-3.521-3.839-6.094-7.492-6.094-4.223 0-7.645 3.411-7.645 7.617 0 .29.016.578.048.863l.181 1.599-1.513-.545c-.772-.278-1.592-.423-2.432-.423-3.949 0-7.149 3.19-7.149 7.123 0 3.933 3.2 7.123 7.149 7.123h35.314c3.949 0 7.149-3.19 7.149-7.123z" fill="#CBECF9" fill-rule="nonzero"/></g></g></g></svg>