<?xml version="1.0" encoding="UTF-8"?>
<svg width="52px" height="66px" viewBox="0 0 52 66" version="1.1" xmlns="http://www.w3.org/2000/svg" xmlns:xlink="http://www.w3.org/1999/xlink">
  <g id="card">
    <rect id="Combined-Shape" fill="#E6F5FB" x="1" y="1" width="50" height="64" rx="2"></rect>
    <path d="M1,2.99970728 C1,1.89529944 1.88906428,1 2.99091407,1 L49.0090859,1 C50.1086374,1 51,1.88989258 51,2.99970728 L51,37 L1,37 L1,2.99970728 Z" id="Combined-Shape" fill="#CBECF9"></path>
    <rect id="Combined-Shape" fill="#97D9F2" x="5" y="49" width="42" height="10" rx="2"></rect>
    <path
      d="M22.3169381,31 L7.38336999,31 C6.82815358,31 6.72480612,30.7094054 7.14438488,30.3577708 L16.0333116,22.9082653 C16.4565402,22.5535719 17.1463791,22.5566307 17.5659579,22.9082653 L22.1835893,26.7781443 L30.7643336,19.1849219 C31.1775033,18.8193021 31.8470724,18.8190264 32.2605537,19.1849219 L44.8641088,30.3379868 C45.2772786,30.7036066 45.1692713,31 44.6085819,31 L22.3169381,31 Z M16.5,19 C13.7385763,19 11.5,16.7614237 11.5,14 C11.5,11.2385763 13.7385763,9 16.5,9 C19.2614237,9 21.5,11.2385763 21.5,14 C21.5,16.7614237 19.2614237,19 16.5,19 Z"
      id="Combined-Shape"
      fill="#E6F5FB"></path>
    <path
      d="M2,3.00329863 L2,62.9967014 C2,63.5476717 2.4483236,64 2.99091407,64 L49.0090859,64 C49.5562844,64 50,63.5531679 50,62.9967014 L50,3.00329863 C50,2.45232828 49.5516764,2 49.0090859,2 L2.99091407,2 C2.44371561,2 2,2.44683206 2,3.00329863 Z M0,3.00329863 C0,1.34538393 1.33600049,0 2.99091407,0 L49.0090859,0 C50.6602468,0 52,1.35172057 52,3.00329863 L52,62.9967014 C52,64.6546161 50.6639995,66 49.0090859,66 L2.99091407,66 C1.33975316,66 0,64.6482794 0,62.9967014 L0,3.00329863 Z M50,2.99970728 C50,2.44347746 49.5576465,2 49.0090859,2 L2.99091407,2 C2.44331124,2 2,2.44562454 2,2.99970728 L2,36 L50,36 L50,2.99970728 Z M0,2.99970728 C0,1.34337852 1.33640486,0 2.99091407,0 L49.0090859,0 C50.6633537,0 52,1.34004246 52,2.99970728 L52,38 L0,38 L0,2.99970728 Z M6,50.999615 L6,57.000385 C6,57.557211 6.44351774,58 6.99749218,58 L45.0025078,58 C45.5518117,58 46,57.5517001 46,57.000385 L46,50.999615 C46,50.442789 45.5564823,50 45.0025078,50 L6.99749218,50 C6.44818829,50 6,50.4482999 6,50.999615 Z M4,50.999615 C4,49.3438418 5.34350732,48 6.99749218,48 L45.0025078,48 C46.6603162,48 48,49.3374826 48,50.999615 L48,57.000385 C48,58.6561582 46.6564927,60 45.0025078,60 L6.99749218,60 C5.33968383,60 4,58.6625174 4,57.000385 L4,50.999615 Z"
      id="Combined-Shape"
      fill="#00A1DE"
      fill-rule="nonzero"></path>
  </g>
</svg>
