<?xml version="1.0" encoding="UTF-8"?>
<svg width="117px" height="20px" viewBox="0 0 117 20" version="1.1" xmlns="http://www.w3.org/2000/svg" xmlns:xlink="http://www.w3.org/1999/xlink">
  <g id="search">
    <rect id="Rectangle-27" fill="#FFFFFF" x="1" y="1" width="115" height="18" rx="2"></rect>
    <rect id="Rectangle-27" fill="#97D9F2" x="5" y="4" width="2" height="12" rx="1"></rect>
    <path d="M86,1 L114.008383,1 C115.108323,1 116,1.8926228 116,2.99508929 L116,17.0049107 C116,18.1067681 115.10216,19 114.008383,19 L86,19 L86,1 Z" id="Rectangle-27" fill="#97D9F2"></path>
    <path
      d="M99.9,12.4032544 C98.2383883,12.0181872 97,10.5287141 97,8.75 C97,6.67893219 98.6789322,5 100.75,5 C102.821068,5 104.5,6.67893219 104.5,8.75 C104.5,10.5287141 103.261612,12.0181872 101.6,12.4032544 L101.6,15.3482424 C101.6,15.8157946 101.212643,16.2 100.75,16.2 C100.282103,16.2 99.9,15.8140694 99.9,15.3482424 L99.9,12.4032544 Z M100.75,11 C101.992641,11 103,9.99264069 103,8.75 C103,7.50735931 101.992641,6.5 100.75,6.5 C99.5073593,6.5 98.5,7.50735931 98.5,8.75 C98.5,9.99264069 99.5073593,11 100.75,11 Z"
      id="Oval-8"
      fill="#FFFFFF"
      fill-rule="nonzero"
      transform="translate(100.750000, 10.600000) rotate(-45.000000) translate(-100.750000, -10.600000) "></path>
    <path
      d="M2,2.99508929 L2,17.0049107 C2,17.5547281 2.4455781,18 2.99604034,18 L114.00396,18 C114.554936,18 115,17.5549421 115,17.0049107 L115,2.99508929 C115,2.44527187 114.554422,2 114.00396,2 L2.99604034,2 C2.44506399,2 2,2.44505789 2,2.99508929 Z M0,2.99508929 C0,1.34048225 1.34050063,0 2.99604034,0 L114.00396,0 C115.658684,0 117,1.34039446 117,2.99508929 L117,17.0049107 C117,18.6595178 115.659499,20 114.00396,20 L2.99604034,20 C1.34131628,20 0,18.6596055 0,17.0049107 L0,2.99508929 Z M87,2 L87,18 L114.008383,18 C114.552091,18 115,17.5522676 115,17.0049107 L115,2.99508929 C115,2.44477548 114.555905,2 114.008383,2 L87,2 Z M114.008383,0 C115.66116,0 117,1.34089085 117,2.99508929 L117,17.0049107 C117,18.6570132 115.656485,20 114.008383,20 L85,20 L85,0 L114.008383,0 Z"
      id="Combined-Shape"
      fill="#00A1DE"
      fill-rule="nonzero"></path>
  </g>
</svg>
