
<svg width="398px" height="172px" viewBox="0 0 398 172" version="1.1" xmlns="http://www.w3.org/2000/svg" xmlns:xlink="http://www.w3.org/1999/xlink">
    <!-- Generator: Sketch 43.2 (39069) - http://www.bohemiancoding.com/sketch -->
    <desc>Created with Sketch.</desc>
    <defs></defs>
    <g id="landing-page" stroke="none" stroke-width="1" fill="none" fill-rule="evenodd">
        <g id="Lite_landing-page_web_1024" transform="translate(-71.000000, -1678.000000)">
            <g id="section_4" transform="translate(0.000000, 1517.000000)">
                <g id="open-source" transform="translate(42.000000, 152.000000)">
                    <g id="img_open_source">
                        <g id="img" transform="translate(30.000000, 10.000000)">
                            <g id="lines">
                                <path d="M89.6923077,128 L1.99910661,128 C0.895030517,128 0,127.107695 0,125.998005 L0,32.0019955 C0,30.8963239 0.903175925,30 2.00134966,30 L393.99865,30 C395.103965,30 396,30.8923048 396,32.0019955 L396,125.998005 C396,127.103676 395.100369,128 393.996655,128 L308,128 L89.6923077,128 Z" id="Path-19" stroke="#E6F5FB" stroke-width="2" stroke-linecap="round" stroke-dasharray="4"></path>
                                <g id="line" transform="translate(12.000000, 100.000000)">
                                    <path d="M38.8113932,0 L2.0049419,0 C0.897643064,0 0,0.897816161 0,2.00079916 L0,67.9992008 C0,69.1042117 0.891733706,70 1.99412898,70 L184.005871,70 C185.107198,70 186,69.1048231 186,68.0033579 L186,57.826087" id="Path-18" stroke="#E6F5FB" stroke-width="2" stroke-linecap="round" stroke-dasharray="4"></path>
                                    <path d="M185.437757,54.3120508 C185.747618,53.854861 186.251629,53.8572647 186.559861,54.3120508 L191.887065,62.1721847 C192.196925,62.6293744 192.004117,63 191.457401,63 L180.540217,63 C179.99306,63 179.802322,62.6269708 180.110553,62.1721847 L185.437757,54.3120508 Z" id="Triangle-2" fill="#E6F5FB"></path>
                                </g>
                                <g id="line" transform="translate(68.000000, 0.000000)">
                                    <path d="M6,56.6666667 L6,3.14683594 C6,1.40888644 7.39257813,0 9.127203,0 L126.872797,0 C128.599904,0 130,1.40687783 130,3.14683594 L130,102" id="Rectangle-22" stroke="#E6F5FB" stroke-width="2" stroke-linecap="round" stroke-dasharray="4"></path>
                                    <path d="M5.43933675,57.3231871 C5.7482707,56.8665833 6.25077584,56.868984 6.55808557,57.3231871 L11.869364,65.1732458 C12.1782979,65.6298495 11.9710422,66 11.4196315,66 L0.577790828,66 C0.0204764743,66 -0.179251388,65.6274489 0.128058334,65.1732458 L5.43933675,57.3231871 Z" id="Triangle-2" fill="#E6F5FB" transform="translate(6.000000, 61.500000) scale(1, -1) translate(-6.000000, -61.500000) "></path>
                                </g>
                                <path d="M331,89 L331,167.997742 C331,169.103558 330.114275,170 329.002289,170 L203,170" id="Path-20" stroke="#E6F5FB" stroke-width="2" stroke-linecap="round" stroke-dasharray="4"></path>
                                <rect id="Rectangle-23" stroke="#E6F5FB" stroke-width="2" stroke-linecap="round" stroke-dasharray="4" x="341" y="138" width="55" height="32" rx="2"></rect>
                            </g>
                        </g>
                    </g>
                </g>
            </g>
        </g>
    </g>
</svg>
