<svg width="140" height="28" viewBox="0 0 140 28" xmlns="http://www.w3.org/2000/svg"><g fill="none"><path d="M8.24 26.93c-.26.1-1.83.4-3.2.4-3.2 0-4.97-1.66-4.97-5 0-3.7 2-7.53 6.88-7.53.84 0 2.38.14 3.12.42l-.3 1.52c-.35-.12-1.34-.43-2.68-.43-3.7 0-5.33 2.7-5.33 5.77 0 2.7 1.33 3.77 3.68 3.77 1.07 0 2.3-.2 2.98-.43l-.2 1.53zm6.02.1c-.4.14-.95.3-1.7.3-1.16 0-1.97-.5-1.97-1.66 0-.14 0-.33.02-.47l1.67-10.64h1.6L12.3 24.9l-.02.24c0 .62.26.8.95.8.42 0 .85-.1 1.2-.24l-.14 1.32zm5.35-1.08c2.08 0 3.47-1.7 3.47-4.16 0-1.82-.93-2.5-2.24-2.5-1.98 0-3.45 1.54-3.5 4.15 0 1.34.47 2.5 2.28 2.5m-3.87-2.36c0-3.14 2-5.7 5.16-5.7 2.43 0 3.8 1.34 3.8 3.74 0 3.22-2.02 5.7-5.23 5.7-2.34-.03-3.74-1.27-3.74-3.75m17.7 3.57h-1.32l.3-2.76c-1.1 1.76-2.56 2.95-4.25 2.95-1.47 0-2.18-1-2.18-2.45 0-.28.02-.56.07-.87l.95-5.95h1.6l-.9 5.66c-.05.28-.07.55-.07.8 0 .8.24 1.37 1 1.37 1.24 0 2.93-1.78 4-3.8l.64-4.02h1.62l-1.46 9.1zm9.34-5.05l.4-2.57c-.4-.2-1.23-.3-1.85-.3-2.86 0-3.64 2.56-3.64 4.32 0 1.34.45 2.34 1.26 2.34 1.16 0 2.87-2.04 3.83-3.78m-6.72 1.64c0-2.54 1.3-5.85 5.3-5.85.77 0 1.54.13 2.06.24l.17-1.2.38-2.38h1.62l-2 12.6h-1.35l.33-2.75c-.95 1.58-2.38 2.95-3.93 2.95-1.7 0-2.57-1.54-2.57-3.6m13.6 1.46c.18.15 1.94.65 3.7.65 2.05 0 3.45-.8 3.45-2.13 0-2.7-6.25-1.4-6.25-5.2 0-2.37 2.1-3.7 5.2-3.7 1.8 0 3.22.45 3.56.57l-.3 1.5c-.7-.33-2.22-.6-3.43-.6-1.8 0-3.35.7-3.35 1.97 0 2.5 6.27 1.2 6.27 5.25 0 2.53-2.15 3.83-5.34 3.83-2.06 0-3.83-.56-3.83-.56l.33-1.6zm17.15-3.08l.4-2.57c-.42-.2-1.23-.3-1.85-.3-2.86 0-3.64 2.56-3.64 4.32 0 1.35.46 2.35 1.27 2.35 1.16 0 2.86-2.06 3.83-3.8m-6.73 1.64c0-2.54 1.36-5.85 5.38-5.85 1.62 0 2.87.34 3.52.5l-1.38 8.77h-1.35l.32-2.76c-.94 1.58-2.38 2.95-3.93 2.95-1.7 0-2.57-1.54-2.57-3.6M71.5 18.1h1.32l-.3 2.76c1.12-1.74 2.57-2.93 4.26-2.93 1.47 0 2.18 1 2.18 2.46 0 .28-.02.55-.07.86l-.96 5.95h-1.6l.9-5.65c.04-.28.06-.55.06-.8 0-.8-.24-1.38-1-1.38-1.24 0-2.93 1.8-4 3.82l-.64 4h-1.62l1.45-9.08zm15.75 4.04l.4-2.57c-.4-.2-1.23-.3-1.85-.3-2.86 0-3.64 2.56-3.64 4.32 0 1.35.45 2.35 1.26 2.35 1.16 0 2.87-2.06 3.83-3.8m-6.72 1.64c0-2.54 1.3-5.85 5.3-5.85.77 0 1.54.13 2.06.24l.15-1.2.38-2.37h1.62l-2 12.6H86.7l.33-2.76c-.95 1.58-2.38 2.95-3.93 2.95-1.7 0-2.57-1.54-2.57-3.6m12.2-.6l-.4 2.56c.42.2 1.24.32 1.86.32 2.85 0 3.63-2.57 3.63-4.33 0-1.36-.45-2.36-1.26-2.36-1.16 0-2.87 2.06-3.83 3.8m6.72-1.64c0 2.53-1.36 5.85-5.38 5.85-1.62 0-2.88-.33-3.53-.5l1.95-12.3h1.6l-.76 4.78-.27 1.3c.96-1.48 2.36-2.72 3.82-2.72 1.74 0 2.56 1.55 2.56 3.6m5.1 4.45c2.08 0 3.48-1.7 3.48-4.16 0-1.82-.94-2.5-2.25-2.5-2 0-3.46 1.54-3.5 4.15 0 1.34.46 2.5 2.27 2.5m-3.88-2.36c0-3.14 2-5.7 5.15-5.7 2.45 0 3.8 1.34 3.8 3.74 0 3.22-2 5.7-5.22 5.7-2.34-.03-3.74-1.27-3.74-3.75m15.46 3.57l-1.8-3.3-2.9 3.3h-1.8l3.96-4.55-2.46-4.53H113l1.8 3.37 2.93-3.38h1.78l-4 4.54 2.5 4.53" fill="#353630"/><path d="M79.53 5.66c0-2.3 1.4-4.3 3.38-5.16H59.45c-.58 0-1.05.48-1.05 1.05v8.2c0 .58.46 1.05 1.04 1.05h23.44c-1.97-.88-3.35-2.85-3.35-5.14M85.16 3C83.7 3 82.5 4.2 82.5 5.65c0 .9.46 1.72 1.16 2.2.06-.32.16-.63.3-.92-.35-.32-.56-.78-.56-1.28 0-.97.8-1.77 1.76-1.77.57 0 1.07.26 1.4.68.3-.1.62-.17.94-.2-.45-.83-1.33-1.4-2.34-1.4m1.25 2.68c0-.16-.02-.3-.07-.44-.72.33-1.32.88-1.72 1.56.18.08.36.13.56.13.7 0 1.25-.55 1.25-1.24m1.52 1.6c.75 0 1.37.6 1.43 1.34.57-.82.9-1.82.93-2.9-.57-.44-1.27-.74-2.03-.8.06.24.1.5.1.76 0 .6-.17 1.14-.45 1.6h.02m-.9 1.44c0 .5.4.92.9.92s.92-.4.92-.92-.4-.9-.92-.9-.9.4-.9.9m-.2-3.66c.07.2.1.4.1.62 0 .97-.78 1.77-1.76 1.77-.28 0-.54-.07-.78-.2-.1.3-.2.6-.24.9.3.13.66.2 1.02.2 1.48 0 2.67-1.2 2.67-2.67 0-.27-.04-.53-.1-.78-.33.02-.63.07-.9.16m-6.78.62c0 2.44 1.72 4.48 4 5-.3-.6-.47-1.27-.47-1.98v-.26c-.95-.54-1.6-1.58-1.6-2.76 0-1.76 1.43-3.18 3.18-3.18 1.3 0 2.4.77 2.9 1.9.8.02 1.55.27 2.18.67-.3-2.53-2.46-4.5-5.08-4.5-2.82 0-5.1 2.3-5.1 5.1m6-.87c-.24-.23-.55-.37-.9-.37-.7 0-1.25.57-1.25 1.26 0 .3.12.58.3.8.44-.73 1.08-1.3 1.85-1.68m-.9 6c.92 0 1.78-.25 2.52-.67-.67-.1-1.18-.7-1.18-1.4v-.15c-.4.2-.86.3-1.34.3-.37 0-.73-.07-1.06-.2v.03c0 .77.22 1.48.6 2.07l.46.02" fill="#F39A1E"/><path d="M62.66 8.78c-.2.1-.52.2-1 .2-.87 0-1.44-.4-1.44-1.3V2.32h1.2V7.3c0 .55.28.66.6.66.2 0 .4-.06.6-.12l.04.94zm3.7-2c-.23-.03-.56-.06-.9-.06-.68 0-1.3.17-1.3.77 0 .56.56.62.87.62.67 0 1.08-.3 1.32-.56v-.8zm.26 2.1l-.1-.65c-.46.52-1.1.76-1.78.76-.97 0-1.78-.48-1.78-1.47 0-1.18 1.1-1.58 2.38-1.58.36 0 .7.04 1 .08V5.4c0-.6-.44-.88-1.33-.88-.6 0-1.2.13-1.62.3l-.05-1c.3-.1.98-.33 1.97-.33 1.2 0 2.26.36 2.26 1.82v3.56h-.94zm2.83-.96c.27.07.55.1.8.1.98 0 1.66-.48 1.66-1.85 0-1.06-.4-1.67-1.16-1.67-.55 0-1 .32-1.3.63v2.8zm-1.2-5.6h1.2V3.5l-.03.66c.33-.36.86-.67 1.58-.67 1.28 0 2.1.97 2.1 2.66C73.1 8.1 72 9 70.28 9c-.76 0-1.7-.2-2.03-.3V2.33zm5.34 5.4c.06.07.96.32 1.75.32.63 0 1.12-.15 1.12-.57 0-1.05-2.97-.42-2.97-2.4 0-1 .77-1.55 2.24-1.55.9 0 1.58.2 1.7.28l-.05 1c-.3-.15-.97-.28-1.57-.28-.66 0-1.16.15-1.16.54 0 .95 2.98.34 2.98 2.37 0 1.1-.87 1.6-2.23 1.6-.95 0-1.85-.25-1.88-.26l.05-1.04z" fill="#FFF"/><path fill="#F39A1E" d="M49.48 8.88h1.84V2.33h-1.84m4.48 3.28l1.9-3.27H54L52.13 5.6l1.9 3.28h1.83m-22.2-6.55H32.2L28.4 8.88h1.86l2.7-4.66v4.66h1.86V2.33h-1M13.5 6.15h2.9l.62-1.08H14.1m-1.2-.26c0-.8.26-1.12 1.06-1.12h2.62l.78-1.36H13.7c-1.58 0-2.6.55-2.6 2.53V8.9h5.64l.8-1.36H12.9V4.82zm31.8 1.35h2.9l.63-1.07H45.3m-1.12-.27c0-.8.25-1.12 1.05-1.12h2.62l.78-1.36h-3.67c-1.57 0-2.6.55-2.6 2.53V8.9H48l.8-1.36h-4.62V4.82zm-8.55-1.1h2.3v5.18h1.8v-5.2h1.68l.8-1.35h-5.78m-15.1 5.2h-1V3.68h1c1.45 0 1.9.26 1.9 1.9s-.45 1.97-1.9 1.97m.4-5.22h-3.16V8.9h3.24c2.27 0 3.3-.9 3.3-3.35 0-2.32-1.02-3.23-3.4-3.23m4.42 6.56h1.84V2.33h-1.84M5.96 5.66V2.33h-2.2L0 8.88h1.8l2.32-4v4h1.84l2.27-4v4h1.84V2.34h-2.2M122.8 15v7.97c0 .1.1.2.2.2h15.24c.1 0 .2-.1.2-.2V15c0-.1-.1-.2-.2-.2H123c-.1 0-.2.08-.2.2zm-.8 0c0-.56.44-1 1-1h15.24c.55 0 1 .45 1 1v7.97c0 .55-.45 1-1 1H123c-.55 0-1-.46-1-1V15zm5.66 6.87v-.9H125V16.2h-1v5.65h3.66zm1.7 0v-4.2h-.98v4.2h.97zm.07-5.34c0-.3-.16-.53-.56-.53s-.57.22-.57.53c0 .3.16.53.57.53.4 0 .56-.24.56-.53zm3.4 4.4c-.18.1-.4.17-.63.17-.33 0-.62-.08-.62-.52v-2.15h1.17l.04-.77h-1.22v-1.02h-.84l-.1 1.02h-.58v.77h.56v2.24c0 1 .6 1.3 1.25 1.3.35 0 .7-.1 1-.2l-.04-.83zm4.32-.02v.8c-.37.13-1 .26-1.6.26-1.45 0-2.13-.8-2.13-2.15 0-1.4.7-2.23 2-2.23 1.32 0 1.82.8 1.82 1.78 0 .2-.02.45-.06.66h-2.78c.05.83.46 1.16 1.3 1.16.62 0 1.24-.18 1.45-.25zm-.87-1.53v-.1c0-.58-.28-.95-.86-.95s-.96.34-1 1.05h1.86z"/></g></svg>