<svg width="140" height="28" viewBox="0 0 140 28" xmlns="http://www.w3.org/2000/svg"><title>logo_black</title><g fill="none" fill-rule="evenodd"><g fill="#353630"><path d="M8.2422 26.9312c-.2586.1033-1.8282.4134-3.2082.4134-3.191 0-4.9674-1.673-4.9674-5.0022 0-3.725 2.0007-7.5378 6.8824-7.5378.845 0 2.3798.1387 3.1215.4145l-.31 1.5177c-.345-.1205-1.3287-.431-2.674-.431-3.6912 0-5.3127 2.691-5.3127 5.7614 0 2.7082 1.3286 3.7776 3.674 3.7776 1.0696 0 2.2943-.2072 2.984-.4316l-.1896 1.5182zM14.2614 27.0173c-.414.1553-.949.3273-1.6906.3273-1.1728 0-1.9835-.5173-1.9835-1.673 0-.1376.0176-.3272.0348-.466l1.673-10.6425h1.6215L12.278 24.8958s-.0173.1724-.0173.2415c0 .6206.2587.8107.9484.8107.414 0 .8452-.1206 1.19-.242l-.1376 1.3113zM19.608 25.948c2.0697 0 3.4668-1.7078 3.4668-4.1573 0-1.811-.9312-2.5008-2.242-2.5008-1.9837 0-3.45 1.5523-3.5018 4.1565 0 1.3458.466 2.5014 2.277 2.5014m-3.881-2.3633c0-3.122 2.018-5.6748 5.1576-5.6748 2.449 0 3.8118 1.328 3.8118 3.7254 0 3.226-2.0184 5.7096-5.2266 5.7096-2.3455-.0348-3.7427-1.2766-3.7427-3.7603M33.4408 27.1725h-1.328l.2928-2.76c-1.1208 1.742-2.57 2.9324-4.26 2.9324-1.4662 0-2.1736-.9828-2.1736-2.4495 0-.2758.0172-.5516.069-.8627l.949-5.95h1.604l-.897 5.657c-.052.276-.0692.5522-.0692.8108 0 .7765.2415 1.363 1.001 1.363 1.2412 0 2.9318-1.7946 4.0012-3.8124l.6383-4.0185h1.6215l-1.449 9.0898zM42.7714 22.1186l.3968-2.5704c-.414-.1896-1.2247-.31-1.8458-.31-2.863 0-3.6394 2.5698-3.6394 4.329 0 1.3457.4488 2.346 1.259 2.346 1.1562 0 2.8634-2.0526 3.8294-3.7946m-6.727 1.6387c0-2.5357 1.2938-5.8478 5.3127-5.8478.759 0 1.5354.121 2.0527.225l.1553-1.191.3797-2.3803h1.621l-2.0007 12.609h-1.3457l.3283-2.7595c-.949 1.5696-2.381 2.932-3.9333 2.932-1.7072 0-2.57-1.5348-2.57-3.5874M49.653 25.206c.1725.138 1.9316.6387 3.6913.6387 2.0526 0 3.4497-.8112 3.4497-2.1217 0-2.691-6.244-1.4147-6.244-5.2094 0-2.3632 2.087-3.709 5.209-3.709 1.794 0 3.208.466 3.553.5865l-.3277 1.5183c-.6898-.345-2.208-.6212-3.415-.6212-1.794 0-3.3464.708-3.3464 1.984 0 2.4838 6.2616 1.2077 6.2616 5.2433 0 2.536-2.1393 3.8294-5.3304 3.8294-2.052 0-3.829-.552-3.829-.552l.3278-1.5868zM66.797 22.1186l.3964-2.5704c-.4135-.1896-1.2247-.31-1.8454-.31-2.8633 0-3.6398 2.5698-3.6398 4.329 0 1.3457.4487 2.346 1.2595 2.346 1.1556 0 2.8633-2.0526 3.8294-3.7946m-6.727 1.6387c0-2.5357 1.3624-5.8478 5.3814-5.8478 1.6215 0 2.8633.3283 3.5193.5007l-1.3805 8.762H66.245l.3277-2.7595c-.9484 1.5696-2.3803 2.932-3.9328 2.932-1.7078 0-2.57-1.5348-2.57-3.5874M71.488 18.0825h1.328l-.2928 2.76c1.1208-1.7425 2.5694-2.933 4.26-2.933 1.4662 0 2.1736.9833 2.1736 2.45 0 .2753-.0177.5516-.069.8622l-.9485 5.9506H76.335l.897-5.6572c.0513-.2762.0685-.552.0685-.811 0-.776-.241-1.3625-1-1.3625-1.2422 0-2.9323 1.794-4.0022 3.8123l-.6378 4.0185H70.039l1.449-9.0898zM87.2527 22.1186l.3963-2.5704c-.4134-.1896-1.2247-.31-1.8454-.31-2.8633 0-3.6398 2.5698-3.6398 4.329 0 1.3457.4487 2.346 1.2595 2.346 1.1556 0 2.8634-2.0526 3.8294-3.7946m-6.7276 1.6387c0-2.5357 1.2944-5.8478 5.313-5.8478.7587 0 1.5352.121 2.053.225l.1548-1.191.3797-2.3803h1.6215l-2.0012 12.609h-1.3452l.3277-2.7595c-.9484 1.5696-2.3803 2.932-3.9327 2.932-1.7078 0-2.5705-1.5348-2.5705-3.5874M92.737 23.1364l-.3964 2.57c.4135.19 1.2247.3105 1.8454.3105 2.8633 0 3.6393-2.5705 3.6393-4.3297 0-1.3452-.4482-2.3455-1.259-2.3455-1.1556 0-2.8633 2.0526-3.8294 3.7946m6.727-1.6387c0 2.5352-1.3624 5.8473-5.3814 5.8473-1.6215 0-2.881-.3278-3.5364-.5007l1.9492-12.2813h1.6044l-.7594 4.761-.2758 1.311c.966-1.4833 2.3632-2.7252 3.8295-2.7252 1.742 0 2.57 1.5353 2.57 3.588M104.569 25.948c2.0697 0 3.4673-1.7078 3.4673-4.1573 0-1.811-.9318-2.5008-2.2422-2.5008-1.984 0-3.45 1.5523-3.502 4.1565 0 1.3458.4658 2.5014 2.277 2.5014m-3.881-2.3633c0-3.122 2.0184-5.6748 5.1575-5.6748 2.4495 0 3.8123 1.328 3.8123 3.7254 0 3.226-2.0183 5.7096-5.2265 5.7096-2.346-.0348-3.7432-1.2766-3.7432-3.7603M116.159 27.1725l-1.7938-3.3116-2.8977 3.3115h-1.8105l3.967-4.5535-2.467-4.5363h1.8287l1.811 3.3807 2.932-3.3807h1.7773l-4.0023 4.5535 2.5013 4.5363"/></g><path d="M79.534 5.6592c0-2.3017 1.3897-4.2837 3.3727-5.155H59.439c-.5777 0-1.05.4725-1.05 1.0503v8.1968c0 .5773.4723 1.0503 1.05 1.0503h23.4424c-1.9703-.8768-3.3473-2.8508-3.3473-5.1424" fill="#F39A1E"/><path d="M85.1625 2.9917c-1.4712 0-2.6677 1.197-2.6677 2.6678 0 .914.4624 1.7218 1.1652 2.2028.062-.3217.1598-.6297.289-.9212-.34-.3225-.5527-.7773-.5527-1.2815 0-.9742.792-1.7663 1.7662-1.7663.5668 0 1.0715.2683 1.3952.6847.302-.099.6186-.166.9464-.1957-.4537-.828-1.333-1.3906-2.3415-1.3906" fill="#F39A1E"/><path d="M86.4137 5.6592c0-.1553-.0302-.304-.0817-.4412-.724.3288-1.327.8778-1.7238 1.5615.1674.0832.355.1306.5546.1306.6897 0 1.251-.561 1.251-1.2508M87.9204 7.2733c.7522 0 1.3694.5843 1.4238 1.323.5763-.8183.9187-1.8116.9303-2.8835-.5652-.4528-1.262-.7478-2.023-.818.0606.2452.0934.5008.0934.7645 0 .589-.162 1.141-.4418 1.615.006 0 .011-.001.0172-.001M87.006 8.7026c0 .5042.41.9146.9142.9146s.9146-.4104.9146-.9146-.4104-.914-.9146-.914-.914.4098-.914.914" fill="#F39A1E"/><path d="M86.815 5.0368c.0736.1936.114.4034.114.6222 0 .974-.7926 1.7667-1.7663 1.7667-.2813 0-.5465-.0665-.7825-.1835-.115.2783-.197.5728-.243.8798.3156.1316.6625.2047 1.0255.2047 1.4708 0 2.6673-1.1964 2.6673-2.6677 0-.2697-.0404-.5304-.1155-.776-.311.0152-.6126.068-.8995.1538" fill="#F39A1E"/><path d="M80.049 5.6592c0 2.4398 1.7184 4.485 4.008 4.9916-.3035-.5904-.476-1.2595-.476-1.968 0-.0866.003-.1728.008-.2585-.9604-.5486-1.6093-1.5822-1.6093-2.765 0-1.7547 1.428-3.1826 3.183-3.1826 1.2948 0 2.411.778 2.9073 1.8907.7966.0313 1.5388.279 2.1685.6863C89.938 2.5185 87.777.546 85.1627.546c-2.8195 0-5.1136 2.2937-5.1136 5.1132" fill="#F39A1E"/><path d="M86.0513 4.7798c-.227-.2294-.5415-.3716-.889-.3716-.6897 0-1.2508.5612-1.2508 1.251 0 .303.1084.5813.2884.798.4375-.725 1.0824-1.3113 1.8513-1.6774M85.1625 10.7726c.913 0 1.7703-.2415 2.513-.663-.6716-.1165-1.1844-.7024-1.1844-1.4067 0-.053.0036-.1055.0087-.157-.4064.189-.8597.296-1.3372.296-.3736 0-.7326-.0655-1.0658-.1845 0 .0086-.0005.0166-.0005.0252 0 .763.2258 1.4728.614 2.0687.1488.0132.2996.0212.4523.0212" fill="#F39A1E"/><path d="M62.6596 8.7802c-.2102.0902-.5208.2102-1.012.2102-.8616 0-1.4324-.4205-1.4324-1.3225V2.3303h1.2126v4.9568c0 .5612.2703.6716.581.6716.21 0 .421-.0605.601-.1205l.0498.942zM66.3466 6.7663c-.2203-.02-.551-.05-.8718-.05-.6912 0-1.312.1705-1.312.7715 0 .5713.5608.6313.8618.6313.671 0 1.0815-.3105 1.322-.561v-.7917zm.2707 2.1142l-.1104-.6515c-.4508.5214-1.082.7614-1.7633.7614-.9716 0-1.7833-.4705-1.7833-1.4627 0-1.1723 1.1122-1.5726 2.3743-1.5726.361 0 .7018.04 1.012.0802v-.6216c0-.601-.451-.8915-1.3423-.8915-.5914 0-1.1924.1302-1.6235.3107l-.0495-1.0018c.31-.1206.9816-.341 1.9633-.341 1.212 0 2.2644.3706 2.2644 1.8338v3.5567h-.942zM69.4525 7.9185c.2708.0706.5516.1003.7916.1003.9823 0 1.6635-.481 1.6635-1.8438 0-1.0614-.4104-1.673-1.1723-1.673-.541 0-.9918.3207-1.2827.6313v2.7852zm-1.212-5.588h1.212V3.5l-.0297.6615c.3307-.361.861-.6716 1.573-.6716 1.2823 0 2.1142.9823 2.1142 2.675 0 1.924-1.1224 2.8254-2.8356 2.8254-.7614 0-1.7032-.18-2.034-.2904V2.3304zM73.5905 7.735c.0706.06.9726.3006 1.7637.3006.6207 0 1.1118-.1502 1.1118-.5707 0-1.0423-2.9657-.411-2.9657-2.385 0-1.0114.772-1.563 2.2346-1.563.9014 0 1.583.2107 1.703.2803l-.0498 1.0023c-.3006-.1507-.962-.2803-1.563-.2803-.651 0-1.1527.1498-1.1527.5405 0 .952 2.9763.341 2.9763 2.3748 0 1.1022-.8722 1.5827-2.2245 1.5827-.952 0-1.8535-.2405-1.8837-.25l.05-1.0322z" fill="#FFF"/><path fill="#F39A1E" d="M49.4758 8.8767h1.8403V2.331H49.476M53.9626 5.6112h-.004l.004-.015 1.8892-3.2653h-1.8403l-1.8898 3.265.0106.0152h-.0106l1.8898 3.2652h1.8403M33.6606 2.3314h-1.4783l-3.7795 6.545h1.8615l2.692-4.6603v4.6605h1.86v-6.545h-.9994M13.5004 6.148h2.897l.6274-1.0733h-2.9385"/><path d="M12.9083 4.8135h.0015c0-.827.2476-1.1375 1.0523-1.1375h2.6184l.783-1.3573h-3.676c-1.566 0-2.6003.549-2.6003 2.5326V8.889h5.6568l.783-1.3563h-4.6185V4.8135zM44.7055 6.148h2.8977l.6272-1.0733h-2.939" fill="#F39A1E"/><path d="M44.1772 4.8135h.0015c0-.827.248-1.1375 1.0533-1.1375h2.6178l.7835-1.3573h-3.6766c-1.5656 0-2.6002.549-2.6002 2.5326V8.889h5.6567l.783-1.3563h-4.619V4.8135zM35.629 3.693h2.2895v5.1836h1.801V3.693h1.694l.7857-1.3615h-5.7837M21.319 7.535h-.9988V3.6727h.9988c1.4546 0 1.9114.2566 1.9114 1.8816S22.7736 7.535 21.319 7.535m.3923-5.216h-3.1558v6.5702h3.24c2.2754 0 3.2995-.8778 3.2995-3.3368 0-2.3254-1.0135-3.2334-3.3837-3.2334M26.1222 8.8767h1.8398v-6.545h-1.8398M5.9627 5.6577V2.3315l-2.1882.0066L0 8.8696h1.805L4.1225 4.86V8.843l-.0156.0267h.0156v.007h1.8403L8.229 4.8602v4.0166h1.841v-6.545l-2.1888.0065" fill="#F39A1E"/><g fill="#F39A1E"><path d="M122.8 14.9914v7.9772c0 .0986.093.1914.2014.1914h15.2372c.1156 0 .2014-.0852.2014-.1914v-7.9772c0-.0986-.093-.1914-.2014-.1914h-15.2372c-.1156 0-.2014.0852-.2014.1914zm-.8 0c0-.5475.4435-.9914 1.0014-.9914h15.2372c.553 0 1.0014.4538 1.0014.9914v7.9772c0 .5475-.4435.9914-1.0014.9914h-15.2372c-.553 0-1.0014-.4538-1.0014-.9914v-7.9772z" fill-rule="nonzero"/><path d="M127.656 21.872v-.912h-2.648v-4.744H124v5.656h3.656zm1.696 0v-4.216h-.968v4.216h.968zm.08-5.344c0-.304-.16-.528-.56-.528-.416 0-.568.224-.568.528 0 .304.152.528.568.528.4 0 .56-.232.56-.528zm3.4 4.408c-.184.096-.416.16-.632.16-.328 0-.616-.08-.616-.52v-2.144h1.168l.04-.776h-1.208V16.64h-.84l-.112 1.016h-.568v.776h.552v2.24c0 .984.592 1.288 1.256 1.288.352 0 .688-.08.992-.192l-.032-.832zm4.32-.024l-.008.776c-.368.144-1.008.272-1.584.272-1.456 0-2.144-.792-2.144-2.152 0-1.408.704-2.24 1.992-2.24 1.336 0 1.832.808 1.832 1.784 0 .208-.024.448-.064.656H134.4c.048.824.464 1.152 1.288 1.152.632 0 1.256-.184 1.464-.248zm-.872-1.544v-.088c0-.592-.28-.96-.864-.96-.576 0-.952.344-1.008 1.048h1.872z"/></g></g></svg>