<svg width="140" height="28" viewBox="0 0 140 28" xmlns="http://www.w3.org/2000/svg"><title>logo_black</title><g fill="none"><path d="M8.242 26.931c-.259.103-1.828.413-3.208.413-3.191 0-4.967-1.673-4.967-5.002 0-3.725 2.001-7.538 6.882-7.538.845 0 2.38.139 3.122.414l-.31 1.518c-.345-.12-1.329-.431-2.674-.431-3.691 0-5.313 2.691-5.313 5.761 0 2.708 1.329 3.778 3.674 3.778 1.07 0 2.294-.207 2.984-.432l-.19 1.518zm6.019.086c-.414.155-.949.327-1.691.327-1.173 0-1.984-.517-1.984-1.673 0-.138.018-.327.035-.466l1.673-10.643h1.621l-1.639 10.333-.017.241c0 .621.259.811.948.811.414 0 .845-.121 1.19-.242l-.138 1.311zm5.347-1.069c2.07 0 3.467-1.708 3.467-4.157 0-1.811-.931-2.501-2.242-2.501-1.984 0-3.45 1.552-3.502 4.157 0 1.346.466 2.501 2.277 2.501m-3.881-2.363c0-3.122 2.018-5.675 5.158-5.675 2.449 0 3.812 1.328 3.812 3.725 0 3.226-2.018 5.71-5.227 5.71-2.345-.035-3.743-1.277-3.743-3.76m17.714 3.588h-1.328l.293-2.76c-1.121 1.742-2.57 2.932-4.26 2.932-1.466 0-2.174-.983-2.174-2.45 0-.276.017-.552.069-.863l.949-5.95h1.604l-.897 5.657c-.052.276-.069.552-.069.811 0 .776.241 1.363 1.001 1.363 1.241 0 2.932-1.795 4.001-3.812l.638-4.019h1.621l-1.449 9.09zm9.331-5.054l.397-2.57c-.414-.19-1.225-.31-1.846-.31-2.863 0-3.639 2.57-3.639 4.329 0 1.346.449 2.346 1.259 2.346 1.156 0 2.863-2.053 3.829-3.795m-6.727 1.639c0-2.536 1.294-5.848 5.313-5.848.759 0 1.535.121 2.053.225l.155-1.191.38-2.38h1.621l-2.001 12.609h-1.346l.328-2.76c-.949 1.57-2.381 2.932-3.933 2.932-1.707 0-2.57-1.535-2.57-3.587m13.609 1.449c.172.138 1.932.639 3.691.639 2.053 0 3.45-.811 3.45-2.122 0-2.691-6.244-1.415-6.244-5.209 0-2.363 2.087-3.709 5.209-3.709 1.794 0 3.208.466 3.553.587l-.328 1.518c-.69-.345-2.208-.621-3.415-.621-1.794 0-3.346.708-3.346 1.984 0 2.484 6.262 1.208 6.262 5.243 0 2.536-2.139 3.829-5.33 3.829-2.052 0-3.829-.552-3.829-.552l.328-1.587zm17.144-3.087l.396-2.57c-.413-.19-1.225-.31-1.845-.31-2.863 0-3.64 2.57-3.64 4.329 0 1.346.449 2.346 1.26 2.346 1.156 0 2.863-2.053 3.829-3.795m-6.727 1.639c0-2.536 1.362-5.848 5.381-5.848 1.621 0 2.863.328 3.519.501l-1.381 8.762h-1.345l.328-2.76c-.948 1.57-2.38 2.932-3.933 2.932-1.708 0-2.57-1.535-2.57-3.587m11.418-5.675h1.328l-.293 2.76c1.121-1.742 2.569-2.933 4.26-2.933 1.466 0 2.174.983 2.174 2.45 0 .275-.018.552-.069.862l-.949 5.951h-1.604l.897-5.657c.051-.276.069-.552.069-.811 0-.776-.241-1.363-1-1.363-1.242 0-2.932 1.794-4.002 3.812l-.638 4.019h-1.621l1.449-9.09zm15.765 4.036l.396-2.57c-.413-.19-1.225-.31-1.845-.31-2.863 0-3.64 2.57-3.64 4.329 0 1.346.449 2.346 1.26 2.346 1.156 0 2.863-2.053 3.829-3.795m-6.728 1.639c0-2.536 1.294-5.848 5.313-5.848.759 0 1.535.121 2.053.225l.155-1.191.38-2.38h1.621l-2.001 12.609h-1.345l.328-2.76c-.948 1.57-2.38 2.932-3.933 2.932-1.708 0-2.571-1.535-2.571-3.587m12.212-.621l-.396 2.57c.413.19 1.225.31 1.845.31 2.863 0 3.639-2.571 3.639-4.33 0-1.345-.448-2.345-1.259-2.345-1.156 0-2.863 2.053-3.829 3.795m6.727-1.639c0 2.535-1.362 5.847-5.381 5.847-1.621 0-2.881-.328-3.536-.501l1.949-12.281h1.604l-.759 4.761-.276 1.311c.966-1.483 2.363-2.725 3.829-2.725 1.742 0 2.57 1.535 2.57 3.588m5.105 4.45c2.07 0 3.467-1.708 3.467-4.157 0-1.811-.932-2.501-2.242-2.501-1.984 0-3.45 1.552-3.502 4.157 0 1.346.466 2.501 2.277 2.501m-3.881-2.363c0-3.122 2.018-5.675 5.157-5.675 2.45 0 3.812 1.328 3.812 3.725 0 3.226-2.018 5.71-5.226 5.71-2.346-.035-3.743-1.277-3.743-3.76m15.471 3.588l-1.794-3.312-2.898 3.312h-1.81l3.967-4.553-2.467-4.536h1.829l1.811 3.381 2.932-3.381h1.777l-4.002 4.553 2.501 4.536" fill="#353630"/><path d="M79.534 5.659c0-2.302 1.39-4.284 3.373-5.155h-23.468c-.578 0-1.05.472-1.05 1.05v8.197c0 .577.472 1.05 1.05 1.05h23.442c-1.97-.877-3.347-2.851-3.347-5.142m5.628-2.667c-1.471 0-2.668 1.197-2.668 2.668 0 .914.462 1.722 1.165 2.203.062-.322.16-.63.289-.921-.34-.323-.553-.777-.553-1.282 0-.974.792-1.766 1.766-1.766.567 0 1.071.268 1.395.685.302-.099.619-.166.946-.196-.454-.828-1.333-1.391-2.341-1.391m1.253 2.667c0-.155-.03-.304-.082-.441-.724.329-1.327.878-1.724 1.562.167.083.355.131.555.131.69 0 1.251-.561 1.251-1.251m1.507 1.614c.752 0 1.369.584 1.424 1.323.576-.818.919-1.812.93-2.884-.565-.453-1.262-.748-2.023-.818.061.245.093.501.093.764 0 .589-.162 1.141-.442 1.615l.017-.001m-.914 1.429c0 .504.41.915.914.915s.915-.41.915-.915-.41-.914-.915-.914-.914.41-.914.914m-.191-3.665c.074.194.114.403.114.622 0 .974-.793 1.767-1.766 1.767-.281 0-.546-.067-.782-.183-.115.278-.197.573-.243.88.316.132.662.205 1.026.205 1.471 0 2.667-1.196 2.667-2.668 0-.27-.04-.53-.116-.776-.311.015-.613.068-.899.154m-6.767.621c0 2.44 1.718 4.485 4.008 4.992-.303-.59-.476-1.26-.476-1.968l.008-.259c-.96-.549-1.609-1.582-1.609-2.765 0-1.755 1.428-3.183 3.183-3.183 1.295 0 2.411.778 2.907 1.891.797.031 1.539.279 2.168.686-.3-2.535-2.462-4.508-5.076-4.508-2.82 0-5.114 2.294-5.114 5.113m6.003-.878c-.227-.229-.541-.372-.889-.372-.69 0-1.251.561-1.251 1.251 0 .303.108.581.288.798.438-.725 1.082-1.311 1.851-1.677m-.889 5.993c.913 0 1.77-.241 2.513-.663-.672-.117-1.184-.702-1.184-1.407l.009-.157c-.406.189-.86.296-1.337.296-.374 0-.733-.066-1.066-.184l-.001.025c0 .763.226 1.473.614 2.069l.452.021" fill="#F39A1E"/><path d="M62.66 8.78c-.21.09-.521.21-1.012.21-.862 0-1.432-.42-1.432-1.323v-5.338h1.213v4.957c0 .561.27.672.581.672.21 0 .421-.06.601-.12l.05.942zm3.687-2.014c-.22-.02-.551-.05-.872-.05-.691 0-1.312.171-1.312.771 0 .571.561.631.862.631.671 0 1.081-.31 1.322-.561v-.792zm.271 2.114l-.11-.651c-.451.521-1.082.761-1.763.761-.972 0-1.783-.47-1.783-1.463 0-1.172 1.112-1.573 2.374-1.573.361 0 .702.04 1.012.08v-.622c0-.601-.451-.891-1.342-.891-.591 0-1.192.13-1.623.311l-.05-1.002c.31-.121.982-.341 1.963-.341 1.212 0 2.264.371 2.264 1.834v3.557h-.942zm2.835-.962c.271.071.552.1.792.1.982 0 1.663-.481 1.663-1.844 0-1.061-.41-1.673-1.172-1.673-.541 0-.992.321-1.283.631v2.785zm-1.212-5.588h1.212v1.17l-.03.661c.331-.361.861-.672 1.573-.672 1.282 0 2.114.982 2.114 2.675 0 1.924-1.122 2.825-2.836 2.825-.761 0-1.703-.18-2.034-.29v-6.37zm5.35 5.405c.071.06.973.301 1.764.301.621 0 1.112-.15 1.112-.571 0-1.042-2.966-.411-2.966-2.385 0-1.011.772-1.563 2.235-1.563.901 0 1.583.211 1.703.28l-.05 1.002c-.301-.151-.962-.28-1.563-.28-.651 0-1.153.15-1.153.54 0 .952 2.976.341 2.976 2.375 0 1.102-.872 1.583-2.224 1.583-.952 0-1.853-.24-1.884-.25l.05-1.032z" fill="#FFF"/><path fill="#F39A1E" d="M49.476 8.877h1.84v-6.546h-1.84m4.487 3.28h-.004l.004-.015 1.889-3.265h-1.84l-1.89 3.265.011.015h-.011l1.89 3.265h1.84m-22.191-6.545h-1.478l-3.78 6.545h1.861l2.692-4.66v4.66h1.86v-6.545h-.999m-20.317 3.816h2.897l.627-1.073h-2.938m-1.178-.26h.002c0-.827.248-1.137 1.052-1.137h2.618l.783-1.357h-3.676c-1.566 0-2.6.549-2.6 2.533v4.038h5.657l.783-1.356h-4.619v-2.719zm31.797 1.334h2.898l.627-1.073h-2.939m-1.114-.261h.002c0-.827.248-1.137 1.053-1.137h2.618l.783-1.357h-3.677c-1.566 0-2.6.549-2.6 2.533v4.038h5.657l.783-1.356h-4.619v-2.719zm-8.548-1.121h2.289v5.184h1.801v-5.184h1.694l.786-1.361h-5.784m-15.096 5.204h-.999v-3.862h.999c1.455 0 1.911.257 1.911 1.882s-.457 1.981-1.911 1.981m.392-5.216h-3.156v6.57h3.24c2.275 0 3.3-.878 3.3-3.337 0-2.325-1.014-3.233-3.384-3.233m4.411 6.558h1.84v-6.545h-1.84m-20.16 3.326v-3.326l-2.188.007-3.774 6.531h1.805l2.317-4.01v3.983l-.016.027h.016v.007h1.84l2.266-4.016v4.017h1.841v-6.545l-2.189.006"/><g fill="#F39A1E"><path d="M122.8 14.991v7.977c0 .099.093.191.201.191h15.237c.116 0 .201-.085.201-.191v-7.977c0-.099-.093-.191-.201-.191h-15.237c-.116 0-.201.085-.201.191zm-.8 0c0-.547.444-.991 1.001-.991h15.237c.553 0 1.001.454 1.001.991v7.977c0 .547-.444.991-1.001.991h-15.237c-.553 0-1.001-.454-1.001-.991v-7.977zM127.656 21.872v-.912h-2.648v-4.744h-1.008v5.656h3.656zm1.696 0v-4.216h-.968v4.216h.968zm.08-5.344c0-.304-.16-.528-.56-.528-.416 0-.568.224-.568.528 0 .304.152.528.568.528.4 0 .56-.232.56-.528zm3.4 4.408c-.184.096-.416.16-.632.16-.328 0-.616-.08-.616-.52v-2.144h1.168l.04-.776h-1.208v-1.016h-.84l-.112 1.016h-.568v.776h.552v2.24c0 .984.592 1.288 1.256 1.288.352 0 .688-.08.992-.192l-.032-.832zm4.32-.024l-.008.776c-.368.144-1.008.272-1.584.272-1.456 0-2.144-.792-2.144-2.152 0-1.408.704-2.24 1.992-2.24 1.336 0 1.832.808 1.832 1.784 0 .208-.024.448-.064.656h-2.776c.048.824.464 1.152 1.288 1.152.632 0 1.256-.184 1.464-.248zm-.872-1.544v-.088c0-.592-.28-.96-.864-.96-.576 0-.952.344-1.008 1.048h1.872z"/></g></g></svg>
