
<svg width="404px" height="233px" viewBox="0 0 404 233" version="1.1" xmlns="http://www.w3.org/2000/svg" xmlns:xlink="http://www.w3.org/1999/xlink">
    <!-- Generator: Sketch 43.2 (39069) - http://www.bohemiancoding.com/sketch -->
    <desc>Created with Sketch.</desc>
    <defs>
        <path d="M0,0.416347216 C0,0.186404998 0.184845923,0 0.416211497,0 L299.42762,0 C299.657487,0 299.843831,0.186193687 299.843831,0.416347216 L299.843831,186.986047 C299.843831,187.21599 299.658985,187.402395 299.42762,187.402395 L0.416211497,187.402395 C0.186344234,187.402395 0,187.216201 0,186.986047 L0,0.416347216 Z" id="path-1"></path>
    </defs>
    <g id="landing-page" stroke="none" stroke-width="1" fill="none" fill-rule="evenodd">
        <g id="Lite_landing-page_web_1024" transform="translate(-310.000000, -775.000000)">
            <g id="section_2" transform="translate(0.000000, 493.000000)">
                <g id="img" transform="translate(42.000000, 283.000000)">
                    <g id="mac" transform="translate(270.000000, 0.000000)">
                        <g>
                            <g id="Body">
                                <path d="M40.0830222,222.071838 C38.0131804,222.071838 36.3352421,220.393137 36.3352421,218.323873 L36.3352421,12.3890383 C36.3352421,5.60426108 41.8374715,0.104112441 48.6202636,0.104112441 L351.171511,0.104112441 C357.956342,0.104112441 363.456533,5.60480603 363.456533,12.3890383 L363.456533,218.323873 C363.456533,220.393817 361.779312,222.071838 359.708753,222.071838 L40.0830222,222.071838 Z" id="Combined-Shape" stroke="#D1D2D3" stroke-width="1.5" fill="#FAFAFA"></path>
                                <g id="Group" transform="translate(198.230088, 8.120770)">
                                    <path d="M1.87402395,2.70692348 C1.29994794,2.70692348 0.832899531,2.23987507 0.832899531,1.66579906 C0.832899531,1.09172306 1.29994794,0.624674649 1.87402395,0.624674649 C2.44809995,0.624674649 2.91514836,1.09172306 2.91514836,1.66579906 C2.91514836,2.23987507 2.44809995,2.70692348 1.87402395,2.70692348" id="Fill-9" fill="#D1D2D3"></path>
                                    <path d="M1.66579906,0 C0.747229865,0 0,0.747229865 0,1.66579906 C0,2.58436826 0.747229865,3.33159813 1.66579906,3.33159813 C2.58436826,3.33159813 3.33159813,2.58436826 3.33159813,1.66579906 C3.33159813,0.747229865 2.58436826,0 1.66579906,0 M1.66579906,0.951885179 C2.0601175,0.951885179 2.37971295,1.27148063 2.37971295,1.66579906 C2.37971295,2.0601175 2.0601175,2.37971295 1.66579906,2.37971295 C1.27148063,2.37971295 0.951885179,2.0601175 0.951885179,1.66579906 C0.951885179,1.27148063 1.27148063,0.951885179 1.66579906,0.951885179" id="Fill-11" fill="#F2F2F2"></path>
                                </g>
                                <path d="M49.765747,18.113638 C49.765747,17.8847033 49.9511064,17.699115 50.1807837,17.699115 L350.027441,17.699115 C350.25666,17.699115 350.442478,17.8861363 350.442478,18.113638 L350.442478,205.519886 C350.442478,205.748821 350.257118,205.934409 350.027441,205.934409 L50.1807837,205.934409 C49.9515653,205.934409 49.765747,205.747388 49.765747,205.519886 L49.765747,18.113638 Z" id="Combined-Shape" fill="#DEDEDE"></path>
                                <g id="Group-2" transform="translate(0.000000, 222.592400)">
                                    <path d="M0.626456894,4.85913483e-08 L399.285292,0.19036292 C399.515647,0.190472917 399.703524,0.37693556 399.703524,0.60683822 L399.703524,2.56478928 C383.672648,7.55486606 335.658511,7.28767124 335.658511,7.28767124 C335.658511,7.28767124 89.6424388,7.22422772 50.3904217,7.28767124 C11.243737,6.76100869 0.208224883,2.73153186 0.208224883,2.73153186 L0.208224883,0.41469156 C0.208224883,0.18756331 0.395473732,-0.000110247768 0.626456894,4.85913483e-08 Z" id="Combined-Shape" stroke="#D1D2D3" stroke-width="3"></path>
                                    <path d="M400,2.49869859 C400,2.49869859 395.880425,7.49609578 310.370033,7.31761731 C282.181099,7.25878098 241.793089,7.25765813 200.312337,7.28259157 C158.342083,7.25765453 117.866027,7.25868249 89.6299185,7.31761731 C4.11957279,7.49609578 0,2.49869859 0,2.49869859 L400,2.49869859 Z" id="Combined-Shape" fill="#D1D2D3"></path>
                                    <path d="M0,0.418225966 C0,0.187246143 0.184493756,0 0.416062718,0 L399.583937,0 C399.813722,0 400,0.187808508 400,0.418225966 L400,2.49869859 L0,2.49869859 L0,0.418225966 Z" id="Combined-Shape" fill="#FAFAFA"></path>
                                    <path d="M162.207184,0 L238.001041,0 L238.001041,2.49869859 C238.001041,2.49869859 228.454418,3.33159813 200.253774,3.33159813 C172.05313,3.33159813 162.207184,2.49869859 162.207184,2.49869859 L162.207184,0 Z" id="Combined-Shape" fill="#DEDEDE"></path>
                                </g>
                            </g>
                            <g id="Screen" transform="translate(50.182197, 18.115565)">
                                <mask id="mask-2" fill="white">
                                    <use xlink:href="#path-1"></use>
                                </mask>
                                <use id="Combined-Shape" fill="#75868C" xlink:href="#path-1"></use>
                            </g>
                        </g>
                    </g>
                </g>
            </g>
        </g>
    </g>
</svg>
