
<svg width="932px" height="200px" viewBox="0 0 932 200" version="1.1" xmlns="http://www.w3.org/2000/svg" xmlns:xlink="http://www.w3.org/1999/xlink">
    <!-- Generator: Sketch 43.2 (39069) - http://www.bohemiancoding.com/sketch -->
    <desc>Created with Sketch.</desc>
    <defs></defs>
    <g id="landing-page" stroke="none" stroke-width="1" fill="none" fill-rule="evenodd">
        <g id="Lite_landing-page_web_1024" transform="translate(-47.000000, -794.000000)">
            <g id="section_2" transform="translate(0.000000, 493.000000)">
                <g id="img" transform="translate(42.000000, 283.000000)">
                    <g id="bg" transform="translate(0.000000, 12.000000)">
                        <g id="lines" transform="translate(23.759259, 19.583333)" stroke="#D1D2D3" stroke-dasharray="5">
                            <polygon id="Path-7" fill-opacity="0.03" fill="#00A1DE" points="178.601852 115.324074 685.240741 67.4166667 828.115741 169.722222 502.814815 143.06713"></polygon>
                            <polygon id="Path-8" fill-opacity="0.03" fill="#00A1DE" points="203.625 2.84217094e-14 893.240741 98.4166667 830.291667 169.722222"></polygon>
                            <polygon id="Path-3" fill-opacity="0.03" fill="#00A1DE" points="92.2407407 30.4166667 72.2407407 158.416667 829.203704 170.810185 765.240741 14.4166667"></polygon>
                            <polygon id="Path-2" fill-opacity="0.03" fill="#00A1DE" points="202.537037 1.08796296 92.2407407 30.4166667 0.240740741 96.4166667 72.2407407 158.416667 178.601852 115.324074"></polygon>
                            <path d="M766.240741,14.4166667 L894.240741,98.4166667" id="Path-5"></path>
                        </g>
                        <g id="icon">
                            <g id="flights" transform="translate(-0.000000, 97.000000)" fill="#97D9F2">
                                <path d="M11.23912,26.5114845 L20.2889937,17.4616108 L5.68332542,10.6456322 C5.14784793,10.3957427 5.05026511,9.85311716 5.46834769,9.43503458 L7.21822562,7.68515665 C7.62593781,7.27744446 8.44662379,7.0329051 9.02811615,7.16212563 L26.6684129,11.0821916 L29.7344904,8.01611413 C31.5630988,6.19360102 35.3279672,3.66426228 37.3133136,5.84018821 C39.2986599,8.01611413 37.1565757,11.6342866 35.3279672,13.4559289 L32.1318784,16.6284346 L36.0282937,34.1623032 C36.1575142,34.7437955 35.9129748,35.5644815 35.5052627,35.9721937 L33.7553847,37.7220716 C33.3373021,38.1401542 32.7946766,38.0425714 32.5447871,37.5070939 L25.7552263,22.9580351 L16.6789348,31.9673549 L16.6789348,36.3081584 C16.6789348,36.9062584 16.2451191,37.5611083 15.6765833,37.7838937 L14.9048659,38.0862975 C14.3512825,38.3032237 13.7109697,38.0096154 13.4863591,37.4591118 L11.23912,31.9512993 L5.73130749,30.1153618 C5.18080389,29.9318606 4.86546294,29.3130112 5.05558049,28.7426586 L5.45506689,27.5441993 C5.64802858,26.9653143 6.28416095,26.5114845 6.88226086,26.5114845 L11.23912,26.5114845 L11.23912,26.5114845 Z" id="Rounded_Rectangle_214_copy"></path>
                            </g>
                            <g id="games" transform="translate(94.000000, 28.000000)">
                                <g id="bg" transform="translate(6.527778, 13.055556)" fill="#FAFAFA">
                                    <rect id="Rectangle-99" x="4.89583333" y="0" width="3.26388889" height="13.0555556" rx="0.5"></rect>
                                    <rect id="Rectangle-99" x="4.89583333" y="0" width="3.26388889" height="13.0555556" rx="0.5"></rect>
                                    <ellipse id="Oval" cx="23.9077821" cy="10.8796296" rx="2.173818" ry="2.17592593"></ellipse>
                                    <ellipse id="Oval" cx="23.9077821" cy="2.17592593" rx="2.173818" ry="2.17592593"></ellipse>
                                    <ellipse id="Oval" cx="28.2849291" cy="6.52777778" rx="2.173818" ry="2.17592593"></ellipse>
                                    <ellipse id="Oval" cx="19.5812254" cy="6.52777778" rx="2.173818" ry="2.17592593"></ellipse>
                                </g>
                                <path d="M14.6875,17.9513889 L14.6875,13.5514066 C14.6875,13.2821592 14.459173,13.0555556 14.1775174,13.0555556 L11.9335938,13.0555556 C11.637764,13.0555556 11.4236111,13.2775556 11.4236111,13.5514066 L11.4236111,17.9513889 L7.02362882,17.9513889 C6.75438139,17.9513889 6.52777778,18.1797159 6.52777778,18.4613715 L6.52777778,20.7052951 C6.52777778,21.0011249 6.74977785,21.2152778 7.02362882,21.2152778 L11.4236111,21.2152778 L11.4236111,25.6152601 C11.4236111,25.8845075 11.6519381,26.1111111 11.9335938,26.1111111 L14.1775174,26.1111111 C14.4733471,26.1111111 14.6875,25.889111 14.6875,25.6152601 L14.6875,21.2152778 L19.0874823,21.2152778 C19.3567297,21.2152778 19.5833333,20.9869508 19.5833333,20.7052951 L19.5833333,18.4613715 C19.5833333,18.1655418 19.3613333,17.9513889 19.0874823,17.9513889 L14.6875,17.9513889 Z M30.1148148,8.7037037 C34.6189815,8.7037037 41.3425926,15.2314815 41.3425926,28.2872412 C41.3425926,32.638957 39.6453704,34.8148148 36.6425926,34.8148148 C29.8537037,34.8148148 26.3287037,27.4712945 21.7592593,27.4712945 L21.7592593,11.1539941 C24.6314815,11.1539941 26.9162037,8.7037037 30.1148148,8.7037037 Z M21.7592593,11.1539941 L21.7592593,27.4712945 C17.1898148,27.4712945 13.6648148,34.8148148 6.87592593,34.8148148 C3.87314815,34.8148148 2.17592593,32.638957 2.17592593,28.2872412 C2.17592593,15.2314815 8.89953704,8.7037037 13.4037037,8.7037037 C16.6023148,8.7037037 18.887037,11.1539941 21.7592593,11.1539941 Z M30.4355599,26.1111111 C31.6361264,26.1111111 32.6093779,25.1369159 32.6093779,23.9351852 C32.6093779,22.7334545 31.6361264,21.7592593 30.4355599,21.7592593 C29.2349934,21.7592593 28.2617419,22.7334545 28.2617419,23.9351852 C28.2617419,25.1369159 29.2349934,26.1111111 30.4355599,26.1111111 Z M30.4355599,17.4074074 C31.6361264,17.4074074 32.6093779,16.4332122 32.6093779,15.2314815 C32.6093779,14.0297508 31.6361264,13.0555556 30.4355599,13.0555556 C29.2349934,13.0555556 28.2617419,14.0297508 28.2617419,15.2314815 C28.2617419,16.4332122 29.2349934,17.4074074 30.4355599,17.4074074 Z M34.8127069,21.7592593 C36.0132734,21.7592593 36.9865249,20.785064 36.9865249,19.5833333 C36.9865249,18.3816026 36.0132734,17.4074074 34.8127069,17.4074074 C33.6121404,17.4074074 32.6388889,18.3816026 32.6388889,19.5833333 C32.6388889,20.785064 33.6121404,21.7592593 34.8127069,21.7592593 Z M26.1090032,21.7592593 C27.3095697,21.7592593 28.2828212,20.785064 28.2828212,19.5833333 C28.2828212,18.3816026 27.3095697,17.4074074 26.1090032,17.4074074 C24.9084367,17.4074074 23.9351852,18.3816026 23.9351852,19.5833333 C23.9351852,20.785064 24.9084367,21.7592593 26.1090032,21.7592593 Z" id="Combined-Shape" fill="#61C5ED"></path>
                            </g>
                            <g id="tv" transform="translate(74.000000, 157.000000)">
                                <rect id="Path" fill="#FAFAFA" x="5.43981481" y="7.61574074" width="32.6388889" height="21.7592593" rx="0.5"></rect>
                                <path d="M2.17592593,4.84282635 C2.17592593,4.57166862 2.40593696,4.35185185 2.67113731,4.35185185 L40.8473812,4.35185185 C41.1208789,4.35185185 41.3425926,4.57954675 41.3425926,4.84282635 L41.3425926,32.1479144 C41.3425926,32.4190721 41.1125816,32.6388889 40.8473812,32.6388889 L2.67113731,32.6388889 C2.39763961,32.6388889 2.17592593,32.411194 2.17592593,32.1479144 L2.17592593,4.84282635 Z M5.43981481,8.11109634 L5.43981481,28.8796444 C5.43981481,29.159641 5.66350149,29.375 5.939433,29.375 L37.5790855,29.375 C37.8528515,29.375 38.0787037,29.1532217 38.0787037,28.8796444 L38.0787037,8.11109634 C38.0787037,7.83109977 37.855017,7.61574074 37.5790855,7.61574074 L5.939433,7.61574074 C5.66566701,7.61574074 5.43981481,7.837519 5.43981481,8.11109634 Z M10.8796296,36.4127604 C10.8796296,36.1311048 11.0949887,35.9027778 11.3749852,35.9027778 L32.1435333,35.9027778 C32.4171106,35.9027778 32.6388889,36.1169306 32.6388889,36.4127604 L32.6388889,38.656684 C32.6388889,38.9383397 32.4235299,39.1666667 32.1435333,39.1666667 L11.3749852,39.1666667 C11.1014079,39.1666667 10.8796296,38.9525138 10.8796296,38.656684 L10.8796296,36.4127604 Z" id="Combined-Shape" fill="#28B2E6"></path>
                            </g>
                            <g id="car" transform="translate(203.537037, 0.000000)">
                                <g id="bg" transform="translate(8.703704, 10.879630)" fill="#FAFAFA">
                                    <path d="M23.6124351,2.01661127 C23.6124351,2.01661127 25.9921692,8.27201562 26.1111111,8.7037037 L0,8.7037037 C0.119091596,8.2716893 2.49870735,2.01654301 2.49870735,2.01654301 C2.91426813,0.920653523 4.23569212,1.19821848e-13 5.43447215,1.11125101e-13 L20.676639,0 C21.8760817,-8.69674703e-15 23.1898197,0.902867621 23.6124351,2.01661127 Z" id="Combined-Shape"></path>
                                    <path d="M18.4953704,14.1537115 C18.4953704,13.5472167 18.9950604,13.0555556 19.5865203,13.0555556 L25.0199611,13.0555556 C25.6225866,13.0555556 26.1111111,13.5212799 26.1111111,14.1537115 L26.1111111,16.3092514 C26.1111111,16.9157462 25.6114211,17.4074074 25.0199611,17.4074074 L19.5865203,17.4074074 C18.9838949,17.4074074 18.4953704,16.941683 18.4953704,16.3092514 L18.4953704,14.1537115 Z" id="Combined-Shape"></path>
                                    <path d="M0,14.1537115 C0,13.5472167 0.499690021,13.0555556 1.09114997,13.0555556 L6.52459078,13.0555556 C7.12721626,13.0555556 7.61574074,13.5212799 7.61574074,14.1537115 L7.61574074,16.3092514 C7.61574074,16.9157462 7.11605072,17.4074074 6.52459078,17.4074074 L1.09114997,17.4074074 C0.48852448,17.4074074 0,16.941683 0,16.3092514 L0,14.1537115 Z" id="Combined-Shape"></path>
                                </g>
                                <path d="M32.6388889,34.8148148 L10.8796296,34.8148148 L10.8796296,36.9703547 C10.8796296,38.1833443 9.91643354,39.1666667 8.70597415,39.1666667 L6.52550733,39.1666667 C5.32503056,39.1666667 4.35185185,38.201963 4.35185185,36.9703547 L4.35185185,21.503268 C4.35185185,20.9592053 4.44449751,20.3022163 4.59969527,19.5833333 L4.34958141,19.5833333 C3.14910463,19.5833333 2.17592593,18.6175164 2.17592593,17.4074074 C2.17592593,16.2056767 3.13912202,15.2314815 4.34958141,15.2314815 L5.93100239,15.2314815 C6.86391121,12.6954951 7.8641232,10.5223613 7.8641232,10.5223613 C8.80850299,8.31621372 11.527208,6.52777778 13.9310079,6.52777778 L29.5875106,6.52777778 C31.9937787,6.52777778 34.7262639,8.31657411 35.6543953,10.5215162 C35.6543953,10.5215162 36.6550335,12.6949295 37.5881124,15.2314815 L39.1689371,15.2314815 C40.3694139,15.2314815 41.3425926,16.1972985 41.3425926,17.4074074 C41.3425926,18.6091381 40.3793965,19.5833333 39.1689371,19.5833333 L38.9190658,19.5833333 C39.0741175,20.3020318 39.1666667,20.9589833 39.1666667,21.503268 L39.1666667,36.9703547 C39.1666667,38.1833443 38.2034706,39.1666667 36.9930112,39.1666667 L34.8125444,39.1666667 C33.6120676,39.1666667 32.6388889,38.201963 32.6388889,36.9703547 L32.6388889,34.8148148 Z M32.3161388,12.8962409 C31.8935234,11.7824973 30.5797854,10.8796296 29.3803427,10.8796296 L14.1381759,10.8796296 C12.9393958,10.8796296 11.6179718,11.8002832 11.2024111,12.8961726 C11.2024111,12.8961726 8.8227953,19.1513189 8.7037037,19.5833333 L34.8148148,19.5833333 C34.6958729,19.1516452 32.3161388,12.8962409 32.3161388,12.8962409 Z M27.1990741,25.0333412 L27.1990741,27.1888811 C27.1990741,27.8213127 27.6875986,28.287037 28.290224,28.287037 L33.7236648,28.287037 C34.3151248,28.287037 34.8148148,27.7953759 34.8148148,27.1888811 L34.8148148,25.0333412 C34.8148148,24.4009096 34.3262903,23.9351852 33.7236648,23.9351852 L28.290224,23.9351852 C27.6987641,23.9351852 27.1990741,24.4268464 27.1990741,25.0333412 Z M8.7037037,25.0333412 L8.7037037,27.1888811 C8.7037037,27.8213127 9.19222818,28.287037 9.79485367,28.287037 L15.2282945,28.287037 C15.8197544,28.287037 16.3194444,27.7953759 16.3194444,27.1888811 L16.3194444,25.0333412 C16.3194444,24.4009096 15.83092,23.9351852 15.2282945,23.9351852 L9.79485367,23.9351852 C9.20339372,23.9351852 8.7037037,24.4268464 8.7037037,25.0333412 Z" id="Combined-Shape" fill="#97D9F2" fill-rule="nonzero"></path>
                            </g>
                            <g id="alcohol" transform="translate(686.000000, 62.000000)">
                                <polygon id="Shape" fill="#FAFAFA" points="8.7674671 24.1105345 17.5349342 24.1105345 17.5349342 37.2617352 8.7674671 37.2617352"></polygon>
                                <path d="M34.5219017,32.6495815 L34.5219017,39.453602 L31.2341015,39.453602 L31.2341015,32.6495815 C28.3980004,31.8502021 26.3024013,29.0763017 26.3024013,26.3024013 C26.3024013,23.0146011 28.4942681,17.5349342 28.4942681,17.5349342 L37.2617352,17.5349342 C37.2617352,17.5349342 39.453602,23.0146011 39.453602,26.3024013 C39.453602,29.0763017 37.3580029,31.8502021 34.5219017,32.6495815 Z M16.4390008,8.7674671 L16.4390008,13.1512007 L17.4257568,13.1512007 C19.907123,13.1512007 21.9186678,15.166215 21.9186678,17.6504787 L21.9186678,41.1508973 C21.9186678,41.4240416 21.6969614,41.6454687 21.4127919,41.6454687 L4.88960942,41.6454687 C4.61022189,41.6454687 4.38373355,41.4161057 4.38373355,41.1508973 L4.38373355,17.6504787 C4.38373355,15.165596 6.39521346,13.1512007 8.87664452,13.1512007 L9.86340049,13.1512007 L9.86340049,8.7674671 L16.4390008,8.7674671 Z M16.4390008,6.57560033 L16.4390008,3.18816985 C16.4390008,2.63792686 15.9483347,2.19186678 15.3430674,2.19186678 L10.9593339,2.19186678 C10.3540666,2.19186678 9.86340049,2.63792686 9.86340049,3.18816985 L9.86340049,6.57560033 L16.4390008,6.57560033 Z M8.7674671,24.1105345 L8.7674671,37.2617352 L17.5349342,37.2617352 L17.5349342,24.1105345 L8.7674671,24.1105345 Z M27.3983347,39.453602 L38.3576686,39.453602 L38.3576686,41.6454687 L27.3983347,41.6454687 L27.3983347,39.453602 Z" id="Combined-Shape" fill="#CBECF9"></path>
                            </g>
                            <g id="laundry" transform="translate(830.115741, 164.282407)">
                                <g id="bg" transform="translate(10.879630, 6.527778)" fill="#FAFAFA">
                                    <circle id="Oval" cx="19.5833333" cy="2.17592593" r="2.17592593"></circle>
                                    <circle id="Oval" cx="13.0555556" cy="2.17592593" r="2.17592593"></circle>
                                    <path d="M10.8796296,8.7037037 C16.8882832,8.7037037 21.7592593,13.5746798 21.7592593,19.5833333 C21.7592593,25.5919869 16.8882832,30.462963 10.8796296,30.462963 C4.8709761,30.462963 0,25.5919869 0,19.5833333 C0,13.5746798 4.8709761,8.7037037 10.8796296,8.7037037 L10.8796296,8.7037037 Z" id="Shape"></path>
                                </g>
                                <path d="M8.43171296,2.17592593 L35.0868056,2.17592593 C36.1383199,2.17592593 36.9907407,3.05270162 36.9907407,4.13425926 L36.9907407,39.3842593 C36.9907407,40.4658169 36.1383199,41.3425926 35.0868056,41.3425926 L8.43171296,41.3425926 C7.3801986,41.3425926 6.52777778,40.4658169 6.52777778,39.3842593 L6.52777778,4.13425926 C6.52777778,3.05270162 7.3801986,2.17592593 8.43171296,2.17592593 Z M30.462963,10.8796296 C31.6646937,10.8796296 32.6388889,9.90543441 32.6388889,8.7037037 C32.6388889,7.501973 31.6646937,6.52777778 30.462963,6.52777778 C29.2612323,6.52777778 28.287037,7.501973 28.287037,8.7037037 C28.287037,9.90543441 29.2612323,10.8796296 30.462963,10.8796296 Z M23.9351852,10.8796296 C25.1369159,10.8796296 26.1111111,9.90543441 26.1111111,8.7037037 C26.1111111,7.501973 25.1369159,6.52777778 23.9351852,6.52777778 C22.7334545,6.52777778 21.7592593,7.501973 21.7592593,8.7037037 C21.7592593,9.90543441 22.7334545,10.8796296 23.9351852,10.8796296 Z M21.7592593,15.2314815 L21.7592593,15.2314815 C15.7506057,15.2314815 10.8796296,20.1024576 10.8796296,26.1111111 C10.8796296,32.1197646 15.7506057,36.9907407 21.7592593,36.9907407 C27.7679128,36.9907407 32.6388889,32.1197646 32.6388889,26.1111111 C32.6388889,20.1024576 27.7679128,15.2314815 21.7592593,15.2314815 Z M29.5925924,25.6759259 C29.5925924,30.0021563 26.0854897,33.509259 21.7592593,33.509259 C17.4330288,33.509259 13.9259261,30.0021563 13.9259261,25.6759259 C18.596551,30.3465508 25.2676133,21.3509468 29.5925924,25.6759259 Z" id="Combined-Shape" fill="#61C5ED"></path>
                            </g>
                            <g id="housing" transform="translate(768.000000, 10.000000)">
                                <g id="bg" transform="translate(14.472438, 17.812231)" fill="#FAFAFA">
                                    <rect id="Rectangle-10" x="0.139158053" y="0.587556225" width="4.32936166" height="6.49404249" rx="0.5"></rect>
                                    <rect id="Rectangle-10-Copy-2" x="0.139158053" y="11.4109604" width="4.32936166" height="6.49404249" rx="0.5"></rect>
                                    <rect id="Rectangle-10-Copy-4" x="9.88022179" y="0.587556225" width="4.32936166" height="6.49404249" rx="0.5"></rect>
                                    <rect id="Rectangle-10-Copy-5" x="9.88022179" y="11.4109604" width="4.32936166" height="6.49404249" rx="0.5"></rect>
                                </g>
                                <path d="M34.0937231,10.8234042 L34.0937231,40.6259751 C34.0937231,40.9037526 33.8785145,41.1289358 33.5964594,41.1289358 L9.69715721,41.1289358 C9.42252606,41.1289358 9.19989353,40.9077642 9.19989353,40.6259751 L9.19989353,10.8234042 L5.41431487,10.8234042 C5.1379839,10.8234042 5.05855639,10.6581664 5.2395211,10.4513496 L12.1648086,2.53673535 C12.3446036,2.33125531 12.7229976,2.16468083 12.9825062,2.16468083 L30.3979935,2.16468083 C30.6698004,2.16468083 31.0347264,2.32991854 31.2156911,2.53673535 L38.1409786,10.4513496 C38.3207736,10.6568297 38.2522663,10.8234042 37.9661848,10.8234042 L34.0937231,10.8234042 Z M14.6115956,18.9093637 L14.6115956,24.3842529 C14.6115956,24.6777611 14.8339457,24.8938296 15.1082284,24.8938296 L18.4443244,24.8938296 C18.708192,24.8938296 18.9409573,24.6656843 18.9409573,24.3842529 L18.9409573,18.9093637 C18.9409573,18.6158555 18.7186072,18.3997871 18.4443244,18.3997871 L15.1082284,18.3997871 C14.8443609,18.3997871 14.6115956,18.6279323 14.6115956,18.9093637 Z M14.6115956,29.7327678 L14.6115956,35.2076571 C14.6115956,35.5011653 14.8339457,35.7172337 15.1082284,35.7172337 L18.4443244,35.7172337 C18.708192,35.7172337 18.9409573,35.4890885 18.9409573,35.2076571 L18.9409573,29.7327678 C18.9409573,29.4392596 18.7186072,29.2231912 18.4443244,29.2231912 L15.1082284,29.2231912 C14.8443609,29.2231912 14.6115956,29.4513364 14.6115956,29.7327678 Z M24.3526593,18.9093637 L24.3526593,24.3842529 C24.3526593,24.6777611 24.5750094,24.8938296 24.8492922,24.8938296 L28.1853882,24.8938296 C28.4492557,24.8938296 28.682021,24.6656843 28.682021,24.3842529 L28.682021,18.9093637 C28.682021,18.6158555 28.4596709,18.3997871 28.1853882,18.3997871 L24.8492922,18.3997871 C24.5854246,18.3997871 24.3526593,18.6279323 24.3526593,18.9093637 Z M24.3526593,29.7327678 L24.3526593,35.2076571 C24.3526593,35.5011653 24.5750094,35.7172337 24.8492922,35.7172337 L28.1853882,35.7172337 C28.4492557,35.7172337 28.682021,35.4890885 28.682021,35.2076571 L28.682021,29.7327678 C28.682021,29.4392596 28.4596709,29.2231912 28.1853882,29.2231912 L24.8492922,29.2231912 C24.5854246,29.2231912 24.3526593,29.4513364 24.3526593,29.7327678 Z M9.19989353,10.8234042 L9.19989353,14.0704254 L34.0937231,14.0704254 L34.0937231,10.8234042 L9.19989353,10.8234042 Z" id="Combined-Shape" fill="#28B2E6"></path>
                            </g>
                            <g id="purchases" transform="translate(896.000000, 97.000000)" fill="#97D9F2">
                                <path d="M12.1,9.9 L38.4835353,9.9 C39.7076549,9.9 40.3992615,10.8523386 40.0430376,11.9803809 L34.7569624,28.7196191 C34.3941321,29.8685817 33.0973259,30.8 31.8945588,30.8 L9.90544125,30.8 C8.68740968,30.8 7.7,29.8199821 7.7,28.6028359 L7.7,9.89770443 C7.7,8.67385273 6.71502645,7.7 5.5,7.7 C4.27650261,7.7 3.3,6.71502645 3.3,5.5 C3.3,4.27650261 4.29420167,3.3 5.52061157,3.3 L7.7,3.3 C10.1469948,3.3 12.1,5.27475525 12.1,7.7107393 L12.1,9.9 L12.1,9.9 Z M11,40.7 C12.8225397,40.7 14.3,39.2225397 14.3,37.4 C14.3,35.5774603 12.8225397,34.1 11,34.1 C9.17746033,34.1 7.7,35.5774603 7.7,37.4 C7.7,39.2225397 9.17746033,40.7 11,40.7 Z M26.4,40.7 C28.2225397,40.7 29.7,39.2225397 29.7,37.4 C29.7,35.5774603 28.2225397,34.1 26.4,34.1 C24.5774603,34.1 23.1,35.5774603 23.1,37.4 C23.1,39.2225397 24.5774603,40.7 26.4,40.7 Z" id="Combined-Shape"></path>
                            </g>
                            <g id="telephone" transform="translate(181.000000, 112.000000)">
                                <g id="bg" transform="translate(12.537478, 10.257937)" fill="#FAFAFA">
                                    <rect id="Rectangle-18" x="20.3405237" y="24.8119319" width="4.38373355" height="3.28780016" rx="0.5"></rect>
                                    <rect id="Rectangle-20" x="0.613722697" y="0.701397368" width="10.9593339" height="10.9593339" rx="0.5"></rect>
                                </g>
                                <path d="M21.9186678,6.57560033 L21.9186678,3.19760673 C21.9186678,2.64215189 22.3712931,2.19186678 22.9134047,2.19186678 L25.3076643,2.19186678 C25.8570424,2.19186678 26.3024013,2.63870031 26.3024013,3.19760673 L26.3024013,8.76330634 L26.3024013,34.07245 C26.3024013,34.623309 25.8597599,35.0698684 25.2956998,35.0698684 L11.9660354,35.0698684 C11.4100495,35.0698684 10.9593339,34.6222915 10.9593339,34.07245 L10.9593339,7.57301876 C10.9593339,7.02215977 11.4019753,6.57560033 11.9660354,6.57560033 L21.9186678,6.57560033 Z M8.7674671,32.8780016 L8.7674671,36.3589568 C8.7674671,37.4555257 9.66292927,38.3576686 10.7675378,38.3576686 L26.4941973,38.3576686 C27.595388,38.3576686 28.4942681,37.4628148 28.4942681,36.3589568 L28.4942681,32.8780016 L38.4605204,32.8780016 C39.0089842,32.8780016 39.453602,33.3248352 39.453602,33.8837416 L39.453602,40.6397288 C39.453602,41.1951836 39.0101892,41.6454687 38.4605204,41.6454687 L5.37681507,41.6454687 C4.82835129,41.6454687 4.38373355,41.1986352 4.38373355,40.6397288 L4.38373355,33.8837416 C4.38373355,33.3282867 4.82714627,32.8780016 5.37681507,32.8780016 L8.7674671,32.8780016 Z M32.8780016,35.5692145 L32.8780016,37.8583225 C32.8780016,38.1419468 33.1031442,38.3576686 33.3808716,38.3576686 L36.7588652,38.3576686 C37.0383184,38.3576686 37.2617352,38.1341037 37.2617352,37.8583225 L37.2617352,35.5692145 C37.2617352,35.2855902 37.0365926,35.0698684 36.7588652,35.0698684 L33.3808716,35.0698684 C33.1014184,35.0698684 32.8780016,35.2934333 32.8780016,35.5692145 Z M13.1512007,11.4587117 L13.1512007,21.4192899 C13.1512007,21.6897665 13.3747797,21.9186678 13.6505785,21.9186678 L23.6111567,21.9186678 C23.8816333,21.9186678 24.1105345,21.6950887 24.1105345,21.4192899 L24.1105345,11.4587117 C24.1105345,11.1882351 23.8869555,10.9593339 23.6111567,10.9593339 L13.6505785,10.9593339 C13.3801019,10.9593339 13.1512007,11.1829129 13.1512007,11.4587117 Z" id="Combined-Shape" fill="#CBECF9"></path>
                            </g>
                        </g>
                    </g>
                </g>
            </g>
        </g>
    </g>
</svg>
