
<svg width="80px" height="61px" viewBox="0 0 80 61" version="1.1" xmlns="http://www.w3.org/2000/svg" xmlns:xlink="http://www.w3.org/1999/xlink">
    <!-- Generator: Sketch 43.2 (39069) - http://www.bohemiancoding.com/sketch -->
    <desc>Created with Sketch.</desc>
    <defs></defs>
    <g id="landing-page" stroke="none" stroke-width="1" fill="none" fill-rule="evenodd">
        <g id="Lite_landing-page_web_1024" transform="translate(-472.000000, -695.000000)">
            <g id="section_2" transform="translate(0.000000, 493.000000)">
                <g id="wifi-signal" transform="translate(472.000000, 202.000000)">
                    <g id="Group" fill-rule="nonzero" fill="#00A1DE">
                        <path d="M76.039604,22.5742574 C75.0257426,22.5742574 74.1386139,22.1940594 73.3782178,21.4336634 C54.8752475,3.05742574 24.9663366,3.05742574 6.46336634,21.4336634 C4.94257426,22.9544554 2.53465347,22.9544554 1.14059406,21.4336634 C-0.38019802,19.9128713 -0.38019802,17.5049505 1.14059406,16.1108911 C22.5584158,-5.30693069 57.409901,-5.30693069 78.8277228,16.1108911 C80.3485149,17.6316832 80.3485149,20.039604 78.8277228,21.4336634 C78.0673267,22.1940594 77.0534653,22.5742574 76.039604,22.5742574 Z" id="Shape" fill-opacity="0.25"></path>
                        <path d="M62.7326733,36.0079208 C61.7188119,36.0079208 60.8316832,35.6277228 60.0712871,34.8673267 C48.9188119,23.7148515 30.9227723,23.7148515 19.770297,34.8673267 C18.249505,36.3881188 15.8415842,36.3881188 14.4475248,34.8673267 C12.9267327,33.3465347 12.9267327,30.9386139 14.4475248,29.5445545 C28.5148515,15.4772277 51.3267327,15.4772277 65.3940594,29.5445545 C66.9148515,31.0653465 66.9148515,33.4732673 65.3940594,34.8673267 C64.6336634,35.6277228 63.7465347,36.0079208 62.7326733,36.0079208 Z" id="Shape" fill-opacity="0.5"></path>
                        <path d="M49.0455446,48.8079208 C48.0316832,48.8079208 47.1445545,48.4277228 46.3841584,47.6673267 C42.8356436,44.1188119 37.0059406,44.1188119 33.4574257,47.6673267 C31.9366337,49.1881188 29.5287129,49.1881188 28.1346535,47.6673267 C26.6138614,46.1465347 26.6138614,43.7386139 28.1346535,42.3445545 C34.5980198,35.8811881 45.2435644,35.8811881 51.7069307,42.3445545 C53.2277228,43.8653465 53.2277228,46.2732673 51.7069307,47.6673267 C50.9465347,48.4277228 50.0594059,48.8079208 49.0455446,48.8079208 Z" id="Shape" fill-opacity="0.75"></path>
                        <circle id="Oval" cx="39.9207921" cy="56.7920792" r="3.8019802"></circle>
                    </g>
                    <g id="Group" transform="translate(0.633663, 4.118812)"></g>
                </g>
            </g>
        </g>
    </g>
</svg>
