<svg width="140" height="28" viewBox="0 0 140 28" xmlns="http://www.w3.org/2000/svg"><title>logo_white</title><g fill="none" fill-rule="evenodd"><g fill="#FFF"><path d="M8.24224 26.93118c-.25866.10336-1.82824.41344-3.20824.41344-3.1911 0-4.9674-1.67294-4.9674-5.00218 0-3.72505 2.00068-7.53782 6.88236-7.53782.84504 0 2.37983.13866 3.1215.41446l-.31007 1.51764c-.3449-.1205-1.32858-.4311-2.6738-.4311-3.69126 0-5.31277 2.69093-5.31277 5.76152 0 2.70807 1.32857 3.77748 3.67412 3.77748 1.0694 0 2.29412-.20723 2.98387-.4316l-.18958 1.51816zM14.2614 27.01734c-.41395.1553-.9489.32723-1.6906.32723-1.17277 0-1.98352-.5173-1.98352-1.67294 0-.13765.01764-.32723.0348-.46588l1.67293-10.6427h1.62152l-1.63865 10.3326s-.01715.17245-.01715.24153c0 .62067.25866.81075.9484.81075.41396 0 .84505-.1205 1.18992-.242l-.13764 1.3114zM19.60795 25.94788c2.06975 0 3.4669-1.70773 3.4669-4.15714 0-1.8111-.93127-2.50084-2.2422-2.50084-1.98352 0-3.44974 1.55244-3.50168 4.15664 0 1.3457.4659 2.50134 2.27698 2.50134m-3.88084-2.3632c0-3.122 2.01782-5.67478 5.1575-5.67478 2.4489 0 3.81175 1.32807 3.81175 3.72555 0 3.22588-2.01832 5.70958-5.22655 5.70958-2.34555-.0348-3.7427-1.27664-3.7427-3.76034M33.44077 27.1725H32.1127l.29295-2.76c-1.12084 1.742-2.56992 2.93242-4.26 2.93242-1.46622 0-2.17362-.98268-2.17362-2.4494 0-.2758.01715-.5516.06908-.8627l.94892-5.95008h1.60386l-.89697 5.65714c-.05193.2758-.06907.5521-.06907.81076 0 .77647.2415 1.36286 1.00084 1.36286 1.24135 0 2.93193-1.79446 4.00135-3.81227l.63832-4.0185h1.6215l-1.44907 9.08976zM42.77143 22.11862l.3968-2.57042c-.41394-.18958-1.2247-.31008-1.84588-.31008-2.86285 0-3.63932 2.5699-3.63932 4.32907 0 1.3457.44873 2.34604 1.259 2.34604 1.15612 0 2.86335-2.0526 3.8294-3.79462m-6.72706 1.63866c0-2.53563 1.29378-5.84773 5.31277-5.84773.75883 0 1.5353.121 2.0526.22487l.1553-1.19092.37967-2.38034h1.621l-2.00066 12.60908h-1.3457l.32822-2.7595c-.9489 1.56958-2.38084 2.93193-3.93327 2.93193-1.70724 0-2.56993-1.5348-2.56993-3.5874M49.65303 25.2059c.17243.13815 1.9316.63882 3.69126.63882 2.0526 0 3.44973-.81126 3.44973-2.12168 0-2.69092-6.24403-1.4148-6.24403-5.2094 0-2.3632 2.0869-3.70892 5.2089-3.70892 1.79396 0 3.20824.4659 3.55312.5864l-.32773 1.51814c-.68976-.34487-2.2079-.62118-3.41497-.62118-1.79395 0-3.3464.7079-3.3464 1.98404 0 2.4837 6.2617 1.20756 6.2617 5.2432 0 2.53613-2.13934 3.8294-5.33043 3.8294-2.0521 0-3.8289-.5521-3.8289-.5521l.32773-1.58672zM66.7971 22.11862l.3963-2.57042c-.41345-.18958-1.2247-.31008-1.84538-.31008-2.86336 0-3.63984 2.5699-3.63984 4.32907 0 1.3457.44874 2.34604 1.2595 2.34604 1.15563 0 2.86336-2.0526 3.8294-3.79462m-6.72705 1.63866c0-2.53563 1.36236-5.84773 5.38135-5.84773 1.6215 0 2.86336.32823 3.51933.50067l-1.3805 8.76202H66.245l.32772-2.7595c-.9484 1.56958-2.38033 2.93193-3.93277 2.93193-1.70773 0-2.56992-1.5348-2.56992-3.5874M71.48803 18.08254h1.32807l-.29294 2.76c1.12084-1.74252 2.5694-2.93294 4.26-2.93294 1.46622 0 2.1736.9832 2.1736 2.4499 0 .2753-.01763.5516-.06906.8622l-.9484 5.9506H76.3349l.89698-5.65716c.05143-.2763.06857-.5521.06857-.81126 0-.77596-.241-1.36235-.99983-1.36235-1.24235 0-2.93244 1.79395-4.00235 3.81227l-.63783 4.0185h-1.6215l1.44906-9.08976zM87.2527 22.11862l.3963-2.57042c-.41344-.18958-1.2247-.31008-1.84537-.31008-2.86336 0-3.63983 2.5699-3.63983 4.32907 0 1.3457.44874 2.34604 1.2595 2.34604 1.15562 0 2.86336-2.0526 3.8294-3.79462m-6.72756 1.63866c0-2.53563 1.2943-5.84773 5.31278-5.84773.75882 0 1.5353.121 2.0531.22487l.1548-1.19092.37966-2.38034h1.6215l-2.00116 12.60908H86.7006l.32774-2.7595c-.9484 1.56958-2.38034 2.93193-3.93278 2.93193-1.70773 0-2.57042-1.5348-2.57042-3.5874M92.7369 23.1364l-.3963 2.56992c.41345.19008 1.2247.3106 1.84538.3106 2.86336 0 3.63933-2.57043 3.63933-4.3296 0-1.3452-.44822-2.34554-1.25898-2.34554-1.15563 0-2.86336 2.0526-3.8294 3.79462m6.72705-1.63865c0 2.53512-1.36236 5.84722-5.38135 5.84722-1.6215 0-2.881-.32773-3.53647-.50067l1.94925-12.28134h1.60436l-.75932 4.76117-.2758 1.31093c.96605-1.48336 2.3632-2.7252 3.8294-2.7252 1.74203 0 2.56993 1.53528 2.56993 3.5879M104.5689 25.94788c2.06976 0 3.4674-1.70773 3.4674-4.15714 0-1.8111-.93176-2.50084-2.24218-2.50084-1.98404 0-3.45025 1.55244-3.5022 4.15664 0 1.3457.4659 2.50134 2.277 2.50134m-3.88085-2.3632c0-3.122 2.01832-5.67478 5.15748-5.67478 2.4494 0 3.81226 1.32807 3.81226 3.72555.00002 3.22588-2.0183 5.70958-5.22654 5.70958-2.34605-.0348-3.7432-1.27664-3.7432-3.76034M116.15914 27.1725l-1.79395-3.3116-2.89765 3.3116h-1.8106l3.96707-4.55346-2.46706-4.5363h1.82874l1.8111 3.38067 2.93192-3.38066h1.7773l-4.00234 4.55344 2.50135 4.5363"/></g><path d="M79.53408 5.6592c0-2.30167 1.38958-4.2837 3.3726-5.15495H59.43914c-.57782 0-1.05026.47244-1.05026 1.05025v8.1968c0 .57732.47244 1.05026 1.05026 1.05026h23.44235c-1.97042-.8768-3.3474-2.85075-3.3474-5.14235" fill="#F39A1E"/><path d="M85.16254 2.99173c-1.47126 0-2.66773 1.19698-2.66773 2.66773 0 .91412.46236 1.72185 1.16522 2.20286.062-.32168.15983-.62975.2889-.92118-.33983-.3227-.5526-.77748-.5526-1.28168 0-.97412.7921-1.76622 1.76622-1.76622.56672 0 1.07143.26824 1.39512.6847.30202-.0988.61866-.16587.9464-.19562-.4538-.8279-1.33312-1.3906-2.34152-1.3906" fill="#F39A1E"/><path d="M86.4137 5.6592c0-.15528-.03024-.30402-.08167-.44117-.72403.32874-1.32706.87782-1.72386 1.56152.1674.0832.35496.13058.55462.13058.68974 0 1.2509-.56117 1.2509-1.25092M87.92037 7.27326c.75227 0 1.3694.58437 1.42387 1.32303.5763-.81833.91865-1.8116.93025-2.88354-.56522-.45278-1.26203-.74773-2.02287-.81782.0605.24504.09328.50067.09328.76437 0 .58892-.16184 1.14102-.44167 1.61497.00605 0 .0111-.001.01714-.001M87.00605 8.70262c0 .5042.40992.91462.91412.91462s.91462-.41042.91462-.91462-.41043-.91412-.91463-.91412-.91412.40992-.91412.91412" fill="#F39A1E"/><path d="M86.815 5.03682c.07362.19362.11396.40336.11396.6222 0 .9741-.7926 1.7667-1.76622 1.7667-.28135 0-.54656-.06654-.78252-.18352-.11496.27832-.19714.57277-.24303.87983.31562.1316.6625.2047 1.02554.2047 1.47076 0 2.66723-1.19646 2.66723-2.66772 0-.26974-.04034-.5304-.11547-.77596-.3111.01513-.6126.06807-.8995.15378" fill="#F39A1E"/><path d="M80.04913 5.6592c0 2.43984 1.71832 4.48488 4.0079 4.9916-.30353-.5904-.47597-1.2595-.47597-1.9679 0-.08672.00302-.17293.00807-.25865-.9605-.54857-1.60942-1.58218-1.60942-2.76504 0-1.7546 1.4279-3.1825 3.18304-3.1825 1.2948 0 2.4111.77797 2.90723 1.89075.79664.03126 1.53882.27882 2.16857.6862-.3005-2.5351-2.4615-4.50755-5.0758-4.50755-2.8195 0-5.1136 2.2936-5.1136 5.1131" fill="#F39A1E"/><path d="M86.0513 4.77983c-.2269-.2294-.54152-.3716-.8889-.3716-.68976 0-1.25094.56118-1.25094 1.25093 0 .30302.1084.58134.2884.79815.43765-.72503 1.08253-1.31142 1.85143-1.67747M85.16254 10.77262c.9131 0 1.77025-.2415 2.51294-.66302-.6716-.11647-1.18437-.70236-1.18437-1.40673 0-.05294.00354-.10537.00858-.1568-.4064.18907-.85966.29596-1.33714.29596-.37362 0-.7326-.06554-1.06588-.18453 0 .00857-.0005.01663-.0005.0252 0 .76286.22587 1.47278.6141 2.06875.14875.0131.2995.02117.45228.02117" fill="#F39A1E"/><path d="M62.6596 8.78017c-.21024.09025-.52083.21025-1.01192.21025-.86168 0-1.43244-.4205-1.43244-1.32252V2.33042h1.2126v4.9568c0 .56118.27026.6716.58085.6716.21024 0 .421-.0605.601-.1205l.0499.94185zM66.3466 6.76634c-.22035-.02017-.5511-.04992-.87178-.04992-.69126 0-1.31193.17042-1.31193.77143 0 .57126.56066.63126.86167.63126.6711 0 1.0815-.31058 1.32202-.56117v-.7916zm.27074 2.1141l-.11042-.6514c-.45075.52133-1.082.76133-1.7632.76133-.9716 0-1.78335-.47042-1.78335-1.4627 0-1.17226 1.11227-1.5726 2.3743-1.5726.361 0 .70183.03984 1.01192.08017v-.62168c0-.601-.45077-.89143-1.3422-.89143-.59143 0-1.19243.1301-1.62353.3106l-.0494-1.00186c.31008-.1205.98167-.34084 1.96335-.34084 1.2121 0 2.26437.3706 2.26437 1.8338v3.55662h-.94186zM69.45252 7.9185c.27076.07058.5516.10032.7916.10032.98218 0 1.66336-.481 1.66336-1.84386 0-1.06135-.41042-1.67294-1.17227-1.67294-.541 0-.99175.32067-1.28268.63126v2.7852zm-1.2121-5.58808h1.2121v1.16975l-.02975.6615c.33076-.361.86118-.6716 1.5731-.6716 1.2822 0 2.11413.9822 2.11413 2.6748 0 1.92404-1.12235 2.82555-2.83563 2.82555-.76134 0-1.7032-.18-2.03395-.29042V2.33042zM73.5905 7.7351c.0706.06.9726.3005 1.7637.3005.62067 0 1.11177-.15024 1.11177-.57074 0-1.0422-2.96572-.41093-2.96572-2.38488 0-1.01143.77193-1.56302 2.23462-1.56302.90152 0 1.5832.21075 1.7032.28033l-.04992 1.00235c-.3005-.15076-.96202-.28034-1.56302-.28034-.65093 0-1.1526.14976-1.1526.54052 0 .95193 2.9763.34084 2.9763 2.3748 0 1.10217-.87228 1.58267-2.22454 1.58267-.95195 0-1.85346-.2405-1.8837-.2501l.0499-1.0321z" fill="#FFF"/><path fill="#F39A1E" d="M49.4758 8.87667h1.84033V2.33113H49.4758M53.9626 5.6112h-.00405l.00404-.01512 1.88923-3.2652H54.0115l-1.88975 3.2652.0106.01513h-.0106l1.88975 3.26522h1.84033M33.6606 2.33143H32.1823l-3.7795 6.54504h1.8615l2.69194-4.66034v4.66034h1.86V2.33143h-.99933M13.5004 6.14813h2.89715l.62722-1.07344H14.0863"/><path d="M12.90832 4.8135h.0015c0-.82688.24757-1.13747 1.05228-1.13747h2.61832l.78303-1.3573H13.6873c-1.56604 0-2.60016.54907-2.60016 2.5326v4.03764h5.65664l.78303-1.3563h-4.61848V4.8135zM44.70555 6.14813h2.89764l.62722-1.07344h-2.939" fill="#F39A1E"/><path d="M44.1772 4.8135h.0015c0-.82688.24807-1.13747 1.05328-1.13747h2.61782l.78353-1.3573H44.9567c-1.56556 0-2.60018.54907-2.60018 2.5326v4.03764h5.65664l.78302-1.3563h-4.619V4.8135zM35.6289 3.69287h2.2896v5.1837h1.801v-5.1837h1.6941l.78556-1.36134h-5.7837M21.319 7.53494h-.99882V3.67276h.99883c1.45463 0 1.91144.25663 1.91144 1.88168 0 1.62504-.4568 1.9805-1.91143 1.9805m.39228-5.21597h-3.1558v6.57026h3.24c2.27546 0 3.2995-.87782 3.2995-3.3368 0-2.3254-1.01345-3.23346-3.3837-3.23346M26.12218 8.87667h1.83984V2.33163h-1.83984M5.96274 5.65775V2.33153l-2.18824.00655L.00005 8.8695H1.8051l2.3173-4.0094v3.9827l-.01563.0267h.01563v.00707h1.84034l2.2664-4.01647v4.01647h1.84083V2.33153l-2.18874.00655" fill="#F39A1E"/><g fill="#F39A1E"><path d="M122.8 14.99142v7.97716c0 .09864.09307.19142.2014.19142h15.2372c.1156 0 .2014-.08523.2014-.19142v-7.97716c0-.09864-.09307-.19142-.2014-.19142h-15.2372c-.1156 0-.2014.08523-.2014.19142zm-.8 0c0-.54755.44348-.99142 1.0014-.99142h15.2372c.55305 0 1.0014.45384 1.0014.99142v7.97716c0 .54755-.44348.99142-1.0014.99142h-15.2372c-.55305 0-1.0014-.45384-1.0014-.99142v-7.97716z" fill-rule="nonzero"/><path d="M127.656 21.872v-.912h-2.648v-4.744H124v5.656h3.656zm1.696 0v-4.216h-.968v4.216h.968zm.08-5.344c0-.304-.16-.528-.56-.528-.416 0-.568.224-.568.528 0 .304.152.528.568.528.4 0 .56-.232.56-.528zm3.4 4.408c-.184.096-.416.16-.632.16-.328 0-.616-.08-.616-.52v-2.144h1.168l.04-.776h-1.208V16.64h-.84l-.112 1.016h-.568v.776h.552v2.24c0 .984.592 1.288 1.256 1.288.352 0 .688-.08.992-.192l-.032-.832zm4.32-.024l-.008.776c-.368.144-1.008.272-1.584.272-1.456 0-2.144-.792-2.144-2.152 0-1.408.704-2.24 1.992-2.24 1.336 0 1.832.808 1.832 1.784 0 .208-.024.448-.064.656H134.4c.048.824.464 1.152 1.288 1.152.632 0 1.256-.184 1.464-.248zm-.872-1.544v-.088c0-.592-.28-.96-.864-.96-.576 0-.952.344-1.008 1.048h1.872z"/></g></g></svg>