<?xml version="1.0" encoding="utf-8"?>
<!-- Generator: Adobe Illustrator 22.1.0, SVG Export Plug-In . SVG Version: 6.00 Build 0)  -->
<!DOCTYPE svg PUBLIC "-//W3C//DTD SVG 1.1//EN" "http://www.w3.org/Graphics/SVG/1.1/DTD/svg11.dtd">
<svg version="1.1" id="avatar" xmlns="http://www.w3.org/2000/svg" xmlns:xlink="http://www.w3.org/1999/xlink" x="0px" y="0px"
	 viewBox="0 0 300 300" enable-background="new 0 0 300 300" xml:space="preserve">
<rect id="bounds" fill="none" width="300" height="300"/>
<path fill="#D0D2D3" d="M185.9,209.7v-9.5c8-8.7,14.2-20.1,18.1-33.2c5.8-4.8,9.3-12.1,9.3-19.8c0-5.3-1.6-10.3-4.6-14.7v-26.4
	c0-34.5-21.3-54.2-58.5-54.2c-36.6,0-58.5,20.3-58.5,54.2v26.4c-3,4.3-4.6,9.4-4.6,14.6c0,7.7,3.4,15,9.2,19.8
	c3.9,13.1,10.1,24.6,18.1,33.3v9.5c-1.9,3.9-16.5,15.4-76.7,39.4c27.5,31.2,67.6,51,112.4,51c44.7,0,84.7-19.7,112.2-50.7
	C202.2,225.4,187.8,213.6,185.9,209.7z"/>
</svg>
