<?xml version="1.0" encoding="utf-8"?>
<!-- Generator: Adobe Illustrator 22.1.0, SVG Export Plug-In . SVG Version: 6.00 Build 0)  -->
<svg version="1.1" id="Group" xmlns="http://www.w3.org/2000/svg" xmlns:xlink="http://www.w3.org/1999/xlink" x="0px" y="0px"
	 viewBox="0 0 24 24" enable-background="new 0 0 24 24" xml:space="preserve">
<path id="Bounds" fill="none" d="M0,0h24v24H0V0z"/>
<path id="Shape" d="M18.6,6.6c-1.4,0-2.8,0.6-3.8,1.5L12,10.7L10.5,12l0,0l-2.7,2.4c-0.6,0.6-1.5,1-2.4,1C3.5,15.4,2,13.9,2,12
	s1.5-3.4,3.4-3.4c0.9,0,1.8,0.4,2.4,1l1.1,1l1.5-1.3L9.2,8.2c-1-1-2.4-1.6-3.8-1.6C2.4,6.6,0,9,0,12s2.4,5.4,5.4,5.4
	c1.4,0,2.8-0.6,3.8-1.5l2.8-2.5l0,0l1.5-1.4l0,0l2.7-2.4c0.6-0.6,1.5-1,2.4-1c1.9,0,3.4,1.5,3.4,3.4s-1.5,3.4-3.4,3.4
	c-0.9,0-1.8-0.4-2.4-1l-1.1-1l-1.5,1.3l1.3,1.1c1,1,2.4,1.6,3.8,1.6c3,0,5.4-2.4,5.4-5.4S21.6,6.6,18.6,6.6z"/>
</svg>
