<?xml version="1.0" encoding="utf-8"?>
<!-- Generator: Adobe Illustrator 19.2.0, SVG Export Plug-In . SVG Version: 6.00 Build 0)  -->
<svg version="1.1" id="Group" xmlns="http://www.w3.org/2000/svg" xmlns:xlink="http://www.w3.org/1999/xlink" x="0px" y="0px"
	 viewBox="0 0 24 24" enable-background="new 0 0 24 24" xml:space="preserve">
<path id="Bounds" fill="none" d="M0,0h24v24H0V0z"/>
<path id="Shape" d="M12,13c-2.7,0-8,1.3-8,4v3h16v-3C20,14.3,14.7,13,12,13 M12,4C9.8,4,8,5.8,8,8s1.8,4,4,4s4-1.8,4-4S14.2,4,12,4
	 M12,14.9c3,0,6.1,1.5,6.1,2.1v1.1H5.9V17C5.9,16.4,9,14.9,12,14.9 M12,5.9c1.2,0,2.1,0.9,2.1,2.1l0,0c0,1.2-0.9,2.1-2.1,2.1l0,0
	c-1.2,0-2.1-0.9-2.1-2.1l0,0C9.9,6.8,10.8,5.9,12,5.9L12,5.9z"/>
</svg>
