<?xml version="1.0" encoding="utf-8"?>
<!-- Generator: Adobe Illustrator 22.1.0, SVG Export Plug-In . SVG Version: 6.00 Build 0)  -->
<svg version="1.1" id="Group" xmlns="http://www.w3.org/2000/svg" xmlns:xlink="http://www.w3.org/1999/xlink" x="0px" y="0px"
	 viewBox="0 0 24 24" enable-background="new 0 0 24 24" xml:space="preserve">
<path id="Bounds" fill="none" d="M24,24H0V0h24V24z"/>
<g id="Shape">
	<path id="path_1_" d="M21,17v-6H3v6h8v2H3v2h18v-2h-8v-2H21z M18.2,13.2c0.4,0,0.8,0.3,0.8,0.8s-0.3,0.8-0.8,0.8s-0.8-0.3-0.8-0.8
		S17.8,13.2,18.2,13.2z M5.8,14.8C5.3,14.8,5,14.4,5,14s0.3-0.8,0.8-0.8h9c0.4,0,0.8,0.3,0.8,0.8s-0.3,0.8-0.8,0.8H5.8z"/>
	<path id="path" d="M3,3v6h18V3H3z M14.8,6.8h-9C5.3,6.8,5,6.4,5,6s0.3-0.8,0.8-0.8h9c0.4,0,0.8,0.3,0.8,0.8S15.2,6.8,14.8,6.8z
		 M18.2,6.8c-0.4,0-0.8-0.3-0.8-0.8s0.3-0.8,0.8-0.8S19,5.6,19,6S18.7,6.8,18.2,6.8z"/>
</g>
</svg>
