<?xml version="1.0" encoding="utf-8"?>
<!-- Generator: Adobe Illustrator 19.2.0, SVG Export Plug-In . SVG Version: 6.00 Build 0)  -->
<svg version="1.1" id="Group" xmlns="http://www.w3.org/2000/svg" xmlns:xlink="http://www.w3.org/1999/xlink" x="0px" y="0px"
	 viewBox="0 0 24 24" enable-background="new 0 0 24 24" xml:space="preserve">
<path id="Bounds" fill="none" d="M0,0h24v24H0V0z"/>
<path id="Shape" d="M3.1,17.3c-0.7,1-0.8,2.1,0,3l0.8,0.8c0.4,0.4,1,0.6,1.5,0.6c0.6,0.1,1.1-0.1,1.5-0.6c3-3,5.3-5.3,5.3-5.3
	L8.4,12C8.4,12,6.1,14.3,3.1,17.3z M10.6,15.8l-4.4,4.4l-0.6-0.6l4.4-4.4L10.6,15.8z M9.1,14.3l-4.4,4.4l-0.6-0.6l4.4-4.4L9.1,14.3z
	 M17.4,8.9h2.2l2.2-4.5l-2.2-2.2l-4.5,2.2v2.2l-2.3,2.3l2.3,2.3L17.4,8.9z M21.7,19.1L10.3,7.8c0.6-1.5,0.3-3.2-1-4.4
	C8,2.1,6.1,1.9,4.6,2.6l2.7,2.7L5.4,7.2L2.6,4.5C1.8,6,2.2,7.9,3.4,9.2c1.2,1.2,2.9,1.5,4.4,1l11.4,11.3c0.3,0.3,0.6,0.3,0.9,0
	l1.5-1.5C21.9,19.7,21.9,19.3,21.7,19.1z"/>
</svg>
