<?xml version="1.0" encoding="utf-8"?>
<!-- Generator: Adobe Illustrator 19.2.0, SVG Export Plug-In . SVG Version: 6.00 Build 0)  -->
<svg version="1.1" id="Group" xmlns="http://www.w3.org/2000/svg" xmlns:xlink="http://www.w3.org/1999/xlink" x="0px" y="0px"
	 viewBox="0 0 24 24" enable-background="new 0 0 24 24" xml:space="preserve">
<path id="Bounds" fill="none" d="M0,0h24v24H0V0z"/>
<path id="Shape" d="M17.9,17.4c-0.3-0.8-1-1.4-1.9-1.4h-1v-3c0-0.6-0.4-1-1-1H8v-2h2c0.6,0,1-0.4,1-1V7h2c1.1,0,2-0.9,2-2V4.6
	c2.9,1.2,5,4.1,5,7.4C20,14.1,19.2,16,17.9,17.4 M11,19.9C7,19.4,4,16,4,12c0-0.6,0.1-1.2,0.2-1.8L9,15v1c0,1.1,0.9,2,2,2 M12,2
	C6.5,2,2,6.5,2,12s4.5,10,10,10s10-4.5,10-10S17.5,2,12,2z"/>
</svg>
