<?xml version="1.0" encoding="utf-8"?>
<!-- Generator: Adobe Illustrator 19.2.0, SVG Export Plug-In . SVG Version: 6.00 Build 0)  -->
<svg version="1.1" id="Group" xmlns="http://www.w3.org/2000/svg" xmlns:xlink="http://www.w3.org/1999/xlink" x="0px" y="0px"
	 viewBox="0 0 24 24" enable-background="new 0 0 24 24" xml:space="preserve">
<path id="Bounds" fill="none" d="M0,0h24v24H0V0z"/>
<path id="Shape" d="M19,19V5H5v14H19 M19,3c1.1,0,2,0.9,2,2v14c0,1.1-0.9,2-2,2H5c-1.1,0-2-0.9-2-2V5c0-1.1,0.9-2,2-2H19 M17.1,9.7
	l-1,1l-2.8-2.8l1-1c0.2-0.2,0.6-0.2,0.8,0L17.2,9C17.3,9.2,17.3,9.5,17.1,9.7 M6.6,14.5l6.1-6.1l2.8,2.8l-6.1,6.1H6.6V14.5z"/>
</svg>
