<?xml version="1.0" encoding="utf-8"?>
<!-- Generator: Adobe Illustrator 19.2.0, SVG Export Plug-In . SVG Version: 6.00 Build 0)  -->
<svg version="1.1" id="Group" xmlns:sketch="http://www.bohemiancoding.com/sketch/ns"
	 xmlns="http://www.w3.org/2000/svg" xmlns:xlink="http://www.w3.org/1999/xlink" x="0px" y="0px" viewBox="0 0 24 24"
	 enable-background="new 0 0 24 24" xml:space="preserve">
<path id="Bounds" fill="none" d="M0,0h24v24H0V0z"/>
<path id="Shape" sketch:type="MSShapeGroup" d="M15,21h2v-2h-2V21z M11,21h2v-2h-2V21z M19,13h2v-2h-2V13z M19,21c1.1,0,2-0.9,2-2
	h-2V21z M7,5h2V3H7V5z M19,17h2v-2h-2V17z M19,3h-8v6h10V5C21,3.9,20.1,3,19,3L19,3z M5,21v-2H3C3,20.1,3.9,21,5,21L5,21z M3,17h2
	v-2H3V17z M7,21h2v-2H7V21z M3,5h2V3C3.9,3,3,3.9,3,5L3,5z M3,13h2v-2H3V13z M3,9h2V7H3V9L3,9z"/>
</svg>
