<?xml version="1.0" encoding="utf-8"?>
<!-- Generator: Adobe Illustrator 22.1.0, SVG Export Plug-In . SVG Version: 6.00 Build 0)  -->
<svg version="1.1" id="Group" xmlns="http://www.w3.org/2000/svg" xmlns:xlink="http://www.w3.org/1999/xlink" x="0px" y="0px"
	 viewBox="0 0 24 24" enable-background="new 0 0 24 24" xml:space="preserve">
<path id="Bounds" fill="none" d="M0,0h24v24H0V0z"/>
<path id="Shape" d="M13,2v3c3.4,0.5,6,3.4,6,6.9c0,0.9-0.2,1.8-0.5,2.5l2.6,1.5c0.6-1.2,0.9-2.6,0.9-4.1C22,6.8,18,2.6,13,2z M12,19
	c-3.9,0-7-3.1-7-7c0-3.5,2.6-6.4,6-6.9V2C5.9,2.5,2,6.8,2,12c0,5.5,4.5,10,10,10c3.3,0,6.2-1.6,8.1-4.1l-2.6-1.5
	C16.2,18,14.2,19,12,19z"/>
</svg>
