<?xml version="1.0" encoding="utf-8"?>
<!-- Generator: Adobe Illustrator 19.2.0, SVG Export Plug-In . SVG Version: 6.00 Build 0)  -->
<svg version="1.1" id="Group" xmlns="http://www.w3.org/2000/svg" xmlns:xlink="http://www.w3.org/1999/xlink" x="0px" y="0px"
	 viewBox="0 0 24 24" enable-background="new 0 0 24 24" xml:space="preserve">
<path id="Bounds" fill="none" d="M0,0h24v24H0V0z"/>
<path id="Shape" d="M20.5,5.2C20.8,5.5,21,6,21,6.5V19c0,1.1-0.9,2-2,2H5c-1.1,0-2-0.9-2-2V6.5C3,6,3.2,5.6,3.5,5.2l1.4-1.7
	C5.2,3.2,5.6,3,6.1,3h12c0.5,0,0.9,0.2,1.1,0.5L20.5,5.2 M5,19h14v-5H5V19z M10,17h4v-1h-4V17z M10,10h4V9h-4V10z M5,12h14V7H5V12z"
	/>
</svg>
