<?xml version="1.0" encoding="utf-8"?>
<!-- Generator: Adobe Illustrator 19.2.0, SVG Export Plug-In . SVG Version: 6.00 Build 0)  -->
<svg version="1.1" id="Group" xmlns:sketch="http://www.bohemiancoding.com/sketch/ns"
	 xmlns="http://www.w3.org/2000/svg" xmlns:xlink="http://www.w3.org/1999/xlink" x="0px" y="0px" viewBox="0 0 24 24"
	 enable-background="new 0 0 24 24" xml:space="preserve">
<path id="Bounds" fill="none" d="M-1-1h24v24H-1V-1z"/>
<path id="Shape" sketch:type="MSShapeGroup" d="M8.8,11.1c-1.4,0-2.6-1.2-2.6-2.6s1.2-2.6,2.6-2.6s2.6,1.2,2.6,2.6
	S10.3,11.1,8.8,11.1L8.8,11.1z M14.4,9.2c0-0.2,0.1-0.5,0.1-0.7s0-0.5-0.1-0.8L16,6.5c0.1-0.1,0.2-0.3,0.1-0.5l-1.5-2.6
	c-0.1-0.2-0.3-0.2-0.5-0.2L12.3,4c-0.4-0.3-0.8-0.5-1.3-0.7l-0.3-2c0-0.2-0.2-0.3-0.4-0.3h-3C7.2,1,7,1.1,7,1.3l-0.3,2
	C6.2,3.5,5.8,3.7,5.4,4L3.6,3.3c-0.2-0.1-0.4,0-0.5,0.2L1.6,6C1.5,6.2,1.5,6.4,1.7,6.5l1.6,1.2c0,0.3-0.1,0.5-0.1,0.8s0,0.5,0.1,0.7
	l-1.6,1.2c-0.1,0.1-0.2,0.3-0.1,0.5l1.5,2.6c0.1,0.2,0.3,0.2,0.5,0.2L5.4,13c0.4,0.3,0.8,0.6,1.3,0.7l0.3,2C7,15.9,7.2,16,7.3,16h3
	c0.2,0,0.3-0.1,0.4-0.3l0.3-2c0.5-0.2,0.9-0.4,1.3-0.7l1.9,0.8c0.2,0.1,0.4,0,0.5-0.2l1.5-2.6c0.1-0.2,0.1-0.4-0.1-0.5L14.4,9.2z
	 M16.9,19.8c-1,0-1.8-0.8-1.8-1.8s0.8-1.8,1.8-1.8s1.8,0.8,1.8,1.8S17.8,19.8,16.9,19.8z M20.6,18.5c0-0.2,0-0.3,0-0.5s0-0.3,0-0.5
	l1.1-0.8c0.1-0.1,0.1-0.2,0.1-0.3l-1-1.7c-0.1-0.1-0.2-0.2-0.3-0.1L19.1,15c-0.3-0.2-0.5-0.4-0.8-0.5l-0.2-1.3
	c0-0.1-0.1-0.2-0.2-0.2h-2c-0.1,0-0.2,0.1-0.2,0.2l-0.2,1.3c-0.3,0.1-0.6,0.3-0.8,0.5l-1.2-0.5c-0.1,0-0.2,0-0.3,0.1l-1,1.7
	c-0.1,0.1,0,0.2,0.1,0.3l1.1,0.8c0,0.2,0,0.3,0,0.5s0,0.3,0,0.5l-1.1,0.8C12,19.4,12,19.5,12,19.6l1,1.7c0.1,0.1,0.2,0.1,0.3,0.1
	l1.2-0.5c0.3,0.2,0.5,0.4,0.8,0.5l0.2,1.3c0,0.1,0.1,0.2,0.2,0.2h2c0.1,0,0.2-0.1,0.2-0.2l0.2-1.3c0.3-0.1,0.6-0.3,0.8-0.5l1.2,0.5
	c0.1,0,0.2,0,0.3-0.1l1-1.7c0.1-0.1,0-0.2-0.1-0.3L20.6,18.5L20.6,18.5z"/>
</svg>
