<?xml version="1.0" encoding="utf-8"?>
<!-- Generator: Adobe Illustrator 22.1.0, SVG Export Plug-In . SVG Version: 6.00 Build 0)  -->
<svg version="1.1" id="Group" xmlns="http://www.w3.org/2000/svg" xmlns:xlink="http://www.w3.org/1999/xlink" x="0px" y="0px"
	 viewBox="0 0 24 24" enable-background="new 0 0 24 24" xml:space="preserve">
<path id="Bounds" fill="none" d="M0,0h24v24H0V0z"/>
<path id="Shape" d="M16,6c1.1,0,2,0.9,2,2v8.8c0,1.1-0.9,2-2,2H5.2L2,22V8c0-1.1,0.9-2,2-2H16z M16,16.8V8H4v10l1.2-1.2H16z M11,16
	H9v-2h2V16z M11,13H9V9h2V13z M20,13.2V4H7.6V2H20c1.1,0,2,0.9,2,2v9.2H20z"/>
</svg>
