<?xml version="1.0" encoding="utf-8"?>
<!-- Generator: Adobe Illustrator 19.2.0, SVG Export Plug-In . SVG Version: 6.00 Build 0)  -->
<svg version="1.1" id="Group" xmlns="http://www.w3.org/2000/svg" xmlns:xlink="http://www.w3.org/1999/xlink" x="0px" y="0px"
	 viewBox="0 0 24 24" enable-background="new 0 0 24 24" xml:space="preserve">
<path id="Bounds" fill="none" d="M0,0h24v24H0V0z"/>
<path id="Shape" d="M12,0.5c-3,0-5.8,1.2-7.8,3.2l1.4,1.4C7.2,3.5,9.5,2.5,12,2.5s4.7,1,6.4,2.6l1.4-1.4C17.8,1.7,15,0.5,12,0.5
	 M7,6.5l1.4,1.4c0.9-0.9,2.2-1.5,3.5-1.5s2.6,0.6,3.5,1.5l1.4-1.4c-1.3-1.3-3-2-5-2S8.3,5.3,7,6.5 M12,15.5c-1.1,0-2-0.9-2-2
	s0.9-2,2-2s2,0.9,2,2S13.1,15.5,12,15.5 M16,9.5H8c-0.6,0-1,0.4-1,1v12c0,0.6,0.4,1,1,1h8c0.6,0,1-0.4,1-1v-12
	C17,9.9,16.6,9.5,16,9.5z"/>
</svg>
