<?xml version="1.0" encoding="UTF-8"?>
<svg width="50px" height="42px" viewBox="0 0 50 42" version="1.1" xmlns="http://www.w3.org/2000/svg" xmlns:xlink="http://www.w3.org/1999/xlink">
    <!-- Generator: Sketch 42 (36781) - http://www.bohemiancoding.com/sketch -->
    <title>img_upload_img</title>
    <desc>Created with Sketch.</desc>
    <defs></defs>
    <g id="Page-1" stroke="none" stroke-width="1" fill="none" fill-rule="evenodd">
        <g id="img_upload_img" transform="translate(0.000000, -4.000000)">
            <rect id="bounds" opacity="0.1" x="0" y="0" width="50" height="50"></rect>
            <g id="Group" transform="translate(0.000000, 4.000000)">
                <path d="M20,41.5 C20,41.2238576 20.2276528,41 20.5096495,41 L29.4903505,41 C29.7718221,41 30,41.2319336 30,41.5 C30,41.7761424 29.7723472,42 29.4903505,42 L20.5096495,42 C20.2281779,42 20,41.7680664 20,41.5 Z" id="Combined-Shape" fill="#D1D2D3" opacity="0.5"></path>
                <g transform="translate(17.077078, 13.541544) rotate(-15.000000) translate(-17.077078, -13.541544) translate(2.077078, 3.541544)" id="Combined-Shape">
                    <path d="M0,1.99079514 C0,0.891309342 0.89784041,0 1.99161703,0 L28.008383,0 C29.1083227,0 30,0.898212381 30,1.99079514 L30,18.0092049 C30,19.1086907 29.1021596,20 28.008383,20 L1.99161703,20 C0.891677316,20 0,19.1017876 0,18.0092049 L0,1.99079514 Z" fill="#FFFFFF"></path>
                    <path d="M1,1.99079514 L1,18.0092049 C1,18.5523296 1.44678508,19 1.99161703,19 L28.008383,19 C28.552573,19 29,18.5537116 29,18.0092049 L29,1.99079514 C29,1.44767037 28.5532149,1 28.008383,1 L1.99161703,1 C1.44742702,1 1,1.44628843 1,1.99079514 Z M0,1.99079514 C0,0.891309342 0.89784041,0 1.99161703,0 L28.008383,0 C29.1083227,0 30,0.898212381 30,1.99079514 L30,18.0092049 C30,19.1086907 29.1021596,20 28.008383,20 L1.99161703,20 C0.891677316,20 0,19.1017876 0,18.0092049 L0,1.99079514 Z" fill="#D1D2D3" fill-rule="nonzero"></path>
                    <path d="M3,3.49826741 C3,3.22308192 3.22226536,3 3.50127411,3 L26.4987259,3 C26.7755719,3 27,3.21990657 27,3.49826741 L27,16.5017326 C27,16.7769181 26.7777346,17 26.4987259,17 L3.50127411,17 C3.22442806,17 3,16.7800934 3,16.5017326 L3,3.49826741 Z" fill="#EAEAEA"></path>
                </g>
                <g transform="translate(32.577078, 23.541544) rotate(15.000000) translate(-32.577078, -23.541544) translate(17.577078, 13.541544)" id="Combined-Shape">
                    <path d="M0,1.99079514 C0,0.891309342 0.89784041,0 1.99161703,0 L28.008383,0 C29.1083227,0 30,0.898212381 30,1.99079514 L30,18.0092049 C30,19.1086907 29.1021596,20 28.008383,20 L1.99161703,20 C0.891677316,20 0,19.1017876 0,18.0092049 L0,1.99079514 Z" fill="#FFFFFF"></path>
                    <path d="M1,1.99079514 L1,18.0092049 C1,18.5523296 1.44678508,19 1.99161703,19 L28.008383,19 C28.552573,19 29,18.5537116 29,18.0092049 L29,1.99079514 C29,1.44767037 28.5532149,1 28.008383,1 L1.99161703,1 C1.44742702,1 1,1.44628843 1,1.99079514 Z M0,1.99079514 C0,0.891309342 0.89784041,0 1.99161703,0 L28.008383,0 C29.1083227,0 30,0.898212381 30,1.99079514 L30,18.0092049 C30,19.1086907 29.1021596,20 28.008383,20 L1.99161703,20 C0.891677316,20 0,19.1017876 0,18.0092049 L0,1.99079514 Z" fill="#D1D2D3" fill-rule="nonzero"></path>
                    <path d="M3,3.49826741 C3,3.22308192 3.22226536,3 3.50127411,3 L26.4987259,3 C26.7755719,3 27,3.21990657 27,3.49826741 L27,16.5017326 C27,16.7769181 26.7777346,17 26.4987259,17 L3.50127411,17 C3.22442806,17 3,16.7800934 3,16.5017326 L3,3.49826741 Z" fill="#EAEAEA"></path>
                    <path d="M9.5,8 C8.67157288,8 8,7.32842712 8,6.5 C8,5.67157288 8.67157288,5 9.5,5 C10.3284271,5 11,5.67157288 11,6.5 C11,7.32842712 10.3284271,8 9.5,8 Z M12.5195806,13.157615 C12.8769564,13.5786686 13.4781291,13.5847531 13.8410746,13.1940918 L17.9922587,8.7259082 C18.3647239,8.32500017 18.9632246,8.3235178 19.3434245,8.73828125 L25.3232422,15.2617188 C25.6970052,15.6694602 25.5605417,16 24.9975383,16 L5.00246167,16 C4.44881738,16 4.29570389,15.6559082 4.65252036,15.2407036 L8.84747964,10.3592964 C9.20785668,9.93994859 9.78771718,9.93898315 10.147086,10.362385 L12.5195806,13.157615 Z" fill="#D1D2D3"></path>
                </g>
            </g>
        </g>
    </g>
</svg>
