<svg width="63px" height="56px" viewBox="0 0 63 56" version="1.1" xmlns="http://www.w3.org/2000/svg" xmlns:xlink="http://www.w3.org/1999/xlink">
    <!-- Generator: Sketch 48.2 (47327) - http://www.bohemiancoding.com/sketch -->
    <desc>Created with Sketch.</desc>
    <defs></defs>
    <g id="scene" stroke="none" stroke-width="1" fill="none" fill-rule="evenodd">
        <g id="03_add-scene_erroe_02" transform="translate(-557.000000, -366.000000)">
            <g id="dialog" transform="translate(203.000000, 161.000000)">
                <g id="dropzone" transform="translate(70.000000, 175.000000)">
                    <g transform="translate(150.000000, 0.000000)" id="hint">
                        <g transform="translate(72.000000, 31.000000)">
                            <g id="img" transform="translate(63.000000, 0.000000)">
                                <path d="M50.358,25.909 C50.785,27.503 49.83,29.156 48.236,29.583 L10.565,39.677 C8.971,40.104 7.318,39.149 6.891,37.556 L0.68,14.373 C0.252,12.78 1.207,11.126 2.801,10.699 L40.472,0.605 C42.066,0.178 43.719,1.133 44.146,2.727 L50.358,25.909" id="Fill-1" fill="#FFFFFF"></path>
                                <path d="M50.358,25.909 C50.785,27.503 49.83,29.156 48.236,29.583 L10.565,39.677 C8.971,40.104 7.318,39.149 6.891,37.556 L0.68,14.373 C0.252,12.78 1.207,11.126 2.801,10.699 L40.472,0.605 C42.066,0.178 43.719,1.133 44.146,2.727 L50.358,25.909 L50.358,25.909 Z" id="Stroke-2" stroke="#D1D3D4" stroke-width="1.5"></path>
                                <path d="M58.678,43.613 C58.534,45.256 57.071,46.484 55.427,46.34 L16.576,42.941 C14.932,42.797 13.705,41.334 13.849,39.691 L15.941,15.782 C16.085,14.138 17.547,12.911 19.191,13.055 L58.042,16.454 C59.686,16.598 60.913,18.06 60.769,19.704 L58.678,43.613" id="Fill-3" fill="#FFFFFF"></path>
                                <path d="M58.678,43.613 C58.534,45.256 57.071,46.484 55.427,46.34 L16.576,42.941 C14.932,42.797 13.705,41.334 13.849,39.691 L15.941,15.782 C16.085,14.138 17.547,12.911 19.191,13.055 L58.042,16.454 C59.686,16.598 60.913,18.06 60.769,19.704 L58.678,43.613 L58.678,43.613 Z M31.598,23.728 C31.402,25.966 29.429,27.621 27.192,27.425 C24.954,27.229 23.299,25.257 23.495,23.019 C23.691,20.782 25.663,19.127 27.901,19.322 C30.138,19.518 31.794,21.491 31.598,23.728 L31.598,23.728 Z M15.6410369,42.8325554 L27.3327928,32.48092 L32.5768611,39.3904727 L43.8648591,28.9182481 L57.396084,45.492706" id="Stroke-4" stroke="#D1D3D4" stroke-width="1.5"></path>
                                <path d="M43.287,52.804 C43.287,53.512 37.548,54.086 30.467,54.086 C23.386,54.086 17.646,53.512 17.646,52.804 C17.646,52.096 23.386,51.522 30.467,51.522 C37.548,51.522 43.287,52.096 43.287,52.804" id="Fill-5" fill="#E5E6E7"></path>
                            </g>
                        </g>
                    </g>
                </g>
            </g>
        </g>
    </g>
</svg>
