<?xml version="1.0" encoding="UTF-8"?>
<svg width="119px" height="26px" viewBox="0 0 119 26" version="1.1" xmlns="http://www.w3.org/2000/svg" xmlns:xlink="http://www.w3.org/1999/xlink">
    <!-- Generator: Sketch 48.2 (47327) - http://www.bohemiancoding.com/sketch -->
    <title>logo</title>
    <desc>Created with Sketch.</desc>
    <defs></defs>
    <g id="18_edit-scene" stroke="none" stroke-width="1" fill="none" fill-rule="evenodd" transform="translate(-44.000000, -12.000000)">
        <g id="navigation-bar">
            <g id="logo+header">
                <g id="logo" transform="translate(44.000000, 12.000000)">
                    <path d="M8.29544,23.8000573 L8.107296,25.3052093 C7.850736,25.4078333 6.294272,25.7157053 4.925952,25.7157053 C1.761712,25.7157053 0,24.0566173 0,20.7555453 C0,17.0610813 1.984064,13.2810973 6.824496,13.2810973 C7.662592,13.2810973 9.184848,13.4179293 9.92032,13.6915933 L9.612448,15.1967453 C9.270368,15.0770173 8.29544,14.7691453 6.961328,14.7691453 C3.301072,14.7691453 1.693296,17.4373693 1.693296,20.4818813 C1.693296,23.1672093 3.010304,24.2276573 5.336448,24.2276573 C6.396896,24.2276573 7.61128,24.0224093 8.29544,23.8000573 Z M14.213424,24.0908253 L14.076592,25.3907293 C13.666096,25.5446653 13.135872,25.7157053 12.4004,25.7157053 C11.237328,25.7157053 10.43344,25.2025853 10.43344,24.0566173 C10.43344,23.9197853 10.450544,23.7316413 10.467648,23.5948093 L12.126736,13.0416413 L13.734512,13.0416413 L12.109632,23.2869373 C12.109632,23.2869373 12.092528,23.4579773 12.092528,23.5263933 C12.092528,24.1421373 12.349088,24.3302813 13.033248,24.3302813 C13.443744,24.3302813 13.871344,24.2105533 14.213424,24.0908253 Z M19.242,25.7157053 C16.915856,25.6814973 15.530432,24.4500093 15.530432,21.9870333 C15.530432,18.8912093 17.5316,16.3598173 20.644528,16.3598173 C23.073296,16.3598173 24.424512,17.6768253 24.424512,20.0542813 C24.424512,23.2527293 22.423344,25.7157053 19.242,25.7157053 Z M17.121104,21.8502013 C17.121104,23.1843133 17.582912,24.3302813 19.378832,24.3302813 C21.431312,24.3302813 22.816736,22.6369853 22.816736,20.2082173 C22.816736,18.4122973 21.89312,17.7281373 20.593216,17.7281373 C18.626256,17.7281373 17.172416,19.2674973 17.121104,21.8502013 Z M34.532976,16.5308573 L33.09624,25.5446653 L31.779232,25.5446653 L32.07,22.8080253 C30.95824,24.5355293 29.521504,25.7157053 27.845312,25.7157053 C26.391472,25.7157053 25.690208,24.7407773 25.690208,23.2869373 C25.690208,23.0132733 25.707312,22.7396093 25.758624,22.4317373 L26.699344,16.5308573 L28.290016,16.5308573 L27.400608,22.1409693 C27.349296,22.4146333 27.332192,22.6882973 27.332192,22.9448573 C27.332192,23.7145373 27.571648,24.2960733 28.324224,24.2960733 C29.555712,24.2960733 31.231904,22.5172573 32.292352,20.5160893 L32.9252,16.5308573 L34.532976,16.5308573 Z M38.22744,25.7157053 C36.534144,25.7157053 35.678944,24.1934493 35.678944,22.1580733 C35.678944,19.6437853 36.961744,16.3598173 40.946976,16.3598173 C41.699552,16.3598173 42.469232,16.4795453 42.982352,16.5821693 L43.136288,15.4019933 L43.512576,13.0416413 L45.120352,13.0416413 L43.136288,25.5446653 L41.802176,25.5446653 L42.127152,22.8080253 C41.186432,24.3644893 39.7668,25.7157053 38.22744,25.7157053 Z M38.552416,24.2960733 C39.698384,24.2960733 41.39168,22.2606973 42.349504,20.5331933 L42.742896,17.9846973 C42.3324,17.7965533 41.528512,17.6768253 40.912768,17.6768253 C38.073504,17.6768253 37.303824,20.2253213 37.303824,21.9699293 C37.303824,23.3040413 37.748528,24.2960733 38.552416,24.2960733 Z M48.849024,25.1683773 L49.174,23.5948093 C49.34504,23.7316413 51.089648,24.2276573 52.834256,24.2276573 C54.869632,24.2276573 56.255056,23.4237693 56.255056,22.1238653 C56.255056,19.4556413 50.063408,20.7213373 50.063408,16.9584573 C50.063408,14.6152093 52.132992,13.2810973 55.228816,13.2810973 C57.007632,13.2810973 58.41016,13.7429053 58.75224,13.8626333 L58.427264,15.3677853 C57.743104,15.0257053 56.237952,14.7520413 55.040672,14.7520413 C53.261856,14.7520413 51.722496,15.4533053 51.722496,16.7190013 C51.722496,19.1819773 57.931248,17.9162813 57.931248,21.9186173 C57.931248,24.4329053 55.810352,25.7157053 52.646112,25.7157053 C50.610736,25.7157053 48.849024,25.1683773 48.849024,25.1683773 Z M62.053312,25.7157053 C60.360016,25.7157053 59.504816,24.1934493 59.504816,22.1580733 C59.504816,19.6437853 60.856032,16.3598173 64.841264,16.3598173 C66.44904,16.3598173 67.680528,16.6847933 68.33048,16.8558333 L66.96216,25.5446653 L65.628048,25.5446653 L65.953024,22.8080253 C65.012304,24.3644893 63.592672,25.7157053 62.053312,25.7157053 Z M62.378288,24.2960733 C63.524256,24.2960733 65.217552,22.2606973 66.175376,20.5331933 L66.568768,17.9846973 C66.158272,17.7965533 65.354384,17.6768253 64.73864,17.6768253 C61.899376,17.6768253 61.129696,20.2253213 61.129696,21.9699293 C61.129696,23.3040413 61.5744,24.2960733 62.378288,24.2960733 Z M69.390928,25.5446653 L70.827664,16.5308573 L72.144672,16.5308573 L71.853904,19.2674973 C72.965664,17.5399933 74.4024,16.3598173 76.078592,16.3598173 C77.532432,16.3598173 78.233696,17.3347453 78.233696,18.7885853 C78.233696,19.0622493 78.216592,19.3359133 78.16528,19.6437853 L77.22456,25.5446653 L75.633888,25.5446653 L76.523296,19.9345533 C76.574608,19.6608893 76.591712,19.3872253 76.591712,19.1306653 C76.591712,18.3609853 76.352256,17.7794493 75.59968,17.7794493 C74.368192,17.7794493 72.692,19.5582653 71.631552,21.5594333 L70.998704,25.5446653 L69.390928,25.5446653 Z M82.338656,25.7157053 C80.64536,25.7157053 79.79016,24.1934493 79.79016,22.1580733 C79.79016,19.6437853 81.07296,16.3598173 85.058192,16.3598173 C85.810768,16.3598173 86.580448,16.4795453 87.093568,16.5821693 L87.247504,15.4019933 L87.623792,13.0416413 L89.231568,13.0416413 L87.247504,25.5446653 L85.913392,25.5446653 L86.238368,22.8080253 C85.297648,24.3644893 83.878016,25.7157053 82.338656,25.7157053 Z M82.663632,24.2960733 C83.8096,24.2960733 85.502896,22.2606973 86.46072,20.5331933 L86.854112,17.9846973 C86.443616,17.7965533 85.639728,17.6768253 85.023984,17.6768253 C82.18472,17.6768253 81.41504,20.2253213 81.41504,21.9699293 C81.41504,23.3040413 81.859744,24.2960733 82.663632,24.2960733 Z M96.021856,16.3598173 C97.74936,16.3598173 98.570352,17.8820733 98.570352,19.9174493 C98.570352,22.4317373 97.219136,25.7157053 93.233904,25.7157053 C91.626128,25.7157053 90.377536,25.3907293 89.727584,25.2196893 L91.660336,13.0416413 L93.251008,13.0416413 L92.498432,17.7623453 L92.224768,19.0622493 C93.182592,17.5913053 94.568016,16.3598173 96.021856,16.3598173 Z M95.69688,17.7794493 C94.550912,17.7794493 92.857616,19.8148253 91.899792,21.5423293 L91.5064,24.0908253 C91.916896,24.2789693 92.720784,24.3986973 93.336528,24.3986973 C96.175792,24.3986973 96.945472,21.8502013 96.945472,20.1055933 C96.945472,18.7714813 96.500768,17.7794493 95.69688,17.7794493 Z M103.496304,25.7157053 C101.17016,25.6814973 99.784736,24.4500093 99.784736,21.9870333 C99.784736,18.8912093 101.785904,16.3598173 104.898832,16.3598173 C107.3276,16.3598173 108.678816,17.6768253 108.678816,20.0542813 C108.678816,23.2527293 106.677648,25.7157053 103.496304,25.7157053 Z M101.375408,21.8502013 C101.375408,23.1843133 101.837216,24.3302813 103.633136,24.3302813 C105.685616,24.3302813 107.07104,22.6369853 107.07104,20.2082173 C107.07104,18.4122973 106.147424,17.7281373 104.84752,17.7281373 C102.88056,17.7281373 101.42672,19.2674973 101.375408,21.8502013 Z M116.700592,25.5446653 L114.870464,25.5446653 L113.091648,22.2606973 L110.218176,25.5446653 L108.422256,25.5446653 L112.356176,21.0292093 L109.910304,16.5308573 L111.723328,16.5308573 L113.519248,19.8832413 L116.426928,16.5308573 L118.18864,16.5308573 L114.220512,21.0463133 L116.700592,25.5446653 Z" id="Cloud-Sandbox" fill="#FFFFFF"></path>
                    <g id="Group">
                        <path d="M78.871,5.315 C78.871,3.033 80.249,1.067 82.216,0.203 L58.943,0.203 C58.371,0.203 57.902,0.672 57.902,1.245 L57.902,9.373 C57.902,9.946 58.371,10.415 58.943,10.415 L82.19,10.415 C80.237,9.545 78.871,7.588 78.871,5.315" id="Fill-1" fill="#F39A1E"></path>
                        <path d="M84.452,2.67 C82.994,2.67 81.807,3.857 81.807,5.315 C81.807,6.222 82.265,7.023 82.963,7.5 C83.024,7.181 83.121,6.876 83.249,6.586 C82.912,6.267 82.701,5.816 82.701,5.315 C82.701,4.35 83.487,3.564 84.452,3.564 C85.014,3.564 85.515,3.83 85.836,4.243 C86.136,4.145 86.45,4.079 86.774,4.049 C86.325,3.228 85.453,2.67 84.452,2.67" id="Fill-2" fill="#F39A1E"></path>
                        <path d="M85.693,5.315 C85.693,5.161 85.664,5.014 85.612,4.878 C84.894,5.204 84.296,5.748 83.903,6.426 C84.069,6.509 84.255,6.556 84.452,6.556 C85.137,6.556 85.693,6 85.693,5.315" id="Fill-3" fill="#F39A1E"></path>
                        <path d="M87.187,6.916 C87.933,6.916 88.545,7.496 88.6,8.228 C89.171,7.417 89.511,6.431 89.522,5.369 C88.961,4.92 88.271,4.627 87.516,4.558 C87.576,4.8 87.608,5.054 87.608,5.315 C87.608,5.9 87.448,6.447 87.17,6.917 C87.176,6.917 87.182,6.916 87.187,6.916" id="Fill-4" fill="#F39A1E"></path>
                        <path d="M86.281,8.334 C86.281,8.834 86.687,9.24 87.187,9.24 C87.687,9.24 88.094,8.834 88.094,8.334 C88.094,7.834 87.687,7.427 87.187,7.427 C86.687,7.427 86.281,7.834 86.281,8.334" id="Fill-5" fill="#F39A1E"></path>
                        <path d="M86.091,4.698 C86.164,4.89 86.204,5.098 86.204,5.315 C86.204,6.281 85.418,7.067 84.452,7.067 C84.174,7.067 83.911,7.001 83.676,6.885 C83.563,7.161 83.481,7.453 83.436,7.757 C83.749,7.888 84.092,7.961 84.452,7.961 C85.911,7.961 87.098,6.774 87.098,5.315 C87.098,5.048 87.057,4.789 86.983,4.546 C86.675,4.56 86.376,4.613 86.091,4.698" id="Fill-6" fill="#F39A1E"></path>
                        <path d="M79.382,5.315 C79.382,7.735 81.086,9.763 83.356,10.265 C83.055,9.68 82.884,9.017 82.884,8.314 C82.884,8.228 82.887,8.142 82.892,8.057 C81.94,7.513 81.296,6.488 81.296,5.315 C81.296,3.575 82.712,2.159 84.452,2.159 C85.737,2.159 86.844,2.931 87.336,4.035 C88.126,4.065 88.862,4.311 89.486,4.715 C89.188,2.201 87.045,0.245 84.452,0.245 C81.656,0.245 79.382,2.519 79.382,5.315" id="Fill-7" fill="#F39A1E"></path>
                        <path d="M85.334,4.443 C85.109,4.216 84.797,4.075 84.452,4.075 C83.768,4.075 83.212,4.631 83.212,5.315 C83.212,5.616 83.319,5.892 83.498,6.107 C83.932,5.388 84.571,4.806 85.334,4.443" id="Fill-8" fill="#F39A1E"></path>
                        <path d="M84.452,10.386 C85.358,10.386 86.208,10.146 86.945,9.729 C86.278,9.613 85.77,9.032 85.77,8.334 C85.77,8.281 85.773,8.229 85.779,8.178 C85.375,8.366 84.926,8.472 84.452,8.472 C84.082,8.472 83.726,8.407 83.395,8.289 L83.395,8.314 C83.395,9.07 83.619,9.774 84.004,10.365 C84.152,10.378 84.301,10.386 84.452,10.386" id="Fill-9" fill="#F39A1E"></path>
                        <path d="M62.137,8.41 C61.929,8.5 61.621,8.619 61.134,8.619 C60.279,8.619 59.713,8.202 59.713,7.308 L59.713,2.015 L60.915,2.015 L60.915,6.93 C60.915,7.486 61.183,7.596 61.492,7.596 C61.7,7.596 61.909,7.536 62.088,7.476 L62.137,8.41" id="Fill-10" fill="#FFFFFF"></path>
                        <path d="M66.062,8.51 L65.953,7.864 C65.506,8.381 64.88,8.619 64.204,8.619 C63.24,8.619 62.435,8.152 62.435,7.168 C62.435,6.006 63.538,5.608 64.79,5.608 C65.148,5.608 65.486,5.648 65.793,5.688 L65.793,5.072 C65.793,4.476 65.346,4.188 64.462,4.188 C63.876,4.188 63.28,4.317 62.853,4.496 L62.803,3.502 C63.111,3.383 63.777,3.164 64.75,3.164 C65.953,3.164 66.996,3.532 66.996,4.983 L66.996,8.51 L66.062,8.51 Z M65.793,6.413 C65.575,6.394 65.247,6.364 64.929,6.364 C64.244,6.364 63.628,6.533 63.628,7.129 C63.628,7.695 64.184,7.755 64.482,7.755 C65.148,7.755 65.555,7.447 65.793,7.198 L65.793,6.413 Z" id="Combined-Shape" fill="#FFFFFF"></path>
                        <path d="M67.671,2.015 L68.874,2.015 L68.874,3.174 L68.844,3.83 C69.172,3.472 69.698,3.164 70.404,3.164 C71.676,3.164 72.5,4.138 72.5,5.817 C72.5,7.725 71.388,8.619 69.689,8.619 C68.933,8.619 68,8.44 67.671,8.331 L67.671,2.015 Z M68.874,7.556 C69.142,7.626 69.42,7.655 69.659,7.655 C70.632,7.655 71.308,7.179 71.308,5.827 C71.308,4.774 70.9,4.168 70.145,4.168 C69.609,4.168 69.162,4.486 68.874,4.794 L68.874,7.556 Z" id="Combined-Shape" fill="#FFFFFF"></path>
                        <path d="M72.977,7.374 C73.047,7.434 73.941,7.672 74.726,7.672 C75.342,7.672 75.829,7.523 75.829,7.106 C75.829,6.073 72.888,6.698 72.888,4.741 C72.888,3.738 73.653,3.191 75.103,3.191 C75.998,3.191 76.673,3.4 76.792,3.469 L76.743,4.463 C76.445,4.314 75.789,4.185 75.193,4.185 C74.547,4.185 74.05,4.334 74.05,4.721 C74.05,5.665 77.001,5.059 77.001,7.076 C77.001,8.169 76.137,8.646 74.795,8.646 C73.852,8.646 72.957,8.407 72.928,8.397 L72.977,7.374" id="Fill-13" fill="#FFFFFF"></path>
                        <polygon id="Fill-14" fill="#F39A1E" points="49.063 2.015 50.888 2.015 50.888 8.506 49.063 8.506"></polygon>
                        <polyline id="Fill-15" fill="#F39A1E" points="53.513 5.268 53.509 5.268 53.513 5.253 55.386 2.015 53.561 2.015 51.687 5.253 51.698 5.268 51.687 5.268 53.561 8.506 55.386 8.506 53.513 5.268"></polyline>
                        <polyline id="Fill-16" fill="#F39A1E" points="33.38 2.015 31.914 2.015 28.166 8.506 30.012 8.506 32.681 3.885 32.681 8.506 34.526 8.506 34.526 2.015 33.38 2.015"></polyline>
                        <polyline id="Fill-17" fill="#F39A1E" points="13.388 5.8 16.261 5.8 16.883 4.736 13.968 4.736 13.388 5.8"></polyline>
                        <path d="M12.8,4.477 L12.802,4.477 C12.802,3.657 13.047,3.349 13.845,3.349 L16.442,3.349 L17.219,2.003 L13.573,2.003 C12.02,2.003 10.994,2.547 10.994,4.514 L10.994,8.518 L16.604,8.518 L17.38,7.173 L12.8,7.173 L12.8,4.477" id="Fill-18" fill="#F39A1E"></path>
                        <polyline id="Fill-19" fill="#F39A1E" points="44.333 5.8 47.206 5.8 47.828 4.736 44.914 4.736 44.333 5.8"></polyline>
                        <path d="M43.809,4.477 L43.811,4.477 C43.811,3.657 44.056,3.349 44.855,3.349 L47.45,3.349 L48.228,2.003 L44.582,2.003 C43.029,2.003 42.003,2.547 42.003,4.514 L42.003,8.518 L47.613,8.518 L48.389,7.173 L43.809,7.173 L43.809,4.477" id="Fill-20" fill="#F39A1E"></path>
                        <polyline id="Fill-21" fill="#F39A1E" points="35.332 3.365 37.602 3.365 37.602 8.506 39.388 8.506 39.388 3.365 41.068 3.365 41.847 2.015 36.112 2.015 35.332 3.365"></polyline>
                        <path d="M21.53,2.003 C23.88,2.003 24.885,2.904 24.885,5.21 C24.885,7.648 23.87,8.518 21.614,8.518 L18.4,8.518 L18.4,2.003 L21.53,2.003 Z M21.141,7.176 C22.584,7.176 23.036,6.823 23.036,5.211 C23.036,3.6 22.584,3.345 21.141,3.345 L20.15,3.345 L20.15,7.176 L21.141,7.176 Z" id="Combined-Shape" fill="#F39A1E"></path>
                        <polygon id="Fill-23" fill="#F39A1E" points="25.904 2.015 27.729 2.015 27.729 8.506 25.904 8.506"></polygon>
                        <polyline id="Fill-24" fill="#F39A1E" points="5.913 5.314 5.913 2.015 3.743 2.022 7.10542736e-15 8.499 1.79 8.499 4.088 4.523 4.088 8.472 4.072 8.499 4.088 8.499 4.088 8.506 5.913 8.506 8.16 4.523 8.16 8.506 9.985 8.506 9.985 2.015 7.815 2.022 5.913 5.314"></polyline>
                    </g>
                </g>
            </g>
        </g>
    </g>
</svg>
